<?xml version="1.0" encoding="utf-8"?>
<!-- Generator: Adobe Illustrator 26.0.0, SVG Export Plug-In . SVG Version: 6.00 Build 0)  -->
<svg version="1.1" id="Layer_1" xmlns="http://www.w3.org/2000/svg" xmlns:xlink="http://www.w3.org/1999/xlink" x="0px" y="0px"
	 viewBox="0 0 680.85 548.85" style="enable-background:new 0 0 680.85 548.85;" xml:space="preserve">
<style type="text/css">
	.st0{opacity:0.5;}
</style>
<g>
	<path class="st0" d="M606.39,180.94c0,86.23,0,172.45,0,258.68c-0.25,0.44-0.64,0.85-0.74,1.32c-6.65,31.91-28.63,49.96-61.2,49.97
		c-136.06,0.04-272.12,0.02-408.18-0.02c-4.31,0-8.7-0.1-12.93-0.86c-29.1-5.3-48.79-29.05-48.82-59.08
		c-0.08-79.8-0.04-159.6-0.02-239.4c0.01-36.62,24.95-61.65,61.52-61.74c21.12-0.05,42.24-0.01,63.36-0.01c1.86,0,3.72,0,6.19,0
		c0-6.22-0.01-11.88,0-17.54c0.1-32.08,22.05-54.23,54.1-54.28c53.84-0.09,107.67-0.07,161.51,0.04c4.98,0.01,10.13,0.3,14.89,1.6
		c24.36,6.68,39.05,26.2,39.25,51.55c0.05,6.01,0.01,12.02,0.01,18.6c2.64,0,4.67,0,6.7,0c22.85,0.05,45.71-0.28,68.54,0.26
		c24.76,0.59,46.77,18.27,53.48,42.01C604.88,174.98,605.61,177.97,606.39,180.94z M340.54,440.24
		c71.6-0.31,129.85-58.67,129.75-130.01c-0.11-71.46-58.66-129.92-129.95-129.73c-71.58,0.19-129.85,58.54-129.76,129.93
		C210.67,381.81,269.48,440.54,340.54,440.24z"/>
	<path class="st0" d="M426.17,309.58c1.19,45.66-36.91,85.26-83.16,86.41c-48.27,1.2-87.01-36.05-88.3-84.9
		c-1.21-45.83,37.02-85.33,83.69-86.47C386.07,223.45,424.9,261.04,426.17,309.58z"/>
</g>
</svg>
