<?xml version="1.0" encoding="UTF-8"?>
<!DOCTYPE svg PUBLIC "-//W3C//DTD SVG 1.1//EN" "http://www.w3.org/Graphics/SVG/1.1/DTD/svg11.dtd">
<!-- Creator: CorelDRAW -->
<svg xmlns="http://www.w3.org/2000/svg" xml:space="preserve" width="2.413in" height="2.48in" version="1.1" style="shape-rendering:geometricPrecision; text-rendering:geometricPrecision; image-rendering:optimizeQuality; fill-rule:evenodd; clip-rule:evenodd"
viewBox="0 0 2413 2480"
 xmlns:xlink="http://www.w3.org/1999/xlink"
 xmlns:xodm="http://www.corel.com/coreldraw/odm/2003">
 <defs>
  <style type="text/css">
   <![CDATA[
    .fil2 {fill:#F79635;fill-rule:nonzero}
    .fil1 {fill:url(#id0)}
    .fil0 {fill:url(#id1)}
   ]]>
  </style>
  <linearGradient id="id0" gradientUnits="userSpaceOnUse" x1="-0.11" y1="1122.73" x2="1206.34" y2="1122.73">
   <stop offset="0" style="stop-opacity:1; stop-color:#6D3F95"/>
   <stop offset="0.988235" style="stop-opacity:1; stop-color:#765EA6"/>
   <stop offset="1" style="stop-opacity:1; stop-color:#765EA6"/>
  </linearGradient>
  <linearGradient id="id1" gradientUnits="userSpaceOnUse" xlink:href="#id0" x1="1206.34" y1="1122.26" x2="2412.8" y2="1122.26">
  </linearGradient>
 </defs>
 <g id="Layer_x0020_1">
  <metadata id="CorelCorpID_0Corel-Layer"/>
  <g id="_2143717566272">
   <path class="fil0" d="M2412.79 1388.14l0 -648.08c0,0 -2.83,-51.29 -55.56,-85.49 -52.69,-34.17 -1150.89,-654.74 -1150.89,-654.74l0 2009.35 395.02 235.5 0 -1314.25 811.43 457.71z"/>
   <path class="fil1" d="M55.43 655.06c-52.69,34.18 -55.56,85.47 -55.56,85.47l0 648.08 811.43 -457.69 0 1314.24 395.04 -235.5 0 -2009.35c0,0 -1098.21,620.57 -1150.92,654.75z"/>
   <polygon class="fil2" points="2412.8,1388.14 1601.37,1862.93 1601.37,1156.45 1806.49,1046.14 "/>
   <polygon class="fil2" points="-0.11,1388.62 811.31,1869.41 811.31,1163.96 599.55,1050.09 "/>
   <polygon class="fil2" points="1206.34,2010.13 1601.37,2244.68 1206.34,2480.17 811.31,2245.15 "/>
  </g>
 </g>
</svg>
