<svg width="36" height="36" viewBox="0 0 36 36" fill="none" xmlns="http://www.w3.org/2000/svg">
<g clip-path="url(#clip0_498_108)">
<path d="M10.6903 20.1527C10.3618 19.6098 10.1565 19.084 10.1956 18.4881C10.2667 17.3934 10.8636 16.5962 11.6618 15.9272C11.9933 15.6498 12.2387 15.3733 12.2627 14.9066C12.2858 14.465 12.8406 14.2436 13.1701 14.5471C13.8041 15.132 14.41 15.7499 15.0069 16.3739C15.2192 16.5962 15.1662 16.9618 14.9408 17.1491C14.6794 17.3664 14.399 17.3574 14.1626 17.127C13.8151 16.7875 13.4926 16.423 13.1771 16.0874C12.8476 16.3879 12.5662 16.6343 12.2978 16.8937C12.1185 17.0669 11.9412 17.2482 11.794 17.4475C11.0749 18.419 11.2271 19.3394 12.2217 20.0325C12.3248 20.1046 12.472 20.1426 12.5992 20.1436C14.0765 20.1517 15.5538 20.1496 17.031 20.1476C17.3825 20.1476 17.7231 19.8322 17.8863 19.3715C18.0456 18.9218 17.9935 18.5863 17.701 18.3469C17.4687 18.1566 17.2153 17.9944 16.9759 17.8121C15.9413 17.0269 15.7551 15.8951 16.5443 14.8606C16.8187 14.501 17.1953 14.2086 17.5618 13.9342C17.8412 13.7248 18.1758 13.82 18.353 14.0814C18.5393 14.3558 18.4522 14.6583 18.1758 14.9026C17.8803 15.163 17.5658 15.4284 17.3585 15.7549C17.0861 16.1826 17.1822 16.482 17.5738 16.8035C17.7671 16.9618 17.9755 17.102 18.1778 17.2492C19.1312 17.9433 19.3656 18.7415 18.9399 19.8452C18.9089 19.9253 18.8768 20.0054 18.8298 20.1256C18.967 20.1336 19.0831 20.1476 19.1993 20.1476C20.4392 20.1496 21.6781 20.1476 22.918 20.1476C23.8675 20.1476 24.6837 19.1041 24.3492 18.2097C24.1689 17.7269 23.7983 17.3033 23.4668 16.8907C23.2355 16.6032 22.924 16.3789 22.6085 16.0894C22.3151 16.3979 22.0116 16.7304 21.6931 17.0479C21.3877 17.3524 21.0522 17.3714 20.8028 17.118C20.5584 16.8696 20.5854 16.5301 20.8879 16.2257C21.4167 15.6918 21.9345 15.146 22.4934 14.6462C22.6516 14.505 22.945 14.4309 23.1594 14.459C23.4288 14.494 23.4849 14.7664 23.546 15.0308C23.6061 15.2912 23.7673 15.5446 23.9366 15.7589C24.1048 15.9713 24.3512 16.1205 24.5415 16.3168C25.6692 17.4786 25.8345 18.5622 25.1053 20.1466H25.515C28.0939 20.1466 30.6739 20.1466 33.2528 20.1466C34.4046 20.1466 35.2559 20.6885 35.6184 21.6499C35.981 22.6134 35.6955 23.5528 34.8322 24.34C34.727 24.4352 34.679 24.6415 34.678 24.7957C34.6629 27.4999 34.6589 30.204 34.6529 32.9071C34.6509 33.7254 34.4837 33.8816 33.6534 33.8746C32.8181 33.8666 31.9829 33.8726 31.1115 33.8726C31.1115 34.3553 31.1145 34.8161 31.1115 35.2758C31.1065 35.7775 30.9032 35.9868 30.4064 35.9908C29.7554 35.9969 29.1045 35.9969 28.4535 35.9908C27.9777 35.9858 27.7674 35.7785 27.7574 35.3008C27.7474 34.8281 27.7554 34.3543 27.7554 33.8386H8.00322C8.00322 34.2903 8.00622 34.75 8.00322 35.2087C7.99821 35.8076 7.81493 35.9868 7.21201 35.9888C6.59807 35.9908 5.98513 35.9929 5.37119 35.9888C4.86442 35.9848 4.66411 35.7845 4.66011 35.2848C4.6561 34.811 4.66011 34.3363 4.66011 33.8195C4.50788 33.8105 4.37668 33.7965 4.24547 33.7965C3.46929 33.7945 2.6931 33.7965 1.91692 33.7945C1.29597 33.7925 1.08565 33.5852 1.08765 32.9542C1.09366 31.2266 1.11069 29.4989 1.1177 27.7713C1.1227 26.7577 1.12671 25.7432 1.10868 24.7296C1.10568 24.5844 1.01254 24.3991 0.900364 24.304C0.101143 23.632 -0.197313 22.6535 0.136197 21.708C0.467703 20.7676 1.318 20.1557 2.35058 20.1527C4.9796 20.1446 7.60962 20.1496 10.2386 20.1496C10.3718 20.1496 10.506 20.1496 10.6923 20.1496L10.6903 20.1527ZM33.4992 24.8518H2.29049V28.0337C2.40366 28.0427 2.50081 28.0557 2.59896 28.0557C4.52691 28.0697 6.45485 28.0818 8.3828 28.0938C9.33425 28.0998 10.2857 28.1048 11.2372 28.1068C11.5546 28.1068 11.808 28.255 11.8251 28.5625C11.8361 28.7598 11.7009 28.9992 11.5607 29.1574C11.4785 29.2506 11.2592 29.2455 11.1009 29.2455C8.35876 29.2415 5.61757 29.2305 2.87538 29.2215C2.68008 29.2215 2.48479 29.2215 2.28548 29.2215V32.5766H33.4861V29.2966C33.3229 29.2966 33.1757 29.2966 33.0284 29.2966C30.2362 29.2966 27.4439 29.2976 24.6527 29.2956C24.196 29.2956 23.9225 29.0733 23.9175 28.7207C23.9125 28.3672 24.1879 28.1429 24.6396 28.1328C24.7268 28.1308 24.8149 28.1328 24.903 28.1328C27.6202 28.1328 30.3373 28.1328 33.0535 28.1328C33.1977 28.1328 33.3429 28.1328 33.5012 28.1328V24.8528L33.4992 24.8518ZM17.7561 23.5559V23.631C22.8759 23.631 27.9948 23.631 33.1146 23.631C33.2648 23.631 33.415 23.634 33.5653 23.621C34.041 23.5809 34.4396 23.2494 34.5728 22.7927C34.8112 21.9744 34.2163 21.2914 33.2528 21.2914C23.0141 21.2904 12.7755 21.2904 2.53586 21.2924C2.37462 21.2924 2.20936 21.3034 2.05313 21.3395C1.49027 21.4707 1.09767 22.0125 1.15575 22.5593C1.22186 23.1833 1.63949 23.5548 2.28648 23.5548C7.44336 23.5559 12.6002 23.5548 17.7561 23.5548V23.5559ZM5.82689 34.809H6.8164V33.8315H5.82689V34.809ZM28.9462 34.798H29.9467V33.8736H28.9462V34.798Z" fill="#B07FD8"/>
<path d="M17.1252 4.92157C17.3966 3.46435 17.6059 2.10126 17.032 0.741186C16.9619 0.575934 17.0551 0.238418 17.1933 0.119236C17.3295 0.00105556 17.687 -0.0450148 17.8292 0.0521336C20.1227 1.61152 22.0727 3.46334 22.7177 6.30168C22.9971 7.53056 22.887 8.77045 22.5134 9.97129C22.1659 11.087 21.4337 11.8932 20.3331 12.2938C18.7867 12.8567 17.1993 12.9739 15.6299 12.408C14.2367 11.9062 13.2723 10.9588 12.9788 9.4545C12.7935 8.50304 13.069 7.64674 13.6258 6.87355C14.0164 6.33073 14.379 5.77087 14.4381 5.08783C14.4651 4.77134 14.375 4.44685 14.383 4.12736C14.389 3.89601 14.394 3.58353 14.5352 3.45934C14.6764 3.33415 15.0109 3.32213 15.2152 3.39324C15.9904 3.66465 16.5873 4.19346 17.1282 4.92057L17.1252 4.92157ZM15.6219 4.97065C15.5237 6.06131 15.026 6.89158 14.4621 7.69882C14.1616 8.12847 14.0184 8.62223 14.1005 9.15805C14.2788 10.3218 15.045 10.9818 16.0826 11.3464C17.2824 11.768 18.5003 11.6599 19.7001 11.3013C20.6596 11.0149 21.2495 10.3529 21.4838 9.39541C21.9105 7.65375 21.7412 5.99521 20.7377 4.46287C20.1398 3.54948 19.4217 2.75126 18.5764 2.03917C18.5493 2.10427 18.5323 2.1263 18.5333 2.14733C18.6234 3.94408 18.2028 5.64768 17.5899 7.31523C17.4346 7.73888 17.1702 7.91014 16.8397 7.82301C16.5292 7.74188 16.395 7.48048 16.4461 7.04181C16.5403 6.23858 16.2899 5.57056 15.6219 4.97165V4.97065Z" fill="#662E93"/>
<path d="M17.9003 31.9396C16.1337 31.9456 14.6684 30.4924 14.6624 28.7267C14.6564 26.959 16.1096 25.4957 17.8763 25.4907C19.646 25.4857 21.1072 26.9349 21.1133 28.7036C21.1193 30.4723 19.6681 31.9336 17.9003 31.9406V31.9396ZM19.9555 28.7197C19.9595 27.5879 19.0491 26.6655 17.9124 26.6475C16.7706 26.6295 15.8252 27.5619 15.8212 28.7097C15.8172 29.8544 16.7596 30.7938 17.9024 30.7828C19.0371 30.7718 19.9525 29.8524 19.9565 28.7197H19.9555Z" fill="#662E93"/>
</g>
<defs>
<clipPath id="clip0_498_108">
<rect width="35.7727" height="36" fill="white"/>
</clipPath>
</defs>
</svg>
