<svg width="36" height="35" viewBox="0 0 36 35" fill="none" xmlns="http://www.w3.org/2000/svg">
<g clip-path="url(#clip0_493_14)">
<path d="M-1.70899e-05 14.4788C0.38342 13.3781 1.30967 13.2131 2.27436 13.2506C3.93561 13.3153 5.51623 13.7278 6.92436 14.6494C9.2878 16.1972 11.5837 17.8387 13.665 19.7587C14.0344 20.0991 14.3634 20.4834 14.7065 20.8509C14.7937 20.9447 14.8678 21.0516 14.9409 21.1584C15.4762 21.9413 15.4003 22.365 14.6531 22.875C16.5975 22.8319 18.5447 22.8863 20.3765 23.9034C20.5903 23.4806 20.8444 23.0616 21.0169 22.6116C21.1894 22.1616 20.88 21.7481 20.3962 21.7369C20.0119 21.7284 19.6275 21.7838 19.2431 21.78C18.4022 21.7716 17.5603 21.7537 16.7194 21.7172C16.4156 21.7041 16.2665 21.4772 16.259 21.1903C16.2506 20.8828 16.4081 20.6672 16.7212 20.6241C16.9519 20.5922 17.189 20.6081 17.4225 20.6072C17.7853 20.6053 18.1472 20.6072 18.51 20.6072C18.5297 20.5631 18.5559 20.5322 18.5559 20.5012C18.5597 19.2591 18.5737 18.0169 18.5559 16.7747C18.5465 16.1156 18.0506 15.6703 17.3944 15.6703C16.199 15.6703 15.0047 15.6741 13.8094 15.6703C13.2815 15.6684 12.9206 15.8991 12.7162 16.3884C12.5522 16.7803 12.27 16.8984 11.9025 16.7428C11.5369 16.5881 11.4131 16.3003 11.5678 15.9103C11.8537 15.1913 12.3628 14.6962 13.1165 14.5012C13.3425 14.4431 13.3856 14.3466 13.3856 14.1441C13.3819 9.91406 13.3828 5.68312 13.3819 1.45312C13.3819 1.36219 13.3678 1.27125 13.3565 1.14C13.2028 1.14 13.0659 1.14 12.9281 1.14C10.8656 1.14 8.80405 1.14 6.74155 1.14C6.60092 1.14 6.45748 1.14469 6.32155 1.11844C6.05623 1.06688 5.92686 0.879375 5.91092 0.619688C5.89592 0.361875 5.9953 0.151875 6.25217 0.0684375C6.39373 0.0234375 6.55217 0.01875 6.70311 0.0178125C10.1353 0.009375 13.5684 0 17.0006 0C19.484 0 21.9684 0.009375 24.4519 0.0159375C24.9609 0.0178125 25.1803 0.184687 25.1887 0.564375C25.1962 0.894375 25.0256 1.09875 24.6965 1.12969C24.5222 1.14656 24.3459 1.14 24.1697 1.14C22.1775 1.14 20.1862 1.14 18.194 1.14C18.0684 1.14 17.9428 1.14 17.7984 1.14V14.4113C18.0553 14.5163 18.3187 14.5875 18.5437 14.7234C19.2787 15.165 19.6837 15.8147 19.6856 16.6875C19.6884 17.9756 19.6856 19.2628 19.6856 20.6053C19.919 20.6053 20.1356 20.6016 20.3531 20.6053C21.7894 20.6344 22.5965 21.9675 21.9609 23.2547C21.5934 23.9981 21.2747 24.7716 20.8434 25.4756C20.625 25.8319 20.2425 26.1319 19.8694 26.3409C19.0828 26.7797 18.1969 26.9297 17.31 27.0309C15.524 27.2353 13.754 27.1791 12.0253 26.6409C11.6494 26.5238 11.2894 26.3419 10.9444 26.1488C10.7456 26.0381 10.5384 25.8759 10.4306 25.6837C10.0997 25.0941 9.79873 24.4847 9.51936 23.8678C9.40405 23.6128 9.52592 23.3859 9.78561 23.2594C10.0472 23.1319 10.2919 23.1441 10.4672 23.4009C10.5778 23.5631 10.6603 23.7441 10.7681 23.9409C11.7056 23.3259 12.7537 23.1141 13.6922 22.9828C12.6347 22.6791 11.4553 22.3847 10.3069 22.0012C8.09717 21.2634 5.93155 20.3991 3.86623 19.3191C2.37655 18.54 1.21498 17.3634 0.363733 15.9037C0.208108 15.6366 0.118108 15.33 -0.00189209 15.0413V14.4788H-1.70899e-05ZM13.9809 21.8194C13.9978 21.7884 14.0147 21.7566 14.0306 21.7256C13.8309 21.5025 13.6444 21.2653 13.4287 21.06C11.3278 19.0566 8.99155 17.3541 6.59061 15.7331C5.53967 15.0234 4.38655 14.5894 3.13686 14.4497C2.5753 14.3869 1.99873 14.4412 1.43061 14.4778C1.17373 14.4947 1.07061 14.6869 1.17467 14.9391C1.28155 15.1978 1.37248 15.4697 1.52436 15.7003C2.21248 16.7438 3.08623 17.6184 4.19436 18.1941C6.88967 19.5938 9.70311 20.7112 12.6253 21.5428C13.0678 21.6684 13.5281 21.7294 13.98 21.8203L13.9809 21.8194ZM16.6322 14.4V1.18594H14.5303V14.4009H16.6322V14.4ZM11.2331 24.9591C11.6644 25.3969 12.1369 25.5356 12.6065 25.6566C14.309 26.0963 16.0331 26.1281 17.7572 25.8253C18.3487 25.7213 18.9206 25.4934 19.4934 25.2984C19.6209 25.2544 19.7147 25.11 19.8234 25.0116C19.7109 24.9038 19.6153 24.7631 19.4822 24.6937C19.2459 24.57 18.9928 24.4706 18.7359 24.3947C17.4994 24.0272 16.23 23.9428 14.9503 24C13.9547 24.045 12.9665 24.1603 12.0309 24.5334C11.7712 24.6375 11.5331 24.7969 11.2331 24.9591Z" fill="#B07FD8"/>
<path d="M36 23.34C35.4553 24.5035 34.3594 24.9047 33.2681 25.3022C31.6669 25.8863 30.0159 25.9285 28.3481 25.7072C26.6775 25.486 25.0088 25.2554 23.34 25.0257C22.9463 24.9713 22.7184 24.7472 22.7166 24.4341C22.7138 24.0741 23.025 23.8313 23.4525 23.8913C24.495 24.0385 25.5319 24.241 26.5781 24.346C28.0425 24.4932 29.5144 24.6525 30.9825 24.6535C32.1094 24.6535 33.1903 24.2569 34.1784 23.6935C34.4456 23.5407 34.7916 23.2866 34.8328 23.0344C34.8928 22.6754 34.4625 22.5075 34.1691 22.3529C32.6269 21.5382 30.9834 21.2016 29.2481 21.4004C27.4819 21.6038 25.7184 21.8382 23.9541 22.0613C23.5584 22.1119 23.2463 21.9404 23.1853 21.6254C23.1197 21.2869 23.3456 20.985 23.7581 20.9382C25.9088 20.6935 28.0556 20.3869 30.2128 20.2519C31.8516 20.1497 33.4041 20.6513 34.8375 21.4669C35.3709 21.7697 35.79 22.1822 35.9981 22.7766V23.3391L36 23.34Z" fill="#662E93"/>
<path d="M6.00185 34.0501C5.93154 34.0501 5.86123 34.051 5.79091 34.0501C4.44466 34.0239 3.80529 33.1904 4.18779 31.9014C4.58716 30.5523 5.44122 29.4817 6.39372 28.4823C7.16435 27.6732 8.16373 27.1839 9.07779 26.5773C9.34498 26.4001 9.69279 26.5126 9.84748 26.7676C10.004 27.0254 9.91779 27.3657 9.62154 27.5607C9.14248 27.8757 8.64748 28.1673 8.17123 28.4851C6.89716 29.3364 6.00466 30.5101 5.38873 31.8929C5.01654 32.7282 5.2406 33.016 6.14623 32.881C7.63029 32.6589 9.00748 32.146 10.1512 31.1495C11.1572 30.2729 12.1134 29.3392 13.1015 28.442C13.2412 28.3154 13.44 28.1682 13.604 28.1767C13.7794 28.186 13.994 28.3332 14.1028 28.4842C14.2528 28.6923 14.175 28.937 13.9912 29.1207C13.6762 29.4348 13.3622 29.7517 13.034 30.0517C12.2297 30.7867 11.4309 31.5264 10.6059 32.2379C9.50623 33.1857 7.39966 33.9976 6.00279 34.0529L6.00185 34.0501Z" fill="#662E93"/>
</g>
<defs>
<clipPath id="clip0_493_14">
<rect width="36" height="34.0509" fill="white"/>
</clipPath>
</defs>
</svg>
