<svg width="40" height="24" viewBox="0 0 40 24" fill="none" xmlns="http://www.w3.org/2000/svg">
<g clip-path="url(#clip0_494_44)">
<path d="M0 7.42823C0.0515625 7.2837 0.103125 7.13917 0.155469 6.99464C0.585938 5.81104 1.78281 5.13057 3.01797 5.36651C3.08047 5.37823 3.14453 5.38057 3.225 5.38917C3.29141 5.11729 3.34844 4.85245 3.42187 4.59307C4.17969 1.90089 6.60625 0.0157308 9.39531 0.0110433C16.4648 -0.00223797 23.5352 -0.00380047 30.6047 0.0110433C33.6102 0.0172933 36.1453 2.18057 36.7156 5.16182C36.7273 5.22432 36.7383 5.28682 36.7523 5.36729C36.8102 5.37354 36.8609 5.38995 36.9062 5.38214C38.3789 5.12901 39.5273 5.85557 39.9305 7.29542C39.9437 7.34229 39.9758 7.38448 40 7.42901V8.28839C39.6906 9.50714 39.3758 10.7251 39.0734 11.9462C38.7453 13.2712 38.4313 14.5993 38.1063 15.9251C37.7281 17.4681 37.0898 18.1423 35.3594 18.8181C35.4789 19.2079 35.5977 19.6017 35.7203 19.9946C35.8789 20.5032 36.0539 21.0071 36.1953 21.5204C36.4055 22.2837 36.0055 23.0485 35.2766 23.3204C34.543 23.5939 33.743 23.2837 33.4008 22.5649C33.1945 22.1314 33.0078 21.6853 32.8555 21.2306C32.7547 20.9314 32.5992 20.8548 32.2914 20.8548C25.0273 20.8642 17.7633 20.8626 10.4992 20.8626C9.53594 20.8626 8.57266 20.8704 7.60938 20.8571C7.37813 20.854 7.26328 20.9275 7.18437 21.1446C7.025 21.5845 6.84531 22.0173 6.65781 22.4454C6.30625 23.2485 5.51562 23.6071 4.73906 23.3267C3.96875 23.0493 3.58125 22.2525 3.83047 21.4212C4.04687 20.6993 4.28594 19.9837 4.51172 19.2649C4.55781 19.1181 4.59453 18.9673 4.63203 18.8282C4.27969 18.6735 3.93516 18.5532 3.62109 18.3774C2.81406 17.9243 2.28125 17.2399 2.01328 16.3517C1.88281 15.9189 2.01328 15.586 2.34844 15.4829C2.70234 15.3743 2.98125 15.5548 3.12422 15.9946C3.40391 16.8571 3.97656 17.422 4.86094 17.6142C5.16641 17.6806 5.50234 17.6009 5.82344 17.6009C11.2391 17.5993 16.6547 17.6001 22.0703 17.6001C26.1062 17.6001 30.1414 17.5993 34.1773 17.6017C34.4867 17.6017 34.8078 17.6845 35.1023 17.6243C35.9891 17.4431 36.6305 16.9017 36.8547 16.0282C37.5312 13.3978 38.1664 10.7556 38.7984 8.11339C38.9664 7.41261 38.4961 6.71417 37.7953 6.52667C37.1094 6.34307 36.3813 6.72979 36.1625 7.44464C35.7328 8.84854 35.3289 10.261 34.9203 11.6712C34.3453 13.6571 33.0727 14.6165 31.0039 14.6165C23.6484 14.6165 16.2938 14.6165 8.93828 14.6165C6.95 14.6165 5.65 13.6399 5.09297 11.7306C4.67813 10.3079 4.27187 8.8837 3.84297 7.46495C3.64844 6.8212 3.1 6.45792 2.45547 6.48917C1.86172 6.51807 1.34219 6.94229 1.21641 7.55167C1.17109 7.77198 1.18437 8.0212 1.23672 8.24151C1.63047 9.91182 2.04062 11.5774 2.44609 13.2446C2.46484 13.3204 2.48906 13.3954 2.50078 13.472C2.55937 13.8634 2.38281 14.1524 2.04922 14.2165C1.74219 14.2759 1.45391 14.086 1.36328 13.7251C1.10859 12.7173 0.871875 11.704 0.620313 10.6954C0.419531 9.89073 0.207813 9.08995 0.00078125 8.28682C0.00078125 8.00011 0.00078125 7.71417 0.00078125 7.42745L0 7.42823ZM24.1266 13.4228C24.257 12.1446 23.9625 11.7462 22.7422 11.4993C21.5742 11.2634 20.3953 11.1993 19.2078 11.2681C19.1172 11.2735 19.0258 11.2868 18.9352 11.2829C18.607 11.2696 18.3914 11.1149 18.3492 10.7759C18.3078 10.4462 18.4875 10.1673 18.8375 10.1454C19.5766 10.0993 20.3258 10.0353 21.0578 10.1071C22.3484 10.2345 23.6984 10.2181 24.7547 11.1681C24.9195 11.0384 25.0625 10.9024 25.2273 10.8024C25.4031 10.6954 25.5914 10.5868 25.7891 10.5399C28.532 9.88682 31.2438 9.76104 33.8945 10.9939C34.2484 9.78448 34.6125 8.51104 34.9992 7.24386C35.0891 6.95011 35.2055 6.63917 35.3953 6.40714C35.6328 6.11729 35.6445 5.83839 35.5836 5.50479C35.1086 2.90323 33.05 1.17979 30.3953 1.17823C27.2586 1.17589 24.1219 1.17823 20.9852 1.17823C17.1328 1.17823 13.2797 1.16807 9.42734 1.18214C6.86406 1.19151 4.6875 3.14932 4.39141 5.67979C4.37266 5.83917 4.35703 6.05948 4.44453 6.16026C4.91094 6.6962 5.03984 7.36573 5.23125 8.01026C5.55859 9.11261 5.87734 10.2173 6.22344 11.4009C6.66797 10.8274 7.21094 10.5579 7.83672 10.4181C9.20625 10.1126 10.5938 9.97198 11.9852 10.1118C13.2383 10.2376 14.5531 10.2345 15.5477 11.1548C15.8242 10.9743 16.0727 10.7829 16.3469 10.6415C16.6508 10.4845 16.9648 10.597 17.118 10.8712C17.2742 11.1509 17.2125 11.4899 16.9031 11.6454C16.1367 12.0306 16.0938 12.6814 16.1844 13.4235H24.1266V13.4228ZM5.87109 18.8501C5.56875 19.8048 5.27266 20.7454 4.97109 21.6845C4.90078 21.9025 4.87031 22.1048 5.13125 22.2048C5.41484 22.3134 5.53047 22.1235 5.61953 21.9009C5.85234 21.322 6.09453 20.747 6.31875 20.1657C6.44844 19.8306 6.66875 19.6853 7.03203 19.6853C15.6734 19.6899 24.3148 19.6899 32.957 19.6853C33.3383 19.6853 33.5586 19.8415 33.6914 20.1923C33.907 20.7634 34.1484 21.3251 34.3773 21.8907C34.4648 22.1079 34.5664 22.3165 34.857 22.2087C35.1422 22.1032 35.0945 21.8876 35.0203 21.6579C34.7656 20.8665 34.5039 20.0767 34.2773 19.2767C34.1852 18.9501 34.0469 18.8392 33.6914 18.8399C24.568 18.8524 15.4453 18.8493 6.32187 18.8493H5.87188L5.87109 18.8501ZM14.957 13.4446C14.957 13.1212 14.9875 12.847 14.95 12.5829C14.882 12.1032 14.5992 11.7673 14.1273 11.6446C12.0227 11.0985 9.91328 11.1009 7.80781 11.6446C7.41563 11.7462 7.16797 12.0173 7.025 12.3954C6.93437 12.6353 6.97109 12.8048 7.19688 12.9595C7.6625 13.2774 8.16562 13.4462 8.72969 13.4454C10.1852 13.4423 11.6414 13.4446 13.0969 13.4446C13.7062 13.4446 14.3164 13.4446 14.9563 13.4446H14.957ZM25.3719 13.4196C25.4156 13.4267 25.4641 13.4423 25.5133 13.4423C27.4906 13.4423 29.4687 13.4728 31.4445 13.4181C31.9055 13.4056 32.3969 13.172 32.8078 12.9267C33.5695 12.4728 33.293 12.1118 32.6742 11.7118C32.5688 11.6439 32.4336 11.6157 32.3078 11.586C30.4039 11.1454 28.5016 11.1439 26.5828 11.5314C25.6492 11.7196 25.1719 12.2493 25.3719 13.4196Z" fill="#B07FD8"/>
<path d="M16.3625 5.84276C15.8289 5.73886 15.6172 5.55605 15.6258 5.20839C15.6351 4.85995 15.843 4.6912 16.3797 4.61073C16.3992 4.22401 16.5211 3.89042 16.982 3.86073C17.3226 3.83886 17.5156 4.08105 17.6117 4.60526C18.1414 4.69901 18.3609 4.88573 18.3531 5.23651C18.3453 5.57245 18.1328 5.74745 17.6 5.8412C17.5703 6.21776 17.4656 6.56151 16.993 6.5787C16.6391 6.59198 16.4726 6.38964 16.3617 5.84355L16.3625 5.84276Z" fill="#662E93"/>
<path d="M22.3977 5.83906C21.868 5.74922 21.6516 5.56953 21.6453 5.23359C21.6391 4.88672 21.8594 4.7 22.3883 4.60312C22.4805 4.08203 22.675 3.85156 23.0188 3.85703C23.3602 3.8625 23.55 4.09375 23.6188 4.58515C24.1859 4.72265 24.4 4.90234 24.3695 5.25C24.3313 5.69375 24.0117 5.81015 23.6383 5.82187C23.5281 6.38672 23.3586 6.58437 23.0016 6.57969C22.6469 6.575 22.4727 6.3664 22.3969 5.83906H22.3977Z" fill="#662E93"/>
<path d="M29.6352 4.59846C30.1984 4.70706 30.3977 4.87659 30.3922 5.23284C30.3875 5.57893 30.1867 5.74612 29.6711 5.8344C29.5156 6.41956 29.3586 6.60159 29.0055 6.57815C28.5539 6.54768 28.4508 6.21956 28.4234 5.85159C27.8695 5.73128 27.6586 5.55081 27.6656 5.21409C27.6727 4.87737 27.9 4.69143 28.3969 4.61565C28.5258 4.05706 28.7164 3.83987 29.0625 3.86018C29.3961 3.87971 29.5734 4.10159 29.6344 4.59924L29.6352 4.59846Z" fill="#662E93"/>
<path d="M11.5961 5.81803C11.4899 6.386 11.3149 6.58678 10.9531 6.57975C10.6031 6.57272 10.4367 6.37194 10.357 5.85709C9.77735 5.70788 9.58204 5.54147 9.60939 5.19225C9.64532 4.73991 9.98048 4.64772 10.3453 4.61334C10.4453 4.07428 10.6344 3.85006 10.9766 3.85709C11.3141 3.86412 11.5055 4.09459 11.5797 4.58522C12.1399 4.72428 12.3656 4.91412 12.3297 5.25397C12.2859 5.66881 12 5.811 11.5961 5.81803Z" fill="#662E93"/>
</g>
<defs>
<clipPath id="clip0_494_44">
<rect width="40" height="23.4203" fill="white"/>
</clipPath>
</defs>
</svg>
