<svg width="33" height="36" viewBox="0 0 33 36" fill="none" xmlns="http://www.w3.org/2000/svg">
<g clip-path="url(#clip0_497_104)">
<path d="M3.14452 29.3307H1.37792C1.37792 29.986 1.41707 30.632 1.35719 31.2689C1.33588 31.4981 1.11937 31.8044 0.913808 31.8931C0.72782 31.9731 0.407666 31.8505 0.198645 31.7284C0.0806031 31.6593 0.0172633 31.4128 0.0138085 31.2447C-0.00404183 30.3862 -0.0028902 29.5276 0.00862611 28.6691C0.0149601 28.1883 0.259106 27.9459 0.744519 27.9367C1.44817 27.9228 2.15239 27.9223 2.85603 27.9361C3.12379 27.9413 3.24298 27.8629 3.23147 27.5814C3.21592 27.2186 3.22744 26.8541 3.22744 26.4361C2.47542 26.4361 1.71937 26.4372 0.963904 26.4361C0.218223 26.4349 0.00574703 26.2259 0.00344377 25.4894C0.00114051 24.7714 0.00171632 24.0539 0.00344377 23.3359C0.00517122 22.7031 0.245862 22.3795 0.70306 22.3898C1.14586 22.4002 1.37792 22.7192 1.37907 23.3221C1.38022 23.8823 1.37907 24.4426 1.37907 25.0265H3.32878C3.37485 24.1052 3.42437 23.2075 3.4641 22.3098C3.6449 18.2606 3.82225 14.2109 4.00306 10.1618C4.11362 7.68694 4.21784 5.21208 4.34452 2.73838C4.42398 1.19059 5.69711 0.0101645 7.28579 0.00498216C10.5524 -0.00480671 13.8184 0.00152726 17.085 0.00152726C20.8301 0.00152726 24.5752 0.000375632 28.3203 0.00152726C30.2142 0.00210308 31.3842 1.09961 31.4729 2.99519C31.7027 7.90172 31.9186 12.8088 32.1403 17.7159C32.3654 22.7071 32.5612 27.7 32.8307 32.6889C32.9355 34.6282 31.5023 36.0084 29.6372 35.9992C21.809 35.9606 13.9808 35.9837 6.15258 35.9825C4.16026 35.9825 2.93032 34.7347 2.98905 32.7528C3.02187 31.6276 3.08982 30.5042 3.14394 29.3301L3.14452 29.3307ZM30.771 17.9883C30.771 17.9883 30.7762 17.9883 30.7785 17.9883C30.7693 17.7775 30.7601 17.5662 30.7508 17.3555C30.5361 12.6464 30.3155 7.93742 30.1094 3.22782C30.0518 1.91496 29.5203 1.38176 28.1931 1.38176C21.3374 1.38176 14.4818 1.38176 7.62609 1.38176C6.29826 1.38176 5.75296 1.90575 5.69884 3.22206C5.63089 4.86717 5.56122 6.51228 5.48751 8.15681C5.30268 12.2618 5.11438 16.3662 4.92782 20.4712C4.76947 23.9572 4.61055 27.4426 4.4522 30.9286C4.42513 31.5188 4.41074 32.1102 4.37273 32.6998C4.2927 33.9361 4.9117 34.6034 6.16352 34.6034C13.9906 34.6046 21.8176 34.604 29.6441 34.6023C29.8261 34.6023 30.0109 34.5942 30.19 34.5631C30.9029 34.4388 31.42 33.852 31.4482 33.1282C31.4585 32.8616 31.4378 32.5938 31.4257 32.3267C31.208 27.5474 30.9898 22.7676 30.7716 17.9883H30.771Z" fill="#B07FD8"/>
<path d="M21.7797 24.1775C21.7797 24.751 21.7814 25.2842 21.7797 25.8168C21.7768 26.6017 21.5856 26.7957 20.8152 26.798C20.5797 26.7986 20.3436 26.798 20.0568 26.798C20.0568 27.4291 20.0597 28.0159 20.0562 28.602C20.0528 29.2262 19.8127 29.4681 19.1873 29.4721C18.4837 29.4767 17.7795 29.4756 17.0758 29.4721C16.4084 29.4692 16.1735 29.2268 16.1712 28.5439C16.1689 27.9819 16.1712 27.4205 16.1712 26.7974C15.9098 26.7974 15.6754 26.7974 15.4416 26.7974C14.6522 26.7957 14.4645 26.612 14.4633 25.837C14.4622 25.2917 14.4633 24.7464 14.4633 24.1516C14.0326 24.1516 13.6434 24.1516 13.2535 24.1516C11.9729 24.1516 10.6917 24.1556 9.41113 24.1504C8.07006 24.1452 7.28349 23.3247 7.36641 21.9848C7.63762 17.604 7.92092 13.2232 8.19961 8.84293C8.25835 7.91644 8.31478 6.98938 8.37812 6.06289C8.45815 4.89053 9.19578 4.20588 10.3981 4.20531C14.9585 4.20128 19.519 4.20358 24.08 4.20358C24.5868 4.20358 25.094 4.19321 25.6002 4.20876C26.5768 4.23813 27.3299 4.89456 27.414 5.86769C27.5493 7.43736 27.634 9.01107 27.7353 10.5836C27.9535 13.9671 28.1683 17.3506 28.3843 20.7347C28.4148 21.212 28.4557 21.6888 28.4735 22.1667C28.5161 23.2838 27.6835 24.1366 26.5203 24.1481C25.0428 24.1625 23.5647 24.155 22.0866 24.1579C22.0031 24.1579 21.9196 24.1683 21.7808 24.1769L21.7797 24.1775ZM13.0359 22.7558C13.0359 22.5364 13.0359 22.3706 13.0359 22.2047C13.0359 17.87 13.0359 13.5347 13.0359 9.19993C13.0359 8.48535 13.2484 8.27402 13.967 8.27402C16.557 8.27345 19.1476 8.27402 21.7376 8.27402C22.6083 8.27402 22.7724 8.43755 22.7724 9.30531C22.7724 13.6118 22.7724 17.9189 22.7724 22.2255C22.7724 22.3896 22.7724 22.5537 22.7724 22.7598C24.0115 22.7598 25.1919 22.7627 26.3718 22.7587C26.9649 22.7564 27.0996 22.6205 27.0656 22.028C26.9896 20.7076 26.8998 19.3878 26.8157 18.0681C26.563 14.1082 26.3113 10.1483 26.0574 6.18842C26.0286 5.73583 25.8743 5.58208 25.4297 5.58208C20.4178 5.57978 15.4065 5.57978 10.3946 5.58208C9.94434 5.58208 9.77562 5.74101 9.74683 6.1746C9.68522 7.11548 9.63052 8.05636 9.57005 8.99725C9.38579 11.8757 9.20038 14.7543 9.01554 17.6328C8.91996 19.1212 8.82149 20.6097 8.73397 22.0982C8.70806 22.5427 8.86123 22.746 9.25566 22.7506C10.4937 22.765 11.7311 22.7558 13.0342 22.7558H13.0359ZM14.4374 9.66807V22.7276H21.3668V9.66807H14.4374ZM20.3735 24.1815H15.8706V25.3942H20.3735V24.1815ZM18.6605 28.0608V26.8251H17.5958V28.0608H18.6605Z" fill="#662E93"/>
<path d="M18.0633 33.3754C15.5712 33.3754 13.0797 33.3817 10.5875 33.3725C9.3858 33.3679 8.57275 32.2802 8.90557 31.1516C9.12784 30.3979 9.79809 29.9222 10.6762 29.9194C12.281 29.913 13.8858 29.9176 15.4912 29.9176C18.8418 29.9176 22.1925 29.9142 25.5432 29.9194C26.6188 29.9211 27.3921 30.6455 27.4008 31.6347C27.41 32.6251 26.6574 33.3714 25.6232 33.3737C23.1035 33.3794 20.5831 33.3754 18.0633 33.3754ZM18.1589 31.3169C15.7543 31.3169 13.3491 31.3169 10.9445 31.3169C10.8179 31.3169 10.6733 31.2806 10.5697 31.3301C10.4395 31.3917 10.242 31.5409 10.2553 31.622C10.2783 31.7608 10.4257 31.9002 10.5553 31.9911C10.6319 32.0447 10.7735 32.0073 10.8858 32.0073C15.7094 32.0073 20.533 32.0073 25.3566 32.0073C25.4827 32.0073 25.6382 32.043 25.7286 31.9837C25.8495 31.9036 25.9808 31.7522 25.9918 31.6215C25.9992 31.5311 25.8265 31.3917 25.7061 31.3341C25.6019 31.2846 25.458 31.3174 25.3313 31.3174C22.9405 31.3174 20.5497 31.3174 18.1589 31.3174V31.3169Z" fill="#B07FD8"/>
</g>
<defs>
<clipPath id="clip0_497_104">
<rect width="32.8365" height="36" fill="white"/>
</clipPath>
</defs>
</svg>
