<svg width="37" height="36" viewBox="0 0 37 36" fill="none" xmlns="http://www.w3.org/2000/svg">
<g clip-path="url(#clip0_493_18)">
<path d="M3.65842 36C3.25859 35.8794 2.83674 35.8063 2.46332 35.6293C0.834925 34.8569 0.00619533 33.5473 0.00443395 31.7454C-0.00261158 25.769 0.000911184 19.7927 0.00443395 13.8163C0.00443395 13.5133 0.0290933 13.2069 0.0766506 12.9074C0.366398 11.0747 2.11017 9.57754 3.96578 9.55816C4.47218 9.55288 4.77954 9.79242 4.80068 10.2108C4.82269 10.6352 4.5532 10.94 4.05033 10.9576C2.5919 11.0069 1.38976 12.1958 1.39681 13.9123C1.42235 19.8411 1.40561 25.7708 1.40737 31.7005C1.40737 33.099 2.15156 34.1277 3.43208 34.4773C3.71038 34.5531 4.00982 34.5821 4.29956 34.583C13.4394 34.5883 22.5801 34.5892 31.7199 34.5856C33.4487 34.5856 34.5962 33.4222 34.5962 31.6855C34.598 25.7444 34.598 19.8032 34.5962 13.8621C34.5962 12.0972 33.4592 10.962 31.6917 10.9611C24.3326 10.9593 16.9736 10.9611 9.61453 10.9585C9.44016 10.9585 9.26138 10.9497 9.09404 10.9083C8.78404 10.8316 8.57444 10.5357 8.58412 10.2328C8.59469 9.91396 8.83864 9.62597 9.16274 9.57225C9.30013 9.54935 9.4428 9.55376 9.58371 9.55376C11.6463 9.55288 13.7089 9.55376 15.7706 9.55376H16.24C16.1149 9.41725 16.0374 9.32654 15.9537 9.24287C14.6952 7.9826 13.4358 6.72234 12.1765 5.46383C11.9528 5.24101 11.7757 5.00499 11.8691 4.65976C11.9924 4.20092 12.497 3.99219 12.8969 4.24759C13.0237 4.32862 13.1338 4.4387 13.2403 4.54527C14.815 6.11906 16.3879 7.69462 17.9917 9.301C18.0991 9.19884 18.1986 9.10813 18.2929 9.01389C21.1604 6.14724 24.0279 3.2806 26.8946 0.413947C27.364 -0.0554611 27.7427 -0.123274 28.08 0.20082C28.4155 0.523153 28.3459 0.946765 27.8801 1.41265C25.2785 4.01509 22.6769 6.61665 20.0763 9.21909C19.9882 9.30716 19.9036 9.40052 19.7566 9.55464C19.9556 9.55464 20.078 9.55464 20.2004 9.55464C24.0323 9.55464 27.8642 9.58546 31.6961 9.54319C34.1013 9.51677 35.749 11.3002 35.9516 13.0563C35.9551 13.088 35.9851 13.117 36.0036 13.147V32.4139C35.9815 32.4649 35.9498 32.5142 35.9393 32.568C35.6671 34.0035 34.8604 35.0295 33.5385 35.6319C33.1633 35.8027 32.7459 35.8802 32.3469 36H3.65842Z" fill="#B07FD8"/>
<path d="M25.2969 14.6318H4.24138V30.9272H4.6421C6.92661 30.9272 9.212 30.9272 11.4965 30.9272C11.6365 30.9272 11.7792 30.9237 11.9175 30.943C12.2495 30.9897 12.4908 31.2574 12.512 31.5851C12.5322 31.9048 12.3191 32.2007 11.9906 32.2834C11.8567 32.3178 11.714 32.331 11.5749 32.3319C9.19615 32.3345 6.8174 32.3354 4.43866 32.3336C3.37038 32.3336 2.81378 31.7744 2.81378 30.7079C2.81378 25.4114 2.81378 20.1158 2.81378 14.8193C2.81378 13.7634 3.36069 13.2121 4.41047 13.2121C11.3116 13.2112 18.2135 13.2112 25.1146 13.2121C26.1715 13.2121 26.7201 13.759 26.721 14.8097C26.7219 20.129 26.7228 25.4493 26.721 30.7687C26.721 31.7453 26.1486 32.3301 25.1763 32.3328C22.7623 32.3389 20.3483 32.3354 17.9352 32.3328C17.797 32.3328 17.6525 32.3152 17.5213 32.2738C17.2025 32.1725 17.059 31.9259 17.0537 31.6053C17.0493 31.2935 17.2835 31.0135 17.5927 30.9536C17.7406 30.9254 17.8956 30.9289 18.048 30.9289C20.3325 30.9272 22.6179 30.9281 24.9024 30.9281H25.2978V14.6326L25.2969 14.6318Z" fill="#B07FD8"/>
<path d="M11.1125 22.7578C11.1125 21.9027 11.109 21.0484 11.1125 20.1933C11.1196 18.704 12.3913 17.9669 13.6877 18.7075C15.1804 19.5609 16.6697 20.4214 18.1545 21.2888C19.4395 22.0392 19.4298 23.5064 18.1387 24.2568C16.6618 25.1154 15.1831 25.9688 13.7009 26.8178C12.3904 27.5682 11.1178 26.831 11.1125 25.3233C11.109 24.4681 11.1125 23.6139 11.1125 22.7587V22.7578ZM12.519 22.7631C12.519 23.6174 12.5163 24.4717 12.5199 25.3259C12.5216 25.7469 12.6335 25.8103 13.0034 25.5972C14.4829 24.7456 15.9607 23.893 17.4376 23.037C17.7829 22.8371 17.7855 22.6971 17.4465 22.4998C15.9599 21.6376 14.4715 20.7789 12.9822 19.9229C12.6449 19.7291 12.5216 19.804 12.5199 20.2003C12.5163 21.0546 12.519 21.9089 12.519 22.7631Z" fill="#662E93"/>
<path d="M30.6613 13.2138C31.9726 13.2138 33.0559 14.3005 33.0479 15.6066C33.04 16.9127 31.933 18.0083 30.641 17.988C29.3429 17.9677 28.2772 16.8959 28.2711 15.604C28.2649 14.297 29.349 13.2129 30.6604 13.2129L30.6613 13.2138ZM31.6424 15.5943C31.6406 15.0553 31.2003 14.6185 30.6578 14.6194C30.1161 14.6202 29.6767 15.0588 29.6784 15.5987C29.6793 16.1315 30.132 16.5833 30.663 16.5815C31.195 16.5798 31.6441 16.1271 31.6424 15.5943Z" fill="#662E93"/>
<path d="M33.0488 21.9971C33.0462 23.3014 31.9427 24.3997 30.6489 24.3856C29.3402 24.3715 28.257 23.2724 28.2719 21.9733C28.2869 20.6743 29.357 19.6149 30.6551 19.6113C31.9664 19.6087 33.0515 20.6893 33.0488 21.9971ZM31.6423 21.9936C31.6423 21.4555 31.2011 21.0169 30.6595 21.0178C30.1179 21.0178 29.6775 21.4573 29.6784 21.9962C29.6793 22.5317 30.1284 22.98 30.6613 22.98C31.195 22.98 31.6423 22.5299 31.6423 21.9945V21.9936Z" fill="#662E93"/>
<path d="M30.7652 25.2988C31.3279 25.2988 31.8907 25.2935 32.4526 25.3005C32.9422 25.3067 33.2567 25.5868 33.2558 25.9963C33.2558 26.39 32.9519 26.6929 32.4869 26.6991C31.3385 26.714 30.1901 26.714 29.0417 26.6991C28.5767 26.6929 28.2737 26.39 28.2728 25.9963C28.2728 25.5859 28.5864 25.3067 29.076 25.3005C29.6388 25.2935 30.2007 25.2988 30.7634 25.2988H30.7652Z" fill="#662E93"/>
<path d="M30.7616 28.1127C31.3244 28.1127 31.8863 28.1075 32.449 28.1145C32.9396 28.1207 33.2549 28.3963 33.2566 28.8058C33.2593 29.2092 32.9413 29.5104 32.457 29.5148C31.3323 29.5254 30.2068 29.5254 29.0822 29.5148C28.5907 29.5104 28.2781 29.2215 28.2746 28.8138C28.271 28.3937 28.5934 28.118 29.1086 28.1136C29.659 28.1083 30.2103 28.1127 30.7608 28.1127H30.7616Z" fill="#662E93"/>
<path d="M30.766 30.9272C31.3288 30.9272 31.8907 30.9219 32.4534 30.929C32.9431 30.9351 33.2575 31.2134 33.2566 31.6247C33.2566 32.0157 32.9475 32.3231 32.4878 32.3284C31.3394 32.3425 30.191 32.3425 29.0434 32.3284C28.5837 32.3231 28.2755 32.0148 28.2755 31.6238C28.2755 31.2134 28.5899 30.9342 29.0795 30.929C29.6423 30.9219 30.2042 30.9272 30.7669 30.9272H30.766Z" fill="#662E93"/>
<path d="M14.7524 32.3202C14.3834 32.3097 14.0602 31.9724 14.0699 31.6078C14.0796 31.2352 14.4081 30.9244 14.7842 30.9323C15.1584 30.9402 15.4764 31.2705 15.4649 31.6386C15.4544 32.0094 15.1179 32.3299 14.7524 32.3202Z" fill="#662E93"/>
<path d="M6.78746 9.55811C7.16703 9.55811 7.47616 9.86987 7.47527 10.253C7.47527 10.6308 7.15735 10.954 6.78657 10.954C6.41668 10.954 6.09875 10.6308 6.09875 10.253C6.09875 9.87075 6.407 9.55899 6.78746 9.55899V9.55811Z" fill="#B07FD8"/>
</g>
<defs>
<clipPath id="clip0_493_18">
<rect width="36.0044" height="36" fill="white"/>
</clipPath>
</defs>
</svg>
