<svg width="36" height="36" viewBox="0 0 36 36" fill="none" xmlns="http://www.w3.org/2000/svg">
<g clip-path="url(#clip0_497_94)">
<path d="M0.356584 36C0.0607513 35.7886 0 35.4955 0 35.1468C0.00792409 30.8352 0.00528272 26.5236 0.00528272 22.212C0.00528272 21.5438 0.170808 21.3756 0.828507 21.3747C2.17296 21.3747 3.51741 21.3747 4.95519 21.3747C4.43749 20.8068 4.50352 20.1659 4.50352 19.5372C4.50352 18.7052 4.50176 17.8732 4.5044 17.042C4.50616 16.5155 4.70339 16.3139 5.22285 16.313C7.92849 16.3104 10.635 16.3112 13.3406 16.313C13.8636 16.313 14.0608 16.5129 14.0626 17.0385C14.0661 18.0105 14.0547 18.9834 14.067 19.9554C14.0732 20.4494 13.9983 20.9107 13.6523 21.3439H23.0609C23.0609 21.2391 23.0591 21.1168 23.0609 20.9944C23.0793 20.0118 23.0415 19.023 23.1304 18.0466C23.2862 16.3394 25.0542 14.9941 26.7561 15.2177C28.4783 15.444 29.607 16.6036 29.7919 18.3363C29.8403 18.7871 29.6466 19.0864 29.2883 19.1173C28.952 19.1454 28.723 18.898 28.6773 18.4552C28.4968 16.7057 26.7526 15.7759 25.2778 16.6423C24.4634 17.1213 24.0707 18.0273 24.2213 19.1146C24.651 19.1578 25.2259 18.9896 25.2981 19.6825C25.3368 20.0532 25.0938 20.1747 24.2046 20.2786V21.3739H24.5999C28.1138 21.3739 31.6285 21.3774 35.1424 21.3686C35.492 21.3686 35.7843 21.4293 35.9956 21.7252V35.9982H0.356584V36ZM10.1437 34.8501H25.8466V22.5193H10.1437V34.8501ZM1.15428 28.141V34.8474H8.98415V28.141H1.15428ZM34.8589 28.1516H27.0167V34.8554H34.8589V28.1516ZM1.15428 22.5096V26.9744H8.97447V22.5132H7.34211C7.15105 22.9851 7.04275 23.0617 6.55322 23.0626C5.6173 23.0643 4.68049 23.052 3.74457 23.0678C3.29114 23.0758 2.89053 23.0414 2.79808 22.5096H1.15428ZM27.0247 22.5096V26.9744H34.8448V22.5123H33.2125C33.0205 22.9851 32.9131 23.0608 32.4236 23.0617C31.4877 23.0634 30.5509 23.0494 29.6149 23.0678C29.158 23.0767 28.7697 23.0256 28.6597 22.5088H27.0238L27.0247 22.5096ZM12.9383 17.4629H5.63138C5.63138 18.4006 5.62258 19.3136 5.63579 20.2257C5.64107 20.5947 5.86558 20.8077 6.24594 20.8086C8.27187 20.8148 10.2987 20.8148 12.3246 20.8086C12.705 20.8077 12.9295 20.5947 12.9347 20.2249C12.9471 19.3127 12.9392 18.3997 12.9392 17.4629H12.9383Z" fill="#B07FD8"/>
<path d="M18.037 0C21.8661 0 25.6952 0 29.5251 0C30.2128 0 30.3739 0.161123 30.3748 0.845236C30.3748 3.10536 30.3748 5.36637 30.3748 7.62649C30.3748 8.26306 30.2005 8.43651 29.5604 8.43651C21.8546 8.43651 14.1498 8.43651 6.44404 8.43651C5.80395 8.43651 5.6305 8.26306 5.62962 7.62649C5.62962 5.35404 5.62962 3.08159 5.62962 0.810018C5.62962 0.173449 5.80395 0 6.44404 0C10.3084 0 14.1727 0 18.037 0ZM17.4198 7.29632V1.14723H6.77862V7.2972H17.4198V7.29632ZM18.5811 7.2928H29.2267V1.15075H18.5811V7.2928Z" fill="#B07FD8"/>
<path d="M7.18627 9.56543C7.66875 9.57511 7.91616 9.88415 7.86069 10.2469C7.78938 10.7074 7.56574 11.0692 7.18715 11.3519C6.60252 11.7895 6.60869 11.8282 7.18715 12.2781C8.09577 12.986 8.09489 14.017 7.18362 14.7249C6.96175 14.8975 6.76101 15.0621 6.69937 15.3747C6.64479 15.6546 6.32342 15.8034 6.06281 15.7251C5.76785 15.6362 5.61025 15.4266 5.64283 15.1193C5.68685 14.6985 5.86382 14.3357 6.19752 14.061C6.24242 14.024 6.29084 13.9906 6.33663 13.9545C6.89396 13.5187 6.89396 13.4834 6.33575 13.0467C5.40687 12.3212 5.40863 11.3052 6.33927 10.578C6.55058 10.4124 6.73195 10.2513 6.81295 9.95811C6.86226 9.77762 7.10262 9.64907 7.18715 9.56631L7.18627 9.56543Z" fill="#662E93"/>
<path d="M10.6878 10.1332C10.6324 10.6121 10.444 11.0083 10.0566 11.305C9.40061 11.8078 9.40326 11.8122 10.0513 12.3176C10.878 12.9621 10.8789 14.0362 10.053 14.6798C9.81619 14.8647 9.57494 15.0258 9.51067 15.371C9.45784 15.6527 9.13824 15.8024 8.87674 15.7249C8.58091 15.6378 8.42067 15.4291 8.45413 15.1218C8.50343 14.6613 8.71034 14.2827 9.08893 13.9957C9.72814 13.5106 9.72462 13.4939 9.0951 13.0043C8.24634 12.3449 8.24634 11.2804 9.09333 10.6209C9.33106 10.436 9.55998 10.2661 9.63041 9.9245C9.68852 9.64539 9.94914 9.52389 10.2388 9.58464C10.5258 9.64451 10.6658 9.84966 10.6887 10.1323L10.6878 10.1332Z" fill="#662E93"/>
<path d="M12.8212 9.56524C13.2799 9.57492 13.5352 9.87075 13.4886 10.2133C13.4304 10.6456 13.2473 11.0153 12.8916 11.2856C12.8168 11.342 12.7428 11.4001 12.6706 11.4591C12.2762 11.7787 12.2823 11.8377 12.6715 12.1714C12.8828 12.3519 13.1117 12.5324 13.2614 12.7604C13.6646 13.3732 13.5026 14.17 12.9163 14.6402C12.6556 14.8497 12.3836 15.0241 12.3035 15.407C12.2454 15.6826 11.9698 15.7971 11.6836 15.7214C11.386 15.643 11.2302 15.4247 11.2645 15.1165C11.3165 14.656 11.5243 14.2792 11.902 13.9922C12.5385 13.5106 12.5341 13.4938 11.9002 13.0008C11.0541 12.3431 11.0567 11.2777 11.9055 10.6174C12.1432 10.4325 12.3677 10.259 12.447 9.92094C12.4857 9.75542 12.7358 9.6392 12.8185 9.56348L12.8212 9.56524Z" fill="#662E93"/>
<path d="M18 24.1879C20.1659 24.1879 22.3318 24.1879 24.4978 24.1879C25.1387 24.1879 25.3122 24.3605 25.3131 24.997C25.3131 26.7183 25.3139 28.4396 25.3131 30.1609C25.3131 30.7526 25.1273 30.9375 24.5365 30.9375C20.1818 30.9375 15.8262 30.9375 11.4714 30.9375C10.878 30.9375 10.6922 30.7534 10.6922 30.1635C10.6914 28.4308 10.6914 26.6981 10.6922 24.9645C10.6922 24.3728 10.8771 24.1879 11.4688 24.1879C13.6462 24.187 15.8235 24.1879 18.0009 24.1879H18ZM24.1711 25.3369H11.843V29.7955H24.1711V25.3369Z" fill="#662E93"/>
<path d="M17.9859 33.7497C16.9452 33.7497 15.9045 33.7497 14.8638 33.7497C14.7476 33.7497 14.6261 33.7559 14.5152 33.7277C14.2325 33.6564 14.0679 33.4645 14.0749 33.1722C14.0811 32.8966 14.244 32.7143 14.5116 32.6483C14.6226 32.621 14.7441 32.6263 14.8603 32.6263C16.9531 32.6254 19.046 32.6254 21.1397 32.6263C21.2216 32.6263 21.3043 32.6227 21.3853 32.6307C21.7146 32.665 21.9427 32.9063 21.9339 33.2038C21.9251 33.4909 21.7067 33.7163 21.3898 33.7436C21.204 33.7594 21.0156 33.7497 20.8289 33.7506C19.8815 33.7506 18.935 33.7506 17.9877 33.7506L17.9859 33.7497Z" fill="#662E93"/>
<path d="M11.8218 5.0627C11.121 5.0627 10.4202 5.06534 9.71844 5.06182C9.27381 5.06006 9.0132 4.85139 9.0088 4.50625C9.0044 4.15847 9.26501 3.93924 9.70524 3.93836C11.1069 3.93484 12.5095 3.93572 13.9112 3.93836C14.3558 3.93836 14.6164 4.14879 14.6208 4.49392C14.6252 4.8417 14.3646 5.05918 13.9235 5.06182C13.2227 5.06622 12.5218 5.0627 11.8201 5.0627H11.8218Z" fill="#662E93"/>
<path d="M24.1957 5.0627C23.4949 5.0627 22.7941 5.06534 22.0923 5.06182C21.6468 5.06006 21.3871 4.85315 21.3809 4.50801C21.3748 4.16023 21.6363 3.93924 22.0756 3.93836C23.4773 3.93484 24.8799 3.93572 26.2815 3.93836C26.7271 3.93836 26.9868 4.14703 26.9929 4.49216C26.9991 4.84963 26.7323 5.06006 26.2631 5.06182C25.5737 5.06446 24.8843 5.06182 24.1949 5.06182L24.1957 5.0627Z" fill="#662E93"/>
</g>
<defs>
<clipPath id="clip0_497_94">
<rect width="35.9982" height="36" fill="white"/>
</clipPath>
</defs>
</svg>
