<svg width="31" height="36" viewBox="0 0 31 36" fill="none" xmlns="http://www.w3.org/2000/svg">
<g clip-path="url(#clip0_497_86)">
<path d="M19.9912 -7.8125e-05C20.4966 0.266172 20.6316 0.692734 20.6287 1.2468C20.6109 4.46898 20.625 7.69117 20.6128 10.9134C20.6119 11.2134 20.7066 11.4074 20.9212 11.6043C22.485 13.0368 24.0384 14.4805 25.5947 15.9215C25.6978 16.0171 25.8075 16.108 25.8947 16.2168C26.0831 16.4502 26.0812 16.6996 25.8787 16.9171C25.6762 17.1346 25.4269 17.1534 25.1812 16.9837C25.0659 16.9049 24.9675 16.8018 24.8644 16.7062C23.2734 15.2343 21.6862 13.7577 20.0859 12.2952C19.9575 12.1771 19.7419 12.0965 19.5666 12.0955C16.8009 12.0834 14.0353 12.0843 11.2697 12.0937C11.1122 12.0937 10.9144 12.149 10.8028 12.2512C7.92375 14.9015 5.05406 17.5621 2.17968 20.219C2.115 20.279 2.01843 20.3062 1.93687 20.3484C1.965 20.383 1.99218 20.4168 2.02031 20.4515H28.8684C28.7775 20.3512 28.7175 20.2743 28.6472 20.2096C28.1156 19.7146 27.5812 19.2224 27.0506 18.7265C26.7553 18.4499 26.7159 18.1359 26.9362 17.8968C27.1631 17.6512 27.4678 17.6615 27.7697 17.939C28.7006 18.7959 29.6372 19.6471 30.5484 20.5255C30.7041 20.6755 30.8175 20.9446 30.8222 21.1621C30.8484 22.3687 30.8372 23.5752 30.8334 24.7827C30.8306 25.4774 30.495 25.8084 29.7909 25.8084C21.5297 25.8093 13.2684 25.8084 5.00718 25.8084C4.9725 25.8084 4.93687 25.8084 4.90218 25.8084C4.5225 25.7952 4.29937 25.5937 4.30406 25.2674C4.30875 24.9552 4.52437 24.7593 4.88437 24.7452C5.00156 24.7405 5.11875 24.7434 5.23593 24.7434C13.2516 24.7434 21.2662 24.7434 29.2819 24.7434H29.7497V21.5709H1.09406V24.7434C1.46062 24.7434 1.83093 24.7405 2.20031 24.7434C2.61843 24.7471 2.84812 24.9318 2.85656 25.2618C2.865 25.6077 2.62875 25.8046 2.19281 25.8074C1.80656 25.8102 1.41937 25.8102 1.03312 25.8074C0.339372 25.8018 0.00937227 25.469 0.00749727 24.764C0.00374727 23.5809 0.0159348 22.3968 0.000934768 21.2137C-0.00281523 20.8902 0.113435 20.6671 0.345935 20.4534C3.39468 17.6409 6.42562 14.8087 9.49312 12.0177C10.0312 11.5284 10.2516 11.0465 10.2403 10.3134C10.1962 7.29086 10.2319 4.26742 10.2131 1.24492C10.2094 0.689922 10.3444 0.264297 10.8506 -0.00195312H19.9922L19.9912 -7.8125e-05ZM11.3062 10.9949H19.5225V1.08742H11.3062V10.9949Z" fill="#B07FD8"/>
<path d="M14.7872 36.0002C14.3128 35.6664 14.4281 35.1939 14.5453 34.7627C14.6353 34.4308 14.8078 34.113 14.9869 33.8149C15.4088 33.1127 15.4303 32.4218 14.985 31.7327C14.2678 30.6227 14.2772 29.5277 14.9756 28.4046C15.1528 28.1186 15.2306 27.7586 15.3009 27.4221C15.3853 27.0208 15.5738 26.8155 15.915 26.853C16.2272 26.8877 16.3997 27.1342 16.3828 27.5205C16.3603 28.0361 16.2038 28.5077 15.915 28.9352C15.405 29.6871 15.4125 30.4296 15.9047 31.1964C16.5694 32.2333 16.5413 33.2796 15.9216 34.3427C15.7331 34.6652 15.6703 35.0589 15.5269 35.4114C15.4434 35.6167 15.3169 35.8052 15.2091 36.0002H14.7872Z" fill="#662E93"/>
<path d="M20.9756 36.0002C20.6841 35.8427 20.5922 35.5999 20.6081 35.2727C20.6325 34.7768 20.7834 34.3296 21.0581 33.9274C21.5878 33.1511 21.57 32.3993 21.0628 31.608C20.415 30.5974 20.4544 29.569 21.045 28.5246C21.2456 28.1693 21.3544 27.754 21.4556 27.3546C21.5353 27.0405 21.7162 26.8371 22.02 26.8502C22.3191 26.8633 22.5141 27.0771 22.5234 27.4108C22.5384 27.9677 22.3462 28.458 22.0706 28.9343C21.9037 29.2221 21.7622 29.5418 21.6947 29.8643C21.6019 30.303 21.7453 30.7202 21.9919 31.0952C22.725 32.2118 22.7119 33.3218 21.9975 34.4486C21.84 34.6971 21.7303 35.0027 21.6956 35.2933C21.66 35.5961 21.5728 35.8277 21.3272 36.0002H20.9756Z" fill="#662E93"/>
<path d="M8.66906 36.0001C8.37094 35.8248 8.24344 35.5519 8.32688 35.2294C8.43656 34.8057 8.52375 34.3491 8.75063 33.9873C9.27 33.1576 9.285 32.3973 8.7525 31.5666C8.12063 30.5813 8.14875 29.5538 8.75531 28.5535C8.98219 28.1785 9.16313 27.8007 9.17625 27.346C9.18469 27.0235 9.435 26.8313 9.73969 26.8482C10.0275 26.8641 10.2169 27.0676 10.23 27.3826C10.2506 27.9001 10.1372 28.3913 9.83906 28.8132C9.24656 29.6523 9.27094 30.451 9.825 31.3182C10.4297 32.266 10.3959 33.2701 9.82125 34.2385C9.58594 34.636 9.40031 35.0335 9.36 35.5079C9.34594 35.6794 9.14063 35.836 9.02344 35.9991H8.67188L8.66906 36.0001Z" fill="#662E93"/>
<path d="M27.3638 22.62C27.6206 22.62 27.8775 22.6125 28.1334 22.6219C28.4475 22.6332 28.6331 22.7991 28.6594 23.1169C28.6828 23.401 28.4916 23.6588 28.1944 23.671C27.6244 23.6953 27.0516 23.6963 26.4816 23.6691C26.1844 23.655 26.0016 23.3963 26.0259 23.1075C26.0513 22.8066 26.2275 22.6397 26.5247 22.6247C26.8041 22.6107 27.0844 22.6219 27.3638 22.6219C27.3638 22.6219 27.3638 22.621 27.3638 22.62Z" fill="#662E93"/>
<path d="M23.4291 22.6247C23.5809 22.6247 23.7347 22.6125 23.8856 22.6275C24.1688 22.6547 24.3338 22.8197 24.3572 23.1037C24.3806 23.3878 24.2428 23.6119 23.97 23.6484C23.6259 23.6953 23.2669 23.6972 22.9228 23.6531C22.6331 23.6166 22.4878 23.3859 22.5197 23.0869C22.5506 22.8047 22.7241 22.6481 23.0063 22.6247C23.1459 22.6134 23.2875 22.6228 23.4281 22.6228C23.4281 22.6228 23.4281 22.6237 23.4281 22.6247H23.4291Z" fill="#662E93"/>
<path d="M20.5838 22.6228C20.7244 22.6228 20.8659 22.6134 21.0056 22.6247C21.3084 22.65 21.4772 22.8272 21.4903 23.1253C21.5034 23.4272 21.3356 23.6306 21.0469 23.6653C20.7356 23.7019 20.4131 23.7019 20.1009 23.6672C19.8131 23.6353 19.6463 23.4337 19.6444 23.1337C19.6425 22.8534 19.8544 22.6462 20.1628 22.6228C20.3025 22.6125 20.4441 22.6209 20.5847 22.6209V22.6228H20.5838Z" fill="#662E93"/>
</g>
<defs>
<clipPath id="clip0_497_86">
<rect width="30.8391" height="36" fill="white"/>
</clipPath>
</defs>
</svg>
