<svg width="38" height="36" viewBox="0 0 38 36" fill="none" xmlns="http://www.w3.org/2000/svg">
<g clip-path="url(#clip0_497_81)">
<path d="M0.855363 13.4951C1.5542 17.4982 2.24192 21.4337 2.93368 25.3995H8.17897V22.082C7.94973 22.082 7.70332 22.082 7.45792 22.082C6.51773 22.082 6.31373 21.881 6.31373 20.958C6.31373 20.4783 6.31373 19.9986 6.31373 19.519C6.31474 18.7929 6.56923 18.5343 7.29028 18.5343C10.0806 18.5333 12.8708 18.5343 15.6621 18.5343H16.0903C16.0843 18.4828 16.0934 18.4394 16.0752 18.4182C15.0673 17.2094 14.6745 15.7875 14.6311 14.2464C14.6179 13.7627 14.7381 13.6395 15.2289 13.6395C17.3507 13.6364 19.4714 13.6364 21.5931 13.6395C22.0799 13.6395 22.2243 13.795 22.2001 14.2848C22.1243 15.7925 21.7557 17.1993 20.7681 18.3889C20.7469 18.4142 20.7398 18.4515 20.7034 18.5343C20.865 18.5343 20.9983 18.5343 21.1306 18.5343C23.9209 18.5343 26.7112 18.5343 29.5025 18.5343C30.2609 18.5343 30.4982 18.7716 30.5002 19.5301C30.5012 20.0986 30.5063 20.6662 30.4982 21.2347C30.4901 21.7881 30.2094 22.0679 29.655 22.082C29.3278 22.0901 28.9996 22.083 28.64 22.083V25.4015H34.2448C34.9417 21.4549 35.6375 17.5113 36.3444 13.5062C35.8516 13.5062 35.3991 13.489 34.9497 13.5203C34.8629 13.5264 34.7467 13.7102 34.7175 13.8303C34.2832 15.6057 33.8601 17.3831 33.4359 19.1615C33.0491 20.7793 32.6644 22.3981 32.2786 24.0169C32.2614 24.0907 32.2443 24.1644 32.22 24.2361C32.1362 24.4815 31.9696 24.6299 31.706 24.5663C31.4455 24.5037 31.3394 24.2997 31.394 24.0422C31.4919 23.5736 31.606 23.108 31.7161 22.6425C32.4392 19.6018 33.1623 16.56 33.8853 13.5193C34.0449 12.8467 34.3064 12.6367 34.9942 12.6346C35.4112 12.6336 35.8273 12.6256 36.2444 12.6367C36.9109 12.6538 37.2765 13.0729 37.1624 13.7293C36.6998 16.4136 36.2242 19.0948 35.7516 21.777C35.5193 23.0929 35.282 24.4088 35.0517 25.7246C35.0305 25.8478 35.0366 25.9761 35.0315 26.1023C34.9285 29.0108 35.2113 31.901 35.4597 34.7923C35.4789 35.0185 35.487 35.2457 35.5031 35.4729C35.5284 35.8284 35.3446 35.986 35.0093 35.993C34.7064 35.9991 34.4024 35.9779 34.1004 35.9991C33.6934 36.0284 33.4844 35.8567 33.3652 35.4639C32.7937 33.5703 32.1887 31.6859 31.6242 29.7894C31.5162 29.4278 31.3546 29.3269 30.9961 29.34C30.2175 29.3672 29.4378 29.3481 28.6168 29.3481C28.6168 29.5399 28.6168 29.6884 28.6168 29.8378C28.6168 31.6556 28.6168 33.4734 28.6168 35.2922C28.6168 35.9042 28.5259 35.994 27.9149 35.9951C27.2585 35.9961 26.6021 35.9981 25.9457 35.9951C25.4105 35.992 25.2984 35.883 25.2984 35.3497C25.2963 33.532 25.2974 31.7142 25.2974 29.8954C25.2974 29.8065 25.3125 29.7146 25.2933 29.6308C25.2711 29.5349 25.2176 29.447 25.1782 29.3551C25.0994 29.4319 24.9772 29.4945 24.9479 29.5864C24.5632 30.7861 24.1915 31.9909 23.8169 33.1937C23.5775 33.9642 23.3291 34.7317 23.1029 35.5053C23.0029 35.8476 22.8151 36.0152 22.4515 35.9981C22.1243 35.9829 21.7951 36.0041 21.4669 35.991C21.1064 35.9769 20.9509 35.8123 20.9791 35.4659C21.1569 33.2522 21.3568 31.0406 21.5154 28.826C21.5709 28.0473 21.5305 27.2617 21.5356 26.479C21.5396 25.7569 21.8527 25.4378 22.5707 25.4338C23.3412 25.4297 24.1108 25.4338 24.8813 25.4318C25.0045 25.4318 25.1277 25.4207 25.2681 25.4146V22.1133H11.557V25.4328C12.4548 25.4328 13.3344 25.4328 14.215 25.4328C14.3796 25.4328 14.5432 25.4287 14.7078 25.4338C15.3087 25.454 15.6318 25.7832 15.647 26.3851C15.6773 27.5828 15.6732 28.7835 15.747 29.9782C15.857 31.7536 16.0277 33.5259 16.163 35.2992C16.2085 35.888 16.0994 35.991 15.5157 35.9951C15.2754 35.9971 15.036 35.9961 14.7957 35.9951C14.2655 35.993 14.1958 35.9425 14.0413 35.4477C13.4586 33.5703 12.8749 31.693 12.2922 29.8156C12.1892 29.483 11.9381 29.3376 11.5388 29.3794V29.7803C11.5388 31.6364 11.5388 33.4916 11.5388 35.3477C11.5388 35.8718 11.4186 35.993 10.8925 35.9951C10.2108 35.9981 9.52917 35.9991 8.84751 35.9951C8.32742 35.992 8.21028 35.8688 8.21028 35.3366C8.21028 33.4936 8.21028 31.6506 8.21028 29.8065V29.3511C7.40238 29.3511 6.62478 29.343 5.84717 29.3642C5.76941 29.3662 5.66136 29.5399 5.62601 29.653C5.02009 31.5758 4.41315 33.4986 3.83247 35.4295C3.70927 35.8395 3.50729 36.0233 3.08012 35.99C2.79129 35.9678 2.49944 35.992 2.2096 35.9829C1.79253 35.9708 1.66124 35.8405 1.69154 35.4204C1.77031 34.3126 1.86524 33.2068 1.95512 32.1C2.03389 31.1315 2.16416 30.164 2.18436 29.1946C2.2298 26.985 2.03288 24.7986 1.59661 22.6213C1.01492 19.7169 0.542302 16.7903 0.0323159 13.8707C-0.115126 13.0295 0.234291 12.6377 1.09672 12.6346C1.47543 12.6336 1.85413 12.6316 2.23283 12.6346C2.84886 12.6397 3.13768 12.8669 3.27906 13.4587C3.88398 15.9965 4.48788 18.5353 5.09179 21.0732C5.3079 21.981 5.51997 22.8889 5.73407 23.7968C5.75123 23.8705 5.77244 23.9432 5.78456 24.0179C5.82899 24.2926 5.74114 24.5108 5.45534 24.5643C5.17157 24.6178 5.011 24.4482 4.94636 24.1775C4.74641 23.3312 4.54342 22.485 4.34347 21.6387C3.73048 19.0504 3.11445 16.4631 2.51055 13.8738C2.44592 13.5971 2.33887 13.4688 2.03591 13.49C1.66124 13.5163 1.28355 13.4961 0.855363 13.4961V13.4951ZM7.18324 21.1933H29.6297V19.4311H7.18324V21.1933ZM10.6633 35.1124V22.0951H9.09594V35.1124H10.6633ZM26.1719 22.0891V35.0973H27.7251V22.0891H26.1719ZM21.3235 14.5271H15.4935C15.5642 15.4461 15.7692 16.2985 16.1964 17.0862C16.7154 18.0435 17.387 18.6797 18.6191 18.5616C19.228 18.503 19.6784 18.3243 20.0581 17.889C20.8903 16.9337 21.2053 15.7844 21.3235 14.5282V14.5271ZM28.6239 26.3114V28.4422H34.1327V26.3114H28.6239ZM8.19816 26.3174H3.03871V28.4432H8.19816V26.3174ZM14.7755 28.4574V26.3154H11.5671V28.4574H14.7755ZM15.2976 35.0973C15.141 33.1664 14.9855 31.2658 14.831 29.3662H13.0698C13.086 29.4389 13.094 29.4874 13.1082 29.5339C13.6596 31.3133 14.217 33.0907 14.7563 34.8741C14.8482 35.1791 15.031 35.1346 15.2966 35.0973H15.2976ZM4.80498 29.3632H3.02558C2.87309 31.28 2.7206 33.1815 2.56912 35.0821C2.88925 35.1811 3.07103 35.1245 3.12253 34.8054C3.14677 34.658 3.20938 34.5166 3.25382 34.3732C3.76683 32.717 4.27884 31.0608 4.80397 29.3632H4.80498ZM21.8577 35.074C22.1344 35.174 22.3061 35.1609 22.4101 34.8165C22.9342 33.0826 23.4836 31.3557 24.0229 29.6258C24.0471 29.546 24.0512 29.4612 24.0653 29.3784H22.3213C22.1657 31.2931 22.0122 33.1755 21.8577 35.074ZM32.3816 29.3572C32.3998 29.442 32.4069 29.4905 32.422 29.5369C32.9724 31.3143 33.5288 33.0907 34.0681 34.8711C34.1661 35.1942 34.3509 35.1427 34.6033 35.0801C34.4488 33.1624 34.2963 31.2638 34.1428 29.3572H32.3816ZM22.3909 28.4513H25.2448V26.3265H22.3909V28.4513Z" fill="#B07FD8"/>
<path d="M18.2191 0.000171228C20.8075 0.000171228 23.3958 0.000171228 25.9841 0.000171228C27.0061 0.000171228 27.3706 0.367765 27.3706 1.39582C27.3706 4.45069 27.3706 7.50657 27.3706 10.5614C27.3706 11.5087 26.9838 11.9015 26.0437 11.9015C20.8165 11.9025 15.5884 11.9025 10.3613 11.9015C9.44839 11.9015 9.04949 11.4976 9.04848 10.5816C9.04848 7.48839 9.04747 4.39514 9.04848 1.30291C9.04848 0.40816 9.44738 0.00219098 10.3401 0.0011811C12.9668 -0.00184852 15.5925 0.000171228 18.2191 0.000171228ZM18.1666 11.0361C20.7913 11.0361 23.416 11.029 26.0406 11.0442C26.4112 11.0462 26.5193 10.926 26.5183 10.5675C26.5082 7.48839 26.5082 4.41029 26.5183 1.33119C26.5193 0.964601 26.3971 0.859574 26.0356 0.859574C20.8236 0.869673 15.6116 0.866643 10.4007 0.866643C9.92606 0.866643 9.91293 0.877752 9.91293 1.35542C9.91192 4.4214 9.91192 7.48738 9.91293 10.5534C9.91293 11.024 9.92707 11.0361 10.4068 11.0361C12.9941 11.0361 15.5803 11.0361 18.1676 11.0361H18.1666Z" fill="#662E93"/>
<path d="M19.0967 6.1944C19.3381 5.8258 19.5481 5.49759 19.7653 5.17544C20.1389 4.62304 20.6762 4.61092 21.0417 5.1613C21.6911 6.13886 22.3334 7.12046 22.9676 8.10812C23.3533 8.70798 23.0514 9.25836 22.3283 9.26341C20.8135 9.27351 19.2977 9.26644 17.7829 9.26644C16.5831 9.26644 15.3834 9.26442 14.1847 9.26745C13.8535 9.26745 13.5515 9.21797 13.3788 8.88976C13.2142 8.5767 13.3354 8.31009 13.5111 8.04348C14.425 6.65087 15.3319 5.25421 16.2438 3.86159C16.6306 3.27082 17.1871 3.2688 17.5738 3.85554C18.0737 4.61395 18.5655 5.37641 19.0977 6.1944H19.0967ZM22.1263 8.37573C21.5356 7.47291 20.9842 6.63168 20.4096 5.7541C20.0834 6.25399 19.8057 6.69025 19.5168 7.11743C19.2533 7.50825 18.9432 7.51229 18.6827 7.12248C18.2757 6.51453 17.8818 5.89851 17.4819 5.28653C17.2981 5.00477 17.1143 4.72302 16.9063 4.40592C16.0287 5.74804 15.1835 7.03967 14.3099 8.37573H22.1274H22.1263Z" fill="#662E93"/>
<path d="M19.3239 3.67C18.8978 3.67202 18.5261 3.29635 18.5332 2.87018C18.5403 2.45714 18.8988 2.10368 19.3138 2.09964C19.7309 2.0956 20.0874 2.44098 20.0995 2.86008C20.1116 3.29332 19.7531 3.66798 19.3229 3.67H19.3239Z" fill="#662E93"/>
</g>
<defs>
<clipPath id="clip0_497_81">
<rect width="37.1816" height="36" fill="white"/>
</clipPath>
</defs>
</svg>
