<svg width="36" height="36" viewBox="0 0 36 36" fill="none" xmlns="http://www.w3.org/2000/svg">
<g clip-path="url(#clip0_493_29)">
<path d="M31.088 35.9999C30.2927 35.7067 29.9855 35.1189 30.0459 34.2984C30.0628 34.0656 30.0389 33.8294 30.0523 33.596C30.0853 33.0187 30.3652 32.6081 30.8939 32.3592C30.9895 32.3142 31.1175 32.2003 31.1196 32.1159C31.1365 31.2855 31.1302 30.4551 31.1302 29.5621C30.96 29.5621 30.8138 29.5621 30.6675 29.5621C26.9416 29.5621 23.2165 29.5621 19.4906 29.5621C18.9239 29.5621 18.6666 29.3906 18.6778 29.0228C18.6884 28.6706 18.9324 28.5166 19.4864 28.5166C23.2123 28.5166 26.9374 28.5166 30.6633 28.5166C30.8011 28.5166 30.9396 28.5166 31.1041 28.5166V26.9057H4.82977V28.5166C4.97813 28.5166 5.12579 28.5166 5.27274 28.5166C8.9986 28.5166 12.7238 28.5166 16.4496 28.5166C17.0276 28.5166 17.2673 28.6769 17.2568 29.0538C17.247 29.4138 17.0142 29.5621 16.4531 29.5621C12.7392 29.5621 9.02532 29.5621 5.31141 29.5621C5.16094 29.5621 5.01118 29.5621 4.80727 29.5621V30.3173C4.80727 30.7272 4.82766 31.1385 4.80165 31.5471C4.77352 31.9858 4.80024 32.3226 5.30508 32.5307C5.7143 32.6995 5.86758 33.141 5.88375 33.5875C5.89711 33.9503 5.895 34.3139 5.88375 34.6767C5.86336 35.3615 5.45414 35.7539 4.86071 35.9999H1.06454C0.283364 35.7243 -0.0548397 35.1689 0.00703528 34.3497C0.0239103 34.1282 0.0105509 33.9046 0.00984778 33.6817C0.00773841 33.0524 0.300238 32.6207 0.865551 32.3493C0.960473 32.3036 1.03289 32.1658 1.06875 32.0554C1.10321 31.9492 1.07649 31.8234 1.07649 31.7067C1.07649 25.0396 1.0786 18.3733 1.07368 11.7063C1.07368 11.0285 1.27688 10.4498 1.92516 10.1854C2.59032 9.91401 3.31102 9.91542 3.97899 10.1896C4.5668 10.4308 4.80938 10.9434 4.80868 11.5762C4.80516 13.521 4.80727 15.4659 4.80797 17.4107C4.80797 17.5359 4.80797 17.6603 4.80797 17.8509C5.61094 17.3847 6.44274 17.5232 7.25344 17.5169C8.77641 17.5042 10.3008 17.5457 11.8231 17.5049C13.8509 17.4508 14.8141 19.4653 14.0147 20.8216C13.9992 20.8483 14.0063 20.8884 13.9999 20.9503H14.4225C19.4252 20.9503 24.4287 20.9474 29.4314 20.9545C29.9848 20.9552 30.5374 21.0142 31.1309 21.0487C31.1309 20.4503 31.1013 19.7852 31.1435 19.1242C31.1653 18.7881 31.2673 18.4359 31.4184 18.1328C31.8516 17.2631 34.1037 17.294 34.5755 18.1103C34.785 18.4732 34.8666 18.8402 34.8659 19.2459C34.8638 23.4407 34.8659 27.6349 34.8602 31.8297C34.8602 32.118 34.8799 32.3212 35.2132 32.4358C35.6147 32.5736 35.7736 32.9674 35.9409 33.3281V34.9453C35.7497 35.4571 35.4101 35.8207 34.8863 35.9999H31.0894H31.088ZM4.82063 25.7997H31.1295C31.1295 24.918 31.1302 24.0651 31.1295 23.2115C31.1281 22.3094 30.8257 22.0057 29.932 22.0057C21.9663 22.0057 13.9999 22.0057 6.03422 22.0057C5.94071 22.0057 5.84649 22.0035 5.75297 22.0064C5.24321 22.0232 4.84735 22.3319 4.83047 22.8339C4.79672 23.8141 4.82063 24.7957 4.82063 25.799V25.7997ZM3.7554 32.253C3.7554 32.0864 3.7554 31.938 3.7554 31.7889C3.7554 25.195 3.7554 18.6011 3.7554 12.0072C3.7554 11.3852 3.4411 11.0758 2.8125 11.0791C2.23524 11.0819 2.12907 11.1839 2.12907 11.7471C2.12907 18.4584 2.12907 25.169 2.12907 31.8803V32.253H3.7554ZM33.8112 32.253C33.8112 32.0849 33.8112 31.9464 33.8112 31.8079C33.8112 29.5368 33.8112 27.2657 33.8112 24.9946C33.8112 23.0751 33.8112 21.1549 33.8112 19.2353C33.8112 18.6869 33.6945 18.5695 33.1608 18.5674C33.0785 18.5674 32.997 18.5674 32.9147 18.5674C32.2594 18.5674 32.1806 18.644 32.1806 19.2874C32.1806 23.478 32.1806 27.6686 32.1806 31.8599C32.1806 31.9851 32.1806 32.1096 32.1806 32.2523H33.8119L33.8112 32.253ZM9.01758 20.951C10.0006 20.951 10.9828 20.9545 11.9658 20.9496C12.6963 20.946 13.223 20.4503 13.2293 19.7739C13.2363 19.0821 12.7048 18.5709 11.9581 18.5695C10.0048 18.5653 8.05079 18.566 6.0975 18.5695C5.3529 18.5709 4.80727 19.0835 4.81079 19.7634C4.8136 20.4447 5.35782 20.9474 6.10524 20.9503C7.07625 20.9538 8.04727 20.951 9.01829 20.951H9.01758ZM32.9864 33.326C32.4837 33.326 31.9809 33.3309 31.4789 33.3239C31.2307 33.3203 31.1056 33.4314 31.1027 33.6761C31.0992 33.9799 31.0999 34.2836 31.1027 34.5881C31.1049 34.8307 31.2251 34.9495 31.4733 34.9488C32.49 34.946 33.5067 34.9474 34.5241 34.9481C34.7752 34.9481 34.8834 34.818 34.882 34.5761C34.8806 34.2836 34.8792 33.9918 34.882 33.6993C34.8849 33.4349 34.7597 33.3196 34.4946 33.3239C33.9919 33.3316 33.4891 33.326 32.9871 33.326H32.9864ZM2.93555 33.326C2.43352 33.326 1.93079 33.3295 1.42875 33.3246C1.18125 33.3224 1.06032 33.4321 1.06313 33.6817C1.06594 33.9855 1.06524 34.2892 1.06313 34.593C1.06172 34.8201 1.16649 34.946 1.39852 34.9467C2.42649 34.9481 3.45446 34.9467 4.48313 34.9481C4.71586 34.9481 4.82977 34.8285 4.83469 34.6057C4.84102 34.3139 4.83329 34.0214 4.83891 33.7296C4.84524 33.43 4.70391 33.3147 4.40789 33.3224C3.91782 33.3358 3.42633 33.326 2.93625 33.3267L2.93555 33.326Z" fill="#B07FD8"/>
<path d="M18.713 0C19.1327 0.0921094 19.5624 0.154688 19.9716 0.281953C22.7946 1.16297 24.5454 3.04664 25.2014 5.93578C25.29 6.32602 25.1297 6.60586 24.8063 6.66844C24.5074 6.72609 24.2733 6.53344 24.1819 6.15305C23.5329 3.45586 21.8735 1.75219 19.1538 1.17352C15.1854 0.328359 11.3709 3.68789 11.6571 7.73367C11.9025 11.2036 14.7002 13.777 18.1505 13.706C20.982 13.6477 23.497 11.5995 24.127 8.83898C24.1502 8.73633 24.1692 8.63227 24.1966 8.53102C24.2824 8.21109 24.5285 8.03742 24.814 8.09367C25.1121 8.15203 25.2858 8.42766 25.2183 8.76305C24.7957 10.8577 23.6911 12.498 21.8834 13.6343C17.3229 16.4995 11.321 13.6322 10.6418 8.27578C10.1363 4.29328 13.0388 0.55125 17.0058 0.0653906C17.0838 0.0555469 17.1598 0.0225 17.2364 0C17.7286 0 18.2208 0 18.713 0Z" fill="#662E93"/>
<path d="M16.3181 9.03931C15.8477 9.03931 15.4174 9.04212 14.9871 9.03931C14.2938 9.03439 14.0632 8.80095 14.0618 8.10697C14.0604 7.59158 14.0583 7.07619 14.0625 6.5608C14.0674 5.98634 14.3205 5.73111 14.9041 5.72127C15.3598 5.71353 15.8154 5.71986 16.3188 5.71986C16.3188 5.24033 16.3174 4.78752 16.3188 4.3347C16.3216 3.72298 16.5804 3.46494 17.1998 3.46002C17.7272 3.4565 18.2538 3.45439 18.7812 3.46002C19.3507 3.46705 19.6221 3.73986 19.627 4.30236C19.6312 4.75728 19.6277 5.2122 19.6277 5.71916C20.0805 5.71916 20.508 5.71775 20.9362 5.71916C21.6485 5.72197 21.8819 5.95681 21.8826 6.66908C21.8826 7.18447 21.8862 7.69986 21.8819 8.21525C21.8777 8.75033 21.6267 9.01892 21.0923 9.03509C20.6163 9.04986 20.1389 9.03791 19.6284 9.03791C19.6284 9.53361 19.6312 9.98783 19.6284 10.442C19.6242 11.0116 19.3612 11.2893 18.7973 11.2999C18.2468 11.3097 17.6962 11.3104 17.1457 11.2999C16.579 11.2893 16.3244 11.0165 16.3209 10.4399C16.3181 9.98642 16.3209 9.5322 16.3209 9.03931H16.3181ZM20.8083 6.77244C20.3231 6.77244 19.8569 6.77877 19.3915 6.77103C18.8353 6.76119 18.5787 6.50033 18.5737 5.94556C18.5695 5.4808 18.573 5.01533 18.573 4.5358H17.3714C17.3714 4.99002 17.3728 5.42173 17.3714 5.85275C17.3693 6.52212 17.1288 6.76681 16.4658 6.77173C16.0242 6.77525 15.5826 6.77173 15.1425 6.77173V7.98392C15.603 7.98392 16.0348 7.98111 16.4665 7.98392C17.1281 7.98955 17.3693 8.23634 17.3714 8.90431C17.3728 9.34377 17.3714 9.78252 17.3714 10.2262H18.573C18.573 9.80009 18.573 9.39369 18.573 8.98728C18.573 8.19978 18.7861 7.98462 19.5673 7.98322C19.9821 7.98252 20.3969 7.98322 20.809 7.98322V6.77103L20.8083 6.77244Z" fill="#662E93"/>
</g>
<defs>
<clipPath id="clip0_493_29">
<rect width="35.9395" height="36" fill="white"/>
</clipPath>
</defs>
</svg>
