<svg width="36" height="36" viewBox="0 0 36 36" fill="none" xmlns="http://www.w3.org/2000/svg">
<g clip-path="url(#clip0_498_112)">
<path d="M8.57812 36H0V0H36V4.07812C35.8312 4.35797 35.5837 4.45148 35.261 4.43953C34.7632 4.42055 34.264 4.43461 33.7479 4.43461C33.7479 5.94 33.7493 7.39195 33.7472 8.84461C33.7472 9.28758 33.5531 9.53859 33.2234 9.54281C32.8908 9.54703 32.6939 9.29672 32.6932 8.85586C32.6911 7.51992 32.6925 6.18398 32.6925 4.84805C32.6925 4.72289 32.6925 4.59703 32.6925 4.45781H15.1495V5.63133C15.6445 5.63133 16.1128 5.63133 16.5811 5.63133C17.254 5.63203 17.3981 5.77688 17.3988 6.46172C17.3988 10.0245 17.3988 13.5865 17.3988 17.1492C17.3988 17.8362 17.268 17.9641 16.5698 17.9648C15.5384 17.9662 14.5076 17.9606 13.4761 17.9712C13.3566 17.9726 13.1709 18.0253 13.1316 18.109C12.979 18.431 12.8728 18.7748 12.7301 19.1637C12.9094 19.1637 13.0345 19.1637 13.1597 19.1637C14.2966 19.1637 15.4329 19.1637 16.5698 19.1637C17.2695 19.1637 17.3988 19.2909 17.3995 19.9772C17.4002 23.5399 17.3995 27.102 17.3995 30.6647C17.3995 31.3509 17.2575 31.4944 16.5818 31.4944C14.0857 31.4944 11.5896 31.4944 9.09352 31.4944C8.9557 31.4944 8.81789 31.4944 8.66039 31.4944C8.71734 31.9141 8.76938 32.2924 8.82 32.6651H32.6925V32.2221C32.6925 25.437 32.6925 18.6518 32.6925 11.8666C32.6925 11.726 32.6834 11.5833 32.7052 11.4455C32.7495 11.1635 32.9372 11.006 33.2121 11.0011C33.4716 10.9962 33.6614 11.141 33.7191 11.4019C33.7514 11.5481 33.7465 11.7042 33.7465 11.8561C33.7479 18.8522 33.7472 25.8483 33.7472 32.8444C33.7472 33.6234 33.6255 33.7465 32.8591 33.7465C25.0312 33.7465 17.2034 33.7465 9.37477 33.7465C9.22641 33.7465 9.07875 33.7465 8.93602 33.7465C8.93602 34.2837 8.92055 34.7752 8.94164 35.2652C8.9557 35.5908 8.86641 35.8376 8.57742 35.9986L8.57812 36ZM1.07578 24.2086C1.53141 24.3499 1.8007 24.063 2.06719 23.8099C2.71758 23.1926 3.12258 22.4135 3.45867 21.5972C4.25953 19.6552 4.64414 17.6112 4.91836 15.5426C4.98164 15.0673 5.01539 14.5877 5.06531 14.1103C5.10469 13.7348 5.33039 13.5134 5.64328 13.5366C5.95336 13.5598 6.13055 13.8052 6.11719 14.194C6.11578 14.2411 6.11297 14.2875 6.10875 14.3346C5.94 16.143 5.66578 17.9332 5.20172 19.6924C4.83258 21.0902 4.37344 22.448 3.56414 23.663C3.44461 23.8423 3.31523 24.0152 3.18164 24.2037C3.99094 24.3478 4.65891 24.2016 5.24461 23.6355C5.92945 22.9739 6.45398 22.2082 6.88008 21.3694C7.78852 19.5813 8.31023 17.6653 8.71734 15.7141C8.82984 15.1763 8.90859 14.6313 9.00492 14.0899C9.07664 13.6898 9.31359 13.4909 9.64195 13.5485C9.95273 13.6034 10.0948 13.8452 10.0519 14.2481C10.0484 14.2833 10.0434 14.3177 10.0385 14.3529C9.76219 16.1733 9.34102 17.9578 8.73211 19.6966C8.25469 21.0614 7.65844 22.3671 6.76898 23.5202C6.59391 23.7473 6.40195 23.9611 6.20578 24.1952C7.14023 24.3548 7.55789 24.2634 8.23781 23.7544C9.12023 23.0927 9.82969 22.2743 10.4189 21.3469C11.5685 19.5384 12.2709 17.5465 12.7962 15.4863C13.6188 12.2604 13.962 8.97047 14.0604 5.65031C14.0723 5.25656 14.0618 4.86211 14.0618 4.455H1.07578V24.2079V24.2086ZM34.927 1.08H1.08352V3.36094H34.9263V1.08H34.927ZM8.51344 30.4186H16.3174V20.2472C16.2422 20.238 16.1866 20.2254 16.1311 20.2254C14.9948 20.224 13.8586 20.2416 12.723 20.2134C12.3609 20.2043 12.1929 20.3295 12.0368 20.643C11.2078 22.3116 10.1355 23.7839 8.55 24.8287C8.45789 24.8892 8.38969 25.0545 8.38687 25.1726C8.37 25.7695 8.38547 26.3672 8.37563 26.9641C8.37 27.3241 8.19984 27.4999 7.84828 27.5463C7.74703 27.5597 7.64438 27.5632 7.56633 27.5688C7.88273 28.5195 8.19492 29.4588 8.51414 30.4193L8.51344 30.4186ZM3.18938 27.5955C3.69492 28.812 3.84187 30.0839 3.86719 31.377C3.87562 31.7904 3.68719 32.0365 3.36516 32.0505C3.04523 32.0639 2.83359 31.8178 2.8125 31.4156C2.7907 30.9952 2.78227 30.5733 2.73797 30.1549C2.65008 29.3252 2.48555 28.5124 2.07492 27.7727C2.025 27.6834 1.92375 27.5737 1.83586 27.5639C1.58625 27.5358 1.33172 27.5541 1.0793 27.5541V34.92H7.94109C7.82016 33.7605 7.73859 32.6285 7.57547 31.5084C7.38773 30.2196 7.03266 28.9709 6.43008 27.8058C6.38086 27.7109 6.29578 27.5787 6.21352 27.5681C5.96883 27.5365 5.71711 27.5569 5.44219 27.5569C5.47523 27.6701 5.48648 27.727 5.50828 27.7798C5.985 28.9617 6.10242 30.2041 6.12 31.4613C6.12492 31.8122 5.90766 32.0484 5.60602 32.052C5.32336 32.0555 5.10398 31.8375 5.07164 31.5077C5.05758 31.3685 5.07938 31.2244 5.05828 31.0866C4.92539 30.2231 4.84242 29.3456 4.63078 28.5012C4.38961 27.54 4.26023 27.4992 3.27023 27.5597C3.25969 27.5597 3.24914 27.5688 3.19008 27.5963L3.18938 27.5955ZM16.3181 16.8912V6.70852H15.082C14.914 10.1538 14.4731 13.5499 13.5155 16.8912H16.3181ZM7.30195 25.323H1.07437V26.4755H7.30266V25.323H7.30195Z" fill="#B07FD8"/>
<path d="M25.0313 17.9654C23.1567 17.9654 21.2829 17.9661 19.4084 17.9654C18.7425 17.9654 18.5977 17.8226 18.5977 17.1638C18.597 13.5905 18.597 10.0179 18.5977 6.44465C18.5977 5.78723 18.7531 5.63184 19.4006 5.63184C23.1609 5.63184 26.9213 5.63184 30.6816 5.63184C31.3348 5.63184 31.4944 5.79004 31.4944 6.43691C31.4944 10.0095 31.4944 13.5828 31.4944 17.1554C31.4944 17.8107 31.3432 17.9639 30.6893 17.9646C28.8035 17.9661 26.917 17.9646 25.0313 17.9646V17.9654ZM30.42 6.70902H19.6833V16.8825H30.42V6.70902Z" fill="#662E93"/>
<path d="M25.0298 31.4949C23.144 31.4949 21.2576 31.4949 19.3718 31.4949C18.7657 31.4949 18.5983 31.3311 18.5983 30.7243C18.5969 27.1278 18.5969 23.5313 18.5983 19.9355C18.5983 19.3168 18.7502 19.1656 19.3676 19.1656C23.1511 19.1642 26.9353 19.1642 30.7188 19.1656C31.3312 19.1656 31.4944 19.3287 31.4944 19.9313C31.4951 23.5278 31.4951 27.1243 31.4944 30.7201C31.4944 31.3247 31.3249 31.4949 30.7223 31.4949C28.8246 31.4963 26.9269 31.4949 25.0291 31.4949H25.0298ZM19.6805 20.2449V30.4079H30.42V20.2449H19.6805Z" fill="#662E93"/>
</g>
<defs>
<clipPath id="clip0_498_112">
<rect width="36" height="36" fill="white"/>
</clipPath>
</defs>
</svg>
