<svg width="44" height="36" viewBox="0 0 44 36" fill="none" xmlns="http://www.w3.org/2000/svg">
<g clip-path="url(#clip0_494_50)">
<path d="M0 1.70952C0.0244197 1.67696 0.0587881 1.64892 0.0714501 1.61184C0.466687 0.486724 1.14591 0.00104435 2.35333 0.00104435C15.1827 0.000139916 28.0121 -0.000764516 40.8414 0.00104435C42.3563 0.00104435 43.2156 0.868394 43.2156 2.38784C43.2156 11.8265 43.2156 21.266 43.2156 30.7047C43.2156 32.2694 42.36 33.1168 40.7826 33.1186C40.1794 33.1186 39.5761 33.1186 38.9005 33.1186C38.9005 33.7237 38.9005 34.3079 38.9005 34.8913C38.9005 35.8165 38.7178 35.9992 37.7926 35.9992C36.5408 35.9992 35.2882 36.0019 34.0365 35.9983C33.3799 35.9965 33.1438 35.7641 33.1366 35.1138C33.1293 34.4689 33.1348 33.8241 33.1348 33.1503H10.0808C10.0808 33.6522 10.0808 34.1651 10.0808 34.6779C10.0808 35.9215 10.003 35.9992 8.77118 35.9992C7.58999 35.9992 6.4079 36.0019 5.22671 35.9983C4.55924 35.9956 4.32047 35.7505 4.31685 35.0749C4.31323 34.4436 4.31685 33.8114 4.31685 33.1195C3.77419 33.1195 3.25686 33.0852 2.74495 33.1259C1.39916 33.2344 0.460356 32.7216 0.00180886 31.4201C0 21.5166 0 11.613 0 1.70952ZM21.6033 1.4409C15.2469 1.4409 8.88966 1.4409 2.53331 1.4409C1.61079 1.4409 1.43805 1.61726 1.43805 2.55516C1.43805 11.9079 1.43805 21.2597 1.43805 30.6124C1.43805 31.4843 1.6325 31.6797 2.49894 31.6797C15.2406 31.6797 27.9822 31.6797 40.7238 31.6797C41.584 31.6797 41.7775 31.4825 41.7775 30.6043C41.7775 21.238 41.7775 11.8717 41.7775 2.50542C41.7775 1.63354 41.5858 1.4409 40.7157 1.4409C34.3449 1.4409 27.9741 1.4409 21.6033 1.4409ZM8.61562 33.1575H5.78384V34.5286H8.61562V33.1575ZM37.4245 34.5395V33.1421H34.6072V34.5395H37.4245Z" fill="#B07FD8"/>
<path d="M19.4607 4.31934C23.6934 4.31934 27.927 4.31934 32.1598 4.31934C33.719 4.31934 34.5773 5.18216 34.5782 6.75316C34.58 13.2922 34.58 19.8321 34.5782 26.3712C34.5782 27.935 33.7091 28.8023 32.1534 28.8032C23.6735 28.8032 15.1935 28.8032 6.71359 28.8032C5.20681 28.8032 4.31775 27.9241 4.31685 26.4282C4.31504 19.8466 4.31504 13.2651 4.31685 6.68352C4.31685 5.20568 5.20229 4.32114 6.67741 4.32024C10.9382 4.31843 15.1999 4.32024 19.4607 4.32024V4.31934ZM19.4579 27.3652C23.6762 27.3652 27.8954 27.3652 32.1137 27.3652C32.915 27.3652 33.1338 27.1454 33.1348 26.3341C33.1348 19.8095 33.1357 13.2841 33.1348 6.75949C33.1348 5.97264 32.9168 5.75738 32.1336 5.75738C23.6825 5.75738 15.2306 5.75738 6.77961 5.75738C5.97105 5.75738 5.7558 5.97173 5.7558 6.78301C5.7558 13.294 5.7558 19.8041 5.7558 26.3151C5.7558 27.1508 5.97015 27.3652 6.80223 27.3652C11.0205 27.3652 15.2397 27.3652 19.4579 27.3652Z" fill="#B07FD8"/>
<path d="M38.1815 12.949C36.9858 12.9517 36.0353 12.0165 36.0235 10.8245C36.0118 9.61344 36.9668 8.63846 38.167 8.63575C39.36 8.63303 40.3449 9.62067 40.3367 10.8109C40.3286 11.9921 39.3663 12.9463 38.1806 12.949H38.1815ZM38.896 10.7964C38.896 10.4102 38.5505 10.0711 38.1643 10.0774C37.7691 10.0837 37.457 10.4139 37.467 10.8181C37.476 11.2098 37.7727 11.5019 38.1643 11.5073C38.5614 11.5127 38.896 11.1871 38.896 10.7964Z" fill="#662E93"/>
<path d="M38.1109 18.7147C36.88 18.6695 35.9729 17.6755 36.0262 16.431C36.076 15.2806 37.0935 14.3445 38.2376 14.3961C39.4468 14.4503 40.3874 15.457 40.3349 16.6427C40.2825 17.8248 39.2813 18.7581 38.1109 18.7147ZM38.8942 16.5694C38.9005 16.1823 38.5659 15.8432 38.1752 15.8432C37.7935 15.8432 37.4806 16.1443 37.4661 16.5269C37.4498 16.9384 37.7456 17.2559 38.1534 17.2667C38.5559 17.2776 38.8869 16.9656 38.8942 16.5694Z" fill="#662E93"/>
<path d="M36.0235 22.3331C36.0181 21.1347 36.9488 20.185 38.1426 20.1706C39.3509 20.1561 40.3313 21.1121 40.3377 22.3105C40.3431 23.4989 39.3518 24.4919 38.1652 24.4865C36.9849 24.4811 36.0299 23.5197 36.0244 22.3331H36.0235ZM38.1553 21.6149C37.7447 21.624 37.4507 21.9387 37.4652 22.3512C37.4788 22.731 37.7953 23.0412 38.1715 23.0421C38.5568 23.043 38.8978 22.6985 38.8933 22.3141C38.8888 21.9188 38.5568 21.6059 38.1544 21.6149H38.1553Z" fill="#662E93"/>
<path d="M40.3214 5.79102V7.17027H36.0443V5.79102H40.3214Z" fill="#662E93"/>
<path d="M8.63823 18.749H30.2134V20.1653C29.773 20.1653 29.3533 20.1807 28.9355 20.1599C28.647 20.1454 28.4797 20.2295 28.3521 20.5072C28.0428 21.1837 27.6856 21.8376 27.3654 22.5096C27.1863 22.8858 26.9087 23.0495 26.498 23.0495C21.8013 23.0459 17.1055 23.045 12.4088 23.0504C11.9774 23.0504 11.6988 22.8723 11.5143 22.4843C11.1887 21.7996 10.8315 21.1294 10.505 20.4457C10.4073 20.2404 10.2915 20.1472 10.0573 20.1599C9.69279 20.1789 9.3265 20.1553 8.96111 20.168C8.7341 20.1752 8.62376 20.1092 8.6337 19.8605C8.64818 19.4987 8.63732 19.136 8.63732 18.748L8.63823 18.749ZM11.9891 20.1852C12.2207 20.6474 12.4215 21.0761 12.653 21.4867C12.6964 21.5635 12.8655 21.6015 12.9768 21.6024C17.2909 21.6079 21.6051 21.6079 25.9192 21.6024C26.0304 21.6024 26.2005 21.5626 26.2448 21.4858C26.4772 21.077 26.678 20.651 26.9132 20.1852H11.9891Z" fill="#662E93"/>
<path d="M23.5704 10.0972H24.899C24.9298 10.6652 24.7452 11.1391 24.4432 11.5759C23.9213 12.3284 23.9168 12.6314 24.4251 13.3604C25.0916 14.3163 25.0781 15.4659 24.4079 16.4327C24.2433 16.6697 24.1266 16.9401 23.9575 17.2494H22.6379C22.6072 16.6796 22.798 16.2003 23.1109 15.7571C23.6093 15.0516 23.6102 14.7125 23.1173 14.0034C22.4435 13.0339 22.4534 11.9015 23.1236 10.9329C23.2945 10.686 23.4103 10.4011 23.5713 10.0972H23.5704Z" fill="#662E93"/>
<path d="M19.2599 10.0898H20.5831C20.6084 10.6786 20.4112 11.1706 20.0874 11.6247C19.609 12.2948 19.6099 12.6566 20.0911 13.3422C20.7676 14.3054 20.7639 15.4504 20.1001 16.4145C19.9301 16.6623 19.8071 16.9427 19.6388 17.2538H18.3238C18.2695 16.703 18.4622 16.2355 18.757 15.8022C19.3024 14.9991 19.306 14.7667 18.7543 13.9491C18.1302 13.0247 18.1529 11.8788 18.7941 10.9445C18.965 10.6958 19.0862 10.4127 19.2599 10.0907V10.0898Z" fill="#662E93"/>
<path d="M13.9997 17.2537C13.969 16.6441 14.1725 16.1639 14.4926 15.7207C14.9539 15.0804 14.9539 14.6833 14.4989 14.0394C13.7971 13.0481 13.8071 11.8922 14.5035 10.8992C14.669 10.6631 14.7784 10.3882 14.934 10.0942H16.268C16.2816 10.6857 16.0871 11.1805 15.7606 11.6354C15.303 12.273 15.303 12.68 15.7543 13.3185C16.4607 14.3179 16.4579 15.4575 15.7453 16.4551C15.7046 16.5121 15.6322 16.5636 15.6241 16.6242C15.5155 17.4473 14.8933 17.2709 14.366 17.2763C14.2566 17.2772 14.1471 17.2637 14.0006 17.2546L13.9997 17.2537Z" fill="#662E93"/>
<path d="M31.6705 10.7764H30.2614V8.64915H28.1296V7.2093C29.1173 7.2093 30.1094 7.1894 31.1007 7.22105C31.4154 7.231 31.6569 7.4761 31.6642 7.80894C31.6832 8.78843 31.6714 9.76884 31.6714 10.7764H31.6705Z" fill="#B07FD8"/>
<path d="M31.6669 13.6677H30.2831V12.2739H31.6669V13.6677Z" fill="#B07FD8"/>
</g>
<defs>
<clipPath id="clip0_494_50">
<rect width="43.2156" height="36" fill="white"/>
</clipPath>
</defs>
</svg>
