<svg width="29" height="36" viewBox="0 0 29 36" fill="none" xmlns="http://www.w3.org/2000/svg">
<g clip-path="url(#clip0_501_116)">
<path d="M14.0447 36C13.4259 35.8518 12.8363 35.6503 12.3647 35.1909C11.9738 34.8103 11.9016 34.4868 12.1706 34.1934C12.4191 33.9225 12.7688 33.9562 13.1578 34.289C13.9575 34.9734 14.9578 34.9725 15.6563 34.2703C15.8241 34.1015 15.9431 33.884 16.1456 33.6037C15.6216 33.6037 15.1969 33.6037 14.7722 33.6037C14.4563 33.6037 14.1384 33.6159 13.8234 33.5971C13.44 33.5746 13.1878 33.3037 13.2056 32.969C13.2234 32.64 13.4681 32.4103 13.8469 32.4065C14.7488 32.3981 15.6516 32.4046 16.5534 32.4009C16.6922 32.4009 16.8366 32.3897 16.9688 32.3531C17.2556 32.2734 17.3934 32.0578 17.3803 31.7746C17.3663 31.4737 17.1975 31.2656 16.8891 31.2225C16.6819 31.1943 16.4681 31.215 16.2572 31.2009C15.8597 31.1737 15.6038 30.9365 15.6 30.6037C15.5963 30.254 15.8606 30.0234 16.2825 30.0037C16.5038 29.9934 16.7297 30.0009 16.9453 29.9568C17.2528 29.894 17.3972 29.6615 17.3794 29.3634C17.3616 29.0643 17.19 28.859 16.8778 28.8225C16.6688 28.7981 16.4559 28.814 16.2469 28.7981C15.8503 28.7671 15.5972 28.5243 15.6009 28.1925C15.6047 27.855 15.8559 27.63 16.2581 27.6028C16.305 27.6 16.3519 27.6009 16.3988 27.6C17.2903 27.5868 17.4703 27.3778 17.3747 26.4253C17.2828 26.4159 17.1834 26.4 17.0841 26.3981C16.7916 26.3925 16.4972 26.4056 16.2056 26.3868C15.8447 26.3634 15.6159 26.1356 15.6019 25.8206C15.5878 25.5047 15.8288 25.229 16.1963 25.2084C16.6753 25.1822 17.1563 25.1953 17.6372 25.1943C18.4528 25.1925 18.6019 25.0453 18.6019 24.2334C18.6019 24.0112 18.6131 23.7871 18.6 23.5659C18.5325 22.4146 18.9609 21.4959 19.8497 20.7656C20.6916 20.0728 21.3675 19.2337 21.8475 18.2531C23.2866 15.3121 23.1216 12.4359 21.3103 9.72465C19.8028 7.46809 17.625 6.2184 14.91 6.0384C12.3769 5.87059 10.1869 6.73121 8.40563 8.54621C6.62156 10.365 5.84813 12.5821 6.045 15.1087C6.20625 17.1825 7.06781 18.9571 8.55563 20.4196C8.58938 20.4525 8.62219 20.4871 8.65969 20.5143C9.84938 21.375 10.3003 22.5384 10.2066 23.9953C10.1334 25.1287 10.2516 25.1934 11.3747 25.1934C12.2888 25.1934 13.2028 25.1915 14.1169 25.1953C14.2566 25.1953 14.4 25.2028 14.535 25.2337C14.8388 25.305 14.9897 25.515 14.9784 25.8206C14.9672 26.1272 14.7975 26.3231 14.4891 26.37C14.3278 26.3943 14.1628 26.3934 13.9988 26.3943C13.1456 26.3962 12.2934 26.3953 11.3925 26.3953C11.3925 26.5809 11.3878 26.729 11.3925 26.8762C11.4122 27.3646 11.6203 27.5812 12.1078 27.5953C12.5297 27.6075 12.9516 27.5981 13.3734 27.599C13.6781 27.599 13.9828 27.5925 14.2875 27.6018C14.7281 27.615 14.9728 27.825 14.9813 28.1812C14.9906 28.5525 14.7384 28.7896 14.2847 28.7981C13.6172 28.8103 12.9488 28.8009 12.2813 28.8028C12.1528 28.8028 12.0225 28.8028 11.8959 28.8234C11.5856 28.875 11.4216 29.0821 11.4113 29.3812C11.4019 29.6634 11.5416 29.8865 11.8313 29.9531C12.0225 29.9972 12.225 29.999 12.4228 30.0009C13.0434 30.0065 13.665 29.9981 14.2856 30.0056C14.7244 30.0112 14.9709 30.2231 14.9803 30.5821C14.9897 30.9534 14.7347 31.1934 14.2847 31.2009C13.605 31.2122 12.9253 31.2037 12.2456 31.2047C12.1284 31.2047 12.0094 31.2009 11.895 31.2215C11.6053 31.274 11.4384 31.4597 11.4131 31.7475C11.3888 32.0334 11.52 32.2453 11.7947 32.3484C11.8819 32.3812 11.9766 32.3925 12.0675 32.4131C12.4284 32.4956 12.6197 32.7525 12.5738 33.0947C12.5297 33.4209 12.2597 33.6168 11.8838 33.5953C10.5253 33.5156 9.74813 31.9884 10.4841 30.8428C10.5338 30.765 10.59 30.69 10.6491 30.6047C10.0566 29.8106 10.0388 29.0118 10.6556 28.1906C10.2291 27.7143 10.1728 27.1293 10.1803 26.52C10.1813 26.414 10.0847 26.2621 9.98906 26.2078C9.32438 25.8309 9.00281 25.2628 8.98969 24.51C8.98313 24.1471 8.97563 23.7825 8.99156 23.4206C9.02063 22.7521 8.77594 22.214 8.27063 21.7809C7.51031 21.1293 6.84375 20.3943 6.30844 19.544C5.13938 17.685 4.63781 15.6553 4.86094 13.4775C5.17688 10.3978 6.64969 7.97715 9.25781 6.31684C11.9166 4.62465 14.7891 4.31246 17.73 5.4459C20.9381 6.6834 22.9669 9.04215 23.745 12.3937C24.3516 15.0075 23.8725 17.4759 22.3669 19.6978C21.8738 20.4262 21.2363 21.0684 20.6016 21.6853C20.0709 22.2009 19.7503 22.754 19.7963 23.5059C19.8178 23.8565 19.8084 24.209 19.7972 24.5606C19.7738 25.2853 19.4606 25.8478 18.81 26.1853C18.6272 26.28 18.5897 26.3925 18.5972 26.5706C18.6216 27.1556 18.5588 27.72 18.1453 28.1681C18.7397 29.2228 18.7388 29.6521 18.1453 30.6112C18.4678 31.0462 18.6666 31.53 18.5597 32.1C18.4453 32.7084 18.1116 33.1368 17.5613 33.4172C17.4516 33.4734 17.3288 33.5887 17.2969 33.7012C16.9566 34.9228 16.1709 35.6643 14.9372 35.939C14.8941 35.9484 14.8566 35.9793 14.8163 36.0009H14.0428L14.0447 36Z" fill="#B07FD8"/>
<path d="M14.6072 0C14.9259 0.205313 15.0084 0.51 15.0019 0.870937C14.9897 1.50281 15.0028 2.13563 14.9953 2.76844C14.9934 2.92969 14.9859 3.105 14.925 3.24937C14.8191 3.49875 14.6016 3.61969 14.3269 3.58219C14.0222 3.54094 13.8234 3.35438 13.8169 3.04875C13.8009 2.21813 13.7888 1.38656 13.8281 0.556875C13.8375 0.366563 14.0606 0.185625 14.1853 0L14.6072 0Z" fill="#B07FD8"/>
<path d="M13.7944 15.5936H15.0234C15.0234 15.108 14.9972 14.6299 15.0281 14.1555C15.105 12.9836 16.1184 12.0499 17.3231 12.0133C18.5259 11.9768 19.5872 12.8496 19.7503 14.0121C19.9622 15.5224 18.9112 16.7543 17.3662 16.8002C16.994 16.8114 16.6209 16.8021 16.199 16.8021V17.2371C16.199 19.1355 16.199 21.033 16.199 22.9314C16.199 23.0018 16.199 23.0721 16.199 23.1424C16.1953 23.7124 15.9919 23.9918 15.585 23.9861C15.1912 23.9805 14.9972 23.7124 14.9972 23.1574C14.9953 21.1886 14.9972 19.2208 14.9972 17.2521C14.9972 17.1143 14.9972 16.9764 14.9972 16.8208H13.7934C13.7934 16.9605 13.7934 17.0964 13.7934 17.2314C13.7934 19.1411 13.7934 21.0508 13.7934 22.9605C13.7934 23.0543 13.7953 23.148 13.7934 23.2418C13.7812 23.7321 13.5722 23.9889 13.1906 23.9861C12.8128 23.9833 12.5944 23.7227 12.5934 23.2333C12.5887 21.2411 12.5915 19.2499 12.5915 17.2577C12.5915 17.1199 12.5915 16.9821 12.5915 16.8021C12.1884 16.8021 11.8162 16.8096 11.445 16.8011C10.1409 16.7702 9.19686 15.9321 9.02436 14.6599C8.87999 13.5911 9.55592 12.5055 10.5872 12.1521C11.685 11.7761 12.8531 12.1924 13.4353 13.1458C13.7569 13.6727 13.8037 14.2446 13.7944 14.8361C13.7906 15.0799 13.7944 15.3227 13.7944 15.5936ZM12.5869 15.5993C12.5869 15.168 12.6009 14.7714 12.584 14.3768C12.554 13.6868 12.0515 13.2058 11.3887 13.2096C10.7475 13.2133 10.23 13.7121 10.199 14.3571C10.1681 14.9946 10.6669 15.5514 11.3372 15.5946C11.7328 15.6199 12.1312 15.5993 12.5878 15.5993H12.5869ZM16.23 15.6321C16.7559 15.6011 17.2537 15.6236 17.73 15.5318C18.2953 15.423 18.6525 14.8436 18.5869 14.2868C18.5156 13.6858 18.0562 13.2405 17.475 13.2124C16.874 13.1824 16.3125 13.5649 16.2422 14.133C16.184 14.6027 16.23 15.0855 16.23 15.6321Z" fill="#662E93"/>
<path d="M20.1788 5.12422C19.6716 5.11391 19.3631 4.67891 19.5637 4.29735C19.9594 3.5436 20.3953 2.80953 20.8453 2.08578C21.0141 1.81391 21.315 1.77641 21.5925 1.93766C21.8691 2.09797 21.9891 2.3811 21.8381 2.66047C21.4294 3.42078 20.9906 4.16516 20.5378 4.90016C20.4591 5.02766 20.2556 5.07828 20.1788 5.12422Z" fill="#B07FD8"/>
<path d="M2.36999 6.84375C2.59874 6.93937 2.74593 6.98344 2.87531 7.05656C3.48562 7.4025 4.09312 7.75312 4.69781 8.10844C5.10937 8.35031 5.22749 8.68125 5.03343 9.00656C4.8478 9.31781 4.50937 9.37688 4.11093 9.15094C3.46968 8.78813 2.83312 8.41781 2.19749 8.04656C1.91062 7.87875 1.76156 7.61156 1.90218 7.30875C1.99124 7.11656 2.21812 6.98812 2.36999 6.84375Z" fill="#B07FD8"/>
<path d="M9.28407 4.48118C9.27376 4.80087 9.15094 4.99212 8.88563 5.08493C8.58282 5.19087 8.34657 5.08024 8.19001 4.83181C7.91063 4.38649 7.65563 3.92618 7.39126 3.47149C7.25063 3.22868 7.10063 2.99056 6.97876 2.73837C6.82688 2.42337 6.92438 2.09806 7.19157 1.93962C7.46626 1.77743 7.80657 1.83556 7.98938 2.13462C8.41594 2.83212 8.81532 3.54649 9.21938 4.25712C9.26344 4.33493 9.27094 4.43431 9.28313 4.48212L9.28407 4.48118Z" fill="#B07FD8"/>
<path d="M24.3319 9.29155C24.0075 9.28499 23.8134 9.16312 23.7187 8.89968C23.61 8.60155 23.7141 8.36062 23.9606 8.19843C24.2925 7.97999 24.6431 7.79155 24.9872 7.5928C25.3209 7.39968 25.6519 7.20093 25.9912 7.01718C26.3531 6.82218 26.7066 6.90843 26.8716 7.21499C27.0291 7.50843 26.925 7.85062 26.5884 8.0503C25.9359 8.43843 25.275 8.81437 24.6141 9.18937C24.5156 9.24562 24.3975 9.26812 24.3328 9.29062L24.3319 9.29155Z" fill="#B07FD8"/>
<path d="M5.11218 20.2406C5.04937 20.3184 4.95375 20.5227 4.79437 20.6212C4.12875 21.0327 3.44812 21.4209 2.76281 21.7996C2.43656 21.9796 2.10187 21.8821 1.93406 21.6009C1.76906 21.3252 1.84781 20.969 2.16 20.7806C2.83968 20.3699 3.525 19.9659 4.22531 19.5899C4.66031 19.3565 5.12718 19.6509 5.11218 20.2396V20.2406Z" fill="#B07FD8"/>
<path d="M24.3309 19.5029C24.4172 19.5367 24.5541 19.5742 24.6741 19.6417C25.2938 19.9932 25.9106 20.3504 26.5247 20.7114C26.9137 20.9401 27.0375 21.2673 26.8688 21.5823C26.6925 21.9104 26.3344 21.9789 25.9237 21.7464C25.2834 21.3836 24.6459 21.0161 24.0122 20.6411C23.7459 20.4836 23.6072 20.2473 23.7019 19.9323C23.7853 19.6548 23.9916 19.5198 24.33 19.5029H24.3309Z" fill="#B07FD8"/>
<path d="M1.77658 14.9918C1.39126 14.9918 1.00501 15.0021 0.62064 14.989C0.24939 14.9758 0.00470204 14.7321 1.45445e-05 14.4068C-0.00373546 14.1049 0.22689 13.8208 0.570952 13.8105C1.38751 13.7871 2.20595 13.7852 3.02158 13.8124C3.39283 13.8246 3.60095 14.1058 3.57845 14.4452C3.55689 14.7668 3.33564 14.9768 2.96626 14.9899C2.5697 15.003 2.1722 14.9927 1.77564 14.9927L1.77658 14.9918Z" fill="#B07FD8"/>
<path d="M27.0178 14.9918C26.6203 14.9918 26.2237 15.0021 25.8272 14.989C25.4578 14.9768 25.2356 14.7677 25.2141 14.4462C25.1906 14.1058 25.3969 13.8246 25.7691 13.8124C26.5856 13.7852 27.4031 13.7871 28.2197 13.8105C28.5647 13.8199 28.7962 14.103 28.7925 14.4058C28.7897 14.7312 28.544 14.9758 28.1737 14.9899C27.7894 15.004 27.4031 14.9927 27.0178 14.9937V14.9918Z" fill="#B07FD8"/>
</g>
<defs>
<clipPath id="clip0_501_116">
<rect width="28.7925" height="36" fill="white"/>
</clipPath>
</defs>
</svg>
