<svg width="36" height="36" viewBox="0 0 36 36" fill="none" xmlns="http://www.w3.org/2000/svg">
<g clip-path="url(#clip0_497_71)">
<path d="M0 34.4531V1.54688C0.233438 0.749062 0.749062 0.233438 1.54688 0H34.4531C35.2509 0.233438 35.7656 0.75 36 1.54688V34.4531C35.7647 35.2491 35.25 35.7656 34.4531 36H1.54688C0.75 35.7656 0.233438 35.2509 0 34.4531ZM0.984375 17.9822C0.984375 23.2791 0.984375 28.575 0.984375 33.8719C0.984375 34.6875 1.31531 35.0156 2.13563 35.0156C12.705 35.0156 23.2753 35.0156 33.8447 35.0156C34.6922 35.0156 35.0147 34.6959 35.0147 33.8541C35.0147 23.2847 35.0147 12.7144 35.0147 2.145C35.0147 1.30312 34.6931 0.984375 33.8447 0.984375C23.2866 0.984375 12.7284 0.984375 2.17031 0.984375C1.29844 0.984375 0.983437 1.29656 0.983437 2.16187C0.983437 7.43531 0.983437 12.7078 0.983437 17.9813L0.984375 17.9822Z" fill="#B07FD8"/>
<path d="M1.67344 17.9653C1.69312 8.91658 9.02344 1.65751 18.1228 1.67533C27.0497 1.69314 34.35 9.06283 34.3266 18.0347C34.3041 27.0863 26.9681 34.351 17.8772 34.3256C8.94375 34.3013 1.65469 26.9419 1.67344 17.9653ZM18.0066 2.65876C9.54187 2.65314 2.68875 9.4922 2.65781 17.9747C2.62687 26.4338 9.51281 33.3338 17.9925 33.3403C26.4656 33.3478 33.3544 26.4563 33.3422 17.9888C33.3291 9.51658 26.475 2.66439 18.0075 2.65876H18.0066Z" fill="#B07FD8"/>
<path d="M4.08938 5.70842C3.15375 5.70842 2.39156 4.95092 2.39063 4.01904C2.38969 3.06279 3.14625 2.30717 4.10344 2.30811C5.04281 2.30904 5.79563 3.05717 5.80219 3.99748C5.80875 4.94811 5.04844 5.70842 4.08938 5.70842ZM4.08188 4.72217C4.48313 4.72873 4.80563 4.42779 4.81969 4.03217C4.83375 3.63936 4.52344 3.30654 4.13063 3.29342C3.71156 3.27936 3.38063 3.58967 3.37594 4.00123C3.37125 4.39873 3.68156 4.71467 4.08188 4.72123V4.72217Z" fill="#662E93"/>
<path d="M4.125 30.2916C5.05594 30.2981 5.82094 31.0762 5.80594 32.0006C5.79 32.9606 5.03156 33.7003 4.07062 33.6909C3.13781 33.6825 2.38687 32.9184 2.39156 31.9819C2.39625 31.0322 3.16312 30.2841 4.125 30.2916ZM4.10531 32.7066C4.50375 32.7019 4.81781 32.3859 4.81875 31.9903C4.81969 31.5825 4.48594 31.2637 4.06969 31.2769C3.67219 31.2891 3.36656 31.6125 3.37594 32.0091C3.38531 32.4056 3.705 32.7112 4.10531 32.7066Z" fill="#662E93"/>
<path d="M31.8806 33.6909C30.9469 33.6853 30.1912 32.9203 30.1959 31.9865C30.2016 31.0322 30.9628 30.2859 31.9247 30.2915C32.8575 30.2972 33.6141 31.0622 33.6084 31.9959C33.6028 32.9484 32.8397 33.6975 31.8797 33.6918L31.8806 33.6909ZM31.8825 32.7065C32.2856 32.714 32.6072 32.4159 32.6241 32.0194C32.6419 31.6087 32.3213 31.2778 31.905 31.2759C31.5075 31.274 31.1859 31.5853 31.1794 31.98C31.1719 32.3728 31.4878 32.699 31.8825 32.7065Z" fill="#662E93"/>
<path d="M31.8994 2.30811C32.8378 2.3053 33.6 3.05436 33.6084 3.98718C33.6169 4.93874 32.8612 5.7028 31.9041 5.70843C30.9703 5.71405 30.2006 4.95843 30.1931 4.02843C30.1856 3.07593 30.945 2.30999 31.8994 2.30811ZM31.9134 4.72218C32.3147 4.71749 32.625 4.4053 32.625 4.00686C32.625 3.60936 32.3109 3.29624 31.9116 3.29343C31.4981 3.29061 31.1709 3.61874 31.1813 4.02749C31.1916 4.42218 31.5131 4.72686 31.9134 4.72218Z" fill="#662E93"/>
<path d="M31.9922 17.9907C31.9997 25.6988 25.7109 31.9922 18 31.9922C10.2881 31.9922 4.00125 25.7007 4.00781 17.9916C4.01531 10.2891 10.2778 4.02193 17.9813 4.00881C25.6913 3.99568 31.9838 10.276 31.9913 17.9916L31.9922 17.9907ZM18.0047 4.99225C10.8347 4.9885 4.98938 10.8329 4.99219 18.0029C4.995 25.1607 10.8159 30.9901 17.9766 31.0069C25.1428 31.0238 30.9966 25.186 31.0069 18.0132C31.0172 10.8451 25.1756 4.996 18.0038 4.99225H18.0047Z" fill="#B07FD8"/>
<path d="M17.5078 13.482C17.5078 11.8283 17.5078 10.2008 17.5078 8.57236C17.5078 8.04549 17.5022 7.51767 17.5097 6.9908C17.5153 6.6083 17.6981 6.43486 18.0759 6.42924C20.9662 6.38799 23.6578 8.78424 23.9794 11.6699C24.1828 13.4961 23.6859 15.0936 22.4963 16.4895C22.4147 16.5861 22.3837 16.7577 22.3912 16.8908C22.4016 17.0867 22.4681 17.2799 22.5187 17.5077H22.8928C24.885 17.5077 26.8762 17.5077 28.8684 17.5077C29.4431 17.5077 29.5931 17.6699 29.5603 18.2511C29.3719 21.5633 26.7225 24.0805 23.4534 24.0299C22.0753 24.0083 20.8247 23.5733 19.7662 22.6827C19.455 22.4202 19.1794 22.302 18.8006 22.4464C18.7144 22.4792 18.6188 22.4886 18.4941 22.5167C18.4941 22.6395 18.4941 22.7652 18.4941 22.8917C18.4941 24.8839 18.4941 26.8752 18.4941 28.8674C18.4941 29.4411 18.3309 29.5911 17.7497 29.5583C14.4384 29.3717 11.9231 26.7224 11.9719 23.4514C11.9925 22.0733 12.4266 20.8217 13.3191 19.7642C13.5834 19.4511 13.6922 19.1755 13.5553 18.7977C13.5234 18.7105 13.5131 18.6158 13.4859 18.4911H13.11C11.1178 18.4911 9.12656 18.4911 7.13437 18.4911C6.55969 18.4911 6.41156 18.3289 6.44344 17.7467C6.62719 14.4355 9.27 11.9249 12.5503 11.9689C13.9284 11.9877 15.18 12.4227 16.2375 13.3152C16.5497 13.5795 16.8272 13.6883 17.2041 13.5514C17.2912 13.5195 17.3859 13.5092 17.5106 13.4811L17.5078 13.482ZM15.6394 14.1036C14.1806 12.8389 11.9531 12.582 10.1897 13.5008C8.58469 14.337 7.68281 15.6758 7.43531 17.4917H13.4784C13.8919 15.7405 14.1666 15.3092 15.6403 14.1027L15.6394 14.1036ZM17.4891 28.572V22.5158C15.8175 22.1483 15.4481 21.913 14.0859 20.3464C12.9234 21.8933 12.5991 23.5742 13.3116 25.3705C14.0503 27.2342 15.4838 28.2674 17.4891 28.572ZM20.3475 21.9195C21.9712 23.1205 23.7216 23.4224 25.5731 22.6039C27.3234 21.8305 28.2919 20.427 28.5694 18.5145H22.5159C22.1644 20.1449 21.9909 20.4167 20.3475 21.9195ZM21.8728 15.6392C23.1056 14.4092 23.3934 12.0167 22.5488 10.2692C21.6769 8.46642 19.7737 7.45017 18.5109 7.49142V13.4933C19.9659 13.7014 21.0806 14.4214 21.8728 15.6392ZM17.9906 14.4617C16.0153 14.4711 14.4497 16.0527 14.4628 18.0252C14.4759 19.9808 16.0613 21.5511 18.0075 21.537C19.9856 21.522 21.5447 19.947 21.5372 17.9717C21.5297 16.0236 19.9425 14.4524 17.9906 14.4617Z" fill="#662E93"/>
<path d="M18.0009 20.4583C16.6509 20.4583 15.5419 19.3511 15.5419 18.002C15.5419 16.6492 16.6481 15.5411 17.9972 15.543C19.3491 15.5448 20.4544 16.6483 20.4572 18.0002C20.4609 19.3473 19.3509 20.4583 18 20.4592L18.0009 20.4583ZM17.9953 19.473C18.7875 19.4786 19.4578 18.8242 19.4728 18.032C19.4878 17.2211 18.8334 16.5433 18.0225 16.5283C17.2144 16.5142 16.5356 17.1761 16.5281 17.9861C16.5206 18.7952 17.1844 19.4673 17.9953 19.473Z" fill="#B07FD8"/>
</g>
<defs>
<clipPath id="clip0_497_71">
<rect width="36" height="36" fill="white"/>
</clipPath>
</defs>
</svg>
