<svg width="36" height="26" viewBox="0 0 36 26" fill="none" xmlns="http://www.w3.org/2000/svg">
<g clip-path="url(#clip0_493_2)">
<path d="M36 14.1718C35.9608 14.2681 35.9199 14.3635 35.8816 14.4598C35.6297 15.1036 35.1695 15.4914 34.4832 15.5913C34.2873 15.6198 34.087 15.6305 33.8885 15.6305C23.2992 15.6323 12.7098 15.6323 2.12038 15.6296C1.86402 15.6296 1.60231 15.618 1.35217 15.5636C0.593752 15.4005 0.0507523 14.7318 0.0106949 13.9169C-0.00977885 13.4951 0.00179328 13.0725 0.00179328 12.6499C0.00179328 9.08264 1.29544e-05 5.51539 0.00179328 1.94813C0.00446377 0.944197 0.510967 0.254105 1.39668 0.0543883C1.58806 0.0107003 1.79191 0.00891715 1.98953 0.00891715C12.6608 0.00624237 23.3321 0.0107003 34.0034 1.23377e-06C35.0395 -0.000890358 35.6671 0.481461 36 1.42387V14.1727V14.1718ZM18.0321 1.20722C12.7133 1.20722 7.39371 1.20722 2.07498 1.20722C1.37977 1.20722 1.20084 1.38553 1.20084 2.08008C1.20084 5.9059 1.20084 9.73261 1.20084 13.5584C1.20084 14.2619 1.36641 14.4286 2.0732 14.4286C12.6875 14.4286 23.3027 14.4286 33.917 14.4286C34.6434 14.4286 34.8018 14.2664 34.8018 13.5361C34.8018 9.72192 34.8018 5.90679 34.8018 2.09257C34.8018 1.35879 34.6505 1.20722 33.9179 1.20722C28.6223 1.20722 23.3268 1.20722 18.0312 1.20722H18.0321Z" fill="#B07FD8"/>
<path d="M19.7972 21.8617C19.7928 22.3948 19.6432 22.8183 19.3219 23.1447C19.0299 23.4416 18.697 23.7073 18.3507 23.9417C18.0436 24.1504 17.6279 24.0256 17.4632 23.7304C17.2968 23.4318 17.3885 23.1732 17.7347 22.9369C17.927 22.805 18.1264 22.6775 18.2964 22.5197C18.6881 22.1559 18.6925 21.7885 18.284 21.4462C17.9448 21.1618 17.5416 20.9522 17.2104 20.6607C16.9167 20.4012 16.63 20.1052 16.4351 19.77C16.0505 19.1075 16.1218 18.4148 16.6042 17.8352C16.9042 17.4741 17.3039 17.1862 17.692 16.9142C17.9733 16.7172 18.2688 16.8081 18.4282 17.056C18.6062 17.3333 18.5528 17.6569 18.3 17.87C18.0855 18.051 17.8594 18.2222 17.6689 18.4264C17.3137 18.8071 17.3244 19.1494 17.7187 19.4847C17.9653 19.6942 18.2573 19.8538 18.5341 20.0259C19.2462 20.469 19.7501 21.0476 19.7963 21.8626L19.7972 21.8617Z" fill="#662E93"/>
<path d="M11.4368 25.2425C11.0994 25.214 10.9009 25.0794 10.8164 24.7967C10.7327 24.5159 10.8546 24.3251 11.0816 24.1735C11.2757 24.0433 11.4751 23.9167 11.6504 23.7634C12.1098 23.3622 12.1089 22.9895 11.6264 22.5963C11.2828 22.3163 10.8902 22.0961 10.5449 21.8179C9.98672 21.3686 9.58437 20.8202 9.61552 20.0543C9.64668 19.2742 10.4674 18.256 11.2294 18.0483C11.5151 17.9707 11.7403 18.0607 11.8739 18.33C12.0083 18.6011 11.9932 18.8445 11.735 19.0486C11.5062 19.2305 11.2712 19.4106 11.0718 19.6228C10.7122 20.0044 10.722 20.3414 11.1172 20.682C11.354 20.8862 11.6576 21.0119 11.897 21.2134C12.2513 21.5112 12.6385 21.801 12.8976 22.1737C13.3391 22.8085 13.3391 23.528 12.8593 24.1414C12.5504 24.5373 12.1115 24.8333 11.7181 25.1587C11.6371 25.2256 11.5009 25.2238 11.4359 25.2407L11.4368 25.2425Z" fill="#662E93"/>
<path d="M24.6415 25.307C24.3104 25.225 24.111 25.0894 24.0175 24.8139C23.9241 24.5376 24.0362 24.3405 24.265 24.1863C24.4582 24.0552 24.6593 23.9313 24.8338 23.7779C25.3136 23.358 25.3136 22.996 24.8142 22.5876C24.4991 22.3291 24.1359 22.1294 23.8181 21.8726C23.584 21.6836 23.3597 21.4678 23.1825 21.2262C22.6511 20.5031 22.668 19.6392 23.2555 18.9633C23.527 18.6513 23.8724 18.3936 24.2142 18.1538C24.5338 17.93 24.8472 17.9906 25.0207 18.2456C25.2112 18.5256 25.1382 18.8688 24.8534 19.1087C24.63 19.2968 24.4003 19.4831 24.2107 19.7016C23.9303 20.0252 23.9383 20.3435 24.2596 20.6279C24.5187 20.858 24.8276 21.0345 25.124 21.2191C25.7097 21.5837 26.1886 22.0429 26.3453 22.7356C26.5429 23.6085 26.1379 24.2621 25.4836 24.781C25.2264 24.9851 24.9237 25.1331 24.6424 25.3061L24.6415 25.307Z" fill="#662E93"/>
<path d="M18.0383 12.0195C22.9004 12.0195 27.7625 12.0195 32.6245 12.0204C32.7874 12.0204 32.9521 12.0284 33.1141 12.049C33.4372 12.0891 33.5726 12.3102 33.5948 12.6062C33.6171 12.9076 33.4194 13.1429 33.1106 13.1955C32.9735 13.2187 32.831 13.2241 32.6913 13.2241C22.8968 13.225 13.1032 13.225 3.30877 13.225C2.67586 13.225 2.41771 13.0556 2.40525 12.6383C2.39279 12.2077 2.66696 12.0195 3.31144 12.0195C8.22069 12.0195 13.1291 12.0195 18.0383 12.0195Z" fill="#B07FD8"/>
<path d="M18.0018 10.815C13.1281 10.815 8.25447 10.815 3.38082 10.815C3.21703 10.815 3.05235 10.815 2.89034 10.7945C2.5681 10.7543 2.42033 10.5323 2.41232 10.2372C2.4052 9.94299 2.53606 9.71029 2.85651 9.65144C2.9936 9.62648 3.13514 9.614 3.27489 9.614C13.0925 9.61221 22.9101 9.61221 32.7286 9.61221C32.7758 9.61221 32.8221 9.61132 32.8693 9.61221C33.3535 9.62915 33.6108 9.84938 33.5983 10.2354C33.5859 10.6135 33.35 10.8123 32.8702 10.8132C30.6091 10.8176 28.3481 10.815 26.0871 10.815C23.3926 10.815 20.6981 10.815 18.0035 10.815H18.0018Z" fill="#662E93"/>
<path d="M18.0134 4.20992C18.7264 4.20992 19.4394 4.20814 20.1524 4.2117C20.2922 4.2117 20.4346 4.21527 20.5708 4.24469C20.8512 4.30443 20.9803 4.51128 20.9892 4.77786C20.999 5.05604 20.8922 5.28607 20.5975 5.3681C20.4862 5.3993 20.367 5.41268 20.2512 5.41268C18.7549 5.41535 17.2594 5.42248 15.763 5.40554C15.5583 5.40287 15.2815 5.33778 15.1711 5.19691C15.0527 5.04534 15.0117 4.73774 15.0838 4.55942C15.1479 4.4025 15.4123 4.24112 15.5948 4.2331C16.3995 4.19833 17.2069 4.21794 18.0134 4.21794V4.20992Z" fill="#662E93"/>
</g>
<defs>
<clipPath id="clip0_493_2">
<rect width="36" height="25.3069" fill="white"/>
</clipPath>
</defs>
</svg>
