<svg width="28" height="36" viewBox="0 0 28 36" fill="none" xmlns="http://www.w3.org/2000/svg">
<g clip-path="url(#clip0_496_63)">
<path d="M24.5557 0C25.1172 0.127181 25.6582 0.289581 26.119 0.663297C26.8645 1.26789 27.246 2.04957 27.2959 3.00049C27.3028 3.14039 27.3008 3.28127 27.3008 3.42214C27.3008 12.7132 27.2959 22.0033 27.3087 31.2943C27.3096 32.2188 27.069 32.9486 26.1865 33.3732C26.1132 33.4084 26.0682 33.5571 26.0593 33.6579C26.031 33.9602 26.0652 34.2723 26.0075 34.5677C25.8588 35.3299 25.1965 35.9022 24.4119 35.9863C24.2837 36 24.1546 36 24.0254 36C17.1117 36 10.1979 36 3.28518 36C2.25697 36 1.51638 35.4883 1.31583 34.6C1.24735 34.2968 1.28844 33.97 1.24833 33.6579C1.23365 33.5444 1.15441 33.3918 1.06049 33.3419C0.317949 32.9477 0.00586709 32.3323 0.00586709 31.5056C0.011737 23.3749 0.00880203 15.2441 0.00880203 7.11332C0.00880203 5.8601 0.0401081 4.60492 0.000975521 3.35268C-0.0508751 1.64846 1.05168 0.26121 2.69134 0.0293494C2.71384 0.0264145 2.73341 0.00978314 2.75493 0C10.0218 0 17.2888 0 24.5557 0ZM1.173 8.6571C1.173 8.81852 1.173 8.94668 1.173 9.07484C1.173 16.5032 1.173 23.9305 1.173 31.3589C1.173 32.166 1.35594 32.346 2.17088 32.346C9.82227 32.346 17.4746 32.346 25.126 32.346C25.9576 32.346 26.1366 32.1679 26.1366 31.3364C26.1366 23.9198 26.1366 16.5042 26.1366 9.08756C26.1366 8.95059 26.1366 8.81363 26.1366 8.6571H1.173ZM26.1269 7.44203C26.1269 5.93641 26.1631 4.47089 26.1151 3.00929C26.077 1.85586 25.2728 1.17398 24.0607 1.17398C17.1234 1.17104 10.1852 1.17104 3.248 1.17398C1.95956 1.17398 1.18767 1.93706 1.17593 3.22159C1.16419 4.54525 1.173 5.86988 1.17397 7.19354C1.17397 7.27181 1.18865 7.35007 1.19745 7.44203H26.1259H26.1269ZM2.436 33.5386C2.34012 34.555 2.53677 34.8407 3.5728 34.8387C10.3193 34.8201 17.0657 34.829 23.8122 34.829C23.953 34.829 24.0939 34.8329 24.2338 34.8221C24.6154 34.7918 24.8374 34.5922 24.8824 34.2107C24.9079 33.9954 24.8873 33.7743 24.8873 33.5395H2.436V33.5386Z" fill="#B07FD8"/>
<path d="M23.5705 20.4957C23.5627 25.9498 19.1143 30.3913 13.6573 30.3933C8.18947 30.3962 3.70879 25.9097 3.74107 20.4634C3.77336 15.0005 8.26382 10.5286 13.6719 10.5756C19.1583 10.6235 23.5793 15.0533 23.5715 20.4957H23.5705ZM13.6436 29.2389C18.4402 29.2584 22.376 25.3295 22.3965 20.5006C22.4171 15.7009 18.4823 11.7544 13.667 11.7427C8.85668 11.7319 4.93168 15.6491 4.91505 20.4771C4.89842 25.2786 8.82341 29.2183 13.6445 29.2379L13.6436 29.2389Z" fill="#B07FD8"/>
<path d="M8.34991 6.1379C7.07321 6.1379 5.79651 6.14083 4.51981 6.1379C3.57574 6.13496 3.11691 5.67515 3.11299 4.73793C3.11201 4.39845 3.10321 4.058 3.11593 3.7195C3.14039 3.03664 3.56008 2.58466 4.23805 2.49857C4.33099 2.48683 4.42491 2.48291 4.51785 2.48291C7.08299 2.48291 9.64715 2.48291 12.2123 2.48096C12.6799 2.48096 13.0938 2.59444 13.3843 2.99262C13.716 3.44655 13.7199 5.18306 13.3863 5.637C13.1143 6.00876 12.7347 6.14181 12.2847 6.13985C10.9728 6.13398 9.66085 6.1379 8.34991 6.1379ZM4.30654 4.94924H12.4246V3.68331H4.30654V4.94924Z" fill="#662E93"/>
<path d="M17.3886 6.13201C16.378 6.13201 15.5483 5.30045 15.5601 4.29865C15.5718 3.31055 16.3995 2.49073 17.3856 2.48975C18.3884 2.48779 19.219 3.32719 19.2102 4.33191C19.2014 5.32784 18.3874 6.13201 17.3886 6.13299V6.13201ZM17.3856 3.65981C17.0324 3.66177 16.7438 3.95233 16.7409 4.30844C16.738 4.67824 17.0452 4.98445 17.4071 4.97173C17.7593 4.95999 18.0382 4.66258 18.0333 4.30452C18.0284 3.94939 17.7359 3.65786 17.3856 3.65981Z" fill="#662E93"/>
<path d="M22.3222 6.13108C21.3087 6.10955 20.5182 5.27309 20.5465 4.25369C20.5739 3.28027 21.4006 2.48197 22.374 2.48881C23.3768 2.49664 24.2162 3.35071 24.1937 4.33978C24.1712 5.35234 23.3347 6.1526 22.3222 6.1301V6.13108ZM22.3691 3.65986C22.0199 3.65594 21.7254 3.94748 21.7186 4.30163C21.7117 4.65676 21.9935 4.95808 22.3427 4.97177C22.7008 4.98547 23.0158 4.67535 23.0129 4.31043C23.0099 3.95628 22.7204 3.66279 22.3691 3.65986Z" fill="#662E93"/>
<path d="M6.22893 20.477C6.25241 16.3612 9.61096 13.033 13.7023 13.0711C17.7897 13.1093 21.1101 16.4512 21.0817 20.5004C21.0533 24.6045 17.7222 27.9249 13.6436 27.9141C9.55813 27.9033 6.20545 24.5409 6.22893 20.4779V20.477ZM13.6719 14.2285C10.2645 14.1991 7.42541 17.0118 7.39704 20.4457C7.36866 23.8893 10.1481 26.7 13.6211 26.7401C17.0393 26.7793 19.8725 23.992 19.9136 20.5494C19.9547 17.0988 17.1498 14.2588 13.6719 14.2285Z" fill="#662E93"/>
<path d="M18.5792 20.2567C18.5792 20.3506 18.587 20.4446 18.5772 20.5375C18.5459 20.8388 18.3072 21.0726 18.0176 21.0609C17.7182 21.0492 17.503 20.9005 17.4512 20.5884C17.3974 20.2655 17.3866 19.9339 17.3132 19.6169C16.9356 17.987 15.52 16.815 13.8461 16.7299C13.7756 16.726 13.7052 16.725 13.6357 16.7133C13.2571 16.6487 13.0546 16.409 13.0889 16.0686C13.1202 15.7584 13.3667 15.5442 13.7306 15.553C14.4898 15.5706 15.2177 15.735 15.8898 16.095C17.5509 16.9852 18.4256 18.3891 18.5782 20.2567H18.5792Z" fill="#662E93"/>
</g>
<defs>
<clipPath id="clip0_496_63">
<rect width="27.3087" height="36" fill="white"/>
</clipPath>
</defs>
</svg>
