<svg width="26" height="36" viewBox="0 0 26 36" fill="none" xmlns="http://www.w3.org/2000/svg">
<g clip-path="url(#clip0_494_33)">
<path d="M2.82214 35.9998C2.48489 35.8158 2.37482 35.5288 2.39243 35.1528C2.41445 34.6966 2.38979 34.2388 2.40124 33.7826C2.40652 33.5977 2.34048 33.5229 2.16526 33.4656C0.794255 33.021 0.00617113 31.9661 0.00529059 30.5246C7.35251e-06 21.375 -0.00263427 12.2253 0.00617113 3.07645C0.00793221 1.296 1.29264 0.0112922 3.07045 0.00777008C9.42003 -0.0027964 15.7696 -0.00367694 22.1192 0.00777008C23.9357 0.0112922 25.1852 1.32242 25.1861 3.18124C25.1896 9.89359 25.1879 16.6068 25.1879 23.3192C25.1879 25.6623 25.1553 28.0054 25.1993 30.3477C25.2292 31.9511 24.2193 33.1715 22.9944 33.4877C22.9073 33.5106 22.806 33.6779 22.8016 33.7818C22.7805 34.2379 22.7761 34.6958 22.7972 35.1519C22.8148 35.5279 22.7047 35.8149 22.3675 35.999H19.6255C19.305 35.8237 19.1773 35.5596 19.1931 35.1897C19.2152 34.6685 19.1984 34.1454 19.1984 33.6268H5.9912C5.9912 34.163 5.97447 34.6773 5.99649 35.1897C6.01322 35.5596 5.88378 35.8229 5.56414 35.999H2.82214V35.9998ZM23.9894 16.8005C23.9894 12.2904 23.9894 7.7803 23.9877 3.27017C23.9877 3.04916 23.9868 2.8211 23.9375 2.60712C23.7332 1.71514 23.0244 1.2009 22.0135 1.2009C15.7696 1.20002 9.52569 1.2009 3.28178 1.2009C1.90638 1.2009 1.20106 1.90269 1.20106 3.27105C1.20106 12.2913 1.20106 21.3116 1.20106 30.3327C1.20106 31.6993 1.9099 32.4055 3.28266 32.4055C9.49135 32.4055 15.7 32.4055 21.9096 32.4055C23.2815 32.4055 23.9894 31.6984 23.9903 30.3309C23.9903 25.8208 23.9903 21.3107 23.9903 16.8005H23.9894ZM3.61198 34.7777H4.76461V33.6241H3.61198V34.7777ZM21.5697 34.7865V33.6338H20.4162V34.7865H21.5697Z" fill="#B07FD8"/>
<path d="M2.39771 16.8094C2.39771 12.2992 2.39771 7.78998 2.39771 3.27986C2.39771 2.58511 2.57998 2.39844 3.26592 2.39844C9.48605 2.39844 15.7053 2.39844 21.9254 2.39844C22.5991 2.39844 22.791 2.58687 22.791 3.24728C22.791 12.2781 22.791 21.3098 22.791 30.3406C22.791 31.0107 22.6017 31.2053 21.9404 31.2053C15.7088 31.2053 9.47725 31.2053 3.24567 31.2053C2.58614 31.2053 2.39771 31.0107 2.39771 30.338C2.39771 25.8278 2.39771 21.3186 2.39771 16.8085V16.8094ZM3.61813 3.61358V29.984H11.9648V3.6127H3.61813V3.61358ZM21.5759 29.9849V3.62679H13.2195V29.9849H21.5759Z" fill="#662E93"/>
<path d="M8.97357 15.6094C9.96682 15.6015 10.7672 16.3825 10.7831 17.374C10.7989 18.3787 9.99676 19.1976 8.99647 19.1976C8.01643 19.1976 7.20281 18.3946 7.19224 17.4145C7.18167 16.4433 7.99705 15.6174 8.97357 15.6094ZM9.58203 17.4101C9.58555 17.0782 9.31346 16.8043 8.9859 16.8096C8.67507 16.8149 8.40562 17.0843 8.40122 17.3943C8.39682 17.7007 8.66274 17.9825 8.97005 17.9966C9.29585 18.0107 9.57938 17.7403 9.58291 17.4101H9.58203Z" fill="#B07FD8"/>
<path d="M16.1984 15.6093C17.1794 15.611 17.9912 16.4194 17.9965 17.3968C18.0009 18.3689 17.1846 19.1913 16.209 19.1966C15.2061 19.2019 14.3977 18.3927 14.4048 17.3889C14.4118 16.3974 15.2087 15.6075 16.1984 15.6084V15.6093ZM16.209 17.9973C16.5154 17.9885 16.7884 17.7102 16.7893 17.4047C16.791 17.0815 16.5031 16.8007 16.1782 16.8103C15.8471 16.8191 15.5917 17.0992 15.6085 17.4355C15.6243 17.7525 15.8955 18.007 16.2081 17.9982L16.209 17.9973Z" fill="#B07FD8"/>
</g>
<defs>
<clipPath id="clip0_494_33">
<rect width="25.1993" height="36" fill="white"/>
</clipPath>
</defs>
</svg>
