<svg width="23" height="36" viewBox="0 0 23 36" fill="none" xmlns="http://www.w3.org/2000/svg">
<g clip-path="url(#clip0_494_38)">
<path d="M14.2168 30.0241H8.25022C8.25022 31.1729 8.2549 32.2972 8.24671 33.4202C8.24436 33.7106 8.23148 34.0093 8.1659 34.2903C7.92583 35.3302 6.89646 36.0774 5.8542 35.9919C4.71006 35.8982 3.80014 35.0059 3.76852 33.8816C3.73573 32.7258 3.7451 31.5688 3.76149 30.4129C3.76618 30.0815 3.66429 29.9796 3.33756 29.9925C2.76725 30.0159 2.19576 30.0065 1.62545 29.996C0.592564 29.9773 0.00117107 29.3753 0 28.3413C0 19.4552 0 10.569 0 1.6841C0 0.605543 0.605445 0.00126833 1.6922 0.00126833C8.05933 -0.00107382 14.4265 -0.00107382 20.7924 0.00126833C21.8804 0.00126833 22.487 0.603201 22.487 1.67942C22.4881 10.5655 22.4881 19.4505 22.487 28.3366C22.487 29.3718 21.8956 29.9761 20.8639 29.9948C20.2935 30.0054 19.7221 30.0136 19.1517 29.9913C18.8297 29.9784 18.7196 30.0733 18.7255 30.4082C18.743 31.55 18.7489 32.6918 18.722 33.8336C18.695 34.959 17.8612 35.8315 16.7229 35.9825C15.7287 36.1149 14.6935 35.4567 14.3714 34.459C14.2836 34.1861 14.2473 33.8863 14.2438 33.5982C14.2286 32.5302 14.2379 31.461 14.2368 30.3918C14.2368 30.2782 14.225 30.1635 14.2168 30.0229V30.0241ZM1.53294 1.51313V20.2269H20.9564V1.51313H1.53294ZM1.51888 28.4572H20.9564V21.7809H1.51888V28.4572ZM5.26632 30.0171C5.26632 31.3193 5.25929 32.5864 5.27569 33.8535C5.27803 33.994 5.37406 34.2084 5.48648 34.2587C5.71953 34.3653 6.00527 34.466 6.243 34.4227C6.61891 34.3536 6.75124 34.0175 6.75241 33.6509C6.75593 32.6719 6.75359 31.6929 6.75359 30.715C6.75359 30.4879 6.75359 30.2618 6.75359 30.0171H5.26632ZM15.7357 30.0171C15.7357 31.2455 15.731 32.426 15.7381 33.6064C15.7416 34.1486 16.0507 34.5 16.4969 34.4953C16.9443 34.4906 17.23 34.1475 17.2324 33.5935C17.237 32.5126 17.2347 31.4317 17.2324 30.3508C17.2324 30.2408 17.2078 30.1307 17.1949 30.0182H15.7357V30.0171Z" fill="#B07FD8"/>
<path d="M11.1767 9.74806C11.6897 9.74806 12.137 9.74221 12.5844 9.74806C13.3959 9.75978 13.7109 10.3055 13.3093 11.0163C12.52 12.4169 11.7236 13.814 10.9261 15.2111C10.6357 15.7205 10.2106 15.8763 9.80892 15.6362C9.42012 15.4032 9.344 14.9757 9.6192 14.4862C10.2129 13.4311 10.8125 12.3795 11.4554 11.2447C10.8957 11.2447 10.4085 11.2353 9.92134 11.2482C9.57704 11.2564 9.27374 11.1897 9.09339 10.8688C8.90368 10.5315 9.01376 10.2282 9.21518 9.92841C10.1532 8.53249 11.0819 7.12954 12.0176 5.73245C12.3443 5.24528 12.7788 5.11647 13.1617 5.3823C13.5388 5.64462 13.5774 6.09431 13.2554 6.58148C12.6499 7.49609 12.0398 8.40836 11.4332 9.32179C11.3547 9.44007 11.2868 9.56421 11.1767 9.74689V9.74806Z" fill="#662E93"/>
<path d="M7.4855 24.759C7.48081 25.998 6.49594 26.9817 5.25577 26.9864C4.00741 26.9911 2.9874 25.9734 2.99677 24.7333C3.00614 23.5154 4.02146 22.5012 5.2382 22.4942C6.4772 22.4872 7.49018 23.5083 7.4855 24.7602V24.759ZM5.98418 24.752C5.98652 24.3374 5.64808 23.9932 5.24055 23.9967C4.83887 24.0002 4.48755 24.362 4.49691 24.7625C4.50628 25.1549 4.83301 25.4769 5.22884 25.4851C5.65511 25.4933 5.98067 25.1771 5.98301 24.7532L5.98418 24.752Z" fill="#662E93"/>
<path d="M17.2546 26.9876C16.0156 26.9946 15.0167 26.0156 15.0038 24.7813C14.9909 23.5259 15.9863 22.5024 17.23 22.4942C18.4608 22.4871 19.4984 23.5236 19.4937 24.7555C19.4879 25.9805 18.4854 26.9806 17.2558 26.9876H17.2546ZM17.2312 23.9978C16.8225 24.0037 16.4946 24.3527 16.504 24.7684C16.5145 25.1923 16.8459 25.5003 17.2734 25.4839C17.6692 25.4687 17.9912 25.1385 17.9901 24.7473C17.9901 24.3468 17.6305 23.992 17.23 23.999L17.2312 23.9978Z" fill="#662E93"/>
<path d="M11.2259 25.4873C10.7434 25.4873 10.2598 25.4978 9.7773 25.485C9.31707 25.4721 9.00907 25.1723 8.99971 24.7612C8.99151 24.3514 9.29365 24.0106 9.74685 24.0012C10.7411 23.9801 11.7377 23.9813 12.7319 24.0012C13.1886 24.0106 13.4908 24.3443 13.4873 24.7542C13.4837 25.1664 13.1758 25.4721 12.7179 25.4861C12.2202 25.5002 11.7225 25.4896 11.2247 25.4896L11.2259 25.4873Z" fill="#B07FD8"/>
</g>
<defs>
<clipPath id="clip0_494_38">
<rect width="22.4881" height="36" fill="white"/>
</clipPath>
</defs>
</svg>
