<svg width="21" height="16" viewBox="0 0 21 16" fill="none" xmlns="http://www.w3.org/2000/svg">
<path d="M7.52727 16C7.23016 15.8514 6.90483 15.7395 6.64062 15.5459C6.16204 15.1951 5.95895 15.1698 5.47566 15.5214C4.79587 16.0188 4.18753 16.0122 3.51525 15.5007C3.03479 15.135 2.87307 15.1378 2.40483 15.5205C1.63101 16.1533 0.687944 16.031 0.0984113 15.197C0.0109687 15.0739 0.0485784 14.8632 0.0278931 14.6931C0.21504 14.6689 0.403373 14.6551 0.592039 14.6517C0.645633 14.6517 0.695466 14.7542 0.75094 14.8068C1.24739 15.2769 1.46458 15.2901 1.993 14.8623C2.62484 14.3527 3.2896 14.3517 3.94683 14.8623C4.3831 15.1989 4.64355 15.1989 5.07512 14.8623C5.70696 14.3715 6.32564 14.3771 6.98287 14.8792C7.52445 15.2948 7.7125 15.2647 8.24656 14.8275C8.39794 14.7034 8.74489 14.6225 8.87276 14.71C9.13039 14.8867 8.98653 15.1444 8.7966 15.3465C8.46668 15.711 8.0156 15.9432 7.52727 16Z" fill="#662E93"/>
<path d="M7.52727 11.1108C7.23016 10.9623 6.90483 10.8504 6.64062 10.6567C6.16204 10.306 5.95895 10.2806 5.47566 10.6322C4.79587 11.1296 4.18753 11.1231 3.51525 10.6116C3.03479 10.2458 2.87307 10.2486 2.40483 10.6313C1.63101 11.2641 0.687944 11.1419 0.0984113 10.3079C0.0109687 10.1847 0.0485784 9.97408 0.0278931 9.80389C0.21504 9.77976 0.403373 9.76595 0.592039 9.76252C0.645633 9.76252 0.695466 9.86501 0.75094 9.91766C1.24739 10.3878 1.46458 10.4009 1.993 9.97314C2.62484 9.46353 3.2896 9.46259 3.94683 9.97314C4.3831 10.3097 4.64355 10.3097 5.07512 9.97314C5.70696 9.48233 6.32564 9.48797 6.98287 9.99006C7.52445 10.4056 7.7125 10.3756 8.24656 9.93835C8.39794 9.81424 8.74489 9.73337 8.87276 9.82082C9.13039 9.99758 8.98653 10.2552 8.7966 10.4574C8.46668 10.8218 8.0156 11.0541 7.52727 11.1108Z" fill="#662E93"/>
<path d="M7.54418 13.5672C7.24236 13.4299 6.91327 13.3311 6.6453 13.145C6.14321 12.7971 5.94106 12.7689 5.45966 13.1346C4.82499 13.6132 4.1358 13.5897 3.50583 13.0688C3.14948 12.7736 2.7715 12.7783 2.42079 13.0848C1.66108 13.7477 0.584497 13.5794 0.0701842 12.7087C0.00906839 12.6043 0.0306936 12.453 0.0147095 12.3232C0.150104 12.342 0.311826 12.3232 0.418074 12.3871C0.994443 12.7473 1.51346 12.8657 2.11051 12.3571C2.67466 11.8804 3.36292 11.9584 3.95621 12.4248C4.36239 12.7444 4.66139 12.7454 5.06099 12.4248C5.65899 11.9546 6.29647 11.9321 6.91327 12.3712C7.58367 12.8479 7.68803 12.8516 8.27004 12.3439C8.4675 12.1718 8.65837 12.0618 8.87838 12.2677C9.12755 12.5037 8.97241 12.7219 8.80222 12.9127C8.4233 13.334 8.09046 13.4816 7.54418 13.5672Z" fill="#662E93"/>
<path d="M7.54418 8.67775C7.24236 8.54047 6.91327 8.44175 6.6453 8.25558C6.14321 7.90769 5.94106 7.87948 5.45966 8.24523C4.82499 8.72382 4.1358 8.70031 3.50583 8.17942C3.14948 7.88418 2.7715 7.88888 2.42079 8.1954C1.66108 8.85827 0.584497 8.68997 0.0701842 7.8193C0.00906839 7.71494 0.0306936 7.56356 0.0147095 7.43381C0.150104 7.45261 0.311826 7.4338 0.418074 7.49774C0.994443 7.85785 1.51346 7.97633 2.11051 7.46765C2.67466 6.99095 3.36292 7.06899 3.95621 7.53535C4.36239 7.85503 4.66139 7.85597 5.06099 7.53535C5.65899 7.06523 6.29647 7.04266 6.91327 7.48176C7.58367 7.95846 7.68803 7.96222 8.27004 7.45449C8.4675 7.28243 8.65837 7.17242 8.87838 7.37833C9.12755 7.61433 8.97241 7.83247 8.80222 8.02334C8.4233 8.44457 8.09046 8.59218 7.54418 8.67775Z" fill="#B07FD8"/>
<path d="M7.54418 6.23317C7.24236 6.09589 6.91327 5.99716 6.6453 5.811C6.14321 5.46311 5.94106 5.4349 5.45966 5.80065C4.82499 6.27924 4.1358 6.25573 3.50583 5.73484C3.14948 5.4396 2.7715 5.4443 2.42079 5.75082C1.66108 6.41369 0.584497 6.24539 0.0701842 5.37472C0.00906839 5.27036 0.0306936 5.11898 0.0147095 4.98923C0.150104 5.00803 0.311826 4.98922 0.418074 5.05316C0.994443 5.41327 1.51346 5.53175 2.11051 5.02307C2.67466 4.54637 3.36292 4.62441 3.95621 5.09077C4.36239 5.41045 4.66139 5.41139 5.06099 5.09077C5.65899 4.62065 6.29647 4.59808 6.91327 5.03718C7.58367 5.51388 7.68803 5.51764 8.27004 5.00991C8.4675 4.83785 8.65837 4.72784 8.87838 4.93375C9.12755 5.16975 8.97241 5.38789 8.80222 5.57876C8.4233 5.99999 8.09046 6.1476 7.54418 6.23317Z" fill="#B07FD8"/>
<path d="M7.42006 1.46776C7.25928 1.39442 6.92173 1.29946 6.65564 1.10671C6.14039 0.730612 5.96833 0.704286 5.4653 1.0785C4.83721 1.54862 4.16212 1.53264 3.53592 1.04277C3.08836 0.693003 2.83544 0.707106 2.37754 1.0832C1.65543 1.67462 0.694502 1.5947 0.0382123 0.665735C-0.0341864 0.564189 0.00812426 0.235103 0.0673596 0.215358C0.251242 0.156578 0.449256 0.15922 0.631505 0.222881C0.778183 0.275535 0.877849 0.449481 1.0076 0.555728C1.28027 0.772924 1.54918 0.743775 1.82091 0.535981C2.72543 -0.151337 3.18051 -0.172023 4.0775 0.476745C4.39248 0.705224 4.66327 0.72873 4.95286 0.476745C5.58753 -0.0874007 6.4093 -0.146634 7.14081 0.507775C7.46895 0.801131 7.783 0.781384 8.08105 0.465463C8.15627 0.387423 8.23055 0.277415 8.32364 0.254849C8.50758 0.21975 8.69402 0.199315 8.8812 0.193734C8.88778 0.381783 8.96864 0.61026 8.88684 0.738133C8.59348 1.18851 8.15251 1.43956 7.42006 1.46776Z" fill="#B07FD8"/>
<path d="M8.67341 3.24404C8.51075 3.37943 8.3998 3.51483 8.25688 3.5797C8.05456 3.65856 7.84563 3.71929 7.63256 3.76117C7.24612 3.85519 6.93584 3.70758 6.6406 3.47158C6.16014 3.08702 5.95046 3.09078 5.46154 3.45277C4.82405 3.92289 4.13955 3.90033 3.50207 3.38037C3.15606 3.0983 2.77056 3.10864 2.41515 3.41328C2.24538 3.56308 2.04492 3.67395 1.82781 3.73813C1.61069 3.80232 1.38217 3.81826 1.15824 3.78485C0.934316 3.75144 0.720401 3.66949 0.531476 3.54472C0.342552 3.41995 0.183186 3.2554 0.0645396 3.06257C-0.0106799 2.94316 -0.00221775 2.66767 0.0842846 2.57835C0.170787 2.48902 0.415251 2.51159 0.570391 2.55578C0.690742 2.59057 0.775364 2.74383 0.885372 2.82845C1.22104 3.09266 1.54354 3.11052 1.89519 2.82845C2.66525 2.19755 3.23692 2.19755 4.00134 2.79178C4.33324 3.04941 4.66609 3.07385 5.00646 2.79648C5.71352 2.22387 6.29177 2.22481 7.02892 2.80588C7.35895 3.06633 7.68709 3.13497 8.05191 2.88016C8.16286 2.80306 8.37253 2.6987 8.428 2.74289C8.53801 2.82845 8.56998 3.00992 8.67341 3.24404Z" fill="#B07FD8"/>
<path d="M15.3256 2.29837C15.5353 1.71166 15.8164 1.45779 16.374 1.51138C16.9316 1.56498 17.5023 1.52172 18.0664 1.52643C18.4341 1.52643 18.6202 1.6637 18.6127 2.09057C18.5883 3.50094 18.5995 4.90566 18.6127 6.31321C18.6127 6.59528 18.5704 6.84068 18.2366 6.83128C17.9028 6.82188 17.8605 6.56613 17.8605 6.29252C17.8605 5.10405 17.8521 3.91559 17.868 2.72712C17.868 2.39803 17.7646 2.28708 17.4383 2.29555C16.7492 2.31153 16.0665 2.29837 15.3256 2.29837Z" fill="#662E93"/>
<rect x="9.99015" y="0.4" width="9.82475" height="15.0901" rx="0.6" stroke="#B07FD8" stroke-width="0.8"/>
</svg>
