<svg width="42" height="36" viewBox="0 0 42 36" fill="none" xmlns="http://www.w3.org/2000/svg">
<path d="M0 19.8034C0.179395 19.2847 0.289076 18.727 0.551197 18.2539C1.42121 16.683 2.79781 15.8372 4.58804 15.8902C5.55379 15.9199 6.20073 15.5862 6.87741 14.9421C10.3956 11.5958 13.9575 8.28773 17.5119 4.97497C17.7275 4.7742 17.7824 4.62826 17.6745 4.32989C17.1866 2.9756 17.6866 1.47166 18.8736 0.59607C19.9444 -0.19308 21.584 -0.199586 22.6678 0.582128C23.8492 1.43355 24.3577 2.90589 23.8957 4.26948C23.7805 4.60782 23.8465 4.78814 24.0984 5.02238C27.8783 8.54396 31.6583 12.0705 35.4383 15.602C35.6198 15.7471 35.8406 15.8345 36.0722 15.853C36.7229 15.9218 37.4042 15.866 38.0419 16.0017C39.9752 16.4144 41.4308 18.1349 41.4513 20.1064C41.4903 24.0196 41.4968 27.9337 41.4513 31.847C41.4253 34.0499 39.5114 35.895 37.3001 35.9926C37.1523 35.9991 37.0036 36 36.8549 36C26.1395 36 15.4236 36 4.70702 36C2.7281 36 1.2632 35.1337 0.395969 33.3398C0.210068 32.9577 0.132919 32.5246 0.0055768 32.1147L0 19.8034ZM20.754 17.3606C15.4372 17.3606 10.1201 17.3606 4.80275 17.3606C4.46615 17.3496 4.12939 17.3767 3.79889 17.4415C2.34886 17.7808 1.4807 18.9389 1.47513 20.5349C1.46955 24.1246 1.46955 27.7144 1.47513 31.3041C1.47079 31.6276 1.50796 31.9503 1.58574 32.2643C1.9752 33.7106 3.11013 34.5174 4.7349 34.5174C15.3932 34.5174 26.0543 34.5174 36.7182 34.5174C37.0548 34.5245 37.3909 34.4885 37.7184 34.4105C39.1424 34.0387 39.978 32.9066 39.9817 31.3497C39.9892 27.7339 39.9966 24.1163 39.9697 20.5005C39.9671 19.9897 39.8559 19.4852 39.6434 19.0207C39.0792 17.844 38.0698 17.356 36.7805 17.3578C31.4408 17.3653 26.0986 17.3662 20.754 17.3606ZM33.4929 15.8344L22.8259 5.85242C21.4372 6.79215 20.0922 6.78193 18.7295 5.85707L8.06904 15.8344H33.4929ZM20.7902 5.0735C21.1452 5.06909 21.491 4.95966 21.7839 4.75902C22.0768 4.55837 22.3037 4.2755 22.436 3.94606C22.5683 3.61663 22.6002 3.25538 22.5275 2.90788C22.4548 2.56038 22.2808 2.24219 22.0275 1.99342C21.7742 1.74466 21.453 1.57646 21.1042 1.51005C20.7555 1.44363 20.3948 1.48197 20.0678 1.62022C19.7408 1.75848 19.4621 1.99047 19.2668 2.28693C19.0715 2.58338 18.9683 2.93104 18.9703 3.28606C18.9759 3.76401 19.1705 4.2203 19.5115 4.55522C19.8525 4.89015 20.3123 5.07648 20.7902 5.0735Z" fill="#B07FD8"/>
<path d="M22.3386 25.3877C22.3386 26.6799 22.3386 27.9687 22.3386 29.254C22.3386 29.7863 22.1584 29.9879 21.6951 29.9996C21.2113 30.0112 21.0021 29.7928 21.0009 29.2488C21.0009 27.1175 21.0009 24.9863 21.0009 22.855C21.0009 22.5255 20.9646 22.1675 21.3637 22.0603C21.7629 21.953 22.1439 21.9569 22.4172 22.3407C22.5671 22.5643 22.6994 22.8007 22.8128 23.0475C23.3559 24.1575 23.8929 25.2714 24.4336 26.384C24.4747 26.4667 24.5279 26.5429 24.6537 26.7523C24.6537 25.3192 24.6537 24.0387 24.6537 22.7581C24.6537 22.1727 24.8448 21.9828 25.3795 22.0086C25.8101 22.0306 26.0036 22.2477 25.9999 22.7271C25.9879 24.876 25.9927 27.0249 25.9999 29.1738C25.9999 29.5176 25.9927 29.8471 25.6093 29.9492C25.2029 30.0629 24.8255 29.9983 24.592 29.5886C24.3344 29.1338 24.1082 28.6557 23.8772 28.1866L22.4487 25.3438L22.3386 25.3877Z" fill="#662E93"/>
<path d="M12.6402 26.4899C13.0507 27.2867 13.4477 28.0514 13.8409 28.8174C14.1097 29.3392 14.0431 29.6297 13.6018 29.8816C13.1851 30.1207 12.8917 30.0037 12.6254 29.4755C12.268 28.766 11.9179 28.0514 11.5665 27.3381C11.2152 26.6248 11.2078 26.6132 10.3597 26.7263C10.3597 27.5502 10.3597 28.383 10.3597 29.2159C10.3597 29.7518 10.1834 29.9485 9.71005 29.96C9.21696 29.9716 9 29.7557 9 29.2172C9 27.0477 9 24.8773 9 22.7061C9 22.1393 9.12327 22.0005 9.66197 22.0005C10.4485 22.0005 11.2374 21.9915 12.0202 22.0493C13.1087 22.1303 13.7349 22.7112 13.9309 23.706C14.1269 24.7008 13.8163 26.0079 12.7993 26.3716C12.7422 26.4047 12.6888 26.4444 12.6402 26.4899ZM10.3942 23.2922V25.5568C10.764 25.5568 11.1117 25.5568 11.4531 25.5568C11.5678 25.557 11.6823 25.5489 11.7958 25.5324C12.3419 25.4411 12.607 25.0889 12.6205 24.4438C12.6341 23.7986 12.374 23.3603 11.8673 23.3037C11.3878 23.2562 10.8972 23.2973 10.3942 23.2973V23.2922Z" fill="#662E93"/>
<path d="M16.4646 23.2418V25.4355C16.9389 25.4355 17.4002 25.4471 17.8615 25.4355C18.2706 25.4226 18.5482 25.5452 18.5456 25.9994C18.543 26.4537 18.2342 26.5595 17.8432 26.5556C17.3963 26.5556 16.9507 26.5556 16.4724 26.5556V28.7493C17.4002 28.7493 18.3123 28.7493 19.2258 28.7493C19.8017 28.7493 20.0076 28.9248 19.9998 29.3945C19.9868 29.8991 19.6805 30.0062 19.2323 29.9997C18.0895 29.983 16.9454 29.9997 15.8014 29.992C15.1316 29.992 15 29.8629 15 29.2177C15 27.0722 15 24.9267 15 22.7811C15 22.1656 15.1303 22.0069 15.748 22.0069C16.9611 21.9914 18.1742 22.0069 19.3874 22.0069C19.7939 22.0069 19.9933 22.2185 19.9985 22.6121C20.0037 23.0057 19.8213 23.2573 19.3782 23.2573C18.4257 23.2405 17.4745 23.2418 16.4646 23.2418Z" fill="#662E93"/>
<path d="M29.2188 23.2907C28.6469 23.2907 28.1623 23.283 27.6777 23.2907C27.1931 23.2985 27.0043 23.052 27.0001 22.6454C26.9958 22.2388 27.186 22 27.6678 22C29.223 22 30.7787 22 32.3349 22C32.8139 22 33.0069 22.2465 32.9998 22.6544C32.9928 23.0623 32.7885 23.2998 32.311 23.2907C31.8334 23.2817 31.3389 23.2907 30.7698 23.2907V23.8677C30.7698 25.6541 30.7698 27.44 30.7698 29.2256C30.7698 29.7948 30.5641 30 30.0021 30C29.44 30 29.223 29.7948 29.2216 29.2256C29.2216 27.4745 29.2216 25.7229 29.2216 23.971L29.2188 23.2907Z" fill="#662E93"/>
</svg>
