<svg width="36" height="36" viewBox="0 0 36 36" fill="none" xmlns="http://www.w3.org/2000/svg">
<path d="M7.94552 0C8.37678 0.1875 8.46772 0.533438 8.46772 0.970313C8.46022 8.71531 8.45835 16.4597 8.4621 24.2034V24.7031H9.96213C10.1375 24.7031 10.3137 24.6984 10.489 24.7031C11.0253 24.7247 11.2831 24.9788 11.2934 25.5131C11.3037 26.0475 11.2934 26.5678 11.2934 27.0947V27.5372H11.795C19.5402 27.5372 27.2848 27.5353 35.0287 27.5316C35.4665 27.5316 35.8144 27.6206 36 28.0528V36H0V0H7.94552ZM7.03143 22.5778C6.65642 22.5778 6.28141 22.6209 5.93453 22.5628C5.70671 22.5253 5.43108 22.3922 5.30451 22.2122C4.99794 21.7734 5.35045 21.2091 5.92515 21.1809C6.2936 21.1612 6.66486 21.1809 7.03237 21.1809V19.0547H6.67517C6.10047 19.0547 5.52671 19.0622 4.95294 19.0547C4.85908 19.0588 4.76536 19.044 4.67736 19.0111C4.58937 18.9781 4.5089 18.9278 4.44077 18.8632C4.37264 18.7985 4.31824 18.7207 4.28082 18.6346C4.2434 18.5484 4.22373 18.4556 4.22297 18.3616C4.22221 18.2677 4.24039 18.1745 4.27642 18.0878C4.31245 18.001 4.36559 17.9224 4.43267 17.8566C4.49975 17.7908 4.5794 17.7393 4.66685 17.7049C4.75431 17.6706 4.84778 17.6543 4.94169 17.6569C5.28108 17.6428 5.6214 17.6522 5.96078 17.6522H7.03706V15.5794C6.99862 15.5597 6.97799 15.54 6.95831 15.54C6.65361 15.5353 6.34892 15.5344 6.04422 15.5297C5.53514 15.5231 5.21076 15.2484 5.20607 14.8303C5.20139 14.4122 5.51452 14.13 6.03016 14.1244C6.36485 14.1244 6.69861 14.1244 7.03425 14.1244V12.0188C6.90112 12.0122 6.78674 12.0009 6.6733 12.0009C6.15766 12.0009 5.64202 12.0056 5.12638 11.9962C4.96304 11.9988 4.80045 11.9737 4.64543 11.9222C4.50412 11.8606 4.38787 11.7528 4.31567 11.6166C4.24347 11.4804 4.21959 11.3237 4.24792 11.1722C4.27079 11.0133 4.35042 10.868 4.47209 10.7632C4.59376 10.6584 4.74925 10.6012 4.90981 10.6022C5.60921 10.5872 6.30954 10.6022 7.03237 10.6022V8.45063C6.61798 8.45063 6.22141 8.46656 5.82671 8.44594C5.67271 8.43683 5.52685 8.37376 5.41472 8.26781C5.30259 8.16186 5.23138 8.0198 5.21357 7.86656C5.17326 7.54219 5.30076 7.28063 5.59702 7.14563C5.76076 7.08504 5.93435 7.05547 6.10891 7.05844C6.41923 7.04531 6.72955 7.05844 7.03143 7.05844V4.93031C6.88143 4.93031 6.7558 4.93031 6.62924 4.93031C6.05547 4.93031 5.48077 4.94531 4.907 4.92281C4.78254 4.92073 4.66099 4.88479 4.55541 4.81885C4.44983 4.75291 4.36421 4.65945 4.30773 4.54853C4.25126 4.4376 4.22606 4.31338 4.23484 4.18921C4.24363 4.06505 4.28607 3.94562 4.35761 3.84375C4.52355 3.59531 4.772 3.51844 5.05794 3.52031C5.71421 3.52031 6.36392 3.52031 7.03331 3.52031V1.42031H1.43347V24.6703H7.03143V22.5778ZM11.3234 28.9688V34.5759H34.574V28.9688H32.4758C32.4758 29.1216 32.4758 29.25 32.4758 29.3756C32.4758 29.8444 32.488 30.3131 32.4702 30.7819C32.4712 30.8762 32.4533 30.9698 32.4175 31.057C32.3817 31.1443 32.3288 31.2235 32.2618 31.29C32.1948 31.3564 32.1152 31.4087 32.0277 31.4438C31.9401 31.479 31.8464 31.4961 31.7521 31.4944C31.3602 31.485 31.0855 31.1878 31.0714 30.7509C31.0667 30.5991 31.0714 30.4463 31.0714 30.2944V28.9744H28.9442C28.9442 29.8931 28.9508 30.7828 28.9442 31.6716C28.9395 32.1591 28.6498 32.4722 28.2392 32.4712C27.8285 32.4703 27.5482 32.1562 27.5435 31.6687C27.537 30.8953 27.5435 30.1219 27.5435 29.3484V28.9734H25.4069V29.4197C25.4069 29.8884 25.4154 30.3572 25.3966 30.8259C25.3918 31.0002 25.3211 31.1662 25.1988 31.2905C25.0765 31.4147 24.9116 31.4879 24.7374 31.4954C24.5632 31.5029 24.3926 31.4441 24.2601 31.3308C24.1275 31.2175 24.0429 31.0582 24.0231 30.885C23.9997 30.5815 23.9922 30.2771 24.0006 29.9728C24.0006 29.6381 24.0006 29.3034 24.0006 28.9763H21.8753C21.8753 29.8753 21.8753 30.7406 21.8753 31.6069C21.8753 32.1478 21.6024 32.475 21.1684 32.4684C20.7343 32.4619 20.4727 32.1253 20.4699 31.59C20.4699 31.1091 20.4699 30.6291 20.4699 30.1481V28.9622H18.3511C18.3511 29.0916 18.3511 29.205 18.3511 29.3184C18.3511 29.8106 18.3595 30.3037 18.3464 30.795C18.3489 30.9553 18.2953 31.1114 18.1951 31.2365C18.0948 31.3616 17.954 31.4478 17.797 31.4803C17.6534 31.5191 17.5007 31.5069 17.365 31.4459C17.2293 31.3849 17.119 31.2788 17.0526 31.1456C16.9807 30.9874 16.9455 30.815 16.9495 30.6413C16.9373 30.0788 16.9495 29.5247 16.9495 28.9763H14.8251C14.8251 29.9081 14.8326 30.8091 14.8251 31.71C14.8194 32.1619 14.5119 32.4741 14.1154 32.4712C13.7188 32.4684 13.4282 32.1544 13.4244 31.7006C13.4188 30.9159 13.4244 30.1303 13.4244 29.3456V28.9688H11.3234ZM1.42504 34.5722H9.88807V34.2066C9.88807 31.6406 9.88151 29.0756 9.89557 26.5097C9.89557 26.1834 9.80182 26.1009 9.48306 26.1019C6.91799 26.115 4.35199 26.1094 1.78598 26.1103C1.67161 26.1103 1.55723 26.1197 1.42504 26.1253V34.5722Z" fill="#B07FD8"/>
<path d="M33.2587 13.5265C33.2587 15.4605 33.2512 17.3936 33.2643 19.3277C33.2643 19.7552 33.105 20.028 32.7271 20.223C29.4177 21.928 26.1117 23.6365 22.8091 25.3483C22.6546 25.4408 22.4782 25.4903 22.2982 25.4916C22.1182 25.4929 21.9411 25.446 21.7853 25.3558C18.4727 23.6315 15.1567 21.9165 11.8372 20.2108C11.4688 20.0233 11.315 19.7561 11.316 19.3446C11.3235 15.454 11.3235 11.5633 11.316 7.67271C11.316 7.20396 11.5035 6.94052 11.9169 6.75489C15.2189 5.28489 18.5177 3.80646 21.8134 2.31958C21.9647 2.24539 22.1311 2.20721 22.2996 2.20802C22.4681 2.20883 22.6341 2.24862 22.7847 2.32427C26.0585 3.80114 29.3361 5.26989 32.6174 6.73052C33.075 6.93395 33.2737 7.21896 33.2671 7.72614C33.2475 9.65552 33.2587 11.5933 33.2587 13.5265ZM21.5687 23.6515C21.579 23.5493 21.5856 23.5146 21.5856 23.4799C21.5856 20.1424 21.5856 16.8049 21.5931 13.4665C21.5931 13.2208 21.4647 13.1524 21.2921 13.0633C18.549 11.6471 15.8064 10.2299 13.0644 8.81177C12.9651 8.76021 12.861 8.71802 12.7269 8.65802V9.01239C12.7269 12.2571 12.7269 15.5008 12.7204 18.7446C12.7204 19.0061 12.8029 19.1327 13.0297 19.249C15.6429 20.5877 18.2521 21.9333 20.8571 23.2858L21.5687 23.6515ZM22.9928 23.6515C23.1044 23.6027 23.1578 23.583 23.2075 23.5577C26.0126 22.1077 28.8183 20.6593 31.6246 19.2124C31.8374 19.1036 31.8552 18.9658 31.8552 18.768C31.8515 15.5118 31.8515 12.2565 31.8552 9.00208V8.65708C31.708 8.72646 31.604 8.77146 31.5037 8.82396C28.7717 10.2358 26.0426 11.6533 23.3041 13.054C23.05 13.1843 22.99 13.3296 22.99 13.593C22.9981 16.813 23 20.0318 22.9956 23.2493L22.9928 23.6515ZM30.8962 7.53396C30.8024 7.47958 30.7461 7.44021 30.6852 7.41489C27.9551 6.19052 25.2235 4.96864 22.4903 3.74927C22.3538 3.70043 22.204 3.70444 22.0703 3.76052C19.3571 4.96489 16.6467 6.17646 13.9391 7.39521C13.8536 7.43974 13.7704 7.48855 13.6898 7.54146C13.8191 7.61177 13.9101 7.66427 14.0029 7.71208C16.6523 9.08177 19.3037 10.4458 21.9465 11.8258C22.0536 11.8905 22.1766 11.924 22.3017 11.9225C22.4267 11.921 22.5489 11.8846 22.6544 11.8174C25.2888 10.4461 27.9264 9.08052 30.5671 7.72052C30.6655 7.66895 30.7611 7.60989 30.8962 7.53208V7.53396Z" fill="#662E93"/>
</svg>
