<svg width="28" height="16" viewBox="0 0 28 16" fill="none" xmlns="http://www.w3.org/2000/svg">
<path d="M11.9915 7.04757V7.72499H11.4865C9.5474 7.72499 7.60785 7.739 5.66875 7.71698C5.2605 7.71248 4.97828 7.84456 4.74827 8.21379C4.55427 8.52498 4.31751 8.80416 4.04969 9.16438H22.896C22.5202 8.67608 22.2123 8.2328 21.8576 7.84156C21.7536 7.72699 21.5173 7.73149 21.3418 7.73049C19.3874 7.72299 17.433 7.72449 15.4786 7.72399H14.9555V7.02806C15.1018 7.02055 15.249 7.00704 15.3957 7.00704C17.4109 7.00704 19.4261 7.01405 21.4412 7.00004C21.9215 6.99654 22.2429 7.23218 22.5863 7.5864C23.6819 8.7166 24.1671 10.0439 23.9488 11.7155C23.8588 12.4084 23.9398 13.1278 23.9317 13.8353C23.9236 14.5797 23.5586 14.9965 22.8902 14.997C16.6024 15.001 10.3147 15.001 4.02718 14.997C3.38577 14.997 3.00947 14.5757 3.00497 13.8663C2.99657 12.4854 2.99882 11.1044 3.01172 9.72323C3.01957 9.5271 3.08096 9.33828 3.18772 9.18189C3.58832 8.61104 3.98307 8.02818 4.44264 7.51986C4.6677 7.2697 5.02779 7.03506 5.33162 7.02956C7.49757 6.98853 9.66443 7.00804 11.8308 7.01004C11.8852 7.01754 11.939 7.03009 11.9915 7.04757ZM3.65089 9.93686C3.65089 11.2762 3.64774 12.568 3.65314 13.8603C3.65314 14.224 3.87819 14.2841 4.15141 14.2841C10.3612 14.2817 16.5713 14.2817 22.7817 14.2841C23.1544 14.2841 23.2975 14.117 23.2912 13.7102C23.2786 12.8522 23.2876 11.9931 23.2876 11.1346V9.93386L3.65089 9.93686Z" fill="#B07FD8"/>
<path d="M10.0133 13.5605V11.6002C10.0071 11.518 10.0319 11.4364 10.0827 11.3715C10.1054 11.3464 10.1332 11.3266 10.1643 11.3134C10.1954 11.3001 10.229 11.2939 10.2628 11.2951C10.2971 11.2938 10.3312 11.2999 10.3629 11.3129C10.3947 11.3259 10.4233 11.3454 10.4469 11.3703C10.4989 11.4358 10.524 11.5186 10.5169 11.6019V13.5605C10.5236 13.6437 10.4986 13.7264 10.4469 13.792C10.4235 13.8173 10.395 13.8372 10.3632 13.8504C10.3314 13.8636 10.2972 13.8697 10.2628 13.8684C10.2291 13.8693 10.1957 13.8628 10.1648 13.8494C10.1339 13.836 10.1063 13.816 10.0839 13.7909C10.0322 13.7257 10.007 13.6434 10.0133 13.5605Z" fill="#662E93"/>
<path d="M13.0873 12.8553H12.6242V13.5604C12.6307 13.6438 12.6053 13.7266 12.553 13.792C12.5306 13.8173 12.5029 13.8374 12.4719 13.8509C12.4409 13.8644 12.4073 13.871 12.3735 13.8701C12.3395 13.8709 12.3058 13.8643 12.2746 13.8508C12.2435 13.8373 12.2156 13.8172 12.1929 13.792C12.1423 13.7278 12.1175 13.6471 12.1234 13.5656V11.6493C12.1234 11.5382 12.1489 11.4589 12.1998 11.4114C12.2689 11.358 12.3555 11.3326 12.4424 11.3402H13.0885C13.2369 11.3356 13.3852 11.3506 13.5296 11.3848C13.6273 11.4104 13.7175 11.4585 13.7931 11.5254C13.8676 11.5913 13.9255 11.6738 13.9621 11.7663C14.0018 11.8683 14.0215 11.977 14.02 12.0864C14.02 12.34 13.9418 12.532 13.7855 12.6625C13.6292 12.7929 13.3965 12.8572 13.0873 12.8553ZM12.9652 11.7159H12.6259V12.4755H12.9652C13.0657 12.478 13.166 12.4655 13.2627 12.4384C13.3351 12.4185 13.3991 12.3756 13.4451 12.3163C13.4898 12.251 13.512 12.173 13.5082 12.094C13.5122 11.9954 13.4775 11.8992 13.4115 11.8259C13.3394 11.7526 13.1906 11.7159 12.9652 11.7159Z" fill="#662E93"/>
<path d="M17.371 13.0774C17.3731 13.221 17.3328 13.3619 17.2552 13.4827C17.1717 13.6076 17.0536 13.7056 16.9154 13.7646C16.7477 13.8361 16.5667 13.8708 16.3845 13.8665C16.1733 13.8745 15.9637 13.8264 15.7772 13.727C15.6652 13.6615 15.5706 13.57 15.5016 13.4601C15.436 13.3642 15.3992 13.2515 15.3957 13.1353C15.3952 13.1058 15.4008 13.0764 15.412 13.0491C15.4232 13.0218 15.4399 12.997 15.4609 12.9762C15.4819 12.9554 15.5069 12.9391 15.5344 12.9283C15.5619 12.9174 15.5913 12.9122 15.6209 12.913C15.6708 12.9116 15.7192 12.9299 15.7557 12.964C15.7983 13.0065 15.8305 13.0582 15.8501 13.1151C15.8765 13.1848 15.9109 13.2512 15.9526 13.3131C15.9925 13.3692 16.0458 13.4144 16.1077 13.4445C16.19 13.4825 16.2801 13.5003 16.3706 13.4966C16.5001 13.5024 16.6279 13.4658 16.7347 13.3924C16.7776 13.3637 16.8127 13.325 16.8371 13.2796C16.8614 13.2341 16.8742 13.1834 16.8742 13.1318C16.8758 13.095 16.87 13.0583 16.8571 13.0237C16.8441 12.9892 16.8244 12.9577 16.799 12.931C16.744 12.8775 16.6771 12.8378 16.6039 12.8152C16.4989 12.781 16.3922 12.7522 16.2843 12.7289C16.1301 12.6953 15.9798 12.646 15.8356 12.5819C15.7209 12.5321 15.6212 12.4532 15.5462 12.3532C15.4729 12.2475 15.4357 12.121 15.4402 11.9925C15.4382 11.8622 15.4773 11.7346 15.552 11.6278C15.6338 11.5162 15.7465 11.4311 15.8762 11.3829C16.0353 11.3225 16.2045 11.2934 16.3746 11.2972C16.5089 11.2949 16.6426 11.3145 16.7706 11.3551C16.8717 11.3877 16.9657 11.439 17.0479 11.5062C17.1146 11.5602 17.1694 11.6274 17.2089 11.7036C17.2413 11.7661 17.2587 11.8353 17.2598 11.9057C17.2599 11.9658 17.2371 12.0238 17.1961 12.0678C17.1767 12.0908 17.1524 12.1092 17.125 12.1216C17.0975 12.134 17.0676 12.1402 17.0375 12.1396C16.9898 12.1428 16.9427 12.1274 16.9061 12.0967C16.867 12.0544 16.8342 12.0066 16.8088 11.9549C16.7711 11.8708 16.7156 11.796 16.6461 11.7355C16.5825 11.6826 16.4806 11.6561 16.3405 11.6561C16.2293 11.6511 16.1193 11.6811 16.0261 11.7418C15.9905 11.7635 15.9609 11.7936 15.94 11.8296C15.9191 11.8656 15.9075 11.9063 15.9063 11.9479C15.9053 11.9943 15.9198 12.0397 15.9474 12.077C15.9775 12.1158 16.0156 12.1476 16.0591 12.1702C16.1049 12.1956 16.1532 12.2159 16.2033 12.231C16.2519 12.2461 16.3324 12.2675 16.4441 12.2959C16.5729 12.3253 16.7 12.3614 16.825 12.4041C16.9276 12.4388 17.025 12.4873 17.1145 12.5483C17.1931 12.6038 17.2571 12.6775 17.3009 12.7631C17.3489 12.8608 17.3729 12.9686 17.371 13.0774Z" fill="#662E93"/>
<path d="M13.1981 7.16073L11.7507 5.7134C11.7238 5.68652 11.7025 5.65461 11.6879 5.61948C11.6733 5.58435 11.6658 5.54669 11.6658 5.50866C11.6657 5.47062 11.6732 5.43296 11.6877 5.39781C11.7023 5.36266 11.7236 5.33071 11.7505 5.3038C11.7773 5.27689 11.8092 5.25553 11.8444 5.24095C11.8795 5.22637 11.9172 5.21885 11.9552 5.21882C11.9932 5.2188 12.0309 5.22626 12.066 5.24079C12.1012 5.25532 12.1331 5.27664 12.1601 5.30351L13.1124 6.25644V3.48161C13.1124 3.40483 13.1429 3.33121 13.1972 3.27692C13.2515 3.22264 13.3251 3.19214 13.4019 3.19214C13.4786 3.19214 13.5523 3.22264 13.6066 3.27692C13.6608 3.33121 13.6913 3.40483 13.6913 3.48161V6.25702L14.6448 5.30293C14.6992 5.24858 14.7729 5.21804 14.8498 5.21804C14.9266 5.21804 15.0004 5.24858 15.0547 5.30293C15.1091 5.35729 15.1396 5.43101 15.1396 5.50787C15.1396 5.58474 15.1091 5.65846 15.0547 5.71282L13.6074 7.16015C13.5805 7.18711 13.5486 7.2085 13.5134 7.22309C13.4782 7.23768 13.4405 7.24519 13.4024 7.24519C13.3644 7.24519 13.3267 7.23768 13.2915 7.22309C13.2563 7.2085 13.2244 7.18711 13.1975 7.16015L13.1981 7.16073Z" fill="#662E93"/>
<path d="M17.041 3.96801L15.5937 2.52068C15.5668 2.49376 15.5454 2.46181 15.5309 2.42665C15.5163 2.39149 15.5088 2.3538 15.5088 2.31574C15.5088 2.27767 15.5163 2.23999 15.5309 2.20482C15.5454 2.16966 15.5668 2.13771 15.5937 2.11079C15.6206 2.08388 15.6525 2.06253 15.6877 2.04797C15.7229 2.0334 15.7606 2.0259 15.7986 2.0259C15.8367 2.0259 15.8744 2.0334 15.9095 2.04797C15.9447 2.06253 15.9767 2.08388 16.0036 2.11079L16.9571 3.06372V0.289467C16.9571 0.212696 16.9876 0.139068 17.0419 0.0847827C17.0961 0.0304971 17.1698 0 17.2465 0C17.3233 0 17.3969 0.0304971 17.4512 0.0847827C17.5055 0.139068 17.536 0.212696 17.536 0.289467V3.0643L18.4889 2.11021C18.5433 2.05548 18.6172 2.02457 18.6943 2.0243C18.7714 2.02403 18.8455 2.05441 18.9003 2.10877C18.955 2.16312 18.9859 2.23699 18.9862 2.31413C18.9864 2.39127 18.9561 2.46536 18.9017 2.5201L17.4544 3.96743C17.4275 3.99439 17.3955 4.01578 17.3604 4.03037C17.3252 4.04496 17.2875 4.05248 17.2494 4.05248C17.2114 4.05248 17.1737 4.04496 17.1385 4.03037C17.1033 4.01578 17.0714 3.99439 17.0445 3.96743L17.041 3.96801Z" fill="#662E93"/>
<path d="M9.53231 3.96801L8.08498 2.52068C8.03062 2.4664 8.00005 2.39275 8 2.31594C7.99995 2.23913 8.03041 2.16544 8.08469 2.11108C8.13896 2.05673 8.21261 2.02616 8.28942 2.02611C8.36624 2.02605 8.43993 2.05652 8.49428 2.11079L9.44779 3.06372V0.289467C9.44779 0.212696 9.47828 0.139068 9.53257 0.0847827C9.58685 0.0304971 9.66048 0 9.73725 0C9.81402 0 9.88765 0.0304971 9.94194 0.0847827C9.99622 0.139068 10.0267 0.212696 10.0267 0.289467V3.0643L10.9802 2.11021C11.0071 2.0833 11.0391 2.06195 11.0743 2.04739C11.1094 2.03282 11.1471 2.02532 11.1852 2.02532C11.2232 2.02532 11.2609 2.03282 11.2961 2.04739C11.3312 2.06195 11.3632 2.0833 11.3901 2.11021C11.417 2.13713 11.4384 2.16908 11.4529 2.20424C11.4675 2.23941 11.475 2.2771 11.475 2.31516C11.475 2.35322 11.4675 2.39091 11.4529 2.42607C11.4384 2.46123 11.417 2.49319 11.3901 2.5201L9.94277 3.96743C9.91589 3.99439 9.88394 4.01578 9.84878 4.03037C9.81361 4.04496 9.77591 4.05248 9.73783 4.05248C9.69976 4.05248 9.66206 4.04496 9.62689 4.03037C9.59172 4.01578 9.55978 3.99439 9.53289 3.96743L9.53231 3.96801Z" fill="#662E93"/>
</svg>
