<svg width="44" height="36" viewBox="0 0 44 36" fill="none" xmlns="http://www.w3.org/2000/svg">
<g clip-path="url(#clip0_165_85)">
<path d="M43.6829 32.7603C43.4303 33.3403 43.2587 33.9771 42.9083 34.4895C42.2244 35.4888 41.1997 35.9492 39.9925 35.9975C39.8644 35.9975 39.7363 35.9975 39.6082 35.9975H3.95382C2.06271 35.9975 0.583652 34.9257 0.137761 33.2122C0.0486422 32.8542 0.0043987 32.4864 0.00604805 32.1174C-0.00120222 25.8484 -0.00120222 19.5789 0.00604805 13.309C0.00604805 11.0312 1.6144 9.40839 3.89823 9.40718C15.8668 9.40073 27.8366 9.40073 39.8076 9.40718C41.77 9.40718 43.179 10.5588 43.6188 12.4704C43.6368 12.5238 43.6595 12.5756 43.6865 12.6251L43.6829 32.7603ZM1.82828 26.0925C7.24544 26.0925 10.0875 28.7606 10.3051 34.1777H33.5627C33.4419 31.8238 34.0908 29.7732 35.8067 28.1358C37.5226 26.4985 39.6251 25.9897 41.9464 26.165V19.3413C39.5913 19.5273 37.4863 18.9957 35.7692 17.3269C34.0521 15.6581 33.4358 13.5882 33.5579 11.2512H10.2205C10.3546 13.6256 9.72624 15.7149 8.01397 17.3982C6.3017 19.0815 4.17858 19.6204 1.82828 19.4319V26.0925ZM1.80895 17.6012C6.32707 18.1691 8.84775 14.5694 8.36198 11.2645C8.32337 11.2482 8.28271 11.2372 8.24114 11.2318C6.721 11.2318 5.19966 11.2052 3.68073 11.2427C3.18889 11.2499 2.71924 11.4485 2.37154 11.7965C2.02384 12.1444 1.82548 12.6142 1.81862 13.106C1.77632 14.5947 1.80895 16.0871 1.80895 17.6012ZM41.9464 17.5166C41.9576 17.4815 41.9657 17.4455 41.9706 17.4091C41.9706 16.0726 41.9706 14.7365 41.9706 13.4009C41.9706 12.0402 41.1658 11.2318 39.7955 11.2258C38.4591 11.2197 37.1238 11.2258 35.7873 11.2258C35.6665 11.2258 35.5457 11.2427 35.4248 11.2512C34.9378 14.6878 37.5781 18.0471 41.9464 17.5166ZM8.36077 34.2043C8.83446 30.7882 6.13494 27.3987 1.82224 28.0174C1.8162 28.1515 1.80412 28.2893 1.80412 28.4283C1.80412 29.6495 1.80412 30.8712 1.80412 32.0933C1.80412 33.3826 2.6101 34.1934 3.90427 34.2019C5.12595 34.2116 6.34762 34.2019 7.56929 34.2019L8.36077 34.2043ZM35.4103 34.185C37.0344 34.185 38.6379 34.2406 40.2354 34.1656C41.2915 34.1161 41.9658 33.263 41.973 32.2044C41.9791 31.338 41.973 30.4716 41.973 29.6064V28.0077C38.0603 27.4446 34.9777 30.3447 35.4103 34.185Z" fill="#B07FD8"/>
<path d="M21.9309 6.51191H6.15308C5.98149 6.51191 5.81111 6.5119 5.64073 6.50345C5.41845 6.49623 5.20694 6.406 5.0479 6.25054C4.88887 6.09508 4.79384 5.88568 4.78157 5.66362C4.7705 5.43378 4.84704 5.2083 4.99573 5.03269C5.14443 4.85709 5.3542 4.74443 5.58272 4.71746C5.7244 4.70274 5.86696 4.69829 6.00928 4.70417H37.7787C37.949 4.69717 38.1196 4.70851 38.2875 4.738C38.499 4.77919 38.688 4.8968 38.8184 5.06841C38.9488 5.24002 39.0114 5.45361 38.9944 5.66846C38.9857 5.88371 38.8973 6.08806 38.7463 6.24172C38.5953 6.39539 38.3926 6.48739 38.1775 6.49982C38.0083 6.51674 37.8368 6.51191 37.6664 6.51191H21.9309Z" fill="#662E93"/>
<path d="M21.8414 1.80647H10.6229C9.94737 1.80647 9.57398 1.52129 9.53531 0.987185C9.52367 0.870043 9.53536 0.751754 9.56972 0.639159C9.60408 0.526565 9.66042 0.421899 9.73548 0.331216C9.81055 0.240533 9.90285 0.165632 10.007 0.110844C10.1112 0.0560561 10.2253 0.0224692 10.3425 0.0120253C10.4844 0.000729385 10.6268 -0.00209606 10.7691 0.00356582H33.0322C33.2167 -0.00532499 33.4016 0.00724553 33.5832 0.0410252C33.7881 0.0923579 33.9681 0.214619 34.0913 0.386098C34.2146 0.557577 34.273 0.767179 34.2564 0.977688C34.2397 1.1882 34.149 1.38599 34.0003 1.53595C33.8516 1.68591 33.6546 1.77833 33.4443 1.7968C33.2884 1.8113 33.1313 1.80526 32.9754 1.80526L21.8414 1.80647Z" fill="#662E93"/>
<path d="M31.9628 22.7344C31.9882 28.2603 27.4773 32.7881 21.9151 32.8171C16.3807 32.8461 11.859 28.3461 11.8312 22.7815C11.8281 21.4597 12.0854 20.1501 12.5884 18.9277C13.0914 17.7053 13.8302 16.5939 14.7627 15.657C15.6953 14.7201 16.8032 13.9761 18.0232 13.4674C19.2433 12.9587 20.5516 12.6953 21.8734 12.6922C23.1953 12.6891 24.5048 12.9464 25.7272 13.4494C26.9497 13.9524 28.061 14.6912 28.9979 15.6237C29.9348 16.5562 30.6788 17.6641 31.1876 18.8842C31.6963 20.1042 31.9597 21.4125 31.9628 22.7344ZM21.8559 30.9961C23.4868 31.0027 25.0831 30.5259 26.4431 29.6258C27.8032 28.7257 28.866 27.4427 29.4972 25.9389C30.1285 24.4351 30.2999 22.778 29.9899 21.1768C29.6798 19.5756 28.9022 18.1023 27.7552 16.9428C26.6083 15.7833 25.1434 14.9898 23.5457 14.6624C21.9479 14.3351 20.289 14.4886 18.7785 15.1035C17.268 15.7185 15.9736 16.7673 15.0588 18.1175C14.144 19.4678 13.6499 21.0588 13.6389 22.6897C13.6315 23.7751 13.8382 24.8513 14.2474 25.8566C14.6566 26.8619 15.2602 27.7766 16.0235 28.5482C16.7868 29.3199 17.6949 29.9333 18.6958 30.3533C19.6966 30.7734 20.7705 30.9918 21.8559 30.9961Z" fill="#662E93"/>
<path d="M23.7676 18.731C23.7569 18.7674 23.7493 18.8045 23.7446 18.8422C23.8836 19.508 24.2848 19.711 24.953 19.6445C25.5898 19.5805 26.0176 20.001 26.014 20.5424C26.0104 21.0837 25.5971 21.4281 24.9397 21.4341C24.6582 21.4341 24.3754 21.4341 24.0806 21.4341C23.5972 22.9917 22.5677 23.9186 20.9219 24.2388C21.3931 24.6871 21.8124 25.0846 22.233 25.4846C22.7586 25.9837 23.2915 26.4755 23.8123 26.9806C24.2352 27.3902 24.2788 27.9316 23.9332 28.3098C23.5876 28.688 23.0172 28.7025 22.5737 28.2869C21.0802 26.8863 19.5963 25.4774 18.1027 24.072C17.7873 23.7736 17.6339 23.4268 17.8151 23.0002C17.9964 22.5736 18.3359 22.4311 18.7746 22.4371C19.357 22.4431 19.9407 22.4516 20.5231 22.4371C21.2058 22.4153 21.7242 22.1048 22.1387 21.4402H19.6495C19.3232 21.4402 18.9957 21.4486 18.6695 21.4402C18.1366 21.4196 17.7644 21.0583 17.7511 20.5677C17.748 20.4463 17.7695 20.3254 17.8143 20.2125C17.8591 20.0995 17.9264 19.9968 18.012 19.9106C18.0975 19.8243 18.1997 19.7563 18.3123 19.7106C18.4249 19.6648 18.5455 19.6424 18.667 19.6445C19.6047 19.6264 20.5437 19.6445 21.4814 19.6445H22.1133C21.7593 19.0983 21.3134 18.8095 20.7382 18.7745C20.0724 18.7346 19.4029 18.7624 18.7347 18.7431C18.1547 18.7262 17.7777 18.3806 17.7511 17.8851C17.7221 17.3281 18.1486 16.9341 18.8133 16.9305C20.1932 16.9245 21.572 16.9305 22.9507 16.9305C23.6613 16.9305 24.3718 16.9221 25.0823 16.9305C25.2691 16.9224 25.4538 16.9734 25.61 17.0762C25.7662 17.179 25.886 17.3285 25.9524 17.5033C26.0913 17.8392 26.0575 18.186 25.7928 18.4072C25.5627 18.5843 25.2887 18.6954 25.0002 18.7286C24.5953 18.7697 24.1797 18.731 23.7676 18.731Z" fill="#B07FD8"/>
</g>
<defs>
<clipPath id="clip0_165_85">
<rect width="43.6829" height="36" fill="white"/>
</clipPath>
</defs>
</svg>
