<svg width="23" height="16" viewBox="0 0 23 16" fill="none" xmlns="http://www.w3.org/2000/svg">
<g clip-path="url(#clip0_272_52)">
<path d="M7.07984 15.99C5.2964 15.99 3.51397 15.99 1.73054 15.99C0.785426 15.99 0.0888197 15.3912 0.0219534 14.5549C-0.0598829 13.5449 0.644707 12.7964 1.69461 12.7964C5.14903 12.7964 8.60246 12.7964 12.0549 12.7964C12.2176 12.7964 12.3792 12.7964 12.5419 12.7964C13.4341 12.8153 14.1128 13.4641 14.1547 14.3373C14.1936 15.1547 13.5808 15.8623 12.7255 15.977C12.578 15.9912 12.4296 15.9956 12.2814 15.99H7.07984Z" fill="#B07FD8"/>
<path d="M7.06488 3.20968C5.24452 3.20968 3.42416 3.21467 1.6048 3.20968C1.24615 3.21092 0.89752 3.09138 0.615088 2.87032C0.332657 2.64926 0.132869 2.33956 0.047915 1.99111C-0.039515 1.6427 -0.00417345 1.27479 0.147983 0.949392C0.30014 0.623991 0.559811 0.360981 0.883244 0.204684C1.14268 0.0858241 1.42424 0.0229187 1.70959 0.0200556C5.2871 0.00807958 8.86528 0.00608382 12.4441 0.0140678C13.4331 0.0140678 14.1537 0.700695 14.1567 1.61087C14.1567 2.53802 13.4311 3.20768 12.4132 3.20768C10.6307 3.213 8.84798 3.21367 7.06488 3.20968Z" fill="#B07FD8"/>
<path d="M7.10678 9.58973C5.26047 9.58973 3.41416 9.59672 1.56586 9.58973C0.887217 9.58973 0.3962 9.23843 0.137717 8.62067C-0.114778 8.02187 -0.0189711 7.44302 0.414163 6.94502C0.7455 6.56478 1.17764 6.40909 1.68063 6.41209C2.90418 6.41907 4.12674 6.41209 5.35029 6.41209C7.73352 6.41209 10.1178 6.4061 12.501 6.41209C13.5988 6.41209 14.3323 7.31029 14.1108 8.35221C13.9541 9.09073 13.3253 9.58474 12.499 9.58773C10.7026 9.59472 8.90618 9.58773 7.10977 9.58773L7.10678 9.58973Z" fill="#B07FD8"/>
<path d="M19.3982 3.20846C18.9371 3.20846 18.4761 3.21745 18.015 3.20846C17.6117 3.20421 17.2249 3.04749 16.9324 2.7698C16.6399 2.4921 16.4633 2.114 16.4381 1.71146C16.3842 0.887106 16.9741 0.105669 17.8234 0.0517767C18.8794 -0.0175844 19.9389 -0.0175844 20.995 0.0517767C21.8713 0.111657 22.4172 0.874134 22.3563 1.75637C22.3226 2.15137 22.1421 2.5194 21.8504 2.78785C21.5586 3.05629 21.1769 3.20566 20.7805 3.20647C20.3204 3.21545 19.8593 3.20946 19.3982 3.20846Z" fill="#662E93"/>
<path d="M19.3952 12.7965C19.8563 12.7965 20.3174 12.7895 20.7785 12.7965C21.1756 12.7945 21.5589 12.9421 21.8522 13.2098C22.1454 13.4776 22.3272 13.8459 22.3613 14.2416C22.4242 15.1238 21.8783 15.8903 21.003 15.9482C19.935 16.0195 18.8634 16.0195 17.7954 15.9482C16.9671 15.8933 16.3912 15.1088 16.4431 14.2995C16.4683 13.8974 16.6444 13.5197 16.9363 13.2421C17.2282 12.9645 17.6142 12.8075 18.017 12.8025C18.4691 12.7855 18.9341 12.7965 19.3952 12.7965Z" fill="#662E93"/>
<path d="M19.3882 9.58789C18.9152 9.58789 18.4411 9.60286 17.9691 9.58789C17.556 9.57607 17.1639 9.40327 16.8764 9.10636C16.589 8.80946 16.429 8.41196 16.4305 7.99871C16.4321 7.58546 16.5951 7.18919 16.8848 6.89447C17.1745 6.59974 17.5679 6.42991 17.981 6.42122C18.9258 6.40126 19.8719 6.40126 20.8194 6.42122C21.2327 6.43304 21.6251 6.60595 21.9127 6.90304C22.2003 7.20013 22.3604 7.59788 22.3589 8.01139C22.3573 8.42491 22.1942 8.82143 21.9043 9.11634C21.6145 9.41125 21.2208 9.58119 20.8074 9.58988C20.3353 9.60485 19.8613 9.58988 19.3882 9.58988V9.58789Z" fill="#662E93"/>
</g>
<defs>
<clipPath id="clip0_272_52">
<rect width="22.3623" height="16" fill="white"/>
</clipPath>
</defs>
</svg>
