<svg width="17" height="16" viewBox="0 0 17 16" fill="none" xmlns="http://www.w3.org/2000/svg">
<g clip-path="url(#clip0_225_361)">
<path d="M0 14.625C0.151438 14.4376 0.295441 14.2427 0.457836 14.0651C0.478625 14.0413 0.504277 14.0221 0.533064 14.0091C0.561852 13.996 0.593108 13.9892 0.624731 13.9892C0.656354 13.9892 0.68761 13.996 0.716398 14.0091C0.745185 14.0221 0.770837 14.0413 0.791626 14.0651C0.883976 14.1703 0.882019 14.2854 0.791626 14.3899C0.713364 14.4803 0.6261 14.5628 0.540403 14.6466C0.470358 14.7158 0.472706 14.7784 0.540403 14.8473C0.744407 15.0484 0.946847 15.251 1.14772 15.455C1.22598 15.5333 1.28703 15.52 1.35942 15.448C2.26805 14.5375 3.17772 13.6281 4.08844 12.7197C4.17296 12.6352 4.15496 12.5726 4.07787 12.4975C3.88417 12.3085 3.69047 12.1187 3.5046 11.9222C3.41538 11.8279 3.35199 11.8303 3.2612 11.9222C2.7341 12.4556 2.20231 12.9843 1.67169 13.5145C1.48268 13.7035 1.35277 13.7301 1.23381 13.6045C1.12229 13.4871 1.15203 13.3588 1.3332 13.1772C1.85991 12.6505 2.38975 12.1261 2.91176 11.5963C3.06828 11.4398 3.23733 11.3443 3.46664 11.3701C3.52126 11.3682 3.57301 11.3452 3.61104 11.3059C3.95617 10.9663 4.30053 10.6258 4.63901 10.2795C4.95206 9.95903 5.0722 9.54111 5.14146 9.12241C5.24124 8.51822 5.29446 7.90582 5.35394 7.29576C5.36764 7.15919 5.32577 7.01753 5.30933 6.87823C5.24946 6.3613 5.29251 5.84947 5.38016 5.33959C5.38407 5.31493 5.38681 5.28989 5.39307 5.24528C4.63275 5.35289 3.973 5.16271 3.43651 4.61331C3.09646 4.27034 2.88809 3.81854 2.84798 3.33724C2.80078 2.8564 2.91698 2.37369 3.17783 1.96702C3.43868 1.56034 3.82895 1.25342 4.28566 1.0958C5.17159 0.787052 6.36353 1.07584 6.97085 2.26739C7.00333 2.20903 7.04049 2.15342 7.08198 2.10108C8.04265 1.09893 9.1802 0.400435 10.5506 0.121429C11.7484 -0.122359 12.9063 -0.0131831 13.9746 0.621135C14.8953 1.16897 15.5066 1.97195 15.8047 2.99953C16.1608 4.22513 16.0141 5.42098 15.5308 6.58396C15.0397 7.76729 14.25 8.71779 13.2283 9.47968C13.0749 9.59433 12.9341 9.58924 12.8445 9.46637C12.7607 9.35211 12.7893 9.21319 12.936 9.10362C13.6059 8.60313 14.1769 8.0099 14.6206 7.29889C15.2635 6.26856 15.6059 5.1541 15.4964 3.9336C15.3438 2.22826 14.2364 0.929098 12.5474 0.573004C11.5735 0.367956 10.6202 0.50335 9.70104 0.868445C8.71376 1.25976 7.88652 1.87764 7.20172 2.68609C7.15158 2.74817 7.12473 2.82583 7.12581 2.90562C7.17981 3.82247 6.8241 4.52174 6.03639 5.00032C5.9829 5.02901 5.94131 5.07573 5.919 5.13219C5.66778 6.15704 5.68421 7.16702 6.14322 8.13591C6.67149 9.24724 7.56564 9.90581 8.7611 10.1519C9.75582 10.3566 10.7177 10.2048 11.649 9.8252C11.7359 9.78999 11.8204 9.74929 11.9084 9.71838C12.0473 9.66907 12.1679 9.71838 12.2215 9.83851C12.2352 9.86709 12.2428 9.8982 12.2439 9.92988C12.2449 9.96156 12.2394 9.99311 12.2276 10.0225C12.2159 10.052 12.1981 10.0786 12.1755 10.1008C12.1529 10.123 12.1259 10.1403 12.0963 10.1516C11.8881 10.2455 11.6764 10.3347 11.46 10.4075C10.6394 10.686 9.76661 10.7765 8.90628 10.6724C8.49384 10.6247 8.06261 10.6689 7.64821 10.7287C7.1806 10.7957 6.71917 10.9004 6.26844 11.0418C6.04109 11.113 5.82939 11.2766 5.64743 11.4394C5.32186 11.7309 5.02133 12.0502 4.71806 12.3652C4.66554 12.4235 4.63544 12.4985 4.63314 12.5769C4.63601 12.6629 4.62085 12.7485 4.58863 12.8282C4.55642 12.9079 4.50786 12.98 4.4461 13.0398C3.51895 13.9673 2.59062 14.894 1.66112 15.8201C1.58286 15.8984 1.47134 15.941 1.37507 16.0001H1.12502C0.669558 15.7153 0.284846 15.3306 0 14.8751V14.625ZM3.34964 2.84027C4.44179 3.03593 5.07689 3.67885 5.27294 4.7577C5.90922 4.70996 6.56427 4.05334 6.61632 3.41472C5.53864 3.21906 4.90015 2.58161 4.70084 1.50237C4.09939 1.51568 3.46234 2.14178 3.34964 2.84027ZM6.33105 9.31611L3.95735 11.6898L4.30953 12.0389L6.67658 9.6722L6.33105 9.31611ZM4.7705 4.77688C4.68362 4.03104 4.00391 3.35406 3.35433 3.35563C3.35473 3.92421 3.94443 4.69157 4.7705 4.7757V4.77688ZM5.20798 1.48985C5.2569 2.27248 6.06183 2.91971 6.6261 2.8931C6.58853 2.20439 5.89904 1.52194 5.20798 1.4875V1.48985ZM5.75895 8.46226C5.70769 8.7534 5.66151 9.01519 5.6173 9.26758L6.01291 8.88801C5.93426 8.75457 5.85561 8.62192 5.75895 8.45991V8.46226ZM6.70749 10.3926L7.53864 10.2431L7.10155 9.98525L6.70749 10.3926Z" fill="#B07FD8"/>
<path d="M14.8417 4.25836C14.8182 5.44248 14.4586 6.39884 13.831 7.25504C13.1931 8.12493 12.3831 8.79251 11.3786 9.19751C10.4089 9.58883 9.41382 9.716 8.4101 9.34347C7.32616 8.9416 6.69419 8.13784 6.5048 7.00929C6.28292 5.68939 6.69184 4.5182 7.45686 3.46087C8.0857 2.59137 8.8965 1.9324 9.89631 1.52661C10.8018 1.15838 11.7296 1.04334 12.6891 1.31021C13.7503 1.60565 14.6312 2.59724 14.7795 3.68783C14.81 3.9144 14.8308 4.14254 14.8417 4.25836ZM10.6547 3.16934L9.739 4.08619L10.639 4.98621C10.9411 4.68137 11.2499 4.36871 11.5531 4.06232L10.6547 3.16934ZM10.2591 5.36969L9.3559 4.46772C9.0585 4.76394 8.74819 5.07386 8.45001 5.37126L9.35238 6.2748L10.2591 5.36969ZM12.8351 5.37204L11.9151 4.4548L11.0151 5.35482L11.9319 6.27206L12.8351 5.37204ZM10.6206 7.55126L11.5406 6.6395L10.6425 5.73948L9.73195 6.65985L10.6206 7.55126ZM11.017 2.78664L11.9233 3.69448C12.2234 3.39278 12.533 3.08247 12.8233 2.78977L11.9198 1.88231L11.017 2.78664ZM13.2174 3.17012L12.3013 4.08658L13.2041 4.98386L14.1205 4.0674L13.2174 3.17012ZM8.07279 5.73948L7.17081 6.64224L8.06848 7.55987C8.37371 7.25582 8.68245 6.94825 8.98181 6.64929L8.07279 5.73948ZM9.35629 7.02573L8.45236 7.9324L9.34299 8.82498L10.2524 7.91949L9.35629 7.02573ZM8.57367 2.89425L9.36842 3.69135L10.2626 2.79133L9.62356 2.15075L8.57367 2.89425ZM13.0972 7.44248L13.8407 6.38867L13.1986 5.74848L12.2986 6.64537L13.0972 7.44248ZM11.935 7.02651L11.0276 7.9324L11.6611 8.56789L12.7212 7.81657L11.935 7.02651ZM8.9822 4.09166L8.18118 3.28478L7.44043 4.3331L8.08961 4.98503L8.9822 4.09166ZM9.89826 9.05782L9.90257 9.10086L11.1422 8.8152L10.6437 8.30963L9.89826 9.05782ZM14.3502 4.60115L13.5887 5.36734L14.0642 5.84592C14.2256 5.44901 14.3222 5.02873 14.3502 4.60115ZM7.69439 5.37204L7.21268 4.88133C7.06046 5.27617 6.95402 5.68352 6.93876 6.12727L7.69439 5.37204ZM11.3872 1.66944L11.3813 1.62052L10.1291 1.90853L10.6378 2.41724L11.3872 1.66944ZM13.4612 2.21101L12.6003 1.75592L12.5971 1.77705L13.2264 2.41254L13.4612 2.21101ZM14.218 3.41782L14.2485 3.40608L13.8028 2.55967L13.5735 2.77529L14.218 3.41782ZM7.06516 7.30473L7.03581 7.31608L7.47995 8.1578L7.70887 7.94883L7.06516 7.30473ZM8.68324 8.9639L8.68637 8.93494L8.07044 8.30884L7.84622 8.52328L8.68324 8.9639Z" fill="#662E93"/>
</g>
<defs>
<clipPath id="clip0_225_361">
<rect width="16.002" height="16" fill="white"/>
</clipPath>
</defs>
</svg>
