<svg width="16" height="25" viewBox="0 0 16 25" fill="none" xmlns="http://www.w3.org/2000/svg">
<g clip-path="url(#clip0_245_171)">
<path d="M3.44428 9.29519H4.57577C4.85056 9.29519 5.126 9.28743 5.40015 9.29842C5.46323 9.30383 5.52651 9.2906 5.58214 9.26038C5.63778 9.23015 5.68331 9.18425 5.71309 9.12837C6.23034 8.3415 6.90924 7.75441 7.8403 7.50742C8.47782 7.33802 9.10369 7.3891 9.73216 7.63221C9.78712 7.54751 9.83949 7.46863 9.88992 7.3891C10.3639 6.64296 10.9891 6.09079 11.8807 5.92721C12.9282 5.73324 13.7629 6.14639 14.4418 6.91904C14.9435 7.49126 15.2299 8.17145 15.3761 8.91371C15.3993 9.03139 15.4194 9.15036 15.4407 9.2745C15.4944 9.28226 15.5409 9.29066 15.5881 9.29583C15.8914 9.33075 16.0233 9.47558 15.9974 9.77753C15.9328 10.5347 15.859 11.2905 15.7892 12.047C15.6504 13.5518 15.5118 15.0568 15.3735 16.562C15.2183 18.2431 15.0633 19.9241 14.9086 21.6052C14.8756 21.9589 14.8556 22.3164 14.8058 22.6662C14.6842 23.521 14.0577 24.0596 13.1894 24.0615C11.8148 24.0654 10.4408 24.0615 9.06684 24.0615C7.55516 24.0615 6.04284 24.0415 4.53181 24.068C3.49729 24.0868 2.85461 23.3361 2.78607 22.4994C2.5921 20.0593 2.34834 17.6224 2.12463 15.1841C1.97937 13.5988 1.83346 12.0136 1.6869 10.4286C1.67904 10.377 1.66824 10.3258 1.65457 10.2754C1.21555 10.428 0.980847 10.203 0.795282 9.85253C0.601311 9.48916 0.394409 9.1329 0.179102 8.78246C-0.0665946 8.38288 -0.0504302 7.98588 0.159058 7.58501C0.357256 7.22047 0.657445 6.92163 1.02287 6.72507C2.04532 6.13756 3.06625 5.5481 4.08567 4.95671C4.16197 4.91274 4.23762 4.86619 4.33977 4.80541C4.26542 4.6761 4.1943 4.55131 4.12447 4.42781C3.84386 3.92931 3.96153 3.47477 4.45292 3.18899C5.40942 2.63251 6.3672 2.07883 7.32628 1.52795C7.81573 1.24669 8.27285 1.37471 8.56446 1.86481C8.63429 1.98184 8.70153 2.10081 8.78364 2.24176C9.07718 2.07301 9.36168 1.91007 9.64487 1.74649C10.4699 1.26975 11.2951 0.793448 12.1206 0.317573C12.5732 0.0589455 13.0555 -0.0813595 13.5825 0.045368C13.7177 0.0734418 13.8455 0.129251 13.9581 0.209269C14.0706 0.289286 14.1653 0.391773 14.2362 0.510251C14.5038 0.96285 14.7702 1.41545 15.0243 1.87387C15.2092 2.20879 15.111 2.48746 14.7424 2.70147C13.5545 3.39115 12.3656 4.07759 11.1759 4.7608L3.64665 9.11285C3.57359 9.15488 3.50182 9.19885 3.4294 9.24217L3.44428 9.29519ZM2.44209 10.0898C2.44597 10.1545 2.44791 10.2023 2.45179 10.2489L3.00073 16.209C3.19341 18.3004 3.38608 20.391 3.57876 22.4807C3.6279 23.005 3.93114 23.2844 4.45228 23.285C7.36141 23.285 10.271 23.285 13.181 23.285C13.6885 23.285 14.0047 23.0025 14.0538 22.5001C14.145 21.5593 14.2245 20.6179 14.3125 19.6765C14.4495 18.1803 14.5875 16.6844 14.7263 15.1887C14.8776 13.5477 15.0284 11.9067 15.1789 10.2657C15.18 10.2065 15.1772 10.1473 15.1705 10.0885L2.44209 10.0898ZM14.2549 2.08982C14.0422 1.72127 13.8346 1.37859 13.6439 1.02427C13.5456 0.842588 13.3969 0.749482 13.2107 0.785043C12.9695 0.83095 12.7167 0.887201 12.5046 1.00358C11.6919 1.45101 10.8934 1.9243 10.0904 2.38853C7.2183 4.04677 4.34775 5.70802 1.47871 7.37229C1.23754 7.51259 1.04098 7.74213 0.852827 7.9542C0.819361 8.00261 0.797866 8.05827 0.79011 8.11661C0.782354 8.17495 0.788559 8.2343 0.808213 8.28977C1.01188 8.6887 1.24594 9.07212 1.47353 9.46911L14.2549 2.08982ZM14.6299 9.29454C14.6028 8.64797 14.2698 7.82489 13.7849 7.35483C13.5299 7.09869 13.226 6.8964 12.8913 6.75999C11.9635 6.41537 10.8734 6.99469 10.4718 7.94709C10.8365 8.38288 11.1798 8.79539 11.5283 9.20402C11.5675 9.25161 11.6236 9.2822 11.6848 9.28937C12.6611 9.29583 13.6381 9.29454 14.6299 9.29454ZM10.6354 9.28226C10.0024 8.5387 9.28473 8.09709 8.32716 8.20378C7.5946 8.28589 7.04179 8.68547 6.55169 9.28226H10.6354ZM8.10798 2.63746C8.06013 2.54953 8.02716 2.48617 7.9916 2.42345C7.82672 2.13508 7.82672 2.13573 7.54805 2.29414L5.13893 3.6862C5.00962 3.76185 4.88031 3.84137 4.73612 3.92737L5.01932 4.41747L8.10798 2.63746Z" fill="#B07FD8"/>
<path d="M12.323 12.0798C12.5247 12.0798 12.7264 12.0798 12.9282 12.0798C13.2514 12.0844 13.406 12.2408 13.3808 12.5661C13.2999 13.4991 13.2107 14.4314 13.1221 15.3644L12.7516 19.3925C12.7419 19.4966 12.7297 19.6007 12.7174 19.7055C12.6896 19.9337 12.5499 20.0579 12.3294 20.063C11.8852 20.074 11.441 20.0766 10.9969 20.063C10.7195 20.0546 10.5882 19.8872 10.6128 19.5884C10.6774 18.7673 10.7557 17.9474 10.8307 17.127C10.969 15.6153 11.1113 14.1042 11.2477 12.5926C11.2839 12.1904 11.3906 12.0805 11.7889 12.0798H12.323ZM12.57 12.8699H12.0036C11.8096 15.0088 11.6124 17.1373 11.4158 19.2774H11.9816C12.1781 17.1367 12.3734 15.0101 12.57 12.8699Z" fill="#662E93"/>
<path d="M5.07557 12.0799C5.26954 12.0799 5.46351 12.0799 5.65748 12.0799C5.95813 12.0838 6.08874 12.1937 6.11654 12.4905C6.24585 13.8491 6.37237 15.2069 6.49608 16.5638C6.5866 17.5337 6.67194 18.51 6.76634 19.4825C6.80772 19.9021 6.67259 20.0644 6.24909 20.0644C5.86955 20.0644 5.48937 20.0695 5.10983 20.0644C4.81371 20.0586 4.68245 19.9292 4.65723 19.6396C4.44171 17.2999 4.22813 14.9599 4.01649 12.6198C3.97963 12.2144 4.10894 12.078 4.52146 12.0767L5.07557 12.0799ZM4.81176 12.87C4.84021 13.1732 4.86672 13.4616 4.89323 13.7493C5.05035 15.453 5.20423 17.1574 5.36523 18.8605C5.41113 19.3434 5.42083 19.3428 5.91934 19.2801C5.92645 19.2801 5.93292 19.2717 5.96395 19.2529C5.76998 17.1335 5.57278 15.0011 5.37687 12.87H4.81176Z" fill="#662E93"/>
<path d="M9.8563 16.0719C9.8563 17.2266 9.8563 18.3814 9.8563 19.5362C9.8563 19.9506 9.73669 20.0676 9.32224 20.0696C8.95046 20.0696 8.57933 20.0741 8.20755 20.0696C7.88427 20.0644 7.74849 19.9286 7.74913 19.6092C7.74913 17.251 7.75301 14.8929 7.76077 12.5351C7.76077 12.2202 7.90625 12.0825 8.2263 12.0825C8.61424 12.0825 9.00218 12.0825 9.39013 12.0825C9.74897 12.0825 9.88152 12.2177 9.88217 12.5856C9.88217 13.7494 9.88217 14.9132 9.88217 16.077L9.8563 16.0719ZM8.54312 12.8655V19.2775H9.08107V12.8655H8.54312Z" fill="#662E93"/>
</g>
<defs>
<clipPath id="clip0_245_171">
<rect width="16" height="24.0711" fill="white"/>
</clipPath>
</defs>
</svg>
