<svg width="36" height="36" viewBox="0 0 36 36" fill="none" xmlns="http://www.w3.org/2000/svg">
<g clip-path="url(#clip0_114_31)">
<path d="M31.3788 31.9957C32.1495 32.1636 32.6875 32.6088 33.0627 33.2791C33.3225 33.7437 33.5968 34.1997 33.8896 34.643C33.9329 34.6998 33.9873 34.7472 34.0494 34.7824C34.1116 34.8175 34.1802 34.8398 34.2512 34.8476C34.6225 34.8748 34.9967 34.8573 35.3941 34.8573V36.0001H0.0290865V34.8651H2.22965C2.23837 34.7235 2.25 34.6187 2.25 34.514C2.25 31.4283 2.28684 28.3416 2.22965 25.2569C2.2122 24.3257 1.94852 23.3973 1.7779 22.471C1.19626 19.3212 0.604916 16.1744 0.0223007 13.0247C-0.119233 12.2623 0.410064 11.6318 1.19335 11.6172C1.73719 11.6075 2.28102 11.6124 2.82583 11.6172C3.54804 11.6221 3.97652 11.9703 4.11321 12.6843C4.43893 14.4061 4.75399 16.1298 5.07389 17.8526C5.46166 19.944 5.85718 22.0335 6.2304 24.1278C6.28081 24.4188 6.43592 24.3945 6.63464 24.3945C9.57389 24.3945 12.5144 24.3945 15.4563 24.3945C16.7824 24.3945 17.5163 25.1919 17.4106 26.517C17.3171 27.667 16.8227 28.7475 16.0138 29.5697C15.2049 30.3919 14.1329 30.9035 12.9852 31.015C12.2407 31.0849 11.4924 31.1227 10.6887 31.1799C10.9582 32.4041 11.2248 33.6108 11.4982 34.8515H11.8646C14.2717 34.8515 16.6777 34.8515 19.0848 34.8583C19.1894 34.8697 19.295 34.8477 19.3864 34.7954C19.4778 34.7432 19.5504 34.6633 19.5937 34.5673C19.7963 34.1958 20.0406 33.8475 20.2393 33.4741C20.6368 32.7252 21.1816 32.1645 22.0667 31.987V31.6475C22.0667 28.8519 22.0667 26.0562 22.0725 23.2606C22.0725 23.021 22.0046 22.9094 21.7817 22.8056C19.7323 21.8598 18.6611 20.2505 18.5826 17.9913C18.5652 17.4597 18.5778 16.9243 18.5826 16.3937C18.5826 15.5653 19.0547 15.1045 19.8962 15.1026C20.6067 15.1026 21.3173 15.1026 22.0667 15.1026V14.6883C22.0667 13.309 22.0667 11.9296 22.0667 10.5502C22.0667 9.17078 23.0739 8.13769 24.3865 8.13672C25.6991 8.13575 26.7005 9.17272 26.7131 10.5473C26.7131 10.8858 26.7131 11.2263 26.7131 11.593H25.5498C25.5498 11.2564 25.5498 10.9139 25.5498 10.5647C25.544 9.82652 25.0651 9.30367 24.3923 9.30367C23.7195 9.30367 23.229 9.82361 23.229 10.5647C23.229 12.0644 23.229 13.5641 23.229 15.089H24.3739V13.9831H25.5372V15.1152H33.4747C34.3937 15.1152 34.8464 15.5546 34.8319 16.4655C34.8193 17.4539 34.9288 18.4511 34.638 19.4231C34.163 21.014 33.168 22.1457 31.6532 22.8182C31.4855 22.8929 31.3439 22.9366 31.3449 23.1868C31.3565 26.0795 31.3527 28.9712 31.3546 31.8638C31.36 31.9082 31.3681 31.9523 31.3788 31.9957ZM33.7355 16.2908H19.743C19.743 16.9068 19.7323 17.4976 19.743 18.0883C19.7876 20.2593 21.5316 22.0344 23.6972 22.0655C25.7029 22.0955 27.7106 22.0917 29.7163 22.0655C31.531 22.0422 33.1393 20.786 33.5183 19.0118C33.7074 18.1407 33.6715 17.2201 33.7355 16.2908ZM23.2368 31.9278H30.1709V23.2499H23.2368V31.9278ZM3.42396 34.8379H10.3068C10.0353 33.6254 9.77069 32.441 9.50701 31.2585L7.57982 31.3701C7.5614 30.9714 7.54395 30.6047 7.52553 30.2283C7.63411 30.2177 7.69227 30.2099 7.75141 30.206C9.30828 30.109 10.8642 29.9955 12.4211 29.915C13.7317 29.849 14.8097 29.3669 15.5842 28.2815C15.6637 28.1709 15.7267 28.0477 15.8053 27.9148H3.42396V34.8379ZM1.17687 12.7987C1.48902 14.4943 1.79632 16.1696 2.10459 17.8429C2.49236 19.9459 2.88012 22.05 3.26788 24.1481C3.28436 24.2393 3.39003 24.381 3.46177 24.3829C3.99882 24.4033 4.53684 24.3945 5.10492 24.3945C4.38077 20.493 3.66534 16.6478 2.94895 12.7939L1.17687 12.7987ZM32.6526 34.8496C32.3618 34.3752 32.1195 33.9445 31.8354 33.5439C31.6221 33.2413 31.2906 33.1152 30.9174 33.1152C28.1109 33.1152 25.3055 33.1084 22.499 33.1258C22.2518 33.1258 21.9174 33.2083 21.7739 33.3771C21.3968 33.8107 21.1002 34.3151 20.7318 34.8496H32.6526ZM3.42299 26.7081H16.1698C16.4334 25.902 16.0922 25.544 15.3778 25.5498C11.534 25.576 7.69033 25.5625 3.84759 25.5625H3.42299V26.7081Z" fill="#B07FD8"/>
<path d="M27.8841 11.6191V10.4618H34.8202V1.18733H18.601V10.4502H20.8772V11.6036C20.0435 11.6036 19.2108 11.6424 18.3839 11.591C17.8139 11.5551 17.4232 11.0225 17.4203 10.4114C17.4145 9.24736 17.4203 8.08332 17.4203 6.92606C17.4203 5.0623 17.4203 3.19853 17.4203 1.33477C17.4203 0.452038 17.8759 0 18.7639 0H34.6622C35.555 0 36.0049 0.446219 36.0049 1.33574C36.0049 4.3254 36.0049 7.31472 36.0049 10.3037C36.0049 11.1496 35.5453 11.6172 34.7136 11.6181C32.5363 11.6181 30.359 11.6181 28.1817 11.6181L27.8841 11.6191Z" fill="#B07FD8"/>
<path d="M8.12753 17.4316H6.99623V16.2782H8.12753C8.12753 15.8902 8.12753 15.5468 8.12753 15.1995C8.13335 14.4322 8.60642 13.9463 9.3645 13.9443C10.8632 13.9398 12.3616 13.9398 13.8597 13.9443C14.6051 13.9443 15.084 14.4245 15.0937 15.1666C15.0986 15.5158 15.0937 15.866 15.0937 16.254H16.2337V17.418H15.0957V18.2619C15.0957 19.2194 14.8533 19.5434 13.9324 19.7917C13.9324 20.1351 13.9324 20.4843 13.9324 20.8335C13.9246 21.5824 13.4477 22.0664 12.7148 22.0732C11.9819 22.08 11.2403 22.08 10.5036 22.0732C9.76681 22.0664 9.30052 21.5882 9.28889 20.8665C9.28404 20.5047 9.28889 20.1438 9.28889 19.7888C8.38637 19.556 8.12559 19.2174 8.12559 18.2949L8.12753 17.4316ZM13.9178 15.1307H9.31797V18.5685H13.9178V15.1307ZM10.4696 19.7684V20.8966H12.7477V19.7684H10.4696Z" fill="#662E93"/>
<path d="M29.346 7.18216L28.6577 7.90678C27.1066 6.35957 25.575 4.82401 24.0288 3.27583L24.7655 2.5968L29.346 7.18216Z" fill="#662E93"/>
<path d="M28.1265 3.24958L28.8302 2.57056L31.6997 5.4409L30.9407 6.11992L28.1265 3.24958Z" fill="#662E93"/>
<path d="M21.709 5.59907L22.4254 4.92004L24.1238 6.61664L23.3899 7.28305L21.709 5.59907Z" fill="#662E93"/>
</g>
<defs>
<clipPath id="clip0_114_31">
<rect width="36" height="36" fill="white"/>
</clipPath>
</defs>
</svg>
