<svg width="30" height="36" viewBox="0 0 30 36" fill="none" xmlns="http://www.w3.org/2000/svg">
<g clip-path="url(#clip0_129_256)">
<path d="M19.0871 2.99969H26.4003C28.0512 2.99969 29.0046 3.96082 29.0046 5.61568C29.0046 8.40996 28.9775 11.2042 29.0046 13.9946C29.0219 14.338 28.9669 14.6811 28.8433 15.0019C28.7196 15.3226 28.53 15.6139 28.2868 15.8568C28.0435 16.0997 27.752 16.2888 27.431 16.412C27.1101 16.5352 26.7668 16.5897 26.4235 16.5719C24.1253 16.5215 21.8271 16.5719 19.5289 16.5719H19.0793V22.61C19.2034 22.61 19.3312 22.6332 19.4669 22.6371C21.6527 22.6914 23.8398 22.7482 26.0282 22.8076C26.3536 22.8065 26.6783 22.8389 26.9971 22.9045C27.6092 23.0504 28.1478 23.413 28.5133 23.9253C28.8787 24.4375 29.0464 25.0648 28.9852 25.691C28.9229 26.3418 28.6211 26.9463 28.1386 27.3874C27.656 27.8284 27.0269 28.0746 26.3731 28.0784C24.1989 28.1404 22.0248 28.1908 19.8467 28.2489C19.5948 28.2489 19.3429 28.2722 19.0716 28.2877V29.8999C19.0716 30.8688 19.0716 31.8377 19.0716 32.8027C19.0847 33.2209 19.013 33.6374 18.8609 34.0271C18.7088 34.4169 18.4793 34.7718 18.1864 35.0706C17.8934 35.3693 17.5431 35.6056 17.1564 35.7654C16.7697 35.9251 16.3546 36.0049 15.9363 36C11.6706 36.0155 7.40747 36.0155 3.14695 36C2.32598 36.0062 1.53608 35.6865 0.950487 35.1111C0.364898 34.5357 0.0314409 33.7515 0.0232544 32.9306C0.0232544 32.8337 0.0232544 32.7368 0.0232544 32.6438V3.36786C0.0232544 1.744 0.860372 0.54259 2.2982 0.131781C2.58826 0.0499071 2.88818 0.00817668 3.18957 0.00776096C7.43201 0.00776096 11.6757 0.00776096 15.9208 0.00776096C16.6719 -0.00649538 17.4026 0.252447 17.9772 0.736461C18.5517 1.22048 18.931 1.89663 19.0445 2.63925L19.0871 2.99969ZM17.8857 2.99969C17.8595 2.49113 17.6343 2.01328 17.2586 1.66951C16.8829 1.32574 16.387 1.14366 15.8781 1.16267H3.21671C2.9431 1.14932 2.66974 1.19346 2.41423 1.29221C2.15872 1.39096 1.92673 1.54215 1.73321 1.73603C1.5397 1.92991 1.38896 2.16217 1.29069 2.41787C1.19242 2.67357 1.14881 2.94701 1.16267 3.22058C1.16267 13.0722 1.16267 22.9239 1.16267 32.7755C1.14571 33.0494 1.18709 33.3237 1.28407 33.5803C1.38105 33.8369 1.53142 34.07 1.72523 34.2642C1.91904 34.4584 2.15187 34.6092 2.40831 34.7067C2.66476 34.8041 2.93897 34.846 3.21283 34.8296C7.43201 34.8296 11.6525 34.8296 15.8743 34.8296C16.1479 34.8439 16.4214 34.8 16.6769 34.7009C16.9323 34.6017 17.1638 34.4495 17.3561 34.2543C17.5484 34.0591 17.6971 33.8253 17.7924 33.5684C17.8876 33.3115 17.9274 33.0373 17.9089 32.7639C17.9089 31.3842 17.9089 30.0084 17.9089 28.6287C17.9089 28.5241 17.9089 28.4194 17.8895 28.3613C17.064 28.3613 16.2657 28.3613 15.4712 28.3613C15.3551 28.349 15.238 28.3734 15.1365 28.4311C15.035 28.4888 14.9542 28.5769 14.9054 28.683C14.3866 29.5387 13.6709 30.2581 12.8179 30.7813C11.9649 31.3045 10.9992 31.6164 10.0013 31.691C9.0034 31.7655 8.00211 31.6006 7.08081 31.21C6.15951 30.8193 5.34486 30.2143 4.70468 29.4451C4.0645 28.676 3.61732 27.7651 3.40036 26.7882C3.1834 25.8113 3.20295 24.7967 3.45738 23.8289C3.7118 22.8611 4.19374 21.9681 4.86307 21.2242C5.5324 20.4803 6.36975 19.907 7.30541 19.5522C8.56518 19.0553 9.95413 18.99 11.2549 19.3666C12.5558 19.7431 13.6951 20.5403 14.4946 21.6333C14.6813 21.9486 14.9562 22.2024 15.2853 22.3636C15.6145 22.5247 15.9835 22.5861 16.3471 22.5402C16.8586 22.5053 17.3741 22.5402 17.8973 22.5402V16.5602H10.0299C8.4797 16.5602 7.51857 15.603 7.51857 14.0528C7.51857 11.2107 7.51857 8.36861 7.51857 5.52654C7.51321 5.29792 7.53138 5.06934 7.57282 4.84444C7.69452 4.29565 8.0081 3.80831 8.45712 3.47013C8.90614 3.13194 9.46111 2.96513 10.0222 2.99969C12.5025 2.99969 14.9816 2.99969 17.4594 2.99969H17.8857ZM22.6177 4.16235C22.5131 4.16235 22.4433 4.16235 22.3736 4.16235C18.2396 4.16235 14.1057 4.16235 9.97179 4.16235C9.14242 4.16235 8.68898 4.64292 8.6851 5.48392V14.045C8.6851 14.9596 9.12692 15.3976 10.0415 15.3976H22.6255L22.6177 4.16235ZM17.7306 27.1405V27.0475C18.9166 27.0475 20.0986 27.0475 21.2845 27.0475C22.9626 27.0165 24.6446 26.9583 26.3227 26.9118C26.5209 26.9255 26.7197 26.8988 26.9072 26.8334C27.0948 26.768 27.2671 26.6652 27.4138 26.5313C27.5604 26.3974 27.6785 26.2352 27.7607 26.0544C27.8428 25.8736 27.8875 25.678 27.892 25.4794C27.8964 25.2809 27.8606 25.0835 27.7866 24.8992C27.7126 24.7149 27.602 24.5475 27.4615 24.4072C27.3209 24.2668 27.1534 24.1564 26.969 24.0827C26.7846 24.0089 26.5872 23.9733 26.3886 23.9781C26.1096 23.9587 25.8306 23.9587 25.5554 23.9509L15.5216 23.6719C13.483 23.6137 11.4406 23.5556 9.39821 23.5091C8.35182 23.4858 7.75885 24.0827 7.75497 25.133V25.6794C7.75497 26.8421 8.32468 27.3885 9.47572 27.3614C12.2144 27.2916 14.9661 27.218 17.7306 27.1405ZM13.6652 28.4272H13.2234C11.8941 28.4582 10.5648 28.5086 9.23544 28.5163C8.6068 28.5354 7.99305 28.3229 7.51078 27.9193C7.0285 27.5156 6.7113 26.9488 6.61944 26.3266C6.57287 25.8942 6.56121 25.4587 6.58456 25.0244C6.57355 24.6668 6.63647 24.3108 6.76937 23.9785C6.90227 23.6463 7.10229 23.3451 7.35693 23.0938C7.61156 22.8424 7.91535 22.6463 8.24924 22.5177C8.58314 22.3891 8.93998 22.3308 9.29745 22.3464C10.6384 22.3658 11.9793 22.4162 13.3203 22.4511H13.6497C13.0697 21.626 12.2555 20.9939 11.3124 20.6367C10.3692 20.2795 9.34059 20.2136 8.35956 20.4474C7.26924 20.7014 6.29213 21.3056 5.57765 22.1675C4.86317 23.0294 4.45066 24.1015 4.40319 25.22C4.35573 26.3386 4.67592 27.4418 5.31481 28.3612C5.9537 29.2805 6.87612 29.9652 7.941 30.3107C8.97153 30.6449 10.0817 30.6425 11.1107 30.3039C12.1398 29.9652 13.0344 29.308 13.6652 28.4272ZM23.8153 4.17785V15.3976C24.7415 15.3976 25.6445 15.3976 26.5514 15.3976C26.7272 15.415 26.9047 15.3928 27.0708 15.3326C27.2369 15.2723 27.3874 15.1757 27.5112 15.0496C27.635 14.9236 27.729 14.7714 27.7862 14.6042C27.8435 14.4371 27.8625 14.2592 27.842 14.0838C27.842 12.9366 27.842 11.7894 27.842 10.6423C27.842 8.90215 27.842 7.15428 27.842 5.42191C27.8569 5.27319 27.8418 5.123 27.7978 4.98018C27.7537 4.83736 27.6816 4.7048 27.5855 4.59031C27.4894 4.47582 27.3714 4.38172 27.2384 4.31354C27.1054 4.24537 26.9601 4.2045 26.8111 4.19335C25.8228 4.14297 24.8229 4.17785 23.8153 4.17785Z" fill="#B07FD8"/>
<path d="M13.4869 10.4058C13.4869 10.681 13.4869 10.9446 13.4869 11.2081C13.4928 11.2869 13.4823 11.3661 13.4561 11.4407C13.4299 11.5153 13.3886 11.5837 13.3348 11.6415C13.2809 11.6994 13.2157 11.7455 13.1431 11.7769C13.0706 11.8084 12.9924 11.8245 12.9133 11.8243C12.8345 11.8244 12.7564 11.8085 12.6839 11.7776C12.6113 11.7468 12.5457 11.7016 12.4911 11.6448C12.4364 11.5879 12.3938 11.5206 12.3658 11.4469C12.3378 11.3732 12.325 11.2946 12.3281 11.2158C12.3281 11.0841 12.3281 10.9484 12.3281 10.8283V10.402L11.9134 10.3787C11.9134 10.6655 11.9134 10.9252 11.9134 11.1848C11.9134 11.5918 11.6809 11.8359 11.3399 11.8359C11.258 11.8359 11.177 11.8186 11.1023 11.7851C11.0275 11.7516 10.9607 11.7027 10.9062 11.6416C10.8517 11.5805 10.8107 11.5086 10.7859 11.4305C10.7611 11.3525 10.7531 11.2701 10.7624 11.1887C10.7624 10.7663 10.7624 10.3438 10.7624 9.9214C10.7624 9.41758 10.9756 9.21993 11.4794 9.21993C13.1071 9.21993 14.7387 9.21993 16.3703 9.21993C16.4682 9.23459 16.5682 9.21374 16.652 9.16114C16.7359 9.10854 16.7982 9.02767 16.8276 8.93314C17.0181 8.50982 17.3489 8.16524 17.7642 7.95763C18.1794 7.75003 18.6535 7.69214 19.1065 7.79373C19.5622 7.89269 19.9704 8.14467 20.2632 8.50778C20.5559 8.87088 20.7155 9.32323 20.7155 9.78964C20.7155 10.256 20.5559 10.7084 20.2632 11.0715C19.9704 11.4346 19.5622 11.6866 19.1065 11.7855C18.6549 11.8897 18.1811 11.8339 17.7662 11.6274C17.3512 11.421 17.0208 11.0769 16.8315 10.6539C16.8006 10.5598 16.7372 10.4797 16.6528 10.4279C16.5683 10.3761 16.4682 10.3559 16.3703 10.371C15.4518 10.371 14.5333 10.371 13.6187 10.371C13.5739 10.3791 13.5298 10.3907 13.4869 10.4058ZM18.6453 8.90989C18.4136 8.91396 18.1928 9.00884 18.0305 9.17411C17.8681 9.33939 17.7771 9.56183 17.7771 9.79352C17.7831 10.0249 17.8785 10.245 18.0433 10.4076C18.208 10.5701 18.4293 10.6626 18.6608 10.6655C18.781 10.6735 18.9015 10.6567 19.0149 10.6162C19.1284 10.5757 19.2323 10.5124 19.3202 10.4301C19.4082 10.3478 19.4783 10.2483 19.5262 10.1378C19.5741 10.0273 19.5989 9.90814 19.5989 9.7877C19.5989 9.66725 19.5741 9.54809 19.5262 9.43759C19.4783 9.32709 19.4082 9.22762 19.3202 9.14532C19.2323 9.06303 19.1284 8.99966 19.0149 8.95916C18.9015 8.91867 18.781 8.9019 18.6608 8.90989H18.6453Z" fill="#662E93"/>
<path d="M25.2376 9.78191V6.63108C25.2376 6.17765 25.4585 5.90248 25.8112 5.8986C26.1638 5.89472 26.3964 6.16989 26.3964 6.61558C26.3964 8.73163 26.3964 10.8451 26.3964 12.956C26.3964 13.4094 26.1755 13.6691 25.8073 13.6613C25.4391 13.6536 25.2376 13.3978 25.2376 12.9366V9.78191Z" fill="#662E93"/>
</g>
<defs>
<clipPath id="clip0_129_256">
<rect width="29.0163" height="36" fill="white"/>
</clipPath>
</defs>
</svg>
