<svg width="37" height="36" viewBox="0 0 37 36" fill="none" xmlns="http://www.w3.org/2000/svg">
<g clip-path="url(#clip0_406_183)">
<path d="M0 32.2029V3.79796C0.0244951 3.75979 0.0440257 3.71866 0.0581188 3.67555C0.463187 1.45913 2.19265 0.00264175 4.44959 0.00264175C13.4861 -0.000880583 22.523 -0.000880583 31.5601 0.00264175C31.9112 -0.000942483 32.2615 0.035096 32.6045 0.110073C34.6826 0.590871 36.0062 2.31153 36.007 4.51299C36.007 11.7085 36.007 18.9035 36.007 26.0978C36.007 27.9471 36.0255 29.8016 36.0009 31.6526C35.9797 33.2904 35.2524 34.5664 33.8364 35.3889C33.3433 35.6751 32.7542 35.7983 32.2091 35.9956H12.1661C11.8879 35.8362 11.7021 35.6222 11.8139 35.2814C11.9257 34.9407 12.2058 34.9151 12.5025 34.9292C12.5959 34.9292 12.6901 34.9292 12.7834 34.9292H27.4099C27.4099 34.2159 27.3853 33.5608 27.4152 32.9039C27.4733 31.6605 26.6517 30.9005 25.4312 30.9085C20.4762 30.9411 15.5212 30.9217 10.5661 30.9217C10.4957 30.9217 10.4252 30.9217 10.3548 30.9217C9.30864 30.9402 8.62091 31.6085 8.59361 32.6599C8.576 33.3512 8.59361 34.0425 8.59361 34.7328C8.60015 34.7983 8.61223 34.8631 8.62971 34.9266C9.06208 34.9266 9.48212 34.9186 9.90128 34.9266C10.2377 34.9345 10.5045 35.1441 10.4569 35.4215C10.4226 35.624 10.2403 35.8019 10.1241 35.9903H3.79796C3.74765 35.964 3.69485 35.9428 3.64033 35.9269C2.2904 35.6883 1.24867 34.9829 0.587349 33.7897C0.316129 33.3054 0.191087 32.7374 0 32.2029ZM34.8975 28.5124C34.2318 28.5124 33.5669 28.5212 32.9021 28.508C32.5749 28.5164 32.2477 28.4869 31.9273 28.4199C30.5906 28.0677 29.8201 27.0286 29.8192 25.5924C29.8192 21.3163 29.8192 17.0399 29.8192 12.7632C29.8192 11.9706 29.8095 11.1702 29.8192 10.3733C29.8412 9.01981 30.6346 7.99129 31.9326 7.65843C32.2558 7.57478 32.6045 7.57037 32.9417 7.57037C33.5942 7.55716 34.2459 7.57037 34.8869 7.57037C34.8869 6.33756 34.9363 5.1567 34.8737 3.98112C34.7962 2.51671 33.5009 1.22841 32.0488 1.13859C31.0097 1.07519 29.9654 1.09721 28.9236 1.08136C28.7863 1.08136 28.6489 1.08136 28.4789 1.08136C28.4789 1.8457 28.4789 2.56954 28.4789 3.2925C28.4737 5.04222 27.3447 6.22308 25.5897 6.22924C20.5273 6.24686 15.463 6.23717 10.4023 6.23453C9.45834 6.23453 8.66934 5.8911 8.08551 5.12675C7.68573 4.60369 7.52282 4.00401 7.52282 3.35414C7.52282 2.60829 7.52282 1.86243 7.52282 1.13155C6.30233 1.13155 5.12059 1.08488 3.94413 1.143C2.51494 1.2152 1.20728 2.52903 1.12627 3.95558C1.0611 5.10034 1.084 6.2495 1.06903 7.3969C1.07647 7.4566 1.08914 7.51553 1.10689 7.57301C1.6916 7.57301 2.27455 7.56333 2.85749 7.57301C3.25375 7.58182 3.66323 7.56773 4.04364 7.66107C5.39533 7.98689 6.18345 9.04887 6.18522 10.4966C6.18522 14.0007 6.18522 17.5039 6.18522 21.0063C6.18522 22.5649 6.19314 24.1227 6.18522 25.6813C6.17553 27.0665 5.35835 28.1408 4.03571 28.4375C3.55227 28.545 3.03449 28.5089 2.53256 28.5256C2.05616 28.5379 1.57977 28.5256 1.1157 28.5256C1.1157 29.7346 1.06639 30.8926 1.12803 32.0479C1.20728 33.5115 2.50174 34.8006 3.9547 34.8887C5.02901 34.9539 6.10861 34.9319 7.18556 34.9459C7.28771 34.9459 7.39073 34.9345 7.5237 34.9257V34.547C7.5237 33.9139 7.5149 33.2816 7.5237 32.6494C7.55276 31.1075 8.6033 29.9927 10.1302 29.8703C10.2702 29.8597 10.4111 29.8526 10.552 29.8526C15.5203 29.8526 20.4888 29.8526 25.4577 29.8526C26.4545 29.8526 27.2963 30.1485 27.9162 30.9595C28.316 31.4826 28.4781 32.0832 28.4789 32.733V34.8817C29.6985 34.8817 30.8803 34.9283 32.0567 34.8702C33.4859 34.798 34.7936 33.4842 34.8746 32.0585C34.9389 30.9375 34.9169 29.8113 34.931 28.6876C34.9249 28.6284 34.9137 28.5697 34.8975 28.5124ZM27.3597 1.09192H8.64204C8.64204 2.01213 8.59889 2.91297 8.66582 3.80588C8.68871 4.11585 8.9432 4.44254 9.16687 4.69615C9.50413 5.07832 9.98581 5.14701 10.4877 5.14613C15.5012 5.14084 20.5146 5.14084 25.5281 5.14613C25.6338 5.14613 25.7394 5.14613 25.8442 5.1382C26.5707 5.09505 27.2831 4.55526 27.3412 3.8411C27.4178 2.93498 27.3597 2.02182 27.3597 1.09192ZM1.09368 8.65349V27.4161C1.97427 27.4161 2.82579 27.4161 3.67996 27.4161C3.73797 27.4106 3.79507 27.3979 3.84991 27.3782C4.67237 27.1519 5.11883 26.5126 5.11883 25.544C5.11883 20.5417 5.11883 15.5388 5.11883 10.5353C5.11903 10.348 5.10193 10.1611 5.06776 9.97701C4.94095 9.29015 4.33863 8.69664 3.64826 8.66494C2.80642 8.62355 1.96282 8.65349 1.09368 8.65349ZM34.9134 27.4161V8.6394H32.7823C31.5645 8.6394 30.8882 9.31305 30.8882 10.5318C30.8882 15.3239 30.8882 20.116 30.8882 24.9082C30.8882 25.1776 30.8785 25.4471 30.8882 25.7165C30.9305 26.6191 31.5108 27.3509 32.3244 27.4037C33.1768 27.4592 34.0337 27.4161 34.9134 27.4161Z" fill="#B07FD8"/>
<path d="M17.9991 32.3931H24.851C25.4101 32.3931 25.6734 32.5692 25.669 32.9302C25.6646 33.2913 25.4048 33.4647 24.8413 33.4647C20.2851 33.4647 15.7293 33.4647 11.1737 33.4647C11.0795 33.4647 10.9853 33.47 10.8928 33.4647C10.5406 33.4339 10.3266 33.212 10.3389 32.9056C10.3504 32.615 10.5635 32.4089 10.9025 32.401C11.4881 32.3887 12.0737 32.3957 12.6593 32.3957L17.9991 32.3931Z" fill="#662E93"/>
<path d="M26.7829 18.0175V25.5377C26.7829 26.4262 26.4307 26.7776 25.5501 26.7776H10.4384C9.57985 26.7776 9.22498 26.4192 9.22498 25.5562C9.22498 20.5193 9.22498 15.4823 9.22498 10.4454C9.22498 9.58154 9.57721 9.22314 10.4367 9.22314H25.5827C26.4175 9.22314 26.7776 9.58683 26.7776 10.4269C26.7823 12.9571 26.7841 15.4873 26.7829 18.0175ZM21.3101 22.0207H25.6743V21.2968H25.2727C24.9451 21.2968 24.6167 21.3074 24.29 21.2924C23.9378 21.2757 23.7106 21.0573 23.7079 20.7588C23.7053 20.4603 23.9307 20.248 24.2821 20.2243C24.4459 20.2137 24.6096 20.2199 24.7734 20.219H25.6875V19.4996H21.3101V20.2199C21.517 20.2199 21.702 20.2146 21.8869 20.2199C22.3025 20.2331 22.5359 20.4233 22.5394 20.7482C22.5429 21.0732 22.2937 21.2871 21.864 21.2959C21.6817 21.3003 21.4985 21.2959 21.3066 21.2959L21.3101 22.0207ZM10.3301 11.0688H14.6899V10.3344H10.3301V11.0688ZM15.8205 11.0688H20.1794V10.3344H15.8205V11.0688ZM21.3092 11.0688H25.6725V10.3327H21.3101L21.3092 11.0688ZM14.6899 12.8943V12.1898H10.3292V12.8943H14.6899ZM20.19 12.181H15.8249V12.8855H20.19V12.181ZM21.3057 12.8943H25.6769V12.1837H21.3101L21.3057 12.8943ZM10.3275 14.725H14.6908V14.0206H10.3275V14.725ZM15.8205 16.5487H20.1803V15.8442H15.8205V16.5487ZM25.6769 15.8442H21.318V16.5558H25.6769V15.8442ZM10.3283 18.3777H14.6908V17.6732H10.3283V18.3777ZM20.1909 17.6732H15.8249V18.3777H20.1891L20.1909 17.6732ZM25.6769 17.6732H21.318V18.3839H25.6751L25.6769 17.6732ZM10.3389 19.4863V20.1996H14.6943V19.4863H10.3389ZM20.1909 19.4987H15.8214V20.1935H20.1909V19.4987ZM25.676 14.01H21.3163V14.725H25.676V14.01ZM20.1891 14.0144H15.8311V14.7189H20.1891V14.0144ZM14.7004 15.8425H10.3283V16.547H14.7004V15.8425ZM10.3301 21.3118V22.0163H14.6899V21.3118H10.3301ZM15.832 21.3118V22.0215H20.1821V21.3118H15.832ZM14.6925 23.8505V23.146H10.3398V23.8505H14.6925ZM15.8197 23.8505H20.1812V23.1513H15.8197V23.8505ZM25.6743 23.8505V23.146H21.3207V23.8505H25.6743ZM14.6987 24.9803H10.3336V25.668H14.6987V24.9803ZM20.1882 24.9697H15.8258V25.6663H20.1882V24.9697ZM25.6875 24.9697H21.3189V25.6628H25.6875V24.9697Z" fill="#662E93"/>
<path d="M28.5608 18.0037C28.5608 20.5821 28.5608 23.1601 28.5608 25.7379C28.5608 27.5087 27.5138 28.5557 25.743 28.5557H10.2702C8.49674 28.5557 7.44708 27.5114 7.44708 25.744C7.44708 20.5779 7.44708 15.4101 7.44708 10.2405C7.44708 8.49693 8.50378 7.44991 10.2535 7.44727C10.8866 7.44727 11.5198 7.44727 12.152 7.44727C12.5624 7.44727 12.801 7.64981 12.8019 7.97562C12.8028 8.30144 12.5624 8.50838 12.1564 8.5119C11.4766 8.5163 10.7968 8.5119 10.117 8.5119C9.13868 8.5207 8.51523 9.14151 8.51523 10.1242C8.51171 15.3743 8.51171 20.624 8.51523 25.8735C8.51523 26.8553 9.13956 27.4849 10.117 27.4849C15.3794 27.4891 20.642 27.4891 25.905 27.4849C26.8631 27.4849 27.49 26.8536 27.49 25.8937C27.4941 20.6325 27.4941 15.3711 27.49 10.1093C27.49 9.1195 26.8551 8.5119 25.8381 8.5119C22.2641 8.5119 18.6895 8.5119 15.1143 8.5119C15.0201 8.5119 14.9259 8.5119 14.8325 8.5119C14.4257 8.50133 14.1915 8.30232 14.195 7.97034C14.1985 7.63836 14.4283 7.44727 14.8466 7.44727C18.5389 7.44727 22.2303 7.43847 25.9226 7.44727C27.4848 7.45256 28.552 8.54712 28.5564 10.1269C28.5661 12.7545 28.5608 15.3787 28.5608 18.0037Z" fill="#B07FD8"/>
<path d="M17.9895 3.45819H11.1729C11.0554 3.46194 10.9378 3.459 10.8206 3.44939C10.5212 3.41416 10.3522 3.2354 10.3407 2.94041C10.3293 2.64541 10.4931 2.47722 10.7625 2.41206C10.8892 2.38994 11.0181 2.38285 11.1464 2.39092H24.8518C24.91 2.39092 24.969 2.39092 25.028 2.39092C25.4295 2.40149 25.6734 2.60755 25.6699 2.93248C25.6664 3.25742 25.4269 3.45555 25.0174 3.45643C22.6745 3.45937 20.3318 3.45995 17.9895 3.45819Z" fill="#662E93"/>
<path d="M2.47534 17.904C2.47534 15.6327 2.47534 13.3614 2.47534 11.0901C2.47217 10.9502 2.48279 10.8104 2.50704 10.6727C2.53038 10.5525 2.59534 10.4444 2.69049 10.3674C2.78565 10.2904 2.9049 10.2493 3.0273 10.2515C3.1497 10.2538 3.2674 10.299 3.35971 10.3794C3.45203 10.4598 3.51304 10.5702 3.53204 10.6911C3.55067 10.8183 3.55921 10.9466 3.55757 11.0751C3.55757 15.6295 3.55757 20.1838 3.55757 24.7382C3.55757 25.3018 3.38762 25.566 3.02922 25.5712C2.67083 25.5765 2.47798 25.3009 2.47798 24.718C2.47504 22.4466 2.47416 20.1753 2.47534 17.904Z" fill="#662E93"/>
<path d="M32.3711 17.89V11.076C32.3711 10.501 32.5305 10.2553 32.8995 10.2491C33.2684 10.243 33.4534 10.4975 33.4534 11.0901C33.4534 15.6321 33.4534 20.1745 33.4534 24.7171C33.4534 24.88 33.478 25.0817 33.3952 25.1944C33.279 25.3547 33.0712 25.5466 32.9048 25.5466C32.7383 25.5466 32.542 25.345 32.4231 25.1847C32.3456 25.0808 32.3711 24.8923 32.3711 24.7444C32.37 22.4578 32.37 20.173 32.3711 17.89Z" fill="#662E93"/>
</g>
<defs>
<clipPath id="clip0_406_183">
<rect width="36.0141" height="36" fill="white"/>
</clipPath>
</defs>
</svg>
