<svg width="16" height="15" viewBox="0 0 16 15" fill="none" xmlns="http://www.w3.org/2000/svg">
<g clip-path="url(#clip0_195_234)">
<path d="M16 8.87791L15.75 9.05583V9.19249C15.75 10.7183 15.75 12.244 15.75 13.7696C15.75 13.8671 15.765 13.9646 15.7746 14.0612C15.7867 14.1804 15.7238 14.2471 15.6183 14.2792C15.5825 14.2858 15.5458 14.2872 15.5096 14.2833H12.8083C12.6088 14.2833 12.5625 14.2362 12.5625 14.0333V9.02374C12.3408 8.96291 12.3125 8.92541 12.3125 8.69624C12.3125 8.51958 12.3192 8.34208 12.3104 8.16541C12.3025 8.00082 12.3575 7.89291 12.5462 7.86333C12.5108 7.75249 12.4783 7.65124 12.4588 7.59124C12.1183 7.59124 11.805 7.59833 11.4925 7.58749C11.3838 7.58333 11.3429 7.48833 11.3438 7.38249C11.3438 7.23166 11.3438 7.08124 11.3438 6.90833H10.8904C10.6092 6.90833 10.3279 6.91166 10.0471 6.90624C9.95958 6.90624 9.92417 6.93124 9.89417 7.01624C9.8458 7.16078 9.75227 7.28594 9.62735 7.37326C9.50244 7.46059 9.35277 7.50546 9.20042 7.50124C8.59625 7.50374 7.99222 7.50374 7.38833 7.50124C7.04792 7.50124 6.80833 7.32416 6.68708 7.00541C6.6725 6.96666 6.62583 6.91291 6.59333 6.91249C5.95417 6.90707 5.31458 6.90833 4.65625 6.90833C4.65625 7.06833 4.65625 7.21749 4.65625 7.36666C4.65333 7.53333 4.59417 7.59333 4.43 7.59499C4.21167 7.59791 3.99292 7.59874 3.77417 7.59499C3.70182 7.58657 3.63023 7.57264 3.56 7.55333C3.52833 7.63999 3.49167 7.74041 3.44625 7.86374C3.6925 7.88749 3.69625 8.05166 3.68917 8.22833C3.68292 8.38416 3.68917 8.54083 3.68917 8.69708C3.68917 8.92541 3.66083 8.96333 3.43917 9.02416V14.0042C3.43917 14.2508 3.40583 14.2842 3.16208 14.2842H0.504583C0.264583 14.2842 0.212917 14.2221 0.247083 13.9879C0.250357 13.9569 0.251332 13.9257 0.25 13.8946V9.05541L0 8.87791V8.00291L0.288333 7.82374C0.3325 7.60874 0.371667 7.34666 0.44125 7.09249C0.6625 6.28083 1.06083 5.57458 1.70542 5.01833C2.19625 4.59541 2.75917 4.35833 3.41042 4.34083C3.44625 4.34083 3.48208 4.33374 3.51625 4.33041C3.56083 4.09707 3.59958 4.06583 3.84 4.06541C4.0325 4.06541 4.22542 4.06541 4.41792 4.06541C4.59417 4.06541 4.65292 4.12499 4.65583 4.29791C4.65583 4.43249 4.65583 4.56708 4.65583 4.71082C4.70042 4.71499 4.735 4.72083 4.76958 4.72083C5.35792 4.72083 5.94667 4.72083 6.535 4.72291C6.62542 4.72291 6.6675 4.70249 6.69875 4.60666C6.79417 4.31291 7.04958 4.13624 7.36167 4.12833C7.475 4.12541 7.58833 4.12833 7.71833 4.12833C7.71833 3.99666 7.73042 3.87833 7.71208 3.76124C7.70458 3.71374 7.63833 3.66041 7.58708 3.63624C6.53208 3.16999 6.11625 1.89458 6.70458 0.919575C7.12417 0.224575 7.94208 -0.132091 8.71542 0.0445753C9.53833 0.230825 10.1233 0.877909 10.2121 1.70249C10.2517 2.09403 10.1671 2.4881 9.97024 2.82888C9.77341 3.16967 9.47435 3.43988 9.11542 3.60124C8.94208 3.67791 8.87333 3.76458 8.90458 3.94374C8.90948 4.00517 8.90948 4.0669 8.90458 4.12833H9.17875C9.52458 4.13124 9.77375 4.30458 9.9025 4.62249C9.91875 4.66416 9.9725 4.71708 10.01 4.71749C10.4467 4.72416 10.885 4.72208 11.3433 4.72208C11.3433 4.58083 11.3433 4.44749 11.3433 4.31416C11.3433 4.12166 11.4008 4.06708 11.5971 4.06624C11.7846 4.06624 11.9721 4.06624 12.1596 4.06624C12.3996 4.06624 12.4379 4.09749 12.4796 4.31291C12.7246 4.35249 12.9708 4.37083 13.2046 4.43416C14.0825 4.67333 14.6754 5.26749 15.1213 6.02874C15.433 6.56621 15.6274 7.16363 15.6917 7.78166C15.6921 7.79441 15.6944 7.80703 15.6983 7.81916L16 8.00291V8.87791ZM3.05583 9.01416H0.639167V13.9008H3.05583V9.01416ZM12.9487 9.00958V13.8962H15.3654V9.00958H12.9487ZM3.06708 7.87291C3.17125 7.47041 3.17208 7.47124 3.50208 7.05541C3.523 7.02086 3.53275 6.9807 3.53 6.94041C3.53167 6.2218 3.53167 5.50305 3.53 4.78416C3.52743 4.76092 3.52297 4.73793 3.51667 4.71541C2.96918 4.69457 2.43431 4.88304 2.02083 5.24249C1.37333 5.78999 0.985417 6.49499 0.779584 7.30791C0.733334 7.48999 0.707084 7.67749 0.669584 7.87291H3.06708ZM12.9242 7.86916H15.3083C15.3115 7.82533 15.3115 7.78132 15.3083 7.73749C15.1971 7.02666 14.9483 6.37124 14.5075 5.79708C14.1554 5.33874 13.7388 4.95791 13.1646 4.80374C12.9442 4.74458 12.7125 4.72791 12.4696 4.68958C12.4696 5.48124 12.4696 6.22499 12.4696 6.96874C12.4695 7.00406 12.4833 7.038 12.5079 7.06333C12.7675 7.26624 12.8692 7.54999 12.9242 7.86916ZM9.5625 5.83124C9.5625 5.51916 9.5625 5.20624 9.5625 4.89458C9.5625 4.64458 9.42625 4.50458 9.17958 4.50374C8.59153 4.5018 8.00361 4.5018 7.41583 4.50374C7.16875 4.50374 7.03292 4.64333 7.03208 4.89374C7.03042 5.50791 7.03042 6.12208 7.03208 6.73624C7.03208 6.99291 7.17 7.12666 7.43042 7.12749C8.00792 7.12749 8.58556 7.12749 9.16333 7.12749C9.43 7.12749 9.56125 6.99207 9.5625 6.72124C9.56333 6.42458 9.5625 6.12791 9.5625 5.83124ZM9.84333 1.87791C9.84333 1.04458 9.16042 0.377909 8.30833 0.377909C8.11126 0.376123 7.91582 0.41367 7.73344 0.488352C7.55106 0.563033 7.38541 0.673349 7.24619 0.812839C7.10697 0.95233 6.99698 1.11819 6.92266 1.30072C6.84833 1.48324 6.81116 1.67876 6.81333 1.87583C6.81542 2.69958 7.42958 3.40541 8.31333 3.40458C9.20833 3.40416 9.83875 2.68749 9.84333 1.87791ZM4.66667 5.10374V6.52041H6.64708V5.10374H4.66667ZM11.3333 6.52791V5.10416H9.94625V6.52791H11.3333ZM3.30542 8.26374H0.38875V8.61999H3.30542V8.26374ZM15.6179 8.26374H12.7013V8.61958H15.6179V8.26374ZM3.91667 4.44749V7.21374H4.27167V4.44749H3.91667ZM11.7271 4.44749V7.21374H12.0833V4.44749H11.7271ZM8.52417 3.79124H8.10417V4.11666H8.52583L8.52417 3.79124Z" fill="#B07FD8"/>
<path d="M9.05959 10.3153C9.38459 10.1837 9.58667 9.94824 9.73459 9.65741C9.75584 9.61574 9.76292 9.56407 9.79209 9.53241C9.85001 9.46657 9.91084 9.37657 9.98501 9.35907C10.1046 9.33074 10.1796 9.43491 10.2 9.54074C10.2538 9.81991 10.3221 10.1016 10.3288 10.3837C10.3354 10.6753 10.2767 10.9716 10.2454 11.2807C10.4058 11.2737 10.54 11.1849 10.6704 11.0837C10.8408 10.952 10.9725 10.9849 11.0096 11.1982C11.1892 12.2307 11.0625 13.1941 10.2371 13.9328C9.89623 14.2414 9.48491 14.4616 9.03917 14.5742C8.59343 14.6868 8.12687 14.6884 7.68037 14.5788C7.23387 14.4692 6.82107 14.2518 6.47813 13.9456C6.1352 13.6393 5.8726 13.2537 5.71334 12.8224C5.49959 12.2587 5.40042 11.6845 5.60001 11.1003C5.66667 10.9057 5.79167 10.7295 5.91667 10.5653C5.96417 10.5037 6.09001 10.4732 6.17542 10.482C6.21709 10.4862 6.26417 10.6037 6.28459 10.6766C6.33709 10.8628 6.40959 11.027 6.61126 11.1212C6.64792 10.9095 6.67376 10.7045 6.71876 10.507C6.93667 9.54866 7.49209 8.84032 8.33667 8.35282C8.39917 8.31657 8.53334 8.31574 8.57667 8.35782C8.62959 8.40949 8.65292 8.52949 8.63667 8.60782C8.52584 9.16074 8.60501 9.67324 8.92834 10.1412C8.96459 10.1991 9.00917 10.2499 9.05959 10.3153ZM9.93459 10.0828C9.70501 10.382 9.44834 10.5828 9.12626 10.6999C9.07887 10.721 9.02589 10.7261 8.97535 10.7144C8.92482 10.7026 8.87949 10.6747 8.84626 10.6349C8.51616 10.3108 8.30431 9.88532 8.24459 9.42657C8.22084 9.24532 8.21542 9.06157 8.20292 8.87907L8.16334 8.85282C7.94959 9.08407 7.71251 9.29824 7.52751 9.55074C7.16626 10.0437 7.02334 10.6174 7.00209 11.2224C6.99209 11.5074 6.91876 11.5691 6.63834 11.5228C6.50547 11.5058 6.37949 11.4539 6.27321 11.3724C6.16694 11.2908 6.08417 11.1826 6.03334 11.0587C5.66667 11.6932 5.94876 12.857 6.62501 13.5653C7.35584 14.3299 8.53167 14.4753 9.56667 13.9287C10.4517 13.4607 10.8388 12.5145 10.6838 11.5953C10.4658 11.6078 10.2513 11.6432 10.0408 11.6253C9.83042 11.6074 9.78376 11.5003 9.83251 11.2966C9.92417 10.9103 9.97792 10.5207 9.93542 10.0812L9.93459 10.0828Z" fill="#662E93"/>
<path d="M8.31666 3.00243C8.09396 3.00334 7.876 2.93813 7.6904 2.81507C7.50479 2.692 7.35988 2.51662 7.27403 2.31114C7.18818 2.10565 7.16524 1.87931 7.20813 1.66078C7.25102 1.44225 7.35781 1.24137 7.51496 1.08357C7.67211 0.925779 7.87255 0.818177 8.09091 0.774396C8.30926 0.730615 8.53569 0.752625 8.74153 0.837637C8.94736 0.922649 9.12333 1.06684 9.24715 1.25194C9.37097 1.43705 9.43707 1.65473 9.43707 1.87743C9.43763 2.17518 9.31991 2.46095 9.1098 2.67192C8.89969 2.88288 8.6144 3.00177 8.31666 3.00243ZM7.56291 1.87743C7.5625 2.02598 7.6062 2.17131 7.68849 2.29498C7.77078 2.41865 7.88795 2.5151 8.02513 2.5721C8.1623 2.6291 8.31332 2.64408 8.45902 2.61514C8.60472 2.5862 8.73855 2.51464 8.84353 2.40954C8.94851 2.30445 9.01992 2.17054 9.04869 2.02481C9.07747 1.87907 9.06233 1.72807 9.00517 1.59096C8.94802 1.45385 8.85144 1.33679 8.72768 1.25464C8.60391 1.17249 8.45854 1.12894 8.30999 1.12952C8.11312 1.13335 7.92538 1.21324 7.78611 1.35243C7.64684 1.49162 7.56685 1.67932 7.56291 1.87618V1.87743Z" fill="#662E93"/>
</g>
<defs>
<clipPath id="clip0_195_234">
<rect width="16" height="14.6579" fill="white"/>
</clipPath>
</defs>
</svg>
