<svg width="16" height="16" viewBox="0 0 16 16" fill="none" xmlns="http://www.w3.org/2000/svg">
<g clip-path="url(#clip0_245_216)">
<path d="M12.3083 0C12.5921 0.33125 12.8821 0.6575 13.1583 0.995C13.9917 2.01208 14.7604 3.07333 15.325 4.26667C15.6413 4.93333 15.8833 5.62208 15.87 6.3775C15.84 8.08792 14.4767 9.60542 12.7788 9.81708C12.2925 9.88308 11.7979 9.85034 11.3246 9.72083C11.2804 9.70833 11.2371 9.69167 11.1854 9.67417L11.335 9.21208C11.5483 9.24875 11.7517 9.29542 11.9546 9.31708C13.8996 9.54625 15.5829 7.85458 15.3329 5.91708C15.2571 5.33375 15.0292 4.79417 14.7617 4.27417C14.165 3.115 13.3929 2.07583 12.5592 1.08C12.4725 0.976667 12.3833 0.87625 12.28 0.756667C12.0208 1.07292 11.765 1.37375 11.5213 1.68375C10.8829 2.495 10.2913 3.3375 9.82 4.25917C9.78209 4.33292 9.75834 4.38417 9.83834 4.45958C10.4613 5.04292 10.7629 5.76625 10.7471 6.62042C10.7471 6.66708 10.7471 6.71333 10.7471 6.75708C11.1696 6.88542 11.2633 7.01333 11.2625 7.45542C11.2663 7.59076 11.2633 7.72622 11.2533 7.86125C11.2438 7.98499 11.1876 8.10048 11.0961 8.18428C11.0045 8.26808 10.8845 8.31392 10.7604 8.3125C9.90098 8.31667 9.04139 8.31667 8.18167 8.3125C7.89 8.3125 7.68584 8.09583 7.67875 7.80417C7.67542 7.65833 7.67875 7.5125 7.67875 7.36667C7.67875 7.01333 7.8225 6.84083 8.18584 6.77083C8.18584 6.6975 8.18792 6.62083 8.18584 6.54417C8.17959 6.3675 8.09417 6.2725 7.915 6.27C7.50375 6.26458 7.0925 6.27 6.67125 6.27C6.65792 6.31458 6.64542 6.35792 6.6325 6.40083C6.56417 6.6275 6.38709 6.77792 6.15292 6.77917C5.28848 6.78333 4.42389 6.78333 3.55917 6.77917C3.45092 6.7798 3.34568 6.7436 3.26072 6.67651C3.17577 6.60943 3.11615 6.51544 3.09167 6.41C3.065 6.2925 3.01417 6.26667 2.90292 6.26708C2.00167 6.27125 1.10084 6.26917 0.199587 6.26917H0.00375366V3.71583H3.05C3.09834 3.40625 3.26625 3.225 3.58042 3.1825C3.58042 3.02667 3.58042 2.87667 3.58042 2.72667C3.58334 2.41583 3.71709 2.25042 4.02292 2.175C4.0425 2.17 4.06125 2.16083 4.08125 2.15375V1.65625H3.12542C2.75709 1.65625 2.55667 1.45458 2.555 1.08667C2.555 0.935417 2.55209 0.784167 2.555 0.633333C2.56125 0.341667 2.76917 0.125 3.05709 0.124166C4.25542 0.121389 5.45348 0.121389 6.65125 0.124166C6.7167 0.122165 6.78189 0.133269 6.84299 0.156824C6.90408 0.180379 6.95985 0.215911 7.00702 0.26133C7.05418 0.306749 7.09179 0.361139 7.11764 0.421303C7.14348 0.481466 7.15703 0.546189 7.1575 0.611666C7.16584 0.79375 7.16584 0.976667 7.1575 1.15833C7.14542 1.45 6.93625 1.6525 6.64292 1.65583C6.30959 1.65958 5.97625 1.65583 5.63375 1.65583V2.15208C5.66209 2.16083 5.69542 2.17375 5.73 2.18208C5.98375 2.24458 6.13042 2.4275 6.13875 2.70208C6.14334 2.8575 6.13875 3.01333 6.13875 3.17875C6.43917 3.23 6.6225 3.39458 6.65625 3.70167C7.56 3.74833 8.48959 3.55708 9.31792 4.08125C9.33928 4.05448 9.3593 4.02666 9.37792 3.99792C10.1371 2.55458 11.1221 1.27458 12.2171 0.0741666C12.2379 0.05125 12.255 0.0258331 12.2742 0.00166639L12.3083 0ZM3.59334 3.71667V6.25583H6.13167V3.71667H3.59334ZM8.70209 6.77125H10.2196C10.2267 6.76039 10.2323 6.74862 10.2363 6.73625C10.3346 5.58375 9.56959 4.49417 8.43542 4.29125C7.86417 4.18875 7.265 4.24125 6.67875 4.22458C6.67125 4.22458 6.66375 4.2375 6.65959 4.24125V5.7525H6.82042C7.17959 5.7525 7.53875 5.74917 7.89792 5.7525C8.37 5.75792 8.68709 6.07333 8.70209 6.54667C8.70417 6.61917 8.70209 6.69083 8.70209 6.77125ZM3.05834 4.22917H0.51667V5.74167H3.05834V4.22917ZM8.19292 7.79417H10.7404V7.30208H8.19084L8.19292 7.79417ZM4.1 2.68917V3.18H5.61334V2.68917H4.1ZM3.06834 1.14083H4.10459V0.644167H3.06834V1.14083ZM5.61 1.14833H6.64167V0.630833H5.60917L5.61 1.14833ZM4.61 2.15292H5.10459V1.66667H4.61084L4.61 2.15292ZM4.86 0.6325C4.80963 0.631458 4.76007 0.645339 4.71757 0.672394C4.67507 0.69945 4.64151 0.738472 4.62113 0.78455C4.60076 0.830629 4.59446 0.881706 4.60304 0.931355C4.61162 0.981003 4.63469 1.02701 4.66935 1.06357C4.70401 1.10014 4.74871 1.12564 4.79783 1.13686C4.84695 1.14808 4.89829 1.14453 4.94539 1.12664C4.9925 1.10876 5.03326 1.07734 5.06255 1.03635C5.09184 0.99535 5.10835 0.946607 5.11 0.89625C5.11013 0.829025 5.08459 0.764289 5.03858 0.715268C4.99258 0.666247 4.9296 0.636641 4.8625 0.6325H4.86Z" fill="#B07FD8"/>
<path d="M9.30833 16C9.26667 15.9808 9.225 15.9583 9.18333 15.9429C9.01579 15.8765 8.87703 15.7532 8.79149 15.5946C8.70594 15.436 8.67911 15.2523 8.7157 15.0758C8.7523 14.8994 8.84998 14.7415 8.99154 14.63C9.1331 14.5184 9.30947 14.4605 9.48958 14.4662C9.85792 14.4729 10.1562 14.7341 10.2246 15.1087C10.254 15.2847 10.2209 15.4655 10.1309 15.6196C10.0409 15.7738 9.89982 15.8915 9.73208 15.9525C9.69375 15.9666 9.65708 15.9841 9.61958 16H9.30833ZM9.72125 15.2275C9.72109 15.1938 9.71423 15.1605 9.70106 15.1295C9.68789 15.0986 9.66868 15.0705 9.64455 15.047C9.62043 15.0236 9.59186 15.0051 9.56053 14.9928C9.5292 14.9805 9.49573 14.9746 9.46208 14.9754C9.39426 14.9791 9.33057 15.0092 9.28452 15.0591C9.23847 15.1091 9.21369 15.175 9.21542 15.2429C9.2192 15.308 9.24751 15.3694 9.29467 15.4145C9.34182 15.4596 9.40431 15.4853 9.46958 15.4862C9.50323 15.4863 9.53656 15.4797 9.56758 15.4666C9.59859 15.4536 9.62665 15.4344 9.65007 15.4102C9.67349 15.3861 9.6918 15.3574 9.70388 15.326C9.71597 15.2946 9.7216 15.2611 9.72042 15.2275H9.72125Z" fill="#662E93"/>
<path d="M12.2962 8.3245C13.3496 8.29408 14.28 7.51992 14.3512 6.27783H14.8246C14.9188 7.5145 13.7392 8.87116 12.2962 8.81075V8.3245Z" fill="#B07FD8"/>
<path fill-rule="evenodd" clip-rule="evenodd" d="M8.19833 9.84509H8.70208C8.70208 9.78045 8.70215 9.71643 8.70222 9.65289C8.70248 9.40104 8.70274 9.15689 8.69875 8.91301C8.6951 8.89529 8.68698 8.87878 8.67517 8.86508C8.66336 8.85138 8.64824 8.84091 8.63125 8.83468C8.52477 8.82879 8.41805 8.82959 8.31042 8.83038C8.27318 8.83066 8.23582 8.83093 8.19833 8.83093V9.84509ZM9.21375 8.84135V10.8726C8.49292 10.903 8.2925 10.9843 7.76 11.4522L7.75096 11.4602C7.67307 11.5297 7.59424 11.6 7.51 11.663C7.30395 11.821 7.05131 11.9063 6.79165 11.9054C6.53198 11.9044 6.27995 11.8175 6.075 11.658C5.97653 11.5822 5.88345 11.5 5.79014 11.4177C5.73894 11.3725 5.68768 11.3273 5.63542 11.283C5.16375 10.8868 4.62542 10.7905 4.03875 10.9426C3.69249 11.0322 3.43409 11.2633 3.1763 11.4939L3.14375 11.523C2.56375 12.0426 1.95583 12.038 1.36958 11.523C1.19203 11.3629 1.0029 11.2161 0.80375 11.0839C0.564167 10.9293 0.291667 10.8747 0 10.8814V11.3959C0.446624 11.371 0.741096 11.6392 1.03568 11.9075L1.06875 11.9376C1.13087 11.9931 1.19582 12.0454 1.26333 12.0943C1.55122 12.3047 1.89838 12.4184 2.25495 12.4191C2.61151 12.4199 2.95915 12.3076 3.24792 12.0984C3.38727 11.9974 3.51876 11.886 3.64125 11.7651C3.75572 11.6469 3.89271 11.5528 4.04413 11.4884C4.19556 11.424 4.35835 11.3905 4.5229 11.3901C4.68746 11.3896 4.85044 11.4221 5.00222 11.4857C5.15401 11.5492 5.29153 11.6425 5.40667 11.7601C5.76083 12.1097 6.15542 12.3918 6.67958 12.4076C6.62958 12.948 6.78 13.2522 7.155 13.3905C7.31759 13.4506 7.49577 13.4537 7.66034 13.3992C7.82491 13.3448 7.96612 13.2361 8.06083 13.0909C8.27667 12.763 8.21708 12.4163 7.88083 12.0413C8.40458 11.5018 8.82083 11.3072 9.21916 11.4255V12.4051H9.72542V11.5789C9.77191 11.6192 9.81523 11.6574 9.85657 11.6939C9.95414 11.7801 10.0406 11.8565 10.1317 11.9268C10.1692 11.9534 10.1992 11.9893 10.2187 12.031C10.2382 12.0727 10.2466 12.1188 10.2429 12.1647C10.2392 12.5668 10.2396 12.969 10.2401 13.3713C10.2403 13.5055 10.2404 13.6397 10.2404 13.7739V13.9405H10.7517V12.3397L11.355 12.4301C11.1492 13.2797 11.4629 13.9389 12.1737 14.1526C12.489 14.247 12.8285 14.2169 13.1222 14.0684C13.4159 13.92 13.6415 13.6645 13.7525 13.3547C13.9479 12.8159 13.7787 11.973 12.8454 11.673C12.8718 11.647 12.8996 11.6226 12.9288 11.5997C13.3387 11.303 13.9296 11.3184 14.3408 11.6414C14.4271 11.709 14.5102 11.7807 14.5933 11.8523C14.6955 11.9406 14.7978 12.0288 14.9058 12.1093C15.1806 12.3195 15.5216 12.4243 15.8671 12.4047V11.9047C15.4912 11.9072 15.205 11.7301 14.9475 11.488C14.8562 11.4022 14.7621 11.3197 14.6633 11.243C14.0158 10.7418 13.1667 10.7484 12.5287 11.2605C12.4604 11.3157 12.3939 11.374 12.3274 11.4324C12.2293 11.5184 12.131 11.6046 12.0262 11.6813C11.68 11.9355 11.2983 11.9597 10.8979 11.8251C10.7904 11.7884 10.7487 11.7297 10.7487 11.6093C10.7531 10.9608 10.7526 10.3124 10.752 9.66395C10.7518 9.44781 10.7517 9.23167 10.7517 9.01552V8.83969H10.24V11.3155C10.1953 11.2868 10.153 11.2584 10.112 11.2309C10.0182 11.1679 9.93128 11.1096 9.83875 11.0626C9.74958 11.0172 9.725 10.9643 9.725 10.8697C9.72639 10.4564 9.72593 10.0432 9.72546 9.63003C9.72523 9.42341 9.725 9.21678 9.725 9.0101V8.84135H9.21375ZM13.1806 12.5009C13.2645 12.6275 13.309 12.7762 13.3083 12.928C13.307 13.1302 13.2261 13.3237 13.083 13.4666C12.94 13.6095 12.7464 13.6903 12.5442 13.6914C12.3923 13.6918 12.2437 13.6472 12.1172 13.5631C11.9907 13.479 11.8921 13.3593 11.8338 13.219C11.7755 13.0788 11.7601 12.9244 11.7897 12.7754C11.8192 12.6264 11.8924 12.4896 11.9999 12.3823C12.1073 12.2749 12.2442 12.2019 12.3932 12.1725C12.5422 12.1431 12.6966 12.1586 12.8368 12.2171C12.977 12.2756 13.0966 12.3744 13.1806 12.5009ZM7.51463 12.908C7.48361 12.9211 7.45032 12.9279 7.41667 12.928C7.3487 12.9284 7.28339 12.9017 7.2351 12.8538C7.18681 12.806 7.1595 12.741 7.15917 12.673C7.15883 12.6051 7.18551 12.5397 7.23334 12.4915C7.28116 12.4432 7.3462 12.4159 7.41417 12.4155C7.44782 12.4154 7.48117 12.4218 7.51232 12.4346C7.54348 12.4473 7.57182 12.466 7.59573 12.4897C7.61964 12.5134 7.63865 12.5415 7.65168 12.5726C7.66471 12.6036 7.6715 12.6369 7.67167 12.6705C7.67183 12.7042 7.66536 12.7375 7.65264 12.7687C7.63991 12.7998 7.62117 12.8282 7.5975 12.8521C7.57382 12.876 7.54566 12.895 7.51463 12.908Z" fill="#662E93"/>
<path d="M14.6 5.15088C14.6596 5.33171 14.7158 5.5013 14.7775 5.6888L14.2833 5.8163C14.2313 5.65921 14.18 5.50546 14.1233 5.3363L14.6 5.15088Z" fill="#B07FD8"/>
</g>
<defs>
<clipPath id="clip0_245_216">
<rect width="15.8717" height="16" fill="white"/>
</clipPath>
</defs>
</svg>
