<svg width="36" height="36" viewBox="0 0 36 36" fill="none" xmlns="http://www.w3.org/2000/svg">
<g clip-path="url(#clip0_406_167)">
<path d="M13.3594 -3.95775e-05C13.4456 0.0299604 13.5319 0.0637101 13.6191 0.0890226C14.1204 0.228182 14.5634 0.525414 14.8823 0.936531C15.2012 1.34765 15.3789 1.8507 15.3891 2.3709C15.4078 3.75277 15.4106 5.13559 15.3891 6.5184C15.375 7.46902 15 8.29215 14.3437 8.98402C13.935 9.41621 14.0897 10.2693 14.6569 10.4737C15.4134 10.7465 16.1925 10.9575 17.0006 11.2068C17.0091 11.0587 17.0203 10.949 17.0203 10.8384C17.0203 10.2056 17.01 9.57277 17.025 8.93996C17.0456 8.05871 17.6897 7.37715 18.5503 7.3734C21.8666 7.36027 25.1825 7.36027 28.4981 7.3734C28.6989 7.37339 28.8977 7.41312 29.083 7.49029C29.2683 7.56746 29.4366 7.68054 29.578 7.82302C29.7195 7.96551 29.8313 8.13457 29.9071 8.32048C29.9829 8.50638 30.0212 8.70545 30.0197 8.90621C30.0316 11.0975 30.0316 13.2884 30.0197 15.479C30.0215 15.6822 29.9831 15.8837 29.9065 16.0719C29.8299 16.2601 29.7168 16.4312 29.5736 16.5753C29.4304 16.7194 29.26 16.8337 29.0724 16.9116C28.8847 16.9894 28.6835 17.0292 28.4803 17.0287C27.4959 17.0465 26.5116 17.0343 25.5281 17.0353H25.125V18.494H25.5441C28.485 18.494 31.4259 18.5109 34.3669 18.4828C35.1291 18.4753 35.6859 18.69 35.9972 19.4081V21.7987C35.6841 22.5131 35.1291 22.725 34.3669 22.724C24.3044 22.7071 14.2437 22.7034 4.18499 22.7128H3.68906V23.1862C3.68906 27.1918 3.69062 31.1975 3.69374 35.2031C3.69374 35.5247 3.63937 35.7993 3.37218 36.0018H2.95031C2.68218 35.8003 2.62874 35.5256 2.62968 35.204C2.63593 31.204 2.63593 27.204 2.62968 23.204V22.7165C2.26968 22.7165 1.94343 22.6921 1.62093 22.7212C0.858742 22.7906 0.30843 22.5187 -0.00750732 21.8025V19.4062C0.30468 18.689 0.858743 18.4612 1.6228 18.4809C3.15655 18.5193 4.69218 18.4921 6.22687 18.4921H6.61874C6.61874 18.1734 6.60937 17.9043 6.61874 17.6362C6.63374 17.2762 6.83999 17.0606 7.14937 17.0615C7.45874 17.0625 7.65843 17.2706 7.66874 17.639C7.67624 17.9203 7.66874 18.1921 7.66874 18.464H11.0887V13.3265C10.9266 13.5084 10.8366 13.6078 10.7466 13.7109C10.1794 14.3559 9.65249 14.3896 8.99249 13.8215C8.60155 13.485 8.16374 13.1906 7.82905 12.8062C7.27312 12.1668 6.69843 12.1228 5.92874 12.4162C4.81968 12.839 4.15968 13.635 4.14749 14.835C4.14749 15.479 4.14749 16.1231 4.14749 16.7681C4.14749 17.1881 3.95999 17.4243 3.64031 17.4346C3.30374 17.444 3.09749 17.1956 3.09468 16.7634C3.09468 16.1662 3.09468 15.569 3.09468 14.9709C3.09468 13.1334 4.00124 11.9146 5.75437 11.3831C6.67124 11.1018 7.59187 10.8337 8.50406 10.5393C9.20812 10.3125 9.39281 9.51934 8.8903 8.99152C8.25374 8.32121 7.87218 7.52527 7.85906 6.59621C7.83656 5.16746 7.83656 3.7384 7.85906 2.30902C7.87124 1.46527 8.28937 0.809023 9.0028 0.369336C9.27655 0.201523 9.60281 0.119961 9.90562 -0.000976562L13.3594 -3.95775e-05ZM25.1044 15.9778C26.2087 15.9778 27.2728 15.9778 28.3359 15.9778C28.7887 15.9778 28.9687 15.7903 28.9687 15.3328C28.9687 13.2471 28.9687 11.1615 28.9687 9.0759C28.9687 8.59965 28.7897 8.41965 28.3078 8.41965C25.1203 8.41965 21.9328 8.41965 18.7453 8.41965C18.2503 8.41965 18.0769 8.59965 18.075 9.10309C18.075 9.87652 18.075 10.65 18.075 11.4234C18.075 12.7237 18.075 14.024 18.075 15.3243C18.075 15.7143 18.2269 15.9562 18.5334 15.9609C19.6584 15.9778 20.7759 15.9675 21.9394 15.9675C21.9394 15.5484 21.9272 15.1528 21.9394 14.759C21.9437 14.3403 22.1142 13.9405 22.4134 13.6475C22.7125 13.3545 23.1158 13.1923 23.5345 13.1967C23.9532 13.201 24.3531 13.3715 24.6461 13.6707C24.9391 13.9698 25.1012 14.3731 25.0969 14.7918C25.1109 15.1678 25.1044 15.5418 25.1044 15.9778ZM18.0366 19.5468H6.29718C4.69124 19.5468 3.08624 19.5562 1.48124 19.5393C1.13437 19.5393 1.02843 19.6518 1.04906 19.9846C1.07343 20.37 1.05468 20.7581 1.05468 21.1443C1.05468 21.6562 1.05468 21.6562 1.58343 21.6562H34.4128C34.4831 21.6562 34.5544 21.6506 34.6237 21.6562C34.8722 21.6796 34.9537 21.5625 34.9481 21.3225C34.9378 20.8893 34.9481 20.4562 34.9481 20.0221C34.9481 19.5468 34.9481 19.5459 34.455 19.5459L18.0366 19.5468ZM17.0231 12.3637C16.5609 12.0525 16.2075 12.1153 15.8269 12.4893C15.3019 13.0059 14.7169 13.4615 14.1497 13.9331C13.6322 14.3643 13.0837 14.3212 12.6234 13.83C12.4856 13.6828 12.3506 13.5337 12.1762 13.3434V18.4734H15.5512C15.5512 18.1921 15.5437 17.9212 15.5512 17.655C15.5634 17.28 15.7772 17.0521 16.0987 17.0615C16.4203 17.0709 16.5947 17.2818 16.6022 17.654C16.6087 17.9203 16.6022 18.1875 16.6022 18.4715H19.1794V17.0559C19.0863 17.0415 18.9923 17.0346 18.8981 17.0353C17.8106 17.159 16.9416 16.3856 17.0128 15.1003C17.0625 14.1787 17.0231 13.2525 17.0231 12.3637ZM14.3859 5.96152L14.3409 5.9559C14.3484 5.85072 14.3484 5.74514 14.3409 5.63996C14.3109 5.44309 14.3344 5.16277 14.2153 5.06715C13.4878 4.48215 12.6562 4.11934 11.7103 4.35934C10.8178 4.58621 9.94687 4.90121 9.07218 5.19277C9.02896 5.22074 8.99277 5.25829 8.96643 5.30252C8.94009 5.34674 8.9243 5.39645 8.9203 5.44777C8.90437 5.7984 8.90718 6.14996 8.9203 6.50059C8.97093 7.79621 9.95156 8.89965 11.1947 9.0684C12.5756 9.2559 13.8356 8.47684 14.2106 7.16902C14.3194 6.78184 14.3297 6.36465 14.3859 5.96152ZM14.3381 3.7809C14.3381 3.31215 14.3541 2.8434 14.3381 2.37465C14.3292 2.02481 14.185 1.69204 13.9359 1.44625C13.6868 1.20046 13.3521 1.06077 13.0022 1.05652C12.0784 1.04152 11.1547 1.04152 10.2309 1.05652C9.61312 1.0659 9.01874 1.51965 8.9578 2.11121C8.89218 2.75527 8.9428 3.41059 8.9428 4.1034C9.59905 3.88871 10.2272 3.68527 10.8553 3.4734C11.5444 3.2409 12.2494 3.1434 12.96 3.31496C13.4166 3.42934 13.8572 3.61684 14.3381 3.7809ZM24.0478 18.4837C24.0478 17.2228 24.0553 15.9946 24.0422 14.7665C24.0422 14.4693 23.8378 14.2921 23.5416 14.2809C23.2453 14.2696 23.0672 14.4487 23.0053 14.7356C22.9964 14.7936 22.9936 14.8523 22.9969 14.9109C22.9969 16.0359 22.9969 17.1609 22.9969 18.2859C23.0028 18.3528 23.0151 18.4191 23.0334 18.4837H24.0478ZM20.265 17.0493V18.4687H21.9159V17.0493H20.265ZM13.0537 9.88402C12.1097 10.2365 11.1787 10.2328 10.1991 9.89434C10.2544 10.1371 9.95905 10.3387 10.2769 10.5196C10.6819 10.7493 11.0747 11.0015 11.4787 11.2331C11.5159 11.2546 11.5571 11.268 11.5998 11.2723C11.6424 11.2767 11.6855 11.2719 11.7262 11.2584C12.2222 10.9771 12.7097 10.6865 13.2028 10.3959L13.0537 9.88402ZM15.0647 11.7675C14.6569 11.5912 14.2875 11.4262 13.9134 11.2753C13.8475 11.2665 13.7807 11.2825 13.7259 11.3203C13.3106 11.5593 12.8991 11.804 12.4547 12.0656L13.4419 13.155L15.0647 11.7675ZM10.8047 12.0656C10.3678 11.8021 9.97031 11.5593 9.56906 11.324C9.51255 11.2908 9.44547 11.2804 9.38156 11.295C9.00656 11.445 8.63155 11.6071 8.23687 11.7759L9.84374 13.1493L10.8047 12.0656Z" fill="#B07FD8"/>
<path d="M17.3672 35.9999C17.0972 35.9333 16.8263 35.8724 16.5591 35.7983C15.2468 35.4364 14.1186 34.5944 13.3983 33.4393C12.6779 32.2843 12.4181 30.9007 12.6703 29.563C13.1869 26.8105 15.7847 24.8849 18.5766 25.1821C21.2353 25.4633 23.3578 27.7387 23.4131 30.3646C23.475 33.1771 21.5513 35.5077 18.8194 35.9352C18.7535 35.951 18.6892 35.9726 18.6272 35.9999H17.3672ZM22.3631 30.5952C22.3657 29.7321 22.1123 28.8876 21.6348 28.1685C21.1573 27.4495 20.4773 26.8882 19.6808 26.5557C18.8842 26.2232 18.007 26.1344 17.16 26.3006C16.313 26.4668 15.5343 26.8805 14.9225 27.4893C14.3106 28.0981 13.8931 28.8747 13.7227 29.7209C13.5524 30.567 13.6368 31.4447 13.9654 32.2429C14.2939 33.0411 14.8518 33.7239 15.5685 34.2049C16.2852 34.6859 17.1284 34.9435 17.9916 34.9452C18.5643 34.9469 19.1318 34.8358 19.6616 34.618C20.1913 34.4003 20.673 34.0803 21.079 33.6763C21.485 33.2723 21.8074 32.7922 22.0277 32.2636C22.248 31.7349 22.362 31.168 22.3631 30.5952Z" fill="#662E93"/>
<path d="M32.625 35.9999C32.3569 35.7983 32.3034 35.5227 32.3044 35.2011C32.3119 31.7367 32.3137 28.2724 32.31 24.808C32.3045 24.6795 32.3143 24.5508 32.3391 24.4246C32.3595 24.3137 32.4191 24.214 32.5071 24.1436C32.5951 24.0731 32.7055 24.0368 32.8181 24.0411C32.9366 24.0276 33.0558 24.0597 33.1514 24.1309C33.247 24.2022 33.3119 24.3072 33.3328 24.4246C33.3583 24.5507 33.3684 24.6794 33.3628 24.808C33.3628 28.273 33.3647 31.7377 33.3684 35.2021C33.3684 35.5236 33.3141 35.7974 33.0469 35.9999H32.625Z" fill="#662E93"/>
<path d="M17.4731 31.6051C17.4731 31.0313 17.4684 30.4576 17.4731 29.8848C17.4778 29.4592 17.6606 29.2398 18 29.2407C18.3394 29.2417 18.5222 29.4582 18.5241 29.8876C18.5291 31.0576 18.5291 32.2282 18.5241 33.3995C18.5241 33.7951 18.3291 34.0201 18.015 34.0304C17.6869 34.0407 17.4787 33.8063 17.4741 33.3967C17.4684 32.7995 17.4731 32.2023 17.4731 31.6051Z" fill="#662E93"/>
<path d="M18.0084 27.1312C18.0755 27.1303 18.142 27.1429 18.2041 27.1681C18.2662 27.1933 18.3226 27.2307 18.37 27.278C18.4175 27.3254 18.455 27.3817 18.4803 27.4438C18.5056 27.5058 18.5183 27.5723 18.5175 27.6393C18.5223 27.7108 18.5122 27.7824 18.4879 27.8498C18.4636 27.9171 18.4256 27.9787 18.3763 28.0306C18.327 28.0825 18.2674 28.1236 18.2014 28.1513C18.1354 28.179 18.0643 28.1927 17.9927 28.1915C17.9211 28.1904 17.8505 28.1743 17.7855 28.1445C17.7204 28.1146 17.6622 28.0716 17.6146 28.0181C17.567 27.9647 17.531 27.9019 17.5089 27.8338C17.4868 27.7657 17.4791 27.6937 17.4863 27.6225C17.4878 27.5558 17.5026 27.4901 17.5298 27.4291C17.557 27.3682 17.596 27.3133 17.6446 27.2676C17.6932 27.2219 17.7504 27.1863 17.8128 27.1629C17.8753 27.1395 17.9418 27.1287 18.0084 27.1312Z" fill="#662E93"/>
</g>
<defs>
<clipPath id="clip0_406_167">
<rect width="36" height="36" fill="white"/>
</clipPath>
</defs>
</svg>
