<svg width="17" height="16" viewBox="0 0 17 16" fill="none" xmlns="http://www.w3.org/2000/svg">
<g clip-path="url(#clip0_191_195)">
<path d="M14.9776 10.8312C14.9776 11.5739 14.9737 12.3055 14.9797 13.037C14.9862 13.3452 14.8951 13.6476 14.7194 13.901C14.5219 14.1889 14.3356 14.485 14.1355 14.7715C14.0017 14.9553 13.9344 15.1792 13.9449 15.4062C13.953 15.5994 13.9449 15.7935 13.9449 16.0001H9.81395C9.81395 15.8086 9.80921 15.6128 9.81395 15.4148C9.82275 15.193 9.7471 14.976 9.60224 14.8077C9.437 14.6093 9.28683 14.398 9.11599 14.2053C8.87029 13.9277 8.75712 13.6028 8.71366 13.2414C8.62373 12.4832 8.51701 11.7276 8.41675 10.9707C8.41159 10.9337 8.39954 10.8979 8.38792 10.8502H1.40107C0.538311 10.8502 0 10.3136 0 9.45341V1.39683C0 0.536217 0.53745 0.000488281 1.40064 0.000488281H14.6179C15.4699 0.000488281 16.0099 0.538799 16.0103 1.38908V9.37897C16.0103 10.1703 15.7315 10.5653 14.9776 10.8312ZM14.9896 10.2658C15.3227 10.1428 15.494 9.87511 15.494 9.49128C15.494 6.78553 15.494 4.07948 15.494 1.37316C15.494 0.833557 15.1807 0.516853 14.6463 0.516853H1.36536C0.830918 0.516853 0.516795 0.833988 0.516795 1.3723C0.516795 4.07346 0.516795 6.77419 0.516795 9.4745C0.516795 10.0201 0.830487 10.3312 1.38042 10.3312H8.32811C8.31046 10.1944 8.29756 10.073 8.27862 9.9517C8.20891 9.4973 8.46796 9.11605 8.89611 9.04806C9.41506 8.96458 9.80534 9.22922 9.87892 9.71245C9.99769 10.4936 10.1177 11.2743 10.2391 12.0546C10.2539 12.1172 10.2738 12.1785 10.2985 12.2379C10.3076 12.2315 10.3151 12.223 10.3203 12.2131C10.3255 12.2032 10.3284 12.1923 10.3286 12.1811C10.3286 10.5941 10.3296 9.00719 10.3316 7.42022C10.3316 7.32685 10.2886 7.29113 10.2193 7.25154C9.54673 6.86771 9.20507 6.15083 9.32469 5.38402C9.4654 4.48383 10.2813 3.83278 11.2116 3.87796C12.1109 3.92099 12.8721 4.67876 12.9061 5.58024C12.9337 6.31176 12.6187 6.86384 11.9995 7.24896C11.9513 7.27865 11.8867 7.33158 11.8841 7.37805C11.8721 7.59665 11.879 7.81653 11.879 8.03857C12.3648 7.94132 12.6832 8.10871 12.8915 8.5601C13.4797 8.41509 13.9074 8.74986 13.9621 9.32733C14.6402 9.24127 14.9087 9.48439 14.9892 10.2658H14.9896ZM10.8467 12.9057C10.135 12.9514 9.81395 12.6876 9.7124 12.0124C9.60224 11.2736 9.48477 10.5361 9.36815 9.79851C9.33502 9.59068 9.20765 9.51667 8.97658 9.55927C8.82683 9.58681 8.76616 9.70256 8.79198 9.89619C8.9301 10.9242 9.07641 11.9513 9.19904 12.981C9.24595 13.3782 9.34793 13.7324 9.63537 14.0263C9.78856 14.1833 9.91421 14.3675 10.0502 14.5426C10.2317 14.7719 10.3304 15.0557 10.3303 15.3481C10.3303 15.3946 10.3363 15.4411 10.3393 15.4846H13.4375C13.3777 15.0302 13.5636 14.667 13.8119 14.3227C13.9887 14.0856 14.1516 13.8385 14.2999 13.5826C14.3829 13.4337 14.4526 13.2539 14.4552 13.0869C14.4694 12.1028 14.4625 11.1183 14.4617 10.1337C14.4617 9.93191 14.3618 9.81271 14.2009 9.81487C14.04 9.81702 13.9466 9.93492 13.9462 10.1393C13.9462 10.6611 13.9462 11.1829 13.9462 11.7048V11.8709H13.4285V10.5434C13.4285 10.1346 13.4307 9.72579 13.4285 9.31657C13.4285 9.15134 13.3196 9.04247 13.1738 9.04118C13.0279 9.03989 12.9233 9.14832 12.9156 9.31227C12.9134 9.3553 12.9156 9.39833 12.9156 9.44136V11.8683H12.3958V8.90219C12.3984 8.8485 12.3966 8.79468 12.3906 8.74126C12.3812 8.67944 12.3493 8.62327 12.301 8.58356C12.2527 8.54384 12.1915 8.52338 12.129 8.5261C12.0692 8.52652 12.0116 8.54852 11.9668 8.58806C11.9219 8.62759 11.8929 8.682 11.885 8.74126C11.8781 8.79461 11.8764 8.84851 11.8798 8.90219C11.8798 9.8328 11.8798 10.7635 11.8798 11.6944V11.8687H11.363V6.32553C11.3664 6.27185 11.3649 6.21798 11.3583 6.1646C11.3316 6.02604 11.2447 5.94256 11.1001 5.94385C10.9555 5.94514 10.8725 6.02991 10.8488 6.16976C10.8436 6.22325 10.8429 6.27708 10.8467 6.33069V12.9057ZM10.3303 6.69473C10.3303 6.52261 10.3303 6.37372 10.3303 6.22355C10.335 5.77001 10.6703 5.4249 11.1049 5.42447C11.5395 5.42404 11.8742 5.76872 11.8794 6.22312C11.8794 6.37544 11.8794 6.5282 11.8794 6.69387C12.3002 6.41417 12.4913 5.82509 12.3416 5.31991C12.2642 5.05334 12.1028 4.81888 11.8815 4.65146C11.6601 4.48405 11.3905 4.39264 11.113 4.39085C10.8354 4.38906 10.5647 4.47698 10.3412 4.64153C10.1176 4.80608 9.95323 5.03843 9.87247 5.30399C9.71412 5.81433 9.90001 6.40686 10.3303 6.69473Z" fill="#B07FD8"/>
<path d="M1.04349 1.04126H8.25582V7.73636H1.04349V1.04126ZM7.73558 7.22473V1.56279H1.55813V7.22473H7.73558Z" fill="#662E93"/>
<path d="M10.064 1.03348C10.2174 1.03203 10.3679 1.07622 10.4962 1.16045C10.6246 1.24467 10.725 1.36512 10.7847 1.50652C10.8445 1.64792 10.8609 1.80388 10.8318 1.9546C10.8028 2.10533 10.7296 2.24402 10.6215 2.35308C10.5135 2.46213 10.3755 2.53663 10.2251 2.56712C10.0746 2.5976 9.91853 2.58269 9.77658 2.52429C9.63462 2.46589 9.51322 2.36662 9.42778 2.2391C9.34235 2.11157 9.29673 1.96153 9.29672 1.80803C9.29738 1.60407 9.3782 1.40855 9.52173 1.26365C9.66527 1.11875 9.86001 1.03608 10.064 1.03348ZM10.0665 2.06621C10.1177 2.06732 10.168 2.0532 10.2111 2.02567C10.2542 1.99813 10.2882 1.95841 10.3087 1.91154C10.3292 1.86468 10.3353 1.81278 10.3262 1.76243C10.3172 1.71209 10.2934 1.66556 10.2578 1.62876C10.2223 1.59196 10.1767 1.56655 10.1267 1.55574C10.0767 1.54493 10.0246 1.54921 9.97703 1.56805C9.92947 1.58689 9.88858 1.61943 9.85955 1.66154C9.83051 1.70365 9.81464 1.75344 9.81395 1.80459C9.81337 1.87248 9.83955 1.93786 9.88682 1.98658C9.9341 2.03531 9.99866 2.06345 10.0665 2.06492V2.06621Z" fill="#662E93"/>
<path d="M12.9121 1.80632C12.9121 1.9598 12.8665 2.10982 12.7811 2.23734C12.6957 2.36486 12.5743 2.46412 12.4324 2.52254C12.2904 2.58096 12.1344 2.59589 11.9839 2.56544C11.8335 2.53499 11.6955 2.46054 11.5875 2.35152C11.4794 2.24251 11.4062 2.10386 11.3771 1.95316C11.348 1.80246 11.3643 1.64651 11.424 1.50511C11.4837 1.3637 11.584 1.24322 11.7123 1.15894C11.8406 1.07467 11.991 1.0304 12.1445 1.03177C12.3485 1.03425 12.5433 1.11687 12.687 1.26179C12.8306 1.4067 12.9115 1.60229 12.9121 1.80632ZM12.3958 1.80632C12.3958 1.75525 12.3806 1.70534 12.3523 1.66288C12.3239 1.62042 12.2836 1.58733 12.2364 1.56779C12.1892 1.54825 12.1373 1.54313 12.0872 1.55309C12.0371 1.56306 11.9911 1.58765 11.955 1.62375C11.9189 1.65986 11.8943 1.70586 11.8844 1.75595C11.8744 1.80603 11.8795 1.85794 11.8991 1.90512C11.9186 1.9523 11.9517 1.99262 11.9941 2.02099C12.0366 2.04936 12.0865 2.0645 12.1376 2.0645C12.2057 2.0645 12.271 2.0376 12.3194 1.98964C12.3677 1.94169 12.3952 1.87657 12.3958 1.80847V1.80632Z" fill="#662E93"/>
<path d="M14.2061 2.58229C14.0526 2.58289 13.9023 2.53785 13.7745 2.45289C13.6466 2.36793 13.5468 2.2469 13.4879 2.10514C13.429 1.96339 13.4135 1.80732 13.4434 1.65674C13.4733 1.50617 13.5473 1.36789 13.656 1.25945C13.7647 1.15102 13.9031 1.07733 14.0538 1.04773C14.2044 1.01814 14.3604 1.03398 14.5021 1.09324C14.6437 1.1525 14.7645 1.25251 14.8492 1.38057C14.9338 1.50863 14.9785 1.65896 14.9776 1.81248C14.9756 2.01632 14.8936 2.21121 14.7493 2.35519C14.605 2.49917 14.4099 2.58072 14.2061 2.58229ZM14.4612 1.81248C14.4622 1.76133 14.4479 1.71106 14.4202 1.66805C14.3925 1.62503 14.3527 1.59121 14.3058 1.57087C14.2588 1.55053 14.2069 1.54459 14.1566 1.5538C14.1063 1.56301 14.0598 1.58697 14.0232 1.62262C13.9865 1.65827 13.9612 1.70402 13.9506 1.75405C13.9399 1.80408 13.9444 1.85615 13.9634 1.90364C13.9824 1.95114 14.0151 1.99192 14.0573 2.02081C14.0995 2.04971 14.1493 2.06541 14.2005 2.06593C14.2686 2.06662 14.3342 2.04037 14.3831 1.9929C14.4319 1.94543 14.46 1.88058 14.4612 1.81248Z" fill="#662E93"/>
<path d="M2.58181 9.04146C2.5818 9.19507 2.53611 9.3452 2.45056 9.47278C2.365 9.60036 2.24345 9.69962 2.10134 9.75794C1.95923 9.81626 1.80299 9.83101 1.65248 9.80032C1.50197 9.76962 1.36398 9.69486 1.25606 9.58555C1.14815 9.47623 1.07517 9.3373 1.04641 9.1864C1.01765 9.03551 1.03441 8.87947 1.09455 8.73813C1.1547 8.59678 1.25551 8.47651 1.38418 8.39261C1.51285 8.3087 1.66356 8.26495 1.81716 8.26691C2.02055 8.2705 2.21444 8.35357 2.35735 8.49833C2.50026 8.64309 2.58083 8.83804 2.58181 9.04146ZM2.06545 9.03758C2.06544 8.98637 2.05021 8.93632 2.02168 8.89379C1.99316 8.85126 1.95263 8.81818 1.90525 8.79874C1.85788 8.77931 1.80579 8.7744 1.75561 8.78464C1.70544 8.79489 1.65945 8.81982 1.62348 8.85627C1.58751 8.89273 1.5632 8.93905 1.55363 8.98936C1.54406 9.03967 1.54967 9.09168 1.56974 9.13879C1.58981 9.18591 1.62343 9.22599 1.66634 9.25394C1.70925 9.28189 1.7595 9.29645 1.81071 9.29577C1.87851 9.29464 1.94314 9.26688 1.99064 9.21849C2.03815 9.1701 2.06471 9.10496 2.06458 9.03715L2.06545 9.03758Z" fill="#662E93"/>
<path d="M3.89512 8.26702C4.04874 8.27098 4.1977 8.32055 4.32307 8.40942C4.44843 8.49829 4.54453 8.62244 4.59913 8.76607C4.65374 8.90971 4.66438 9.06635 4.62971 9.21605C4.59504 9.36576 4.51663 9.50177 4.40444 9.60678C4.29225 9.71179 4.15137 9.78106 3.9997 9.80577C3.84803 9.83048 3.69244 9.80953 3.55272 9.74556C3.413 9.6816 3.29546 9.57752 3.21506 9.44656C3.13466 9.31561 3.09503 9.16369 3.10121 9.01015C3.11038 8.80717 3.19855 8.61582 3.34689 8.47697C3.49523 8.33811 3.69198 8.26277 3.89512 8.26702ZM3.87275 9.29975C3.92381 9.29975 3.97373 9.2846 4.01619 9.25624C4.05865 9.22787 4.09174 9.18754 4.11128 9.14037C4.13082 9.09319 4.13593 9.04128 4.12597 8.9912C4.11601 8.94111 4.09142 8.89511 4.05531 8.859C4.0192 8.82289 3.9732 8.7983 3.92312 8.78834C3.87303 8.77838 3.82112 8.78349 3.77395 8.80303C3.72677 8.82258 3.68645 8.85567 3.65808 8.89812C3.62971 8.94058 3.61457 8.9905 3.61457 9.04156C3.61591 9.10934 3.64363 9.17392 3.69185 9.22157C3.74006 9.26922 3.80496 9.29619 3.87275 9.29673V9.29975Z" fill="#662E93"/>
<path d="M6.71318 9.04409C6.71265 9.19773 6.66643 9.34775 6.58041 9.47505C6.49438 9.60236 6.37244 9.7012 6.23009 9.75901C6.08774 9.81683 5.93141 9.831 5.78098 9.79972C5.63055 9.76845 5.49283 9.69315 5.38531 9.58338C5.2778 9.47362 5.20536 9.33437 5.17721 9.18332C5.14905 9.03228 5.16646 8.87628 5.22721 8.73515C5.28795 8.59403 5.3893 8.47416 5.51836 8.39079C5.64742 8.30742 5.79835 8.26432 5.95198 8.26696C6.15528 8.27124 6.34881 8.35498 6.4911 8.50025C6.63339 8.64552 6.71312 8.84074 6.71318 9.04409ZM6.19682 9.03333C6.19577 8.98218 6.17955 8.93248 6.15021 8.89057C6.12087 8.84865 6.07974 8.81639 6.03203 8.79789C5.98433 8.77939 5.9322 8.77549 5.88227 8.78667C5.83234 8.79785 5.78686 8.82361 5.7516 8.86069C5.71634 8.89777 5.69289 8.94449 5.68423 8.99491C5.67557 9.04534 5.68209 9.09721 5.70296 9.14392C5.72383 9.19064 5.75812 9.2301 5.80146 9.2573C5.84479 9.2845 5.89524 9.2982 5.94638 9.29668C6.01426 9.29443 6.07851 9.26553 6.12523 9.21624C6.17194 9.16694 6.19735 9.10123 6.19596 9.03333H6.19682Z" fill="#662E93"/>
<path d="M7.22223 6.70882H2.08742C1.95832 6.07498 2.34172 5.43038 2.97212 5.23072C3.22815 5.14983 3.48849 5.08184 3.74667 5.00653C3.7897 4.99363 3.83273 4.97598 3.87576 4.96049L3.93557 4.88132C3.88394 4.86195 3.82025 4.8555 3.78238 4.82064C3.65038 4.70509 3.54442 4.56283 3.4715 4.40327C3.39858 4.24371 3.36037 4.07049 3.35939 3.89506C3.35595 3.6429 3.34433 3.38601 3.38392 3.13901C3.43072 2.84121 3.58198 2.56978 3.81061 2.37331C4.03925 2.17684 4.33035 2.06815 4.6318 2.0667C5.23423 2.06153 5.79621 2.497 5.89346 3.10502C5.94767 3.44453 5.92831 3.80125 5.89905 4.14636C5.87624 4.41443 5.71531 4.63561 5.51823 4.82107C5.48725 4.85033 5.45756 4.88045 5.42873 4.91187C5.42313 4.91832 5.42615 4.93252 5.42227 4.96824C5.54878 5.00438 5.68045 5.04139 5.80955 5.07969C5.93347 5.1154 6.05697 5.15241 6.18047 5.18855C6.93565 5.40887 7.27516 5.90028 7.22223 6.70882ZM6.66284 6.18987C6.6203 6.07433 6.55053 5.97074 6.45944 5.8879C6.36835 5.80505 6.25864 5.74538 6.13959 5.71395C5.77899 5.60896 5.41926 5.50138 5.05608 5.40499C4.94506 5.37573 4.89386 5.33486 4.90376 5.21179C4.91429 5.06151 4.91429 4.91068 4.90376 4.7604C4.89739 4.71639 4.90565 4.6715 4.92726 4.63264C4.94887 4.59377 4.98264 4.56307 5.02338 4.54525C5.13881 4.48534 5.23625 4.39583 5.30573 4.2859C5.37521 4.17597 5.41424 4.04955 5.41883 3.91959C5.42873 3.73167 5.42873 3.54337 5.41883 3.35546C5.39516 2.91267 5.04102 2.57402 4.62406 2.58521C4.1972 2.59683 3.87705 2.94064 3.87275 3.3916C3.87275 3.53145 3.87576 3.6713 3.87275 3.81115C3.86414 4.14248 4.00528 4.38647 4.28584 4.5616C4.31312 4.58215 4.33597 4.60798 4.35305 4.63755C4.37013 4.66712 4.38108 4.69983 4.38524 4.73372C4.39901 4.89939 4.38524 5.06678 4.39169 5.2333C4.396 5.32926 4.36803 5.37272 4.26906 5.39897C3.89082 5.49923 3.5143 5.60853 3.13908 5.72041C3.02353 5.75278 2.91744 5.81244 2.82975 5.89436C2.74206 5.97629 2.67534 6.07807 2.63519 6.19116L6.66284 6.18987Z" fill="#B07FD8"/>
</g>
<defs>
<clipPath id="clip0_191_195">
<rect width="16.0103" height="16" fill="white"/>
</clipPath>
</defs>
</svg>
