<svg width="16" height="16" viewBox="0 0 16 16" fill="none" xmlns="http://www.w3.org/2000/svg">
<g clip-path="url(#clip0_344_215)">
<path d="M0 15.4375V0.5625C0.0384287 0.428766 0.110207 0.306989 0.208598 0.208598C0.306989 0.110207 0.428766 0.0384287 0.5625 0H15.4375C15.5712 0.0385702 15.6929 0.110396 15.7912 0.208766C15.8896 0.307135 15.9614 0.428838 16 0.5625V15.4375C15.9612 15.571 15.8893 15.6926 15.7909 15.7909C15.6926 15.8893 15.571 15.9612 15.4375 16H0.5625C0.428892 15.9613 0.307245 15.8895 0.208892 15.7911C0.110538 15.6928 0.0386759 15.5711 0 15.4375ZM8 0.46875H0.844166C0.524583 0.46875 0.469167 0.523333 0.469167 0.836667V15.1633C0.469167 15.4762 0.525416 15.5312 0.844166 15.5312H15.1558C15.4746 15.5312 15.5308 15.4758 15.5308 15.1629V0.83625C15.5308 0.52375 15.4746 0.46875 15.1558 0.46875H8Z" fill="#B07FD8"/>
<path d="M9.95293 13.3333C9.95293 13.1183 9.95293 12.9316 9.95293 12.7453C9.95293 12.3878 10.0892 12.2524 10.4429 12.2524H12.25V11.5058C12.25 11.1466 12.25 10.787 12.25 10.4278C12.25 10.0945 12.39 9.95743 12.7271 9.95493C12.9096 9.95493 13.0918 9.9534 13.2738 9.95034C13.2883 9.94705 13.3024 9.94172 13.3154 9.93451V6.04868H12.7738C12.3783 6.04868 12.2496 5.91951 12.2496 5.52534C12.2496 4.99423 12.2496 4.46312 12.2496 3.93201V3.74993H11.7871C11.3233 3.74993 10.86 3.74993 10.3967 3.74993C10.1138 3.74993 9.96168 3.60201 9.95418 3.32034C9.94876 3.12243 9.95002 2.92451 9.94793 2.72701C9.94473 2.71254 9.93969 2.69853 9.93293 2.68534H6.0471C6.0471 2.87284 6.0471 3.05784 6.0471 3.24326C6.0471 3.61826 5.9146 3.74868 5.53835 3.74868H3.75001V3.91909C3.75001 4.47132 3.75001 5.02326 3.75001 5.57493C3.75001 5.89784 3.60751 6.04284 3.28543 6.04826C3.08876 6.05118 2.8921 6.04826 2.68418 6.04826V9.95451C2.87876 9.95451 3.06918 9.95451 3.2596 9.95451C3.61585 9.95451 3.75001 10.0895 3.75001 10.4453C3.75001 11.0387 3.75001 11.632 3.75001 12.2503H3.92001C4.47724 12.2503 5.03446 12.2503 5.59168 12.2503C5.89501 12.2503 6.0421 12.3949 6.0471 12.6987C6.05043 12.9008 6.0471 13.1028 6.0471 13.3291H8.22835C8.28549 13.3266 8.34273 13.3299 8.39918 13.3391C8.51001 13.3624 8.58668 13.4441 8.56585 13.5474C8.54123 13.6369 8.48832 13.716 8.41501 13.7728C8.37335 13.8083 8.28502 13.7953 8.21793 13.7953C6.48377 13.7953 4.7496 13.7953 3.01543 13.7953C2.47376 13.7953 2.20251 13.5228 2.20251 12.9762C2.20251 9.65368 2.20251 6.33118 2.20251 3.00868C2.20251 2.75868 2.25626 2.53576 2.45585 2.36534C2.61751 2.22826 2.8071 2.20076 3.01043 2.20118C6.08293 2.20284 9.15543 2.20284 12.2279 2.20118H12.9933C13.5271 2.20118 13.7971 2.47284 13.7975 3.01034C13.7975 3.74507 13.7975 4.47937 13.7975 5.21326C13.7975 7.79659 13.796 10.3799 13.7929 12.9633C13.7922 13.1342 13.755 13.3029 13.6838 13.4583C13.5913 13.6562 13.405 13.7612 13.1838 13.787C13.1114 13.7949 13.0386 13.7987 12.9658 13.7983C11.8358 13.7983 10.7057 13.7983 9.57543 13.7983C9.5234 13.7996 9.47133 13.7974 9.4196 13.7916C9.28043 13.7716 9.19835 13.6778 9.20877 13.5483C9.21918 13.4187 9.29793 13.3399 9.43126 13.3328C9.59627 13.3274 9.76251 13.3333 9.95293 13.3333ZM5.56876 12.7199H5.39501C4.79668 12.7199 4.19821 12.7199 3.5996 12.7199C3.35585 12.7199 3.28126 12.6458 3.28085 12.4058C3.28085 11.8485 3.28085 11.2916 3.28085 10.7349V10.4374H2.67251V12.9628C2.67251 13.2716 2.73001 13.3299 3.03585 13.3299H5.56918L5.56876 12.7199ZM10.4221 12.7199C10.4221 12.8791 10.43 13.0237 10.4196 13.1666C10.41 13.2978 10.4567 13.3333 10.5863 13.3333C11.3879 13.3278 12.1892 13.3333 12.9908 13.3299C13.2625 13.3299 13.3279 13.262 13.3279 12.9837C13.3279 12.1873 13.3279 11.391 13.3279 10.5949C13.3279 10.5445 13.3225 10.4941 13.3192 10.4374H12.7196V10.6203C12.7196 11.2087 12.7196 11.7967 12.7196 12.3845C12.7196 12.6499 12.6513 12.7178 12.3904 12.7178H10.4221V12.7199ZM5.57001 2.68368C5.51251 2.67993 5.46668 2.67409 5.42126 2.67409C4.60904 2.67409 3.79682 2.67409 2.9846 2.67409C2.73918 2.67409 2.67293 2.74243 2.67251 2.99451C2.67251 3.80673 2.67251 4.61896 2.67251 5.43118C2.67251 5.47618 2.6796 5.52076 2.68376 5.57034H3.28043V5.39159C3.28043 4.7927 3.28043 4.19396 3.28043 3.59534C3.28043 3.35409 3.35501 3.28034 3.59835 3.28034C4.19724 3.28034 4.79599 3.28034 5.3946 3.28034H5.5696L5.57001 2.68368ZM12.7196 5.56951H13.3142C13.3206 5.5362 13.3249 5.50252 13.3271 5.46868C13.3271 4.63034 13.3271 3.79215 13.3271 2.95409C13.3271 2.74993 13.2463 2.67493 13.0375 2.67451C12.2095 2.67284 11.3817 2.67284 10.5542 2.67451C10.5139 2.67665 10.4739 2.68124 10.4342 2.68826V3.27993H12.3642C12.6592 3.27993 12.7196 3.34076 12.7196 3.63618C12.7196 4.27618 12.7196 4.91659 12.7196 5.56951Z" fill="#B07FD8"/>
<path d="M8.00833 1.04883H14.2892C14.7571 1.04883 14.9533 1.24466 14.9533 1.71549V14.2917C14.9533 14.7547 14.7512 14.9559 14.2867 14.9559H1.72291C1.24583 14.9559 1.04708 14.758 1.04666 14.2847V8.67466C1.04666 8.42466 1.12541 8.30841 1.28833 8.31383C1.45125 8.31924 1.51583 8.42925 1.51583 8.67341V14.2501C1.51583 14.4847 1.51583 14.4851 1.74708 14.4851H14.2471C14.4842 14.4851 14.4846 14.4851 14.4846 14.2409V1.758C14.4846 1.51799 14.4846 1.51758 14.245 1.51758H1.76083C1.51583 1.51758 1.51583 1.51758 1.51583 1.76758V7.28383C1.51583 7.34091 1.51833 7.39841 1.51291 7.45549C1.49958 7.59424 1.40791 7.68466 1.28416 7.68633C1.16041 7.68799 1.06583 7.59966 1.05 7.46174C1.04659 7.42017 1.04548 7.37844 1.04666 7.33674C1.04666 5.45674 1.04666 3.57661 1.04666 1.69633C1.04666 1.24925 1.24833 1.04924 1.69541 1.04924L8.00833 1.04883Z" fill="#662E93"/>
<path d="M11.125 4.87498C10.6617 4.87498 10.2137 4.8529 9.76915 4.88207C9.42624 4.90498 9.1804 4.8029 8.95415 4.54457C8.65999 4.20915 8.32915 3.90748 7.97332 3.5529C7.91918 3.63349 7.85931 3.71008 7.79415 3.78206C7.77244 3.80442 7.74642 3.82213 7.71767 3.83414C7.68891 3.84615 7.65802 3.8522 7.62686 3.85192C7.5957 3.85165 7.56492 3.84506 7.53638 3.83255C7.50784 3.82004 7.48214 3.80188 7.46082 3.77915C7.41994 3.73445 7.39801 3.67564 7.39964 3.61509C7.40127 3.55454 7.42634 3.49699 7.46957 3.45457C7.57582 3.3404 7.68832 3.23165 7.79999 3.12123C7.94374 2.98082 8.06124 2.97873 8.20332 3.12123C8.57832 3.49165 8.95332 3.85873 9.31624 4.23957C9.36838 4.29864 9.43354 4.34479 9.50657 4.37437C9.57961 4.40394 9.65852 4.41614 9.73707 4.40998C10.2525 4.39956 10.7679 4.40582 11.2837 4.40665C11.5158 4.40665 11.595 4.48457 11.5954 4.71373C11.5954 5.27082 11.5925 5.8279 11.5996 6.38498C11.6033 6.46432 11.6346 6.53988 11.6879 6.59873C12.0508 6.97373 12.4217 7.3379 12.79 7.70623C13.0562 7.97248 13.0571 8.02665 12.7954 8.28957C12.4233 8.66165 12.0492 9.03123 11.6821 9.40748C11.6318 9.4627 11.6023 9.53372 11.5987 9.60832C11.5925 10.1654 11.5958 10.7225 11.595 11.28C11.595 11.5191 11.5179 11.5946 11.275 11.595C10.7333 11.595 10.1917 11.5979 9.64999 11.5925C9.59918 11.5893 9.5483 11.5976 9.50108 11.6166C9.45386 11.6356 9.41149 11.665 9.37707 11.7025C8.99874 12.09 8.61374 12.4708 8.2304 12.8533C8.05332 13.03 7.94915 13.0296 7.77207 12.8512C7.38541 12.465 7.00124 12.0754 6.60915 11.6946C6.54704 11.6376 6.46709 11.6038 6.38291 11.5991C5.83124 11.5912 5.27916 11.5954 4.72707 11.5946C4.48582 11.5946 4.40999 11.5187 4.40957 11.2779C4.40957 10.7258 4.41291 10.1737 4.40499 9.62206C4.40065 9.53776 4.36705 9.45761 4.30999 9.3954C3.92541 8.99998 3.53207 8.61248 3.14332 8.22165C2.97957 8.05748 2.97874 7.94582 3.13999 7.78415C3.52957 7.39332 3.91874 7.00165 4.31249 6.61498C4.34625 6.58402 4.37271 6.54594 4.38993 6.50349C4.40716 6.46105 4.41472 6.4153 4.41207 6.36957C4.40791 5.8279 4.40999 5.28623 4.41207 4.74456C4.41207 4.47456 4.48082 4.40706 4.75624 4.40706C5.27665 4.40706 5.79791 4.40207 6.31832 4.4104C6.45916 4.41248 6.56499 4.38206 6.65916 4.2729C6.70541 4.21915 6.79207 4.16332 6.85457 4.16957C6.89605 4.17483 6.9359 4.18903 6.97136 4.21119C7.00683 4.23334 7.03706 4.26293 7.05999 4.2979C7.07456 4.33711 7.07992 4.37915 7.07566 4.42076C7.07139 4.46238 7.05762 4.50245 7.03541 4.5379C6.87499 4.74623 6.69957 4.90498 6.3879 4.88457C5.89582 4.85207 5.39957 4.87581 4.88082 4.87581V5.0454C4.88082 5.53998 4.88749 6.03498 4.87499 6.52915C4.86858 6.64019 4.82448 6.74572 4.74999 6.82832C4.41291 7.18332 4.06165 7.52415 3.71582 7.86998C3.67415 7.91165 3.63791 7.95332 3.5804 8.01165C3.76041 8.18623 3.93832 8.35206 4.10916 8.5254C4.35916 8.7804 4.60916 9.0404 4.85707 9.29832C4.86457 9.66165 4.87374 10.025 4.87874 10.3883C4.88207 10.6271 4.87874 10.8658 4.87874 11.1254H5.05332C5.53791 11.1254 6.02207 11.1296 6.50624 11.1229C6.57064 11.1194 6.63502 11.1302 6.69474 11.1546C6.75447 11.1789 6.80805 11.2162 6.85166 11.2637C7.22666 11.6475 7.60707 12.0246 7.99832 12.4175C8.04332 12.3758 8.08415 12.3383 8.12332 12.2996C8.47332 11.95 8.82499 11.6021 9.17165 11.2491C9.21011 11.2074 9.25723 11.1746 9.3097 11.153C9.36217 11.1314 9.41872 11.1216 9.47541 11.1241C9.96499 11.1291 10.4542 11.1262 10.9437 11.1262H11.125V10.5833C11.125 10.2191 11.1304 9.85457 11.1225 9.48998C11.1196 9.4256 11.1312 9.36138 11.1563 9.30205C11.1815 9.24271 11.2196 9.18976 11.2679 9.14707C11.6504 8.77207 12.0271 8.39081 12.4142 8.00331C12.3754 7.96165 12.3429 7.92207 12.3071 7.88665C11.965 7.54373 11.6258 7.19832 11.2783 6.86082C11.2264 6.81461 11.1855 6.75743 11.1585 6.69343C11.1315 6.62943 11.119 6.56022 11.1221 6.49082C11.1296 5.96165 11.125 5.4304 11.125 4.87498Z" fill="#662E93"/>
<path d="M6.34374 10.4478C6.17207 10.4478 5.99999 10.4499 5.82833 10.4478C5.63083 10.4449 5.55374 10.3703 5.55166 10.1728C5.54833 9.83446 5.55749 9.49571 5.54583 9.15738C5.53974 9.06801 5.50395 8.98324 5.44416 8.91654C5.21666 8.67321 4.97541 8.4428 4.74082 8.20571C4.59082 8.05405 4.59166 7.94613 4.74374 7.79279C4.97833 7.55613 5.21957 7.32571 5.44666 7.08238C5.50571 7.01475 5.54073 6.92949 5.54624 6.83988C5.55749 6.5228 5.54999 6.20488 5.55082 5.88696C5.55082 5.61446 5.61124 5.55363 5.87874 5.55363C6.20666 5.55363 6.53499 5.55821 6.86291 5.54988C6.93772 5.54561 7.00891 5.51625 7.06499 5.46655C7.31041 5.23321 7.54582 4.98988 7.78624 4.75155C7.94624 4.59196 8.05207 4.59071 8.21082 4.74738C8.44749 4.98196 8.67791 5.22321 8.92124 5.45071C8.98894 5.50952 9.07422 5.54424 9.16374 5.54946C9.49707 5.56071 9.83041 5.55238 10.1637 5.55488C10.3721 5.55488 10.4471 5.62946 10.4492 5.83696C10.4521 6.17529 10.4442 6.51404 10.4546 6.85238C10.4602 6.93692 10.4939 7.01715 10.5504 7.08029C10.7787 7.32279 11.0196 7.55363 11.2542 7.78863C11.4108 7.94696 11.41 8.05446 11.2542 8.21405C11.0158 8.45446 10.7721 8.68988 10.5392 8.93488C10.4894 8.99107 10.46 9.06242 10.4558 9.13738C10.4475 9.46529 10.4529 9.79363 10.4517 10.1215C10.4517 10.3832 10.3875 10.4474 10.1312 10.4478C9.80291 10.4478 9.47499 10.4428 9.14707 10.4524C9.06734 10.4574 8.99161 10.4891 8.93207 10.5424C8.68624 10.7749 8.45166 11.019 8.21082 11.257C8.05749 11.4086 7.94874 11.409 7.79708 11.257C7.56749 11.0299 7.33666 10.804 7.11374 10.5707C7.02833 10.4811 6.94124 10.4353 6.81499 10.4436C6.65666 10.4557 6.49999 10.4478 6.34374 10.4478ZM7.99999 5.1928C7.79416 5.40113 7.59416 5.58405 7.41666 5.7878C7.35098 5.87106 7.26519 5.93625 7.16737 5.97721C7.06954 6.01818 6.96291 6.03358 6.85749 6.02196C6.58457 6.00321 6.30999 6.01738 6.02041 6.01738C6.02041 6.28321 6.00416 6.52821 6.02457 6.76988C6.04916 7.0578 5.96874 7.27904 5.74041 7.46571C5.54916 7.62238 5.38541 7.81321 5.19416 8.00405C5.31166 8.11821 5.40833 8.23738 5.52749 8.32446C5.94416 8.6253 6.09957 9.02154 6.02291 9.52529C6.00082 9.67029 6.01957 9.82155 6.01957 9.97905C6.34332 9.97905 6.63957 9.98613 6.93624 9.97655C7.01363 9.97065 7.09132 9.98295 7.16309 10.0125C7.23487 10.042 7.29873 10.0879 7.34958 10.1465C7.55791 10.3699 7.77791 10.5811 8.00249 10.8061C8.22624 10.5807 8.44166 10.3765 8.64082 10.1578C8.69458 10.0949 8.76249 10.0456 8.83897 10.014C8.91546 9.98246 8.99834 9.96947 9.08082 9.97613C9.37541 9.98696 9.67041 9.97905 9.98166 9.97905C9.98166 9.6528 9.98666 9.34654 9.97958 9.04113C9.97464 8.97147 9.98578 8.90161 10.0122 8.83695C10.0385 8.77228 10.0794 8.71455 10.1317 8.66821C10.3583 8.4553 10.5746 8.23155 10.8108 7.99655C10.6983 7.8878 10.6079 7.77696 10.4962 7.69655C10.0604 7.38405 9.89416 6.96988 9.97833 6.4428C9.99999 6.30821 9.98166 6.16738 9.98166 6.02071C9.64207 6.02071 9.32999 6.01738 9.01832 6.02071C8.95608 6.02394 8.8939 6.01332 8.83626 5.98962C8.77861 5.96591 8.72695 5.92971 8.68499 5.88363C8.46624 5.65613 8.23916 5.43446 7.99999 5.1928Z" fill="#B07FD8"/>
<path d="M9.68416 8.01127C9.64812 8.07734 9.60629 8.14009 9.55916 8.19877C9.10916 8.65349 8.65708 9.10599 8.20291 9.55627C8.05749 9.70127 7.945 9.70044 7.79958 9.55627C7.34625 9.10516 6.89388 8.6528 6.44249 8.19919C6.30458 8.06002 6.30166 7.94419 6.43791 7.8071C6.89208 7.34905 7.34805 6.89294 7.80583 6.43877C7.94291 6.30252 8.06 6.3021 8.19833 6.43877C8.65611 6.89266 9.1118 7.34891 9.56541 7.80752C9.61458 7.85919 9.64041 7.93544 9.68416 8.01127ZM6.94374 7.99294L7.99999 9.05002L9.05083 8.00002C8.70291 7.65252 8.34249 7.29377 7.99416 6.94335C7.64958 7.28794 7.29374 7.64377 6.94374 7.99294Z" fill="#662E93"/>
</g>
<defs>
<clipPath id="clip0_344_215">
<rect width="16" height="16" fill="white"/>
</clipPath>
</defs>
</svg>
