<svg width="34" height="36" viewBox="0 0 34 36" fill="none" xmlns="http://www.w3.org/2000/svg">
<g clip-path="url(#clip0_174_101)">
<path d="M9.40697 9.40588C9.22916 6.59433 10.0703 4.20487 12.0981 2.2925C13.6187 0.82529 15.6473 0.00414012 17.7591 0.0010519C20.2874 -0.0309543 22.4471 0.888225 24.1652 2.75259C25.8834 4.61695 26.5747 6.85338 26.3879 9.40588C26.7255 9.40588 27.0232 9.40588 27.3199 9.40588C27.8593 9.40588 27.9872 9.53391 27.9891 10.067C27.9891 11.0425 27.9891 12.0181 27.9891 12.9936V13.4577H28.4556C29.9794 13.4577 31.5027 13.4577 33.0258 13.4577C33.6331 13.4577 33.749 13.5757 33.749 14.1808V32.4154C33.749 33.0065 33.6161 33.1385 33.0218 33.1385C26.0292 33.1385 19.0367 33.1365 12.0442 33.1325C11.9177 33.124 11.7913 33.1499 11.6783 33.2073C11.5653 33.2646 11.4698 33.3514 11.4018 33.4586C10.8315 34.222 10.0966 34.8469 9.25167 35.2866C8.40679 35.7264 7.47373 35.9697 6.52196 35.9984C5.57018 36.0271 4.62418 35.8406 3.75437 35.4526C2.88456 35.0647 2.11333 34.4853 1.49809 33.7576C0.882846 33.0299 0.43943 32.1727 0.20084 31.2497C-0.0377502 30.3267 -0.0653708 29.3617 0.120036 28.4265C0.305443 27.4914 0.699103 26.6101 1.27172 25.8483C1.84433 25.0866 2.58115 24.4639 3.42734 24.0267C3.73801 23.8687 3.8429 23.7007 3.8409 23.3546C3.82692 19.9899 3.82525 16.626 3.83591 13.2626C3.8409 11.3623 5.0586 9.82596 6.88566 9.4899C7.51698 9.37287 8.18427 9.42789 8.82658 9.40688C9.01039 9.39688 9.19219 9.40588 9.40697 9.40588ZM7.94952 23.3706C7.81167 21.2292 8.48795 19.3118 10.0563 17.7565C11.6426 16.1852 13.5905 15.5121 15.7952 15.7501C19.6211 16.1622 22.4211 19.5308 22.1224 23.3096C21.9786 25.1779 21.2393 26.8003 19.8338 28.0485C17.7661 29.8919 15.3706 30.343 12.7934 29.5878C12.6235 30.456 12.4607 31.2941 12.2939 32.1243H32.7341V27.8435H32.3005C30.4405 27.8435 28.5795 27.8655 26.7195 27.8345C25.4638 27.8145 24.5348 27.2133 23.9854 26.0681C23.6178 25.303 23.5499 24.4848 23.6078 23.6516C23.7517 21.6223 25.0393 20.31 27.0222 20.351C28.7813 20.39 30.5434 20.36 32.3035 20.358C32.4474 20.358 32.5922 20.342 32.7621 20.332V19.8429C32.7621 18.2676 32.7621 16.6913 32.7621 15.116C32.7621 14.3788 32.8749 14.4499 32.1137 14.4499C24.372 14.4499 16.6299 14.4499 8.88752 14.4499C8.72569 14.4499 8.56287 14.4549 8.40104 14.4419C8.09237 14.4159 7.87061 14.2788 7.87061 13.9348C7.87061 13.5907 8.09636 13.4347 8.40104 13.4267C8.91249 13.4067 9.42495 13.4177 9.9374 13.4167H10.7316C10.348 12.4485 9.98036 11.5013 9.59077 10.5621C9.55581 10.4761 9.39098 10.4001 9.27711 10.3961C8.75266 10.3791 8.22822 10.3961 7.70378 10.3881C5.90071 10.3681 4.78789 11.8524 4.80687 13.3476C4.85482 16.5733 4.82186 19.8009 4.82186 23.0265V23.3696L7.94952 23.3706ZM17.8829 13.4567C19.668 13.4567 21.4521 13.4487 23.2372 13.4637C23.3711 13.4727 23.505 13.446 23.6253 13.3862C23.7455 13.3265 23.8477 13.2359 23.9215 13.1236C24.8249 11.9318 25.357 10.4994 25.451 9.00614C25.545 7.51284 25.1968 6.02497 24.4499 4.72897C22.8966 2.04745 19.9367 0.576164 16.844 1.03425C14.0141 1.45333 11.9842 3.02364 10.9134 5.66815C9.82952 8.34067 10.2281 10.8852 11.9692 13.1936C12.0352 13.2683 12.1154 13.329 12.2051 13.3721C12.2948 13.4152 12.3923 13.4399 12.4917 13.4447C14.2868 13.4637 16.0848 13.4567 17.8829 13.4567ZM15.0479 16.7143C13.854 16.699 12.6837 17.0478 11.6925 17.7145C9.66569 19.1098 8.77564 21.0601 8.95844 23.5076C8.97343 23.7077 8.9984 23.8957 9.24014 24.0227C10.9323 24.9149 12.0112 26.3022 12.5077 28.1535C12.5358 28.2352 12.5802 28.3103 12.638 28.3744C12.6958 28.4385 12.766 28.4903 12.8443 28.5266C13.8579 28.9341 14.9651 29.0498 16.0409 28.8607C19.1246 28.3286 21.3732 25.493 21.1235 22.4594C20.8478 19.1628 18.2715 16.7263 15.045 16.7143H15.0479ZM0.962973 29.6638C0.963999 30.7304 1.28138 31.7726 1.87485 32.6583C2.46833 33.544 3.31115 34.2332 4.29643 34.6386C5.2817 35.044 6.36502 35.1472 7.40899 34.9353C8.45295 34.7233 9.41052 34.2056 10.1602 33.4479C10.9099 32.6903 11.418 31.7267 11.62 30.6795C11.8219 29.6323 11.7087 28.5486 11.2947 27.5659C10.8806 26.5832 10.1844 25.7458 9.29436 25.1598C8.40429 24.5739 7.36046 24.2659 6.29529 24.2748C4.8742 24.283 3.51428 24.8547 2.51335 25.8648C1.51241 26.8749 0.95205 28.2409 0.954981 29.6638H0.962973ZM32.7391 21.3792C30.7072 21.3792 28.7244 21.3732 26.7405 21.3792C25.8255 21.3792 25.0792 21.8893 24.8365 22.7795C24.6706 23.3643 24.6031 23.9728 24.6367 24.5798C24.7456 26.0801 25.6307 26.8713 27.0641 26.8403C28.8093 26.8033 30.5604 26.8313 32.3035 26.8313H32.7381L32.7391 21.3792ZM24.9474 13.4177C25.5567 13.4177 26.1141 13.4057 26.6696 13.4227C26.9373 13.4307 27.0112 13.3276 27.0072 13.0736C26.9952 12.2984 27.0072 11.5223 27.0072 10.7471C27.0072 10.5671 27.0202 10.3721 26.7535 10.3941C26.5397 10.4121 26.296 10.2941 26.1811 10.6431C25.9733 11.2812 25.7176 11.9054 25.4548 12.5235C25.324 12.8165 25.1362 13.0826 24.9454 13.4177H24.9474Z" fill="#B07FD8" stroke="#B07FD8" stroke-width="0.5"/>
<path d="M18.3824 11.9574C18.3824 12.0734 18.3884 12.1724 18.3824 12.2715C18.3604 12.5625 18.2086 12.7385 17.9099 12.7455C17.6272 12.7525 17.4304 12.5775 17.4414 12.3165C17.4534 11.9944 17.2866 11.9084 17.0418 11.7974C16.3685 11.4913 15.966 10.9642 15.8831 10.2161C15.8391 9.81597 15.993 9.57293 16.2966 9.53792C16.5803 9.50491 16.7611 9.68995 16.8271 10.08C16.9339 10.7111 17.3825 11.0682 18.0108 11.0212C18.2498 11.0077 18.4766 10.9113 18.6525 10.7488C18.8283 10.5862 18.9423 10.3675 18.9748 10.13C18.9999 9.89154 18.9379 9.65201 18.8004 9.45567C18.6629 9.25932 18.4591 9.11943 18.2266 9.06183C18.0691 9.02343 17.9081 9.00099 17.7461 8.99482C16.842 8.9318 16.0529 8.24867 15.904 7.3945C15.8153 6.94857 15.8869 6.48557 16.1063 6.08744C16.3257 5.68931 16.6787 5.38171 17.1028 5.21908C17.3295 5.12606 17.4354 5.03004 17.4304 4.76899C17.4249 4.70539 17.4334 4.64135 17.4553 4.58139C17.4771 4.52142 17.5118 4.46698 17.557 4.42188C17.6021 4.37679 17.6566 4.34214 17.7165 4.32038C17.7764 4.29861 17.8404 4.29026 17.9039 4.2959C18.2106 4.3019 18.3924 4.49594 18.3764 4.807C18.3634 5.03904 18.4603 5.11906 18.6661 5.20108C19.3973 5.49213 19.8249 6.04224 19.9357 6.82739C19.9867 7.19046 19.8359 7.44251 19.5462 7.48952C19.2335 7.54053 19.0357 7.35449 18.9768 6.95442C18.9598 6.80196 18.9101 6.655 18.831 6.52362C18.7519 6.39225 18.6453 6.27959 18.5186 6.19338C18.3919 6.10718 18.248 6.04948 18.0969 6.02425C17.9458 5.99902 17.791 6.00687 17.6432 6.04724C17.0348 6.19327 16.6892 6.76438 16.882 7.32749C16.9415 7.51345 17.0541 7.67788 17.2059 7.80052C17.3577 7.92316 17.542 7.99863 17.7361 8.01762C17.9843 8.04015 18.2311 8.07655 18.4753 8.12664C18.8765 8.23371 19.234 8.46402 19.4976 8.78519C19.7612 9.10635 19.9176 9.50219 19.9447 9.91699C19.9937 10.7462 19.4832 11.5173 18.6671 11.8474C18.5822 11.8824 18.5043 11.9114 18.3824 11.9574Z" fill="#662E93"/>
<path d="M15.5424 19.0986C15.7112 19.1586 15.8661 19.2056 16.0139 19.2686C16.7831 19.5957 17.2716 20.1518 17.3894 20.997C17.4414 21.371 17.2616 21.6371 16.9589 21.6661C16.6732 21.6941 16.4814 21.4951 16.4315 21.118C16.3455 20.4809 15.7382 20.0178 15.026 20.0428C14.3137 20.0678 13.7453 20.5329 13.7114 21.13C13.6844 21.5941 13.8512 21.9021 14.2818 22.0822C14.5614 22.1869 14.8477 22.2728 15.1388 22.3392C15.3546 22.3972 15.5774 22.4322 15.7931 22.4923C16.7921 22.7713 17.2436 23.2554 17.3235 24.1416C17.3767 24.5797 17.2891 25.0234 17.0736 25.4084C16.8581 25.7934 16.5258 26.0997 16.1248 26.283C15.947 26.371 15.7562 26.434 15.5384 26.522C15.5384 26.6941 15.5454 26.8811 15.5384 27.0661C15.5254 27.3432 15.3766 27.5112 15.0989 27.5302C14.8212 27.5492 14.5854 27.3842 14.6154 27.1302C14.6773 26.5891 14.3557 26.479 13.9551 26.307C13.1929 25.9779 12.7274 25.3788 12.6865 24.5167C12.6685 24.1396 12.9632 23.8755 13.2758 24.0116C13.3631 24.0596 13.4397 24.125 13.5009 24.2038C13.562 24.2826 13.6065 24.3731 13.6314 24.4696C13.7673 25.0798 14.087 25.4338 14.7033 25.5599C15.2647 25.6739 15.912 25.4338 16.2017 25.0047C16.5493 24.4866 16.3855 23.7975 15.8151 23.5485C15.4765 23.4014 15.1019 23.3384 14.7423 23.2394C14.5984 23.1994 14.4526 23.1674 14.3077 23.1284C13.2798 22.8503 12.8093 22.3462 12.7564 21.4641C12.6934 20.4429 13.1689 19.6297 14.1139 19.2886C14.4815 19.1556 14.6334 19.0046 14.5974 18.6115C14.5694 18.3114 14.7562 18.1114 15.0689 18.0944C15.3466 18.0774 15.5324 18.3034 15.5434 18.6475C15.5464 18.7915 15.5424 18.9406 15.5424 19.0986Z" fill="#662E93"/>
<path d="M8.42201 31.035C8.432 31.8702 7.97149 32.5353 7.13239 32.8634C6.91362 32.9474 6.82471 33.0424 6.83271 33.2865C6.84869 33.6865 6.65789 33.9106 6.35122 33.9046C6.06153 33.8986 5.87373 33.6865 5.88172 33.3045C5.88671 33.0564 5.79481 32.9714 5.56706 32.8974C4.76791 32.6373 4.23847 31.9652 4.19552 31.2391C4.17654 30.924 4.26944 30.691 4.60408 30.6279C4.87779 30.5759 5.07458 30.765 5.14051 31.116C5.23441 31.6161 5.5231 31.9312 6.00559 32.0222C6.52004 32.1222 6.98255 32.0132 7.3102 31.5761C7.38744 31.4731 7.43924 31.3532 7.46137 31.2262C7.4835 31.0993 7.47534 30.9689 7.43754 30.8457C7.39975 30.7225 7.3334 30.6101 7.24391 30.5175C7.15442 30.4249 7.04432 30.3548 6.92261 30.3129C6.54308 30.1919 6.15725 30.0918 5.76684 30.0128C4.70897 29.7458 4.3054 29.3077 4.24047 28.3525C4.18353 27.5123 4.70098 26.7462 5.57105 26.4351C5.79581 26.3551 5.88671 26.2661 5.88172 26.021C5.87373 25.612 6.06452 25.4059 6.38119 25.4209C6.69785 25.4359 6.84869 25.621 6.8347 26.021C6.82671 26.2681 6.91961 26.3521 7.14337 26.4341C7.84263 26.6892 8.31512 27.1783 8.46297 27.9344C8.54288 28.3435 8.40303 28.6176 8.09736 28.6786C7.79168 28.7396 7.5839 28.5575 7.51498 28.1215C7.43606 27.6294 6.98254 27.2753 6.40116 27.2523C5.84975 27.2313 5.32531 27.5824 5.21843 28.0454C5.11853 28.4835 5.3343 28.8646 5.82478 29.0196C6.25132 29.1547 6.69785 29.2267 7.12839 29.3497C8.01544 29.6007 8.41102 30.1248 8.42201 31.035Z" fill="#662E93"/>
<path d="M27.7114 22.7044C28.0676 22.7169 28.4049 22.8682 28.6513 23.126C28.8977 23.3839 29.0337 23.728 29.0303 24.0849C29.0269 24.4418 28.8844 24.7832 28.6332 25.0363C28.3819 25.2895 28.0418 25.4343 27.6854 25.44C27.5031 25.4429 27.322 25.4092 27.1529 25.3409C26.9837 25.2726 26.83 25.1711 26.7006 25.0424C26.5712 24.9137 26.4689 24.7604 26.3997 24.5915C26.3304 24.4226 26.2956 24.2415 26.2974 24.0589C26.2991 23.8763 26.3373 23.6959 26.4098 23.5283C26.4822 23.3607 26.5874 23.2094 26.7192 23.0832C26.851 22.9569 27.0067 22.8584 27.1771 22.7934C27.3475 22.7283 27.5292 22.6981 27.7114 22.7044ZM27.6115 24.5048H27.7863C27.8862 24.3598 28.069 24.2047 28.0531 24.0747C28.0371 23.9447 27.8293 23.7156 27.7084 23.7176C27.5875 23.7196 27.3648 23.9267 27.3458 24.0657C27.3268 24.2047 27.5106 24.3598 27.6075 24.5068L27.6115 24.5048Z" fill="#662E93"/>
</g>
<defs>
<clipPath id="clip0_174_101">
<rect width="33.75" height="36" fill="white"/>
</clipPath>
</defs>
</svg>
