<svg width="16" height="16" viewBox="0 0 16 16" fill="none" xmlns="http://www.w3.org/2000/svg">
<g clip-path="url(#clip0_355_336)">
<path d="M12.375 0C12.3783 0.0416667 12.3846 0.0833333 12.3846 0.125C12.3846 1.58306 12.3846 3.04139 12.3846 4.5C12.3846 4.54167 12.3804 4.58333 12.3775 4.63708H3.61958V3.365H2.0625V16H0V0H2.0625V1.27458H3.625V0H12.375ZM11.8675 0.53125H4.13667V4.11458H11.8675V0.53125ZM1.54167 0.527917H0.531667V15.4692H1.54167V0.527917ZM3.60583 1.81958H2.07417V2.83083H3.60625L3.60583 1.81958Z" fill="#B07FD8"/>
<path d="M2.59375 15.9999V15.4824C2.80917 15.4824 3.02208 15.472 3.23292 15.4858C3.37667 15.4954 3.42833 15.4416 3.46417 15.3083C4.35917 11.958 5.25694 8.60841 6.1575 5.25953C6.17083 5.20953 6.18625 5.16036 6.205 5.09619L6.70083 5.22786C5.78417 8.64453 4.8675 12.0524 3.95083 15.4733H14.6304C13.7137 12.0545 12.7971 8.64827 11.8804 5.23161L12.3663 5.09744C12.3817 5.13911 12.3983 5.17578 12.4079 5.21411C13.3135 8.58328 14.2178 11.9527 15.1208 15.3224C15.1533 15.4441 15.1975 15.4945 15.3292 15.4854C15.5517 15.4695 15.7754 15.4733 15.9987 15.4687V15.9999H2.59375Z" fill="#B07FD8"/>
<path d="M16 6.65634C15.9779 6.72426 15.9583 6.79301 15.9329 6.86009C15.8681 7.05326 15.7587 7.22844 15.6136 7.37142C15.4684 7.5144 15.2916 7.62115 15.0975 7.68301C15.0633 7.69468 15.0283 7.70509 14.9942 7.71634C14.9861 7.72096 14.9784 7.72625 14.9713 7.73218V8.76426H14.4504C14.4504 8.50218 14.4404 8.23801 14.4542 7.97509C14.4629 7.79926 14.4288 7.70843 14.2363 7.64176C13.7017 7.45801 13.3675 6.89968 13.4292 6.33634C13.4908 5.77301 13.7 5.26884 14.1304 4.88218C14.4867 4.56218 14.9267 4.56176 15.2883 4.87884C15.6721 5.21509 15.8604 5.66134 15.9683 6.14801C15.9758 6.18259 15.9892 6.21551 16 6.24926V6.65634ZM14.45 7.15343V6.20301H14.9763V7.15926C15.1282 7.11028 15.2598 7.0126 15.3507 6.88133C15.4416 6.75006 15.4868 6.5925 15.4792 6.43301C15.4629 6.0286 15.3044 5.6429 15.0317 5.34384C14.8167 5.10176 14.6117 5.09801 14.3958 5.33676C14.1034 5.64736 13.9397 6.05726 13.9375 6.48384C13.9394 6.63576 13.9904 6.78299 14.0827 6.90364C14.175 7.02428 14.3039 7.11189 14.45 7.15343Z" fill="#B07FD8"/>
<path d="M4.13169 9.28089H3.63169C3.62548 9.241 3.62145 9.2008 3.61961 9.16047C3.61961 8.94214 3.60503 8.72214 3.62294 8.50506C3.63878 8.31297 3.58669 8.22422 3.39086 8.15256C3.14336 8.06356 2.93156 7.89642 2.78746 7.67639C2.64335 7.45637 2.57478 7.19542 2.59211 6.93297C2.62378 6.32881 2.84878 5.79881 3.30669 5.39131C3.65544 5.07964 4.09128 5.07297 4.43836 5.38922C4.94753 5.85339 5.20378 6.44714 5.14669 7.13297C5.10128 7.66589 4.77169 8.02339 4.26294 8.19464C4.16169 8.22881 4.12586 8.27047 4.12878 8.37839C4.13669 8.67256 4.13169 8.96839 4.13169 9.28089ZM4.12753 7.66547C4.41711 7.62381 4.66919 7.28339 4.64878 6.94422C4.6289 6.54049 4.46854 6.1564 4.19544 5.85839C3.97503 5.61547 3.76919 5.61839 3.54836 5.86631C3.28188 6.16301 3.12473 6.54184 3.10294 6.94006C3.08086 7.27631 3.32169 7.60672 3.62669 7.67006V6.72297H4.12669L4.12753 7.66547Z" fill="#662E93"/>
<path d="M10.0546 11.3445H8.52753V8.26367H10.0546V11.3445ZM9.54169 10.8358V8.78826H9.04586V10.8358H9.54169Z" fill="#662E93"/>
<path d="M8.53003 11.8796H10.055V14.9584H8.53003V11.8796ZM9.0417 12.3946V14.4363H9.5417V12.3946H9.0417Z" fill="#662E93"/>
<path d="M9.54793 5.16675H10.0538V7.73216H8.53168V5.17258H9.02668V7.20841H9.54793V5.16675Z" fill="#662E93"/>
<path d="M4.65997 1.03662H7.21164V3.60454H4.65997V1.03662ZM6.70164 3.08787V1.56162H5.16664V3.08787H6.70164Z" fill="#662E93"/>
<path d="M10.3267 0.958252L11.5163 2.14909L11.145 2.512L10.5904 1.91659V3.59992H10.0688V1.91659L9.50377 2.52408L9.13544 2.14909L10.3267 0.958252Z" fill="#662E93"/>
<path d="M7.75336 1.5349V1.03906H8.76586V1.5349H7.75336Z" fill="#B07FD8"/>
<path d="M8.76706 2.57422H7.75372V2.07422H8.76706V2.57422Z" fill="#B07FD8"/>
<path d="M8.76627 3.60547H7.75793V3.10547H8.76627V3.60547Z" fill="#B07FD8"/>
</g>
<defs>
<clipPath id="clip0_355_336">
<rect width="16" height="16" fill="white"/>
</clipPath>
</defs>
</svg>
