<svg width="15" height="16" viewBox="0 0 15 16" fill="none" xmlns="http://www.w3.org/2000/svg">
<g clip-path="url(#clip0_355_389)">
<path d="M14.9617 16H0.000835018V10.6604H0.515777C0.521996 10.6496 0.527032 10.6381 0.5308 10.6263C0.532469 9.01792 0.532469 7.40958 0.5308 5.80125C0.527662 5.77467 0.519212 5.74899 0.505951 5.72573C0.49269 5.70247 0.474889 5.6821 0.453601 5.66583C0.145637 5.43667 0.00208699 5.13 0.0012524 4.75167C0.0012524 4.36125 -0.00458998 3.97083 0.00459052 3.58042C0.00652243 3.46789 0.0321131 3.35702 0.0797038 3.255C0.587552 2.23 1.10208 1.20833 1.61368 0.185C1.64331 0.125417 1.66501 0.06 1.69005 0H13.2717C13.2925 0.0525 13.3092 0.106667 13.3343 0.157084C13.8556 1.19875 14.3767 2.24042 14.8974 3.28208C14.9321 3.34501 14.9527 3.41465 14.958 3.48625C14.963 3.92875 14.9663 4.37125 14.958 4.81375C14.9587 4.97607 14.9203 5.13619 14.8459 5.28052C14.7715 5.42486 14.6634 5.54917 14.5306 5.64292C14.4948 5.66663 14.4661 5.69964 14.4477 5.7384C14.4292 5.77716 14.4217 5.82021 14.4259 5.86292C14.4279 7.40903 14.4285 8.95514 14.428 10.5013C14.428 10.5517 14.4322 10.6021 14.4355 10.6712H14.9617V16ZM14.4234 11.2121H0.544154V15.4554H14.4234V11.2121ZM6.68799 5.5075C6.20101 5.985 5.55003 5.98042 5.07849 5.5075C4.85774 5.72875 4.59567 5.865 4.27519 5.86458C3.95471 5.86417 3.6964 5.72583 3.47565 5.50292C3.24698 5.73833 2.98617 5.86417 2.67194 5.86417C2.35772 5.86417 2.09148 5.72667 1.88618 5.51625C1.75055 5.60792 1.63872 5.70625 1.51061 5.76625C1.3825 5.82625 1.22518 5.84958 1.08205 5.88875V10.6533H1.87491C1.64373 10.3337 1.59407 9.98958 1.60784 9.63C1.62161 9.28208 1.83568 9.07167 2.18454 9.065C2.2534 9.065 2.32183 9.065 2.42115 9.065C2.17327 8.73167 2.12904 8.38583 2.14281 8.02625C2.15408 7.74 2.31265 7.51792 2.56845 7.48458C2.95195 7.43333 3.32918 7.4625 3.66511 7.68917C3.70684 7.71708 3.74856 7.74292 3.75232 7.745C3.90255 7.64792 4.0173 7.52083 4.15 7.49792C4.67371 7.40708 5.15694 7.5 5.53626 7.9125C5.80625 8.20625 5.89263 8.5625 5.88595 8.94958C5.88595 9.02667 5.87469 9.09292 5.98277 9.12833C6.61163 9.33667 6.94755 9.80417 6.95256 10.4617C6.95256 10.5267 6.95256 10.5917 6.95256 10.6542H8.02084V8.52917H8.82496C8.82496 8.2475 8.81829 7.98292 8.82496 7.71833C8.83581 7.37917 9.00732 7.145 9.31237 6.99667C9.37614 6.96112 9.4261 6.90521 9.45425 6.83792C9.5231 6.67125 9.57443 6.49833 9.63577 6.31792L10.1365 6.48458C10.0773 6.67167 10.0226 6.84208 9.96961 7.01042L10.157 7.13333C10.2129 7.0975 10.2613 7.0475 10.3185 7.03333C10.4754 6.99458 10.5221 6.88042 10.5597 6.74417C10.5985 6.60125 10.6548 6.46292 10.7049 6.31792L10.959 6.40125L11.2094 6.48458C11.1568 6.64208 11.1046 6.77833 11.0688 6.91875C11.0656 6.94338 11.0681 6.96839 11.0759 6.99197C11.0837 7.01554 11.0966 7.03708 11.1138 7.055C11.2211 7.1475 11.5311 7.025 11.5845 6.87292C11.648 6.6925 11.7072 6.51042 11.7723 6.31667L12.2764 6.48333C12.2268 6.63542 12.1742 6.775 12.1375 6.92125C12.1341 6.94558 12.1366 6.97036 12.1447 6.99354C12.1529 7.01672 12.1664 7.03765 12.1842 7.05458C12.4387 7.24125 12.5664 7.48458 12.5598 7.80208C12.5539 8.03958 12.5598 8.27792 12.5598 8.5325H13.3672V10.6496H13.8913V5.86458C13.7413 5.86143 13.5935 5.82751 13.4571 5.76494C13.3207 5.70236 13.1986 5.61247 13.0985 5.50083C12.8715 5.72792 12.614 5.86167 12.2994 5.86333C11.9847 5.865 11.7152 5.73292 11.4994 5.50792C11.0629 5.93 10.4391 6.03333 9.88656 5.51417C9.41961 5.9725 8.77405 5.99333 8.28623 5.51125C7.75836 6.02542 7.09277 5.93583 6.68799 5.5075ZM12.8197 9.07792H8.55664V10.6529H12.8176L12.8197 9.07792ZM5.35557 0.541667V3.7225H6.40632V0.541667H5.35557ZM6.95381 3.72H8.00414V0.544167H6.95381V3.72ZM8.55664 0.541667V3.7225H9.60906V0.541667H8.55664ZM2.5864 0.53375C2.43367 0.53375 2.30848 0.540416 2.18454 0.531666C2.07688 0.52375 2.02055 0.56 1.97089 0.660417C1.51353 1.58333 1.05158 2.5 0.595481 3.42083C0.553751 3.5075 0.543736 3.61042 0.512022 3.7325C0.873817 3.7325 1.19555 3.72583 1.51687 3.73542C1.64206 3.73917 1.68754 3.69375 1.71884 3.58167C1.89369 2.95125 2.07521 2.32292 2.25465 1.69375C2.36273 1.315 2.47081 0.936667 2.5864 0.5325V0.53375ZM14.4376 3.73333C14.423 3.6325 14.4297 3.54917 14.3959 3.48333C13.9207 2.52472 13.4418 1.56778 12.9591 0.6125C12.9493 0.593333 12.9354 0.576541 12.9184 0.563299C12.9013 0.550057 12.8816 0.540683 12.8606 0.535833C12.7062 0.5275 12.551 0.532084 12.3736 0.532084C12.4659 0.854584 12.5531 1.15708 12.6395 1.46125C12.8414 2.16986 13.0438 2.87819 13.2466 3.58625C13.265 3.65042 13.2629 3.73292 13.3718 3.73125C13.7186 3.72917 14.0616 3.73208 14.4384 3.73208L14.4376 3.73333ZM4.24014 0.538333C4.08741 1.60667 3.93718 2.65917 3.78487 3.72208H4.7989V0.538333H4.24014ZM11.1777 3.72167C11.0245 2.65208 10.8735 1.59667 10.7228 0.543333H10.1603V3.72167H11.1777ZM2.22794 3.7325C2.53966 3.7325 2.82509 3.72833 3.11052 3.73458C3.2161 3.73667 3.24948 3.70125 3.26367 3.59625C3.37008 2.82375 3.48483 2.05208 3.5975 1.28C3.63256 1.03583 3.66469 0.790833 3.69891 0.538333H3.14098C2.83803 1.5975 2.53632 2.65375 2.22794 3.7325ZM12.7359 3.7325C12.4258 2.64917 12.1233 1.59292 11.822 0.54125H11.2636C11.2862 0.699584 11.3079 0.847917 11.3292 0.99625C11.4543 1.87125 11.5795 2.74625 11.7081 3.62125C11.7139 3.66292 11.7673 3.72625 11.7999 3.72708C12.1012 3.735 12.4049 3.73167 12.7359 3.73167V3.7325ZM8.00748 4.27917H6.95256C6.95256 4.4825 6.93962 4.67542 6.95548 4.86583C6.97718 5.12917 7.21337 5.33 7.47793 5.3325C7.73457 5.3325 7.97577 5.145 8.00331 4.88792C8.02334 4.68833 8.00748 4.485 8.00748 4.27917ZM0.543319 4.27917C0.543319 4.48542 0.526627 4.68333 0.547492 4.8775C0.575034 5.13708 0.788689 5.3175 1.04825 5.33292C1.28527 5.34708 1.53064 5.19292 1.57404 4.95458C1.61577 4.73458 1.60158 4.50458 1.61201 4.27917H0.543319ZM13.3614 4.27917C13.3614 4.46667 13.3555 4.64292 13.3614 4.81833C13.3637 4.95197 13.4166 5.07979 13.5095 5.17602C13.6024 5.27226 13.7283 5.32976 13.862 5.33695C13.9957 5.34414 14.1271 5.30047 14.2298 5.21475C14.3325 5.12903 14.3988 5.00762 14.4155 4.875C14.4368 4.68083 14.4196 4.4825 14.4196 4.27708L13.3614 4.27917ZM9.60781 4.27917H8.54788C8.54788 4.43792 8.54788 4.5875 8.54788 4.7375C8.54681 4.78954 8.55058 4.84157 8.55915 4.89292C8.58147 5.01701 8.64696 5.12924 8.74407 5.20982C8.84119 5.2904 8.96368 5.33414 9.08995 5.33333C9.34032 5.32958 9.57943 5.14083 9.60364 4.89458C9.62367 4.69458 9.60906 4.49125 9.60906 4.2775L9.60781 4.27917ZM5.3564 4.27917C5.3564 4.495 5.33888 4.70375 5.36099 4.90792C5.38645 5.1425 5.60845 5.31792 5.8534 5.33333C6.08375 5.3475 6.33204 5.19875 6.37711 4.97125C6.42218 4.74375 6.41174 4.51292 6.42593 4.27917H5.3564ZM11.7652 4.27917C11.7652 4.4875 11.7523 4.68375 11.7681 4.87875C11.7894 5.12875 12.0077 5.31792 12.266 5.33208C12.5164 5.34625 12.7667 5.1725 12.7993 4.92292C12.8264 4.71458 12.8047 4.50125 12.8047 4.27917H11.7652ZM3.75065 4.26917C3.75065 4.485 3.73938 4.67292 3.75316 4.85833C3.76497 4.98502 3.82253 5.1031 3.9151 5.19054C4.00768 5.27798 4.12894 5.32881 4.25628 5.33355C4.38363 5.33829 4.50835 5.29663 4.60719 5.21632C4.70603 5.13601 4.77224 5.02254 4.79347 4.89708C4.81172 4.7163 4.8166 4.53442 4.80808 4.35292C4.80254 4.33373 4.79214 4.31628 4.77789 4.30227C4.76364 4.28826 4.74601 4.27815 4.72671 4.27292C4.40539 4.26625 4.08407 4.26833 3.75065 4.26833V4.26917ZM2.15658 4.27667C2.15658 4.50417 2.13655 4.71333 2.16201 4.91708C2.19164 5.15625 2.41239 5.32375 2.65942 5.33375C2.89478 5.3425 3.14641 5.17792 3.17979 4.94625C3.21067 4.73 3.18605 4.50583 3.18605 4.2775L2.15658 4.27667ZM10.1687 4.27667C10.1687 4.50083 10.1486 4.70958 10.1737 4.91292C10.2041 5.15833 10.4357 5.32958 10.684 5.33292C10.9219 5.33292 11.1664 5.16375 11.196 4.93292C11.2236 4.72042 11.2019 4.50167 11.2019 4.27667H10.1687ZM2.68864 8.00917C2.58556 8.7075 3.05836 9.17583 3.72728 9.04583C3.83119 8.41 3.42516 7.91667 2.68864 8.00917ZM6.40256 10.6492C6.47267 9.93583 6.02992 9.5 5.36308 9.61458C5.24332 10.2917 5.69608 10.75 6.40382 10.6492H6.40256ZM5.33554 9.04875C5.40064 8.32958 4.96999 7.9075 4.2923 8.01625C4.18088 8.70042 4.63115 9.15167 5.33679 9.04875H5.33554ZM3.18772 10.6533C3.30122 9.96792 2.81215 9.48208 2.15241 9.6175C2.05017 10.2213 2.43158 10.7571 3.18897 10.6533H3.18772ZM3.76192 9.615C3.62463 10.2817 4.16962 10.8179 4.79932 10.6379C4.88236 9.94667 4.42625 9.49667 3.76317 9.615H3.76192ZM9.88656 8.52458C9.88656 8.34208 9.88907 8.16708 9.88656 7.9925C9.88951 7.87891 9.88127 7.76531 9.86194 7.65333C9.83357 7.52833 9.733 7.46583 9.60489 7.47208C9.47678 7.47833 9.37246 7.55083 9.3662 7.67625C9.35117 7.95792 9.36119 8.24125 9.36119 8.52458H9.88656ZM10.9515 8.52458C10.9515 8.25208 10.9578 7.99333 10.9494 7.735C10.9501 7.66636 10.9239 7.60016 10.8765 7.5505C10.829 7.50084 10.764 7.47166 10.6953 7.46917C10.563 7.46375 10.4324 7.56208 10.4274 7.69917C10.4169 7.97208 10.4245 8.24542 10.4245 8.52458H10.9515ZM11.4898 8.52458H12.016C12.016 8.2475 12.0227 7.97875 12.0131 7.71042C12.0085 7.64463 11.9791 7.58302 11.9308 7.53804C11.8825 7.49305 11.819 7.46803 11.7529 7.46803C11.6869 7.46803 11.6233 7.49305 11.575 7.53804C11.5267 7.58302 11.4973 7.64463 11.4927 7.71042C11.484 7.97917 11.4911 8.25 11.4911 8.52375L11.4898 8.52458Z" fill="#B07FD8"/>
<path fill-rule="evenodd" clip-rule="evenodd" d="M12.2906 10.0087V9.6062H9.09205V10.1225H12.2794C12.2808 10.109 12.2824 10.0962 12.284 10.084C12.2875 10.0573 12.2906 10.033 12.2906 10.0087ZM10.5939 11.9391L10.2104 11.5416L9.62368 12.1516C8.99524 11.8408 8.33633 12.0091 7.96326 12.6233C7.90353 12.7218 7.83429 12.8146 7.76269 12.9105C7.72925 12.9553 7.6953 13.0008 7.66156 13.0479C7.20253 12.442 6.59537 12.2279 5.87804 12.2695C5.55672 12.2887 5.35225 12.4908 5.35016 12.8091C5.35012 12.8145 5.35007 12.82 5.35003 12.8254C5.34837 13.0274 5.34666 13.2348 5.3873 13.4299C5.66772 14.7245 6.91251 15.1741 7.9303 14.8516C8.36542 14.7137 8.77312 14.4865 9.17947 14.2601C9.32689 14.178 9.47413 14.0959 9.62243 14.0183C9.91537 13.8641 10.0739 13.5958 10.1361 13.2724C10.1446 13.2285 10.1485 13.1838 10.1529 13.1335C10.1549 13.1098 10.1571 13.0849 10.1599 13.0583H10.6744V12.5287H10.036L10.0122 12.487C10.1626 12.3457 10.3127 12.2042 10.4575 12.0677C10.5036 12.0243 10.5491 11.9813 10.5939 11.9391ZM5.89682 12.8208C6.77689 12.6766 7.58144 13.3479 7.47086 14.3812V14.3816C6.53236 14.5324 5.75744 13.7574 5.89682 12.8208ZM8.41298 14.0391C8.288 14.1027 8.16277 14.1665 8.03754 14.2312V14.2316C8.02912 14.1764 8.02072 14.1229 8.01254 14.0708C7.98991 13.9268 7.96888 13.7929 7.95325 13.6595C7.94888 13.6093 7.96136 13.559 7.98872 13.5166C8.16357 13.2629 8.3405 13.012 8.52411 12.7666C8.68018 12.557 8.90301 12.502 9.15005 12.5437C9.25156 12.5577 9.34683 12.6008 9.42436 12.6677C9.50189 12.7346 9.55836 12.8225 9.58696 12.9208C9.6579 13.1354 9.59572 13.4095 9.4021 13.5183C9.07741 13.7007 8.7461 13.8694 8.41298 14.0391Z" fill="#662E93"/>
</g>
<defs>
<clipPath id="clip0_355_389">
<rect width="14.963" height="16" fill="white"/>
</clipPath>
</defs>
</svg>
