<svg width="36" height="36" viewBox="0 0 36 36" fill="none" xmlns="http://www.w3.org/2000/svg">
<g clip-path="url(#clip0_423_239)">
<path d="M34.7139 34.7029V1.28123H9.33997C9.22593 1.28123 9.11104 1.28123 8.997 1.28123C8.63002 1.25979 8.41738 1.06515 8.38222 0.699032C8.3736 0.616769 8.38143 0.53361 8.40526 0.454404C8.42909 0.375198 8.46845 0.301528 8.52104 0.237685C8.57363 0.173843 8.6384 0.121104 8.71158 0.0825446C8.78476 0.0439849 8.86488 0.0203747 8.94727 0.0130892C9.04709 0.00479066 9.14736 0.00335797 9.24737 0.00880175H35.056C35.8071 0.00880175 35.9991 0.194864 35.9991 0.934825C35.9991 12.3381 35.9991 23.7419 35.9991 35.1462C35.9991 35.7919 35.7908 36.0088 35.1717 36.0088C23.7553 36.0088 12.3387 36.0071 0.921736 36.0037C0.702234 36.0037 0.398704 35.9977 0.283809 35.8656C0.112266 35.6499 0.0175269 35.3832 0.0145761 35.1076C0.000857194 24.0285 -0.0028581 12.9531 0.00342972 1.88143C0.00342972 1.49558 -0.00428714 1.10974 0.00342972 0.723897C0.0137189 0.256598 0.251226 0.013088 0.721955 0.0105157C2.16529 0.00365624 3.60835 0.00365624 5.05111 0.0105157C5.47983 0.0105157 5.76192 0.27632 5.76106 0.646729C5.76021 1.01714 5.49698 1.2778 5.0554 1.28037C3.88329 1.28723 2.71205 1.28037 1.53994 1.28037C1.47049 1.28037 1.40104 1.2898 1.30158 1.29752V34.7029H34.7139Z" fill="#B07FD8"/>
<path d="M31.4959 4.50582H4.51007C4.49978 4.67731 4.48006 4.83679 4.48006 5.00056C4.48006 13.6743 4.47606 22.3478 4.46806 31.0209C4.46806 31.4497 4.60353 31.5354 5.00481 31.5354C11.3498 31.524 17.6948 31.522 24.0397 31.5294C24.1967 31.523 24.3539 31.5264 24.5105 31.5397C24.8594 31.5851 25.0438 31.7969 25.0438 32.1467C25.0438 32.4966 24.868 32.7101 24.5156 32.7572C24.4016 32.7682 24.2871 32.772 24.1726 32.7684H4.1954C3.33797 32.7684 3.2265 32.6586 3.2265 31.8021C3.2265 22.5853 3.2265 13.3688 3.2265 4.15256C3.2265 3.37059 3.3654 3.2334 4.15338 3.2334H31.8483C32.6414 3.2334 32.7744 3.36716 32.7744 4.15428V31.8492C32.7744 32.6406 32.6406 32.7744 31.8518 32.7744C30.6942 32.7744 29.5367 32.7787 28.3792 32.7744C27.8647 32.7744 27.6075 32.4863 27.6881 32.0301C27.7507 31.6734 27.995 31.5388 28.3354 31.5388C29.2495 31.5388 30.1643 31.52 31.0792 31.5388C31.4436 31.5474 31.5294 31.4231 31.5285 31.075C31.5188 22.3726 31.5156 13.6706 31.5191 4.96883C31.5165 4.82993 31.5045 4.69017 31.4959 4.50582Z" fill="#B07FD8"/>
<path d="M25.2024 11.8274L18.8995 18.0086L25.1793 24.1624C25.1913 23.9163 25.2024 23.7808 25.2024 23.6479C25.2024 21.8062 25.2024 19.961 25.2136 18.1218C25.2136 17.6253 25.4313 17.3861 25.8438 17.3904C26.2176 17.3904 26.4517 17.6476 26.4543 18.1123C26.4637 20.1256 26.4748 22.1423 26.462 24.1512C26.4568 24.9881 25.8686 25.614 25.1673 25.5403C24.9026 25.5079 24.6545 25.394 24.4573 25.2144C22.2937 23.116 20.1413 21.0082 18 18.8909C17.4418 18.3404 17.4444 17.6605 18 17.1152C20.1273 15.023 22.2803 12.9566 24.3836 10.8405C25.0567 10.1631 26.1164 10.4118 26.39 11.4407C26.4757 11.7511 26.4611 12.0906 26.4637 12.4173C26.4723 13.3888 26.4748 14.3602 26.4637 15.3326C26.456 15.8933 25.981 16.2466 25.56 15.9799C25.3748 15.8625 25.2247 15.5512 25.217 15.318C25.181 14.205 25.2024 13.0912 25.2024 11.8274Z" fill="#662E93"/>
<path d="M15.1448 11.8379C14.5731 12.4535 14.0015 13.0686 13.4299 13.6831C13.344 13.7784 13.2515 13.8675 13.153 13.9497C12.8263 14.2121 12.4893 14.1958 12.2372 13.9137C12.0126 13.6633 12.022 13.3049 12.2938 13.0297C12.876 12.4415 13.4719 11.8653 14.0618 11.284C14.2144 11.1339 14.3756 10.9916 14.5214 10.8347C14.8438 10.4874 15.2442 10.3485 15.6841 10.4994C16.1428 10.6572 16.4206 11.0233 16.5321 11.4983C16.5604 11.6394 16.5722 11.7833 16.5672 11.927C16.5672 15.969 16.5672 20.0109 16.5672 24.0528C16.5672 24.9634 16.0253 25.621 15.2965 25.5404C15.0174 25.5035 14.7567 25.3806 14.5506 25.1889C12.4807 23.1808 10.428 21.159 8.37193 19.1329C8.21508 18.9893 8.07159 18.8317 7.94322 18.6621C7.60539 18.1751 7.62597 17.6332 8.02896 17.2157C8.75692 16.4697 9.50374 15.7426 10.2583 15.0198C10.5524 14.736 10.9271 14.742 11.174 14.9923C11.4535 15.2744 11.4475 15.6037 11.1226 15.9355C10.5301 16.5357 9.92216 17.1231 9.32196 17.7095C9.20503 17.8005 9.08021 17.8809 8.94898 17.9496L15.294 24.1677V11.9699L15.1448 11.8379Z" fill="#662E93"/>
</g>
<defs>
<clipPath id="clip0_423_239">
<rect width="35.9983" height="36" fill="white"/>
</clipPath>
</defs>
</svg>
