<svg width="36" height="33" viewBox="0 0 36 33" fill="none" xmlns="http://www.w3.org/2000/svg">
<g clip-path="url(#clip0_114_55)">
<path d="M32.7764 27.1232H10.0384V27.5348C10.0384 28.5341 10.0442 29.5343 10.0384 30.5345C10.0296 31.4946 9.36373 32.1918 8.46422 32.2035C7.56471 32.2152 6.84998 31.5132 6.84803 30.5414C6.84021 27.0659 6.84021 23.59 6.84803 20.1139C6.84803 18.9689 7.62435 18.218 8.80349 18.1917C9.59545 18.1741 10.3884 18.1917 11.1813 18.1917H11.6311V17.7663C11.6311 15.9614 11.6311 14.1566 11.6311 12.3517C11.6311 11.109 12.4211 10.318 13.6657 10.317C18.836 10.317 24.0069 10.317 29.1784 10.317C30.4201 10.317 31.215 11.1041 31.2209 12.3497C31.2297 14.1302 31.2209 15.9106 31.2209 17.6911V18.1613C31.3793 18.1692 31.5073 18.1809 31.6364 18.1809C32.4186 18.1809 33.2008 18.175 33.9781 18.1809C35.2384 18.1956 36.001 18.9689 36.001 20.2224C36.001 23.662 36.001 27.1014 36.001 30.5404C36.001 31.3568 35.5043 31.9767 34.7299 32.1585C34.3887 32.2388 34.0305 32.2021 33.7126 32.0545C33.3947 31.9068 33.1356 31.6566 32.9769 31.3441C32.8555 31.093 32.7888 30.8191 32.7813 30.5404C32.7588 29.5411 32.7725 28.5399 32.7725 27.5407L32.7764 27.1232ZM7.72016 24.017H35.1171C35.1171 22.6589 35.1298 21.3302 35.1113 20.0014C35.1044 19.5018 34.7319 19.143 34.2313 19.0814C34.0494 19.0638 33.8665 19.0569 33.6838 19.0609H10.9281C10.2808 19.0609 9.63456 19.0609 8.98828 19.0609C8.0653 19.0609 7.72212 19.4031 7.71723 20.3143C7.71723 21.4224 7.71723 22.5324 7.71723 23.6445L7.72016 24.017ZM13.5435 18.1653C13.5435 17.5864 13.5328 17.0516 13.5435 16.5168C13.567 15.4794 14.3453 14.6591 15.3601 14.6425C16.6028 14.621 17.8475 14.6239 19.0912 14.6425C19.4848 14.6512 19.8652 14.7868 20.1754 15.0293C20.4857 15.2717 20.7093 15.608 20.8129 15.9878C20.8718 16.2615 20.8993 16.541 20.8951 16.8209C20.9078 17.2667 20.8951 17.7126 20.8951 18.1496H21.9432C21.9432 17.6304 21.9432 17.1445 21.9432 16.6586C21.9432 15.4081 22.7185 14.6386 23.9788 14.6347C25.0771 14.6347 26.1748 14.6347 27.2718 14.6347C28.5086 14.6347 29.2742 15.4061 29.282 16.6429C29.282 17.1396 29.282 17.6373 29.282 18.1565H30.3028C30.3193 18.094 30.3304 18.0302 30.336 17.9658C30.336 16.0758 30.3468 14.1859 30.336 12.295C30.3302 11.5734 29.9078 11.194 29.1627 11.194C24.0056 11.194 18.8477 11.194 13.6892 11.194C12.8933 11.194 12.5042 11.5851 12.5032 12.3878C12.5032 14.2045 12.5032 16.0211 12.5032 17.8377C12.5032 17.9443 12.5149 18.0499 12.5218 18.1643L13.5435 18.1653ZM35.1034 24.9478H7.74754V26.1983H35.1034V24.9478ZM20.0044 18.1613C20.0044 17.5473 20.0356 16.9754 19.9956 16.4083C19.9856 16.1663 19.8813 15.9378 19.7049 15.7719C19.5286 15.6059 19.2942 15.5157 19.052 15.5205C17.8344 15.5062 16.6169 15.5062 15.3993 15.5205C14.8987 15.5254 14.4929 15.8676 14.4528 16.3643C14.4069 16.9509 14.4421 17.5483 14.4421 18.1613H20.0044ZM22.83 18.1613H28.3864C28.3864 17.5327 28.4167 16.9255 28.3767 16.3222C28.3473 15.8813 27.9337 15.5312 27.4674 15.5254C26.238 15.5097 25.0087 15.5097 23.7794 15.5254C23.538 15.526 23.3059 15.6187 23.1306 15.7846C22.9552 15.9505 22.8498 16.1771 22.8359 16.4181C22.8085 16.9822 22.83 17.5542 22.83 18.1584V18.1613ZM33.6544 27.1173C33.6544 28.2789 33.6544 29.4003 33.6544 30.5208C33.6544 31.0097 33.935 31.3138 34.3652 31.3245C34.7954 31.3353 35.1142 31.0175 35.1181 30.5218C35.124 29.6321 35.1181 28.7423 35.1181 27.8516V27.1173H33.6544ZM7.72212 27.1173C7.72212 28.2672 7.72212 29.373 7.72212 30.4788C7.72212 31.0175 8.00957 31.3362 8.45933 31.3255C8.89246 31.3147 9.15547 31.0028 9.1584 30.4788C9.1584 29.4561 9.1584 28.4343 9.1584 27.4126C9.1584 27.3148 9.13983 27.2259 9.12907 27.1193L7.72212 27.1173Z" fill="#B07FD8"/>
<path d="M21.3976 8.32439H13.0947C12.4152 8.32439 12.3262 8.23933 12.3262 7.57545C12.3262 5.28365 12.3262 2.99153 12.3262 0.699076C12.3262 0.0987501 12.424 0 13.0302 0H29.8188C30.4103 0 30.512 0.10364 30.512 0.706899C30.512 3.02347 30.512 5.34003 30.512 7.6566C30.512 8.19924 30.3888 8.32341 29.8471 8.32439H21.3976ZM22.2883 6.73265L24.5068 4.86616C24.8979 4.53275 25.0348 4.53275 25.4083 4.8818C26.2452 5.66399 27.0818 6.44617 27.9181 7.22835C28.0051 7.3095 28.1136 7.4239 28.2114 7.42977C28.6797 7.45128 29.15 7.43954 29.6086 7.43954V0.896579H13.2287V7.44737C13.7371 7.44737 14.223 7.46692 14.706 7.43759C14.904 7.42552 15.0925 7.34894 15.2428 7.21955C16.3809 6.11765 17.5023 4.99717 18.6287 3.88256C19.0569 3.45921 19.2104 3.46018 19.6162 3.89234L22.2883 6.73265ZM21.7369 7.42879C20.8247 6.45888 19.977 5.55839 19.1488 4.67648L16.4679 7.42879H21.7369ZM26.7292 7.44541L26.7732 7.36328L24.9389 5.6503L22.8759 7.39359C22.9445 7.41596 23.0148 7.43264 23.0861 7.44346C24.3005 7.44541 25.5165 7.44606 26.7341 7.44541H26.7292Z" fill="#B07FD8"/>
<path d="M3.32622 30.9999V13.9043H2.414C2.414 14.3081 2.4052 14.6953 2.42085 15.0776C2.42085 15.1567 2.51177 15.2379 2.57142 15.3093C2.86473 15.6622 2.85202 16.1296 2.53915 16.4317C2.38766 16.5762 2.18633 16.6569 1.97696 16.6569C1.76758 16.6569 1.56625 16.5762 1.41476 16.4317C1.09407 16.1257 1.08722 15.673 1.36979 15.3083C1.45883 15.1878 1.51265 15.045 1.52525 14.8957C1.54676 14.5926 1.52525 14.2866 1.52525 13.9825C1.51417 13.9442 1.4991 13.9072 1.48027 13.872C1.19869 13.872 0.893633 13.8808 0.600314 13.872C0.0772285 13.8534 -0.127117 13.5357 0.0870058 13.0615C0.639423 11.8403 1.2026 10.626 1.75501 9.40575C1.80284 9.2737 1.89305 9.1612 2.01157 9.08585C2.13008 9.01049 2.27022 8.97652 2.41009 8.98923C3.32264 9.00097 4.23714 9.00097 5.1536 8.98923C5.29319 8.97581 5.43328 9.00915 5.55186 9.08401C5.67043 9.15888 5.76077 9.27102 5.80868 9.40281C6.35425 10.6132 6.91351 11.8168 7.46006 13.0263C7.69374 13.5425 7.49037 13.8661 6.9272 13.872C6.17044 13.8808 5.41465 13.872 4.65887 13.872H4.24627V30.9999C4.5611 30.9999 4.86224 30.9999 5.16436 30.9999C5.44887 30.9999 5.65322 31.1201 5.66495 31.4144C5.67668 31.7302 5.46941 31.872 5.16924 31.874C4.24236 31.8785 3.31547 31.8785 2.38858 31.874C2.09526 31.874 1.88407 31.7351 1.89972 31.4115C1.91438 31.1084 2.12459 31.0018 2.40325 31.0018L3.32622 30.9999ZM6.44714 12.9823C6.4002 12.8601 6.36501 12.7525 6.31905 12.6499C6.05311 12.0632 5.71579 11.4991 5.53687 10.8899C5.2807 10.0325 4.78988 9.72644 3.92068 9.86724C3.46995 9.94056 2.89211 9.7284 2.56653 9.94154C2.24094 10.1547 2.11971 10.7413 1.92123 11.1686C1.64648 11.7552 1.3825 12.3536 1.097 12.9842L6.44714 12.9823Z" fill="#662E93"/>
<path d="M23.7852 3.35456C23.7901 4.23451 23.1399 4.94728 22.3235 4.96292C21.5071 4.97857 20.8071 4.24429 20.8119 3.36433C20.8168 2.48438 21.4866 1.7765 22.2981 1.77357C23.1096 1.77064 23.7813 2.48438 23.7852 3.35456ZM22.9053 3.379C22.9053 2.97715 22.6344 2.64961 22.2952 2.65255C21.9715 2.65255 21.6997 2.97422 21.6939 3.35456C21.688 3.73489 21.9735 4.08688 22.3069 4.08199C22.6403 4.0771 22.9014 3.76227 22.9062 3.379H22.9053Z" fill="#662E93"/>
</g>
<defs>
<clipPath id="clip0_114_55">
<rect width="36" height="32.2035" fill="white"/>
</clipPath>
</defs>
</svg>
