<svg width="16" height="16" viewBox="0 0 16 16" fill="none" xmlns="http://www.w3.org/2000/svg">
<g clip-path="url(#clip0_272_17)">
<path d="M2.49711 16C2.31699 15.908 2.27 15.7572 2.27117 15.5622C2.27744 14.5515 2.27117 13.5409 2.27704 12.5298C2.27704 12.3873 2.25277 12.323 2.09378 12.298C1.72209 12.2429 1.36431 12.1175 1.03965 11.9283C0.440137 11.5759 0.114342 11.0437 0.0289769 10.362C-0.0747921 9.52911 0.0971121 8.75025 0.563485 8.05441C0.80744 7.69024 0.854821 7.33978 0.737738 6.91883C0.485952 6.01702 0.651982 5.16885 1.21703 4.42485C1.49584 4.05559 1.56554 3.69494 1.36388 3.27908C1.32101 3.18426 1.28655 3.08586 1.26089 2.98501C0.880666 1.6364 1.83025 0.202432 3.22075 0.0234796C4.50671 -0.141768 5.63759 0.637478 5.91405 1.8831C6.01834 2.34397 5.97533 2.82595 5.79109 3.26107C5.69711 3.48936 5.59804 3.72079 5.68732 3.96905C5.74002 4.11496 5.81348 4.25252 5.90543 4.37747C6.45365 5.11599 6.66197 5.93909 6.42663 6.82563C6.29349 7.32803 6.36202 7.72627 6.64239 8.15975C7.10876 8.88143 7.24777 9.69553 7.08644 10.5433C6.93647 11.3331 6.44347 11.8449 5.7022 12.1198C5.44024 12.2169 5.16456 12.2764 4.87401 12.3598V12.511C4.87401 13.5271 4.87048 14.5433 4.87675 15.5591C4.87675 15.7549 4.82819 15.904 4.65472 16.0016L2.49711 16ZM3.31943 11.8128C4.12805 11.7807 4.68997 11.7717 5.23818 11.617C5.90583 11.4291 6.38864 11.0547 6.49124 10.3248C6.58874 9.62779 6.43407 8.98168 6.0605 8.38491C5.9545 8.22469 5.8619 8.056 5.78365 7.88055C5.6235 7.49289 5.71003 7.1064 5.81067 6.71834C5.99315 6.01349 5.86471 5.35877 5.42183 4.7855C5.00127 4.24081 4.92335 3.67536 5.19745 3.0457C5.28986 2.82973 5.33749 2.59725 5.33748 2.36234C5.33746 2.12743 5.2898 1.89496 5.19738 1.679C5.10495 1.46303 4.96968 1.26806 4.79975 1.10587C4.62982 0.943674 4.42875 0.817636 4.20871 0.735374C3.46823 0.457743 2.6467 0.678986 2.17249 1.29925C1.73862 1.86861 1.69672 2.48731 1.97357 3.13968C2.20656 3.68789 2.15135 4.21222 1.78404 4.68447C1.26128 5.35681 1.12932 6.09416 1.3721 6.90512C1.51907 7.39564 1.44663 7.85105 1.15477 8.27135C0.858961 8.69076 0.680764 9.18168 0.638669 9.69318C0.550171 10.7336 0.939011 11.377 1.93089 11.6119C2.46148 11.7396 3.01635 11.7713 3.321 11.8128H3.31943ZM2.90984 12.4155V15.3648H4.23847V12.4155H2.90984Z" fill="#B07FD8"/>
<path d="M7.93735 16.0001C7.67851 15.8289 7.65071 15.6797 7.83279 15.4189C8.22594 14.8551 8.61961 14.2916 9.0138 13.7285C9.04278 13.6866 9.06941 13.6435 9.11796 13.5695H8.91199C7.75056 13.5672 7.87352 13.6846 7.87078 12.5209C7.87078 12.1457 7.87078 11.7706 7.87078 11.3955C7.87078 11.11 7.98277 10.9988 8.2698 10.9988H15.005C15.2901 10.9988 15.4064 11.1139 15.4068 11.3958C15.4083 11.9897 15.4083 12.5836 15.4068 13.1775C15.4068 13.4516 15.2928 13.5668 15.0187 13.5691C14.7446 13.5715 14.4674 13.5691 14.1604 13.5691C14.1995 13.6337 14.2261 13.6807 14.2563 13.7257C14.6502 14.2894 15.0443 14.8526 15.4385 15.4154C15.6241 15.6809 15.6033 15.8101 15.3457 16.0028H15.1581C15.0798 15.9245 14.9858 15.8532 14.9232 15.7628C14.4355 15.0746 13.9516 14.3837 13.4716 13.6901C13.4484 13.6507 13.4147 13.6186 13.3742 13.5973C13.3337 13.5761 13.2881 13.5666 13.2425 13.5699C12.1743 13.5738 11.1063 13.5738 10.0386 13.5699C9.99046 13.5665 9.94238 13.5767 9.89979 13.5994C9.85721 13.622 9.82185 13.6562 9.79775 13.6979C9.32393 14.3816 8.84647 15.0629 8.36534 15.7416C8.29799 15.8364 8.20558 15.9135 8.12491 15.9989L7.93735 16.0001ZM8.5024 12.932H14.772V11.6351H8.5024V12.932Z" fill="#B07FD8"/>
<path d="M12.3884 7.36959C12.3203 7.57674 12.2659 7.77801 12.1891 7.97028C12.0325 8.36186 11.7028 8.46993 11.3445 8.24438C11.2011 8.15006 11.0628 8.04824 10.9302 7.93934C10.8578 7.88295 10.7975 7.88021 10.7246 7.93934C10.5989 8.04037 10.4732 8.14296 10.3385 8.23068C9.96613 8.47346 9.62428 8.36656 9.45942 7.95461C9.40157 7.79878 9.35164 7.64012 9.30984 7.47923C9.28634 7.39739 9.24601 7.36176 9.15595 7.36568C8.97934 7.37272 8.80157 7.37664 8.62535 7.36568C8.24043 7.34571 8.01919 7.05476 8.10377 6.68002C8.13618 6.54888 8.17646 6.41982 8.22438 6.29353C8.32932 6.0018 8.32775 6.05662 8.08811 5.89059C7.97935 5.81892 7.87476 5.74113 7.77484 5.6576C7.48115 5.39916 7.47881 5.04947 7.7721 4.79377C7.8976 4.68525 8.03244 4.58802 8.17504 4.50322C8.29721 4.43078 8.3023 4.35285 8.25335 4.2342C8.19219 4.08524 8.14206 3.93198 8.10338 3.77566C8.01527 3.39974 8.23338 3.10997 8.62066 3.08883C8.79222 3.08061 8.9641 3.08139 9.13558 3.09118C9.23622 3.09588 9.28478 3.05907 9.3118 2.96274C9.35552 2.79165 9.40953 2.62336 9.47352 2.45877C9.62232 2.09813 9.95712 1.99318 10.2915 2.19798C10.4063 2.26847 10.5124 2.35461 10.6209 2.43293C10.8464 2.6017 10.799 2.60718 11.0234 2.43763C11.1373 2.34679 11.2561 2.26234 11.3793 2.18467C11.6926 1.99827 12.0219 2.10087 12.1668 2.43645C12.236 2.61026 12.2946 2.78811 12.3422 2.969C12.3681 3.05711 12.4119 3.09353 12.5067 3.08961C12.6833 3.08256 12.8611 3.07786 13.0373 3.08961C13.4222 3.11271 13.6352 3.40287 13.5436 3.78193C13.5091 3.9291 13.4625 4.07317 13.4042 4.21266C13.3431 4.3552 13.3572 4.44761 13.5029 4.52828C13.6433 4.60882 13.7746 4.70426 13.8945 4.81296C14.1705 5.06044 14.1686 5.41129 13.8866 5.65525C13.7504 5.7686 13.6065 5.87236 13.4559 5.96577C13.3666 6.02373 13.3439 6.08325 13.3815 6.18427C13.4461 6.34857 13.5011 6.51644 13.5464 6.68706C13.6356 7.05124 13.4175 7.34884 13.0436 7.37116C12.8274 7.37977 12.6085 7.36959 12.3884 7.36959ZM9.99432 7.71144C10.2849 7.5086 10.4971 7.25172 10.8284 7.25251C11.1597 7.25329 11.3699 7.50978 11.6292 7.6903C11.7396 7.397 11.749 7.07003 12.0106 6.87228C12.28 6.66788 12.6026 6.77126 12.9151 6.74189C12.8431 6.44194 12.6465 6.16705 12.7561 5.8483C12.8658 5.52955 13.1845 5.42735 13.4187 5.22569C13.1818 5.02559 12.8634 4.91986 12.755 4.60151C12.6465 4.28315 12.8466 4.011 12.9116 3.70909C12.5983 3.69147 12.2851 3.77958 12.0168 3.58692C11.7486 3.39426 11.7427 3.05398 11.6253 2.7646C11.366 2.94708 11.1534 3.2016 10.8213 3.20004C10.4893 3.19847 10.2833 2.93689 10.0241 2.76656C9.91366 3.05946 9.90308 3.38604 9.64112 3.58339C9.37915 3.78075 9.051 3.68638 8.73343 3.71262C8.77259 3.83009 8.80979 3.93229 8.84581 4.03371C9.01184 4.50361 8.93431 4.74247 8.52472 5.0205C8.428 5.08628 8.33167 5.15285 8.22868 5.22373C8.47655 5.42735 8.7953 5.53699 8.90024 5.85535C9.00519 6.1737 8.81136 6.44585 8.72951 6.77635C9.50132 6.6064 9.92893 6.90478 9.99432 7.71144Z" fill="#B07FD8"/>
<path d="M3.92208 10.1455C4.34498 9.72235 4.76789 9.29918 5.1908 8.87601C5.23356 8.83046 5.27992 8.78842 5.32942 8.75031C5.38759 8.70479 5.46052 8.68234 5.53422 8.68725C5.60792 8.69216 5.67722 8.7241 5.72883 8.77694C5.78077 8.829 5.8122 8.89803 5.81738 8.97139C5.82256 9.04474 5.80113 9.11751 5.75703 9.17635C5.72302 9.22218 5.68516 9.26501 5.64386 9.3044C5.05492 9.89464 4.46559 10.4841 3.87587 11.0728C3.64288 11.3077 3.48781 11.3054 3.25443 11.0728C2.66314 10.4778 2.07303 9.88198 1.48409 9.28521C1.41613 9.21575 1.36578 9.13102 1.33725 9.03812C1.30318 8.91869 1.3584 8.81414 1.46412 8.74366C1.50995 8.70809 1.56588 8.68798 1.62386 8.68622C1.68184 8.68446 1.73889 8.70115 1.78679 8.73387C1.84259 8.77187 1.89429 8.81557 1.94107 8.86426C2.33108 9.25584 2.72058 9.64742 3.10955 10.039C3.1487 10.0782 3.18786 10.1138 3.25835 10.178V9.96304C3.25835 8.36878 3.25835 6.77479 3.25835 5.18105C3.2572 5.11356 3.26179 5.0461 3.27205 4.97939C3.30142 4.81218 3.42868 4.70802 3.58532 4.71546C3.66214 4.71608 3.73563 4.74698 3.78981 4.80145C3.84399 4.85593 3.87449 4.92958 3.8747 5.00641C3.88488 5.37606 3.88057 5.74571 3.88214 6.11575C3.88214 6.20269 3.88214 6.28962 3.88214 6.40592C3.93578 6.36245 3.96789 6.34052 3.99491 6.31389C4.18718 6.1228 4.37592 5.92858 4.57093 5.74062C4.72756 5.58947 4.91434 5.58399 5.04082 5.71908C5.16261 5.84674 5.15634 6.03235 5.01067 6.17997C4.68253 6.51438 4.35203 6.84566 4.01527 7.17342C3.96948 7.214 3.93337 7.26434 3.90958 7.32072C3.8858 7.3771 3.87495 7.43809 3.87783 7.49921C3.88409 8.32153 3.88096 9.14385 3.88096 9.96813V10.1353L3.92208 10.1455Z" fill="#662E93"/>
<path d="M3.57866 4.12441C3.53715 4.12542 3.49587 4.11802 3.4573 4.10266C3.41873 4.0873 3.38366 4.0643 3.35421 4.03503C3.32476 4.00576 3.30154 3.97084 3.28594 3.93237C3.27034 3.89389 3.26268 3.85266 3.26344 3.81114C3.26558 3.72949 3.29953 3.65191 3.35805 3.59493C3.41656 3.53795 3.49502 3.50608 3.5767 3.5061C3.65704 3.50847 3.73332 3.54192 3.78947 3.59942C3.84562 3.65692 3.87726 3.73397 3.87771 3.81434C3.87817 3.89471 3.84741 3.97211 3.79192 4.03025C3.73642 4.08838 3.66053 4.1227 3.58023 4.12598L3.57866 4.12441Z" fill="#662E93"/>
<path d="M12.547 5.22457C12.547 5.68011 12.3666 6.11711 12.0453 6.43999C11.724 6.76287 11.2878 6.94535 10.8323 6.94753C9.88546 6.95379 9.09643 6.16437 9.10269 5.21948C9.10896 4.2746 9.88781 3.49927 10.8288 3.50122C11.2845 3.50391 11.7208 3.6865 12.0426 4.00925C12.3644 4.33201 12.5457 4.7688 12.547 5.22457ZM11.9205 5.22144C11.9201 4.93065 11.8043 4.65191 11.5984 4.44655C11.3925 4.24119 11.1135 4.12602 10.8227 4.12638C10.5319 4.12675 10.2532 4.24261 10.0478 4.44849C9.84246 4.65437 9.72729 4.93339 9.72765 5.22418C9.72452 5.82369 10.2367 6.33079 10.8347 6.32061C11.124 6.31771 11.4005 6.20055 11.6038 5.99465C11.8072 5.78875 11.9209 5.51081 11.9201 5.22144H11.9205Z" fill="#662E93"/>
</g>
<defs>
<clipPath id="clip0_272_17">
<rect width="15.5626" height="16" fill="white"/>
</clipPath>
</defs>
</svg>
