<svg width="17" height="16" viewBox="0 0 17 16" fill="none" xmlns="http://www.w3.org/2000/svg">
<path d="M0 6.71871C0.0540625 6.60184 0.09375 6.47465 0.164688 6.36996C0.352188 6.09746 0.619063 5.96715 0.95 5.96715C1.47594 5.96715 2.00219 5.96715 2.52812 5.96715C2.80937 5.96715 2.92312 6.07934 2.92469 6.36684C2.92719 6.8509 2.92469 7.33559 2.92469 7.81965V8.00715L3.70594 7.86215C3.70594 7.59621 3.71 7.32715 3.70594 7.05809C3.69969 6.72465 3.73719 6.3984 3.92156 6.11402C4.03938 5.9334 4.18875 5.77371 4.32469 5.60371C3.54344 4.9184 3.63938 3.91309 4.20625 3.3309C4.78781 2.73371 5.71469 2.72059 6.34625 3.29965C6.8625 3.77371 7.1275 4.82402 6.2525 5.61809C6.67562 6.03527 7.39937 6.07777 7.86812 5.71184C7.93781 5.65746 8.00437 5.59902 8.07312 5.54309C8.47625 5.21402 9.03375 5.24465 9.36969 5.61434C9.71875 5.99996 9.70094 6.56777 9.31969 6.93746C8.67344 7.56402 7.90781 7.95684 7.01562 8.09684C6.975 8.10309 6.935 8.11496 6.87813 8.12809C6.87813 8.39809 6.86438 8.66809 6.88469 8.93527C6.89344 9.04777 6.99 9.12996 7.1275 9.12809C7.37219 9.12465 7.61719 9.12652 7.86187 9.12809C8.75656 9.1309 9.41531 9.57777 9.7425 10.4093C10.0106 11.0916 10.2753 11.7752 10.5366 12.46C10.5507 12.506 10.5767 12.5476 10.6119 12.5805C10.6471 12.6134 10.6903 12.6365 10.7372 12.6475C11.3337 12.8268 11.7059 13.3809 11.6194 14.1003C11.5997 14.2625 11.4772 14.3534 11.2822 14.3621C11.1375 14.3687 10.9922 14.3621 10.8337 14.3621C10.8355 14.3961 10.8411 14.4298 10.8506 14.4625C11.1081 15.029 10.7569 15.8271 10.0234 15.9746C10.0042 15.9808 9.98587 15.9893 9.96875 16H9.65625C9.63257 15.9902 9.60837 15.9817 9.58375 15.9746C9.05094 15.8496 8.71313 15.4696 8.68406 14.924C8.67438 14.7431 8.72563 14.5593 8.75062 14.3615C8.34625 14.3615 7.92594 14.3653 7.50562 14.359C7.45256 14.3551 7.39939 14.365 7.35123 14.3876C7.30307 14.4102 7.26154 14.4448 7.23063 14.4881C6.75531 15.0746 6.16813 15.5125 5.44719 15.7471C5.09937 15.8606 4.73281 15.9165 4.375 15.9971H3.78125C3.6125 15.9696 3.44219 15.9481 3.27469 15.914C2.31 15.7165 1.51781 15.2309 0.897187 14.4687C0.589743 14.0873 0.354243 13.6532 0.202188 13.1875C0.174233 13.1132 0.176016 13.0311 0.207164 12.9581C0.238313 12.8852 0.296423 12.827 0.369375 12.7959C0.527187 12.7278 0.690625 12.79 0.774062 12.9553C0.809375 13.0243 0.83375 13.099 0.86375 13.1709C1.36063 14.3634 2.23875 15.1 3.51312 15.3178C5.86969 15.7203 7.92438 13.6303 7.45063 11.2865C7.15406 9.81559 6.23375 8.86527 4.75969 8.56246C3.34937 8.27277 2.17344 8.74809 1.29594 9.89715C1.10844 10.1418 0.990625 10.4384 0.83875 10.7096C0.747187 10.8734 0.585312 10.9325 0.430313 10.8628C0.275313 10.7931 0.21 10.6253 0.277812 10.454C0.338041 10.2989 0.407542 10.1476 0.485938 10.0009C0.871447 9.2797 1.46556 8.69158 2.19062 8.3134C2.2325 8.29121 2.28906 8.24934 2.2925 8.21246C2.305 8.0809 2.29719 7.94746 2.29719 7.80621H0.994062C0.72375 7.80621 0.462812 7.74777 0.286562 7.53809C0.163125 7.39309 0.09375 7.20215 0 7.03121V6.71871ZM6.23313 8.46465C6.24125 8.44871 6.24937 8.44027 6.24937 8.4334C6.25094 8.26684 6.25125 8.10027 6.25219 7.9334C6.25375 7.65215 6.34031 7.55371 6.62281 7.51496C6.67437 7.50777 6.72656 7.50652 6.77906 7.50027C7.59781 7.40184 8.3 7.05902 8.88906 6.48496C9.02188 6.35559 9.02562 6.17559 8.91469 6.04902C8.80375 5.92246 8.63344 5.90934 8.48031 6.02152C8.44687 6.0459 8.41781 6.07527 8.38656 6.10215C7.77812 6.61871 7.09812 6.72527 6.36344 6.43027C6.16906 6.35215 5.99781 6.21465 5.81969 6.0984C5.21312 5.70277 4.3925 6.0984 4.34531 6.8209C4.325 7.1334 4.33875 7.4459 4.33281 7.7584C4.33094 7.84434 4.36094 7.87465 4.4475 7.88184C4.90462 7.9182 5.35171 8.0351 5.76813 8.22715C5.92438 8.29871 6.07719 8.38434 6.23313 8.46465ZM10.9872 13.7375C10.9222 13.435 10.7222 13.2396 10.4494 13.2206C10.2334 13.2053 10.1131 13.1037 10.0381 12.9043C9.78125 12.2187 9.51219 11.5378 9.24469 10.8562C9.17844 10.6875 9.11812 10.5125 9.02375 10.3593C8.68 9.80277 8.14219 9.70559 7.53 9.76277C7.55281 9.80715 7.57312 9.84184 7.58875 9.8784C7.72094 10.1878 7.86125 10.4943 7.97906 10.809C8.01969 10.9178 8.06406 10.9612 8.17531 10.9487C8.42219 10.9212 8.56406 11.0343 8.66438 11.2631C9.00813 12.0478 9.3675 12.8256 9.72531 13.6043C9.74937 13.6571 9.80813 13.7293 9.85281 13.7315C10.2256 13.7418 10.5991 13.7375 10.9872 13.7375ZM6.19438 4.41777C6.19747 4.1779 6.10532 3.94658 5.93813 3.77453C5.77095 3.60249 5.54237 3.50375 5.3025 3.49996C4.81 3.49246 4.39625 3.8959 4.385 4.39527C4.375 4.88371 4.7875 5.30652 5.28125 5.31246C5.5208 5.3143 5.75133 5.22121 5.92245 5.05356C6.09356 4.8859 6.19133 4.65731 6.19438 4.41777ZM7.73031 13.7225H9.09062L8.16438 11.6843C8.17958 12.3882 8.03098 13.0859 7.73031 13.7225ZM2.28875 6.59371C1.82219 6.59371 1.365 6.58934 0.908125 6.59621C0.833147 6.59868 0.762064 6.6302 0.709897 6.68411C0.65773 6.73802 0.628566 6.8101 0.628566 6.88512C0.628566 6.96014 0.65773 7.03222 0.709897 7.08613C0.762064 7.14004 0.833147 7.17156 0.908125 7.17402C1.36437 7.18496 1.82094 7.17777 2.28875 7.17777V6.59371ZM9.80406 14.3656C9.7375 14.3647 9.67143 14.3771 9.60976 14.4021C9.54809 14.4272 9.49207 14.4644 9.44502 14.5115C9.39797 14.5585 9.36083 14.6146 9.33581 14.6763C9.3108 14.738 9.29841 14.804 9.29937 14.8706C9.30007 15.0022 9.35202 15.1284 9.44421 15.2223C9.53639 15.3162 9.66155 15.3705 9.79313 15.3737C9.92747 15.3747 10.0568 15.3228 10.1533 15.2292C10.2497 15.1357 10.3056 15.008 10.3088 14.8737C10.3091 14.8072 10.2963 14.7413 10.2711 14.6797C10.2459 14.6182 10.2087 14.5622 10.1619 14.515C10.115 14.4678 10.0592 14.4304 9.99782 14.4048C9.93643 14.3792 9.87058 14.366 9.80406 14.3659V14.3656Z" fill="#B07FD8"/>
<path d="M0 11.7812C0.069375 11.6375 0.166562 11.5297 0.34375 11.5431C0.413908 11.5504 0.479544 11.5812 0.529983 11.6305C0.580422 11.6798 0.612698 11.7447 0.621562 11.8147C0.628562 11.882 0.613836 11.9498 0.579538 12.0082C0.545239 12.0666 0.493167 12.1124 0.430938 12.1391C0.365732 12.1658 0.293281 12.169 0.225966 12.1482C0.158651 12.1274 0.10065 12.0838 0.061875 12.025C0.04125 11.9959 0.0215625 11.9666 0.00156248 11.9375L0 11.7812Z" fill="#B07FD8"/>
<path d="M14.9999 4.51231C14.9975 5.00683 14.8484 5.48952 14.5716 5.89933C14.2948 6.30913 13.9027 6.62763 13.4449 6.81455C12.987 7.00146 12.4841 7.04839 11.9995 6.9494C11.515 6.85041 11.0708 6.60994 10.7229 6.25842C10.3751 5.90689 10.1393 5.46011 10.0455 4.97457C9.95158 4.48904 10.0038 3.98656 10.1955 3.53072C10.3873 3.07487 10.7099 2.68613 11.1226 2.41367C11.5353 2.1412 12.0195 1.99726 12.514 2.00004C12.8424 2.00099 13.1674 2.06681 13.4703 2.19372C13.7732 2.32064 14.0481 2.50614 14.279 2.73959C14.51 2.97303 14.6926 3.24981 14.8163 3.55403C14.9401 3.85825 15.0024 4.18391 14.9999 4.51231ZM14.0908 4.49913C14.0886 3.62686 13.3636 2.90504 12.4968 2.90822C11.63 2.9114 10.9022 3.64413 10.9059 4.50731C10.9073 4.92925 11.0762 5.33335 11.3755 5.63072C11.6749 5.9281 12.0801 6.09438 12.502 6.09299C12.9239 6.09161 13.328 5.92266 13.6254 5.62333C13.9228 5.324 14.089 4.91879 14.0877 4.49686L14.0908 4.49913Z" fill="#B07FD8"/>
<path d="M4.07625 10.6482C4.41541 10.6498 4.74011 10.7857 4.97917 11.0263C5.21823 11.2669 5.35215 11.5925 5.35157 11.9316C5.34782 12.6344 4.76344 13.2176 4.06844 13.2129C3.37344 13.2082 2.78313 12.6166 2.78719 11.9257C2.79097 11.5861 2.92836 11.2616 3.16962 11.0225C3.41088 10.7834 3.73659 10.6489 4.07625 10.6482ZM4.06563 11.2732C3.89186 11.2754 3.72597 11.346 3.60394 11.4698C3.48191 11.5935 3.41358 11.7603 3.41375 11.9341C3.41969 12.291 3.72625 12.5919 4.07969 12.5863C4.25351 12.5827 4.41891 12.5108 4.54005 12.386C4.66119 12.2613 4.72831 12.0939 4.72688 11.9201C4.72644 11.834 4.70892 11.749 4.67535 11.6698C4.64178 11.5906 4.59282 11.5188 4.53132 11.4587C4.46981 11.3985 4.39697 11.3512 4.31703 11.3194C4.23709 11.2876 4.15164 11.272 4.06563 11.2735V11.2732Z" fill="#662E93"/>
<path d="M6.90624 12.0482C6.83874 13.0482 6.3728 13.8482 5.47624 14.3882C5.31124 14.4876 5.12936 14.4507 5.03592 14.3079C5.01301 14.273 4.99742 14.2338 4.99008 14.1927C4.98273 14.1516 4.9838 14.1094 4.9932 14.0687C5.0026 14.028 5.02015 13.9897 5.04479 13.956C5.06943 13.9223 5.10064 13.8939 5.13655 13.8726C5.43749 13.6782 5.70624 13.4576 5.90624 13.1563C6.12359 12.8305 6.25161 12.4534 6.27749 12.0626C6.27882 12.0054 6.2833 11.9483 6.29092 11.8916C6.32405 11.7129 6.44717 11.6126 6.61655 11.6219C6.77999 11.631 6.89592 11.7548 6.90624 11.9316C6.90624 11.9579 6.90624 11.9838 6.90624 12.0482Z" fill="#662E93"/>
<path d="M4.05595 14.7563C3.99538 14.7522 3.93741 14.7301 3.88941 14.6929C3.8414 14.6557 3.80553 14.6051 3.78635 14.5475C3.76717 14.4899 3.76554 14.4279 3.78167 14.3694C3.7978 14.3109 3.83096 14.2585 3.87695 14.2188C3.92293 14.1792 3.97966 14.1541 4.03993 14.1468C4.1002 14.1394 4.16128 14.1502 4.21543 14.1776C4.26958 14.2051 4.31434 14.248 4.34403 14.301C4.37373 14.354 4.38701 14.4145 4.3822 14.4751C4.37997 14.5152 4.36968 14.5545 4.35192 14.5906C4.33417 14.6267 4.30932 14.6588 4.27886 14.685C4.2484 14.7113 4.21297 14.7311 4.17466 14.7434C4.13636 14.7556 4.09599 14.76 4.05595 14.7563Z" fill="#662E93"/>
</svg>
