<svg width="16" height="16" viewBox="0 0 16 16" fill="none" xmlns="http://www.w3.org/2000/svg">
<g clip-path="url(#clip0_238_84)">
<path d="M5.75 0C5.79015 0.0223655 5.82887 0.0472053 5.86594 0.0743752C5.97031 0.160938 6.01844 0.270312 5.985 0.40625C5.95156 0.542188 5.86844 0.626875 5.73281 0.6525C5.6604 0.663005 5.58718 0.666875 5.51406 0.664062C3.96781 0.664062 2.42146 0.664062 0.875 0.664062H0.677813V8.66406H0.865313C1.64094 8.66406 2.41667 8.66406 3.1925 8.66406C3.26519 8.6632 3.33776 8.66991 3.40906 8.68406C3.48018 8.70049 3.54363 8.74053 3.58906 8.79765C3.63449 8.85477 3.65922 8.92561 3.65922 8.99859C3.65922 9.07158 3.63449 9.14241 3.58906 9.19954C3.54363 9.25666 3.48018 9.2967 3.40906 9.31312C3.3379 9.32755 3.26541 9.33436 3.19281 9.33344C2.41687 9.335 1.64094 9.32281 0.865625 9.33906C0.451562 9.34906 0.150312 9.21875 0 8.8125V0.53125C0.0379162 0.405779 0.106256 0.291624 0.19894 0.19894C0.291624 0.106256 0.405779 0.0379162 0.53125 0H5.75Z" fill="#B07FD8"/>
<path d="M16 8.8125C15.9892 8.82271 15.9798 8.83438 15.9722 8.84719C15.8397 9.185 15.6359 9.33313 15.2731 9.33438C14.4294 9.33781 13.5856 9.33594 12.7419 9.33438C12.5825 9.33438 12.4397 9.29531 12.3669 9.13406C12.3113 9.00906 12.315 8.86844 12.4216 8.79031C12.5245 8.7163 12.647 8.67424 12.7738 8.66938C13.56 8.65906 14.3463 8.66406 15.1325 8.66406H15.3247V0.664062H10.5159C10.4641 0.664062 10.4119 0.665625 10.3597 0.664062C10.1694 0.655 10.0553 0.570313 10.0159 0.406875C9.97688 0.250625 10.0444 0.123125 10.215 0.0275002C10.2273 0.0192073 10.239 0.0100155 10.25 0H15.4688C15.5942 0.0379162 15.7084 0.106256 15.8011 0.19894C15.8937 0.291624 15.9621 0.405779 16 0.53125V8.8125Z" fill="#B07FD8"/>
<path d="M5.59375 16.0001C5.40156 15.9204 5.32187 15.7776 5.33406 15.5701C5.35187 15.2648 5.32531 14.9523 5.37875 14.6538C5.44647 14.2926 5.63601 13.9655 5.91575 13.7271C6.19549 13.4887 6.54852 13.3534 6.91594 13.3438C7.64375 13.3279 8.37219 13.3263 9.09969 13.3438C9.93125 13.3648 10.6237 14.0679 10.6584 14.8995C10.6675 15.1226 10.6556 15.3467 10.6666 15.5698C10.6766 15.7773 10.5984 15.9201 10.4062 15.9998L5.59375 16.0001ZM6.00844 15.3232H10C10 15.2276 10 15.1448 10 15.0617C9.99531 14.426 9.57687 14.0035 8.94344 13.9992C8.31 13.9948 7.68406 13.9992 7.05437 13.9992C6.81344 13.9992 6.59219 14.0579 6.39812 14.206C6.02594 14.4907 5.96875 14.8845 6.00844 15.3232Z" fill="#B07FD8"/>
<path d="M11.5937 16.0001C11.5137 15.9238 11.4012 15.8619 11.36 15.7685C11.2681 15.5598 11.4362 15.3438 11.6847 15.3382C12.0284 15.3307 12.3722 15.3357 12.7159 15.3357H15.305C15.4516 14.6373 15.0578 14.061 14.4847 14.0263C13.7228 13.9801 12.955 13.9976 12.1912 14.0263C12.0084 14.0329 11.8222 14.1738 11.6531 14.2782C11.5212 14.3598 11.3991 14.4241 11.2491 14.3529C11.0325 14.2501 10.9959 13.9851 11.1787 13.8044C11.4553 13.5313 11.7916 13.3573 12.1787 13.3488C12.9487 13.3316 13.72 13.326 14.4897 13.3488C15.1987 13.3701 15.8278 13.9591 15.9687 14.6807C15.9774 14.715 15.9878 14.7488 16 14.7819V15.7507L15.75 16.0007L11.5937 16.0001Z" fill="#662E93"/>
<path d="M0 14.7814C0.07625 14.4489 0.195 14.137 0.433437 13.882C0.745937 13.547 1.12813 13.3486 1.58969 13.3423C2.31885 13.3325 3.04802 13.3325 3.77719 13.3423C4.16656 13.3482 4.50375 13.5082 4.79094 13.7692C4.96344 13.9254 4.98812 14.1129 4.86375 14.2654C4.73938 14.4179 4.54063 14.4311 4.36688 14.2789C4.12469 14.067 3.84687 13.9929 3.53219 13.9976C2.94375 14.0045 2.35531 13.9976 1.76719 13.9995C1.01156 13.9995 0.550937 14.5601 0.688125 15.3351H0.865625C1.97458 15.3351 3.08365 15.3351 4.19281 15.3351C4.25541 15.3338 4.31804 15.3364 4.38031 15.3429C4.44596 15.3481 4.50814 15.3745 4.55739 15.4182C4.60663 15.4619 4.64025 15.5205 4.65312 15.5851C4.67282 15.6508 4.67006 15.7212 4.64527 15.7852C4.62048 15.8491 4.57508 15.903 4.51625 15.9382C4.48219 15.9611 4.445 15.9792 4.40938 16.0007H0.25L0 15.7507V14.7814Z" fill="#662E93"/>
<path d="M8.21875 2.90871e-05C8.53125 0.0790916 8.82719 0.187529 9.08125 0.404716C9.8625 1.0694 9.85906 2.28815 9.06625 2.93597C8.06094 3.75878 6.5975 3.22378 6.35875 1.94597C6.19625 1.07784 6.80156 0.201279 7.68031 0.0300293C7.71453 0.021563 7.74823 0.011129 7.78125 -0.0012207L8.21875 2.90871e-05ZM7.9925 2.6619C8.25697 2.66389 8.5114 2.56074 8.69981 2.37514C8.88823 2.18954 8.9952 1.93669 8.99719 1.67222C8.99917 1.40775 8.89602 1.15332 8.71042 0.964902C8.52482 0.776486 8.27197 0.669518 8.0075 0.667529C7.465 0.659092 7.00094 1.11972 7.00094 1.66753C7.0024 1.93031 7.10726 2.18196 7.29281 2.36804C7.47837 2.55413 7.72972 2.65969 7.9925 2.6619Z" fill="#B07FD8"/>
<path d="M10.9969 6.33552H11.87C12.2266 6.33552 12.335 6.44427 12.3356 6.80052C12.3356 7.1652 12.3331 7.52958 12.3356 7.89427C12.3382 7.97202 12.3241 8.04943 12.2941 8.12124C12.2642 8.19306 12.2192 8.25761 12.1622 8.31052C11.8011 8.66468 11.4446 9.0225 11.0925 9.38396C11.0396 9.44336 11.0081 9.51868 11.0028 9.59802C10.9916 9.82646 11.0012 10.0561 10.9978 10.2855C10.9944 10.5149 10.8637 10.6605 10.6675 10.6605C10.4712 10.6605 10.3366 10.5218 10.3356 10.289C10.3325 9.53895 10.3325 8.78895 10.3356 8.03895C10.3356 7.81208 10.4766 7.66552 10.6713 7.66895C10.8659 7.67239 10.9934 7.82052 10.9978 8.05083C11.0006 8.19489 10.9978 8.33895 10.9978 8.52458C11.2287 8.29395 11.4334 8.09145 11.635 7.88583C11.6531 7.86096 11.6622 7.83063 11.6606 7.79989C11.6625 7.53989 11.6606 7.28021 11.6606 7.00989H4.33688C4.33688 7.28364 4.33688 7.55271 4.33875 7.82239C4.34177 7.85296 4.35523 7.88154 4.37688 7.90333C4.57219 8.10364 4.76938 8.30177 5 8.53489C5 8.34583 4.99844 8.20333 5 8.06052C5.00344 7.82052 5.13406 7.66927 5.33344 7.66989C5.53281 7.67052 5.6625 7.81864 5.66344 8.06208C5.66531 8.80145 5.66531 9.54104 5.66344 10.2808C5.66344 10.4843 5.57281 10.613 5.41781 10.6515C5.19906 10.7055 5.00906 10.5546 5.00188 10.3099C4.99469 10.0705 5.00625 9.83052 4.99625 9.59114C4.99172 9.51665 4.96221 9.44586 4.9125 9.3902C4.56063 9.02791 4.20438 8.6702 3.84375 8.31708C3.78453 8.26268 3.73779 8.19611 3.70672 8.12194C3.67565 8.04777 3.66099 7.96776 3.66375 7.88739C3.66844 7.51239 3.66375 7.13739 3.66563 6.76239C3.66563 6.45677 3.7875 6.33708 4.09094 6.33552C4.38688 6.33395 4.68281 6.33552 4.98594 6.33552C5.00094 6.1127 5.00281 5.90052 5.03125 5.69208C5.15625 4.77583 5.95781 4.03583 6.8875 4.00802C7.62625 3.98593 8.36583 3.98593 9.10625 4.00802C10.1178 4.03771 10.9547 4.88864 10.9975 5.9002C11.0019 6.03864 10.9969 6.17833 10.9969 6.33552ZM10.3406 6.32583C10.3312 6.15114 10.3263 5.98645 10.3128 5.8227C10.2669 5.26302 9.7375 4.7127 9.17719 4.69083C8.45448 4.6627 7.73104 4.65573 7.00688 4.66989C6.06719 4.68895 5.55125 5.48395 5.68594 6.32614L10.3406 6.32583Z" fill="#B07FD8"/>
<path d="M2.66438 12.6622C2.31201 12.6609 1.97452 12.52 1.72583 12.2703C1.47713 12.0207 1.3375 11.6827 1.3375 11.3303C1.34 10.6 1.94281 10 2.66969 10C3.39656 10 4.00156 10.6097 3.99906 11.3347C3.99627 11.6871 3.85452 12.0243 3.60462 12.2728C3.35472 12.5214 3.01684 12.6613 2.66438 12.6622ZM2.66781 11.9991C2.79952 11.9987 2.92816 11.9593 3.03747 11.8858C3.14678 11.8123 3.23184 11.7081 3.2819 11.5862C3.33196 11.4644 3.34477 11.3305 3.31871 11.2014C3.29265 11.0723 3.22889 10.9538 3.1355 10.8609C3.0421 10.768 2.92327 10.705 2.79402 10.6796C2.66476 10.6543 2.5309 10.6679 2.40936 10.7186C2.28782 10.7693 2.18406 10.855 2.11119 10.9647C2.03833 11.0744 1.99963 11.2033 2 11.335C2.00204 11.5112 2.07315 11.6796 2.19802 11.804C2.3229 11.9283 2.49159 11.9987 2.66781 12V11.9991Z" fill="#662E93"/>
<path d="M14.6622 11.336C14.6608 11.6884 14.5198 12.0258 14.2701 12.2744C14.0204 12.5231 13.6824 12.6626 13.33 12.6625C12.5994 12.6597 11.9978 12.0569 12.0009 11.33C12.0041 10.6032 12.6112 9.99817 13.3362 10.001C13.6885 10.0041 14.0253 10.1461 14.2736 10.396C14.5218 10.6459 14.6615 10.9837 14.6622 11.336ZM14 11.3307C13.9993 11.199 13.9596 11.0705 13.8859 10.9614C13.8122 10.8523 13.7078 10.7675 13.5859 10.7177C13.4641 10.6678 13.3301 10.6553 13.2011 10.6816C13.0721 10.7079 12.9538 10.7718 12.8611 10.8653C12.7684 10.9588 12.7055 11.0777 12.6804 11.207C12.6552 11.3362 12.669 11.47 12.7199 11.5915C12.7708 11.7129 12.8565 11.8165 12.9663 11.8893C13.076 11.962 13.2049 12.0005 13.3366 12C13.5128 11.9976 13.681 11.9261 13.8051 11.8009C13.9291 11.6758 13.9991 11.5069 14 11.3307Z" fill="#662E93"/>
<path d="M7.99219 12.6619C7.26063 12.6563 6.655 12.0454 6.66719 11.325C6.67969 10.5907 7.28406 9.99379 8.00781 10.0013C8.73688 10.0088 9.34438 10.6232 9.3325 11.3407C9.32 12.0772 8.72125 12.6679 7.99219 12.6619ZM8.66219 11.3397C8.66262 11.2089 8.62427 11.0808 8.552 10.9717C8.47972 10.8626 8.37676 10.7773 8.25609 10.7267C8.13541 10.676 8.00245 10.6623 7.87396 10.6871C7.74546 10.7119 7.62721 10.7743 7.53411 10.8663C7.441 10.9582 7.37723 11.0757 7.35082 11.2039C7.32441 11.3321 7.33656 11.4652 7.38573 11.5865C7.43489 11.7078 7.51888 11.8118 7.62709 11.8854C7.7353 11.959 7.86289 11.9989 7.99375 12C8.08101 12.0006 8.16753 11.984 8.24836 11.9511C8.32918 11.9182 8.40274 11.8697 8.46482 11.8084C8.5269 11.7471 8.57628 11.6741 8.61015 11.5937C8.64401 11.5133 8.6617 11.427 8.66219 11.3397Z" fill="#B07FD8"/>
<path d="M7 8.34371C7 8.56809 7.00594 8.78121 6.99812 8.99246C6.99156 9.17371 6.88406 9.29246 6.7225 9.31996C6.65072 9.33496 6.57596 9.32424 6.51129 9.28967C6.44662 9.25511 6.39616 9.19891 6.36875 9.1309C6.34752 9.07242 6.33694 9.01061 6.3375 8.9484C6.33437 8.65184 6.33344 8.35465 6.3375 8.05871C6.34062 7.79402 6.4625 7.66684 6.73188 7.6659C7.58 7.66215 8.42802 7.66215 9.27594 7.6659C9.54187 7.6659 9.66219 7.79621 9.665 8.06402C9.66771 8.35569 9.66771 8.64736 9.665 8.93902C9.6625 9.18215 9.53594 9.32965 9.33562 9.3309C9.13531 9.33215 9.00406 9.17965 9 8.94059C8.99719 8.75309 8.99781 8.56559 8.99625 8.37809C8.99625 8.36902 8.98812 8.35996 8.98 8.34309L7 8.34371Z" fill="#662E93"/>
</g>
<defs>
<clipPath id="clip0_238_84">
<rect width="16" height="16" fill="white"/>
</clipPath>
</defs>
</svg>
