<svg width="24" height="18" viewBox="0 0 24 18" fill="none" xmlns="http://www.w3.org/2000/svg">
<g clip-path="url(#clip0_346_232)">
<path d="M0 17.0736V2.47975C0.255141 1.76022 0.778884 1.54607 1.51616 1.54852C7.19045 1.56626 12.8654 1.55831 18.5397 1.55831H18.8364C19.0689 0.737816 19.6018 0.240994 20.4101 0.0764061C20.777 0.00287823 21.1527 -0.0177258 21.5255 0.0152211C22.3949 0.0941497 23.0618 0.495524 23.3861 1.3515C23.4296 1.46469 23.4589 1.58339 23.495 1.69964V15.9723C23.4792 15.9973 23.4664 16.0243 23.4571 16.0524C23.2123 17.2516 22.3044 17.9987 21.0654 17.9987C14.4627 18.0011 7.86043 18.0011 1.25857 17.9987C0.625922 17.9987 0.255753 17.7295 0.0391583 17.125C0.0287564 17.106 0.015556 17.0887 0 17.0736ZM22.7045 13.7133C22.7082 13.6723 22.7125 13.6521 22.7125 13.627C22.7125 9.75199 22.7125 5.87694 22.7125 2.0019C22.7125 1.48488 22.4451 1.12144 21.9685 0.920146C21.5836 0.758006 21.1773 0.741487 20.7735 0.802672C19.9402 0.929937 19.5853 1.35823 19.5853 2.20319V13.7145C20.9589 13.162 21.4802 13.162 22.7045 13.7133ZM12.2896 2.34759C12.2694 2.3438 12.249 2.34155 12.2284 2.34086C11.2495 2.34086 10.2705 2.33658 9.29154 2.34637C9.18977 2.36045 9.09609 2.40956 9.02662 2.48526C6.51028 4.99506 3.9964 7.50732 1.48496 10.022C1.43846 10.0685 1.39624 10.1199 1.39012 10.1266L2.95095 11.6893L12.2896 2.34759ZM13.4429 10.2625L11.7512 11.9561C11.7686 11.9798 11.7874 12.0025 11.8075 12.024C13.5047 13.7225 15.2034 15.4198 16.9036 17.1158C16.9691 17.175 17.0533 17.2092 17.1416 17.2125C18.4876 17.218 19.8337 17.2217 21.1798 17.2125C21.5158 17.2118 21.8422 17.0998 22.1079 16.8941C22.3736 16.6883 22.5636 16.4003 22.6482 16.075C22.6975 15.8361 22.718 15.592 22.7094 15.3482C22.7143 14.8146 22.4322 14.4047 21.9299 14.2218C21.4164 14.0311 20.8512 14.033 20.3391 14.2273C20.1565 14.2902 19.9934 14.3996 19.8659 14.5446C19.7384 14.6896 19.6507 14.8653 19.6116 15.0545C19.4825 15.5831 19.8319 16.0493 20.3556 16.0591C20.7056 16.0653 20.8665 15.8811 20.8059 15.5397C20.7925 15.4644 20.7698 15.3904 20.7594 15.3151C20.7466 15.2231 20.7675 15.1296 20.8182 15.0518C20.8689 14.974 20.946 14.9171 21.0354 14.8917C21.2287 14.8379 21.4025 14.896 21.4808 15.0753C21.7739 15.7483 21.5689 16.5835 20.735 16.7952C20.3637 16.8859 19.9721 16.8377 19.634 16.6596C19.2959 16.4816 19.0346 16.1859 18.8994 15.8285C18.8549 15.7164 18.7885 15.6143 18.7042 15.5281C18.2117 15.0257 17.7118 14.5307 17.2144 14.0333L13.4429 10.2625ZM16.2385 2.34025C15.3752 2.34025 14.5357 2.34392 13.6963 2.33658C13.6253 2.33296 13.5545 2.34507 13.4888 2.37204C13.4231 2.39902 13.3642 2.44019 13.3163 2.4926C10.8155 4.99996 8.31259 7.50507 5.80767 10.0079C5.75628 10.0593 5.70794 10.115 5.66817 10.1585L7.04239 11.5376L16.2385 2.34025ZM18.7985 2.34025C18.3757 2.34025 17.9859 2.32862 17.5974 2.34698C17.4665 2.35498 17.3421 2.40694 17.2444 2.49444C14.8006 4.92715 12.361 7.36414 9.92542 9.80542C9.87219 9.85865 9.82202 9.91495 9.80305 9.93208C10.2711 10.4087 10.7294 10.8737 11.1895 11.3393C11.1828 11.343 11.1895 11.3393 11.1956 11.335C13.6965 8.83829 16.1957 6.34174 18.6932 3.8454C18.748 3.7947 18.7834 3.72658 18.7936 3.65267C18.8027 3.22621 18.7985 2.79914 18.7985 2.34025ZM15.8004 17.2168L9.19243 10.6014C8.68949 11.105 8.16697 11.6281 7.642 12.1549C7.63833 12.1494 7.642 12.1635 7.65546 12.1745C9.30378 13.8241 10.9529 15.4728 12.6029 17.1207C12.6548 17.173 12.7234 17.2055 12.7968 17.2125C13.8015 17.218 14.8104 17.2168 15.7986 17.2168H15.8004ZM3.52058 12.344C3.53121 12.36 3.54307 12.3751 3.55607 12.3893C5.12934 13.9629 6.70363 15.5354 8.27893 17.1066C8.35682 17.1736 8.45585 17.2108 8.55855 17.2119C9.49101 17.2198 10.4241 17.2168 11.3571 17.2161C11.4134 17.2161 11.4691 17.207 11.5144 17.2027L5.08998 10.7783L3.52058 12.344ZM0.781944 9.53866L7.97362 2.34637C7.95342 2.34283 7.93295 2.34098 7.91244 2.34086C6.94204 2.34086 5.97104 2.33597 5.00003 2.34698C4.89072 2.35956 4.78934 2.41025 4.71369 2.49015C3.60135 3.59148 2.51531 4.72524 1.37544 5.80026C0.927563 6.22305 0.721982 6.64583 0.766647 7.26441C0.823549 8.02311 0.781944 8.78914 0.781944 9.53866ZM0.781944 10.7679C0.781944 11.808 0.781943 12.8218 0.788062 13.8375C0.788062 13.9128 0.860872 13.9997 0.920834 14.0596C1.92345 15.0679 2.92974 16.073 3.9397 17.0748C4.02468 17.1551 4.13507 17.2031 4.25174 17.2106C5.18481 17.221 6.11788 17.2168 7.05095 17.2161C7.10663 17.2161 7.16231 17.2057 7.2137 17.2008L0.781944 10.7679ZM14.0505 9.68673L15.4058 11.042C15.4178 11.0355 15.4287 11.0273 15.4382 11.0175C16.5244 9.93208 17.609 8.84523 18.692 7.75695C18.7581 7.67808 18.7943 7.57842 18.7942 7.4755C18.8034 6.86365 18.7991 6.2518 18.7991 5.63995V4.92531C17.2021 6.52673 15.6193 8.11386 14.0505 9.68673ZM17.4708 10.1658C16.955 10.6828 16.4618 11.176 15.9974 11.6404L18.7838 14.4328C18.7807 14.4365 18.796 14.4249 18.796 14.4139C18.7985 13.4826 18.7985 12.5512 18.796 11.6196C18.7961 11.5598 18.7756 11.5019 18.7379 11.4556C18.3078 11.0126 17.8733 10.5745 17.4708 10.1658ZM0.781944 5.23001L3.66131 2.34943C3.67171 2.34943 3.65152 2.34209 3.63133 2.34209C2.82124 2.34209 2.01115 2.3378 1.20167 2.34209C0.931847 2.34209 0.786839 2.49933 0.783167 2.78017C0.778273 3.15462 0.783167 3.52907 0.783167 3.90352L0.781944 5.23001ZM0.781944 15.1028C0.781944 15.6731 0.778272 16.2458 0.781944 16.816C0.781944 17.0234 0.895135 17.1941 1.10194 17.2008C1.70155 17.2204 2.30178 17.2076 2.89099 17.2076L0.781944 15.1028ZM18.7838 8.86379L18.0642 9.57415L18.7838 10.3237V8.86379Z" fill="#B07FD8"/>
</g>
<defs>
<clipPath id="clip0_346_232">
<rect width="23.495" height="18" fill="white"/>
</clipPath>
</defs>
</svg>
