<svg width="17" height="16" viewBox="0 0 17 16" fill="none" xmlns="http://www.w3.org/2000/svg">
<g clip-path="url(#clip0_223_310)">
<path d="M2.67028 8.70561H4.94299C4.98866 8.13316 5.03433 7.56201 5.08131 6.97432H2.53283C2.53935 7.07314 2.54588 7.1737 2.5524 7.27382C2.56023 7.39833 2.51891 7.49497 2.38363 7.50803C2.23835 7.52196 2.18224 7.42532 2.16963 7.2969C2.15919 7.18981 2.15267 7.08228 2.14527 6.97998C1.89647 6.92426 1.87385 6.89509 1.87385 6.64391C1.87385 6.22512 1.87385 5.80619 1.87385 5.38712C1.87385 5.10502 1.91735 5.06106 2.20747 5.06106H2.5885V4.43114C2.48542 4.43114 2.38929 4.43114 2.29316 4.43114C2.08829 4.42853 2.03218 4.3715 2.02826 4.16994C2.02826 4.09463 2.02826 4.01932 2.02826 3.91963C1.82861 3.91963 1.64027 3.92268 1.45237 3.91963C0.732058 3.9057 0.161814 3.42771 0.0274083 2.72335C0.0115158 2.63224 0.00408948 2.53984 0.00522483 2.44735C0.00348495 1.71833 0.00348495 0.989301 0.00522483 0.260273C0.00522483 0.227624 -0.00608424 0.183656 0.0104446 0.164502C0.0626408 0.104427 0.129191 0.00691327 0.184432 0.0112665C0.251852 0.0169258 0.324057 0.0983318 0.371904 0.166243C0.398437 0.202375 0.381038 0.271592 0.381038 0.326008C0.381038 1.00599 0.381038 1.6864 0.381038 2.36638C0.381038 3.09991 0.826011 3.54177 1.56198 3.54177H2.02044V2.9075C1.84036 2.9075 1.66811 2.9075 1.49586 2.9075C1.19486 2.90401 1.0174 2.73337 1.0174 2.43212C1.01479 1.70295 1.0174 0.973774 1.0174 0.244602C1.0174 0.114004 1.05219 0.01562 1.1966 0.00125421C1.31796 -0.0104996 1.39234 0.0809188 1.39278 0.244602C1.39278 0.941125 1.39799 1.63765 1.39017 2.33417C1.39017 2.49394 1.43975 2.54748 1.59504 2.53486C1.73423 2.52354 1.87516 2.53224 2.03 2.53224C2.03 2.41514 2.02783 2.3185 2.03 2.22186C2.03392 2.09822 2.10264 2.0338 2.224 2.02509C2.2675 2.02204 2.31099 2.02509 2.35449 2.02509H11.4549C11.682 2.02509 11.7755 2.07733 11.7811 2.20705C11.7868 2.33678 11.6811 2.40861 11.4536 2.40861H2.428V4.04065H14.1722V2.40687H12.5032C12.4597 2.40832 12.4161 2.40716 12.3727 2.40339C12.2622 2.38902 12.1848 2.32808 12.1865 2.21402C12.1865 2.093 12.2648 2.02465 12.387 2.02465C13.0447 2.02291 13.7025 2.02291 14.3605 2.02465C14.491 2.02465 14.558 2.10214 14.5597 2.23317C14.5597 2.32503 14.5597 2.41688 14.5597 2.53094H14.9099C15.2087 2.53094 15.5075 2.53094 15.8068 2.53094C15.9873 2.53094 16.0778 2.59493 16.0795 2.71682C16.0812 2.83871 15.9895 2.90575 15.812 2.90619C15.4531 2.90619 15.0943 2.90619 14.7354 2.90619C14.6824 2.90619 14.6297 2.91054 14.5689 2.91359V3.54177H15.2539C15.4497 3.54177 15.6454 3.54177 15.8411 3.54177C15.9716 3.54177 16.076 3.58835 16.076 3.7307C16.076 3.87305 15.9764 3.92094 15.8429 3.92007C15.4244 3.91789 15.0064 3.92007 14.5597 3.92007V4.21348C14.5597 4.35452 14.484 4.42374 14.3488 4.42896C14.2352 4.43332 14.1217 4.42896 13.996 4.42896V5.05932C14.1478 5.05932 14.2974 5.05932 14.4475 5.05932C14.6406 5.06149 14.7085 5.12287 14.7085 5.30919C14.7115 5.77717 14.7085 6.24515 14.7085 6.71312C14.7085 6.83153 14.678 6.9408 14.541 6.95081C14.4279 6.95952 14.431 7.02482 14.4244 7.10448C14.3862 7.59785 14.3461 8.09122 14.3044 8.58459C14.2887 8.76482 14.2117 8.85362 14.0917 8.83186C13.9281 8.80182 13.9177 8.67993 13.9299 8.54367C13.9699 8.05611 14.0064 7.56767 14.0438 7.07967C14.0465 7.04789 14.0438 7.01567 14.0438 6.97084H11.5102C11.5197 7.11754 11.5284 7.26207 11.538 7.40616C11.5428 7.47669 11.5532 7.54677 11.555 7.6173C11.558 7.73179 11.5001 7.81015 11.3884 7.82321C11.2661 7.83714 11.1909 7.7627 11.177 7.64516C11.1557 7.46145 11.1443 7.27687 11.1335 7.09229C11.1287 7.01567 11.1182 6.97301 11.0243 6.94689C10.9556 6.92817 10.862 6.83066 10.8603 6.76623C10.8464 6.26604 10.8499 5.76498 10.8538 5.26479C10.8538 5.1281 10.9408 5.06019 11.0774 5.05975H11.5684V4.43941H9.51103V5.06106C9.65501 5.06106 9.80464 5.06106 9.9547 5.06106C10.1565 5.06323 10.2187 5.12331 10.2192 5.32225C10.2192 5.7628 10.2192 6.20335 10.2192 6.64434C10.2192 6.89683 10.1987 6.92339 9.95209 6.98085C9.92295 7.32911 9.8925 7.67737 9.8651 8.02999C9.84944 8.2224 9.78506 8.30729 9.65544 8.29902C9.52582 8.29075 9.47145 8.18845 9.48841 7.98732C9.51756 7.65212 9.54148 7.31605 9.56845 6.96953H7.01518C7.09522 7.97078 7.17438 8.96637 7.25529 9.97851C7.46581 9.97851 7.6659 9.97851 7.86424 9.97851C8.02953 9.97851 8.12522 10.0477 8.11522 10.1661C8.10347 10.3198 7.99908 10.3568 7.86207 10.3533C7.67372 10.3485 7.48451 10.3533 7.28443 10.3533C7.32009 10.8174 7.35359 11.2614 7.38882 11.705C7.41666 12.0572 7.45276 12.4094 7.47364 12.762C7.48103 12.8839 7.52671 12.9248 7.64241 12.9191C7.76724 12.913 7.89251 12.9165 8.01779 12.9191C8.18264 12.9218 8.2705 12.9888 8.26224 13.112C8.25267 13.2591 8.15393 13.2979 8.02387 13.2953C7.89382 13.2927 7.75202 13.2953 7.61631 13.2953C7.28486 13.2953 7.1261 13.1533 7.09739 12.8195C7.05694 12.3537 7.02693 11.8865 6.99039 11.4203C6.89586 10.2168 6.80103 9.0131 6.70592 7.80928C6.68417 7.53371 6.66242 7.25772 6.64198 6.98738C6.38883 6.92339 6.37099 6.90031 6.37056 6.65044C6.37056 6.21511 6.37056 5.77978 6.37056 5.34446C6.37056 5.12418 6.42971 5.06759 6.65242 5.06585C6.78291 5.06585 6.9134 5.06585 7.04389 5.06236C7.05758 5.05932 7.07076 5.05433 7.08304 5.04756V4.44507H5.02172V5.0641C5.18614 5.0641 5.34229 5.06149 5.50019 5.0641C5.66939 5.06715 5.73855 5.13202 5.73985 5.3031C5.7429 5.77673 5.73985 6.24993 5.73985 6.72357C5.73985 6.85156 5.69636 6.94123 5.55064 6.96561C5.5141 6.97171 5.46365 7.04005 5.46365 7.08315C5.39405 7.89068 5.32968 8.69865 5.2653 9.50618C5.17628 10.6232 5.0874 11.7406 4.99867 12.8582C4.97648 13.1294 4.79902 13.2935 4.52412 13.2935C4.04565 13.2964 3.56718 13.2964 3.08872 13.2935C2.81469 13.2913 2.64331 13.1264 2.62113 12.8525C2.49325 11.2752 2.3658 9.69772 2.23879 8.1201C2.22835 7.9895 2.26793 7.88415 2.41278 7.87283C2.55762 7.86151 2.61243 7.95511 2.62243 8.08788C2.63418 8.29162 2.65288 8.49579 2.67028 8.70561ZM2.69812 9.09741C2.7377 9.59977 2.77598 10.0812 2.81425 10.5627C2.8721 11.2941 2.93082 12.0254 2.98607 12.7568C2.99433 12.8682 3.02956 12.9209 3.15353 12.9191C3.5885 12.913 4.02347 12.9148 4.45844 12.9191C4.56718 12.9191 4.6085 12.8848 4.61763 12.7711C4.70854 11.601 4.80511 10.4308 4.89949 9.26109C4.90384 9.20929 4.89949 9.15661 4.89949 9.09828L2.69812 9.09741ZM2.27185 5.45155V6.57251H5.34229V5.45198L2.27185 5.45155ZM11.2426 5.45155V6.57251H14.314V5.45242L11.2426 5.45155ZM6.75246 5.45155V6.57295H9.82378V5.45372L6.75246 5.45155ZM2.99042 4.43723V5.05409H4.61459V4.43723H2.99042ZM11.9625 4.44159V5.05366H13.5906V4.44159H11.9625ZM9.09738 5.05453V4.44507H7.4806V5.05453H9.09738Z" fill="#B07FD8" stroke="#B07FD8" stroke-width="0.1"/>
<path d="M13.1922 14.2518C12.7483 14.5082 12.2529 14.6621 11.742 14.7024C10.0056 14.8408 8.42013 13.4869 8.28964 11.7478C8.15915 9.99212 9.31486 8.51767 11.0452 8.23514C13.0512 7.91126 14.9099 9.60904 14.765 11.6372C14.7407 12.0669 14.6313 12.4875 14.4431 12.8744C14.3905 12.9802 14.3975 13.0403 14.4823 13.1239C14.948 13.581 15.4096 14.0423 15.8672 14.5078C16.1139 14.7576 16.1891 15.0602 16.0847 15.3941C15.9834 15.7154 15.7546 15.9165 15.4249 15.9813C15.1204 16.0427 14.8546 15.9496 14.6354 15.7319C14.1877 15.2876 13.7415 14.8417 13.297 14.3941C13.2587 14.3493 13.2236 14.3017 13.1922 14.2518ZM8.65371 11.4422C8.65037 12.0102 8.81535 12.5665 9.1278 13.0407C9.44025 13.515 9.88614 13.8859 10.4091 14.1066C10.9321 14.3272 11.5088 14.3878 12.0661 14.2806C12.6235 14.1735 13.1367 13.9033 13.5407 13.5044C13.9447 13.1054 14.2215 12.5955 14.3361 12.0392C14.4507 11.4828 14.398 10.905 14.1845 10.3786C13.9711 9.85228 13.6065 9.40106 13.137 9.08199C12.6674 8.76293 12.1138 8.59033 11.5463 8.58602C11.1689 8.58315 10.7946 8.65479 10.4449 8.79683C10.0952 8.93888 9.77688 9.14854 9.50822 9.41382C9.23956 9.67911 9.0258 9.99481 8.87917 10.3429C8.73254 10.6909 8.65593 11.0645 8.65371 11.4422ZM13.5306 14.0777C13.9821 14.533 14.4492 15.0119 14.926 15.4807C15.0169 15.5697 15.139 15.6196 15.2662 15.6196C15.3934 15.6196 15.5155 15.5698 15.6065 15.4808C15.6974 15.3918 15.75 15.2707 15.7529 15.1435C15.7557 15.0162 15.7087 14.8929 15.6219 14.7999C15.1478 14.3136 14.6628 13.8378 14.2422 13.4177L13.5306 14.0777Z" fill="#662E93"/>
<path d="M9.93251 12.5728C9.79679 12.578 9.70937 12.5345 9.69632 12.4082C9.68327 12.282 9.75156 12.2149 9.87335 12.201C10.1113 12.174 10.2444 12.046 10.27 11.8049C10.2827 11.6865 10.3509 11.6107 10.4758 11.6238C10.6098 11.6377 10.6498 11.7317 10.645 11.8567C10.6328 12.2319 10.2887 12.5693 9.93251 12.5728Z" fill="#662E93"/>
<path d="M11.8242 11.0653C11.4545 11.0496 11.1239 10.7209 11.1039 10.3491C11.0974 10.2259 11.1369 10.1315 11.2713 10.1141C11.4058 10.0966 11.4649 10.1824 11.4867 10.3052C11.5302 10.5572 11.6111 10.6386 11.8586 10.6813C11.9803 10.7022 12.0669 10.7575 12.0547 10.8924C12.0425 11.0274 11.9473 11.0696 11.8242 11.0653Z" fill="#662E93"/>
<path d="M13.0856 11.7034C13.2487 11.7791 13.4188 11.8427 13.5728 11.9337C13.6785 11.9963 13.7033 12.1117 13.6184 12.2153C13.5388 12.3111 13.4418 12.2989 13.3427 12.231C13.1252 12.0817 13.0082 12.0817 12.795 12.2288C12.6906 12.3006 12.5897 12.3115 12.5084 12.2049C12.4271 12.0982 12.4688 12.0107 12.5571 11.9328C12.6964 11.808 12.8783 11.7416 13.0652 11.7473L13.0856 11.7034Z" fill="#662E93"/>
<path d="M10.0238 11.1238C10.0243 11.1897 9.99934 11.2531 9.95422 11.301C9.9091 11.349 9.84726 11.3776 9.78157 11.3811C9.74838 11.3817 9.7154 11.3757 9.68451 11.3636C9.65362 11.3514 9.62543 11.3333 9.60154 11.3102C9.57764 11.2872 9.55853 11.2596 9.54527 11.2292C9.53202 11.1987 9.52489 11.166 9.52429 11.1327C9.52369 11.0995 9.52963 11.0665 9.54178 11.0356C9.55392 11.0047 9.57203 10.9765 9.59508 10.9526C9.61812 10.9286 9.64564 10.9095 9.67607 10.8962C9.70651 10.883 9.73925 10.8758 9.77244 10.8752C9.83825 10.8763 9.90111 10.9028 9.94794 10.9491C9.99477 10.9954 10.022 11.058 10.0238 11.1238Z" fill="#662E93"/>
<path d="M12.0143 13.0398C11.9483 13.0394 11.8851 13.0132 11.8382 12.9667C11.7914 12.9202 11.7646 12.8572 11.7637 12.7912C11.7629 12.7409 11.777 12.6914 11.8044 12.6492C11.8318 12.607 11.8711 12.5739 11.9174 12.5542C11.9637 12.5344 12.0148 12.529 12.0642 12.5385C12.1135 12.548 12.159 12.572 12.1946 12.6075C12.2303 12.643 12.2546 12.6884 12.2643 12.7378C12.2741 12.7871 12.2689 12.8383 12.2494 12.8847C12.23 12.9311 12.1971 12.9707 12.1551 12.9983C12.113 13.0259 12.0637 13.0404 12.0134 13.0398H12.0143Z" fill="#662E93"/>
<path d="M12.5193 9.97322C12.5518 9.97241 12.5843 9.9781 12.6146 9.98997C12.645 10.0018 12.6727 10.0196 12.6961 10.0423C12.7195 10.065 12.7381 10.0922 12.7509 10.1222C12.7637 10.1521 12.7705 10.1844 12.7707 10.217C12.7717 10.2664 12.7581 10.3149 12.7315 10.3565C12.7049 10.398 12.6666 10.4308 12.6214 10.4505C12.5761 10.4702 12.5261 10.476 12.4776 10.4672C12.429 10.4584 12.3842 10.4354 12.3488 10.4011C12.3134 10.3667 12.289 10.3226 12.2786 10.2743C12.2683 10.2261 12.2726 10.1758 12.2908 10.13C12.3091 10.0841 12.3406 10.0448 12.3812 10.0168C12.4219 9.98893 12.47 9.97375 12.5193 9.97322Z" fill="#662E93"/>
<path d="M10.926 13.5482C10.8604 13.5497 10.7969 13.5251 10.7495 13.4798C10.702 13.4345 10.6744 13.3722 10.6728 13.3066C10.6721 13.2739 10.6779 13.2415 10.6897 13.2111C10.7016 13.1806 10.7193 13.1529 10.7419 13.1293C10.7645 13.1057 10.7915 13.0868 10.8213 13.0737C10.8512 13.0606 10.8834 13.0535 10.916 13.0528C10.9486 13.0521 10.981 13.0579 11.0114 13.0697C11.0418 13.0816 11.0696 13.0993 11.0931 13.1219C11.1167 13.1445 11.1355 13.1715 11.1487 13.2014C11.1618 13.2313 11.1689 13.2635 11.1696 13.2961C11.1706 13.3619 11.1455 13.4253 11.0999 13.4726C11.0542 13.5199 10.9917 13.547 10.926 13.5482Z" fill="#662E93"/>
<path d="M10.782 9.23902C10.8477 9.23843 10.911 9.26362 10.9583 9.3092C11.0056 9.35477 11.0332 9.4171 11.0352 9.48281C11.0362 9.51668 11.0303 9.55041 11.0178 9.5819C11.0053 9.6134 10.9865 9.642 10.9625 9.66594C10.9385 9.68989 10.9099 9.70866 10.8784 9.72111C10.847 9.73357 10.8132 9.73943 10.7794 9.73834C10.7468 9.73842 10.7146 9.73194 10.6846 9.71931C10.6546 9.70667 10.6274 9.68813 10.6047 9.66478C10.582 9.64143 10.5642 9.61376 10.5523 9.5834C10.5405 9.55304 10.5349 9.52061 10.5358 9.48803C10.5356 9.42237 10.5614 9.3593 10.6075 9.31262C10.6537 9.26595 10.7164 9.23948 10.782 9.23902Z" fill="#662E93"/>
</g>
<defs>
<clipPath id="clip0_223_310">
<rect width="16.1317" height="16" fill="white"/>
</clipPath>
</defs>
</svg>
