<svg width="16" height="13" viewBox="0 0 16 13" fill="none" xmlns="http://www.w3.org/2000/svg">
<g clip-path="url(#clip0_184_136)">
<path d="M16 7.72171C15.8833 7.90504 15.695 7.88838 15.5 7.87505V11.9017C15.5 12.1784 15.425 12.2534 15.1483 12.2534H14.315C14.08 12.2534 13.995 12.1684 13.995 11.9317V7.87671H13.81C13.5833 7.87671 13.4967 7.79005 13.495 7.56838C13.495 7.38005 13.495 7.19338 13.495 7.00505C13.495 6.91171 13.4633 6.87338 13.3683 6.87671C13.175 6.87671 12.9833 6.87671 12.79 6.87671C12.5967 6.87671 12.5 6.78504 12.5 6.58671C12.5 6.44171 12.5 6.29671 12.5 6.14338H11.5V11.895C11.5 12.19 11.43 12.26 11.13 12.26H4.865C4.56833 12.26 4.5 12.19 4.5 11.89V10.7717H3.5C3.5 10.8517 3.5 10.9384 3.5 11.015C3.50157 11.0455 3.49698 11.076 3.48651 11.1046C3.47603 11.1332 3.45988 11.1595 3.43903 11.1817C3.41818 11.204 3.39305 11.2218 3.36515 11.2341C3.33725 11.2464 3.30716 11.253 3.27667 11.2534C2.78372 11.2747 2.28986 11.2558 1.8 11.1967C1.34558 11.1121 0.929527 10.8861 0.611328 10.5508C0.293129 10.2155 0.0890758 9.78826 0.0283356 9.33004C0.0206399 9.30387 0.0111714 9.27826 0 9.25338V7.90838C0.115 7.72338 0.306667 7.75171 0.5 7.75005V3.60338C0.5 3.32671 0.574998 3.25171 0.851664 3.25171H1.685C1.92 3.25171 2.005 3.33671 2.005 3.57171V7.75338H2.205C2.41167 7.75338 2.50167 7.84338 2.505 8.04671C2.50833 8.25005 2.505 8.43338 2.505 8.62505C2.505 8.71838 2.53666 8.75671 2.63333 8.75338C2.81 8.75338 2.98667 8.75338 3.16334 8.75338C3.42834 8.75338 3.505 8.83004 3.50667 9.09838V9.24338H4.50667V3.61505C4.50667 3.32505 4.57834 3.25171 4.86167 3.25171H11.1583C11.4317 3.25171 11.5067 3.32838 11.5067 3.60671V4.74171H12.4917C12.4948 4.66557 12.5111 4.59056 12.54 4.52004C12.5613 4.48589 12.5893 4.45635 12.6222 4.43316C12.6551 4.40998 12.6923 4.39362 12.7317 4.38505C13.22 4.36153 13.7094 4.37825 14.195 4.43504C14.6523 4.51808 15.0714 4.74401 15.3922 5.08033C15.7129 5.41665 15.9187 5.84602 15.98 6.30671C15.9864 6.33092 15.9953 6.35438 16.0067 6.37671L16 7.72171ZM5 11.7417H10.98V3.75338H5V11.7417ZM15.5 7.37505C15.5 7.12171 15.5133 6.87504 15.5 6.64671C15.4901 6.44434 15.4554 6.24395 15.3967 6.05004C15.2552 5.63129 14.9563 5.28401 14.5633 5.08171C14.0633 4.81004 13.5383 4.88504 13.015 4.88171V6.37005C13.3017 6.40338 13.61 6.30338 13.8483 6.54671C14.0867 6.79005 13.9717 7.09671 14.015 7.38005L15.5 7.37505ZM2 8.26338H0.5C0.5 8.53004 0.491667 8.78504 0.5 9.03838C0.506224 9.30219 0.572144 9.56116 0.692805 9.79584C0.813466 10.0305 0.98573 10.2348 1.19667 10.3934C1.735 10.8184 2.36334 10.76 2.99667 10.745V9.26338C2.065 9.18504 2.065 9.18504 2 8.26338ZM1.02 3.76338V7.75338H1.5V3.75338L1.02 3.76338ZM14.52 7.89004V11.745H15V7.88505L14.52 7.89004ZM4.48833 10.2534V9.75338H3.51V10.2534H4.48833ZM11.5 5.61838H12.485V5.26338H11.5V5.61838Z" fill="#B07FD8"/>
<path d="M8.08166 -1.2914e-05C8.89814 0.0163927 9.67745 0.344336 10.26 0.916654C10.4267 1.07332 10.3967 1.28998 10.21 1.36165C10.1553 1.37998 10.0962 1.38085 10.041 1.36413C9.98572 1.34741 9.93704 1.31392 9.90166 1.26832C9.52804 0.900889 9.0534 0.653127 8.53833 0.556653C8.11389 0.467199 7.67416 0.481068 7.25619 0.597089C6.83823 0.71311 6.45427 0.927884 6.13667 1.22332C6.10833 1.24665 6.085 1.27498 6.05666 1.29832C6.00986 1.34463 5.94667 1.3706 5.88083 1.3706C5.81499 1.3706 5.7518 1.34463 5.705 1.29832C5.67918 1.27579 5.65849 1.248 5.64431 1.2168C5.63013 1.18561 5.6228 1.15175 5.6228 1.11748C5.6228 1.08322 5.63013 1.04936 5.64431 1.01817C5.65849 0.986974 5.67918 0.95918 5.705 0.936653C5.97309 0.666331 6.28825 0.447187 6.635 0.289985C7.08971 0.0871145 7.58389 -0.0119482 8.08166 -1.2914e-05Z" fill="#662E93"/>
<path d="M8.00833 0.9983C8.57627 1.00267 9.1218 1.22041 9.53667 1.6083C9.67833 1.73997 9.70333 1.89163 9.59833 2.0033C9.49333 2.11497 9.35333 2.1133 9.20167 1.97996C8.46667 1.3383 7.54333 1.3383 6.79833 1.97996C6.64167 2.11496 6.49167 2.1183 6.39 1.98997C6.36952 1.96281 6.35464 1.93185 6.34623 1.89889C6.33782 1.86593 6.33604 1.83163 6.341 1.79798C6.34597 1.76433 6.35756 1.73199 6.37513 1.70286C6.3927 1.67374 6.41588 1.64839 6.44333 1.6283C6.86316 1.22267 7.42456 0.996676 8.00833 0.9983Z" fill="#662E93"/>
<path d="M8 2.00001C8.31689 1.99903 8.62239 2.11813 8.855 2.33334C8.88254 2.35381 8.90557 2.37973 8.92266 2.40949C8.93974 2.43924 8.95052 2.4722 8.95432 2.5063C8.95812 2.54041 8.95485 2.57492 8.94473 2.60771C8.93461 2.64049 8.91785 2.67085 8.89549 2.69687C8.87313 2.7229 8.84565 2.74405 8.81477 2.759C8.78388 2.77395 8.75025 2.78238 8.71597 2.78377C8.68168 2.78516 8.64747 2.77947 8.61548 2.76707C8.58349 2.75466 8.55439 2.73581 8.53 2.71167C8.15667 2.42 7.85334 2.42 7.47334 2.71167C7.44881 2.73527 7.41981 2.75372 7.38805 2.76594C7.35628 2.77815 7.32239 2.78388 7.28838 2.7828C7.25436 2.78171 7.22091 2.77382 7.18998 2.7596C7.15906 2.74538 7.1313 2.72512 7.10833 2.7C7.08589 2.67447 7.06889 2.64463 7.05837 2.61231C7.04785 2.57998 7.04403 2.54585 7.04715 2.51199C7.05027 2.47814 7.06026 2.44529 7.07652 2.41543C7.09277 2.38557 7.11494 2.35934 7.14167 2.33834C7.37445 2.12067 7.68131 1.99971 8 2.00001Z" fill="#662E93"/>
<path d="M6.83334 6.70338C6.83013 6.41992 6.90448 6.14097 7.04834 5.89671C7.275 5.50671 7.52667 5.13004 7.78167 4.75671C7.80062 4.71999 7.82862 4.68871 7.86301 4.6658C7.8974 4.6429 7.93707 4.62913 7.97825 4.62579C8.01944 4.62246 8.0608 4.62967 8.09843 4.64674C8.13606 4.66381 8.16872 4.69019 8.19334 4.72338C8.59167 5.20838 8.95167 5.72338 9.11833 6.33504C9.1677 6.4922 9.18376 6.65792 9.16548 6.82164C9.14721 6.98535 9.095 7.14345 9.01219 7.28585C8.92939 7.42825 8.8178 7.55183 8.68456 7.64868C8.55131 7.74554 8.39934 7.81355 8.23833 7.84838C8.06832 7.88386 7.89252 7.88093 7.72378 7.83981C7.55504 7.79869 7.39761 7.72042 7.26298 7.6107C7.12834 7.50098 7.0199 7.36258 6.94557 7.20561C6.87124 7.04864 6.8329 6.87706 6.83334 6.70338ZM8 5.28504C7.72349 5.6347 7.50926 6.02935 7.36667 6.45171C7.32825 6.56313 7.31803 6.68234 7.33693 6.79868C7.35584 6.91501 7.40328 7.02485 7.475 7.11838C7.56789 7.23842 7.69895 7.32318 7.84654 7.35864C7.99412 7.39409 8.14939 7.37813 8.28667 7.31338C8.43449 7.24366 8.55242 7.12327 8.61908 6.97405C8.68574 6.82483 8.69671 6.65666 8.65 6.50005C8.51324 6.05712 8.29257 5.64462 8 5.28504Z" fill="#B07FD8"/>
<path d="M8.76167 9.02167C8.55478 9.07279 8.35243 9.14079 8.15667 9.225C7.88317 9.38428 7.57233 9.4682 7.25583 9.4682C6.93934 9.4682 6.6285 9.38428 6.355 9.225C6.17209 9.13965 5.97695 9.08341 5.77667 9.05833C5.61 9.02833 5.49833 8.94667 5.50167 8.8C5.5026 8.7647 5.51086 8.72997 5.52591 8.69803C5.54097 8.66608 5.5625 8.63761 5.58914 8.61442C5.61578 8.59123 5.64694 8.57383 5.68065 8.56331C5.71437 8.5528 5.7499 8.5494 5.785 8.55333C6.07849 8.55468 6.36626 8.63468 6.61833 8.785C6.80917 8.90028 7.02788 8.9612 7.25083 8.9612C7.47378 8.9612 7.69249 8.90028 7.88333 8.785C8.15004 8.62984 8.4531 8.5481 8.76167 8.5481C9.07023 8.5481 9.37329 8.62984 9.64 8.785C9.82873 8.86881 10.0286 8.92494 10.2333 8.95167C10.4 8.98334 10.5067 9.07167 10.5 9.21834C10.4979 9.25224 10.489 9.28537 10.4739 9.31578C10.4587 9.34618 10.4376 9.37322 10.4118 9.3953C10.386 9.41738 10.356 9.43404 10.3236 9.4443C10.2913 9.45456 10.2571 9.45819 10.2233 9.455C9.93675 9.44983 9.65558 9.37611 9.40333 9.24001C9.19368 9.15534 8.97945 9.08244 8.76167 9.02167Z" fill="#662E93"/>
<path d="M7.25 10.7201C6.96723 10.7276 6.68775 10.6579 6.44166 10.5184C6.23182 10.3919 5.99323 10.3207 5.74833 10.3118C5.71554 10.3127 5.68291 10.3069 5.65245 10.2947C5.622 10.2825 5.59436 10.2643 5.57124 10.241C5.54813 10.2177 5.53003 10.1899 5.51806 10.1594C5.50609 10.1289 5.50051 10.0962 5.50167 10.0634C5.5018 10.0293 5.50895 9.99566 5.52266 9.96447C5.53637 9.93328 5.55636 9.90524 5.58137 9.88211C5.60638 9.85897 5.63589 9.84122 5.66805 9.82998C5.70022 9.81874 5.73435 9.81424 5.76833 9.81675C6.08204 9.81674 6.38958 9.90386 6.65667 10.0684C6.79002 10.1463 6.93766 10.1966 7.09083 10.2164C7.244 10.2361 7.39958 10.2249 7.54833 10.1834C7.70434 10.1312 7.85547 10.0654 8 9.98675C8.22882 9.87169 8.48138 9.81177 8.7375 9.81177C8.99361 9.81177 9.24618 9.87169 9.475 9.98675C9.71792 10.1281 9.98974 10.2124 10.27 10.2334C10.3015 10.2351 10.3324 10.2431 10.3608 10.2569C10.3893 10.2707 10.4146 10.2901 10.4354 10.3138C10.4563 10.3376 10.4721 10.3653 10.482 10.3953C10.492 10.4253 10.4958 10.4569 10.4933 10.4884C10.492 10.521 10.4843 10.5531 10.4707 10.5827C10.457 10.6124 10.4376 10.639 10.4136 10.6611C10.3896 10.6833 10.3615 10.7005 10.3308 10.7117C10.3002 10.723 10.2676 10.7281 10.235 10.7268C9.94792 10.7251 9.66547 10.6542 9.41166 10.5201C9.22552 10.4307 9.0282 10.3668 8.825 10.3301C8.57873 10.3003 8.32991 10.3594 8.12333 10.4967C7.85914 10.6521 7.55636 10.7296 7.25 10.7201Z" fill="#662E93"/>
</g>
<defs>
<clipPath id="clip0_184_136">
<rect width="16" height="12.2533" fill="white"/>
</clipPath>
</defs>
</svg>
