<svg width="36" height="36" viewBox="0 0 36 36" fill="none" xmlns="http://www.w3.org/2000/svg">
<g clip-path="url(#clip0_384_48)">
<path d="M0 6.96111C0.20625 6.57861 0.524062 6.46143 0.95625 6.46143C10.1662 6.4708 19.3763 6.4733 28.5863 6.46892C29.3109 6.46892 29.5312 6.68924 29.5312 7.41299C29.5312 16.623 29.5337 25.8333 29.5387 35.0439C29.5387 35.4761 29.4188 35.7939 29.0391 36.0002H0V6.96111ZM28.1091 7.89861H1.43438V34.5752H28.1091V7.89861Z" fill="#B07FD8"/>
<path d="M27.2812 0C27.9778 0.673125 28.6875 1.335 29.3644 2.02687C29.6287 2.29594 29.6006 2.65969 29.325 2.94656C28.7494 3.54656 28.1619 4.13469 27.5625 4.71094C27.5 4.7778 27.4245 4.83124 27.3406 4.868C27.2567 4.90477 27.1663 4.92409 27.0747 4.92479C26.9832 4.92549 26.8924 4.90756 26.808 4.87209C26.7236 4.83661 26.6473 4.78433 26.5837 4.71844C26.2978 4.43719 26.2922 4.03687 26.5837 3.71437C26.7328 3.55125 26.9081 3.41063 27.1406 3.19688H2.45437C2.64187 3.39938 2.82938 3.57187 2.98875 3.76594C3.10845 3.89782 3.17135 4.07158 3.16381 4.24953C3.15626 4.42748 3.07888 4.59528 2.94844 4.71656C2.68969 4.97062 2.29219 5.0175 2.02687 4.755C1.33594 4.07625 0.674062 3.36844 0 2.67188V2.25L2.25 0H2.67188C3.08906 0.28125 3.27562 0.576563 3.12562 0.876563C2.97562 1.17656 2.71406 1.44656 2.50406 1.72687H27.0666C26.1919 0.711562 26.1656 0.46875 26.8594 0H27.2812Z" fill="#662E93"/>
<path d="M33.3281 35.9999C32.6316 35.3268 31.9219 34.664 31.245 33.9731C30.9816 33.7059 31.0285 33.3112 31.2825 33.0515C31.342 32.9862 31.4139 32.9334 31.4939 32.8961C31.574 32.8588 31.6606 32.8377 31.7489 32.8342C31.8371 32.8306 31.9252 32.8446 32.008 32.8753C32.0908 32.906 32.1667 32.9528 32.2313 33.0131C32.4063 33.1847 32.5692 33.3682 32.7188 33.5624L32.8041 33.5081V8.84151C32.6016 9.07026 32.4685 9.24276 32.3119 9.38995C31.9753 9.70588 31.5619 9.70963 31.2806 9.41526C30.9994 9.12088 30.9994 8.72713 31.3116 8.41026C31.8741 7.83088 32.4456 7.25963 33.0263 6.69651C33.3272 6.40494 33.6938 6.36276 33.9731 6.63557C34.665 7.31244 35.3269 8.02213 36 8.71869V9.14057C35.7141 9.55776 35.4225 9.74526 35.1235 9.59432C34.8244 9.44338 34.5544 9.18182 34.2731 8.96901V33.5399C35.2894 32.6606 35.5275 32.6353 36 33.3281V33.7499L33.75 35.9999H33.3281Z" fill="#662E93"/>
<path d="M25.3125 21.2484V30.8438C25.3125 31.5609 25.0884 31.7812 24.3628 31.7812H5.175C4.43437 31.7812 4.21875 31.5628 4.21875 30.8137V11.6606C4.21875 10.8947 4.42875 10.6875 5.20312 10.6875H24.3216C25.1109 10.6875 25.3125 10.8919 25.3125 11.6897V21.2484ZM5.65219 13.0697V29.2041L13.6969 21.1594C13.0631 20.5256 12.3909 19.8563 11.7206 19.185C11.3231 18.7856 11.2762 18.3591 11.5922 18.0497C11.9081 17.7403 12.3225 17.7966 12.7275 18.1997C13.2094 18.6788 13.6959 19.1541 14.1666 19.6434C14.3378 19.8369 14.4989 20.0391 14.6494 20.2491L22.7887 12.1144H6.62906C7.11094 12.5906 7.545 13.0097 7.965 13.4428C8.10153 13.5695 8.20734 13.7256 8.27437 13.8994C8.36812 14.2078 8.25844 14.4788 7.98281 14.6616C7.85061 14.7527 7.69008 14.7934 7.53041 14.7762C7.37074 14.759 7.22255 14.6851 7.11281 14.5678C6.6375 14.1 6.18187 13.6144 5.65219 13.0697ZM15.8775 21.1875C18.5569 23.8678 21.24 26.5509 23.8819 29.1947V13.1897C21.1941 15.8756 18.5128 18.555 15.8775 21.1875ZM6.71813 30.3469H22.7494L14.7319 22.3294L6.71813 30.3469Z" fill="#B07FD8"/>
<path d="M10.544 16.3407C10.5385 16.48 10.4917 16.6145 10.4093 16.7271C10.327 16.8396 10.2131 16.925 10.082 16.9725C9.9509 17.0199 9.80864 17.0272 9.67339 16.9934C9.53813 16.9596 9.41602 16.8863 9.32264 16.7828C9.22926 16.6793 9.16886 16.5503 9.14914 16.4122C9.12942 16.2742 9.15129 16.1335 9.21194 16.008C9.2726 15.8824 9.36929 15.7778 9.48968 15.7075C9.61006 15.6372 9.74867 15.6044 9.8878 15.6132C10.0697 15.6269 10.2394 15.7101 10.3616 15.8456C10.4838 15.981 10.5491 16.1584 10.544 16.3407Z" fill="#662E93"/>
</g>
<defs>
<clipPath id="clip0_384_48">
<rect width="36" height="36" fill="white"/>
</clipPath>
</defs>
</svg>
