<svg width="13" height="16" viewBox="0 0 13 16" fill="none" xmlns="http://www.w3.org/2000/svg">
<g clip-path="url(#clip0_191_206)">
<path d="M12.2849 16H0.221608C0.0524417 15.9079 -0.000475264 15.7675 -5.85975e-05 15.5754C0.00355251 10.5251 0.00355251 5.47486 -5.85975e-05 0.424583C-5.85975e-05 0.2325 0.052025 0.09125 0.221608 0H12.2849C12.4541 0.0920833 12.507 0.232917 12.5066 0.424583C12.5041 5.47486 12.5041 10.525 12.5066 15.575C12.507 15.7671 12.4537 15.9079 12.2849 16ZM2.50286 15.3712V15.1758C2.50286 11.6344 2.50286 8.09278 2.50286 4.55083C2.50286 4.21958 2.59911 4.12333 2.93036 4.12333H9.55536C9.91786 4.12333 10.0037 4.21042 10.0037 4.57667V15.3675H11.8704V0.635417H0.639525V15.3712H2.50286ZM5.93202 15.3683V4.7625H3.13661V15.3683H5.93202ZM9.36703 15.3708V4.75958H6.58078V15.3708H9.36703Z" fill="#B07FD8"/>
<path d="M3.76081 1.90614V2.8303H8.74539V1.90614H7.82664C7.76413 1.90829 7.70155 1.90732 7.63914 1.90322C7.56064 1.89595 7.48768 1.85961 7.43457 1.80134C7.38146 1.74307 7.35203 1.66706 7.35206 1.58822C7.35498 1.43489 7.47706 1.28864 7.63456 1.28614C8.12373 1.27864 8.61303 1.27864 9.10248 1.28614C9.17707 1.28789 9.24794 1.31912 9.29956 1.37301C9.35118 1.42689 9.37935 1.49903 9.37789 1.57364C9.38289 2.10475 9.38289 2.63572 9.37789 3.16655C9.37789 3.33864 9.25289 3.45322 9.07914 3.46697C9.04289 3.46947 9.00622 3.46697 8.96997 3.46697H3.55039C3.23206 3.46697 3.13373 3.36572 3.13123 3.04489C3.13123 2.58683 3.13123 2.1285 3.13123 1.66989C3.13123 1.3903 3.24206 1.27947 3.51831 1.27905C3.94025 1.27905 4.36206 1.27905 4.78373 1.27905C5.02622 1.27905 5.16414 1.39655 5.16122 1.59655C5.15789 1.78822 5.02081 1.90239 4.78831 1.90322C4.45081 1.90697 4.11331 1.90614 3.76081 1.90614Z" fill="#662E93"/>
<path d="M10.935 9.75012C10.8732 9.74882 10.8132 9.72913 10.7626 9.69356C10.712 9.65799 10.6731 9.60816 10.651 9.55041C10.6288 9.49267 10.6244 9.42964 10.6382 9.36936C10.652 9.30908 10.6835 9.25428 10.7286 9.21196C10.7737 9.16964 10.8304 9.14172 10.8914 9.13175C10.9524 9.12179 11.0151 9.13023 11.0713 9.15601C11.1275 9.18179 11.1748 9.22373 11.2071 9.27648C11.2393 9.32924 11.2552 9.39041 11.2525 9.4522C11.2481 9.53318 11.2127 9.60935 11.1535 9.66484C11.0944 9.72033 11.0161 9.75088 10.935 9.75012Z" fill="#662E93"/>
<path d="M11.2529 10.6838C11.2538 10.7458 11.2361 10.8066 11.2021 10.8585C11.1682 10.9104 11.1195 10.951 11.0624 10.9751C11.0052 10.9992 10.9422 11.0057 10.8814 10.9937C10.8205 10.9818 10.7646 10.952 10.7208 10.9081C10.677 10.8642 10.6472 10.8083 10.6354 10.7474C10.6235 10.6865 10.6301 10.6235 10.6543 10.5664C10.6785 10.5093 10.7191 10.4607 10.771 10.4268C10.823 10.393 10.8839 10.3753 10.9459 10.3763C11.0267 10.3783 11.1038 10.4113 11.1609 10.4686C11.2181 10.5258 11.251 10.6029 11.2529 10.6838Z" fill="#662E93"/>
<path d="M6.56753 1.59751C6.5671 1.6785 6.5349 1.75609 6.47787 1.81359C6.42083 1.8711 6.34351 1.90392 6.26253 1.90501C6.22165 1.90556 6.18107 1.89805 6.1431 1.88291C6.10513 1.86778 6.07051 1.84531 6.04122 1.8168C5.98207 1.75921 5.94822 1.68048 5.94711 1.59793C5.94601 1.51538 5.97774 1.43577 6.03533 1.37662C6.09292 1.31747 6.17164 1.28362 6.25419 1.28251C6.29567 1.28183 6.33686 1.28952 6.37529 1.30513C6.41373 1.32074 6.44861 1.34395 6.47787 1.37336C6.50712 1.40277 6.53014 1.43778 6.54555 1.4763C6.56095 1.51481 6.56843 1.55604 6.56753 1.59751Z" fill="#662E93"/>
</g>
<defs>
<clipPath id="clip0_191_206">
<rect width="12.5071" height="16" fill="white"/>
</clipPath>
</defs>
</svg>
