<svg width="38" height="36" viewBox="0 0 38 36" fill="none" xmlns="http://www.w3.org/2000/svg">
<g clip-path="url(#clip0_412_226)">
<path d="M-2.39985e-07 28.978C0.166752 28.0828 0.664084 27.3407 1.10778 26.5732C5.81976 18.4261 10.533 10.279 15.2476 2.13183C16.8908 -0.70589 20.5505 -0.710766 22.1947 2.12207C23.8888 5.03845 25.5765 7.95874 27.2577 10.8829C27.3799 11.0761 27.4488 11.2981 27.4576 11.5265C27.4537 11.6875 27.3945 11.8422 27.2898 11.9646C27.1852 12.0869 27.0416 12.1695 26.8832 12.1984C26.5166 12.2852 26.2435 12.1077 26.0621 11.7976C25.4361 10.7249 24.8133 9.65031 24.1937 8.57374C23.0886 6.66632 21.9856 4.75826 20.885 2.84955C20.5008 2.18059 19.9674 1.71056 19.196 1.57208C18.0951 1.37705 17.1853 1.80515 16.608 2.78616C15.9253 3.94075 15.2632 5.10217 14.5923 6.26163C10.3848 13.535 6.17699 20.8088 1.96885 28.0828C1.66557 28.6065 1.41301 29.134 1.5349 29.7688C1.73969 30.8415 2.54127 31.5427 3.64612 31.5836C3.71926 31.5836 3.7924 31.5836 3.86554 31.5836C13.7745 31.5836 23.6831 31.5791 33.5914 31.57C34.0507 31.5691 34.5031 31.458 34.9107 31.2462C35.9425 30.6845 36.2301 29.4119 35.6109 28.3285C34.4573 26.309 33.2861 24.3001 32.1218 22.2825C31.2441 20.7652 30.3665 19.2472 29.4889 17.7285C29.4052 17.5952 29.3423 17.4499 29.3026 17.2975C29.2246 16.9396 29.3787 16.6286 29.6663 16.5047C30.0408 16.3419 30.3909 16.414 30.62 16.7095C30.6834 16.7988 30.741 16.8919 30.7926 16.9884C32.7868 20.4346 34.7908 23.876 36.7655 27.3329C37.058 27.8419 37.2209 28.4251 37.4432 28.9741V29.9249C37.417 29.9922 37.3946 30.0609 37.376 30.1306C37.0581 31.6743 35.9327 32.8016 34.3637 33.0064C33.5367 33.1136 32.6874 33.0551 31.8478 33.0698C31.6215 33.0698 31.3953 33.0698 31.1535 33.0698C31.1535 33.7807 31.1535 34.435 31.1535 35.0942C31.1535 35.7534 30.8921 35.9953 30.2378 35.9953C28.422 35.9953 26.6066 35.9953 24.7915 35.9953C24.0874 35.9953 23.8427 35.7515 23.8407 35.0552C23.8407 34.4005 23.8407 33.7472 23.8407 33.0951H13.6015C13.6015 33.7777 13.6015 34.434 13.6015 35.0903C13.6015 35.7466 13.3431 35.9943 12.6888 35.9943C10.8743 35.9943 9.05892 35.9943 7.24252 35.9943C6.5248 35.9943 6.28979 35.7524 6.28881 35.0191C6.28881 34.3784 6.28881 33.7368 6.28881 33.0688C5.34681 33.0688 4.44771 33.0834 3.54861 33.0688C2.51201 33.0483 1.64217 32.6397 0.933228 31.8781C0.417368 31.3242 0.169677 30.6465 -0.000975609 29.9278L-2.39985e-07 28.978ZM7.78178 33.0932V34.5111H12.1047V33.0932H7.78178ZM25.3259 34.5072H29.6663V33.1097H25.3259V34.5072Z" fill="#B07FD8"/>
<path d="M18.7153 30.1746C13.8161 30.1746 8.91687 30.1561 4.01766 30.1912C3.14782 30.1971 2.85234 29.4891 3.23753 28.826C8.16144 20.4207 13.0698 12.0067 17.9625 3.58395C18.3915 2.8477 19.0468 2.85258 19.4798 3.59662C24.3868 12.0123 29.2932 20.4285 34.1989 28.8455C34.3939 29.1712 34.4914 29.491 34.2759 29.8362C34.0926 30.1288 33.8049 30.1785 33.4812 30.1775C29.6176 30.173 25.7543 30.173 21.8914 30.1775L18.7153 30.1746ZM18.7231 5.26707C14.1554 13.1064 9.62971 20.8696 5.08936 28.6631H14.6157C14.5075 28.5607 14.4402 28.4964 14.3719 28.434C12.129 26.3715 11.3138 22.9389 13.1608 20.0242C13.4933 19.4995 13.8034 18.9613 14.1281 18.4317C14.525 17.7842 15.0545 17.7491 15.5255 18.3489C15.8542 18.7652 16.1711 19.1914 16.5582 19.6985C16.8449 18.8793 17.1277 18.145 17.3569 17.3942C17.7469 16.1128 18.098 14.8188 18.137 13.4662C18.1507 12.9972 18.3194 12.7212 18.6792 12.6188C19.0244 12.5213 19.3433 12.6793 19.5734 13.082C20.3116 14.3751 20.9542 15.7149 21.3531 17.1533C21.6281 18.1411 21.8065 19.1563 22.0425 20.227C22.2649 19.915 22.5067 19.6195 22.7008 19.2948C23.0645 18.6863 23.6593 18.6551 24.066 19.2421C25.9354 21.9423 25.6545 25.7971 23.4097 28.1941C23.2722 28.3413 23.1172 28.4769 22.9387 28.6543H32.3529L18.7231 5.26707ZM15.6845 27.5583C15.8181 27.0512 15.8912 26.5275 16.0911 26.0575C16.5787 24.9146 17.3423 23.9443 18.1487 23.0121C18.4881 22.622 18.9747 22.6386 19.3238 23.0423C19.6505 23.4187 19.9635 23.8097 20.2541 24.2125C20.8226 25.0033 21.3862 25.8049 21.6037 26.7791C21.67 27.0717 21.6632 27.3905 21.6905 27.7094C23.6408 26.3822 24.4034 23.1359 23.3054 21.012C22.8006 21.5625 22.1506 21.959 21.4301 22.1559C20.806 22.3187 20.3262 21.953 20.4033 21.3143C20.5457 20.1266 20.3496 18.9837 20.02 17.8564C19.8348 17.2245 19.5939 16.6092 19.3784 15.986C19.2756 16.1091 19.2061 16.2565 19.1765 16.4141C18.8333 17.7979 18.414 19.1563 17.785 20.4396C17.6161 20.7903 17.4139 21.124 17.1814 21.4362C16.8244 21.9082 16.2735 21.8877 15.9195 21.4138C15.7381 21.169 15.5782 20.9096 15.4017 20.6619C15.2505 20.4503 15.0906 20.2455 14.9258 20.0261C12.9901 22.6893 13.3977 26.2974 15.6845 27.5583ZM18.7523 24.587C18.411 25.0804 18.1448 25.4422 17.9049 25.8215C17.7208 26.1076 17.5579 26.4068 17.4173 26.7167C17.2724 27.0216 17.2478 27.3699 17.3483 27.6921C17.4488 28.0144 17.667 28.2869 17.9595 28.4554C18.2242 28.6228 18.5363 28.6991 18.8483 28.6725C19.1603 28.6459 19.455 28.518 19.6875 28.3082C20.1624 27.8908 20.3233 27.2706 20.0171 26.6923C19.6485 26.0048 19.2107 25.3466 18.7523 24.587Z" fill="#662E93"/>
<path d="M29.1163 14.3075C29.1163 14.7024 28.7575 15.0739 28.3869 15.071C28.1844 15.0662 27.9917 14.9828 27.8496 14.8385C27.7075 14.6942 27.627 14.5003 27.6253 14.2977C27.6264 14.1973 27.648 14.0981 27.6889 14.0063C27.7297 13.9145 27.7889 13.832 27.8628 13.764C27.9367 13.6959 28.0237 13.6437 28.1186 13.6106C28.2134 13.5774 28.314 13.564 28.4142 13.5712C28.6042 13.5781 28.7839 13.6589 28.9151 13.7965C29.0463 13.934 29.1185 14.1174 29.1163 14.3075Z" fill="#662E93"/>
</g>
<defs>
<clipPath id="clip0_412_226">
<rect width="37.4462" height="36" fill="white"/>
</clipPath>
</defs>
</svg>
