<svg width="21" height="16" viewBox="0 0 21 16" fill="none" xmlns="http://www.w3.org/2000/svg">
<g clip-path="url(#clip0_341_117)">
<path d="M0.634935 15.1617L0.596517 15.1322L0.537033 15.1716C0.489627 15.203 0.430262 15.2357 0.364796 15.2704C0.348402 15.2791 0.331572 15.2879 0.314547 15.2969C0.265306 15.3228 0.214436 15.3495 0.167765 15.3759C0.10542 15.4112 0.0434681 15.4496 -0.00349487 15.4904C-0.0449714 15.5265 -0.101739 15.5871 -0.0989543 15.6689C-0.0989462 15.6691 -0.0989387 15.6693 -0.0989296 15.6696L0.000997333 15.6658C0.0112323 15.9947 0.238034 15.9814 0.463645 15.9681C0.545718 15.9633 0.627634 15.9585 0.698909 15.9701C0.715492 15.9716 0.732177 15.9716 0.74876 15.9701M0.634935 15.1617L0.752877 16.0701M0.634935 15.1617C0.634978 15.1611 0.635021 15.1605 0.635064 15.16C0.644551 15.0334 0.653745 14.9108 0.653745 14.7855V14.766V14.7465V14.727V14.7074V14.6879V14.6684V14.6489V14.6294V14.6099V14.5904V14.5709V14.5513V14.5318V14.5123V14.4928V14.4733V14.4538V14.4343V14.4148V14.3952V14.3757V14.3562V14.3367V14.3172V14.2977V14.2782V14.2587V14.2391V14.2196V14.2001V14.1806V14.1611V14.1416V14.1221V14.1026V14.083V14.0635V14.044V14.0245V14.005V13.9855V13.966V13.9465V13.9269V13.9074V13.8879V13.8684V13.8489V13.8294V13.8099V13.7904V13.7709V13.7513V13.7318V13.7123V13.6928V13.6733V13.6538V13.6343V13.6148V13.5952V13.5757V13.5562V13.5367V13.5172V13.4977V13.4782V13.4587V13.4391V13.4196V13.4001V13.3806V13.3611V13.3416V13.3221V13.3026V13.283V13.2635V13.244V13.2245V13.205V13.1855V13.166V13.1465V13.1269V13.1074V13.0879V13.0684V13.0489V13.0294V13.0099V12.9904V12.9708V12.9513V12.9318V12.9123V12.8928V12.8733V12.8538V12.8343V12.8147V12.7952V12.7757V12.7562V12.7367V12.7172V12.6977V12.6782V12.6586V12.6391V12.6196V12.6001V12.5806V12.5611V12.5416V12.5221V12.5026V12.483V12.4635V12.444V12.4245V12.405V12.3855V12.366V12.3465V12.3269V12.3074V12.2879V12.2684V12.2489V12.2294V12.2099V12.1904V12.1708V12.1513V12.1318V12.1123V12.0928V12.0733V12.0538V12.0343V12.0147V11.9952V11.9757V11.9562V11.9367V11.9172V11.8977V11.8782V11.8586V11.8391V11.8196V11.8001V11.7806V11.7611V11.7416V11.7221V11.7025V11.683V11.6635V11.644V11.6245V11.605V11.5855V11.566V11.5464V11.5269V11.5074V11.4879V11.4684V11.4489V11.4294V11.4099V11.3903V11.3708V11.3513V11.3318V11.3123V11.2928V11.2733V11.2538V11.2343V11.2147V11.1952V11.1757V11.1562V11.1367V11.1172V11.0977V11.0782V11.0586V11.0391V11.0196V11.0001V10.9806V10.9611V10.9416V10.9221V10.9025V10.883V10.8635V10.844V10.8245V10.805V10.7855V10.766V10.7464V10.7269V10.7074V10.6879V10.6684V10.6489V10.6294V10.6099V10.5903V10.5708V10.5513V10.5318V10.5123V10.4928V10.4733V10.4538V10.4342V10.4147V10.3952V10.3757V10.3562V10.3367V10.3172V10.2977V10.2781V10.2586V10.2391V10.2196V10.2001V10.1806V10.1611V10.1416V10.122V10.1025V10.083V10.0635V10.044V10.0245V10.005V9.98546V9.96595V9.94644V9.92693V9.90741V9.8879V9.86839V9.84888V9.82936V9.80985V9.79034V9.77083V9.75132V9.7318V9.71229V9.69278V9.67327V9.65375V9.63424V9.61473V9.59522V9.5757V9.55619V9.53668V9.51717V9.49766V9.47814V9.45863V9.43912V9.41961V9.40009V9.38058V9.36107V9.34156V9.32205V9.30253V9.28302V9.26351V9.244V9.22448V9.20497V9.18546V9.16595V9.14643V9.12692V9.10741V9.0879V9.06839V9.04887V9.02936V9.00985V8.99034V8.97082V8.95131V8.9318V8.91229V8.89277V8.87326V8.85375V8.83424V8.81472V8.79521V8.7757V8.75619V8.73668V8.71716V8.69765V8.67814V8.65863V8.63911V8.6196V8.60009V8.58058V8.56106V8.54155V8.52204V8.50253V8.48302V8.4635V8.44399V8.42448V8.40497V8.38545V8.36594V8.34643V8.32692V8.3074V8.28789V8.26838V8.24887V8.22936V8.20984V8.19033V8.17082V8.15131V8.13179V8.11228V8.09277V8.07326V8.05374V8.03423V8.01472V7.99521V7.9757V7.95618V7.93667V7.91716V7.89765V7.87813V7.85862V7.83911V7.8196V7.80008V7.78057V7.76106V7.74155V7.72204V7.70252V7.68301V7.6635V7.64399V7.62447V7.60496V7.58545V7.56594V7.54642V7.52691V7.5074V7.48789V7.46838V7.44886V7.42935V7.40984V7.39033V7.37081V7.3513V7.33179V7.31228V7.29276V7.27325V7.25374V7.23423V7.21472V7.1952V7.17569V7.15618V7.13667V7.11715V7.09764V7.07813V7.05862V7.0391V7.01959V7.00008V6.98057V6.96106V6.94154V6.92203V6.90252V6.88301V6.86349V6.84398V6.82447V6.80496V6.78544V6.76593V6.74642V6.72691V6.7074V6.68788V6.66837V6.64886V6.62935V6.60983V6.59032V6.57081V6.5513V6.53178V6.51227V6.49276V6.47325V6.45374V6.43422V6.41471V6.3952V6.37569V6.35617V6.33666V6.31715V6.29764V6.27812V6.25861V6.2391V6.21959V6.20008V6.18056V6.16105V6.14154V6.12203V6.10251V6.083V6.06349V6.04398V6.02446V6.00495V5.98544V5.96593V5.94642V5.9269V5.90739V5.88788V5.86837V5.84885V5.82934V5.80983V5.79032V5.7708V5.75129V5.73178V5.71227V5.69276V5.67324V5.65373V5.63422V5.61471V5.59519V5.57568V5.55617V5.53666V5.51714V5.49763V5.47812V5.45861V5.4391V5.41958V5.40007V5.38056V5.36105V5.34153V5.32202V5.30251V5.283V5.26348V5.24397V5.22446V5.20495V5.18544V5.16592V5.14641V5.1269V5.10739V5.08787V5.06836V5.04885V5.02934V5.00982V4.99031V4.9708V4.95129V4.93178V4.91226V4.89275V4.87324V4.85373V4.83421V4.8147V4.79519C0.653745 4.33558 0.742705 3.94849 0.929615 3.64723C1.11781 3.3439 1.40053 3.13544 1.77161 3.02718L1.77182 3.02712C1.93173 2.98085 2.09523 2.96264 2.26576 2.95057C2.32473 2.94639 2.38393 2.94297 2.44433 2.93948C2.5351 2.93424 2.62858 2.92884 2.72805 2.92049C2.72863 2.86455 2.72963 2.80841 2.73063 2.75207C2.73374 2.57748 2.73688 2.40087 2.7277 2.22181C2.72035 2.10653 2.71927 1.99282 2.73458 1.89009C2.74992 1.78724 2.78276 1.68785 2.84934 1.60837C2.97205 1.46193 3.17431 1.41905 3.45851 1.46699C3.45876 1.36899 3.45926 1.27426 3.45975 1.18189C3.46106 0.934692 3.46227 0.704341 3.45837 0.473118L3.55835 0.471429C3.55137 0.141204 3.69295 -0.00998152 4.03592 -0.00500826C4.78269 0.00593294 5.53145 0.00294897 6.27722 -0.00500826C6.59028 -0.00500826 6.73585 0.118326 6.72288 0.439599M0.634935 15.1617L20.1875 15.6826M0.74876 15.9701L0.748685 16.0701C0.750082 16.0701 0.75148 16.0701 0.752877 16.0701M0.74876 15.9701L0.757729 16.0697C0.756113 16.0699 0.754495 16.07 0.752877 16.0701M0.74876 15.9701C6.94356 15.9748 13.1377 15.9724 19.3312 15.9632M0.752877 16.0701C6.94635 16.0748 13.1392 16.0724 19.3313 16.0632M19.3312 15.9632V16.0632C19.3312 16.0632 19.3313 16.0632 19.3313 16.0632M19.3312 15.9632C19.39 15.9632 19.4557 15.9711 19.5233 15.9793C19.7764 16.0099 20.0548 16.0435 20.0879 15.6737M19.3312 15.9632L19.3313 16.0632M19.3313 16.0632L20.0879 15.6737M20.1875 15.6826C20.1875 15.6827 20.1875 15.6828 20.1875 15.6829L20.0879 15.6737M20.1875 15.6826L20.0879 15.6737M20.1875 15.6826C20.1917 15.6364 20.1739 15.5978 20.1552 15.5707C20.1365 15.5435 20.1115 15.5197 20.0864 15.4992C20.036 15.4583 19.9673 15.4168 19.8938 15.3755C19.8457 15.3485 19.7947 15.3211 19.7421 15.2928C19.6432 15.2395 19.5387 15.1833 19.4377 15.1214L19.4421 14.695V14.694C19.4421 13.7823 19.4406 12.871 19.439 11.9599C19.435 9.59176 19.431 7.22473 19.4541 4.85487C19.4592 4.33422 19.3131 3.84658 18.9912 3.49086C18.6676 3.13327 18.177 2.92081 17.5188 2.93268L17.5187 2.93268C15.2841 2.9738 13.046 2.96588 10.8069 2.95794C9.9063 2.95475 9.00552 2.95156 8.10475 2.95156H7.62036C7.56157 2.85849 7.54382 2.74053 7.54605 2.59834C7.54729 2.51941 7.55449 2.43779 7.562 2.35255L7.56237 2.34837C7.56989 2.26316 7.57766 2.17401 7.57812 2.08816C7.57904 1.91817 7.55188 1.73692 7.41388 1.6028C7.29176 1.48411 7.10074 1.41977 6.82262 1.40932C6.82212 1.31268 6.82099 1.21878 6.81988 1.12678C6.81704 0.891207 6.81435 0.668115 6.82281 0.443472C6.82281 0.443436 6.82281 0.443399 6.82281 0.443363L6.72288 0.439599M6.72288 0.439599C6.71433 0.666626 6.71706 0.894087 6.71991 1.1314C6.721 1.22195 6.7221 1.31392 6.72261 1.40786L6.72288 0.439599ZM4.76873 14.3498C7.88906 14.3409 11.0094 14.3409 14.1297 14.3409H14.1307C14.2451 14.3409 14.3594 14.3435 14.4735 14.3461C14.7263 14.3518 14.978 14.3575 15.2274 14.3349C15.6522 14.2951 15.8944 14.4115 15.8944 14.877C15.9085 15.0058 15.9323 15.1333 15.9654 15.2584L4.76873 14.3498ZM4.76873 14.3498C4.60422 14.3498 4.35297 14.4274 4.29415 14.5488L4.76873 14.3498ZM16.5396 14.4649C16.5511 14.4647 16.5625 14.4645 16.5739 14.4644C16.5981 14.464 16.6223 14.4637 16.648 14.4627C16.7155 14.46 16.7876 14.4525 16.8586 14.4178C16.9192 14.3881 16.9918 14.3392 17.0489 14.2873C17.0774 14.2614 17.1056 14.2317 17.1264 14.2001C17.1448 14.1722 17.1702 14.124 17.1605 14.0681L17.1606 14.0681L17.1593 14.0624C17.1406 13.9825 17.1049 13.9074 17.0548 13.8423L16.9756 13.9032L17.0548 13.8423C17.0047 13.7771 16.9413 13.7234 16.8687 13.6847L16.8688 13.6845L16.8628 13.6818C16.7802 13.6445 16.6895 13.6376 16.6093 13.6377C16.569 13.6378 16.5284 13.6397 16.4907 13.6415L16.4893 13.6416C16.4503 13.6434 16.4144 13.6451 16.38 13.6451H3.67201C3.65167 13.6451 3.62909 13.6435 3.60275 13.6413C3.598 13.6409 3.5931 13.6404 3.58806 13.64C3.56654 13.6381 3.5427 13.636 3.51958 13.6349C3.46498 13.6322 3.39166 13.6327 3.32693 13.6662L3.32676 13.6659L3.31939 13.6706C3.18565 13.7553 3.06058 13.853 2.946 13.9621L2.8688 14.0357L2.94715 14.108C3.06537 14.2171 3.18991 14.3193 3.32013 14.4138L3.33125 14.4219L3.34413 14.4267C3.408 14.4504 3.47477 14.4649 3.54245 14.47C3.54381 14.4763 3.54503 14.4827 3.5461 14.4891C3.51733 14.7079 3.49626 14.8651 3.46788 14.982C3.43894 15.1012 3.40616 15.1608 3.36583 15.1964C3.32561 15.2319 3.26284 15.2567 3.14186 15.2699C3.02055 15.2831 2.8588 15.2833 2.63212 15.2833H1.4838C1.48123 15.245 1.47858 15.2082 1.476 15.1724C1.46698 15.0471 1.45893 14.9354 1.45893 14.8213V14.8019V14.7824V14.763V14.7436V14.7242V14.7047V14.6853V14.6659V14.6465V14.627V14.6076V14.5882V14.5688V14.5493V14.5299V14.5105V14.491V14.4716V14.4522V14.4328V14.4133V14.3939V14.3745V14.3551V14.3356V14.3162V14.2968V14.2773V14.2579V14.2385V14.2191V14.1996V14.1802V14.1608V14.1414V14.1219V14.1025V14.0831V14.0637V14.0442V14.0248V14.0054V13.9859V13.9665V13.9471V13.9277V13.9082V13.8888V13.8694V13.85V13.8305V13.8111V13.7917V13.7723V13.7528V13.7334V13.714V13.6945V13.6751V13.6557V13.6363V13.6168V13.5974V13.578V13.5586V13.5391V13.5197V13.5003V13.4808V13.4614V13.442V13.4226V13.4031V13.3837V13.3643V13.3449V13.3254V13.306V13.2866V13.2672V13.2477V13.2283V13.2089V13.1894V13.17V13.1506V13.1312V13.1117V13.0923V13.0729V13.0535V13.034V13.0146V12.9952V12.9758V12.9563V12.9369V12.9175V12.898V12.8786V12.8592V12.8398V12.8203V12.8009V12.7815V12.7621V12.7426V12.7232V12.7038V12.6843V12.6649V12.6455V12.6261V12.6066V12.5872V12.5678V12.5484V12.5289V12.5095V12.4901V12.4707V12.4512V12.4318V12.4124V12.3929V12.3735V12.3541V12.3347V12.3152V12.2958V12.2764V12.257V12.2375V12.2181V12.1987V12.1793V12.1598V12.1404V12.121V12.1015V12.0821V12.0627V12.0433V12.0238V12.0044V11.985V11.9656V11.9461V11.9267V11.9073V11.8878V11.8684V11.849V11.8296V11.8101V11.7907V11.7713V11.7519V11.7324V11.713V11.6936V11.6742V11.6547V11.6353V11.6159V11.5964V11.577V11.5576V11.5382V11.5187V11.4993V11.4799V11.4605V11.441V11.4216V11.4022V11.3828V11.3633V11.3439V11.3245V11.305V11.2856V11.2662V11.2468V11.2273V11.2079V11.1885V11.1691V11.1496V11.1302V11.1108V11.0913V11.0719V11.0525V11.0331V11.0136V10.9942V10.9748V10.9554V10.9359V10.9165V10.8971V10.8777V10.8582V10.8388V10.8194V10.7999V10.7805V10.7611V10.7417V10.7222V10.7028V10.6834V10.664V10.6445V10.6251V10.6057V10.5863V10.5668V10.5474V10.528V10.5085V10.4891V10.4697V10.4503V10.4308V10.4114V10.392V10.3726V10.3531V10.3337V10.3143V10.2948V10.2754V10.256V10.2366V10.2171V10.1977V10.1783V10.1589V10.1394V10.12V10.1006V10.0812V10.0617V10.0423V10.0229V10.0034V9.98402V9.96459V9.94517V9.92574V9.90631V9.88689V9.86746V9.84803V9.8286V9.80918V9.78975V9.77032V9.7509V9.73147V9.71204V9.69262V9.67319V9.65376V9.63434V9.61491V9.59548V9.57606V9.55663V9.5372V9.51778V9.49835V9.47892V9.45949V9.44007V9.42064V9.40121V9.38179V9.36236V9.34293V9.32351V9.30408V9.28465V9.26523V9.2458V9.22637V9.20695V9.18752V9.16809V9.14867V9.12924V9.10981V9.09039V9.07096V9.05153V9.0321V9.01268V8.99325V8.97382V8.9544V8.93497V8.91554V8.89612V8.87669V8.85726V8.83784V8.81841V8.79898V8.77956V8.76013V8.7407V8.72128V8.70185V8.68242V8.663V8.64357V8.62414V8.60471V8.58529V8.56586V8.54643V8.52701V8.50758V8.48815V8.46873V8.4493V8.42987V8.41045V8.39102V8.37159V8.35217V8.33274V8.31331V8.29389V8.27446V8.25503V8.2356V8.21618V8.19675V8.17732V8.1579V8.13847V8.11904V8.09962V8.08019V8.06076V8.04134V8.02191V8.00248V7.98306V7.96363V7.9442V7.92478V7.90535V7.88592V7.86649V7.84707V7.82764V7.80821V7.78879V7.76936V7.74993V7.73051V7.71108V7.69165V7.67223V7.6528V7.63337V7.61395V7.59452V7.57509V7.55567V7.53624V7.51681V7.49739V7.47796V7.45853V7.4391V7.41968V7.40025V7.38082V7.3614V7.34197V7.32254V7.30312V7.28369V7.26426V7.24484V7.22541V7.20598V7.18656V7.16713V7.1477V7.12828V7.10885V7.08942V7.06999V7.05057V7.03114V7.01171V6.99229V6.97286V6.95343V6.93401V6.91458V6.89515V6.87573V6.8563V6.83687V6.81745V6.79802V6.77859V6.75917V6.73974V6.72031V6.70088V6.68146V6.66203V6.6426V6.62318V6.60375V6.58432V6.5649V6.54547V6.52604V6.50662V6.48719V6.46776V6.44834V6.42891V6.40948V6.39006V6.37063V6.3512V6.33178V6.31235V6.29292V6.27349V6.25407V6.23464V6.21521V6.19579V6.17636V6.15693V6.13751V6.11808V6.09865V6.07923V6.0598V6.04037V6.02095V6.00152V5.98209V5.96267V5.94324V5.92381V5.90439V5.88496V5.86553V5.8461V5.82668V5.80725V5.78782V5.7684V5.74897V5.72954V5.71012V5.69069V5.67126V5.65184V5.63241V5.61298V5.59356V5.57413V5.5547V5.53527V5.51585V5.49642V5.47699V5.45757V5.43814V5.41871V5.39929V5.37986V5.36043V5.34101V5.32158V5.30215V5.28273V5.2633V5.24387V5.22445V5.20502V5.18559V5.16617V5.14674V5.12731V5.10788V5.08846V5.06903V5.0496V5.03018V5.01075V4.99132V4.9719V4.95247V4.93304V4.91362V4.89419V4.87476C1.45893 4.40525 1.52895 4.13852 1.68376 3.98314C1.83845 3.82789 2.10324 3.7583 2.56832 3.7583H17.5295C17.9962 3.7583 18.2618 3.82768 18.4168 3.98276C18.5719 4.13787 18.6419 4.40423 18.6419 4.87377V4.89328V4.91279V4.9323V4.95182V4.97133V4.99084V5.01035V5.02987V5.04938V5.06889V5.0884V5.10792V5.12743V5.14694V5.16645V5.18597V5.20548V5.22499V5.2445V5.26402V5.28353V5.30304V5.32255V5.34207V5.36158V5.38109V5.40061V5.42012V5.43963V5.45914V5.47866V5.49817V5.51768V5.53719V5.55671V5.57622V5.59573V5.61525V5.63476V5.65427V5.67378V5.6933V5.71281V5.73232V5.75184V5.77135V5.79086V5.81038V5.82989V5.8494V5.86891V5.88843V5.90794V5.92745V5.94697V5.96648V5.98599V6.00551V6.02502V6.04453V6.06405V6.08356V6.10307V6.12259V6.1421V6.16161V6.18113V6.20064V6.22015V6.23967V6.25918V6.27869V6.29821V6.31772V6.33723V6.35675V6.37626V6.39577V6.41529V6.4348V6.45431V6.47383V6.49334V6.51285V6.53237V6.55188V6.5714V6.59091V6.61042V6.62994V6.64945V6.66896V6.68848V6.70799V6.72751V6.74702V6.76653V6.78605V6.80556V6.82507V6.84459V6.8641V6.88362V6.90313V6.92264V6.94216V6.96167V6.98118V7.0007V7.02021V7.03973V7.05924V7.07875V7.09827V7.11778V7.1373V7.15681V7.17633V7.19584V7.21535V7.23487V7.25438V7.2739V7.29341V7.31292V7.33244V7.35195V7.37147V7.39098V7.4105V7.43001V7.44952V7.46904V7.48855V7.50807V7.52758V7.5471V7.56661V7.58612V7.60564V7.62515V7.64467V7.66418V7.6837V7.70321V7.72273V7.74224V7.76175V7.78127V7.80078V7.8203V7.83981V7.85933V7.87884V7.89836V7.91787V7.93739V7.9569V7.97642V7.99593V8.01545V8.03496V8.05447V8.07399V8.0935V8.11302V8.13253V8.15205V8.17156V8.19108V8.21059V8.23011V8.24962V8.26914V8.28865V8.30817V8.32768V8.3472V8.36671V8.38623V8.40574V8.42526V8.44477V8.46429V8.4838V8.50332V8.52283V8.54235V8.56186V8.58138V8.60089V8.62041V8.63993V8.65944V8.67896V8.69847V8.71799V8.7375V8.75702V8.77653V8.79605V8.81556V8.83508V8.85459V8.87411V8.89362V8.91314V8.93266V8.95217V8.97169V8.9912V9.01072V9.03023V9.04975V9.06926V9.08878V9.1083V9.12781V9.14733V9.16684V9.18636V9.20587V9.22539V9.2449V9.26442V9.28394V9.30345V9.32297V9.34248V9.362V9.38152V9.40103V9.42055V9.44006V9.45958V9.47909V9.49861V9.51813V9.53764V9.55716V9.57667V9.59619V9.61571V9.63522V9.65474V9.67425V9.69377V9.71329V9.7328V9.75232V9.77183V9.79135V9.81087V9.83038V9.8499V9.86942V9.88893V9.90845V9.92796V9.94748V9.967V9.98651V10.006V10.0255V10.0451V10.0646V10.0841V10.1036V10.1231V10.1426V10.1622V10.1817V10.2012V10.2207V10.2402V10.2597V10.2793V10.2988V10.3183V10.3378V10.3573V10.3768V10.3964V10.4159V10.4354V10.4549V10.4744V10.4939V10.5135V10.533V10.5525V10.572V10.5915V10.611V10.6306V10.6501V10.6696V10.6891V10.7086V10.7281V10.7477V10.7672V10.7867V10.8062V10.8257V10.8452V10.8648V10.8843V10.9038V10.9233V10.9428V10.9623V10.9819V11.0014V11.0209V11.0404V11.0599V11.0794V11.099V11.1185V11.138V11.1575V11.177V11.1966V11.2161V11.2356V11.2551V11.2746V11.2941V11.3137V11.3332V11.3527V11.3722V11.3917V11.4112V11.4308V11.4503V11.4698V11.4893V11.5088V11.5283V11.5479V11.5674V11.5869V11.6064V11.6259V11.6455V11.665V11.6845V11.704V11.7235V11.743V11.7626V11.7821V11.8016V11.8211V11.8406V11.8601V11.8797V11.8992V11.9187V11.9382V11.9577V11.9773V11.9968V12.0163V12.0358V12.0553V12.0748V12.0944V12.1139V12.1334V12.1529V12.1724V12.1919V12.2115V12.231V12.2505V12.27V12.2895V12.3091V12.3286V12.3481V12.3676V12.3871V12.4066V12.4262V12.4457V12.4652V12.4847V12.5042V12.5238V12.5433V12.5628V12.5823V12.6018V12.6213V12.6409V12.6604V12.6799V12.6994V12.7189V12.7385V12.758V12.7775V12.797V12.8165V12.8361V12.8556V12.8751V12.8946V12.9141V12.9336V12.9532V12.9727V12.9922V13.0117V13.0312V13.0508V13.0703V13.0898V13.1093V13.1288V13.1483V13.1679V13.1874V13.2069V13.2264V13.2459V13.2655V13.285V13.3045V13.324V13.3435V13.3631V13.3826V13.4021V13.4216V13.4411V13.4607V13.4802V13.4997V13.5192V13.5387V13.5582V13.5778V13.5973V13.6168V13.6363V13.6558V13.6754V13.6949V13.7144V13.7339V13.7534V13.773V13.7925V13.812V13.8315V13.851V13.8706V13.8901V13.9096V13.9291V13.9486V13.9682V13.9877V14.0072V14.0267V14.0462V14.0657V14.0853V14.1048V14.1243V14.1438V14.1633V14.1829V14.2024V14.2219V14.2414V14.2609V14.2805V14.3V14.3195V14.339V14.3585V14.3781V14.3976V14.4171V14.4366V14.4561V14.4757V14.4952V14.5147V14.5342V14.5537V14.5733V14.5928V14.6123V14.6318V14.6513V14.6709V14.6904V14.7099V14.7294V14.7489V14.7685V14.788V14.8075V14.827V14.8465V14.8661C18.6419 14.9602 18.6339 15.0522 18.6236 15.1692C18.6207 15.2024 18.6177 15.2376 18.6145 15.2754C18.4862 15.2756 18.3588 15.276 18.2324 15.2765C17.7534 15.2783 17.2865 15.2801 16.8196 15.2646C16.8179 15.2639 16.8131 15.2618 16.805 15.2561C16.7911 15.2463 16.7742 15.2307 16.7564 15.21C16.7207 15.1685 16.692 15.119 16.68 15.0845C16.624 14.8801 16.5771 14.6734 16.5396 14.4649ZM15.795 14.8879C15.8087 15.0129 15.8311 15.1367 15.8621 15.2585L4.22686 15.2624C4.23524 15.213 4.24297 15.1636 4.25046 15.1156C4.25958 15.0572 4.26836 15.0011 4.27753 14.9502C4.30181 14.8156 4.33171 14.697 4.38355 14.5936L4.38356 14.5936L4.38413 14.5924C4.38888 14.5826 4.40126 14.5669 4.42775 14.5481C4.45351 14.5299 4.48757 14.5124 4.52741 14.4972C4.60784 14.4666 4.69974 14.4498 4.76873 14.4498L4.76902 14.4498C7.88918 14.4409 11.0094 14.4409 14.1297 14.4409H14.1307C14.2402 14.4409 14.3517 14.4434 14.4644 14.446C14.72 14.4517 14.9813 14.4576 15.2365 14.4345L15.2368 14.4345C15.4438 14.4151 15.5788 14.4375 15.6616 14.4975C15.7381 14.5529 15.7944 14.6595 15.7944 14.877H15.7938L15.795 14.8879ZM3.57261 2.93266V2.29715H6.71062V2.93266H3.57261ZM5.98778 0.72759V1.42278H4.29345V0.72759H5.98778Z" fill="#B07FD8" stroke="#B07FD8" stroke-width="0.2"/>
<path d="M10.0459 4.75694C9.26453 4.75702 8.50063 4.98757 7.85023 5.41962C7.19982 5.85168 6.69195 6.46598 6.39051 7.18529C6.08907 7.9046 6.00755 8.69679 6.15619 9.46221C6.30484 10.2276 6.67702 10.9321 7.22589 11.487C7.77475 12.0419 8.4758 12.4225 9.24085 12.581C10.0059 12.7394 10.8009 12.6687 11.5257 12.3776C12.2506 12.0866 12.8731 11.5882 13.3148 10.9451C13.7566 10.302 13.9979 9.54289 14.0084 8.76329L14.0084 8.76218C14.0135 6.55336 12.2348 4.75391 10.0459 4.75694ZM10.0459 4.75694C10.0458 4.75694 10.0458 4.75694 10.0458 4.75694L10.0459 4.85694L10.0459 4.75694C10.0459 4.75694 10.0459 4.75694 10.0459 4.75694ZM10.049 5.56169L10.0498 5.56169C11.7939 5.56362 13.2128 7.00538 13.2042 8.77115C13.1976 9.39901 13.0046 10.0109 12.6496 10.5294C12.2945 11.048 11.7933 11.45 11.2092 11.6846C10.6251 11.9191 9.98445 11.9756 9.36815 11.847C8.75185 11.7184 8.18764 11.4104 7.74681 10.962C7.30598 10.5136 7.00832 9.9449 6.89141 9.32782C6.7745 8.71074 6.84358 8.07293 7.08993 7.495C7.33628 6.91706 7.74886 6.4249 8.27555 6.08078C8.80225 5.73665 9.41941 5.556 10.049 5.56169Z" fill="#B07FD8" stroke="#B07FD8" stroke-width="0.2"/>
<path d="M3.96414 6.69503C4.2124 6.69503 4.46265 6.66221 4.70791 6.70896C4.83154 6.73283 4.92626 6.89794 5.03494 6.9994C4.93523 7.09389 4.84451 7.26497 4.74181 7.26994C4.21041 7.29693 3.67798 7.29693 3.14659 7.26994C3.0409 7.26398 2.94718 7.09887 2.8415 7.00736C2.94918 6.90292 3.0409 6.73184 3.16553 6.70896C3.42276 6.66321 3.69395 6.69503 3.96314 6.69503H3.96414Z" fill="#662E93"/>
<path d="M16.1547 7.29169C15.9064 7.29169 15.6561 7.32252 15.4099 7.27975C15.2813 7.25687 15.1756 7.10569 15.0589 7.01318C15.1646 6.90875 15.2643 6.72275 15.375 6.71479C15.8883 6.68296 16.4031 6.68296 16.9164 6.71479C17.032 6.72175 17.1377 6.90278 17.2484 7.00423C17.1327 7.1037 17.028 7.25488 16.8994 7.27876C16.6591 7.32352 16.4009 7.29169 16.1547 7.29169Z" fill="#662E93"/>
<path d="M3.89335 9.04938C3.66304 9.04938 3.42575 9.07922 3.20342 9.03744C3.07281 9.01258 2.96314 8.87333 2.84449 8.7858C2.94419 8.67439 3.04389 8.47348 3.15057 8.46651C3.67682 8.43369 4.2046 8.43369 4.73085 8.46651C4.83753 8.47348 4.93025 8.67141 5.02995 8.78082C4.9133 8.87034 4.80662 9.01656 4.679 9.03645C4.41782 9.06049 4.15519 9.06482 3.89335 9.04938Z" fill="#662E93"/>
<path d="M16.1686 9.04742C15.9051 9.06171 15.641 9.05806 15.378 9.03648C15.2633 9.02056 15.1656 8.8833 15.0609 8.80174C15.1547 8.68636 15.2434 8.47649 15.3431 8.47052C15.886 8.43919 16.4303 8.43919 16.9732 8.47052C17.0729 8.47052 17.1547 8.66348 17.2454 8.76892C17.1337 8.86241 17.033 9.01459 16.9084 9.03747C16.6681 9.08223 16.4159 9.04742 16.1686 9.04742Z" fill="#662E93"/>
<path d="M3.93124 10.8277C3.68398 10.8277 3.43273 10.8586 3.19145 10.8158C3.06583 10.7929 2.96413 10.6397 2.85147 10.5462C2.95117 10.4408 3.05087 10.2478 3.16553 10.2478C3.69254 10.2185 4.22078 10.2185 4.74779 10.2478C4.84749 10.2538 5.02895 10.4468 5.01101 10.5164C4.98937 10.5851 4.95197 10.6479 4.90178 10.6997C4.8516 10.7515 4.78999 10.7909 4.72187 10.8148C4.46265 10.8576 4.19545 10.8267 3.93124 10.8277Z" fill="#662E93"/>
<path d="M16.1547 10.8268C15.8912 10.8417 15.6269 10.8378 15.364 10.8149C15.2534 10.7989 15.0649 10.6289 15.0799 10.5692C15.1108 10.4429 15.2454 10.2539 15.3481 10.2469C15.8753 10.2146 16.4041 10.2146 16.9313 10.2469C17.041 10.2539 17.1387 10.4458 17.2424 10.5523C17.1277 10.6458 17.0231 10.796 16.8964 10.8188C16.6562 10.8626 16.4029 10.8318 16.1547 10.8318V10.8268Z" fill="#662E93"/>
<path d="M3.94619 12.0155C4.19345 12.0155 4.4447 11.9856 4.68698 12.0274C4.8126 12.0493 4.91729 12.1955 5.03095 12.286C4.93124 12.3934 4.83752 12.5844 4.73184 12.5943C4.20525 12.6267 3.67716 12.6267 3.15057 12.5943C3.04389 12.5884 2.95117 12.3904 2.85147 12.281C2.97011 12.1925 3.07879 12.0493 3.2084 12.0274C3.44669 11.9856 3.69893 12.0155 3.94619 12.0155Z" fill="#662E93"/>
<path d="M16.1736 12.0155C16.4209 12.0155 16.6721 11.9846 16.9134 12.0294C17.036 12.0523 17.1337 12.2104 17.2424 12.3079C17.1497 12.4074 17.0609 12.5894 16.9632 12.5944C16.4199 12.6222 15.8755 12.6222 15.3321 12.5944C15.2374 12.5944 15.0599 12.3795 15.0809 12.3179C15.1063 12.2509 15.1463 12.1905 15.198 12.1409C15.2498 12.0914 15.3119 12.054 15.38 12.0314C15.6402 11.9856 15.9094 12.0155 16.1736 12.0155Z" fill="#662E93"/>
<path d="M3.90731 5.53137C3.66104 5.53137 3.4088 5.56519 3.16952 5.51745C3.04688 5.49258 2.95316 5.31852 2.84549 5.21905C2.95815 5.12556 3.06682 4.95945 3.18447 4.95149C3.67713 4.91916 4.17139 4.91916 4.66404 4.95149C4.79166 4.95945 4.90831 5.13749 5.02995 5.23795C4.90233 5.33742 4.78668 5.49358 4.6461 5.52143C4.40781 5.56917 4.15457 5.53436 3.90731 5.53436V5.53137Z" fill="#662E93"/>
<path d="M16.1656 4.94037C16.4139 4.94037 16.6691 4.90855 16.9094 4.95231C17.033 4.97519 17.1307 5.13334 17.2404 5.22982C17.1407 5.32928 17.055 5.50733 16.9543 5.5133C16.423 5.54429 15.8903 5.54429 15.359 5.5133C15.2514 5.50733 15.1596 5.31437 15.0549 5.20098C15.1547 5.11444 15.2544 4.96922 15.366 4.95331C15.6319 4.92987 15.8991 4.92555 16.1656 4.94037Z" fill="#662E93"/>
<path d="M10.024 8.45462C10.3041 8.4425 10.5847 8.44582 10.8645 8.46457C10.9921 8.4785 11.1696 8.56403 11.2124 8.67146C11.2553 8.77888 11.1825 8.9609 11.0968 9.05042C10.5714 9.60046 10.038 10.1445 9.47863 10.6618C9.37893 10.7523 9.14563 10.6976 8.97414 10.7105C9.00605 10.5533 8.98411 10.3425 9.07883 10.248C9.43476 9.88792 9.82859 9.56665 10.2085 9.23045L10.1038 9.05639C9.79768 9.05639 9.4896 9.0723 9.18551 9.04843C9.1243 9.04329 9.06501 9.02465 9.0119 8.99386C8.95879 8.96307 8.91321 8.9209 8.87843 8.87039C8.86491 8.81017 8.86562 8.74763 8.8805 8.68773C8.89538 8.62782 8.92403 8.5722 8.96417 8.52524C9.53945 7.92845 10.1227 7.3426 10.7249 6.77565C10.8067 6.69806 11.0051 6.74482 11.1506 6.73387C11.1397 6.89103 11.1925 7.10587 11.1088 7.19539C10.7419 7.59325 10.3351 7.95232 9.94225 8.32532L10.024 8.45462Z" fill="#662E93"/>
</g>
<defs>
<clipPath id="clip0_341_117">
<rect width="20.0889" height="16" fill="white"/>
</clipPath>
</defs>
</svg>
