<svg width="16" height="16" viewBox="0 0 16 16" fill="none" xmlns="http://www.w3.org/2000/svg">
<g clip-path="url(#clip0_343_193)">
<path d="M-6.99353e-06 5.71884C0.022493 5.61842 0.0441598 5.518 0.0674931 5.41759C0.32291 4.32259 1.32749 3.5055 2.45333 3.50092C4.98333 3.49481 7.51346 3.49481 10.0437 3.50092C11.38 3.50509 12.4921 4.61551 12.4967 5.95384C12.5058 8.48384 12.5058 11.014 12.4967 13.5443C12.4929 14.7497 11.5712 15.7918 10.3825 15.9684C10.3479 15.9759 10.314 15.9857 10.2808 15.998H2.21874C2.19081 15.9866 2.16213 15.9772 2.13291 15.9697C1.07249 15.7726 0.39041 15.1551 0.0812429 14.1238C0.0474929 14.0109 0.0266595 13.8943 -0.00209045 13.7793L-6.99353e-06 5.71884ZM11.25 9.76592C11.25 8.53676 11.25 7.30773 11.25 6.07884C11.25 5.27717 10.7208 4.75009 9.91666 4.75009H2.59041C1.77624 4.75009 1.24999 5.27467 1.24999 6.08592C1.24999 8.52842 1.24999 10.9709 1.24999 13.4134C1.24999 14.2247 1.77666 14.7497 2.58999 14.7501H9.90124C10.7254 14.7501 11.2496 14.2276 11.25 13.4059C11.25 12.1926 11.25 10.9793 11.25 9.76592Z" fill="#B07FD8"/>
<path d="M16 10.1563C15.9713 10.2763 15.9458 10.3975 15.9133 10.5167C15.7279 11.1988 15.3242 11.713 14.71 12.0605C14.3792 12.248 14.0071 12.1513 13.8313 11.8396C13.6554 11.528 13.7621 11.1688 14.0842 10.9813C14.5346 10.7192 14.7508 10.3296 14.7508 9.81046C14.7508 7.40046 14.7508 4.99032 14.7508 2.58004C14.7508 1.77838 14.2229 1.25046 13.4208 1.25004C11.0108 1.25004 8.6007 1.25004 6.19042 1.25004C5.67125 1.25004 5.2825 1.46588 5.02 1.91671C4.83209 2.23963 4.46834 2.34254 4.16125 2.16963C3.85417 1.99671 3.75 1.61963 3.93959 1.29171C4.34125 0.588793 4.94417 0.169626 5.74209 0.031709C5.77654 0.0237474 5.81049 0.0137294 5.84375 0.00170898H13.7813C13.8091 0.0135689 13.838 0.0229123 13.8675 0.0296262C14.3555 0.102628 14.811 0.318208 15.1769 0.649284C15.5427 0.980361 15.8025 1.41217 15.9238 1.89046C15.9517 2.00004 15.9746 2.11046 16 2.22046V10.1563Z" fill="#662E93"/>
<path d="M3.11834 6.00004C3.24194 5.99872 3.36316 6.03409 3.46666 6.10167C3.57016 6.16925 3.6513 6.266 3.69982 6.37969C3.74833 6.49339 3.76205 6.61891 3.73922 6.7404C3.7164 6.86188 3.65807 6.97387 3.5716 7.0622C3.48513 7.15054 3.37441 7.21124 3.25344 7.23665C3.13247 7.26206 3.00668 7.25103 2.89198 7.20495C2.77728 7.15887 2.67882 7.07981 2.60905 6.97778C2.53928 6.87574 2.50133 6.75531 2.50001 6.6317C2.49913 6.54962 2.51442 6.46818 2.54502 6.39201C2.57562 6.31585 2.62092 6.24645 2.67834 6.1878C2.73576 6.12914 2.80417 6.08237 2.87966 6.05015C2.95516 6.01794 3.03626 6.00091 3.11834 6.00004Z" fill="#662E93"/>
<path d="M6.87501 6.62002C6.876 6.74363 6.84031 6.86475 6.77245 6.96808C6.7046 7.0714 6.60763 7.15228 6.49381 7.2005C6.37999 7.24871 6.25443 7.26209 6.133 7.23895C6.01158 7.2158 5.89974 7.15717 5.81164 7.07046C5.72354 6.98376 5.66312 6.87288 5.63804 6.75184C5.61295 6.6308 5.62432 6.50504 5.67071 6.39046C5.71709 6.27588 5.79642 6.17763 5.89864 6.10813C6.00087 6.03864 6.1214 6.00101 6.24501 6.00002C6.32709 5.99936 6.40849 6.01488 6.48457 6.04568C6.56065 6.07648 6.62992 6.12196 6.68842 6.17954C6.74692 6.23711 6.79351 6.30564 6.82553 6.38122C6.85754 6.4568 6.87436 6.53794 6.87501 6.62002Z" fill="#662E93"/>
<path d="M9.375 6C9.49861 6 9.61945 6.03666 9.72223 6.10533C9.82501 6.17401 9.90512 6.27162 9.95242 6.38582C9.99973 6.50003 10.0121 6.62569 9.98799 6.74693C9.96388 6.86817 9.90435 6.97953 9.81694 7.06694C9.72953 7.15435 9.61817 7.21388 9.49693 7.23799C9.37569 7.26211 9.25003 7.24973 9.13582 7.20242C9.02162 7.15512 8.92401 7.07501 8.85533 6.97223C8.78666 6.86945 8.75 6.74861 8.75 6.625C8.75 6.45924 8.81585 6.30027 8.93306 6.18306C9.05027 6.06585 9.20924 6 9.375 6Z" fill="#662E93"/>
<path d="M5 9.7475C5.00049 9.87122 4.96426 9.9923 4.89588 10.0954C4.82751 10.1985 4.73007 10.279 4.61591 10.3267C4.50175 10.3744 4.37601 10.3871 4.2546 10.3633C4.1332 10.3395 4.0216 10.2801 3.93395 10.1928C3.84629 10.1055 3.78651 9.99416 3.76219 9.87285C3.73787 9.75155 3.7501 9.62575 3.79734 9.5114C3.84457 9.39705 3.92467 9.2993 4.02751 9.23051C4.13034 9.16172 4.25128 9.125 4.375 9.125C4.54032 9.125 4.69892 9.1905 4.81606 9.30717C4.93319 9.42384 4.99933 9.58217 5 9.7475Z" fill="#662E93"/>
<path d="M8.125 9.75C8.125 9.87361 8.08835 9.99445 8.01967 10.0972C7.95099 10.2 7.85338 10.2801 7.73918 10.3274C7.62497 10.3747 7.49931 10.3871 7.37807 10.363C7.25683 10.3389 7.14547 10.2793 7.05806 10.1919C6.97065 10.1045 6.91113 9.99317 6.88701 9.87193C6.86289 9.75069 6.87527 9.62503 6.92258 9.51082C6.96988 9.39662 7.04999 9.29901 7.15277 9.23033C7.25555 9.16166 7.37639 9.125 7.5 9.125C7.66576 9.125 7.82473 9.19085 7.94194 9.30806C8.05915 9.42527 8.125 9.58424 8.125 9.75Z" fill="#662E93"/>
<path d="M3.75 12.8838C3.74826 13.0074 3.7099 13.1277 3.63979 13.2295C3.56968 13.3313 3.47096 13.41 3.3561 13.4557C3.24125 13.5014 3.11543 13.512 2.99455 13.4862C2.87366 13.4604 2.76315 13.3993 2.67698 13.3107C2.5908 13.2221 2.53284 13.1099 2.51043 12.9884C2.48801 12.8668 2.50214 12.7413 2.55103 12.6278C2.59992 12.5143 2.68138 12.4178 2.7851 12.3505C2.88882 12.2833 3.01015 12.2483 3.13375 12.2501C3.21583 12.2512 3.29688 12.2685 3.37227 12.301C3.44766 12.3334 3.51592 12.3804 3.57315 12.4393C3.63037 12.4981 3.67544 12.5677 3.70579 12.644C3.73613 12.7202 3.75116 12.8017 3.75 12.8838Z" fill="#B07FD8"/>
<path d="M6.25 13.5C6.12639 13.5 6.00555 13.4633 5.90277 13.3947C5.79999 13.326 5.71988 13.2284 5.67258 13.1142C5.62527 13 5.61289 12.8743 5.63701 12.7531C5.66113 12.6318 5.72065 12.5205 5.80806 12.4331C5.89547 12.3457 6.00683 12.2861 6.12807 12.262C6.24931 12.2379 6.37497 12.2503 6.48918 12.2976C6.60338 12.3449 6.70099 12.425 6.76967 12.5278C6.83834 12.6305 6.875 12.7514 6.875 12.875C6.875 13.0408 6.80915 13.1997 6.69194 13.3169C6.57473 13.4342 6.41576 13.5 6.25 13.5Z" fill="#B07FD8"/>
<path d="M9.375 12.25C9.49861 12.25 9.61945 12.2867 9.72223 12.3553C9.82501 12.424 9.90512 12.5216 9.95242 12.6358C9.99973 12.75 10.0121 12.8757 9.98799 12.9969C9.96388 13.1182 9.90435 13.2295 9.81694 13.3169C9.72953 13.4044 9.61817 13.4639 9.49693 13.488C9.37569 13.5121 9.25003 13.4997 9.13582 13.4524C9.02162 13.4051 8.92401 13.325 8.85533 13.2222C8.78666 13.1195 8.75 12.9986 8.75 12.875C8.75 12.7092 8.81585 12.5503 8.93306 12.4331C9.05027 12.3158 9.20924 12.25 9.375 12.25Z" fill="#B07FD8"/>
</g>
<defs>
<clipPath id="clip0_343_193">
<rect width="16" height="16" fill="white"/>
</clipPath>
</defs>
</svg>
