<svg width="37" height="36" viewBox="0 0 37 36" fill="none" xmlns="http://www.w3.org/2000/svg">
<g clip-path="url(#clip0_116_136)">
<path d="M0 34.5229C0.597588 34.5229 1.19518 34.5276 1.79277 34.5276H36.0103V36H0V34.5229Z" fill="#B07FD8"/>
<path d="M4.84101e-06 24.0416C0.972495 24.0341 1.94405 24.0191 2.91278 24.0238C3.15238 24.0238 3.25949 23.943 3.33936 23.7184C4.33221 20.9184 5.33101 18.1199 6.33576 15.323C6.36958 15.2291 6.38931 15.1257 6.42972 14.9773H5.30219V13.5275H8.50812C8.47148 13.6534 8.44235 13.7708 8.40195 13.8845C7.06646 17.631 5.73222 21.3775 4.39923 25.1241C4.30527 25.3881 4.18124 25.483 3.89748 25.4783C2.59707 25.4557 1.29666 25.4567 -0.00375366 25.4492L4.84101e-06 24.0416Z" fill="#B07FD8"/>
<path d="M26.0938 23.9834C25.7536 22.3861 25.4219 20.832 25.0893 19.2779C24.8074 17.9511 24.5115 16.6263 24.2437 15.2968C24.1901 15.0337 24.084 14.95 23.8256 14.9623C23.4065 14.981 22.9865 14.967 22.5458 14.967V13.5247H25.3505C26.1962 17.4888 27.0493 21.453 27.9063 25.4464H8.10504C8.9582 21.4615 9.80667 17.5067 10.6589 13.5303H13.4589V14.9632C13.0211 14.9632 12.5691 14.9698 12.1181 14.9632C11.9217 14.9632 11.8362 15.0205 11.7883 15.2272C11.1813 18.0999 10.5687 20.971 9.95042 23.8406C9.94322 23.8876 9.93851 23.9349 9.93633 23.9825L26.0938 23.9834Z" fill="#B07FD8"/>
<path d="M17.9859 17.6523C17.5086 17.0294 17.0331 16.4384 16.5887 15.8257C15.0524 13.7069 13.6562 11.5036 12.7128 9.04931C12.337 8.07306 12.0551 7.07614 12.0354 6.01627C12.0094 4.65762 12.4542 3.33182 13.2944 2.26383C14.1346 1.19583 15.3185 0.451414 16.6451 0.156893C17.4193 -0.0256975 18.2222 -0.0520162 19.0068 0.0794763C19.7913 0.210969 20.5417 0.497631 21.2142 0.922686C21.8866 1.34774 22.4674 1.90265 22.9228 2.55493C23.3781 3.20722 23.6987 3.94377 23.8659 4.72149C24.1478 6.01063 23.9082 7.25842 23.4986 8.47991C22.76 10.687 21.593 12.6724 20.2926 14.5873C19.6471 15.5345 18.933 16.4355 18.248 17.3554C18.1804 17.4456 18.0977 17.5264 17.9859 17.6523ZM17.9859 15.2855C18.0554 15.2116 18.1209 15.1341 18.1823 15.0534C18.9424 13.9005 19.7383 12.7692 20.4495 11.5872C21.3196 10.1402 22.0563 8.62555 22.4124 6.95493C23.1406 3.52913 20.0136 0.641729 16.6808 1.65744C14.6606 2.27382 12.8838 4.36162 13.6741 7.27815C14.4802 10.2652 16.2082 12.7551 17.984 15.2855H17.9859Z" fill="#B07FD8"/>
<path d="M35.9775 24.0436V25.438C35.8672 25.4542 35.7562 25.4649 35.6448 25.4699C34.4497 25.4699 33.2554 25.4699 32.0602 25.4699C31.8545 25.4699 31.7239 25.437 31.6421 25.2059C30.291 21.393 28.9339 17.5819 27.5708 13.7728C27.5448 13.6897 27.5232 13.6053 27.506 13.52H30.7006V14.9539H29.5675C29.6163 15.1267 29.6417 15.247 29.683 15.3616C30.6734 18.1363 31.6703 20.9053 32.6531 23.6856C32.7471 23.9383 32.8608 24.0304 33.1286 24.0248C33.9366 24.0079 34.7447 24.0182 35.5528 24.0201C35.6899 24.0201 35.8262 24.0351 35.9775 24.0436Z" fill="#B07FD8"/>
<path d="M6.78769 9.78784H11.2113V11.1972H6.78769V9.78784Z" fill="#662E93"/>
<path d="M24.7886 11.2048V9.79541H29.2217V11.2048H24.7886Z" fill="#662E93"/>
<path d="M2.97292 29.2799C2.97292 29.7187 2.98232 30.1256 2.96447 30.5333C2.95062 30.5763 2.92613 30.615 2.89326 30.6459C2.8604 30.6768 2.82024 30.6988 2.77654 30.71C2.1254 30.7231 1.47331 30.7175 0.803375 30.7175V29.2799H2.97292Z" fill="#662E93"/>
<path d="M5.29749 30.7175V29.2827H7.46703C7.46703 29.7187 7.47173 30.1565 7.45951 30.5982C7.45951 30.6414 7.34676 30.7156 7.28569 30.7165C6.6336 30.7203 5.98058 30.7175 5.29749 30.7175Z" fill="#662E93"/>
<path d="M9.80289 30.7156V29.2799H11.9715C11.9715 29.7149 11.9771 30.1415 11.9649 30.5681C11.9536 30.6029 11.9336 30.6341 11.9068 30.659C11.88 30.6838 11.8473 30.7014 11.8118 30.71C11.1493 30.7194 10.486 30.7156 9.80289 30.7156Z" fill="#662E93"/>
<path d="M16.4769 29.2799C16.4769 29.7178 16.4863 30.1256 16.4684 30.5324C16.4546 30.5754 16.4301 30.6142 16.3972 30.6453C16.3644 30.6763 16.3242 30.6986 16.2805 30.71C15.6284 30.7231 14.9773 30.7175 14.3073 30.7175V29.2799H16.4769Z" fill="#662E93"/>
<path d="M18.8128 29.2799H20.9738C20.9738 29.7121 20.9823 30.1256 20.9644 30.5446C20.9644 30.6057 20.8357 30.709 20.7653 30.7109C20.1235 30.7241 19.4818 30.7184 18.8099 30.7184L18.8128 29.2799Z" fill="#662E93"/>
<path d="M25.4633 29.2819V30.6913H23.3078V29.2819H25.4633Z" fill="#662E93"/>
<path d="M27.8038 30.7175V29.2837H29.9734C29.9734 29.7168 29.9781 30.1547 29.9649 30.5916C29.9649 30.6348 29.854 30.711 29.793 30.7119C29.1418 30.7203 28.4888 30.7175 27.8038 30.7175Z" fill="#662E93"/>
<path d="M34.4835 29.2903C34.4835 29.7103 34.4966 30.1068 34.4732 30.5024C34.4558 30.5534 34.4257 30.5991 34.3857 30.6353C34.3458 30.6714 34.2973 30.6968 34.2448 30.7091C33.6134 30.7269 32.9829 30.7185 32.3196 30.7185V29.2903H34.4835Z" fill="#662E93"/>
<path d="M17.9981 8.20834C17.5598 8.20426 17.1324 8.07056 16.7699 7.82406C16.4073 7.57756 16.1259 7.2293 15.9609 6.82314C15.7959 6.41698 15.7548 5.97107 15.8427 5.54159C15.9307 5.11211 16.1438 4.71826 16.4551 4.40965C16.7665 4.10103 17.1622 3.89145 17.5924 3.8073C18.0227 3.72315 18.4682 3.76819 18.8729 3.93676C19.2776 4.10532 19.6233 4.38987 19.8666 4.75457C20.1099 5.11926 20.2398 5.54779 20.24 5.98618C20.2368 6.57796 19.9989 7.14429 19.5786 7.56089C19.1583 7.9775 18.5899 8.21034 17.9981 8.20834ZM18.0169 6.75102C18.1672 6.74634 18.3126 6.69728 18.435 6.61003C18.5574 6.52278 18.6512 6.40124 18.7046 6.26075C18.758 6.12026 18.7686 5.9671 18.7351 5.82058C18.7016 5.67406 18.6255 5.54075 18.5163 5.43745C18.4071 5.33416 18.2698 5.2655 18.1216 5.24014C17.9735 5.21478 17.8211 5.23386 17.6838 5.29496C17.5465 5.35606 17.4303 5.45645 17.35 5.58348C17.2696 5.7105 17.2287 5.85847 17.2324 6.00873C17.2418 6.20988 17.3288 6.39954 17.4751 6.53794C17.6214 6.67633 17.8156 6.7527 18.0169 6.75102Z" fill="#662E93"/>
</g>
<defs>
<clipPath id="clip0_116_136">
<rect width="36.0103" height="36" fill="white"/>
</clipPath>
</defs>
</svg>
