<svg width="16" height="16" viewBox="0 0 16 16" fill="none" xmlns="http://www.w3.org/2000/svg">
<g clip-path="url(#clip0_236_79)">
<path d="M16 4.81243C15.9533 5.05659 15.9188 5.30368 15.8583 5.54409C15.6696 6.29618 15.3125 6.96076 14.7633 7.50993C14.2813 7.98993 13.8129 8.49951 13.2663 8.89659C12.1188 9.72993 10.8263 9.89284 9.46333 9.52159C9.3917 9.50788 9.32183 9.48621 9.255 9.45701C8.92167 9.27701 8.6075 9.31493 8.29375 9.51743C8.14767 9.60797 7.99199 9.68203 7.82958 9.73826C7.29 9.93576 6.86167 10.2778 6.46875 10.6928C5.8575 11.3378 5.21625 11.9558 4.58333 12.5833C4.51375 12.6524 4.48583 12.7137 4.50792 12.8145C4.52798 12.9042 4.52415 12.9976 4.4968 13.0853C4.46945 13.1731 4.41955 13.2521 4.35208 13.3145C3.56625 14.1042 2.77875 14.892 1.98958 15.6778C1.81 15.857 1.58 15.937 1.3425 16.0003H1C0.8687 15.9578 0.740008 15.9076 0.614583 15.8499C0.270833 15.6699 0.0941667 15.3633 0 14.9999V14.6249C0.0833333 14.2637 0.314167 14.0053 0.57 13.7541C1.25708 13.0787 1.93625 12.3953 2.61417 11.7124C2.79208 11.5328 2.98667 11.4391 3.24458 11.4941C3.29042 11.5041 3.36083 11.4641 3.4 11.4262C3.62083 11.2128 3.835 10.9924 4.05333 10.7762C4.1875 10.6428 4.31583 10.6299 4.42208 10.7345C4.52833 10.8391 4.51875 10.9708 4.38667 11.1033C4.155 11.3353 3.92042 11.5641 3.70083 11.7808C3.87333 11.9528 4.03708 12.1166 4.19 12.2699L6.57333 9.88368C6.4275 9.73909 6.26583 9.57826 6.06 9.37326C5.99042 9.46076 5.92042 9.56409 5.83542 9.65243C5.62958 9.86659 5.41875 10.0745 5.20667 10.2828C5.08458 10.4033 4.94875 10.4145 4.84833 10.3191C4.74792 10.2237 4.75375 10.077 4.88 9.95034C5.19167 9.63618 5.505 9.32534 5.81667 9.00909C5.87483 8.95039 5.92297 8.88255 5.95917 8.80826C6.19 8.32493 6.42 7.84118 6.63917 7.35284C6.67334 7.26939 6.6779 7.17675 6.65208 7.09034C6.48542 6.58534 6.33167 6.08034 6.30458 5.54368C6.23875 4.2484 6.64861 3.12868 7.53417 2.18451C7.66667 2.04284 7.80708 2.02159 7.91375 2.12076C8.02042 2.21993 8.015 2.3591 7.8775 2.50285C7.28838 3.10827 6.91059 3.88781 6.80042 4.72534C6.71167 5.36618 6.78833 5.98951 6.98667 6.60326C7.1475 7.10034 7.31333 7.59159 7.67292 7.98951C8.02832 8.39397 8.48277 8.69909 8.99167 8.87493C9.48958 9.04409 9.9875 9.20826 10.5208 9.22826C11.6421 9.27409 12.6221 8.92993 13.4446 8.16534C13.7913 7.84284 14.1325 7.51201 14.4492 7.16034C15.4983 5.99368 15.8117 4.64201 15.3083 3.16034C14.8108 1.69576 13.7542 0.805762 12.2283 0.535345C10.9313 0.303678 9.78958 0.673261 8.81833 1.56493C8.79542 1.58618 8.77375 1.60868 8.74958 1.62826C8.63542 1.72118 8.5025 1.71909 8.41333 1.62451C8.32417 1.52993 8.31417 1.38784 8.43 1.29118C8.71042 1.05993 8.98792 0.820345 9.29333 0.624512C9.84125 0.276178 10.4517 0.090345 11.0983 0.0261784C11.139 0.0197245 11.1792 0.0108194 11.2188 -0.000488281H11.9062C11.9479 0.00867839 11.9854 0.0215946 12.0258 0.0270112C13.8837 0.279095 15.1346 1.29201 15.7708 3.04993C15.8908 3.38326 15.9258 3.74451 16 4.0916V4.81243ZM1.48042 13.5037C1.21625 13.7695 0.950833 14.0333 0.68875 14.3016C0.397083 14.6024 0.39375 15.0387 0.678333 15.322C0.962917 15.6053 1.39 15.6024 1.68792 15.3166C1.92792 15.0862 2.16 14.8474 2.39625 14.6116C2.43125 14.5766 2.46292 14.5383 2.48792 14.5103L1.48042 13.5037ZM6.94417 7.81868C6.84042 8.03784 6.73292 8.26118 6.62875 8.48534C6.55042 8.65451 6.39417 8.84159 6.42292 8.99201C6.45333 9.15034 6.65792 9.27909 6.79417 9.41284C7.04417 9.65909 6.93042 9.63534 7.24292 9.49618C7.5625 9.35243 7.87708 9.19826 8.1925 9.04951C7.95542 8.85659 7.71625 8.68951 7.51083 8.48701C7.30542 8.28451 7.135 8.04701 6.94417 7.81868ZM1.86 13.1666L2.82667 14.1328L3.25583 13.7024L2.28792 12.7395L1.86 13.1666ZM2.63875 12.3416L3.65875 13.367C3.76833 13.252 3.8825 13.1312 3.99792 13.0112C4.07 12.9366 4.06458 12.8658 3.9925 12.7941C3.73083 12.5333 3.46944 12.2717 3.20833 12.0095C3.13042 11.9312 3.05875 11.9316 2.98042 12.0095C2.86667 12.1249 2.75 12.2337 2.63875 12.3399V12.3416Z" fill="#B07FD8"/>
<path d="M11.6817 1.19531C12.9371 1.25948 13.9779 1.87615 14.5262 3.15865C15.0679 4.42865 14.8425 5.61698 13.925 6.65156C13.6194 6.99338 13.2955 7.3183 12.9546 7.6249C11.9962 8.49406 10.8804 8.74156 9.66583 8.32073C8.45124 7.8999 7.72499 7.00698 7.52999 5.72948C7.37333 4.70115 7.67166 3.79323 8.38583 3.03281C8.68499 2.71406 8.99708 2.40781 9.31208 2.10406C9.93749 1.4999 10.6925 1.2124 11.6817 1.19531ZM10.4496 3.78656L11.1429 4.48406L12.0471 3.57781L11.3558 2.88906L10.4496 3.78656ZM12.1921 5.55031L13.1058 4.64615L12.4196 3.96281L11.5117 4.87073L12.1921 5.55031ZM10.7754 4.86615L10.085 4.17448L9.19458 5.0649L9.88583 5.75781L10.7754 4.86615ZM11.1583 5.22365L10.2542 6.12865L10.945 6.8199L11.8517 5.91281L11.1583 5.22365ZM11.0087 2.50198C10.8296 2.32406 10.6479 2.1399 10.4596 1.96031C10.4418 1.9489 10.4215 1.94182 10.4004 1.93965C10.3794 1.93748 10.3581 1.94027 10.3383 1.94781C9.95249 2.1299 9.63833 2.40365 9.37041 2.71031L10.0787 3.42448L11.0087 2.50198ZM13.2754 6.63615C13.5942 6.35948 13.8667 6.04281 14.0504 5.65615C14.0579 5.63849 14.0612 5.61936 14.0602 5.60021C14.0591 5.58106 14.0536 5.56242 14.0442 5.54573C13.8642 5.35323 13.6787 5.16615 13.5154 4.99865L12.5833 5.93573L13.2754 6.63615ZM8.78166 4.71073L9.71416 3.77823L9.01083 3.0699C8.71083 3.34031 8.44291 3.64115 8.25541 4.00823C8.21374 4.09156 8.21833 4.14323 8.28791 4.20948C8.46041 4.3749 8.62499 4.54948 8.78166 4.71073ZM12.2158 6.27865L11.2867 7.20823C11.4612 7.38198 11.6425 7.56698 11.8312 7.74406C11.8516 7.75517 11.8743 7.76148 11.8974 7.76249C11.9206 7.7635 11.9437 7.75919 11.965 7.7499C12.3471 7.57031 12.6542 7.29531 12.9233 6.99115L12.2158 6.27865ZM10.5758 7.2199L9.86749 6.51156L8.97041 7.40906C9.21591 7.61681 9.49872 7.77589 9.80374 7.87781C9.82383 7.88447 9.84513 7.88665 9.86615 7.88421C9.88716 7.88176 9.90739 7.87474 9.92541 7.86365C10.1546 7.64448 10.375 7.4199 10.5758 7.2199ZM8.79499 5.40281C8.57791 5.62156 8.35999 5.83781 8.14708 6.05906C8.13337 6.0752 8.12348 6.09422 8.11815 6.11471C8.11281 6.1352 8.11216 6.15662 8.11624 6.1774C8.21616 6.48683 8.37585 6.77364 8.58624 7.02156L9.50291 6.10948L8.79499 5.40281ZM13.3412 2.31948C13.0909 2.10223 12.8004 1.93605 12.4862 1.83031C12.4631 1.82437 12.4389 1.82371 12.4154 1.8284C12.392 1.83309 12.3699 1.843 12.3508 1.8574C12.1258 2.07115 11.9071 2.29156 11.7058 2.49073L12.4387 3.22031L13.3412 2.31948ZM12.7825 3.57365C13.0183 3.80865 13.2592 4.04865 13.505 4.29365C13.7067 4.09156 13.9217 3.8799 14.13 3.66281C14.1468 3.6457 14.1596 3.62511 14.1675 3.6025C14.1754 3.57989 14.1783 3.55581 14.1758 3.53198C14.0727 3.21361 13.9065 2.91929 13.6871 2.66656L12.7825 3.57365ZM10.9196 1.71698L11.3362 2.1399L11.8425 1.6549L10.9196 1.71698ZM8.45833 5.0624L8.00833 4.61406C7.98916 4.93781 7.97124 5.23281 7.95374 5.52823L7.99833 5.53156L8.45833 5.0624ZM11.3646 7.99156L10.9417 7.56406L10.4629 8.04823L11.3646 7.99156ZM14.3433 4.15823L13.8721 4.63615L14.2887 5.06115C14.305 4.76156 14.3229 4.47156 14.3425 4.15698L14.3433 4.15823Z" fill="#662E93"/>
<path d="M14.4417 12.2603C14.8871 12.3932 15.1846 12.6641 15.2879 13.1186C15.3471 13.3829 15.3078 13.6597 15.1773 13.8971C15.0469 14.1344 14.8344 14.316 14.5796 14.4078C13.696 14.7311 12.8129 15.0557 11.9304 15.3816C11.8431 15.4133 11.7621 15.4603 11.6913 15.5203C11.4288 15.7521 11.0884 15.8759 10.7383 15.8669C10.3883 15.8579 10.0547 15.7168 9.80448 15.4719C9.55427 15.2269 9.40605 14.8964 9.38961 14.5466C9.37316 14.1969 9.48971 13.8539 9.71584 13.5866C9.78516 13.5038 9.84009 13.41 9.87833 13.3091C10.2044 12.4321 10.5275 11.5539 10.8475 10.6745C10.925 10.4612 11.0655 10.2766 11.2504 10.1452C11.4353 10.0137 11.6559 9.94165 11.8827 9.93858C12.1096 9.9355 12.332 10.0016 12.5204 10.1279C12.7088 10.2543 12.8543 10.4351 12.9375 10.6461C12.9583 10.6986 12.9763 10.752 12.9954 10.8045C13.9429 10.5195 14.7229 11.3491 14.4417 12.2603ZM11.4896 14.2053C12.2508 13.5982 13.0058 12.9945 13.7638 12.3941C13.9813 12.222 14.0746 12.0028 14.0192 11.7357C13.9983 11.6107 13.9388 11.4953 13.8492 11.4057C13.7596 11.3161 13.6442 11.2566 13.5192 11.2357C13.2492 11.1782 13.0338 11.2732 12.8621 11.4899C12.2771 12.2274 11.6904 12.9635 11.1021 13.6982C11.0864 13.7193 11.0718 13.7411 11.0583 13.7636L11.4896 14.2053ZM11.9583 14.8666C12.795 14.5599 13.63 14.2586 14.4583 13.9466C14.7196 13.8482 14.8633 13.5791 14.84 13.2928C14.8269 13.1599 14.7731 13.0343 14.6858 12.9332C14.5985 12.8321 14.4821 12.7605 14.3525 12.7282C14.2221 12.6974 14.105 12.7061 13.99 12.8028C13.6958 13.0528 13.3908 13.2853 13.0904 13.5253L11.8221 14.5416L11.9583 14.8666ZM10.7125 13.4341C11.3081 12.6882 11.9013 11.9435 12.4921 11.1999C12.5262 11.149 12.543 11.0885 12.54 11.0274C12.5351 10.8752 12.4762 10.7297 12.3739 10.6169C12.2717 10.5041 12.1326 10.4313 11.9817 10.4116C11.8334 10.3933 11.6833 10.4261 11.5561 10.5046C11.4289 10.583 11.3323 10.7025 11.2821 10.8432C11.1504 11.2093 11.0176 11.5753 10.8838 11.9411C10.7171 12.3928 10.5504 12.8436 10.3858 13.2941L10.7125 13.4341ZM10.7508 15.4028C10.9722 15.4031 11.1868 15.3262 11.3575 15.1853C11.5142 15.0541 11.5242 14.9207 11.3792 14.7757C11.0828 14.4766 10.7851 14.1789 10.4863 13.8828C10.3267 13.7241 10.1946 13.732 10.0571 13.9124C9.83167 14.2041 9.78834 14.5291 9.94042 14.8649C10.0979 15.2082 10.3838 15.3749 10.7525 15.4028H10.7508Z" fill="#662E93"/>
</g>
<defs>
<clipPath id="clip0_236_79">
<rect width="16" height="16" fill="white"/>
</clipPath>
</defs>
</svg>
