<svg width="36" height="36" viewBox="0 0 36 36" fill="none" xmlns="http://www.w3.org/2000/svg">
<g clip-path="url(#clip0_401_112)">
<path d="M1.16082 20.9123H2.61862C2.7347 21.6039 2.84788 22.2917 2.96783 22.9786C3.111 23.7989 3.26385 24.6182 3.40411 25.4385C3.44576 25.6765 3.47161 25.9169 3.4815 26.1582C3.52987 27.4526 4.5214 28.4402 5.81862 28.447C7.72914 28.4567 9.64063 28.447 11.5802 28.447V30.7541C11.4757 30.7541 11.3596 30.7686 11.2435 30.7696C10.4087 30.7696 9.57388 30.7696 8.74003 30.7696C7.70302 30.7773 6.88658 31.3636 6.51512 32.328C6.45228 32.4743 6.34182 32.5949 6.20169 32.6705C5.85814 32.8424 5.58002 33.1216 5.40947 33.4659C5.23892 33.8101 5.18525 34.2006 5.25659 34.5781C5.32142 34.9576 5.51249 35.3041 5.79885 35.5615C6.0852 35.8189 6.45007 35.9721 6.83434 35.9962C7.21707 36.0271 7.5992 35.9297 7.92055 35.7196C8.24191 35.5094 8.48426 35.1984 8.60943 34.8354C8.73837 34.468 8.74184 34.0683 8.6193 33.6988C8.49677 33.3293 8.25516 33.0108 7.93229 32.7933C7.852 32.7411 7.76977 32.6966 7.69142 32.6424C7.7583 32.4341 7.89026 32.2529 8.06788 32.1252C8.2455 31.9976 8.4594 31.9303 8.67811 31.9333C11.7988 31.9275 14.9191 31.9275 18.0392 31.9333C18.4977 31.9333 18.8305 32.1839 19.0491 32.6192C18.3565 32.981 17.985 33.5343 17.9995 34.312C18.0061 34.7216 18.1599 35.1151 18.4327 35.4206C18.7055 35.7261 19.0792 35.9232 19.4854 35.9759C19.8898 36.0363 20.3026 35.9524 20.6514 35.7389C21.0002 35.5254 21.2627 35.1959 21.393 34.8083C21.658 33.9735 21.3127 33.0874 20.5495 32.7091C20.4581 32.6697 20.3763 32.6111 20.3096 32.5374C20.2428 32.4636 20.1927 32.3764 20.1625 32.2816C20.0025 31.8415 19.7116 31.461 19.3289 31.1912C18.9461 30.9215 18.49 30.7753 18.0218 30.7725C17.1753 30.7619 16.3279 30.7725 15.4815 30.7725H15.111V28.4509H15.4979C17.058 28.4509 18.618 28.4509 20.178 28.4509C21.4752 28.4509 22.2597 27.5009 22.0421 26.226C21.8215 24.9278 21.6068 23.6286 21.4133 22.3256C21.1676 20.712 20.0697 19.7447 18.4397 19.7447H14.6844C14.4784 18.5181 14.2771 17.3176 14.0759 16.1171C13.8747 14.9166 13.6832 13.7084 13.4723 12.507C13.3117 11.5957 12.653 11.0405 11.7224 11.0385C8.84418 11.0321 5.96598 11.0321 3.08779 11.0385C2.82987 11.0402 2.5754 11.0979 2.34202 11.2077C2.10865 11.3175 1.90196 11.4768 1.7363 11.6745C1.57064 11.8722 1.44998 12.1036 1.38268 12.3525C1.31537 12.6015 1.30305 12.8622 1.34656 13.1164C1.56421 14.4639 1.7896 15.8105 2.01016 17.158C2.02176 17.2286 2.0237 17.3012 2.03337 17.4211C1.59226 17.4211 1.16276 17.4211 0.731318 17.4211C0.186699 17.4211 0.000968933 17.6001 0.000968933 18.1292C0.000968933 23.8501 0.000968933 29.5714 0.000968933 35.2929C0.000968933 35.7631 0.206045 36.001 0.588148 35.9972C0.970253 35.9933 1.15985 35.7553 1.16082 35.2775C1.16082 30.6451 1.16082 26.0125 1.16082 21.3795V20.9123ZM13.037 27.29C10.6567 27.29 8.2757 27.29 5.89408 27.29C5.14244 27.29 4.67521 26.8228 4.63652 26.0808C4.62336 25.6944 4.58783 25.3091 4.53011 24.9268C3.88521 20.9587 3.23676 16.9926 2.58476 13.0284C2.48803 12.4131 2.70859 12.1384 3.33446 12.1384C6.09077 12.1384 8.84643 12.1384 11.6015 12.1384C12.12 12.1384 12.3163 12.3164 12.4005 12.8281C13.0847 17.0097 13.7703 21.1915 14.4571 25.3737C14.5654 26.0344 14.6912 26.135 15.3606 26.135C16.9683 26.135 18.5757 26.135 20.1828 26.135C20.4479 26.135 20.6936 26.1621 20.8223 26.4417C21.0341 26.9021 20.7603 27.2949 20.2128 27.2958C17.8222 27.292 15.4302 27.29 13.037 27.29ZM15.5521 24.949C15.3267 23.6006 15.1033 22.2705 14.875 20.9171C16.1964 20.9171 17.5004 20.8804 18.8015 20.9336C19.4409 20.9597 19.8771 21.3902 20.0813 22.0073C20.1425 22.2168 20.1881 22.4305 20.2177 22.6468C20.3482 23.4129 20.4759 24.179 20.6046 24.95L15.5521 24.949ZM13.9144 30.7532H12.7894V28.475H13.9173L13.9144 30.7532ZM1.17437 18.5935H2.24329C2.3023 18.9727 2.35937 19.3413 2.41741 19.7186H1.17437V18.5935ZM19.1594 34.2646C19.157 34.1505 19.1884 34.0382 19.2496 33.9417C19.3107 33.8453 19.399 33.7691 19.5033 33.7226C19.6075 33.6761 19.7232 33.6614 19.8358 33.6803C19.9485 33.6992 20.053 33.7509 20.1363 33.829C20.2197 33.907 20.2782 34.0079 20.3045 34.119C20.3308 34.2301 20.3237 34.3465 20.2842 34.4537C20.2446 34.5608 20.1744 34.6539 20.0822 34.7212C19.99 34.7886 19.88 34.8273 19.7659 34.8325C19.6877 34.8404 19.6087 34.8315 19.5342 34.8063C19.4597 34.7812 19.3914 34.7404 19.334 34.6867C19.2765 34.633 19.2312 34.5677 19.2011 34.4951C19.171 34.4224 19.1568 34.3442 19.1594 34.2656V34.2646ZM6.39033 34.2588C6.38906 34.1446 6.42152 34.0326 6.48363 33.9368C6.54573 33.8409 6.63473 33.7656 6.73947 33.7201C6.84422 33.6746 6.96006 33.661 7.07249 33.681C7.18493 33.701 7.28895 33.7538 7.37154 33.8327C7.45413 33.9115 7.51163 34.013 7.53682 34.1244C7.56201 34.2358 7.55378 34.3521 7.51316 34.4589C7.47254 34.5656 7.40134 34.658 7.30847 34.7244C7.2156 34.7909 7.10518 34.8285 6.99105 34.8325C6.91232 34.8405 6.83279 34.8314 6.75787 34.8059C6.68295 34.7805 6.61438 34.7392 6.55684 34.6848C6.4993 34.6305 6.45413 34.5644 6.4244 34.4911C6.39466 34.4177 6.38106 34.3389 6.38452 34.2598L6.39033 34.2588Z" fill="#B07FD8"/>
<path d="M33.6832 17.392V16.2622C34.0421 16.2622 34.3884 16.2622 34.7347 16.2622C35.5009 16.2554 35.9855 15.7785 35.9923 15.022C35.9974 14.2965 35.9974 13.5707 35.9923 12.8445C35.9855 12.1026 35.497 11.6189 34.757 11.6131C34.4087 11.6131 34.0595 11.6131 33.6687 11.6131C33.6687 11.4099 33.6745 11.232 33.6687 11.0559C33.6532 10.669 33.4656 10.459 33.0883 10.4571C31.5405 10.4481 29.9928 10.4481 28.445 10.4571C28.0368 10.4571 27.8646 10.6864 27.8646 11.1662C27.8646 13.1009 27.8646 15.0356 27.8646 16.9703V17.3911H18.017V15.0956H18.3855C20.5259 15.0956 22.6664 15.0956 24.8068 15.0956C26.0082 15.0956 26.7018 14.4039 26.7028 13.2073C26.7028 9.43397 26.7028 5.66129 26.7028 1.88927C26.7028 0.692652 26.0082 0.00292969 24.8058 0.00292969C18.7231 0.00292969 12.6404 0.00292969 6.5577 0.00292969C5.33013 0.00292969 4.64525 0.680076 4.64428 1.90861C4.64428 4.31635 4.63944 6.72312 4.65202 9.12989C4.65202 9.33014 4.71296 9.59326 4.84549 9.71031C4.92976 9.77038 5.02669 9.81033 5.12881 9.8271C5.23094 9.84387 5.33555 9.83701 5.4346 9.80704C5.52478 9.75679 5.60291 9.68749 5.66356 9.60395C5.7242 9.52042 5.7659 9.42466 5.78576 9.32337C5.84089 8.98189 5.80413 8.62494 5.80413 8.27379V1.96472C5.80413 1.32433 5.96181 1.16182 6.58575 1.16182H24.7642C25.3775 1.16182 25.5439 1.3253 25.5439 1.92989C25.5439 5.03832 25.5439 8.14674 25.5439 11.2552V11.6121H15.4022C15.2813 11.6078 15.1602 11.6097 15.0394 11.6179C14.9666 11.6207 14.8951 11.6381 14.8291 11.669C14.7631 11.6999 14.7039 11.7436 14.655 11.7977C14.6062 11.8518 14.5686 11.9151 14.5446 11.9839C14.5206 12.0527 14.5106 12.1256 14.5151 12.1983C14.5151 12.5205 14.7192 12.7362 15.052 12.7681C15.1594 12.7778 15.2697 12.7681 15.378 12.7681H25.5381C25.5381 12.9538 25.5381 13.1183 25.5381 13.2827C25.5265 13.7268 25.3369 13.9241 24.8919 13.927C23.9729 13.9328 23.054 13.927 22.134 13.927C20.0297 13.927 17.9257 13.927 15.822 13.927C15.557 13.927 15.3103 13.9502 15.1652 14.2172C15.1134 14.3033 15.0851 14.4014 15.0831 14.5018C15.081 14.6022 15.1054 14.7014 15.1536 14.7895C15.2019 14.8776 15.2724 14.9515 15.3581 15.0038C15.4438 15.0561 15.5417 15.0851 15.6421 15.0878C16.029 15.1091 16.4102 15.0927 16.8126 15.0927V17.4143C16.6414 17.4143 16.4663 17.4143 16.2912 17.4143C15.9043 17.4278 15.6818 17.63 15.6731 17.9773C15.6644 18.3246 15.8926 18.5674 16.297 18.5712C17.2286 18.578 18.1592 18.5712 19.0907 18.5712H26.6844V19.7321H26.3052C24.9142 19.7321 23.5241 19.7321 22.133 19.7321C21.6058 19.7321 21.2856 20.208 21.571 20.6027C21.6871 20.7633 21.9705 20.8774 22.1795 20.8813C23.5463 20.9055 24.9122 20.8939 26.2791 20.8939H26.6989V35.0772C26.6989 35.1981 26.6989 35.32 26.6989 35.4399C26.727 35.792 26.9524 36.001 27.2881 35.9952C27.6237 35.9894 27.823 35.7882 27.852 35.4525C27.8627 35.3326 27.852 35.2107 27.852 35.0898C27.852 30.518 27.852 25.9463 27.852 21.3746V20.9239H34.817V35.1149C34.8121 35.2355 34.814 35.3563 34.8228 35.4767C34.826 35.5496 34.844 35.6212 34.8755 35.687C34.9071 35.7529 34.9516 35.8117 35.0064 35.8599C35.0613 35.9081 35.1253 35.9448 35.1946 35.9677C35.2639 35.9906 35.3372 35.9993 35.4099 35.9933C35.733 35.9807 35.9255 35.8095 35.971 35.4873C35.9801 35.3909 35.9824 35.2939 35.9778 35.1971V18.2172C35.9778 17.5787 35.8201 17.4201 35.1923 17.4182H33.777C33.7453 17.4112 33.714 17.4024 33.6832 17.392ZM29.0506 17.4017V11.6411H32.4895V17.4017H29.0506ZM34.8141 19.7156H27.8936V18.5983H34.8141V19.7156ZM33.6832 12.801H34.8131V15.0752H33.6832V12.801Z" fill="#662E93"/>
<path d="M31.2861 4.03595C31.3727 4.22268 31.4729 4.40277 31.586 4.57476C31.9729 5.07585 32.0136 5.5779 31.645 6.10608C31.5137 6.29441 31.3938 6.49049 31.2861 6.69326C30.8508 7.51551 31.0153 8.29616 31.525 9.0062C31.6266 9.14937 31.9884 9.23546 32.1538 9.16581C32.3192 9.09616 32.4073 8.80596 32.4953 8.59798C32.5253 8.52929 32.475 8.40451 32.4257 8.32615C32.1055 7.81249 32.2322 7.3588 32.5379 6.87512C33.2972 5.69689 33.244 4.73244 32.415 3.74574C32.2215 3.52035 31.971 3.40136 31.7108 3.55227C31.5357 3.65384 31.4273 3.86859 31.2861 4.03595Z" fill="#662E93"/>
<path d="M23.6808 6.38046C24.2128 6.39788 24.5127 5.92291 24.3057 5.54564C24.2493 5.453 24.1806 5.3684 24.1016 5.29413C23.2048 4.39449 22.31 3.49388 21.4056 2.60392C21.2827 2.483 21.0941 2.33113 20.9557 2.34854C20.7574 2.37272 20.4933 2.49848 20.4121 2.65906C20.3762 2.76062 20.3644 2.86911 20.3775 2.97602C20.3906 3.08293 20.4282 3.18535 20.4875 3.27526C20.7584 3.62641 21.1008 3.92242 21.4172 4.24262C22.0411 4.86656 22.6621 5.49437 23.2938 6.11057C23.4137 6.213 23.5433 6.3034 23.6808 6.38046Z" fill="#662E93"/>
<path d="M20.8242 6.92326C20.948 7.13124 21.0119 7.31021 21.1309 7.42726C21.8661 8.17857 22.6077 8.92214 23.3558 9.65797C23.6324 9.93076 23.9497 9.93753 24.1906 9.7044C24.446 9.45676 24.446 9.1327 24.1606 8.84249C23.4148 8.08505 22.6602 7.33536 21.9067 6.58663C21.7219 6.40283 21.4868 6.29642 21.2528 6.45216C21.0883 6.56147 20.978 6.75011 20.8242 6.92326Z" fill="#662E93"/>
<path d="M29.3649 5.24023C29.2256 5.35438 29.0041 5.44918 28.9451 5.60589C28.8783 5.77905 28.8832 6.0828 28.9935 6.19985C29.3098 6.53455 29.2343 6.83056 29.0689 7.18655C28.9356 7.46957 28.8397 7.76873 28.7835 8.07651C28.7452 8.27431 28.7631 8.47889 28.8353 8.667C28.9075 8.85511 29.031 9.01919 29.1918 9.1406C29.4336 9.3389 29.7132 9.35922 29.954 9.15124C30.1775 8.95777 30.1968 8.71593 30.0788 8.42863C30.0159 8.27578 30.0537 8.06684 30.0914 7.89368C30.1881 7.46127 30.3584 7.04048 30.3961 6.60613C30.4387 6.10505 30.1388 5.71424 29.7596 5.40565C29.6725 5.33116 29.5439 5.31279 29.3649 5.24023Z" fill="#662E93"/>
<path d="M17.925 4.02519C18.0402 4.22446 18.0992 4.38698 18.2075 4.50306C18.5625 4.87936 18.9301 5.24502 19.3035 5.60294C19.5802 5.86799 19.8984 5.8709 20.1364 5.6339C20.3744 5.39689 20.3841 5.07573 20.1209 4.80004C19.7553 4.4131 19.377 4.0455 18.9978 3.67598C18.8121 3.49411 18.5751 3.39544 18.3449 3.55409C18.1862 3.66534 18.0721 3.85397 17.925 4.02519Z" fill="#662E93"/>
</g>
<defs>
<clipPath id="clip0_401_112">
<rect width="35.9942" height="36" fill="white" transform="matrix(-1 0 0 1 35.9942 0)"/>
</clipPath>
</defs>
</svg>
