<svg width="28" height="28" viewBox="0 0 28 28" fill="none" xmlns="http://www.w3.org/2000/svg">
<g clip-path="url(#clip0_369_401)">
<path d="M14.6562 0C15.2316 0.125417 15.828 0.191041 16.3785 0.385729C19.4126 1.4576 21.2231 3.58823 21.7109 6.77614C22.0026 8.65812 21.5651 10.4118 20.5486 12.0218C19.6887 13.3829 18.8288 14.7459 17.9689 16.1109C17.9171 16.1941 17.869 16.2794 17.7931 16.4062H23.3107C23.7315 16.4062 23.8 16.4544 23.9509 16.8525C25.2634 20.3039 26.5759 23.7553 27.8884 27.2067C27.9205 27.2898 27.9614 27.3685 28.0015 27.4495V28H0V27.4531C0.345625 26.565 0.691007 25.6764 1.03615 24.7873C1.10542 24.6094 1.16885 24.4293 1.24104 24.2521C1.35625 23.9699 1.55604 23.8627 1.79083 23.9509C2.02562 24.0392 2.11094 24.2616 2.00594 24.5423C1.70917 25.3342 1.40437 26.1239 1.10469 26.9143C1.07625 26.9872 1.05583 27.0667 1.02521 27.1636H26.9792C26.9485 27.0696 26.9252 26.9843 26.8939 26.9026C25.698 23.756 24.5036 20.6092 23.3107 17.4621C23.2378 17.2769 23.154 17.2215 22.9607 17.2222C21.147 17.2295 19.3336 17.2295 17.5204 17.2222C17.3345 17.2222 17.2178 17.2703 17.1296 17.4366C17.0282 17.6283 16.9028 17.8077 16.7541 18.0469H17.8128C18.5719 18.0469 18.5719 18.0527 18.709 18.7863C18.9321 19.985 19.1598 21.183 19.3922 22.3803C19.4935 22.909 19.363 23.0781 18.8351 23.0781H9.15469C8.65594 23.0781 8.50865 22.9031 8.59979 22.4219C8.85014 21.1094 9.10073 19.7952 9.35156 18.4793C9.41427 18.1526 9.5375 18.0476 9.87146 18.0461C10.309 18.0461 10.7465 18.0461 11.2518 18.0461C11.0709 17.7618 10.9185 17.5102 10.7494 17.271C10.7202 17.2287 10.6174 17.2273 10.5481 17.2273C8.68948 17.2273 6.82937 17.2273 4.97146 17.22C4.78479 17.22 4.74833 17.3162 4.69729 17.4497C4.04785 19.1681 3.39573 20.8862 2.74094 22.6042C2.73146 22.6297 2.72344 22.6559 2.71396 22.6815C2.58417 23.011 2.39167 23.1306 2.14448 23.0358C1.89729 22.941 1.82219 22.7186 1.94396 22.3978C2.43347 21.1052 2.92372 19.8124 3.41469 18.5194C3.63344 17.9411 3.86021 17.3651 4.07094 16.784C4.16792 16.5149 4.33271 16.4004 4.62292 16.4019C6.36344 16.4099 8.10396 16.4062 9.84448 16.4062H10.204C10.131 16.2859 10.0836 16.197 10.0297 16.1146C9.16125 14.735 8.28698 13.3598 7.42438 11.9766C4.79938 7.76781 6.58875 2.33479 11.2102 0.535208C11.822 0.296771 12.4928 0.211458 13.1367 0.0554163L13.3438 0H14.6562ZM20.9854 7.79771C20.9577 7.48052 20.9431 7.16115 20.9001 6.84615C20.7757 5.93714 20.4731 5.06162 20.0097 4.26976C19.5463 3.47791 18.9312 2.78528 18.1996 2.23159C17.4681 1.6779 16.6344 1.27402 15.7465 1.04311C14.8585 0.812196 13.9337 0.758784 13.0251 0.885937C8.11563 1.5801 5.44177 7.12177 8.0201 11.3524C9.83865 14.3383 11.7389 17.2747 13.6055 20.2315C13.8418 20.6055 14.1641 20.607 14.3981 20.2358C16.2653 17.2793 18.1288 14.3206 19.9886 11.3597C20.6617 10.2769 20.9665 9.07521 20.9854 7.79771ZM17.8865 18.8672C17.3826 18.8672 16.9094 18.8745 16.4369 18.8635C16.3704 18.8577 16.3037 18.8724 16.2457 18.9055C16.1877 18.9385 16.1412 18.9885 16.1124 19.0487C15.7789 19.5912 15.4386 20.1303 15.0916 20.666C14.5221 21.5534 13.4728 21.5571 12.9041 20.6733C12.5555 20.1294 12.2165 19.5796 11.865 19.0364C11.8183 18.9634 11.7235 18.8752 11.6462 18.873C11.1358 18.8592 10.6291 18.8657 10.107 18.8657C9.88823 20.001 9.67969 21.1167 9.46677 22.2381H18.5259C18.3116 21.1094 18.1016 20.0018 17.8865 18.8672Z" fill="#B07FD8"/>
<path d="M16.7635 26.3594H8.56041C8.02229 26.3594 7.89104 26.2077 7.98583 25.682C8.06677 25.2335 8.15354 24.7873 8.24323 24.341C8.31614 23.9903 8.42625 23.8992 8.78208 23.8992H24.395C24.8201 23.8992 24.8908 23.948 25.0403 24.3367C25.2022 24.762 25.3636 25.1874 25.5245 25.6127C25.7214 26.1319 25.569 26.3572 25.0214 26.3572L16.7635 26.3594ZM24.6094 25.5303C24.5408 25.3713 24.4823 25.2081 24.4344 25.0418C24.3739 24.7698 24.2207 24.7115 23.9509 24.7122C19.085 24.7219 14.2187 24.7241 9.35229 24.7188C9.27947 24.7108 9.20591 24.7125 9.13354 24.7239C9.07521 24.7399 8.99427 24.7866 8.98333 24.8347C8.92937 25.0593 8.89656 25.289 8.85354 25.5303H24.6094Z" fill="#662E93"/>
<path d="M5.67073 23.0781C5.16031 23.0781 4.64989 23.0781 4.13948 23.0781C3.71219 23.0781 3.53354 22.8317 3.68156 22.4387C4.19198 21.0853 4.70896 19.7349 5.21937 18.3823C5.30833 18.1468 5.46291 18.0411 5.71666 18.0432C6.48156 18.0505 7.24791 18.0432 8.01281 18.0469C8.40073 18.0469 8.55604 18.2357 8.48385 18.6244C8.23156 19.9748 7.97538 21.3247 7.71531 22.6742C7.65843 22.971 7.52937 23.076 7.22823 23.0781C6.70833 23.0811 6.18989 23.0781 5.67073 23.0781ZM6.96573 22.2505C7.18448 21.1145 7.39229 20.0025 7.60739 18.8657C7.09698 18.8657 6.61718 18.8738 6.13593 18.8606C5.95802 18.8563 5.88948 18.9233 5.82968 19.0838C5.4651 20.063 5.09031 21.0379 4.71989 22.0143C4.69218 22.0872 4.67323 22.1601 4.64698 22.2505H6.96573Z" fill="#B07FD8"/>
<path d="M22.322 23.0781C21.821 23.0781 21.3201 23.0781 20.8192 23.0781C20.4611 23.0781 20.3437 22.987 20.2774 22.6406C20.0202 21.3004 19.7658 19.9599 19.514 18.6193C19.441 18.235 19.6015 18.0483 19.9923 18.0469C20.7477 18.0469 21.5039 18.0512 22.26 18.0432C22.5225 18.0432 22.6873 18.1402 22.7814 18.3888C23.2918 19.7414 23.8095 21.0911 24.3192 22.4437C24.465 22.8229 24.2849 23.073 23.8817 23.0766C23.3603 23.0818 22.8411 23.0781 22.322 23.0781ZM23.3705 22.2578C22.933 21.1006 22.5094 19.9901 22.0872 18.8781H20.3955C20.6011 19.9719 20.8031 21.0488 21.0139 22.1258C21.0285 22.1585 21.0509 22.1871 21.0791 22.209C21.1073 22.231 21.1405 22.2458 21.1757 22.252C21.894 22.2607 22.6122 22.2578 23.3705 22.2578Z" fill="#B07FD8"/>
<path d="M4.73958 26.3594C4.12999 26.3594 3.51968 26.3594 2.9101 26.3594C2.45218 26.3594 2.29031 26.1195 2.45291 25.6827C2.6301 25.2058 2.81749 24.7348 2.99104 24.255C3.07999 24.0071 3.23604 23.8948 3.50145 23.8963C4.62947 23.9021 5.75822 23.8963 6.88624 23.8963C7.2902 23.8963 7.44624 24.0844 7.37551 24.4898C7.28874 24.982 7.19468 25.4727 7.09697 25.9634C7.0401 26.2456 6.89937 26.3543 6.59604 26.3557C5.97916 26.3616 5.35864 26.3594 4.73958 26.3594ZM3.38916 25.5274H6.34374C6.39406 25.2605 6.44218 25.0031 6.49541 24.7195C5.58614 24.7195 4.69656 24.7195 3.80697 24.7239C3.7782 24.7267 3.75049 24.7362 3.72605 24.7516C3.70161 24.7671 3.68113 24.788 3.66624 24.8128C3.56708 25.044 3.48249 25.2809 3.38989 25.5274H3.38916Z" fill="#662E93"/>
<path d="M9.49083 7.7948C9.49098 6.90251 9.75585 6.03032 10.2519 5.28863C10.748 4.54695 11.453 3.96912 12.2776 3.62829C13.1023 3.28746 14.0095 3.19895 14.8844 3.37397C15.7594 3.54899 16.5628 3.97966 17.1928 4.61148C17.8229 5.24329 18.2514 6.04784 18.424 6.92328C18.5966 7.79872 18.5056 8.70569 18.1625 9.52938C17.8194 10.3531 17.2396 11.0565 16.4966 11.5505C15.7535 12.0445 14.8806 12.307 13.9883 12.3047C12.7947 12.3003 11.6515 11.8233 10.8086 10.9781C9.9658 10.133 9.49198 8.9884 9.49083 7.7948ZM10.3111 7.79918C10.3129 8.52898 10.531 9.24186 10.9381 9.84764C11.3451 10.4534 11.9226 10.9248 12.5976 11.2023C13.2726 11.4797 14.0147 11.5507 14.7301 11.4063C15.4455 11.2618 16.1019 10.9084 16.6164 10.3908C17.1308 9.87318 17.4802 9.21458 17.6203 8.49834C17.7603 7.78211 17.6848 7.04042 17.4032 6.36713C17.1216 5.69383 16.6467 5.11919 16.0384 4.71591C15.4302 4.31263 14.7159 4.09883 13.9861 4.10157C13.0086 4.10659 12.0729 4.49888 11.384 5.19251C10.6952 5.88614 10.3094 6.82453 10.3111 7.80209V7.79918Z" fill="#662E93"/>
<path d="M16.8671 7.78313C16.8684 8.35006 16.7016 8.90464 16.3877 9.37679C16.0739 9.84893 15.6271 10.2174 15.1039 10.4357C14.5807 10.654 14.0045 10.7123 13.4482 10.6032C12.8918 10.494 12.3803 10.2224 11.9783 9.82267C11.5763 9.42291 11.3019 8.91295 11.1897 8.35724C11.0774 7.80152 11.1325 7.22502 11.3478 6.70058C11.5632 6.17615 11.9292 5.72733 12.3996 5.41086C12.8699 5.09439 13.4236 4.92448 13.9905 4.92261C14.7509 4.92183 15.4806 5.22244 16.0197 5.7586C16.5589 6.29477 16.8636 7.02276 16.8671 7.78313ZM11.9525 7.79261C11.9529 8.19747 12.0734 8.59312 12.2986 8.92954C12.5239 9.26596 12.8438 9.52806 13.218 9.68269C13.5921 9.83733 14.0038 9.87756 14.4008 9.79831C14.7978 9.71906 15.1624 9.52388 15.4486 9.23745C15.7347 8.95101 15.9295 8.58618 16.0083 8.18906C16.0871 7.79195 16.0465 7.38038 15.8914 7.00637C15.7364 6.63237 15.474 6.31272 15.1373 6.08784C14.8006 5.86295 14.4049 5.74292 14 5.74292C13.4569 5.74408 12.9365 5.96047 12.5527 6.34467C12.1689 6.72887 11.9531 7.24955 11.9525 7.79261Z" fill="#662E93"/>
</g>
<defs>
<clipPath id="clip0_369_401">
<rect width="28" height="28" fill="white"/>
</clipPath>
</defs>
</svg>
