<svg width="17" height="16" viewBox="0 0 17 16" fill="none" xmlns="http://www.w3.org/2000/svg">
<g clip-path="url(#clip0_245_230)">
<path d="M-1.27818e-05 12.5528C0.841996 11.7262 1.684 10.9 2.52601 10.0742C2.83254 9.77593 3.12455 9.4537 3.46797 9.20487C4.48569 8.46896 5.60544 8.34925 6.75934 8.8218C7.24438 9.02742 7.76596 9.13288 8.29278 9.13187C8.76768 9.12873 9.24337 9.11931 9.7175 9.14129C10.0892 9.15856 10.424 9.30417 10.6571 9.60559C11.1034 10.1806 10.8855 10.9793 10.1936 11.2611C9.95602 11.3522 9.7049 11.4029 9.45061 11.411C8.92939 11.4334 8.4066 11.4177 7.8842 11.4177C7.8375 11.4177 7.79001 11.4177 7.7433 11.42C7.58356 11.4318 7.46856 11.5378 7.45914 11.6799C7.44972 11.822 7.57257 11.9632 7.72093 11.986C7.76757 11.9913 7.81455 11.9929 7.86144 11.9907C8.75944 11.9907 9.65784 11.9931 10.5558 11.9864C10.6463 11.9828 10.7332 11.9506 10.8043 11.8946C11.8102 11.0703 12.8099 10.2406 13.8146 9.41563C14.1357 9.15188 14.4842 8.93562 14.9073 8.87086C15.1977 8.81986 15.4967 8.87192 15.7527 9.01805C16.0816 9.20605 16.1417 9.5479 15.8901 9.83167C15.3529 10.4374 14.8143 11.0416 14.2742 11.6442C13.5497 12.4587 12.8239 13.2734 12.0967 14.0882C11.6713 14.5674 11.1332 14.8307 10.5013 14.8374C8.80968 14.8555 7.11768 14.8456 5.42608 14.848C5.14467 14.848 4.83303 14.7809 4.59087 14.8802C4.34871 14.9795 4.18661 15.2456 3.99155 15.4414C3.80826 15.6259 3.6285 15.8135 3.44717 15.9999H3.4146C3.39235 15.9663 3.36783 15.9341 3.3412 15.9038C2.26004 14.8213 1.17796 13.7394 0.0949682 12.6579C0.0646275 12.6312 0.0325005 12.6065 -0.00119019 12.5842L-1.27818e-05 12.5528ZM15.4117 9.50708L15.403 9.45056C15.2656 9.44585 15.1263 9.42309 14.9921 9.44036C14.7091 9.47686 14.4768 9.62914 14.2601 9.80655C13.1737 10.6962 12.0864 11.585 10.9982 12.4731C10.9394 12.5207 10.8669 12.5482 10.7913 12.5516C9.77284 12.5571 8.75473 12.5477 7.73624 12.5586C7.10198 12.5657 6.66279 11.9432 6.97835 11.2827C7.13299 10.9581 7.41793 10.8388 7.76136 10.838C8.337 10.8364 8.91146 10.8364 9.48475 10.838C9.71553 10.838 9.93101 10.7936 10.1167 10.6492C10.3843 10.4408 10.3855 10.077 10.1167 9.87131C9.94396 9.73943 9.73987 9.69822 9.52793 9.69783C9.05695 9.69783 8.58793 9.69783 8.11812 9.69783C7.61114 9.70026 7.10949 9.59441 6.6467 9.38737C5.51596 8.87714 4.32477 9.10675 3.44443 9.97296C2.60948 10.7943 1.77532 11.6151 0.941949 12.4354C0.90247 12.4696 0.860342 12.5005 0.815961 12.528L3.45385 15.1671C3.69365 14.9163 3.94641 14.6596 4.18936 14.3943C4.22449 14.354 4.26846 14.3225 4.31782 14.302C4.36719 14.2816 4.42061 14.2729 4.47391 14.2765C6.41016 14.2797 8.3476 14.2803 10.2862 14.2785C10.8706 14.2785 11.3542 14.0772 11.7466 13.6262C12.5493 12.7046 13.37 11.7996 14.1832 10.8874C14.5921 10.4267 15.0016 9.96655 15.4117 9.50708Z" fill="#B07FD8"/>
<path d="M11.9932 5C12.5438 5.47358 13.1103 5.90705 13.5942 6.39704C14.0583 6.86606 14.109 7.43444 13.8243 7.99235C13.5331 8.56347 12.9985 8.89939 12.2454 8.98554C11.7625 9.03903 11.2728 8.94299 10.8702 8.71586C10.4676 8.48873 10.1806 8.14651 10.0641 7.75487C9.92315 7.24756 10.0041 6.76305 10.4126 6.36923C10.902 5.89748 11.4498 5.46674 11.9932 5ZM12.0042 6.00277C11.6981 6.24298 11.3667 6.46814 11.0865 6.73205C10.8873 6.92212 10.7854 7.16887 10.8021 7.42009C10.8189 7.67131 10.953 7.90727 11.1762 8.07804C11.3993 8.24812 11.6917 8.3423 11.995 8.3418C12.2983 8.34129 12.5902 8.24613 12.8124 8.0753C13.0357 7.9003 13.1679 7.66018 13.181 7.40584C13.194 7.1515 13.0869 6.90296 12.8824 6.71291C12.6038 6.45356 12.2867 6.22657 12.0042 6.00094V6.00277Z" fill="#662E93"/>
<path d="M9.51153 2C9.86987 2.28986 10.2825 2.58395 10.6371 2.92291C11.0454 3.31362 11.1003 3.78722 10.8462 4.26082C10.5872 4.74446 10.1197 5 9.49734 5C8.87501 5 8.4112 4.7397 8.15215 4.25554C7.90544 3.7962 7.9517 3.33157 8.34273 2.95301C8.70417 2.60032 9.13591 2.30148 9.51153 2ZM9.50721 3.00634C9.34808 3.1452 9.2093 3.25449 9.08718 3.37592C8.85898 3.60454 8.87069 3.90919 9.1026 4.09556C9.21295 4.18024 9.35615 4.22677 9.50434 4.22608C9.65253 4.2254 9.79513 4.17756 9.90441 4.09187C10.1339 3.90443 10.1413 3.59873 9.91305 3.37117C9.79093 3.24974 9.65462 3.13833 9.50721 3.00634Z" fill="#662E93"/>
<path d="M14.4144 1C14.8686 1.35134 15.3358 1.64822 15.7056 2.01526C16.1852 2.49017 16.0531 3.25881 15.4959 3.67455C15.2192 3.88562 14.8589 4.0017 14.4859 3.99998C14.1129 3.99826 13.7541 3.87885 13.4802 3.66524C13.2062 3.45163 13.0368 3.15925 13.0053 2.8456C12.9738 2.53194 13.0825 2.21969 13.31 1.97023C13.3605 1.9155 13.4143 1.86306 13.4713 1.81315C13.7996 1.52674 14.1284 1.24609 14.4144 1ZM14.4951 2.0184C14.3189 2.17548 14.16 2.3001 14.0322 2.44304C13.9422 2.53954 13.8989 2.66131 13.9113 2.78371C13.9236 2.9061 13.9906 3.01996 14.0986 3.10225C14.2066 3.18396 14.3462 3.22954 14.4912 3.23041C14.6363 3.23128 14.7766 3.18737 14.886 3.10697C14.9955 3.02607 15.0644 2.91309 15.0789 2.7909C15.0935 2.66871 15.0524 2.54643 14.9642 2.4488C14.8339 2.30115 14.6682 2.17548 14.4951 2.0184Z" fill="#662E93"/>
</g>
<defs>
<clipPath id="clip0_245_230">
<rect width="16.0459" height="16" fill="white"/>
</clipPath>
</defs>
</svg>
