<svg width="16" height="16" viewBox="0 0 16 16" fill="none" xmlns="http://www.w3.org/2000/svg">
<g clip-path="url(#clip0_354_324)">
<path d="M0 15.6875C0.529167 14.8721 1.05833 14.0563 1.595 13.2292C1.55708 13.2104 1.52792 13.1937 1.49667 13.1817C0.896667 12.9508 0.51625 12.4392 0.512083 11.7942C0.501667 10.2738 0.5075 8.7525 0.50875 7.23208C0.50875 7.05375 0.607083 6.94292 0.74875 6.94583C0.890417 6.94875 0.97625 7.055 0.97625 7.24083C0.97625 8.73056 0.97625 10.2201 0.97625 11.7096C0.97625 12.2396 1.26417 12.6358 1.73542 12.7629C1.79021 12.7796 1.84692 12.7893 1.90417 12.7917C2.39833 12.7938 2.8925 12.7917 3.40417 12.7917C3.44583 12.5588 3.4875 12.3242 3.52917 12.0904C3.59667 11.7154 3.85375 11.4971 4.235 11.4958C4.83417 11.4942 5.43319 11.4942 6.03208 11.4958C6.41833 11.4958 6.68208 11.7213 6.74792 12.1C6.78083 12.2896 6.8175 12.4788 6.84167 12.6696C6.85375 12.7658 6.88708 12.8029 6.98792 12.8021C7.41 12.7971 7.83208 12.8063 8.25375 12.7983C8.86708 12.7867 9.28792 12.3583 9.28833 11.7429C9.29083 9.39958 9.29083 7.05611 9.28833 4.7125C9.28833 4.08083 8.85583 3.65458 8.22625 3.65458C6.16875 3.65458 4.11139 3.65458 2.05417 3.65458C1.41667 3.65458 0.982917 4.08208 0.977917 4.71875C0.974167 5.20292 0.977917 5.6875 0.977917 6.17167C0.977917 6.37417 0.8975 6.47292 0.7425 6.47083C0.595 6.46875 0.509167 6.36833 0.510417 6.17917C0.514167 5.61167 0.492083 5.04208 0.535417 4.4775C0.590833 3.76125 1.23 3.2025 1.95208 3.18583C2.17 3.18083 2.38792 3.18583 2.61667 3.18583C2.64042 3.02833 2.65833 2.88042 2.68583 2.73333C2.735 2.44875 2.95833 2.25208 3.25 2.25C4.505 2.2475 5.76014 2.2475 7.01542 2.25C7.325 2.25 7.55375 2.4625 7.59875 2.77292C7.61708 2.90667 7.63708 3.04 7.65792 3.18625C7.86167 3.18625 8.05875 3.18625 8.25583 3.18625C9.09917 3.19167 9.75333 3.8175 9.75583 4.65958C9.76472 7.03958 9.76472 9.41958 9.75583 11.7996C9.75583 12.4246 9.38083 12.9412 8.7975 13.1712L8.67458 13.2196L9.76792 14.9167L9.80417 14.9054V14.7567C9.80417 14.1525 9.80417 13.5483 9.80417 12.9442C9.80417 12.7104 9.87958 12.6354 10.1121 12.6333C10.3204 12.6313 10.5288 12.63 10.7371 12.6333C10.9113 12.6367 11.0087 12.7254 11.0092 12.8683C11.0096 13.0113 10.9142 13.0971 10.7379 13.1C10.5883 13.1025 10.4388 13.1 10.2796 13.1V15.5167H15.52V13.1H11.8475C11.7955 13.1017 11.7435 13.1004 11.6917 13.0963C11.6386 13.0947 11.5882 13.0729 11.5507 13.0355C11.5131 12.998 11.4913 12.9476 11.4896 12.8946C11.4794 12.8398 11.4912 12.7832 11.5224 12.7371C11.5536 12.6909 11.6016 12.6589 11.6562 12.6479C11.7171 12.6349 11.7794 12.6296 11.8417 12.6321C13.0028 12.6321 14.1642 12.6321 15.3258 12.6321H15.5217V1.85292H13.9275V3.33917C14.0167 3.3475 14.1088 3.35292 14.1992 3.36583C14.5742 3.42042 14.8575 3.69333 14.8813 4.06958C14.9061 4.44417 14.9061 4.82 14.8813 5.19458C14.8674 5.38753 14.7808 5.56802 14.6389 5.69952C14.4971 5.83103 14.3105 5.90373 14.1171 5.90292C13.2632 5.91292 12.409 5.91292 11.5546 5.90292C11.3511 5.90244 11.1558 5.82258 11.0103 5.68034C10.8648 5.53809 10.7805 5.34468 10.7754 5.14125C10.7612 4.81917 10.7646 4.49542 10.7717 4.17292C10.7817 3.70375 11.0954 3.38583 11.5633 3.35583C11.6192 3.3525 11.675 3.35083 11.7375 3.34792V1.84375H11.125C10.6179 1.84375 10.225 1.53583 10.1579 1.08875C10.0821 0.58875 10.3329 0.197083 10.8404 0.0291665C10.8534 0.0213364 10.8651 0.0114917 10.875 0H16V16H8.15708C8.09208 15.9232 8.03315 15.8414 7.98083 15.7554C7.93251 15.6575 7.89533 15.5545 7.87 15.4483C7.83875 15.3288 7.7775 15.2913 7.65 15.2917C5.99167 15.2967 4.33347 15.2967 2.67542 15.2917C2.505 15.2917 2.43042 15.3438 2.37958 15.5C2.32208 15.6779 2.29625 15.8788 2.125 16H0V15.6875ZM12.8233 5.435C13.2292 5.435 13.6354 5.43708 14.0413 5.435C14.2883 5.435 14.4208 5.30792 14.4258 5.06292C14.4321 4.77708 14.4313 4.49042 14.4258 4.20458C14.4217 3.95458 14.2954 3.82417 14.0508 3.82292C13.2386 3.81875 12.4267 3.81875 11.615 3.82292C11.3675 3.82292 11.2433 3.95417 11.24 4.20333C11.2358 4.48472 11.2358 4.76583 11.24 5.04667C11.2433 5.31208 11.37 5.43417 11.6383 5.43542C12.0321 5.43625 12.4279 5.435 12.8233 5.435ZM15.5288 0.485C15.5154 0.47893 15.5014 0.47432 15.4871 0.47125C14.0079 0.47125 12.5288 0.4675 11.0496 0.47125C10.78 0.47125 10.5988 0.689583 10.6183 0.958333C10.6371 1.21625 10.8267 1.37167 11.1271 1.37208H15.5288V0.485ZM2.98417 13.8558H7.285C7.22292 13.6842 7.17333 13.525 7.10542 13.3746C7.09082 13.3485 7.07054 13.3261 7.04609 13.3089C7.02164 13.2917 6.99364 13.2803 6.96417 13.2754C6.76167 13.2642 6.55833 13.2708 6.35542 13.2708C5.35542 13.2708 4.35542 13.2708 3.35542 13.2708C3.29833 13.2708 3.20583 13.28 3.19083 13.3125C3.11292 13.4871 3.05375 13.6667 2.98417 13.8558ZM2.63792 14.8142H7.63167C7.5925 14.7017 7.55125 14.6058 7.52667 14.5071C7.49458 14.3758 7.42875 14.3325 7.2875 14.3338C6.29333 14.3413 5.29917 14.3375 4.305 14.3375C3.85208 14.3375 3.39917 14.3375 2.94667 14.3375C2.89542 14.3375 2.81333 14.3508 2.79833 14.3825C2.73542 14.5192 2.6925 14.6621 2.63792 14.8146V14.8142ZM2.69792 13.2725C2.54125 13.2725 2.40625 13.2779 2.27208 13.2725C2.2266 13.2665 2.18036 13.2746 2.13966 13.2958C2.09895 13.3169 2.06576 13.3501 2.04458 13.3908C1.61458 14.0671 1.17792 14.7392 0.744167 15.4129C0.722917 15.4454 0.706667 15.4812 0.681667 15.5279H1.87708C2.1475 14.7821 2.41917 14.0367 2.69792 13.2708V13.2725ZM7.60417 13.2725C7.59708 13.3021 7.59333 13.3079 7.595 13.3142C7.85417 14.0325 8.11431 14.7503 8.37542 15.4675C8.38383 15.4842 8.39613 15.4987 8.41128 15.5097C8.42642 15.5207 8.44399 15.528 8.4625 15.5308C8.83417 15.5354 9.20625 15.5338 9.58208 15.5338C9.58047 15.5179 9.57726 15.5023 9.5725 15.4871C9.11389 14.7735 8.65431 14.0603 8.19375 13.3475C8.18191 13.3288 8.16637 13.3128 8.1481 13.3003C8.12984 13.2878 8.10921 13.2792 8.0875 13.275C7.9275 13.2671 7.76667 13.2717 7.60417 13.2717V13.2725ZM6.38875 12.7954C6.34708 12.5558 6.3175 12.3287 6.2575 12.1104C6.24083 12.0492 6.12917 11.975 6.06042 11.9738C5.44597 11.9635 4.83153 11.9635 4.21708 11.9738C4.14625 11.9738 4.03125 12.0446 4.015 12.1038C3.95375 12.3258 3.925 12.5571 3.88208 12.7958L6.38875 12.7954ZM7.17458 3.18125C7.16292 3.08167 7.14792 2.99958 7.14417 2.91667C7.13833 2.76667 7.07 2.70833 6.91625 2.71667C6.72958 2.72875 6.54125 2.71958 6.35417 2.71958C5.34944 2.71958 4.34486 2.71958 3.34042 2.71958C3.24792 2.71958 3.15708 2.71708 3.13917 2.83792C3.1225 2.94958 3.10958 3.06167 3.09375 3.18167L7.17458 3.18125ZM12.2292 1.84792V3.33958H13.4354V1.84792H12.2292Z" fill="#B07FD8"/>
<path d="M3.09375 5.14589C3.41667 5.14589 3.73959 5.14339 4.0625 5.14589C4.60709 5.1513 4.94959 5.49005 4.95375 6.03505C4.95875 6.63894 4.95875 7.24283 4.95375 7.84672C4.94959 8.39672 4.59875 8.74339 4.05167 8.74505C3.41111 8.74672 2.77056 8.74672 2.13 8.74505C1.585 8.74505 1.2325 8.39172 1.22917 7.84464C1.22584 7.24602 1.22584 6.64714 1.22917 6.04797C1.23167 5.49589 1.57417 5.15172 2.125 5.1463C2.44834 5.14339 2.77125 5.14589 3.09375 5.14589ZM3.08334 8.27755C3.40584 8.27755 3.72875 8.27755 4.05167 8.27755C4.33459 8.27755 4.4825 8.13839 4.48459 7.86089C4.48931 7.252 4.48931 6.64297 4.48459 6.0338C4.48459 5.7563 4.34459 5.61922 4.06792 5.61714C3.41709 5.6138 2.76639 5.6138 2.11584 5.61714C1.84209 5.61714 1.69917 5.75839 1.69709 6.03047C1.69292 6.63964 1.69292 7.2488 1.69709 7.85797C1.69917 8.13547 1.84792 8.27464 2.12834 8.27797C2.44792 8.27922 2.76584 8.27755 3.08334 8.27755Z" fill="#662E93"/>
<path d="M7.18042 5.14618C7.50334 5.14618 7.82625 5.14326 8.14875 5.14618C8.69542 5.15201 9.03459 5.49243 9.03667 6.03618C9.03834 6.64035 9.03834 7.24437 9.03667 7.84826C9.03459 8.39618 8.68542 8.74368 8.13584 8.74535C7.49528 8.74701 6.85473 8.74701 6.21417 8.74535C5.66959 8.74535 5.31625 8.38826 5.315 7.84326C5.315 7.23937 5.315 6.63535 5.315 6.03118C5.315 5.50826 5.65917 5.15618 6.18 5.14743C6.51375 5.14118 6.84709 5.14618 7.18042 5.14618ZM7.18042 8.27701C7.50334 8.27701 7.82625 8.27951 8.14875 8.27701C8.42 8.2741 8.56542 8.13035 8.56542 7.86035C8.56764 7.25118 8.56764 6.64215 8.56542 6.03326C8.56542 5.75576 8.43084 5.6166 8.155 5.6166C7.50417 5.61326 6.85334 5.61326 6.2025 5.6166C5.92125 5.6166 5.78292 5.7616 5.78209 6.04326C5.78042 6.64215 5.78042 7.2409 5.78209 7.83951C5.78209 8.13326 5.92834 8.27618 6.22667 8.27785C6.54667 8.27868 6.86417 8.27743 7.18167 8.27701H7.18042Z" fill="#662E93"/>
<path d="M5.13041 5.02879C4.84916 5.02879 4.56833 5.02879 4.28708 5.02879C3.91708 5.02629 3.65541 4.78129 3.65416 4.44088C3.65291 4.10046 3.91291 3.84921 4.28125 3.84754C4.84875 3.84476 5.41625 3.84476 5.98375 3.84754C6.35125 3.84754 6.61833 4.09754 6.62083 4.43546C6.62333 4.77338 6.35458 5.02588 5.98958 5.02921C5.70333 5.03088 5.41666 5.02879 5.13041 5.02879ZM5.14 4.31504H4.29833C4.2075 4.31504 4.1125 4.33504 4.13166 4.44296C4.14041 4.49088 4.23791 4.55421 4.29625 4.55504C4.85208 4.56338 5.40791 4.55963 5.96291 4.56046C6.05375 4.56046 6.14291 4.54588 6.14333 4.43796C6.14375 4.33004 6.055 4.31296 5.96416 4.31296C5.69083 4.31588 5.41666 4.31504 5.14 4.31504Z" fill="#662E93"/>
<path d="M8.07625 11.6576C7.95095 11.6574 7.82691 11.6326 7.71121 11.5845C7.5955 11.5364 7.49041 11.466 7.40192 11.3772C7.31344 11.2885 7.24329 11.1833 7.19549 11.0674C7.14769 10.9516 7.12317 10.8275 7.12334 10.7022C7.1235 10.5769 7.14834 10.4528 7.19645 10.3371C7.24455 10.2214 7.31497 10.1163 7.40369 10.0279C7.49241 9.93937 7.59769 9.86922 7.71352 9.82142C7.82934 9.77362 7.95345 9.7491 8.07876 9.74927C8.33182 9.7496 8.57438 9.85045 8.75309 10.0296C8.93179 10.2088 9.032 10.4516 9.03167 10.7047C9.03134 10.9577 8.93049 11.2003 8.75132 11.379C8.57214 11.5577 8.32931 11.6579 8.07625 11.6576ZM8.07625 11.1889C8.14 11.1886 8.20308 11.1759 8.26189 11.1513C8.3207 11.1267 8.37409 11.0907 8.41901 11.0455C8.46393 11.0003 8.4995 10.9466 8.52369 10.8877C8.54788 10.8287 8.56022 10.7655 8.56 10.7018C8.55979 10.638 8.54701 10.5749 8.52242 10.5161C8.49782 10.4573 8.46188 10.4039 8.41665 10.359C8.37142 10.3141 8.31779 10.2785 8.25881 10.2543C8.19983 10.2301 8.13667 10.2178 8.07292 10.218C7.94418 10.2185 7.82089 10.27 7.73017 10.3614C7.63945 10.4527 7.58873 10.5764 7.58917 10.7051C7.58961 10.8338 7.64118 10.9571 7.73253 11.0479C7.82387 11.1386 7.94751 11.1893 8.07625 11.1889Z" fill="#662E93"/>
<path d="M2.18083 11.6574C1.92777 11.6542 1.68637 11.5505 1.50973 11.3693C1.3331 11.188 1.2357 10.944 1.23896 10.691C1.24222 10.4379 1.34587 10.1965 1.52712 10.0199C1.70836 9.84324 1.95235 9.74584 2.20541 9.7491C2.33072 9.75072 2.45447 9.777 2.56962 9.82644C2.68477 9.87588 2.78905 9.94752 2.87651 10.0373C2.96397 10.127 3.0329 10.2331 3.07936 10.3495C3.12582 10.4659 3.1489 10.5903 3.14729 10.7156C3.14568 10.8409 3.1194 10.9646 3.06995 11.0798C3.02051 11.1949 2.94887 11.2992 2.85913 11.3867C2.76938 11.4741 2.66329 11.543 2.54691 11.5895C2.43053 11.636 2.30613 11.659 2.18083 11.6574ZM2.19416 11.1887C2.25791 11.1891 2.32111 11.1769 2.38016 11.1529C2.43921 11.1289 2.49296 11.0935 2.53832 11.0487C2.58369 11.0039 2.61979 10.9507 2.64456 10.8919C2.66933 10.8332 2.6823 10.7701 2.68271 10.7064C2.68312 10.6426 2.67097 10.5794 2.64695 10.5204C2.62294 10.4613 2.58753 10.4076 2.54274 10.3622C2.49796 10.3169 2.44467 10.2808 2.38594 10.256C2.3272 10.2312 2.26416 10.2183 2.20041 10.2179C2.07167 10.217 1.94788 10.2674 1.85626 10.3578C1.76464 10.4483 1.7127 10.5714 1.71187 10.7001C1.71104 10.8289 1.76139 10.9527 1.85184 11.0443C1.94228 11.1359 2.06542 11.1879 2.19416 11.1887Z" fill="#662E93"/>
<path d="M5.14125 9.375C5.59959 9.375 6.05792 9.375 6.51625 9.375C6.71292 9.375 6.81792 9.45833 6.81667 9.61167C6.81542 9.765 6.71209 9.84333 6.51167 9.84333C5.59056 9.84333 4.66917 9.84333 3.7475 9.84333C3.5625 9.84333 3.45584 9.76 3.45334 9.615C3.45084 9.47 3.55709 9.37583 3.73667 9.37542C4.20417 9.375 4.6725 9.375 5.14125 9.375Z" fill="#B07FD8"/>
<path d="M5.13751 10.5368C4.67445 10.5368 4.21126 10.5368 3.74792 10.5368C3.55917 10.5368 3.45626 10.4563 3.45292 10.3118C3.44959 10.1672 3.55959 10.0693 3.75084 10.0688C4.67723 10.0688 5.60362 10.0688 6.53001 10.0688C6.75459 10.0688 6.89334 10.2484 6.78501 10.4068C6.75531 10.4431 6.71846 10.4729 6.67674 10.4945C6.63503 10.516 6.58934 10.5287 6.54251 10.5318C6.07459 10.5418 5.60584 10.5368 5.13751 10.5368Z" fill="#B07FD8"/>
<path d="M9.00292 4.41041C9.00248 4.55781 8.94382 4.69906 8.83971 4.8034C8.7356 4.90775 8.59448 4.96673 8.44709 4.96749C8.33591 4.9684 8.22698 4.93622 8.13415 4.87505C8.04132 4.81388 7.96878 4.72647 7.92576 4.62396C7.88273 4.52145 7.87118 4.40845 7.89255 4.29935C7.91393 4.19025 7.96727 4.08997 8.04579 4.01127C8.12432 3.93257 8.22448 3.879 8.33353 3.85738C8.44258 3.83576 8.5556 3.84706 8.65821 3.88985C8.76083 3.93265 8.84839 4.00499 8.90977 4.09769C8.97115 4.19038 9.00358 4.29924 9.00292 4.41041ZM8.45209 4.28083C8.41042 4.34083 8.36875 4.37333 8.365 4.40833C8.365 4.43583 8.41459 4.49166 8.43375 4.48958C8.45394 4.48526 8.47282 4.47621 8.48883 4.46317C8.50484 4.45013 8.51752 4.43348 8.52584 4.41458C8.53167 4.38416 8.48959 4.34458 8.45209 4.28083Z" fill="#662E93"/>
<path d="M2.38042 4.4084C2.37926 4.55615 2.31945 4.69738 2.21416 4.80103C2.10887 4.90469 1.96671 4.96227 1.81896 4.96111C1.67121 4.95995 1.52998 4.90014 1.42632 4.79485C1.32267 4.68955 1.26509 4.5474 1.26625 4.39965C1.26683 4.32649 1.28181 4.25416 1.31033 4.18679C1.33886 4.11943 1.38038 4.05834 1.43251 4.00701C1.48465 3.95569 1.54638 3.91514 1.61419 3.88767C1.682 3.86021 1.75455 3.84637 1.82771 3.84694C1.90087 3.84752 1.9732 3.86249 2.04056 3.89102C2.10793 3.91955 2.16902 3.96106 2.22035 4.0132C2.27167 4.06534 2.31222 4.12707 2.33969 4.19488C2.36715 4.26269 2.38099 4.33524 2.38042 4.4084ZM1.94834 4.3984C1.88542 4.36173 1.84959 4.32465 1.81584 4.32631C1.79 4.32631 1.74167 4.3834 1.74667 4.40465C1.7521 4.42442 1.76232 4.44256 1.77641 4.45746C1.79051 4.47235 1.80806 4.48355 1.8275 4.49007C1.85625 4.4934 1.89042 4.44507 1.94834 4.3984Z" fill="#662E93"/>
</g>
<defs>
<clipPath id="clip0_354_324">
<rect width="16" height="16" fill="white"/>
</clipPath>
</defs>
</svg>
