<svg width="17" height="16" viewBox="0 0 17 16" fill="none" xmlns="http://www.w3.org/2000/svg">
<g clip-path="url(#clip0_195_250)">
<path d="M0 14.3124V1.68798C0.0108867 1.67102 0.019567 1.65274 0.0258306 1.63358C0.205861 0.648501 0.974512 0.00117411 1.97759 0.00117411C5.99384 -0.00039137 10.0102 -0.00039137 14.0267 0.00117411C14.1827 -0.000418881 14.3384 0.0155982 14.4909 0.0489213C15.4145 0.26261 16.0027 1.02735 16.0031 2.00577C16.0031 5.20379 16.0031 8.40155 16.0031 11.599C16.0031 12.4209 16.0113 13.2451 16.0004 14.0678C15.991 14.7958 15.6677 15.3628 15.0384 15.7284C14.8192 15.8556 14.5574 15.9104 14.3151 15.998H5.40717C5.2835 15.9272 5.20092 15.8321 5.25062 15.6806C5.30033 15.5292 5.42478 15.5178 5.55667 15.5241C5.59816 15.5241 5.64004 15.5241 5.68152 15.5241H12.1822C12.1822 15.2071 12.1712 14.9159 12.1845 14.6239C12.2104 14.0713 11.8452 13.7336 11.3028 13.7371C9.10053 13.7516 6.89829 13.743 4.69605 13.743C4.66474 13.743 4.63343 13.743 4.60212 13.743C4.13717 13.7512 3.83151 14.0482 3.81938 14.5155C3.81155 14.8228 3.81938 15.13 3.81938 15.4368C3.82229 15.4659 3.82766 15.4947 3.83543 15.5229C4.02759 15.5229 4.21427 15.5194 4.40057 15.5229C4.55007 15.5264 4.66866 15.6196 4.64752 15.7429C4.63226 15.8329 4.55124 15.9119 4.49958 15.9957H1.68798C1.66562 15.984 1.64215 15.9746 1.61792 15.9675C1.01795 15.8615 0.554963 15.548 0.261044 15.0177C0.140502 14.8024 0.0849273 14.55 0 14.3124ZM15.51 12.6722C15.2141 12.6722 14.9186 12.6761 14.6232 12.6702C14.4777 12.674 14.3323 12.6608 14.1899 12.6311C13.5958 12.4745 13.2534 12.0127 13.253 11.3744C13.253 9.4739 13.253 7.57328 13.253 5.67252C13.253 5.32029 13.2487 4.96453 13.253 4.61034C13.2628 4.00881 13.6154 3.55169 14.1923 3.40375C14.3359 3.36657 14.4909 3.36461 14.6408 3.36461C14.9308 3.35874 15.2204 3.36461 15.5053 3.36461C15.5053 2.81669 15.5272 2.29186 15.4994 1.76939C15.465 1.11854 14.8893 0.545962 14.2439 0.506042C13.7821 0.477863 13.3179 0.487647 12.8549 0.480603C12.7939 0.480603 12.7328 0.480603 12.6573 0.480603C12.6573 0.820312 12.6573 1.14202 12.6573 1.46333C12.655 2.24099 12.1532 2.76581 11.3732 2.76855C9.12323 2.77638 6.87246 2.77208 4.62326 2.7709C4.20371 2.7709 3.85304 2.61827 3.59356 2.27856C3.41588 2.04608 3.34348 1.77956 3.34348 1.49073C3.34348 1.15924 3.34348 0.827748 3.34348 0.502911C2.80104 0.502911 2.27582 0.482168 1.75295 0.507998C1.11775 0.540091 0.536569 1.12402 0.500563 1.75804C0.471601 2.26682 0.481777 2.77755 0.475123 3.28751C0.478433 3.31404 0.484064 3.34024 0.491952 3.36578C0.751822 3.36578 1.01091 3.36148 1.27 3.36578C1.44611 3.3697 1.6281 3.36344 1.79717 3.40492C2.39793 3.54973 2.7482 4.02172 2.74898 4.66513C2.74898 6.22253 2.74898 7.77953 2.74898 9.33614C2.74898 10.0289 2.75251 10.7212 2.74898 11.4139C2.74468 12.0295 2.38149 12.507 1.79365 12.6389C1.57879 12.6867 1.34866 12.6706 1.12558 12.678C0.913849 12.6835 0.702118 12.678 0.495866 12.678C0.495866 13.2154 0.473949 13.7301 0.501345 14.2435C0.536569 14.894 1.11188 15.467 1.75764 15.5061C2.23512 15.5351 2.71494 15.5253 3.19358 15.5315C3.23898 15.5315 3.28477 15.5264 3.34387 15.5225V15.3542C3.34387 15.0728 3.33995 14.7918 3.34387 14.5108C3.35678 13.8255 3.82369 13.3301 4.50232 13.2757C4.56455 13.271 4.62717 13.2678 4.68979 13.2678C6.8979 13.2678 9.10614 13.2678 11.3145 13.2678C11.7575 13.2678 12.1317 13.3993 12.4072 13.7598C12.5849 13.9923 12.6569 14.2592 12.6573 14.548V15.503C13.1994 15.503 13.7246 15.5237 14.2474 15.4979C14.8826 15.4658 15.4638 14.8819 15.4998 14.2482C15.5284 13.75 15.5186 13.2494 15.5249 12.7501C15.5222 12.7237 15.5172 12.6977 15.51 12.6722ZM12.1599 0.485299H3.84091C3.84091 0.894281 3.82173 1.29465 3.85147 1.6915C3.86165 1.82926 3.97476 1.97446 4.07416 2.08718C4.22406 2.25703 4.43814 2.28756 4.66122 2.28717C6.88942 2.28482 9.11762 2.28482 11.3458 2.28717C11.3928 2.28717 11.4398 2.28717 11.4863 2.28365C11.8092 2.26447 12.1258 2.02456 12.1517 1.70716C12.1857 1.30444 12.1599 0.898586 12.1599 0.485299ZM0.486082 3.846V12.1849C0.877452 12.1849 1.25591 12.1849 1.63554 12.1849C1.66132 12.1825 1.6867 12.1769 1.71107 12.1681C2.07661 12.0675 2.27504 11.7834 2.27504 11.3529C2.27504 9.12962 2.27504 6.90612 2.27504 4.68235C2.27512 4.59912 2.26752 4.51606 2.25234 4.43422C2.19598 4.12896 1.92828 3.86517 1.62145 3.85108C1.2473 3.83269 0.872364 3.846 0.486082 3.846ZM15.517 12.1849V3.83973H14.5699C14.0287 3.83973 13.7281 4.13913 13.7281 4.68079C13.7281 6.81063 13.7281 8.94046 13.7281 11.0703C13.7281 11.1901 13.7238 11.3098 13.7281 11.4296C13.7469 11.8307 14.0048 12.156 14.3664 12.1794C14.7453 12.2041 15.1261 12.1849 15.517 12.1849Z" fill="#B07FD8"/>
<path d="M7.9996 14.397H11.0449C11.2934 14.397 11.4104 14.4752 11.4084 14.6357C11.4065 14.7962 11.291 14.8733 11.0406 14.8733C9.0156 14.8733 6.99078 14.8733 4.96609 14.8733C4.92422 14.8733 4.88234 14.8756 4.84124 14.8733C4.6847 14.8596 4.58959 14.7609 4.59507 14.6248C4.60016 14.4956 4.69487 14.404 4.84555 14.4005C5.10581 14.395 5.36607 14.3981 5.62633 14.3981L7.9996 14.397Z" fill="#662E93"/>
<path d="M11.9035 8.00774V11.35C11.9035 11.7449 11.747 11.9011 11.3556 11.9011H4.6393C4.25771 11.9011 4.09999 11.7418 4.09999 11.3583C4.09999 9.11962 4.09999 6.88098 4.09999 4.64234C4.09999 4.25841 4.25654 4.09912 4.63852 4.09912H11.3701C11.7411 4.09912 11.9012 4.26076 11.9012 4.63412C11.9033 5.75866 11.904 6.8832 11.9035 8.00774ZM9.47116 9.78691H11.4108V9.4652H11.2323C11.0867 9.4652 10.9408 9.4699 10.7956 9.46324C10.639 9.45581 10.538 9.35875 10.5369 9.22607C10.5357 9.0934 10.6359 8.99908 10.792 8.98851C10.8648 8.98381 10.9376 8.98655 11.0104 8.98616H11.4167V8.66641H9.47116V8.98655C9.56313 8.98655 9.64532 8.98421 9.7275 8.98655C9.91223 8.99242 10.0159 9.07696 10.0175 9.22138C10.0191 9.36579 9.90832 9.46089 9.71733 9.46481C9.63632 9.46676 9.55491 9.46481 9.46959 9.46481L9.47116 9.78691ZM4.59116 4.91943H6.52884V4.59303H4.59116V4.91943ZM7.03135 4.91943H8.96864V4.59303H7.03135V4.91943ZM9.47077 4.91943H11.41V4.59225H9.47116L9.47077 4.91943ZM6.52884 5.73074V5.41765H4.59077V5.73074H6.52884ZM8.97333 5.41373H7.03331V5.72683H8.97333V5.41373ZM9.4692 5.73074H11.412V5.41491H9.47116L9.4692 5.73074ZM4.58999 6.5444H6.52923V6.23131H4.58999V6.5444ZM7.03135 7.35493H8.96903V7.04183H7.03135V7.35493ZM11.412 7.04183H9.47468V7.35806H11.412V7.04183ZM4.59038 8.16781H6.52923V7.85471H4.59038V8.16781ZM8.97373 7.85471H7.03331V8.16781H8.97294L8.97373 7.85471ZM11.412 7.85471H9.47468V8.17055H11.4112L11.412 7.85471ZM4.59507 8.66054V8.97755H6.53079V8.66054H4.59507ZM8.97373 8.66602H7.03175V8.97481H8.97373V8.66602ZM11.4116 6.22661H9.4739V6.5444H11.4116V6.22661ZM8.97294 6.22857H7.03605V6.54166H8.97294V6.22857ZM6.53353 7.04105H4.59038V7.35415H6.53353V7.04105ZM4.59116 9.47185V9.78495H6.52884V9.47185H4.59116ZM7.03644 9.47185V9.7873H8.96981V9.47185H7.03644ZM6.53001 10.6002V10.2871H4.59547V10.6002H6.53001ZM7.03096 10.6002H8.96942V10.2894H7.03096V10.6002ZM11.4108 10.6002V10.2871H9.47585V10.6002H11.4108ZM6.53275 11.1023H4.59273V11.408H6.53275V11.1023ZM8.97255 11.0976H7.0337V11.4072H8.97255V11.0976ZM11.4167 11.0976H9.47507V11.4056H11.4167V11.0976Z" fill="#662E93"/>
<path d="M12.6937 8.00159C12.6937 9.14752 12.6937 10.2933 12.6937 11.439C12.6937 12.226 12.2284 12.6914 11.4413 12.6914H4.56455C3.77633 12.6914 3.30981 12.2272 3.30981 11.4417C3.30981 9.1457 3.30981 6.84888 3.30981 4.55127C3.30981 3.77636 3.77946 3.31102 4.55711 3.30984C4.83851 3.30984 5.1199 3.30984 5.40091 3.30984C5.58328 3.30984 5.68935 3.39986 5.68974 3.54467C5.69013 3.68947 5.58328 3.78145 5.40286 3.78301C5.10072 3.78497 4.79859 3.78301 4.49645 3.78301C4.06164 3.78693 3.78455 4.06284 3.78455 4.49961C3.78298 6.83296 3.78298 9.16618 3.78455 11.4993C3.78455 11.9356 4.06203 12.2155 4.49645 12.2155C6.83528 12.2173 9.17424 12.2173 11.5133 12.2155C11.9391 12.2155 12.2178 11.9349 12.2178 11.5083C12.2196 9.16996 12.2196 6.83152 12.2178 4.49296C12.2178 4.05306 11.9356 3.78301 11.4836 3.78301C9.89514 3.78301 8.30644 3.78301 6.71748 3.78301C6.6756 3.78301 6.63372 3.78301 6.59224 3.78301C6.41142 3.77831 6.30732 3.68987 6.30889 3.54232C6.31045 3.39477 6.4126 3.30984 6.5985 3.30984C8.23951 3.30984 9.88014 3.30593 11.5212 3.30984C12.2154 3.31219 12.6898 3.79867 12.6917 4.50078C12.696 5.66863 12.6937 6.83492 12.6937 8.00159Z" fill="#B07FD8"/>
<path d="M7.9953 1.53681H4.96571C4.91349 1.53848 4.86123 1.53717 4.80916 1.5329C4.67609 1.51724 4.60095 1.43779 4.59586 1.30669C4.59077 1.17558 4.66357 1.10082 4.78333 1.07186C4.83964 1.06203 4.89692 1.05888 4.95397 1.06247H11.0453C11.0711 1.06247 11.0973 1.06247 11.1235 1.06247C11.302 1.06717 11.4104 1.15875 11.4088 1.30316C11.4073 1.44758 11.3008 1.53564 11.1188 1.53603C10.0775 1.53733 9.03635 1.53759 7.9953 1.53681Z" fill="#662E93"/>
<path d="M1.10014 7.95728C1.10014 6.94781 1.10014 5.93833 1.10014 4.92886C1.09874 4.86671 1.10346 4.80457 1.11423 4.74335C1.12461 4.68994 1.15348 4.6419 1.19577 4.60767C1.23806 4.57344 1.29106 4.55521 1.34546 4.55619C1.39986 4.55717 1.45217 4.5773 1.4932 4.61303C1.53423 4.64877 1.56134 4.69782 1.56979 4.75157C1.57807 4.80806 1.58186 4.86511 1.58114 4.9222C1.58114 6.94637 1.58114 8.97054 1.58114 10.9947C1.58114 11.2452 1.5056 11.3626 1.34631 11.3649C1.18703 11.3673 1.10132 11.2448 1.10132 10.9857C1.10001 9.97623 1.09962 8.96676 1.10014 7.95728Z" fill="#662E93"/>
<path d="M14.3872 7.95114V4.92272C14.3872 4.66716 14.458 4.55796 14.622 4.55522C14.786 4.55248 14.8682 4.66559 14.8682 4.92898C14.8682 6.94767 14.8682 8.96649 14.8682 10.9854C14.8682 11.0578 14.8791 11.1475 14.8423 11.1976C14.7907 11.2688 14.6983 11.3541 14.6243 11.3541C14.5504 11.3541 14.4631 11.2645 14.4103 11.1933C14.3758 11.1471 14.3872 11.0633 14.3872 10.9976C14.3866 9.98131 14.3866 8.96584 14.3872 7.95114Z" fill="#662E93"/>
</g>
<defs>
<clipPath id="clip0_195_250">
<rect width="16.0063" height="16" fill="white"/>
</clipPath>
</defs>
</svg>
