<svg width="19" height="16" viewBox="0 0 19 16" fill="none" xmlns="http://www.w3.org/2000/svg">
<g clip-path="url(#clip0_341_134)">
<path d="M-1.96276e-06 1.7378C0.0770937 1.55038 0.22907 1.50784 0.414719 1.50829C1.32259 1.51139 2.23134 1.50829 3.13832 1.51094C3.24377 1.51094 3.31555 1.5043 3.35986 1.37802C3.41525 1.22427 3.56412 1.20389 3.71432 1.20433C4.70446 1.20611 5.69488 1.20611 6.68561 1.20433C6.86284 1.20433 7.04317 1.18307 7.21464 1.21231C7.32231 1.23092 7.45479 1.30403 7.50574 1.39309C7.56157 1.49101 7.61253 1.5105 7.70646 1.50784C8.12694 1.49544 8.5297 1.56854 8.89391 1.78742C9.60505 2.21588 9.95065 2.85436 9.96173 3.67937C9.96394 3.83843 9.96173 3.99794 9.96527 4.15701C9.96756 4.17354 9.97126 4.18985 9.97635 4.20575H12.9822V4.02541C12.9822 3.59519 12.9791 3.16496 12.9822 2.73473C12.9933 1.41834 13.8449 0.35451 15.1276 0.0634073C15.3293 0.0215911 15.5348 0.000949971 15.7408 0.00181943C16.3952 -0.0057129 17.0497 -0.00172509 17.7041 -0.00083893C18.0351 -0.00083893 18.1472 0.138731 18.0825 0.467052C17.8949 1.40815 17.7066 2.34895 17.5175 3.28946C17.4657 3.54822 17.3815 3.61468 17.121 3.61645C16.8605 3.61822 16.5928 3.61645 16.304 3.61645V13.7585C16.304 14.2016 16.1449 14.401 15.7133 14.4949V15.3944H15.8981C16.4936 15.3944 17.0891 15.3944 17.6846 15.3944C17.7492 15.3921 17.8139 15.3974 17.8773 15.4103C17.945 15.4233 18.0056 15.4603 18.0481 15.5146C18.0905 15.5688 18.1119 15.6366 18.1082 15.7054C18.106 15.7772 18.0778 15.8457 18.0289 15.8982C17.98 15.9508 17.9137 15.9838 17.8423 15.9912C17.7834 15.9968 17.7242 15.9985 17.6651 15.9965C11.9228 15.9965 6.18065 15.9974 0.438646 15.9992C0.24635 15.9992 0.0894999 15.9655 -0.00443268 15.7821V15.6048C0.12406 15.3509 0.373956 15.3988 0.583975 15.3908V14.4887C0.26806 14.4648 0.0965892 14.28 -0.00443268 14.0133V4.67408C0.228627 4.10472 0.741711 4.24031 1.18612 4.22037V3.32269C0.924259 3.32269 0.676579 3.31737 0.429784 3.32269C0.245463 3.32801 0.095703 3.27838 -0.00443268 3.11533L-1.96276e-06 1.7378ZM0.612775 4.83935V13.8737H15.6912V4.84068L0.612775 4.83935ZM1.21049 15.3846H15.0815V14.5038H1.21049V15.3846ZM15.6921 0.615926C14.5183 0.583581 13.4191 1.66824 13.6074 3.00323H15.6921V0.615926ZM3.93763 1.81622V3.00412H6.92797V1.81622H3.93763ZM3.31733 3.33377H1.81662V4.21062H6.92974V3.61955H6.71352C5.72324 3.61955 4.73252 3.61645 3.74179 3.62221C3.52291 3.6231 3.36075 3.56683 3.31555 3.33377H3.31733ZM7.55891 2.12727V4.21239H9.34009C9.53903 2.80651 8.70782 2.01871 7.55714 2.12727H7.55891ZM16.3181 0.610609V3.01475C16.5104 3.01475 16.6925 3.02184 16.8729 3.00943C16.9127 3.00633 16.9712 2.93899 16.9814 2.89246C17.0572 2.55439 17.1241 2.21367 17.1919 1.87338C17.2752 1.45556 17.3571 1.03729 17.4418 0.610166L16.3181 0.610609ZM3.31733 2.12993H0.614548V2.70593H3.31733V2.12993ZM13.5928 4.20885H15.689V3.63019H13.5928V4.20885Z" fill="#B07FD8"/>
<path d="M2.10197 8.45353C1.99474 8.45353 1.90036 8.45885 1.80687 8.45353C1.45241 8.43049 1.21847 8.1899 1.20695 7.83588C1.20119 7.65865 1.20385 7.48142 1.20695 7.30418C1.21182 6.88946 1.4502 6.65153 1.86846 6.64267C1.94423 6.64267 2.02 6.64267 2.09 6.64267C2.24862 6.13756 2.38642 6.03742 2.9097 6.03742C4.61333 6.03742 6.31741 6.03432 8.02105 6.04274C8.18951 6.04374 8.35523 6.08555 8.504 6.16459C8.72022 6.2851 8.75656 6.51462 8.75611 6.74989C8.75301 7.92892 8.75611 9.1084 8.75611 10.2874C8.75611 10.8413 8.75611 11.3951 8.75611 11.9499C8.75611 12.4541 8.53679 12.6752 8.03788 12.6756C6.29865 12.6756 4.55957 12.6756 2.82064 12.6756C2.39174 12.6756 2.1928 12.5117 2.10551 12.0708C2.01291 12.0708 1.91499 12.0735 1.81707 12.0708C1.47412 12.0602 1.22777 11.8254 1.21138 11.4829C1.20163 11.283 1.2034 11.0819 1.21138 10.8816C1.2229 10.5134 1.47457 10.2719 1.84631 10.2644C1.92828 10.2644 2.01069 10.2644 2.1064 10.2644L2.10197 8.45353ZM2.73247 6.65286V12.0624H8.13536V6.65286H2.73247ZM2.10285 7.84031V7.26209H1.81662V7.84031H2.10285ZM2.10064 11.4616V10.875H1.81928V11.4616H2.10064Z" fill="#662E93"/>
<path d="M12.2192 9.05826C11.5002 9.05826 10.7811 9.05826 10.0619 9.05826C9.59707 9.05826 9.3618 8.82786 9.36003 8.36573C9.35737 7.61752 9.35737 6.86886 9.36003 6.11976C9.36224 5.66694 9.59441 5.43432 10.0495 5.43388C11.4998 5.43122 12.95 5.43122 14.4 5.43388C14.8622 5.43388 15.0948 5.67137 15.0961 6.13439C15.0982 6.87698 15.0982 7.61973 15.0961 8.36263C15.0961 8.82121 14.8538 9.05782 14.3947 9.0587C13.6696 9.05959 12.9444 9.05944 12.2192 9.05826ZM14.494 8.44504V8.25629C14.494 7.58502 14.4878 6.91332 14.4966 6.24205C14.4988 6.07856 14.4523 6.03514 14.2902 6.03602C12.9117 6.04223 11.5338 6.03912 10.1554 6.04001C10.0982 6.04001 10.041 6.04621 9.97502 6.04976V8.44637L14.494 8.44504Z" fill="#B07FD8"/>
<path d="M12.2214 13.28C11.5025 13.28 10.7833 13.28 10.0641 13.28C9.58556 13.28 9.36092 13.0554 9.36003 12.5759C9.35767 11.8393 9.35767 11.1024 9.36003 10.3654C9.36003 9.88912 9.59043 9.66182 10.065 9.66138C11.5094 9.66138 12.9537 9.66138 14.3978 9.66138C14.8582 9.66138 15.0948 9.89532 15.0961 10.3575C15.0982 11.1001 15.0982 11.8428 15.0961 12.5857C15.0961 13.0492 14.8626 13.2782 14.3965 13.2796C13.6716 13.281 12.9466 13.2812 12.2214 13.28ZM14.4811 12.6668V10.2742H9.97547V12.6668H14.4811Z" fill="#662E93"/>
<path d="M4.21677 10.5656C4.03467 10.5656 3.85256 10.5705 3.67046 10.5656C3.45512 10.5585 3.32752 10.4442 3.3253 10.2683C3.32308 10.0924 3.45025 9.96833 3.66337 9.96479C4.0391 9.9577 4.41498 9.9577 4.791 9.96479C5.00457 9.96878 5.13129 10.0933 5.12819 10.2701C5.12508 10.4469 4.99526 10.5585 4.78081 10.5656C4.59295 10.5705 4.40508 10.5656 4.21677 10.5656Z" fill="#662E93"/>
<path d="M4.21722 11.4682C4.02936 11.4682 3.84149 11.4717 3.65363 11.4682C3.45601 11.4637 3.32796 11.345 3.3253 11.174C3.32265 11.0029 3.44981 10.8727 3.64521 10.8696C4.03305 10.8625 4.42074 10.8625 4.80829 10.8696C5.00191 10.8727 5.13129 11.0065 5.12819 11.1749C5.12509 11.3432 4.99527 11.4637 4.79898 11.4682C4.6027 11.4726 4.41129 11.4682 4.21722 11.4682Z" fill="#662E93"/>
<path d="M7.53987 9.36087C7.53987 9.46676 7.54696 9.57355 7.53987 9.67856C7.52657 9.84117 7.43308 9.93953 7.26915 9.95105C7.10521 9.96257 6.97849 9.88414 6.96519 9.72242C6.94526 9.47721 6.94526 9.23079 6.96519 8.98558C6.9776 8.8305 7.10609 8.76094 7.25718 8.7605C7.3289 8.76063 7.39784 8.78828 7.44978 8.83775C7.50171 8.88721 7.53269 8.95472 7.53632 9.02635C7.54651 9.13711 7.53632 9.24788 7.53632 9.36131L7.53987 9.36087Z" fill="#662E93"/>
<path d="M12.2321 11.4674C12.0788 11.4674 11.9255 11.4731 11.7726 11.4674C11.6948 11.4672 11.6202 11.4366 11.5646 11.3823C11.509 11.3279 11.4768 11.254 11.4748 11.1763C11.4717 11.1012 11.4981 11.0279 11.5484 10.972C11.5986 10.9162 11.6688 10.8823 11.7438 10.8776C12.0615 10.8634 12.3801 10.8634 12.6977 10.8754C12.7756 10.8793 12.8488 10.9138 12.9014 10.9714C12.954 11.029 12.9818 11.105 12.9787 11.1829C12.9743 11.2604 12.9403 11.3333 12.8836 11.3864C12.8269 11.4395 12.7519 11.4686 12.6743 11.4678C12.5272 11.4727 12.3796 11.4674 12.2321 11.4674Z" fill="#662E93"/>
</g>
<defs>
<clipPath id="clip0_341_134">
<rect width="18.1091" height="16" fill="white"/>
</clipPath>
</defs>
</svg>
