<svg width="17" height="16" viewBox="0 0 17 16" fill="none" xmlns="http://www.w3.org/2000/svg">
<g clip-path="url(#clip0_277_69)">
<path d="M3.62967 2.28255V1.39455C3.62967 1.20535 3.62714 1.01615 3.62967 0.826946C3.64077 0.24067 4.12462 -0.123105 4.6892 0.0388531C5.26993 0.205352 5.84965 0.38295 6.42634 0.556513C8.22317 1.09469 10.0197 1.63455 11.8158 2.17609C12.3204 2.32745 12.502 2.57972 12.503 3.0999C12.504 3.62008 12.5086 4.14683 12.5 4.67003C12.4975 4.81383 12.5378 4.89455 12.6675 4.96721C13.388 5.37084 14.0994 5.78759 14.8209 6.1887C15.1781 6.38699 15.3365 6.67054 15.3355 7.08023C15.3291 9.70384 15.328 12.3275 15.332 14.9511V15.1958C15.4692 15.1958 15.5933 15.1922 15.7175 15.1958C15.9662 15.2038 16.1312 15.3633 16.1337 15.5928C16.1362 15.8224 15.9778 15.9844 15.7301 15.9965C15.6736 15.999 15.6165 15.9965 15.56 15.9965H0.575176C0.50555 15.9965 0.435922 15.9965 0.367305 15.9924C0.268561 15.9878 0.175396 15.9453 0.10711 15.8738C0.0388246 15.8023 0.000653169 15.7073 0.000504138 15.6085C-0.00520015 15.5065 0.0293417 15.4063 0.0967053 15.3295C0.164069 15.2527 0.258876 15.2054 0.360746 15.1978C0.497981 15.1862 0.63673 15.1978 0.801715 15.1978V14.948C0.801715 11.0384 0.807769 7.12765 0.794651 3.21897C0.794651 2.70232 1.11302 2.24723 1.74117 2.27649C2.29616 2.30172 2.85116 2.28154 3.40615 2.28154L3.62967 2.28255ZM4.44652 0.807269V15.1837H6.44904V14.9657C6.44904 14.386 6.44551 13.8053 6.44904 13.226C6.45358 12.7089 6.78809 12.3739 7.30373 12.3683C7.80827 12.3633 8.31281 12.3633 8.81736 12.3683C9.3446 12.3724 9.67861 12.7064 9.68264 13.2346C9.68718 13.8148 9.68264 14.3951 9.68264 14.9748V15.1801H11.6902V2.98134L4.44652 0.807269ZM3.62109 3.09889H1.62008V15.1837H3.62109V3.09889ZM12.5187 5.80727V15.1832H14.5278V7.13472C14.5323 7.11004 14.5323 7.08472 14.5278 7.06004C14.505 7.00707 14.4874 6.93542 14.4445 6.90868C13.8118 6.5439 13.1766 6.18315 12.5187 5.80727ZM7.27144 13.1912V15.1837H8.8557V13.1912H7.27144Z" fill="#B07FD8"/>
<path d="M6.84208 6.31083C6.70989 6.31083 6.57719 6.31638 6.445 6.31083C6.21493 6.29922 6.06357 6.15947 6.05651 5.93091C6.04743 5.64736 6.04692 5.3633 6.05651 5.08025C6.05615 5.03095 6.06573 4.98207 6.08466 4.93654C6.1036 4.89101 6.13151 4.84976 6.16672 4.81525C6.20194 4.78074 6.24375 4.75367 6.28965 4.73566C6.33556 4.71765 6.38462 4.70907 6.43391 4.71042C6.71695 4.70134 7.00151 4.70134 7.28456 4.71042C7.33387 4.71007 7.38275 4.71964 7.42827 4.73858C7.4738 4.75751 7.51505 4.78542 7.54956 4.82064C7.58408 4.85586 7.61114 4.89767 7.62915 4.94357C7.64716 4.98947 7.65574 5.03853 7.65439 5.08782C7.66347 5.37087 7.66347 5.65492 7.65439 5.93848C7.64682 6.15593 7.49748 6.29166 7.2775 6.31032L7.23966 6.31285H6.84258L6.84208 6.31083Z" fill="#B07FD8"/>
<path d="M9.28002 6.31088C9.14178 6.31088 9.00252 6.31643 8.86428 6.31088C8.63421 6.29928 8.48537 6.15649 8.4778 5.92895C8.46872 5.65195 8.46922 5.37395 8.4778 5.09696C8.48436 4.86689 8.62916 4.71805 8.85923 4.71048C9.13623 4.7014 9.41423 4.7019 9.69122 4.71048C9.9218 4.71754 10.0701 4.86184 10.0777 5.09191C10.0868 5.36891 10.0863 5.64691 10.0777 5.9239C10.0701 6.16104 9.91927 6.3018 9.6776 6.3124C9.54541 6.31795 9.41271 6.3124 9.28002 6.3124V6.31088Z" fill="#662E93"/>
<path d="M6.84813 8.73155C6.70989 8.73155 6.57063 8.73811 6.43239 8.73155C6.21342 8.71894 6.06458 8.57716 6.05701 8.3592C6.04743 8.07615 6.04743 7.79159 6.05701 7.50854C6.05586 7.45923 6.06466 7.41019 6.08289 7.36436C6.10112 7.31852 6.12841 7.27684 6.16312 7.24179C6.19784 7.20675 6.23926 7.17907 6.28492 7.1604C6.33058 7.14174 6.37954 7.13247 6.42886 7.13317C6.71191 7.12358 6.99596 7.12358 7.27952 7.13317C7.50605 7.14073 7.64985 7.2921 7.65691 7.52368C7.66448 7.79411 7.66448 8.06556 7.65691 8.3365C7.65035 8.57716 7.50555 8.72197 7.26488 8.73357C7.12664 8.74013 6.98739 8.73357 6.84864 8.73357L6.84813 8.73155Z" fill="#662E93"/>
<path d="M10.0797 7.92584C10.0797 8.06458 10.0853 8.20333 10.0797 8.34158C10.0686 8.57266 9.92836 8.722 9.69929 8.72957C9.4223 8.73916 9.1443 8.73865 8.86731 8.72957C8.62967 8.72251 8.48436 8.57266 8.4778 8.33098C8.47074 8.05988 8.47074 7.78877 8.4778 7.51766C8.48436 7.28709 8.62916 7.13724 8.85722 7.12967C9.13471 7.12059 9.41221 7.12109 9.6892 7.12967C9.92785 7.13673 10.0691 7.28608 10.0797 7.52826C10.0848 7.66045 10.0802 7.79314 10.0797 7.92584Z" fill="#B07FD8"/>
<path d="M7.6559 10.3704C7.6559 10.5092 7.66347 10.6484 7.6559 10.7862C7.64228 10.9955 7.50151 11.1424 7.29263 11.1499C7.00303 11.1605 6.71241 11.1605 6.42281 11.1499C6.37513 11.1501 6.32788 11.1409 6.28379 11.1228C6.23969 11.1047 6.19961 11.078 6.16585 11.0443C6.13209 11.0107 6.10532 10.9707 6.08707 10.9266C6.06883 10.8826 6.05947 10.8354 6.05954 10.7877C6.04894 10.4981 6.04894 10.2075 6.05954 9.91785C6.05927 9.87011 6.06847 9.82279 6.0866 9.77863C6.10473 9.73447 6.13143 9.69434 6.16516 9.66056C6.19889 9.62678 6.23899 9.60002 6.28312 9.58183C6.32726 9.56364 6.37456 9.55438 6.4223 9.55458C6.71191 9.54398 7.00252 9.54398 7.29163 9.55458C7.38786 9.5551 7.48004 9.59343 7.54828 9.66129C7.61652 9.72915 7.65535 9.82111 7.65641 9.91734C7.66297 10.0672 7.6559 10.2191 7.6559 10.3704Z" fill="#662E93"/>
<path d="M10.0797 10.3451C10.0797 10.4833 10.0853 10.6226 10.0797 10.7608C10.0686 10.9924 9.92836 11.1438 9.70131 11.1513C9.41827 11.1604 9.13421 11.1604 8.85066 11.1513C8.80133 11.1519 8.75239 11.1426 8.70676 11.1239C8.66112 11.1052 8.61973 11.0774 8.58506 11.0423C8.5504 11.0072 8.52316 10.9655 8.50499 10.9197C8.48682 10.8738 8.47809 10.8248 8.47931 10.7754C8.47023 10.4924 8.47023 10.2083 8.47931 9.92478C8.47876 9.87552 8.48812 9.82665 8.50684 9.78109C8.52556 9.73552 8.55326 9.69418 8.58828 9.65953C8.6233 9.62489 8.66494 9.59764 8.71071 9.57941C8.75647 9.56119 8.80544 9.55236 8.85469 9.55344C9.13219 9.54436 9.40952 9.54436 9.68668 9.55344C9.92583 9.56 10.0686 9.70833 10.0792 9.94951C10.0848 10.0797 10.0802 10.2124 10.0797 10.3451Z" fill="#662E93"/>
</g>
<defs>
<clipPath id="clip0_277_69">
<rect width="16.1337" height="16" fill="white"/>
</clipPath>
</defs>
</svg>
