<svg width="36" height="36" viewBox="0 0 36 36" fill="none" xmlns="http://www.w3.org/2000/svg">
<g clip-path="url(#clip0_157_33)">
<path d="M20.8988 0C21.8681 0.1875 22.5478 0.803438 23.2172 1.47844C26.0541 4.3425 28.9144 7.18219 31.7625 10.035C32.6635 10.9388 32.5322 12.2606 31.4616 12.8259C31.1278 13.0012 30.7116 13.0209 30.2738 13.1269V13.4156C30.2738 15.2788 30.2738 17.1419 30.2738 19.005C30.2738 19.1447 30.3019 19.3313 30.2269 19.4128C30.0816 19.5713 29.8828 19.7456 29.685 19.7756C29.4253 19.8159 29.2266 19.6228 29.1769 19.3434C29.1558 19.2048 29.1473 19.0645 29.1516 18.9244C29.1516 16.815 29.1516 14.7056 29.1431 12.5962C29.1478 12.416 29.089 12.2399 28.9772 12.0984C26.1491 9.25906 23.3144 6.42625 20.4731 3.6C20.4488 3.57562 20.4178 3.55687 20.3794 3.52406C20.2969 3.60281 20.2125 3.67875 20.1319 3.75938C17.3956 6.50938 14.6578 9.25656 11.9184 12.0009C11.8334 12.0782 11.7664 12.1733 11.7223 12.2795C11.6783 12.3856 11.6581 12.5002 11.6634 12.615C11.6766 13.6584 11.67 14.7009 11.6681 15.7444C11.6725 15.8612 11.6675 15.9781 11.6531 16.0941C11.6382 16.2357 11.5695 16.3662 11.4612 16.4586C11.3528 16.5511 11.2132 16.5984 11.0709 16.5909C10.7634 16.5797 10.5563 16.3828 10.5516 16.0444C10.5394 15.1772 10.545 14.31 10.5441 13.4428V12.9928C10.3256 13.0083 10.1063 13.0083 9.88782 12.9928C9.20814 12.8897 8.71126 12.5344 8.49376 11.8678C8.27626 11.2013 8.43751 10.6144 8.92501 10.125C10.1825 8.86375 11.4444 7.60687 12.7106 6.35437C14.3147 4.76062 15.9338 3.18 17.5191 1.5675C18.2213 0.84375 18.9535 0.196875 19.9847 0H20.8988ZM31.3285 11.3494C31.1663 11.1169 31.0678 10.9181 30.9188 10.7681C27.9488 7.78937 24.9753 4.81438 21.9985 1.84313C21.0075 0.852188 19.8066 0.857813 18.811 1.84875L12.6291 7.99406C11.6653 8.95219 10.6978 9.9075 9.73876 10.8703C9.45751 11.1516 9.45095 11.5012 9.69095 11.7478C9.93095 11.9944 10.2863 11.9775 10.5713 11.7159C10.6406 11.6531 10.7044 11.5847 10.77 11.5181L19.516 2.76281C20.1563 2.12063 20.6063 2.12063 21.2503 2.76281L29.9738 11.4872C30.0731 11.5866 30.1556 11.7356 30.2747 11.7759C30.4706 11.8425 30.7191 11.9128 30.8934 11.8453C31.0678 11.7778 31.1644 11.5462 31.3285 11.3494Z" fill="#B07FD8"/>
<path d="M8.17221 35.9999C8.04939 35.8621 7.91721 35.7318 7.80658 35.5846C5.28596 32.2365 2.76721 28.8843 0.250331 25.5281C-0.115294 25.0406 -0.0918562 24.8868 0.393769 24.5259L2.76002 22.7615C4.06502 21.7893 5.65971 22.0068 6.63471 23.3043C8.36533 25.6074 10.0916 27.9143 11.8135 30.2249C12.7847 31.5262 12.541 33.119 11.2266 34.0865C10.3528 34.7296 9.47158 35.3624 8.59408 35.9999H8.17221ZM8.50971 34.649C9.24471 34.1034 9.95064 33.5849 10.65 33.0553C11.4235 32.4721 11.5688 31.6565 10.9913 30.8765C9.23689 28.509 7.47033 26.1481 5.69158 23.7937C5.19002 23.1299 4.30221 23.0231 3.62252 23.5124C2.94283 24.0018 2.27627 24.4856 1.60408 24.9749C1.53189 25.0274 1.46721 25.0912 1.38096 25.1624L8.50971 34.649Z" fill="#662E93"/>
<path d="M24.9375 22.922C26.9137 22.4007 28.769 21.7398 30.4865 20.7245C31.1415 20.3287 31.8983 20.1341 32.6629 20.1645C33.4276 20.195 34.1664 20.4494 34.7878 20.896C35.819 21.632 35.6484 23.0373 34.8281 23.6307C33.7565 24.407 32.7244 25.2451 31.6106 25.9529C30.21 26.8435 28.7634 27.6685 27.2981 28.4513C25.6734 29.3185 23.9053 29.7329 22.0697 29.7985C19.3294 29.8923 16.5881 29.956 13.8469 30.0329C13.7425 30.036 13.6384 30.0467 13.5356 30.0648C13.2065 30.1229 12.9469 29.957 12.8794 29.6429C12.8119 29.3288 12.9731 29.0485 13.3219 29.0223C14.1037 28.9623 14.8884 28.9407 15.6731 28.9182C17.6869 28.8557 19.7012 28.8004 21.7162 28.7523C23.9944 28.6932 26.0728 27.9779 28.0509 26.8857C30.1378 25.7335 32.129 24.4482 33.9731 22.9313C34.5469 22.4626 34.5356 22.1026 33.9 21.7126C33.015 21.166 32.0812 21.1295 31.2 21.6592C29.1684 22.8779 26.9569 23.6092 24.6778 24.181C24.5102 24.2188 24.3536 24.2949 24.2203 24.4032C23.7413 24.8453 23.1134 25.091 22.4615 25.0913C21.1837 25.1007 19.9069 25.097 18.629 25.0913C18.2081 25.0913 17.94 24.8429 17.954 24.4951C17.9681 24.1473 18.1978 23.9701 18.6422 23.9682C19.5328 23.9682 20.4234 23.9682 21.314 23.9682C21.6534 23.9682 21.9975 23.9335 22.3322 23.9738C23.3428 24.0938 23.91 23.0757 23.9222 22.3126C23.9334 21.4173 23.2903 20.8126 22.3425 20.8126C21.3703 20.8126 20.3972 20.7948 19.425 20.8126C18.9204 20.833 18.4169 20.7527 17.9436 20.5764C17.4704 20.4002 17.037 20.1315 16.6687 19.786C15.705 18.9029 14.5772 18.4248 13.2637 18.4248C12.5213 18.4163 11.7894 18.6015 11.1403 18.962C9.87748 19.6745 8.71967 20.522 7.80373 21.6657C7.54123 21.9938 7.16904 22.066 6.91873 21.8532C6.66842 21.6404 6.67217 21.2738 6.94404 20.9467C8.06904 19.592 9.43498 18.5092 11.0437 17.8201C13.215 16.8957 15.2812 17.2698 17.0953 18.7576C17.8622 19.3876 18.6544 19.742 19.6547 19.6895C20.5078 19.6445 21.3647 19.6792 22.2206 19.6801C23.9859 19.6801 25.1334 20.9448 24.9675 22.7017C24.959 22.7654 24.9534 22.8207 24.9375 22.922Z" fill="#B07FD8"/>
<path d="M20.3381 14.5078C19.7175 14.5078 19.0968 14.5078 18.4762 14.5078C17.7534 14.5134 17.3972 14.8716 17.3925 15.5878C17.3925 15.9272 17.3981 16.2666 17.3925 16.6059C17.3831 16.9669 17.1628 17.2041 16.844 17.2125C16.5253 17.2209 16.2815 16.9978 16.275 16.6322C16.2618 16.1878 16.2497 15.7406 16.2806 15.2981C16.3098 14.7829 16.5349 14.2984 16.9099 13.9439C17.2848 13.5893 17.7811 13.3916 18.2972 13.3912C19.6659 13.3644 21.0356 13.3644 22.4062 13.3912C23.5884 13.4175 24.4143 14.295 24.4237 15.4734C24.4303 16.3753 24.4237 17.2772 24.4237 18.1791C24.4237 18.6028 24.1987 18.8906 23.8706 18.8991C23.5247 18.9084 23.3006 18.6244 23.2997 18.1641C23.2997 17.2866 23.2997 16.4081 23.2997 15.5297C23.2997 14.8903 22.9462 14.5219 22.3078 14.5097C21.6497 14.4984 20.9943 14.5088 20.3381 14.5078Z" fill="#662E93"/>
<path d="M29.7112 4.14099C29.7112 4.69224 29.7159 5.24255 29.7112 5.79286C29.7065 6.19505 29.474 6.46505 29.1487 6.46599C28.8234 6.46693 28.5928 6.20536 28.5862 5.79286C28.5797 4.78599 28.5862 3.77817 28.5862 2.7713C28.5862 2.2088 28.4109 2.03443 27.8578 2.03068C27.6825 2.03068 27.5062 2.03068 27.3309 2.03068C26.8903 2.03911 26.7093 2.23036 26.6681 2.6738C26.6522 2.85099 26.6222 3.08161 26.5068 3.18099C26.4283 3.2429 26.3377 3.2878 26.2409 3.31281C26.144 3.33783 26.0431 3.34242 25.9443 3.3263C25.7925 3.28786 25.6153 3.08349 25.575 2.9213C25.3434 1.9838 26.1243 0.966613 27.1003 0.913176C27.4387 0.894426 27.779 0.897238 28.1184 0.913176C28.5266 0.927675 28.9147 1.094 29.2067 1.37959C29.4987 1.66518 29.6736 2.04947 29.6972 2.45724C29.7243 3.01974 29.6972 3.58224 29.6972 4.14474L29.7112 4.14099Z" fill="#662E93"/>
</g>
<defs>
<clipPath id="clip0_157_33">
<rect width="35.5041" height="36" fill="white"/>
</clipPath>
</defs>
</svg>
