<svg width="18" height="16" viewBox="0 0 18 16" fill="none" xmlns="http://www.w3.org/2000/svg">
<g clip-path="url(#clip0_245_177)">
<path d="M17.1486 15.4682C17.0003 15.8701 16.702 16.0041 16.2863 16.0005C14.2825 15.9902 12.2791 15.9956 10.2753 15.9956C10.2144 15.998 10.1535 15.9971 10.0927 15.9929C9.89528 15.9719 9.77068 15.8361 9.77425 15.6508C9.77783 15.4655 9.90823 15.3382 10.1092 15.3279C10.165 15.3248 10.2208 15.3279 10.2767 15.3279H16.4841C15.9862 13.7801 15.494 12.251 15.001 10.7197H2.15072C1.65948 12.2474 1.16825 13.777 0.667188 15.3279H6.90052C7.22742 15.3279 7.3806 15.4333 7.38238 15.658C7.38417 15.8826 7.22563 15.9978 6.89115 15.9978C4.88155 15.9978 2.87194 15.992 0.862342 16.0027C0.446131 16.0049 0.147817 15.8732 0 15.4704V15.1667C0.178631 14.6308 0.357262 14.0918 0.535894 13.5528C0.853411 12.5725 1.16646 11.591 1.48219 10.6103C1.61617 10.1972 1.82784 10.0422 2.2579 10.0422H14.8961C15.3275 10.0422 15.5378 10.1959 15.6713 10.6103C16.1501 12.1054 16.6304 13.6004 17.1124 15.0953C17.1226 15.12 17.1347 15.1439 17.1486 15.1667V15.4682Z" fill="#662E93"/>
<path d="M8.57922 3.81554C7.51368 3.81777 6.813 2.6991 7.30335 1.75682C7.57129 1.23789 7.87586 0.736832 8.17685 0.235325C8.3662 -0.0808527 8.78465 -0.0772799 8.97533 0.24113C9.2732 0.738172 9.5733 1.23477 9.84125 1.74744C10.3347 2.69106 9.64207 3.81331 8.57922 3.81554ZM8.57475 0.875718C8.33807 1.28925 8.11165 1.66571 7.90489 2.05245C7.82284 2.20684 7.79814 2.38529 7.83518 2.55616C7.87221 2.72702 7.96858 2.87924 8.10719 2.9858C8.24045 3.08916 8.40416 3.14555 8.57281 3.1462C8.74146 3.14684 8.90559 3.09171 9.03964 2.98937C9.17871 2.88343 9.27583 2.73172 9.31383 2.56108C9.35183 2.39044 9.32826 2.21186 9.2473 2.05692C9.03964 1.66884 8.81233 1.29193 8.57431 0.875718H8.57475Z" fill="#B07FD8"/>
<path d="M8.56359 8.97315C7.50922 8.96868 6.81613 7.85179 7.30245 6.91532C7.5704 6.39684 7.87541 5.89578 8.17596 5.39383C8.36531 5.0772 8.7842 5.07899 8.97444 5.3974C9.27231 5.89399 9.57241 6.39104 9.8408 6.90371C10.3383 7.85447 9.63761 8.97717 8.56359 8.97315ZM8.57431 6.03422C8.33316 6.45624 8.09915 6.84119 7.89015 7.23998C7.72715 7.55259 7.83701 7.94245 8.11657 8.15502C8.2518 8.25583 8.41657 8.30909 8.58522 8.3065C8.75388 8.30392 8.91694 8.24564 9.04902 8.14073C9.18412 8.03424 9.27785 7.88396 9.31404 7.71578C9.35023 7.54761 9.32663 7.37208 9.2473 7.21944C9.04098 6.82868 8.81367 6.45132 8.57431 6.03422Z" fill="#B07FD8"/>
<path d="M5.28882 6.52546C4.2282 6.52546 3.52797 5.39651 4.0192 4.45736C4.28715 3.94424 4.5877 3.44765 4.88467 2.95016C5.07938 2.62371 5.49738 2.62371 5.69208 2.95016C5.98638 3.44139 6.28291 3.93486 6.55085 4.44173C7.05281 5.38847 6.35749 6.52546 5.28882 6.52546ZM5.28882 3.57179C5.03785 4.02105 4.79044 4.42387 4.58412 4.84678C4.44167 5.13884 4.56849 5.49967 4.8284 5.6984C4.95769 5.79793 5.11578 5.85282 5.27892 5.85483C5.44207 5.85684 5.60147 5.80587 5.73317 5.70957C6.00112 5.51128 6.13509 5.14554 5.99263 4.84767C5.78765 4.42297 5.54025 4.01971 5.28972 3.57046L5.28882 3.57179Z" fill="#B07FD8"/>
<path d="M11.8593 6.52546C10.8072 6.52546 10.1029 5.40901 10.5839 4.4712C10.8518 3.94647 11.1609 3.44094 11.4645 2.93452C11.5039 2.86434 11.5612 2.8059 11.6306 2.76523C11.7001 2.72456 11.7791 2.70312 11.8595 2.70312C11.94 2.70312 12.019 2.72456 12.0884 2.76523C12.1579 2.8059 12.2152 2.86434 12.2545 2.93452C12.5591 3.44005 12.8672 3.94558 13.1352 4.47075C13.6144 5.41214 12.9128 6.52546 11.8593 6.52546ZM11.8593 3.5843C11.6262 3.9889 11.4034 4.36089 11.1953 4.74049C11.1108 4.89307 11.0825 5.07038 11.1151 5.24167C11.1477 5.41297 11.2393 5.56744 11.3739 5.6783C11.5081 5.79002 11.677 5.85175 11.8516 5.85297C12.0263 5.8542 12.196 5.79483 12.3318 5.685C12.469 5.57621 12.5634 5.42256 12.5985 5.25105C12.6336 5.07953 12.6072 4.90113 12.5238 4.74718C12.3202 4.36715 12.096 3.99425 11.8602 3.58296L11.8593 3.5843Z" fill="#B07FD8"/>
<path d="M3.68158 11.406C3.79322 11.406 3.90487 11.4011 4.01606 11.406C4.46264 11.4287 4.76721 11.8316 4.63815 12.2589C4.44389 12.9038 4.23355 13.5437 4.0183 14.1819C3.92139 14.4704 3.69899 14.6178 3.39577 14.6285C3.17248 14.6365 2.94919 14.6356 2.7259 14.6285C2.28289 14.6155 1.96672 14.2051 2.0931 13.78C2.28825 13.1293 2.49904 12.4849 2.71831 11.8409C2.8103 11.5694 3.02109 11.4198 3.31315 11.4046C3.43551 11.3984 3.55832 11.4046 3.68113 11.4046L3.68158 11.406ZM3.99775 12.0758C3.78786 12.0758 3.59941 12.0705 3.4114 12.0808C3.37522 12.083 3.32744 12.1428 3.31136 12.1857C3.25152 12.3474 3.20195 12.5126 3.14881 12.6769C3.01484 13.0994 2.87774 13.5219 2.73572 13.9635C2.92731 13.9635 3.09924 13.9577 3.27162 13.9658C3.36897 13.9702 3.40559 13.9314 3.43283 13.8425C3.51232 13.5746 3.60119 13.3129 3.68649 13.048C3.78742 12.7301 3.88879 12.4135 3.99775 12.0749V12.0758Z" fill="#B07FD8"/>
<path d="M13.4867 11.4061C14.224 11.4061 14.3164 11.4722 14.5437 12.1782C14.704 12.6762 14.8662 13.1737 15.0256 13.672C15.2011 14.2213 14.9001 14.6304 14.3213 14.6317C14.1315 14.6317 13.9417 14.6371 13.7524 14.6317C13.4563 14.6206 13.2326 14.4786 13.137 14.1986C12.9137 13.551 12.7007 12.9004 12.5073 12.2439C12.3836 11.825 12.6958 11.4302 13.1352 11.4088C13.2509 11.4012 13.3683 11.4061 13.4867 11.4061ZM14.4142 13.9619C14.2159 13.3456 14.0252 12.7481 13.8292 12.1519C13.8212 12.1335 13.8089 12.1172 13.7934 12.1045C13.7778 12.0918 13.7595 12.0829 13.7399 12.0787C13.5519 12.0715 13.3634 12.0751 13.154 12.0751C13.3531 12.6949 13.5438 13.2924 13.7399 13.8886C13.7485 13.9068 13.7614 13.9226 13.7774 13.9347C13.7934 13.9468 13.8121 13.9549 13.8319 13.9583C14.0163 13.965 14.2048 13.9619 14.4129 13.9619H14.4142Z" fill="#B07FD8"/>
<path d="M10.2266 11.4083C10.3548 11.4083 10.4834 11.4011 10.6111 11.4083C10.7601 11.4164 10.9018 11.4756 11.0122 11.576C11.1226 11.6764 11.195 11.8118 11.2171 11.9594C11.302 12.5886 11.3846 13.2187 11.4502 13.8497C11.4994 14.32 11.2042 14.6277 10.7317 14.6303C10.5254 14.6303 10.3191 14.6335 10.1132 14.6303C9.94704 14.6323 9.78615 14.572 9.66219 14.4614C9.53823 14.3507 9.46015 14.1977 9.44333 14.0324C9.36622 13.4304 9.29089 12.8279 9.21736 12.2251C9.15707 11.7307 9.44377 11.4083 9.94349 11.4038H10.2266V11.4083ZM9.87472 12.0746C9.95377 12.7167 10.0297 13.3344 10.1056 13.9502H10.7889C10.7161 13.3491 10.6469 12.7623 10.5705 12.1764C10.5629 12.1533 10.5496 12.1324 10.5319 12.1157C10.5142 12.099 10.4926 12.087 10.4691 12.0808C10.2816 12.0697 10.0927 12.0746 9.87561 12.0746H9.87472Z" fill="#B07FD8"/>
<path d="M6.69331 14.6316C6.59283 14.6316 6.49235 14.6316 6.39232 14.6316C5.95155 14.6262 5.65547 14.319 5.6961 13.8778C5.74076 13.3731 5.81445 12.8712 5.87474 12.3679C5.89081 12.2339 5.906 12.1026 5.92654 11.9704C5.94793 11.8201 6.02101 11.6818 6.13322 11.5795C6.24543 11.4771 6.38978 11.417 6.54148 11.4095C6.76968 11.3984 6.99877 11.4024 7.22697 11.4051C7.69543 11.4104 7.98169 11.7302 7.93167 12.1991C7.89059 12.5867 7.83789 12.973 7.79011 13.3602C7.76197 13.587 7.73429 13.8135 7.70347 14.0399C7.68432 14.202 7.60664 14.3515 7.48502 14.4604C7.3634 14.5693 7.20621 14.63 7.04298 14.6311C6.92732 14.6338 6.81032 14.6311 6.69331 14.6316ZM7.04209 13.9541C7.1189 13.3253 7.19437 12.71 7.27253 12.074C7.07648 12.074 6.89963 12.0798 6.72323 12.0718C6.61605 12.0673 6.5772 12.1071 6.56649 12.2116C6.54014 12.4768 6.50262 12.7412 6.47092 13.006C6.4334 13.3186 6.39723 13.6313 6.35927 13.9541H7.04209Z" fill="#B07FD8"/>
<path d="M8.57431 15.3283C8.66118 15.3273 8.74489 15.3608 8.80715 15.4214C8.86941 15.482 8.90516 15.5647 8.90657 15.6516C8.90603 15.7404 8.87024 15.8254 8.80705 15.8878C8.74386 15.9503 8.65845 15.9851 8.56962 15.9845C8.48079 15.984 8.39581 15.9482 8.33338 15.885C8.27094 15.8218 8.23617 15.7364 8.2367 15.6476C8.2378 15.6044 8.24741 15.5619 8.265 15.5225C8.28258 15.483 8.30778 15.4474 8.33915 15.4178C8.37052 15.3881 8.40745 15.3649 8.4478 15.3496C8.48816 15.3342 8.53115 15.327 8.57431 15.3283Z" fill="#662E93"/>
</g>
<defs>
<clipPath id="clip0_245_177">
<rect width="17.1486" height="16" fill="white"/>
</clipPath>
</defs>
</svg>
