<svg width="16" height="16" viewBox="0 0 16 16" fill="none" xmlns="http://www.w3.org/2000/svg">
<g clip-path="url(#clip0_245_167)">
<path d="M10.4688 16.0001C10.2672 15.9095 10.0469 15.846 9.86813 15.7223C9.52844 15.487 9.35407 15.1417 9.34032 14.7254C9.3325 14.492 9.33875 14.2567 9.33875 14.0001H9.16157C8.51052 14.0001 7.85948 14.0001 7.20844 14.0001C6.14094 13.9979 5.34344 13.2038 5.33625 12.1363C5.33438 11.8238 5.33375 11.5113 5.33625 11.1988C5.33875 10.8863 5.54594 10.6676 5.82875 10.6654C6.11157 10.6632 6.32875 10.8876 6.33375 11.1917C6.33969 11.5042 6.33375 11.8167 6.33594 12.1292C6.34063 12.6529 6.6875 12.9985 7.21094 13.0001C7.86719 13.0001 8.52344 13.0001 9.17969 13.0001C9.22532 13.0001 9.27125 12.996 9.33594 12.9932V12.7876C9.33594 9.44406 9.33594 6.10031 9.33594 2.75635C9.33594 2.04604 9.66969 1.58791 10.3413 1.3676C10.5684 1.29291 10.7944 1.21447 11.0206 1.13791C11.1321 1.10502 11.2391 1.05863 11.3394 0.999785H11.2125C9.88938 0.999785 8.56646 0.999785 7.24375 0.999785C6.67782 0.999785 6.3375 1.33697 6.33594 1.9001C6.33594 2.20729 6.34 2.51479 6.33344 2.82197C6.32875 3.05791 6.1875 3.24572 5.98469 3.30854C5.8875 3.34069 5.78264 3.3413 5.68509 3.31026C5.58754 3.27922 5.5023 3.21813 5.44157 3.13572C5.39438 3.07072 5.34782 2.98697 5.34594 2.91104C5.34 2.46354 5.30907 2.01135 5.35907 1.56916C5.44688 0.78791 6.06125 0.17791 6.83407 0.0297852C6.86897 0.0211905 6.90339 0.0107593 6.93719 -0.00146484H14.8438C15.0625 0.0994727 15.2981 0.176035 15.4972 0.307285C15.7825 0.494785 15.91 0.803223 16 1.12354V13.5313C15.8522 14.1876 15.4103 14.5154 14.7894 14.7095C13.4769 15.1188 12.1791 15.5676 10.875 16.0001H10.4688ZM10.3359 8.65978C10.3359 10.6285 10.3428 12.5973 10.3294 14.566C10.3272 14.906 10.595 15.056 10.8756 14.9598C12.1397 14.5273 13.4091 14.1101 14.6766 13.6873C14.9325 13.602 15 13.5098 15 13.2429V1.43041C15 1.06822 14.8081 0.93041 14.4631 1.04541C13.2056 1.4652 11.9484 1.88541 10.6916 2.30604C10.3759 2.41166 10.3359 2.46822 10.3359 2.80072V8.65978Z" fill="#B07FD8"/>
<path d="M0 6.87495C0.12125 6.58933 0.337813 6.4937 0.644375 6.49558C2.23813 6.50495 3.83187 6.49995 5.42562 6.49995H5.61969C5.56313 6.43902 5.53 6.4012 5.49469 6.36589C4.99469 5.86589 4.49156 5.36589 3.9925 4.86308C3.83062 4.69995 3.7925 4.47777 3.88062 4.28839C3.96875 4.09902 4.17125 3.96902 4.37531 4.00714C4.50141 4.03128 4.61834 4.08991 4.71313 4.17651C5.54125 4.99089 6.36417 5.81037 7.18188 6.63495C7.39656 6.85027 7.39875 7.1437 7.18406 7.35901C6.36031 8.18526 5.53469 9.00943 4.70719 9.83151C4.48844 10.0503 4.18344 10.0537 3.98187 9.85183C3.78031 9.64995 3.78781 9.33964 4.01125 9.11495C4.50375 8.62162 4.99708 8.12839 5.49125 7.63526C5.52688 7.59964 5.56063 7.56183 5.61875 7.49995H5.42625C3.8325 7.49995 2.23875 7.49464 0.645 7.50433C0.338125 7.5062 0.122813 7.40902 0 7.12495V6.87495Z" fill="#662E93"/>
</g>
<defs>
<clipPath id="clip0_245_167">
<rect width="16" height="16" fill="white"/>
</clipPath>
</defs>
</svg>
