<svg width="35" height="36" viewBox="0 0 35 36" fill="none" xmlns="http://www.w3.org/2000/svg">
<g clip-path="url(#clip0_116_155)">
<path d="M26.7016 28.9896V31.1128C26.7016 32.6145 25.9125 33.5026 24.3797 33.6916C24.3797 34.2035 24.3797 34.7202 24.3797 35.237C24.3797 35.8022 24.1858 35.9932 23.6129 35.9951C23.1417 35.9951 22.6695 35.9854 22.1984 35.9951C22.0473 36.01 21.8955 35.9754 21.7657 35.8965C21.636 35.8177 21.5354 35.6988 21.479 35.5579C21.2134 35.0024 20.9245 34.4575 20.6608 33.901C20.6319 33.8239 20.578 33.7587 20.5077 33.7159C20.4374 33.673 20.3547 33.6549 20.273 33.6645C16.8261 33.6716 13.3793 33.6716 9.93241 33.6645C9.723 33.6645 9.60666 33.7226 9.51553 33.9165C9.25861 34.4633 8.97067 34.9956 8.71376 35.5414C8.55961 35.8681 8.32596 36.0058 7.96822 35.9951C7.48348 35.9806 6.99874 35.9951 6.51399 35.9903C6.01277 35.9903 5.80626 35.7838 5.80239 35.2884C5.80239 34.758 5.80239 34.2277 5.80239 33.7856C5.32637 33.5917 4.87265 33.4812 4.49649 33.2447C3.82851 32.8268 3.49888 32.1714 3.48434 31.3813C3.4698 30.5912 3.48434 29.8107 3.48434 29.0429C3.04613 28.882 2.6118 28.7656 2.22401 28.5717C0.523525 27.7341 -0.346106 25.767 0.145424 23.924C0.380305 23.0237 0.917895 22.2317 1.66787 21.6811C2.41784 21.1304 3.33448 20.8547 4.26379 20.9002C5.19309 20.9456 6.07843 21.3096 6.77103 21.9309C7.46363 22.5522 7.92129 23.3929 8.06711 24.3118C8.10767 24.5986 8.1284 24.8879 8.12916 25.1776C8.13885 25.7593 8.12916 26.3351 8.12916 26.9585C10.4307 26.3613 12.742 26.1189 15.0794 26.1189C17.4169 26.1189 19.733 26.3516 22.0597 26.9605C22.0597 26.3303 22.0151 25.7292 22.0723 25.1388C22.1295 24.5484 22.1993 23.924 22.4214 23.3801C22.774 22.515 23.4184 21.8007 24.2429 21.3613C25.0673 20.9219 26.0196 20.7852 26.9343 20.9748C27.8481 21.164 28.6694 21.6606 29.2613 22.382C29.8532 23.1034 30.1799 24.0059 30.187 24.9391C30.1947 26.8693 28.8529 28.5194 26.9324 28.9392C26.8703 28.9595 26.8112 28.9692 26.7016 28.9896ZM6.96189 27.3114C6.96189 26.5358 6.96965 25.7486 6.96189 24.9643C6.94251 23.3636 5.68508 22.0849 4.12323 22.0645C2.53812 22.0442 1.21477 23.2861 1.16145 24.8421C1.13152 25.6115 1.40793 26.3614 1.93006 26.9274C2.4522 27.4933 3.17745 27.8291 3.94679 27.8611C4.44995 27.8902 4.63803 28.0821 4.639 28.5863C4.639 29.4695 4.639 30.3517 4.639 31.2349C4.639 32.0251 5.11405 32.5079 5.89934 32.5079C12.0291 32.5079 18.1592 32.5079 24.2896 32.5079C25.0584 32.5079 25.5353 32.0299 25.5402 31.264C25.545 30.3915 25.5402 29.5189 25.5402 28.6522C25.5402 28.0705 25.7031 27.8941 26.2751 27.8601C26.9967 27.8088 27.6733 27.4903 28.1727 26.967C28.6722 26.4436 28.9586 25.7529 28.9762 25.0296C28.9938 24.3064 28.7412 23.6026 28.2677 23.0556C27.7942 22.5086 27.1339 22.1576 26.4156 22.0713C24.9546 21.9075 23.512 22.9487 23.2997 24.4437C23.1708 25.3463 23.2328 26.276 23.2289 27.1931C23.2289 27.2678 23.3608 27.3705 23.4539 27.4122C23.8465 27.5877 24.2479 27.7457 24.6686 27.9193C24.5542 28.1258 24.4689 28.2828 24.3778 28.4389C24.2866 28.595 24.1916 28.7685 24.1373 28.8636C18.0732 26.7307 12.0818 26.7258 6.03506 28.8636L5.50475 27.9183L6.96189 27.3114ZM6.97741 34.8337C7.14561 34.8441 7.3143 34.8441 7.48251 34.8337C7.59982 34.8181 7.77336 34.791 7.81601 34.7115C8.00409 34.3955 8.15339 34.0571 8.32887 33.7032H6.97838L6.97741 34.8337ZM23.2047 33.6955H21.8474C22.0248 34.0503 22.178 34.3741 22.3486 34.6863C22.3728 34.7234 22.4044 34.7551 22.4414 34.7793C22.4785 34.8035 22.5202 34.8197 22.5639 34.8269C22.7733 34.8463 22.9856 34.8337 23.2037 34.8337L23.2047 33.6955Z" fill="#B07FD8"/>
<path d="M32.5069 33.7072C32.5069 34.221 32.5069 34.7397 32.5069 35.2583C32.5069 35.7974 32.3033 35.9932 31.7556 35.9961C31.2708 35.9961 30.7861 35.9884 30.3013 35.9961C30.1561 36.0094 30.0104 35.9756 29.8859 35.8996C29.7614 35.8237 29.6647 35.7096 29.6101 35.5744C29.3415 35.0198 29.0536 34.475 28.7928 33.9175C28.7638 33.8332 28.706 33.7618 28.6296 33.7159C28.5532 33.67 28.463 33.6525 28.375 33.6664C28.0259 33.6829 27.6769 33.6713 27.3037 33.6713V32.5147H32.345C33.2098 32.5147 33.6674 32.0581 33.6674 31.1952C33.6674 21.6296 33.6674 12.064 33.6674 2.49837C33.6674 1.63067 33.2117 1.16823 32.3566 1.16823C30.0105 1.16823 27.664 1.16823 25.3172 1.16823H24.9721V13.3256H23.8087V1.16144H23.3811C21.1077 1.16144 18.8333 1.1915 16.5598 1.14787C15.5661 1.12945 14.9873 1.73926 15.092 2.62731C15.0965 2.70933 15.0965 2.79153 15.092 2.87356H13.9771C13.6368 1.39024 14.7478 0.00387088 16.3039 0.00290139C21.6852 -0.00226921 27.0674 -0.00226921 32.4507 0.00290139C32.6437 0.00384992 32.8361 0.0252993 33.0246 0.066888C33.5181 0.178054 33.9612 0.448407 34.2859 0.836285C34.6105 1.22416 34.7986 1.70804 34.8211 2.21334C34.8279 2.37039 34.8211 2.52745 34.8211 2.68548C34.8211 12.0944 34.8075 21.5042 34.8376 30.9141C34.8502 32.2238 34.2995 33.4842 32.5069 33.7072ZM29.995 33.6887C30.66 35.0654 30.3585 34.8521 31.3271 34.7988V33.6887H29.995Z" fill="#B07FD8"/>
<path d="M9.28674 4.06407V2.92395H10.4269V4.06407H14.84C15.476 4.06407 15.6301 4.20561 15.6825 4.82803C15.8667 6.9958 16.0512 9.16325 16.236 11.3304C16.2903 11.9702 16.0896 12.1913 15.443 12.1913H10.4569V13.3256H9.29353V12.1913H8.86501C7.31771 12.1913 5.77008 12.1913 4.22213 12.1913C3.66953 12.1913 3.44654 11.9586 3.49308 11.4089C3.67922 9.15647 3.86924 6.90467 4.06314 4.65352C4.09707 4.25603 4.31617 4.06698 4.74178 4.06601C6.10779 4.06601 7.4738 4.06601 8.8398 4.06601L9.28674 4.06407ZM4.6933 11.0095H15.0368C14.8768 9.07729 14.7178 7.16934 14.5578 5.24588H5.1732C5.01227 7.17128 4.85424 9.07923 4.6933 11.0095Z" fill="#662E93"/>
<path d="M4.60992 19.7242H3.50373C3.50373 18.6364 3.42714 17.5574 3.52409 16.4938C3.62976 15.3305 4.63318 14.519 5.80142 14.5171C11.9932 14.5119 18.1857 14.5119 24.3787 14.5171C24.6823 14.5146 24.9834 14.5723 25.2646 14.6868C25.5458 14.8012 25.8015 14.9702 26.0171 15.184C26.2327 15.3978 26.4038 15.6521 26.5206 15.9323C26.6374 16.2125 26.6976 16.5131 26.6978 16.8167C26.7113 17.7232 26.6978 18.6306 26.6978 19.5371C26.6978 19.5855 26.6919 19.634 26.6871 19.7096H25.5402V18.173C25.5402 17.7493 25.5402 17.3257 25.5402 16.903C25.5315 16.1633 25.0487 15.6785 24.308 15.6775C22.1428 15.6737 19.9776 15.6737 17.8124 15.6775H6.01955C5.08206 15.6775 4.64191 16.1167 4.63997 17.0494C4.63997 17.9083 4.63997 18.767 4.63997 19.6253C4.633 19.6591 4.62294 19.6922 4.60992 19.7242Z" fill="#B07FD8"/>
<path d="M12.7449 19.1523H11.6368V18.0248H12.7449V19.1523Z" fill="#662E93"/>
<path d="M18.556 19.1455H17.4362V18.0179H18.556V19.1455Z" fill="#662E93"/>
<path d="M9.84613 22.0442H8.72928V20.9235H9.84613V22.0442Z" fill="#662E93"/>
<path d="M14.5404 20.9158H15.6543V22.0443H14.5404V20.9158Z" fill="#662E93"/>
<path d="M21.4499 22.0443H20.336V20.9187H21.4499V22.0443Z" fill="#662E93"/>
<path d="M11.6232 24.946V23.8291H12.7459V24.946H11.6232Z" fill="#662E93"/>
<path d="M18.5482 24.9526H17.4314V23.8319H18.5482V24.9526Z" fill="#662E93"/>
<path d="M2.32484 24.9429C2.32916 24.5982 2.43583 24.2626 2.6313 23.9786C2.82677 23.6946 3.10223 23.4751 3.4227 23.348C3.74316 23.2209 4.09417 23.1919 4.43116 23.2647C4.76814 23.3374 5.07589 23.5087 5.31533 23.7568C5.55476 24.0048 5.71508 24.3184 5.77593 24.6578C5.83677 24.9971 5.7954 25.3469 5.65705 25.6627C5.51871 25.9784 5.28965 26.246 4.99894 26.4313C4.70824 26.6166 4.36902 26.7114 4.02435 26.7035C3.56678 26.6916 3.13221 26.5004 2.8143 26.171C2.4964 25.8417 2.32062 25.4007 2.32484 24.9429ZM4.64095 24.9652C4.64189 24.8495 4.60828 24.7361 4.54442 24.6396C4.48056 24.543 4.38936 24.4678 4.28248 24.4233C4.17559 24.3789 4.05789 24.3674 3.94442 24.3903C3.83096 24.4131 3.72689 24.4693 3.64553 24.5516C3.56417 24.634 3.50922 24.7387 3.48771 24.8524C3.46621 24.9661 3.47911 25.0837 3.52479 25.1901C3.57046 25.2964 3.64682 25.3867 3.74411 25.4494C3.84139 25.5121 3.95517 25.5444 4.07089 25.5421C4.22162 25.5381 4.36491 25.4757 4.47054 25.3681C4.57616 25.2605 4.63587 25.116 4.63707 24.9652H4.64095Z" fill="#662E93"/>
<path d="M27.8611 24.9691C27.8601 25.3141 27.7566 25.651 27.5637 25.9371C27.3708 26.2231 27.0973 26.4454 26.7778 26.5756C26.4583 26.7058 26.1073 26.7382 25.7694 26.6685C25.4315 26.5988 25.122 26.4302 24.8801 26.1843C24.6382 25.9383 24.4749 25.6259 24.4109 25.2869C24.3469 24.9479 24.3851 24.5975 24.5207 24.2802C24.6563 23.963 24.8831 23.6932 25.1723 23.5051C25.4616 23.3171 25.8002 23.2192 26.1451 23.224C26.6029 23.2317 27.0393 23.4189 27.3603 23.7453C27.6813 24.0718 27.8612 24.5113 27.8611 24.9691ZM26.6977 24.9604C26.6977 24.8447 26.6632 24.7316 26.5985 24.6357C26.5339 24.5397 26.4421 24.4652 26.3349 24.4217C26.2277 24.3781 26.11 24.3675 25.9967 24.3913C25.8835 24.415 25.7799 24.472 25.6992 24.5549C25.6185 24.6378 25.5644 24.7429 25.5437 24.8567C25.5231 24.9706 25.5368 25.088 25.5832 25.194C25.6296 25.2999 25.7066 25.3897 25.8043 25.4517C25.902 25.5137 26.0159 25.5452 26.1316 25.5421C26.2833 25.5383 26.4276 25.4753 26.5335 25.3667C26.6395 25.258 26.6988 25.1122 26.6987 24.9604H26.6977Z" fill="#662E93"/>
</g>
<defs>
<clipPath id="clip0_116_155">
<rect width="34.8453" height="36" fill="white"/>
</clipPath>
</defs>
</svg>
