<svg width="43" height="36" viewBox="0 0 43 36" fill="none" xmlns="http://www.w3.org/2000/svg">
<g clip-path="url(#clip0_158_42)">
<path d="M2.36357e-05 4.62307C0.182635 3.78652 0.424947 2.97193 0.936786 2.26894C2.01226 0.790031 3.4635 0.00619963 5.29576 0.00444216C13.9991 -0.00375937 22.7021 -0.00375937 31.4048 0.00444216C31.5971 0.000421212 31.7894 0.0118816 31.9799 0.0387128C33.5751 0.302333 34.6137 1.5185 34.6269 3.17843C34.6409 4.88581 34.6269 6.59232 34.6269 8.29882V8.81112H35.0966C36.0316 8.81112 36.9666 8.81112 37.9016 8.81112C38.7795 8.81112 39.0491 9.08441 39.0491 9.97808C39.0491 11.9464 39.0491 13.9145 39.0491 15.8823V16.4306H39.603C42.4414 16.4192 42.2474 16.2074 42.2369 19.0888C42.2298 21.718 42.2369 24.3463 42.2369 26.9754C42.2369 27.8261 41.9533 28.1081 41.0955 28.1099C40.4511 28.1099 39.8076 28.1099 39.1246 28.1099C39.1167 28.2856 39.1052 28.4333 39.1044 28.5783C39.1044 30.6872 39.1044 32.7933 39.1044 34.8964C39.1044 35.6872 38.7909 36 38.0087 36C27.0912 36 16.1755 36 5.26152 36C2.68038 36 0.533811 34.1705 0.0746484 31.6196C0.0549299 31.5406 0.0297004 31.463 -0.000854492 31.3876L2.36357e-05 4.62307ZM37.2809 16.428V10.5598H36.7208C26.3125 10.5598 15.9045 10.5598 5.49681 10.5598C4.18692 10.5598 3.00346 10.2171 1.97012 9.39548C1.89834 9.35164 1.82248 9.31485 1.74361 9.28564V9.53344C1.74361 16.5668 1.74361 23.6002 1.74361 30.6336C1.74361 32.7645 3.27825 34.2426 5.45993 34.2426C15.9367 34.2426 26.4134 34.2426 36.8902 34.2426H37.3415V28.1266H36.8366C35.4205 28.1266 34.0044 28.1345 32.5883 28.1266C29.8386 28.1073 27.9896 26.2443 27.9835 23.4983C27.9835 22.645 27.9773 21.7909 27.9835 20.9377C28.0054 18.3181 29.8834 16.4403 32.4917 16.4306C33.9351 16.4245 35.3784 16.4306 36.8226 16.4306L37.2809 16.428ZM32.8218 8.81112C32.8422 8.74364 32.8569 8.67456 32.8657 8.60462C32.8657 6.74785 32.8842 4.89021 32.8473 3.03344C32.8411 2.725 32.6462 2.37966 32.4452 2.12659C32.1607 1.76718 31.7104 1.74873 31.2723 1.74873C22.6965 1.74873 14.122 1.74873 5.54861 1.74873C5.41165 1.74873 5.27381 1.74873 5.13685 1.75576C2.98502 1.87791 1.47409 3.71446 1.79541 5.80848C2.07547 7.63449 3.51793 8.81112 5.49681 8.81112C14.4582 8.81112 23.4194 8.81112 32.3802 8.81112H32.8218ZM40.4678 18.1749H40.0692C37.5525 18.1749 35.0357 18.1749 32.5189 18.1749C30.8605 18.1749 29.7464 19.2786 29.728 20.935C29.7183 21.7892 29.7236 22.6424 29.728 23.4957C29.7332 25.2707 30.8131 26.3559 32.5769 26.3577C35.0661 26.3577 37.5536 26.3577 40.0394 26.3577H40.4643L40.4678 18.1749Z" fill="#B07FD8"/>
<path d="M26.0941 22.3672C26.0997 25.0837 25.0269 27.6911 23.1118 29.6159C22.1635 30.569 21.0369 31.3258 19.7964 31.8431C18.5559 32.3604 17.2258 32.628 15.8819 32.6308C13.1679 32.6364 10.5628 31.5627 8.63975 29.6458C6.71669 27.7289 5.63319 25.1259 5.6276 22.4094C5.60302 16.7714 10.1929 12.1493 15.8231 12.1361C17.1694 12.1302 18.5037 12.3904 19.7493 12.9019C20.9949 13.4134 22.1273 14.166 23.0816 15.1166C24.0359 16.0671 24.7932 17.197 25.3102 18.4412C25.8272 19.6855 26.0936 21.0196 26.0941 22.3672ZM7.38524 22.39C7.3908 24.6386 8.28544 26.7935 9.87362 28.3837C11.4618 29.974 13.6144 30.8704 15.8609 30.8769C20.5421 30.8821 24.3506 27.0596 24.3462 22.361C24.3449 21.244 24.1235 20.1382 23.6945 19.107C23.2656 18.0758 22.6376 17.1395 21.8465 16.3516C21.0554 15.5637 20.1168 14.9398 19.0844 14.5156C18.052 14.0914 16.9461 13.8752 15.8301 13.8795C11.1665 13.8944 7.3747 17.7134 7.38524 22.39Z" fill="#662E93"/>
<path d="M17.3288 4.40246C20.9289 4.40246 24.5285 4.40246 28.1275 4.40246C28.3195 4.39644 28.5117 4.41088 28.7008 4.44551C28.8911 4.48493 29.0617 4.58948 29.1833 4.7412C29.3049 4.89291 29.3699 5.08231 29.3671 5.2768C29.3708 5.47103 29.3074 5.66059 29.1878 5.81359C29.0682 5.96659 28.8996 6.07369 28.7104 6.11687C28.5627 6.14865 28.4119 6.16339 28.2609 6.1608C20.9629 6.1608 13.6649 6.1608 6.36683 6.1608C5.66886 6.1608 5.28257 5.86379 5.25887 5.32601C5.24096 5.118 5.30191 4.91086 5.4296 4.74577C5.55729 4.58068 5.74237 4.46973 5.94805 4.43497C6.12421 4.4068 6.30264 4.39533 6.48096 4.4007C10.0981 4.40128 13.714 4.40187 17.3288 4.40246Z" fill="#662E93"/>
<path d="M34.0992 22.2874C34.0992 22.7672 34.1106 23.2478 34.0992 23.7276C34.0816 24.2549 33.741 24.5984 33.2608 24.6116C33.1436 24.6168 33.0267 24.5979 32.9171 24.5562C32.8075 24.5144 32.7077 24.4507 32.6236 24.3689C32.5396 24.2871 32.4731 24.1889 32.4284 24.0804C32.3837 23.972 32.3616 23.8555 32.3635 23.7382C32.3436 22.7645 32.3436 21.7903 32.3635 20.8155C32.3611 20.698 32.3824 20.5813 32.4262 20.4723C32.4699 20.3633 32.5351 20.2642 32.618 20.1811C32.7009 20.0979 32.7996 20.0323 32.9084 19.9882C33.0172 19.9441 33.1337 19.9224 33.2511 19.9244C33.734 19.9332 34.0869 20.3058 34.1009 20.8471C34.1097 21.3269 34.0992 21.8067 34.0992 22.2874Z" fill="#662E93"/>
<path d="M16.2998 19.1625C15.8363 18.3259 15.1936 17.9525 14.3438 17.9323C13.7292 17.9191 13.1068 17.9323 12.4878 17.927C11.9075 17.92 11.544 17.5834 11.5405 17.0667C11.537 16.55 11.9101 16.188 12.4738 16.188C14.7424 16.1821 17.011 16.1821 19.2796 16.188C19.8291 16.188 20.2207 16.5834 20.2058 17.0817C20.1917 17.5658 19.8125 17.9173 19.2743 17.9261C18.7528 17.9349 18.2313 17.9261 17.6685 17.9261C17.8239 18.3286 17.9547 18.6968 18.1154 19.0509C18.1453 19.1168 18.2954 19.1528 18.3911 19.1572C18.6931 19.1713 18.9969 19.1572 19.298 19.166C19.8327 19.1906 20.2067 19.5597 20.2067 20.0448C20.2067 20.5298 19.8239 20.9551 19.2989 20.8962C18.4912 20.8084 18.0803 21.0509 17.7353 21.8523C17.1918 23.1115 16.054 23.7223 14.6458 23.898C14.7511 24.0122 14.8258 24.1027 14.9092 24.1827C15.917 25.1388 16.9284 26.0887 17.931 27.0527C18.3121 27.42 18.3279 27.9156 18.0109 28.2732C17.6817 28.6449 17.1681 28.6722 16.7555 28.3374C16.6677 28.268 16.5922 28.1897 16.5123 28.1142L12.5545 24.3708C12.3052 24.1344 12.0515 23.9015 11.8056 23.6616C11.6764 23.5453 11.5862 23.3919 11.5474 23.2223C11.5086 23.0528 11.5231 22.8754 11.5888 22.7143C11.7258 22.3418 12.0199 22.1476 12.4149 22.1405C13.0883 22.1291 13.7626 22.1502 14.4342 22.13C15.256 22.1054 15.8521 21.7056 16.2823 20.934C16.0979 20.9235 15.9688 20.9103 15.8433 20.9094C14.7432 20.9094 13.6484 20.9094 12.544 20.9094C11.9294 20.9094 11.5537 20.579 11.5475 20.0535C11.5414 19.5281 11.9321 19.1678 12.5607 19.166C13.7836 19.1599 14.9987 19.1625 16.2998 19.1625Z" fill="#B07FD8"/>
</g>
<defs>
<clipPath id="clip0_158_42">
<rect width="42.25" height="36" fill="white"/>
</clipPath>
</defs>
</svg>
