<svg width="16" height="15" viewBox="0 0 16 15" fill="none" xmlns="http://www.w3.org/2000/svg">
<g clip-path="url(#clip0_220_293)">
<path d="M0.00133514 4.54846H0.530018V12.2601H1.33415V12.0824C1.33415 9.21094 1.33415 6.33947 1.33415 3.46799C1.33415 3.07037 1.20398 2.94109 0.805022 2.94064H0.538459V3.99801H0.00133514V3.62615C0.00133514 3.32627 0.00133514 3.02639 0.00133514 2.7265C0.00133514 2.50703 0.0977422 2.41062 0.314547 2.40796C0.498031 2.40796 0.681515 2.40796 0.864555 2.40796C1.39324 2.40796 1.73488 2.67941 1.85484 3.18988C1.86106 3.21653 1.86683 3.24275 1.86728 3.24586C2.1294 3.23297 2.38085 3.20854 2.63231 3.2112C2.85387 3.21295 3.06728 3.29494 3.23302 3.44197C3.39876 3.58901 3.50559 3.79113 3.53374 4.01089C3.65769 4.96297 3.7812 5.91504 3.89138 6.86845C3.91404 7.0617 3.87849 7.26163 3.86916 7.46288H4.53557C4.53557 7.3838 4.53557 7.31272 4.53557 7.24075C4.5409 7.04171 4.63642 6.94442 4.83146 6.93731C4.87588 6.93731 4.92031 6.93731 4.96474 6.93731H13.1305C13.5672 6.93731 13.7236 7.04571 13.8804 7.47043C14.0003 7.47043 14.1265 7.47043 14.2527 7.47043C14.7902 7.4771 15.1936 7.87028 15.1999 8.40341C15.2052 8.84768 15.2052 9.29195 15.1999 9.73622C15.1999 9.86195 15.1634 9.98723 15.143 10.1192C15.1442 10.1222 15.146 10.1249 15.1483 10.1272C15.1506 10.1295 15.1533 10.1313 15.1563 10.1325C15.7641 10.2805 16.0031 10.5826 16.0031 11.2041V14.0199C16.0031 14.3229 15.9245 14.4028 15.6162 14.3989C15.3554 14.3957 15.0906 14.4108 14.8356 14.37C14.2336 14.2731 13.824 13.9204 13.5992 13.3539C13.5787 13.3024 13.5601 13.2504 13.5427 13.1975C13.4095 12.8004 13.4095 12.8004 12.9834 12.8004C12.7613 12.8004 12.5391 12.7993 12.317 12.7973C12.3036 12.7943 12.2907 12.7893 12.2788 12.7826V12.2788H15.462C15.462 11.8412 15.4718 11.4209 15.4571 11.0019C15.4509 10.8242 15.2856 10.6954 15.107 10.6759C15.0571 10.6718 15.0069 10.6706 14.9569 10.6723H1.87927V12.2717H11.7257V12.8048H11.5324C8.61621 12.8048 5.69986 12.8035 2.78336 12.8008C2.63498 12.8008 2.56123 12.839 2.53013 12.9838C2.49469 13.1179 2.45016 13.2494 2.39685 13.3775C2.28352 13.6752 2.08366 13.9322 1.823 14.1153C1.56234 14.2985 1.25282 14.3994 0.934306 14.4051C0.729052 14.4086 0.523354 14.4077 0.317656 14.4051C0.0999632 14.4028 0.00222378 14.3069 0.00177951 14.0892C0.00177951 13.4228 0.00177951 12.7564 0.00177951 12.09V4.54846H0.00133514ZM1.87483 10.1401H14.1327C14.1829 10.1401 14.2331 10.1401 14.2824 10.1401C14.4988 10.1232 14.6601 9.96946 14.6632 9.75133C14.6703 9.30172 14.6694 8.85168 14.6632 8.40207C14.665 8.30889 14.6324 8.2183 14.5717 8.14758C14.511 8.07687 14.4264 8.03098 14.334 8.01867C14.1829 8.00134 14.0283 8.01556 13.8657 8.01556C13.8657 8.44694 13.8657 8.86278 13.8657 9.27862C13.8657 9.5092 13.7706 9.60783 13.5458 9.60783C10.6465 9.60783 7.74736 9.60783 4.84834 9.60783C4.63153 9.60783 4.53513 9.50875 4.53379 9.29017C4.53379 8.91787 4.53379 8.54602 4.53379 8.17372V8.01778H1.87483V10.1401ZM6.67296 9.06137H13.3335C13.3335 8.59489 13.3259 8.13995 13.3375 7.68413C13.3415 7.51575 13.2931 7.46821 13.1242 7.46866C11.0308 7.47428 8.93712 7.47562 6.84312 7.47266H6.67474L6.67296 9.06137ZM1.86728 7.45622C1.88424 7.46277 1.9018 7.46768 1.9197 7.47088L2.85267 7.4731C3.2614 7.4731 3.41245 7.3105 3.36358 6.91065C3.2537 6.00878 3.14115 5.10706 3.02594 4.20548C2.97796 3.84651 2.85311 3.74255 2.48926 3.74255H2.35597C2.01611 3.74255 1.86728 3.88961 1.86728 4.22725C1.86728 5.15874 1.86728 6.09038 1.86728 7.02216V7.45622ZM5.07892 7.48065V9.05959H6.13228V7.48065H5.07892ZM0.541125 13.8591C1.46299 13.9701 1.88771 13.5036 2.00722 12.8141H0.541125V13.8591ZM15.462 12.815H13.9888C14.1474 13.6107 14.6823 13.9866 15.4598 13.852L15.462 12.815Z" fill="#B07FD8"/>
<path d="M13.1073 1.23117C13.038 1.32358 12.9994 1.4302 12.9296 1.46041C12.7356 1.5392 12.5592 1.65588 12.4107 1.80364C12.2623 1.9514 12.1448 2.12727 12.0651 2.32097C12.0461 2.36542 12.0145 2.40332 11.9742 2.42996C11.9339 2.4566 11.8866 2.4708 11.8383 2.4708C11.79 2.4708 11.7427 2.4566 11.7024 2.42996C11.6621 2.40332 11.6304 2.36542 11.6115 2.32097C11.4491 1.93083 11.1389 1.62081 10.7487 1.45864C10.7045 1.43899 10.6672 1.40676 10.6412 1.36598C10.6153 1.32519 10.602 1.27766 10.6029 1.22933C10.6039 1.181 10.619 1.13403 10.6466 1.09429C10.6741 1.05456 10.7127 1.02382 10.7576 1.00592C11.1426 0.846018 11.4485 0.5401 11.6084 0.155143C11.6266 0.108886 11.6584 0.0691929 11.6995 0.0412207C11.7406 0.0132485 11.7892 -0.00170898 11.839 -0.00170898C11.8887 -0.00170898 11.9373 0.0132485 11.9784 0.0412207C12.0195 0.0691929 12.0513 0.108886 12.0695 0.155143C12.1475 0.346523 12.263 0.520334 12.4093 0.666309C12.5556 0.812283 12.7297 0.92746 12.9212 1.00503C12.9936 1.03791 13.0354 1.14098 13.1073 1.23117ZM12.1824 1.23694L11.8394 0.893522L11.4969 1.23295L11.8367 1.57814L12.1824 1.23694Z" fill="#662E93"/>
<path d="M8.10352 2.3026C8.01999 2.40167 7.97334 2.50829 7.89604 2.54073C7.50286 2.70466 7.23852 2.97789 7.06659 3.36796C6.96618 3.59454 6.68762 3.59276 6.58766 3.36485C6.43063 2.99081 6.13266 2.69364 5.75821 2.53762C5.5334 2.43765 5.53918 2.15732 5.76842 2.05913C5.95177 1.98399 6.11834 1.87314 6.25845 1.73303C6.39856 1.59292 6.50941 1.42635 6.58455 1.24301C6.68851 1.00665 6.96662 1.00754 7.07325 1.24567C7.14879 1.4291 7.2601 1.59565 7.40068 1.73562C7.54125 1.87559 7.70829 1.98617 7.89204 2.06091C7.97201 2.09512 8.02177 2.20574 8.10352 2.3026ZM6.82757 2.64335L7.17232 2.30348L6.82934 1.95962L6.4877 2.29993L6.82757 2.64335Z" fill="#662E93"/>
<path d="M10.0743 3.90332C10.176 3.98329 10.2871 4.02638 10.3187 4.1028C10.4844 4.50264 10.7629 4.76921 11.1566 4.94336C11.3751 5.04021 11.3627 5.28945 11.1566 5.42051C11.1522 5.42389 11.1476 5.42686 11.1428 5.42939C10.7474 5.57645 10.4946 5.85678 10.324 6.24063C10.2196 6.4761 9.94191 6.47032 9.83529 6.23219C9.68369 5.86829 9.39453 5.57897 9.03071 5.42717C8.78325 5.31877 8.7837 5.03755 9.03071 4.93048C9.21182 4.85672 9.37629 4.7474 9.51441 4.60898C9.65253 4.47055 9.76149 4.30584 9.83484 4.12457C9.87438 4.04149 9.98012 3.98862 10.0743 3.90332ZM10.4257 5.17882L10.0863 4.83274L9.74377 5.1766L10.0832 5.52536L10.4257 5.17882Z" fill="#662E93"/>
</g>
<defs>
<clipPath id="clip0_220_293">
<rect width="16" height="14.406" fill="white"/>
</clipPath>
</defs>
</svg>
