<svg width="36" height="36" viewBox="0 0 36 36" fill="none" xmlns="http://www.w3.org/2000/svg">
<g clip-path="url(#clip0_406_175)">
<path d="M0 22.7812V12.4453C0.0225 12.3806 0.0496874 12.3169 0.0665624 12.2503C0.369375 11.0681 1.11562 10.3425 2.31 10.1016C2.96062 9.96938 3.6225 9.87562 4.26375 9.76687C4.3575 9.23719 4.3125 8.82937 3.855 8.45437C3.54097 8.19489 3.28564 7.87165 3.10592 7.50607C2.9262 7.14048 2.82618 6.74089 2.8125 6.33375C2.7525 5.29368 2.7525 4.25101 2.8125 3.21094C2.89687 1.99688 3.54281 1.0725 4.60406 0.481875C5.00438 0.259687 5.47125 0.1575 5.90813 0H6.82219C6.8746 0.0239462 6.92884 0.0436962 6.98438 0.059063C8.59125 0.366563 9.75187 1.53844 9.9225 3.16875C10.0228 4.11844 9.99 5.08687 9.96563 6.04594C9.94031 7.02375 9.57281 7.89656 8.81438 8.51906C8.39719 8.86219 8.41688 9.225 8.45719 9.66094H12.6356V3.3525C11.8472 3.07125 11.6578 2.79844 11.6559 1.9725C11.6658 1.79701 11.6658 1.62111 11.6559 1.44562C11.58 0.773437 11.8378 0.291562 12.45 0H35.1562C35.3501 0.0701751 35.5262 0.182134 35.6721 0.327945C35.8179 0.473756 35.9298 0.64985 36 0.84375V2.46094C35.8322 2.92969 35.5181 3.2475 35.01 3.33469C35.01 4.49438 35.01 5.61844 35.01 6.74344C35.01 7.15781 34.8141 7.39031 34.4831 7.39125C34.1522 7.39219 33.9591 7.16719 33.9581 6.74813C33.9581 5.74031 33.9581 4.7325 33.9581 3.72563V3.34125H13.7278V9.69H14.1319C15.2569 9.69 16.3819 9.69 17.5069 9.69C17.7171 9.68381 17.9273 9.70238 18.1331 9.74531C18.5752 9.8543 18.9623 10.121 19.2216 10.4952C19.4809 10.8694 19.5947 11.3255 19.5415 11.7777C19.4883 12.2299 19.2719 12.6471 18.9328 12.9509C18.5937 13.2548 18.1553 13.4244 17.7 13.4278C16.5047 13.4409 15.3094 13.4278 14.1141 13.4325H13.7034V18.4219C13.7034 18.9103 13.7034 18.9113 14.1834 18.9113H33.48C33.9487 18.9113 33.9553 18.9113 33.9553 18.4425V9.62062C33.9503 9.50371 33.9528 9.38659 33.9628 9.27C33.9709 9.15105 34.0223 9.03919 34.1073 8.95557C34.1923 8.87196 34.305 8.8224 34.4241 8.81625C34.5419 8.79644 34.6628 8.82145 34.7631 8.88634C34.8634 8.95123 34.9357 9.05131 34.9659 9.16687C34.9999 9.29043 35.0141 9.41857 35.0081 9.54656C35.0081 12.5466 35.0081 15.5466 35.0081 18.5466C35.0081 19.4841 34.5187 19.9678 33.5728 19.9678H23.5603C23.5603 20.2725 23.5603 20.5181 23.5603 20.7638C23.5537 21.1547 23.3644 21.3778 23.0419 21.3806C22.7194 21.3834 22.5178 21.1566 22.5084 20.7731C22.5019 20.5097 22.5084 20.2462 22.5084 19.9678H14.0166C13.14 19.9678 12.6497 19.4756 12.6487 18.5934C12.6487 17.0116 12.6487 15.4297 12.6487 13.8478V13.4578H10.2975V22.7091C11.8622 22.3959 13.1616 22.8028 14.0203 24.1472C14.9222 25.5581 14.7075 26.9494 13.6716 28.2609C14.6859 28.4334 15.48 28.9284 16.0537 29.7609C16.8094 28.9013 16.9959 28.6603 18.4425 28.2384C17.2134 26.3812 17.3175 24.6684 18.7322 23.4197C19.336 22.8981 20.1061 22.6093 20.904 22.6051C21.7018 22.601 22.4749 22.8819 23.0841 23.3972C24.5128 24.6253 24.6244 26.3409 23.3859 28.26C23.8631 28.3323 24.32 28.5029 24.7276 28.7612C25.1353 29.0194 25.4848 29.3595 25.7541 29.76C26.6916 28.6594 27.0994 28.5262 28.1438 28.2422C26.925 26.3334 27.0319 24.6244 28.4559 23.3981C29.7028 22.3237 31.5994 22.3519 32.8369 23.4366C33.9094 24.3741 34.6088 26.3775 33.1003 28.2347C33.1158 28.2498 33.1335 28.2625 33.1528 28.2722C33.2325 28.2938 33.3122 28.3106 33.3919 28.3313C34.6656 28.6594 35.4937 29.4531 35.8762 30.7125C35.9194 30.8569 35.9588 31.0031 36 31.1484V36H31.6406C31.4241 35.805 31.2441 35.5894 31.3716 35.2753C31.4991 34.9613 31.7822 34.9303 32.0766 34.9444C32.1937 34.95 32.3109 34.9444 32.4281 34.9444H34.9444C34.9444 33.7997 34.9547 32.6944 34.9444 31.5806C34.9471 31.2834 34.8909 30.9886 34.7791 30.7133C34.6672 30.4379 34.5019 30.1874 34.2927 29.9763C34.0835 29.7652 33.8345 29.5976 33.5602 29.4832C33.2859 29.3689 32.9916 29.31 32.6944 29.31C31.3125 29.2881 29.9303 29.2881 28.5478 29.31C27.3881 29.3269 26.4141 30.1538 26.3325 31.3022C26.2481 32.4994 26.3137 33.7069 26.3137 34.9453H26.6709C27.5494 34.9453 28.4278 34.9453 29.3063 34.9453C29.7291 34.9453 29.9897 35.2266 29.8856 35.5819C29.8406 35.7347 29.6981 35.8631 29.6044 35.9981H2.74219C2.46094 35.8106 2.40094 35.5294 2.40563 35.2069C2.41781 34.305 2.40563 33.4031 2.40563 32.5003C2.40563 31.7044 2.40563 30.9066 2.40563 30.1106C2.40563 29.685 2.68125 29.4075 3.01875 29.4806C3.35625 29.5538 3.46219 29.8097 3.46031 30.1369C3.45469 31.6013 3.46031 33.0656 3.46031 34.53V34.9228H5.835V25.1841C5.8292 25.0669 5.83139 24.9494 5.84156 24.8325C5.84966 24.7016 5.90725 24.5786 6.00266 24.4886C6.09807 24.3986 6.22414 24.3483 6.35531 24.3478C6.62906 24.3272 6.85687 24.5522 6.88594 24.8484C6.89437 24.9422 6.88594 25.0359 6.88594 25.1297C6.88594 26.3484 6.88594 27.5672 6.88594 28.7859C6.88594 28.8797 6.89906 28.9819 6.90094 29.0147L8.71031 28.1813C8.64938 28.1006 8.56219 27.9937 8.48156 27.8775C7.52344 26.5256 7.67156 24.6769 8.89406 23.5603C9.29062 23.1994 9.19125 22.8403 9.19594 22.455H3.46875C3.46875 23.3269 3.46875 24.1687 3.46875 25.0106C3.46875 25.8525 3.47625 26.6747 3.46875 27.5062C3.46313 27.9225 3.10687 28.1709 2.75625 28.0247C2.475 27.9066 2.41781 27.6638 2.41875 27.3881C2.41875 26.4044 2.41875 25.4203 2.41875 24.4359C2.41875 24.315 2.4075 24.1941 2.40375 24.1059C2.08406 24.1247 1.80188 24.1809 1.53 24.1491C0.704063 24.0516 0.257812 23.5153 0 22.7812ZM2.40937 15.5138C2.40937 15.3713 2.40937 15.2569 2.40937 15.1388C2.40937 14.8575 2.39625 14.5763 2.42438 14.295C2.4272 14.2268 2.44418 14.1599 2.47422 14.0985C2.50426 14.0372 2.54671 13.9828 2.59889 13.9387C2.65107 13.8946 2.71183 13.8619 2.77733 13.8425C2.84282 13.8232 2.91163 13.8176 2.97937 13.8263C3.28125 13.8534 3.43969 14.0316 3.45937 14.3306C3.46687 14.4478 3.45937 14.565 3.45937 14.6822V21.3384H9.21375V20.895C9.21375 18.2944 9.21375 15.6944 9.21375 13.095C9.21375 12.5512 9.38906 12.3769 9.92625 12.375C10.4972 12.375 11.0672 12.375 11.6559 12.375V10.7812C11.6198 10.7665 11.582 10.7561 11.5434 10.7503C10.4775 10.7503 9.4125 10.7409 8.34656 10.7559C8.28172 10.767 8.21969 10.7908 8.16403 10.8258C8.10838 10.8609 8.06018 10.9066 8.02219 10.9603C7.63031 11.4853 7.26 12.0263 6.87375 12.5541C6.54375 13.0078 6.18656 13.0097 5.8575 12.5587C5.49187 12.0581 5.12625 11.5566 4.77937 11.0419C4.65 10.8497 4.51688 10.7841 4.28813 10.8272C3.70125 10.9359 3.10969 11.0147 2.52281 11.1225C1.75406 11.2622 1.14281 11.8022 1.08938 12.5587C1.02 13.5328 1.0725 14.5162 1.0725 15.5119L2.40937 15.5138ZM6.9 34.92H15.5334C15.5334 33.7256 15.57 32.5547 15.5231 31.3875C15.4791 30.2625 14.5088 29.3381 13.38 29.3156C11.9519 29.2875 10.5234 29.2875 9.09469 29.3156C8.53093 29.3235 7.99133 29.5458 7.58558 29.9372C7.17983 30.3287 6.93838 30.86 6.91031 31.4231C6.8625 32.5772 6.9 33.7359 6.9 34.9209V34.92ZM16.6012 34.92H25.2356C25.2356 33.7266 25.2731 32.5556 25.2253 31.3884C25.1775 30.2634 24.21 29.3372 23.0831 29.3147C21.6456 29.2866 20.2056 29.2866 18.7631 29.3147C18.2056 29.3298 17.6743 29.5548 17.2754 29.9446C16.8765 30.3345 16.6395 30.8605 16.6116 31.4175C16.5666 32.5762 16.6012 33.735 16.6012 34.9219V34.92ZM34.9294 1.07625H12.7322V2.25H34.9294V1.07625ZM13.5066 25.9688C13.5093 25.5152 13.3773 25.071 13.1273 24.6925C12.8772 24.3141 12.5203 24.0185 12.102 23.8432C11.6836 23.6679 11.2227 23.6208 10.7775 23.7079C10.3324 23.7951 9.92313 24.0125 9.60173 24.3325C9.28033 24.6526 9.06126 25.0609 8.97231 25.5057C8.88336 25.9505 8.92853 26.4117 9.10211 26.8308C9.27569 27.2498 9.56984 27.6079 9.94724 27.8595C10.3246 28.1111 10.7683 28.245 11.2219 28.2441C11.8254 28.2414 12.4035 28.0011 12.8311 27.5752C13.2587 27.1494 13.5014 26.5722 13.5066 25.9688ZM23.2087 25.9781C23.2134 25.5246 23.0832 25.0799 22.8347 24.7005C22.5863 24.3211 22.2307 24.024 21.8131 23.8469C21.3956 23.6699 20.9348 23.6209 20.4893 23.7061C20.0439 23.7913 19.6338 24.0069 19.311 24.3256C18.9883 24.6442 18.7674 25.0516 18.6766 25.4959C18.5857 25.9403 18.6288 26.4016 18.8005 26.8214C18.9722 27.2412 19.2647 27.6005 19.641 27.8538C20.0172 28.1071 20.4602 28.2429 20.9137 28.2441C21.5171 28.2441 22.0962 28.0066 22.5257 27.5828C22.9552 27.1591 23.2006 26.5833 23.2087 25.98V25.9781ZM32.9109 25.9406C32.9082 25.4886 32.7716 25.0475 32.5186 24.673C32.2655 24.2984 31.9072 24.0072 31.4888 23.8359C31.0705 23.6647 30.6108 23.6211 30.1677 23.7108C29.7247 23.8004 29.3181 24.0191 28.9991 24.3395C28.6802 24.6598 28.4633 25.0674 28.3757 25.5109C28.288 25.9544 28.3336 26.4138 28.5068 26.8314C28.6799 27.249 28.9727 27.606 29.3484 27.8574C29.7241 28.1088 30.1658 28.2433 30.6178 28.2441C30.9196 28.2437 31.2183 28.1838 31.4969 28.068C31.7755 27.9521 32.0285 27.7824 32.2415 27.5686C32.4544 27.3549 32.6232 27.1012 32.7381 26.8222C32.8529 26.5432 32.9117 26.2442 32.9109 25.9425V25.9406ZM8.91094 5.25C8.53594 4.9875 8.18719 4.78125 7.88719 4.51406C7.72594 4.37156 7.62656 4.36687 7.43719 4.42781C6.78094 4.63875 6.12469 4.84875 5.45719 4.99969C4.92844 5.11969 4.38 5.15344 3.83625 5.22562C3.72844 6.37875 3.96937 7.37719 4.98187 8.0325C5.85281 8.595 6.77625 8.61656 7.66781 8.08594C8.77781 7.42406 9.015 6.36562 8.91094 5.25ZM3.85969 4.10813C4.7625 4.18594 6.50625 3.77062 7.46531 3.24844C7.97719 2.96719 8.16187 3.02813 8.45437 3.52219C8.57965 3.70113 8.7175 3.87094 8.86688 4.03031C8.95273 3.53813 8.89134 3.03155 8.6904 2.57413C8.48947 2.1167 8.15795 1.72878 7.73741 1.45904C7.31687 1.18929 6.82605 1.04973 6.3265 1.05785C5.82695 1.06597 5.34092 1.22142 4.92938 1.50469C4.51936 1.7896 4.20032 2.18682 4.01057 2.64865C3.82082 3.11047 3.76843 3.61725 3.85969 4.10813ZM12.7556 10.7503V12.3806H14.7741C15.7462 12.3806 16.7194 12.3872 17.6916 12.3741C17.7976 12.3755 17.9029 12.3556 18.0011 12.3156C18.0993 12.2756 18.1885 12.2163 18.2634 12.1412C18.3384 12.0661 18.3974 11.9767 18.4372 11.8784C18.477 11.7801 18.4966 11.6748 18.495 11.5687C18.495 11.1328 18.1837 10.7597 17.745 10.7559C16.0912 10.7428 14.4375 10.7503 12.7556 10.7503ZM1.05469 16.5938V21.5803C1.05469 21.8841 1.04062 22.1906 1.06312 22.4934C1.07718 22.6612 1.15374 22.8175 1.27763 22.9315C1.40153 23.0454 1.56371 23.1086 1.73203 23.1086C1.90036 23.1086 2.06254 23.0454 2.18643 22.9315C2.31032 22.8175 2.38688 22.6612 2.40094 22.4934C2.40751 22.4236 2.41033 22.3535 2.40937 22.2834C2.40937 20.4797 2.40937 18.6756 2.40937 16.8712C2.40473 16.7789 2.39503 16.6869 2.38031 16.5956L1.05469 16.5938ZM7.37156 9.44437H5.34375C5.35594 9.63187 5.29875 9.89062 5.39719 10.0575C5.67844 10.5328 6.02437 10.9706 6.38625 11.4816C6.71719 10.7419 7.545 10.3266 7.37156 9.44812V9.44437Z" fill="#B07FD8"/>
<path d="M20.4581 16.6463C20.4581 15.6553 20.4581 14.7197 20.4581 13.7831C20.4581 13.2356 20.6203 13.0744 21.1687 13.0735C21.6703 13.0735 22.1719 13.0735 22.7231 13.0735C22.7231 12.5944 22.7231 12.1425 22.7231 11.6906C22.7231 11.101 22.8816 10.9406 23.4731 10.9406C23.9419 10.9406 24.4106 10.936 24.8794 10.9322C24.9223 10.9222 24.9641 10.9077 25.0041 10.8891C25.0041 10.4719 25.0041 10.0322 25.0041 9.59346C25.0041 8.94846 25.1475 8.80502 25.785 8.80408H27.2812C27.2812 8.30908 27.2812 7.83377 27.2812 7.35846C27.2812 6.85596 27.4547 6.68158 27.9534 6.67971C28.5978 6.67971 29.2422 6.67971 29.8866 6.67971C30.4359 6.67971 30.5981 6.84096 30.5981 7.38846C30.5981 10.3172 30.5981 13.2456 30.5981 16.1738V16.6163H31.6819V5.41408C31.6781 5.28522 31.6819 5.15625 31.6931 5.02783C31.7297 4.72877 31.9022 4.55908 32.2059 4.55908C32.5097 4.55908 32.6803 4.73158 32.7234 5.02783C32.7355 5.13269 32.7395 5.2383 32.7356 5.34377C32.7356 9.19752 32.7356 13.0513 32.7356 16.905C32.7356 17.5613 32.5884 17.7028 31.92 17.7028H19.125C19.008 17.7073 18.8909 17.7004 18.7753 17.6822C18.4828 17.6241 18.3206 17.4413 18.3384 17.1385C18.3562 16.8356 18.5344 16.6697 18.8353 16.6547C19.2337 16.6425 19.6322 16.65 20.0297 16.6491L20.4581 16.6463ZM28.3547 7.74564V16.6219H29.5191V7.74564H28.3547ZM26.085 9.87471V16.6247H27.2494V9.87471H26.085ZM23.8059 12.0141V16.6406C24.1125 16.6406 24.3928 16.6247 24.6703 16.6453C24.9309 16.6641 25.0134 16.5778 25.0116 16.3116C24.9984 14.9766 25.0059 13.6416 25.0041 12.3066C25.0041 12.2128 24.99 12.1238 24.9806 12.0141H23.8059ZM21.5269 16.6228H22.7016V14.1488H21.5269V16.6228Z" fill="#662E93"/>
<path d="M18.7828 5.60699C17.7516 5.60699 16.7203 5.60699 15.6891 5.60699C15.5492 5.6125 15.4092 5.59733 15.2737 5.56199C15.1578 5.53358 15.0568 5.4625 14.9909 5.36293C14.9251 5.26336 14.8992 5.14262 14.9184 5.0248C14.9237 4.90591 14.9726 4.79314 15.0558 4.70804C15.139 4.62295 15.2506 4.5715 15.3694 4.56355C15.4629 4.55508 15.5568 4.55226 15.6506 4.55511H21.9C22.005 4.55511 22.1419 4.52136 22.2084 4.57386C22.3687 4.70042 22.5919 4.85511 22.6087 5.02386C22.6256 5.19261 22.4531 5.40917 22.3069 5.5423C22.2131 5.6248 22.0181 5.60605 21.8681 5.60699C20.8425 5.6098 19.8122 5.60699 18.7828 5.60699Z" fill="#662E93"/>
<path d="M17.731 6.67672C18.4444 6.67672 19.1578 6.67672 19.8713 6.67672C20.2753 6.67672 20.5219 6.88672 20.5172 7.20828C20.5125 7.52985 20.265 7.72859 19.861 7.72859C18.4341 7.72859 17.0075 7.72859 15.5813 7.72859C15.1707 7.72859 14.925 7.53266 14.9194 7.21203C14.9138 6.89141 15.1632 6.67766 15.5953 6.67578C16.305 6.67578 17.0185 6.67672 17.731 6.67672Z" fill="#662E93"/>
</g>
<defs>
<clipPath id="clip0_406_175">
<rect width="36" height="36" fill="white"/>
</clipPath>
</defs>
</svg>
