<svg width="17" height="16" viewBox="0 0 17 16" fill="none" xmlns="http://www.w3.org/2000/svg">
<g clip-path="url(#clip0_272_25)">
<path d="M0 14.3143C0.0702321 14.1674 0.19778 14.1036 0.345106 14.0516C0.783048 13.8982 1.07528 13.595 1.22583 13.1559C1.23633 13.1256 1.24642 13.0949 1.25691 13.0647C1.30817 12.919 1.40424 12.8277 1.56408 12.8257C1.72392 12.8237 1.82361 12.9097 1.87649 13.0566C1.90757 13.1422 1.93421 13.2298 1.97296 13.3121C2.05162 13.4864 2.16554 13.6424 2.30754 13.7705C2.44954 13.8985 2.61653 13.9957 2.79798 14.056C2.83835 14.0701 2.87871 14.0826 2.91907 14.0996C3.0559 14.1577 3.13219 14.261 3.13058 14.4104C3.13058 14.5549 3.0555 14.6526 2.92472 14.7083C2.78224 14.77 2.63249 14.8197 2.50131 14.8996C2.2002 15.082 2.00565 15.3517 1.8999 15.6879C1.83451 15.8957 1.72836 15.9882 1.57094 15.9894C1.41352 15.9906 1.30333 15.8962 1.23875 15.6927C1.08739 15.2193 0.774168 14.9121 0.310394 14.7385C0.194551 14.6953 0.10333 14.5864 0.00080713 14.5077L0 14.3143ZM1.56287 14.8112L1.9778 14.4076L1.57417 14.0039L1.16044 14.3963L1.56287 14.8112Z" fill="#662E93"/>
<path d="M7.05873 5.33964C7.05873 5.15599 7.05873 4.9683 7.05873 4.78101C7.06075 4.23651 7.29728 3.90997 7.81473 3.73601C7.84143 3.72524 7.86757 3.71311 7.89304 3.69968C7.89304 3.07082 7.89304 2.4425 7.89304 1.81472C7.89081 1.75574 7.89243 1.69669 7.89788 1.63793C7.90396 1.56213 7.93765 1.4912 7.99256 1.4386C8.04747 1.386 8.11977 1.35538 8.19576 1.35256C8.36125 1.34448 8.48234 1.43328 8.51867 1.60281C8.53113 1.66579 8.53655 1.72996 8.53481 1.79413C8.53481 2.39016 8.53481 2.98633 8.53481 3.58263C8.53481 3.66335 8.54329 3.71583 8.63935 3.74691C9.10878 3.89867 9.35419 4.23409 9.36912 4.73056C9.37673 4.88077 9.37605 5.03128 9.3671 5.18142C9.35701 5.31179 9.39859 5.36507 9.52856 5.39857C10.4694 5.6282 11.3236 6.12547 11.9879 6.83026C13.156 8.0682 13.6428 9.53984 13.4115 11.2331C13.2363 12.5069 12.6507 13.5697 11.6908 14.4218C10.6934 15.3049 9.51927 15.7497 8.18809 15.7404C5.90797 15.7243 3.95762 14.3019 3.22341 12.1404C2.52634 10.0924 3.21857 7.74085 4.91625 6.39433C5.48159 5.93782 6.13638 5.60493 6.83835 5.41714C6.89526 5.4022 6.95136 5.38404 7.00787 5.36628C7.02543 5.35862 7.04243 5.34972 7.05873 5.33964ZM7.15156 12.0262H9.21816C9.22947 11.9015 9.23633 11.7953 9.24965 11.6896C9.27346 11.4999 9.4111 11.3744 9.58184 11.3828C9.75257 11.3913 9.87972 11.5281 9.889 11.7154C9.89304 11.7941 9.889 11.8728 9.889 11.9746L11.2174 11.803C11.2981 10.9318 11.2981 10.055 11.2174 9.18384L9.89263 9.00624C9.89263 9.10553 9.89263 9.17899 9.89263 9.25246C9.89546 9.48939 9.778 9.63712 9.58224 9.64237C9.38648 9.64761 9.26256 9.50473 9.24803 9.2682C9.24198 9.1685 9.23512 9.06921 9.22745 8.95417H7.14188C7.06883 9.97701 7.07207 11.0039 7.15156 12.0262ZM7.18466 8.30069H9.19677C9.06801 7.491 8.94168 6.69908 8.81494 5.90271C8.40686 5.90271 8.0331 5.89908 7.65933 5.90836C7.62099 5.90836 7.56206 5.98222 7.55156 6.02945C7.49183 6.3019 7.43653 6.57556 7.39374 6.85084C7.31867 7.33359 7.25409 7.81593 7.18466 8.3019V8.30069ZM7.21736 12.6805C7.21531 12.7087 7.21531 12.7371 7.21736 12.7653C7.33602 13.5011 7.45389 14.2369 7.58063 14.9715C7.59115 14.9955 7.60746 15.0165 7.6281 15.0327C7.64874 15.0488 7.67307 15.0595 7.69889 15.064C8.00969 15.0765 8.32089 15.0757 8.63169 15.0829C8.74551 15.0854 8.78587 15.0321 8.80484 14.9215C8.86741 14.5582 8.94975 14.1949 9.00949 13.8317C9.07164 13.4523 9.11645 13.0696 9.17094 12.6805H7.21736ZM6.46418 11.9693V9.0127C6.04238 9.07284 5.62462 9.12975 5.20807 9.19635C5.1774 9.2012 5.14067 9.27062 5.13582 9.3134C5.11775 9.45179 5.10871 9.5912 5.10878 9.73076C5.11497 10.379 5.12492 11.0274 5.13865 11.6759C5.13865 11.7162 5.18991 11.7901 5.22583 11.797C5.63754 11.8599 6.05086 11.9136 6.46418 11.9705V11.9693ZM11.1685 12.4722C11.0737 12.4791 11.0159 12.4815 10.959 12.4884C10.6285 12.5287 10.2991 12.5752 9.96771 12.6038C9.84258 12.6143 9.80989 12.664 9.79536 12.779C9.73966 13.2206 9.67427 13.6613 9.60888 14.1013C9.56852 14.3701 9.51564 14.6373 9.46519 14.9227C9.91171 14.8009 10.336 14.6088 10.7221 14.3536C10.7533 14.3336 10.7765 14.3033 10.7875 14.268C10.9146 13.6779 11.039 13.087 11.1685 12.4722ZM11.1722 8.52067C11.0414 7.89827 10.9167 7.30291 10.7899 6.70795C10.7839 6.67603 10.7666 6.64735 10.7411 6.62723C10.3606 6.372 9.94191 6.17906 9.50071 6.05568C9.61695 6.83187 9.73037 7.59151 9.8442 8.35276L11.1722 8.52067ZM6.87588 14.8981C6.88315 14.8811 6.89243 14.8706 6.89082 14.8621C6.78224 14.1477 6.67447 13.4329 6.55863 12.7193C6.54837 12.6931 6.53204 12.6699 6.51098 12.6513C6.48992 12.6328 6.46474 12.6196 6.43754 12.6127C6.25832 12.582 6.07427 12.5703 5.89506 12.5481C5.67467 12.5211 5.45429 12.4908 5.19556 12.4569C5.3227 13.0623 5.44299 13.6367 5.5665 14.2111C5.57398 14.2469 5.59384 14.2789 5.6226 14.3015C6.00585 14.5656 6.42899 14.7664 6.87588 14.8965V14.8981ZM6.87588 6.09605L6.83552 6.05246C6.50535 6.21108 6.17639 6.37294 5.84379 6.52672C5.63552 6.62279 5.52492 6.77496 5.50515 7.00543C5.49546 7.12168 5.44985 7.23429 5.42805 7.34973C5.35419 7.73682 5.28396 8.1243 5.20928 8.52672C5.64561 8.47425 6.05409 8.42783 6.46054 8.37133C6.49526 8.36648 6.54127 8.29544 6.54692 8.25024C6.61272 7.80624 6.66801 7.35861 6.7338 6.91381C6.77538 6.63853 6.82785 6.36689 6.87467 6.09282L6.87588 6.09605ZM11.9072 9.32188V11.6726C12.1493 11.6254 12.3915 11.5818 12.6337 11.5277C12.6563 11.5189 12.6765 11.5051 12.693 11.4873C12.7095 11.4696 12.7218 11.4484 12.729 11.4252C12.8612 10.8202 12.8631 10.194 12.7346 9.58828C12.7254 9.56175 12.7103 9.53765 12.6905 9.51779C12.6706 9.49794 12.6465 9.48284 12.62 9.47365C12.3839 9.41552 12.1469 9.37153 11.9072 9.32188ZM4.46458 11.6589V9.3352C4.24622 9.38 4.03229 9.42804 3.81635 9.46557C3.7332 9.4801 3.70333 9.51926 3.6888 9.59756C3.57101 10.1989 3.5765 10.818 3.70494 11.4171C3.71236 11.4423 3.72541 11.4654 3.74311 11.4847C3.76081 11.504 3.78268 11.519 3.80706 11.5285C4.02381 11.5794 4.245 11.6169 4.46297 11.6585L4.46458 11.6589ZM8.7116 5.23591C8.7116 5.02965 8.73138 4.83227 8.70595 4.63853C8.68053 4.44479 8.59899 4.33177 8.11907 4.34953C7.88981 4.35801 7.74167 4.43994 7.72028 4.63651C7.69889 4.83308 7.71544 5.03772 7.71544 5.23591H8.7116ZM11.6246 7.38646C11.69 7.81875 11.7457 8.20382 11.8091 8.58808C11.8133 8.60267 11.8209 8.61606 11.8313 8.62715C11.8417 8.63824 11.8545 8.6467 11.8688 8.65185C12.0706 8.69746 12.2725 8.73702 12.5001 8.78343C12.2964 8.26805 11.9996 7.79452 11.6246 7.38646ZM12.4876 12.2163C12.2688 12.2591 12.0795 12.291 11.8934 12.3374C11.8712 12.3465 11.8512 12.3605 11.8353 12.3785C11.8193 12.3965 11.8077 12.4179 11.8014 12.4412C11.7413 12.7778 11.6892 13.116 11.6359 13.4539C11.6332 13.4942 11.6332 13.5346 11.6359 13.575C11.9976 13.1757 12.2859 12.7158 12.4876 12.2163ZM3.92654 8.78545C4.11625 8.74509 4.28012 8.72127 4.43794 8.67566C4.46694 8.66555 4.49325 8.64895 4.51487 8.62712C4.53648 8.6053 4.55283 8.57883 4.56266 8.54973C4.62361 8.2018 4.67164 7.85225 4.72775 7.47607C4.38664 7.86221 4.1155 8.30491 3.92654 8.78424V8.78545ZM3.94026 12.2184C4.12883 12.6869 4.39536 13.1202 4.72856 13.4999C4.67245 13.1245 4.62321 12.7798 4.5671 12.4367C4.56188 12.4128 4.55128 12.3903 4.53611 12.3711C4.52093 12.3519 4.50158 12.3364 4.47952 12.3257C4.30878 12.2821 4.13522 12.2547 3.94026 12.2171V12.2184Z" fill="#B07FD8"/>
<path d="M2.09122 4.98781L1.60121 3.94805C1.55318 3.84634 1.50353 3.74623 1.45591 3.6429C1.33239 3.37691 1.37518 3.2421 1.62382 3.09518C1.81796 2.98135 2.01332 2.86914 2.20868 2.75693L3.88255 1.79386C4.20061 1.61142 4.35237 1.65744 4.50737 1.98478L5.5112 4.10749C5.80343 4.72666 5.64158 5.23201 5.04016 5.56944C4.73863 5.74352 4.38031 5.7907 4.044 5.70062C3.47891 5.55653 3.26499 4.98014 3.58386 4.46228C3.6812 4.30069 3.81122 4.16121 3.9656 4.05278C4.11997 3.94435 4.29529 3.86936 4.48033 3.83261C4.53199 3.82131 4.58325 3.8088 4.64904 3.79225C4.4557 3.38297 4.2664 2.98095 4.07669 2.58135C4.05853 2.54381 4.03633 2.50829 4.0109 2.46349L2.12997 3.54684C2.15621 3.60779 2.178 3.66107 2.20222 3.71273C2.46135 4.26046 2.70676 4.81546 2.98446 5.3535C3.26701 5.89921 3.04339 6.3759 2.6664 6.66208C2.51636 6.78101 2.34256 6.86641 2.15673 6.9125C1.97089 6.95859 1.77734 6.96431 1.5891 6.92928C0.943292 6.81505 0.684967 6.19507 1.04985 5.64291C1.15386 5.47925 1.29179 5.33982 1.45432 5.23405C1.61684 5.12828 1.80017 5.05862 1.99193 5.02979C2.01311 5.02629 2.03402 5.0213 2.05449 5.01485C2.06771 5.00724 2.08003 4.99817 2.09122 4.98781ZM1.75984 6.31374C2.03391 6.29114 2.23936 6.22737 2.377 6.04734C2.43108 5.97671 2.48073 5.83705 2.44642 5.78054C2.40404 5.7095 2.27367 5.65945 2.18043 5.65744C2.07539 5.65757 1.97187 5.68245 1.87825 5.73007C1.78463 5.77769 1.70354 5.8467 1.64158 5.9315C1.58426 6.00335 1.52816 6.13009 1.5552 6.19951C1.58224 6.26894 1.71423 6.29074 1.75984 6.31374ZM4.34592 5.12706C4.60747 5.0867 4.8218 5.00597 4.96468 4.79245C5.08577 4.61162 5.01352 4.46954 4.79637 4.45098C4.54652 4.43201 4.34592 4.53897 4.19092 4.72303C4.13239 4.79326 4.0771 4.91919 4.10253 4.99104C4.12715 5.05643 4.26075 5.08387 4.34592 5.12706Z" fill="#662E93"/>
<path d="M14.9082 12.9297C14.8601 13.2929 14.8101 13.6679 14.7609 14.0449C14.7136 14.4082 14.6725 14.7714 14.6196 15.1303C14.551 15.5936 14.2874 15.8617 13.8099 15.9698C13.2694 16.0909 12.6309 15.8362 12.3766 15.3959C12.1562 15.0144 12.2535 14.5821 12.6188 14.3367C13.0293 14.0619 13.4664 14.0376 13.9249 14.2031C13.9693 14.2193 14.0133 14.2378 14.0787 14.2633C14.1239 13.9246 14.1679 13.5973 14.2107 13.2703C14.2462 12.9991 14.2769 12.727 14.3165 12.4562C14.3568 12.1737 14.5469 12.0639 14.8149 12.1652C15.2525 12.3307 15.694 12.476 16.1647 12.5159C16.3754 12.5341 16.5094 12.6843 16.4961 12.859C16.4811 13.0508 16.3306 13.1819 16.1094 13.1509C15.715 13.0923 15.3227 13.0076 14.9082 12.9297ZM13.5217 15.3708C13.6274 15.3381 13.7409 15.3204 13.8369 15.2695C13.9964 15.1856 14.0061 15.0629 13.8821 14.9305C13.6832 14.7174 13.2222 14.6847 12.9881 14.8639C12.8916 14.9377 12.8779 15.0164 12.9574 15.1085C13.106 15.278 13.2965 15.3478 13.5217 15.3708Z" fill="#662E93"/>
<path d="M13.1608 2.54086C13.3259 2.54449 13.4188 2.63047 13.4922 2.85892C13.623 3.26619 13.889 3.55196 14.2729 3.73077C14.3455 3.76427 14.4242 3.78526 14.4993 3.81392C14.5641 3.83447 14.6205 3.87554 14.66 3.93095C14.6995 3.98635 14.7198 4.05308 14.7181 4.12108C14.7181 4.26679 14.6373 4.36972 14.4997 4.42905C14.3399 4.48975 14.1852 4.56318 14.0371 4.64863C13.7821 4.81358 13.5929 5.06264 13.5023 5.35257C13.4866 5.39818 13.4725 5.44419 13.4547 5.48899C13.3994 5.62865 13.2932 5.70696 13.1459 5.70373C13.0054 5.7005 12.9082 5.623 12.8521 5.49021C12.7859 5.33279 12.7273 5.16932 12.6385 5.02482C12.4634 4.73985 12.2006 4.56064 11.8838 4.45569C11.6743 4.38627 11.5907 4.28657 11.5899 4.12229C11.5891 3.95802 11.6759 3.85347 11.8817 3.78566C12.3608 3.62784 12.6708 3.30696 12.8254 2.82946C12.8932 2.62159 12.9937 2.53763 13.1608 2.54086ZM12.7415 4.12149L13.1451 4.52068L13.5669 4.12391L13.1584 3.7114L12.7415 4.12149Z" fill="#662E93"/>
<path d="M8.22079 0.632869C8.13686 0.633452 8.056 0.601332 7.99535 0.543316C7.93469 0.485299 7.89901 0.405946 7.89587 0.322072C7.8967 0.238933 7.9299 0.159393 7.98841 0.100324C8.04692 0.0412544 8.12614 0.00730445 8.20927 0.00567659C8.29239 0.00404872 8.37289 0.0348706 8.43366 0.0916037C8.49444 0.148337 8.53073 0.226517 8.53482 0.309559C8.53405 0.393478 8.501 0.47388 8.44253 0.53408C8.38406 0.59428 8.30465 0.629656 8.22079 0.632869Z" fill="#662E93"/>
<path d="M9.89949 10.4924C9.89968 10.5348 9.89138 10.5767 9.87508 10.6158C9.85878 10.6549 9.83482 10.6903 9.80461 10.72C9.77439 10.7496 9.73854 10.7729 9.69917 10.7885C9.6598 10.8041 9.6177 10.8116 9.57538 10.8106C9.53305 10.8096 9.49134 10.8002 9.45273 10.7828C9.41411 10.7655 9.37937 10.7406 9.35055 10.7095C9.32172 10.6785 9.29941 10.642 9.28492 10.6023C9.27043 10.5625 9.26407 10.5202 9.26619 10.4779C9.26601 10.4356 9.27431 10.3936 9.29061 10.3546C9.3069 10.3155 9.33087 10.2801 9.36108 10.2504C9.39129 10.2207 9.42715 10.1974 9.46652 10.1819C9.50589 10.1663 9.54798 10.1588 9.59031 10.1598C9.63264 10.1607 9.67434 10.1702 9.71296 10.1875C9.75157 10.2049 9.78632 10.2298 9.81514 10.2608C9.84396 10.2918 9.86628 10.3283 9.88077 10.3681C9.89525 10.4079 9.90162 10.4502 9.89949 10.4924Z" fill="#662E93"/>
</g>
<defs>
<clipPath id="clip0_272_25">
<rect width="16.4985" height="16" fill="white"/>
</clipPath>
</defs>
</svg>
