<svg width="17" height="16" viewBox="0 0 17 16" fill="none" xmlns="http://www.w3.org/2000/svg">
<g clip-path="url(#clip0_192_216)">
<path d="M0.553134 1.52379V1.72473C0.553134 6.34047 0.553134 10.9564 0.553134 15.5724C0.557141 15.6354 0.555603 15.6987 0.548536 15.7614C0.521408 15.9094 0.429449 16 0.276796 16C0.124144 16 0.0335641 15.9081 0.0059763 15.7605C-1.30853e-05 15.7092 -0.00139854 15.6575 0.0018376 15.606C0.0018376 10.5357 0.0018376 5.46563 0.0018376 0.395914C0.0018376 0.0800334 0.0818426 0.000488281 0.399562 0.000488281H15.611C15.9264 0.000488281 16.0069 0.0814126 16.0069 0.398672C16.0069 5.46839 16.0069 10.5383 16.0069 15.6083C16.0112 15.6657 16.0087 15.7234 15.9995 15.7802C15.9651 15.9182 15.874 16.0014 15.7292 16.0005C15.5843 15.9996 15.4928 15.915 15.463 15.7756C15.4533 15.7074 15.4509 15.6384 15.4556 15.5697V1.52379L15.4271 1.51736C15.4032 1.55966 15.3774 1.60104 15.3558 1.64426C14.6753 3.00526 13.9959 4.36656 13.3175 5.72817C13.2737 5.8201 13.2508 5.9206 13.2504 6.02244C13.2467 8.45967 13.2458 10.8966 13.2477 13.3332C13.2477 13.3737 13.2477 13.4137 13.2477 13.4541C13.2449 13.6684 13.1387 13.7967 12.9672 13.7939C12.7957 13.7912 12.6964 13.6643 12.6959 13.4454C12.6959 11.06 12.6959 8.67455 12.6959 6.28913V6.07808H3.31191V13.3304C3.31191 13.3709 3.31191 13.4109 3.31191 13.4514C3.31191 13.6679 3.20662 13.7953 3.03604 13.7948C2.86545 13.7944 2.76016 13.667 2.76016 13.45C2.76016 10.9781 2.75893 8.50642 2.75648 6.03486C2.75567 5.92162 2.72975 5.80997 2.68061 5.70794C2.01023 4.35675 1.33617 3.00679 0.658427 1.65805C0.635437 1.61208 0.612448 1.5661 0.587619 1.52012L0.553134 1.52379ZM0.737053 0.56144C0.767399 0.627651 0.789009 0.679608 0.814298 0.729726C1.58461 2.27035 2.35385 3.81128 3.12202 5.35252C3.18409 5.47758 3.25214 5.52219 3.3933 5.52219C6.46934 5.51759 9.54507 5.51759 12.6205 5.52219C12.7515 5.52219 12.821 5.48908 12.8821 5.36493C13.6484 3.81726 14.4201 2.27173 15.1972 0.728346C15.222 0.678228 15.2432 0.626731 15.2731 0.5619L0.737053 0.56144Z" fill="#B07FD8"/>
<path d="M8.00506 1.1062C9.95337 1.1062 11.9015 1.1062 13.8495 1.1062C13.981 1.1062 14.1213 1.10896 14.1714 1.24414C14.206 1.33819 14.2045 1.44171 14.1673 1.53473C13.633 2.62123 13.0886 3.70267 12.5483 4.78549C12.4729 4.93723 12.3469 4.96941 12.191 4.96941C10.3004 4.96696 8.40968 4.96696 6.519 4.96941C5.62239 4.96941 4.72579 4.96573 3.82965 4.97263C3.63239 4.97263 3.51055 4.90596 3.42227 4.72664C2.90637 3.68244 2.38267 2.64192 1.86264 1.60002C1.70355 1.28138 1.8139 1.1085 2.17576 1.1085L8.00506 1.1062ZM2.51509 1.66623C2.67694 1.99085 2.83695 2.29937 2.98454 2.61479C3.03926 2.73342 3.10822 2.76515 3.23329 2.76469C4.66877 2.76009 6.10426 2.76147 7.53974 2.76147H7.71952V1.66393L2.51509 1.66623ZM8.28369 2.73388C8.30393 2.74813 8.30852 2.75411 8.31266 2.75411C9.82876 2.75595 11.3446 2.75687 12.86 2.75687C12.8813 2.75651 12.9022 2.75146 12.9213 2.74208C12.9404 2.7327 12.9571 2.71922 12.9704 2.70261C13.146 2.36283 13.3157 2.01982 13.4909 1.66991H8.28369V2.73388ZM3.3418 3.31828C3.50595 3.64658 3.66642 3.95602 3.81493 4.27052C3.86551 4.37811 3.92436 4.41858 4.04713 4.41812C5.21823 4.4126 6.38933 4.4149 7.56043 4.4149H7.71814V3.31828H3.3418ZM8.28783 4.41674C9.5463 4.41674 10.791 4.41674 12.0356 4.41398C12.0568 4.41308 12.0775 4.4075 12.0963 4.39764C12.115 4.38778 12.1314 4.37389 12.1441 4.35696C12.3193 4.01763 12.489 3.67508 12.6651 3.32196H8.28783V4.41674Z" fill="#662E93"/>
</g>
<defs>
<clipPath id="clip0_192_216">
<rect width="16.0083" height="16" fill="white"/>
</clipPath>
</defs>
</svg>
