<svg width="39" height="36" viewBox="0 0 39 36" fill="none" xmlns="http://www.w3.org/2000/svg">
<g clip-path="url(#clip0_157_3)">
<path d="M0 12.9265C0.196794 12.2347 0.662289 11.7786 1.25551 11.3981C2.52616 10.5824 3.7741 9.73157 5.03245 8.89782C5.1535 8.80859 5.28709 8.73779 5.42888 8.68772C5.68528 8.61391 5.94546 8.68772 6.02589 8.9404C6.0836 9.12495 6.02588 9.36627 5.95871 9.55933C5.91992 9.66911 5.75908 9.74009 5.6446 9.81674C4.32569 10.6969 3.00616 11.5757 1.686 12.4533C1.57925 12.5199 1.47686 12.5933 1.37945 12.6729C1.23989 12.7934 1.14823 12.96 1.12118 13.1424C1.09413 13.3249 1.13348 13.5109 1.23207 13.6668C1.33066 13.8226 1.48192 13.9378 1.65832 13.9915C1.83472 14.0451 2.0245 14.0336 2.19312 13.959C2.32888 13.8931 2.45867 13.8155 2.58104 13.7272C7.68255 10.3335 12.7828 6.93883 17.8818 3.54324C18.6255 3.04924 18.8279 3.05018 19.5848 3.55271L34.8629 13.712C34.9857 13.8001 35.1151 13.8785 35.2499 13.9467C35.4189 14.0268 35.6114 14.0425 35.7911 13.9907C35.9709 13.939 36.1256 13.8235 36.2263 13.6658C36.327 13.5081 36.3666 13.319 36.3379 13.1341C36.3091 12.9493 36.2139 12.7812 36.0702 12.6615C35.972 12.5827 35.8693 12.5097 35.7627 12.4429C30.2001 8.74324 24.6387 5.04104 19.0787 1.3363C18.827 1.16785 18.6557 1.14703 18.3908 1.32684C15.2869 3.40886 12.1773 5.4811 9.06201 7.54356L8.904 7.64766C8.49149 7.91454 8.17643 7.89656 7.97869 7.59561C7.78095 7.29466 7.89165 6.99372 8.29848 6.72305C11.545 4.55965 14.7911 2.39719 18.037 0.235673C18.5157 -0.0842006 18.9576 -0.075684 19.4344 0.242297C25.1187 4.03157 30.8056 7.81706 36.495 11.5988C37.2055 12.072 37.5707 12.7212 37.4099 13.5918C37.2651 14.3716 36.7854 14.8694 36.0266 15.0738C35.459 15.2262 34.932 15.0956 34.4475 14.7691C33.9395 14.4275 33.4286 14.0906 32.8562 13.7101C32.8562 14.0167 32.8656 14.2514 32.8562 14.4843C32.8382 14.8505 32.6177 15.0871 32.3102 15.0928C32.0028 15.0984 31.7662 14.8666 31.7501 14.4994C31.7312 14.0716 31.7605 13.642 31.7331 13.2152C31.7253 13.1404 31.7027 13.0679 31.6666 13.002C31.6306 12.936 31.5818 12.8779 31.5231 12.8309C27.3387 10.0347 23.1511 7.24293 18.9604 4.45555C18.7806 4.3363 18.6652 4.34955 18.4958 4.46217C14.3177 7.24955 10.1393 10.0354 5.9606 12.8196C5.8956 12.8684 5.84149 12.9302 5.80173 13.001C5.76198 13.0719 5.73746 13.1503 5.72975 13.2313C5.71839 19.6287 5.71556 26.0262 5.72123 32.4237C5.72123 32.4842 5.73069 32.5458 5.73826 32.6328H13.4662V28.6003C12.8986 28.6003 12.3375 28.6117 11.7764 28.6003C10.9609 28.5814 10.3942 28.1442 10.2362 27.4193C10.206 27.2583 10.1933 27.0946 10.1983 26.9309C10.1983 23.7953 10.1983 20.6596 10.1983 17.524C10.1983 16.4962 10.8105 15.8802 11.8427 15.8792C15.1907 15.8792 18.5394 15.8792 21.8887 15.8792H22.4232C22.4232 15.3502 22.3854 14.8486 22.4317 14.3546C22.4853 13.8581 22.7209 13.3991 23.0931 13.0661C23.4652 12.7332 23.9474 12.55 24.4467 12.5519C24.946 12.5538 25.4268 12.7406 25.7964 13.0763C26.166 13.412 26.3982 13.8728 26.448 14.3697C26.4935 14.8543 26.4556 15.3455 26.4556 15.8792H36.899C38.1091 15.8792 38.6796 16.447 38.6796 17.6555V26.7984C38.6796 28.0619 38.1327 28.6041 36.8564 28.6041H26.5199V32.6395H31.7407V31.1423C31.7407 30.777 31.7322 30.4107 31.7407 30.0464C31.753 29.6253 31.9734 29.3839 32.3159 29.3962C32.6386 29.4057 32.8476 29.6451 32.8514 30.0455C32.859 30.8972 32.8514 31.7489 32.8514 32.6593C33.0407 32.6593 33.1949 32.6593 33.3529 32.6593C33.9944 32.6726 34.6425 32.6338 35.2745 32.7161C36.1184 32.8268 36.6804 33.5991 36.6284 34.448C36.6029 34.8475 36.4326 35.2241 36.1494 35.5071C35.8661 35.79 35.4895 35.9599 35.09 35.9849C34.9272 35.9972 34.7636 35.9991 34.5999 35.9991C24.0121 35.9991 13.424 35.9991 2.83554 35.9991C2.57196 36.0097 2.30805 35.989 2.04931 35.9376C1.68834 35.8409 1.37063 35.6251 1.14778 35.325C0.924939 35.025 0.81005 34.6584 0.821776 34.2848C0.833503 33.9112 0.971156 33.5526 1.21238 33.2671C1.4536 32.9816 1.78422 32.7861 2.15055 32.7123C2.34893 32.6779 2.55 32.6614 2.75134 32.6631C3.33037 32.6555 3.9094 32.6574 4.48843 32.6537C4.52108 32.6479 4.55287 32.6381 4.58304 32.6243V13.7376C4.28312 13.9316 4.00496 14.1161 3.73153 14.2931C3.47891 14.4587 3.23197 14.6338 2.97462 14.7947C1.82981 15.5139 0.519424 15.0502 0.0794744 13.7716C0.0510905 13.6921 0.0264916 13.6117 0 13.5313V12.9265ZM24.4385 16.9959H12.0158C11.3639 16.9959 11.3157 17.0414 11.3157 17.6726V26.8155C11.3157 27.4306 11.3914 27.5044 12.0149 27.5044H36.864C37.4875 27.5044 37.5641 27.4297 37.5641 26.8155V17.6735C37.5641 17.0423 37.5149 16.9959 36.864 16.9959H24.4385ZM14.6148 32.6395H22.3598V28.6325H14.6148V32.6395ZM22.3636 33.7751H2.77878C2.70309 33.7751 2.6274 33.7751 2.55265 33.7751C2.18082 33.7921 1.95564 33.988 1.94145 34.306C1.92631 34.6391 2.15055 34.8644 2.53751 34.8984C2.62456 34.906 2.71349 34.8984 2.80148 34.8984H22.3636V33.7751ZM23.5273 28.6249V34.8776H25.3638V28.6268L23.5273 28.6249ZM26.4916 34.8824C26.6089 34.8937 26.6581 34.9032 26.7073 34.9032C29.4132 34.9032 32.1188 34.9032 34.8241 34.9032C34.9372 34.9035 35.0496 34.886 35.1571 34.8511C35.4154 34.7641 35.5772 34.5578 35.5044 34.3041C35.4514 34.1149 35.2773 33.9445 35.1184 33.8111C35.0408 33.7458 34.8761 33.7789 34.7513 33.7789C32.1336 33.7789 29.516 33.7789 26.8984 33.7789C26.7754 33.7789 26.6524 33.7883 26.4916 33.7959V34.8824ZM25.3799 15.8678C25.3799 15.5007 25.3799 15.1656 25.3799 14.8268C25.3845 14.7141 25.381 14.6012 25.3695 14.489C25.3381 14.2706 25.2324 14.0698 25.0702 13.9203C24.908 13.7709 24.6993 13.6819 24.4792 13.6685C24.0307 13.6533 23.5794 13.9637 23.533 14.4114C23.481 14.8846 23.5207 15.3748 23.5207 15.865L25.3799 15.8678Z" fill="#B07FD8"/>
<path d="M18.739 13.7119C17.8164 13.7099 16.9321 13.3428 16.2792 12.6908C15.6263 12.0388 15.2579 11.1549 15.2544 10.2321C15.2544 8.32422 16.8524 6.73053 18.7409 6.74472C19.657 6.75769 20.5319 7.12748 21.1798 7.7755C21.8277 8.42353 22.1974 9.29871 22.2103 10.2151C22.2264 12.1201 20.6558 13.7025 18.739 13.7119ZM18.1562 9.66144V7.95797C17.3047 8.12927 16.5799 8.85987 16.4654 9.66144H18.1562ZM19.3095 7.95797V9.65387H20.9889C20.8905 8.87501 20.1468 8.12832 19.3095 7.9646V7.95797ZM16.4796 10.8075C16.5553 11.5797 17.351 12.3747 18.1543 12.4873V10.8141L16.4796 10.8075ZM20.986 10.8075H19.2783V12.51C20.1411 12.3501 20.8867 11.5996 20.986 10.8179V10.8075Z" fill="#662E93"/>
<path d="M25.6873 21.7892C25.6873 22.7355 25.6873 23.6794 25.6873 24.6207C25.6873 25.0106 25.5464 25.1583 25.184 25.1668C24.8056 25.1753 24.6419 25.0154 24.6409 24.6169C24.6409 23.0561 24.6409 21.4952 24.6409 19.9343C24.6409 19.693 24.6125 19.4308 24.9248 19.3523C25.237 19.2737 25.535 19.2766 25.7488 19.5576C25.8661 19.7214 25.9696 19.8945 26.0582 20.0753C26.483 20.8882 26.9031 21.704 27.326 22.5188C27.3582 22.5794 27.3998 22.6352 27.4982 22.7885C27.4982 21.739 27.4982 20.8012 27.4982 19.8633C27.4982 19.4346 27.6477 19.2955 28.0659 19.3144C28.4027 19.3305 28.5541 19.4895 28.5513 19.8406C28.5418 21.4144 28.5456 22.9882 28.5513 24.562C28.5513 24.8138 28.5456 25.0551 28.2457 25.1299C27.9278 25.2131 27.6326 25.1658 27.45 24.8658C27.2485 24.5327 27.0715 24.1825 26.8908 23.839L25.7734 21.757L25.6873 21.7892Z" fill="#662E93"/>
<path d="M18.2962 22.6078C18.6113 23.1946 18.9159 23.7576 19.2178 24.3217C19.424 24.7059 19.3729 24.9198 19.0342 25.1053C18.7144 25.2813 18.4892 25.1952 18.2849 24.8062C18.0105 24.2838 17.7418 23.7577 17.4722 23.2324C17.2025 22.7072 17.1968 22.6987 16.5459 22.7819C16.5459 23.3886 16.5459 24.0018 16.5459 24.6151C16.5459 25.0097 16.4106 25.1545 16.0473 25.163C15.6688 25.1715 15.5023 25.0125 15.5023 24.616C15.5023 23.0185 15.5023 21.4204 15.5023 19.8217C15.5023 19.4043 15.5969 19.3021 16.0104 19.3021C16.614 19.3021 17.2195 19.2955 17.8203 19.3381C18.6558 19.3977 19.1364 19.8255 19.2868 20.558C19.4373 21.2905 19.1988 22.2529 18.4183 22.5207C18.3745 22.5451 18.3335 22.5743 18.2962 22.6078ZM16.5724 20.2532V21.9207C16.8562 21.9207 17.123 21.9207 17.3851 21.9207C17.4731 21.9209 17.561 21.9149 17.6481 21.9028C18.0673 21.8356 18.2707 21.5763 18.2811 21.1012C18.2915 20.6261 18.0919 20.3034 17.703 20.2618C17.335 20.2267 16.9584 20.257 16.5724 20.257V20.2532Z" fill="#662E93"/>
<path d="M21.3039 20.222V21.8308C21.6483 21.8308 21.9832 21.8394 22.3182 21.8308C22.6153 21.8214 22.8168 21.9113 22.8149 22.2444C22.813 22.5775 22.5888 22.6551 22.3049 22.6523C21.9804 22.6523 21.6568 22.6523 21.3096 22.6523V24.2611C21.9832 24.2611 22.6455 24.2611 23.3088 24.2611C23.727 24.2611 23.8764 24.3898 23.8708 24.7343C23.8613 25.1043 23.639 25.1829 23.3135 25.1782C22.4837 25.1659 21.653 25.1782 20.8223 25.1725C20.336 25.1725 20.2405 25.0778 20.2405 24.6047C20.2405 23.0312 20.2405 21.4577 20.2405 19.8841C20.2405 19.4327 20.3351 19.3163 20.7836 19.3163C21.6644 19.305 22.5452 19.3163 23.4261 19.3163C23.7213 19.3163 23.866 19.4715 23.8698 19.7602C23.8736 20.0488 23.7412 20.2334 23.4195 20.2334C22.7278 20.2211 22.0372 20.222 21.3039 20.222Z" fill="#662E93"/>
<path d="M30.7747 20.2496C30.3906 20.2496 30.0651 20.2439 29.7396 20.2496C29.4142 20.2553 29.2874 20.0745 29.2845 19.7764C29.2817 19.4783 29.4094 19.3032 29.733 19.3032C30.7775 19.3032 31.8224 19.3032 32.8675 19.3032C33.1892 19.3032 33.3188 19.484 33.3141 19.783C33.3094 20.0821 33.1722 20.2562 32.8514 20.2496C32.5307 20.243 32.1986 20.2496 31.8164 20.2496V20.6726C31.8164 21.9824 31.8164 23.2919 31.8164 24.601C31.8164 25.0184 31.6782 25.1688 31.3007 25.1688C30.9232 25.1688 30.7775 25.0184 30.7766 24.601C30.7766 23.3171 30.7766 22.0329 30.7766 20.7483L30.7747 20.2496Z" fill="#662E93"/>
</g>
<defs>
<clipPath id="clip0_157_3">
<rect width="38.6777" height="36" fill="white"/>
</clipPath>
</defs>
</svg>
