<svg width="24" height="16" viewBox="0 0 24 16" fill="none" xmlns="http://www.w3.org/2000/svg">
<g clip-path="url(#clip0_245_225)">
<path d="M0 6.72941C0.0475 6.4785 0.084375 6.22257 0.145 5.97354C0.348125 5.13487 0.60625 4.31439 1.02938 3.55664C1.35813 2.96825 1.77938 2.46015 2.34188 2.07939C2.53486 1.94496 2.76513 1.87495 3 1.87929C6.06917 1.88473 9.13833 1.88598 12.2075 1.88306H12.5163C12.5163 1.58949 12.5163 1.31035 12.5163 1.03121C12.5163 0.389505 12.8994 0.00247526 13.5325 0.0012207C14.11 0.0012207 14.6879 0.0012207 15.2663 0.0012207C15.8719 0.0012207 16.2613 0.393269 16.2663 1.00048C16.2663 1.28212 16.2663 1.56503 16.2663 1.85859C16.3106 1.8726 16.3567 1.87999 16.4031 1.88055C16.8481 1.81782 17.1875 2.02921 17.5025 2.3002C18.3 2.98644 18.7706 3.87906 19.0763 4.86702C19.5169 6.29283 19.6012 7.75878 19.52 9.23915C19.5044 9.52017 19.4769 9.80371 19.4531 10.0998H21.1719V9.18521C21.0881 9.18145 21.0044 9.18145 20.9219 9.17266C20.8033 9.16456 20.6922 9.11163 20.611 9.02455C20.5298 8.93747 20.4846 8.82272 20.4844 8.70346C20.4827 8.58425 20.5275 8.46909 20.6092 8.38259C20.691 8.29608 20.8032 8.2451 20.9219 8.24053C21.4056 8.22861 21.8906 8.22923 22.3744 8.24053C22.4931 8.24311 22.6062 8.29182 22.6899 8.3764C22.7736 8.46099 22.8214 8.57485 22.8231 8.69405C22.8251 8.81669 22.7794 8.93528 22.6957 9.02472C22.6121 9.11416 22.4971 9.16744 22.375 9.17329C22.2987 9.17956 22.2219 9.17329 22.1344 9.17329V10.1594C22.8006 10.3262 23.34 10.6825 23.6731 11.2929C23.8162 11.5557 23.8912 11.8574 23.9975 12.1391V14.492C23.8587 14.746 23.6488 14.8357 23.36 14.8263C22.8213 14.8088 22.2819 14.8263 21.7431 14.8207C21.3581 14.8207 21.1875 14.6463 21.1856 14.2561C21.1856 13.8264 21.1856 13.3961 21.1856 12.9483C21.0956 12.9439 21.02 12.937 20.945 12.937C20.2419 12.937 19.5387 12.9414 18.8363 12.9326C18.6831 12.9326 18.6119 12.9878 18.5238 13.1107C18.2456 13.5059 17.9681 13.9061 17.6425 14.2605C17.2906 14.6425 16.8663 14.9279 16.2619 14.7975C16.2619 15.0277 16.2619 15.2278 16.2619 15.4279C16.2588 15.8174 16.0894 15.9924 15.7081 15.9924C14.5906 15.9924 13.4735 15.9924 12.3569 15.9924C11.9875 15.9924 11.8131 15.8143 11.8094 15.4442C11.8094 15.2422 11.8094 15.0409 11.8094 14.8282H7.73438C7.73438 15.0365 7.73438 15.2447 7.73438 15.4555C7.73 15.8118 7.55375 15.9937 7.20125 15.9949C6.06875 15.9975 4.93625 15.9975 3.80375 15.9949C3.46563 15.9949 3.28938 15.8068 3.2825 15.468C3.2825 15.3658 3.2825 15.2642 3.2825 15.1619V14.8483C3.23845 14.8339 3.19255 14.8261 3.14625 14.8251C2.69187 14.8878 2.34938 14.6683 2.02938 14.3897C1.1575 13.6314 0.69125 12.6334 0.3875 11.5457C0.371875 11.4866 0.368143 11.425 0.376521 11.3644C0.3849 11.3039 0.405221 11.2456 0.436296 11.1931C0.467372 11.1405 0.508579 11.0947 0.557506 11.0583C0.606434 11.0219 0.6621 10.9957 0.72125 10.9811C0.95875 10.9152 1.18875 11.052 1.29062 11.3104C1.46437 11.7539 1.60312 12.2156 1.83062 12.6309C2.01812 12.9834 2.30125 13.2895 2.56 13.6006C2.7625 13.8446 3.03063 13.9544 3.36375 13.8597C3.65563 13.1954 4.18187 12.9081 4.90875 12.9395C5.31437 12.9564 5.72125 12.9552 6.12687 12.9395C6.84562 12.9119 7.36312 13.2023 7.66375 13.8835H9.2975C10.1025 13.8835 10.9069 13.8835 11.7113 13.8835C11.8319 13.8835 11.8988 13.8584 11.9613 13.7367C12.2238 13.2148 12.6581 12.9483 13.2412 12.942C13.7881 12.9357 14.335 12.9313 14.8813 12.942C15.415 12.9539 15.8187 13.2029 16.0875 13.6677C16.2237 13.9036 16.5325 13.9933 16.7362 13.7932C17.0594 13.4796 17.3875 13.1559 17.63 12.782C18.1625 11.9584 18.3837 11.015 18.505 10.0534C18.6881 8.58114 18.6594 7.11331 18.33 5.65927C18.2294 5.21265 18.205 5.19195 17.7437 5.17439C17.3436 5.16143 16.9473 5.25723 16.5969 5.45164C15.5525 6.01306 14.5113 6.0162 13.465 5.45541C12.7581 5.0759 12.0431 5.07904 11.3363 5.45541C10.2981 6.00992 9.26437 6.01557 8.22625 5.45917C7.51062 5.0759 6.78875 5.07841 6.07625 5.45917C5.03688 6.01431 4.00375 6.0093 2.96562 5.45478C2.505 5.20889 2.015 5.09786 1.49625 5.22143C1.42188 5.239 1.31687 5.31302 1.30375 5.377C1.18813 5.93465 1.06688 6.49293 0.994375 7.05748C0.945625 7.442 0.880625 7.6145 0.619375 7.68162C0.3775 7.74435 0.19 7.63959 0.00187492 7.33536L0 6.72941ZM1.69438 4.23661C2.29767 4.21524 2.89573 4.35577 3.42688 4.64371C4.15729 5.03597 4.88833 5.03597 5.62 4.64371C6.63312 4.103 7.65188 4.09798 8.66625 4.63869C9.40688 5.03262 10.1394 5.0345 10.8806 4.63869C11.8944 4.09861 12.9131 4.103 13.9269 4.64371C14.6587 5.03388 15.3787 5.02008 16.1244 4.65186C16.49 4.47309 16.8988 4.37712 17.2944 4.26483C17.4506 4.2203 17.6231 4.2341 17.8056 4.21967C17.5801 3.75133 17.261 3.33455 16.8681 2.99522C16.7329 2.87741 16.5584 2.81494 16.3794 2.82021C12.0906 2.82586 7.80188 2.8384 3.51375 2.80829C2.93688 2.80453 2.56375 3.0153 2.24813 3.43557C2.06625 3.67206 1.90375 3.93049 1.69438 4.23661ZM19.2938 11.0583C19.2056 11.3775 19.1238 11.6768 19.035 11.9992H21.4544C21.9956 11.9992 22.125 12.1309 22.125 12.6823V13.8622H23.0625C23.0625 13.3654 23.0725 12.8874 23.0625 12.4107C23.0524 12.1029 22.9406 11.8072 22.7448 11.5701C22.5489 11.333 22.2801 11.1679 21.9806 11.1009C21.8668 11.0749 21.7505 11.0612 21.6338 11.0601C20.8506 11.057 20.0719 11.0583 19.2938 11.0583ZM6.79375 15.0484C6.79375 14.8031 6.79937 14.5842 6.79375 14.3659C6.78437 14.0805 6.60625 13.8892 6.32375 13.8848C5.77708 13.8768 5.23042 13.8768 4.68375 13.8848C4.4425 13.8879 4.24625 14.0498 4.22875 14.2775C4.20813 14.5284 4.22375 14.7881 4.22375 15.0484H6.79375ZM15.32 15.0484C15.32 14.7887 15.3344 14.539 15.3162 14.2919C15.3074 14.1803 15.2563 14.0764 15.1736 14.0013C15.0909 13.9262 14.9828 13.8856 14.8713 13.8879C14.3167 13.8791 13.7623 13.8791 13.2081 13.8879C12.9781 13.8879 12.7825 14.0454 12.7631 14.2643C12.7387 14.5252 12.7575 14.7893 12.7575 15.0509L15.32 15.0484ZM13.4631 0.953429V1.87051H15.3125V0.951548L13.4631 0.953429Z" fill="#B07FD8"/>
<path d="M11.695 9.95495C11.5825 11.0458 10.6644 11.8531 9.60875 11.7584C8.5775 11.6655 7.785 10.7202 7.925 9.71344C7.9604 9.44157 8.05331 9.18043 8.1975 8.94754C8.5725 8.36605 8.98312 7.80213 9.40375 7.25012C9.60812 6.98227 9.91187 6.98541 10.1312 7.23193C10.6425 7.80526 11.1187 8.40808 11.435 9.11377C11.5537 9.38036 11.61 9.67393 11.695 9.95495ZM9.82812 8.26569H9.71937C9.455 8.69725 9.16937 9.11816 8.93187 9.56415C8.73187 9.94052 8.865 10.3671 9.20625 10.6305C9.36854 10.7557 9.5675 10.8236 9.77219 10.8236C9.97687 10.8236 10.1758 10.7557 10.3381 10.6305C10.6812 10.3677 10.8144 9.94052 10.6137 9.56415C10.375 9.11878 10.0919 8.69788 9.82812 8.26569Z" fill="#662E93"/>
<path d="M0.0393753 9.34155C0.039108 9.28076 0.0509861 9.22054 0.0743075 9.16443C0.0976288 9.10833 0.13192 9.05749 0.175154 9.01492C0.218388 8.97234 0.269687 8.9389 0.32602 8.91657C0.382352 8.89424 0.442574 8.88346 0.503126 8.88489C0.625505 8.88503 0.742949 8.93333 0.83024 9.01942C0.917532 9.1055 0.96771 9.22251 0.970001 9.34531C0.968028 9.4721 0.916329 9.59299 0.82612 9.68177C0.735911 9.77054 0.614465 9.82005 0.488125 9.81954C0.365777 9.81495 0.250134 9.76226 0.166171 9.67282C0.0822084 9.58339 0.0366642 9.4644 0.0393753 9.34155Z" fill="#662E93"/>
</g>
<defs>
<clipPath id="clip0_245_225">
<rect width="24" height="16" fill="white"/>
</clipPath>
</defs>
</svg>
