<svg width="17" height="16" viewBox="0 0 17 16" fill="none" xmlns="http://www.w3.org/2000/svg">
<g clip-path="url(#clip0_182_125)">
<path d="M7.09522e-07 7.04863C0.0246118 6.95476 0.0485197 6.86088 0.0741855 6.76736C0.187876 6.36607 0.426324 6.01138 0.755009 5.75463C1.08369 5.49787 1.48556 5.35238 1.90244 5.33922C2.19601 5.33254 2.48994 5.33922 2.77472 5.33922C2.63901 5.09943 2.45829 4.88215 2.39114 4.63604C2.30395 4.31961 2.12183 4.12308 1.88134 3.92197C1.35748 3.48495 1.13 2.89463 1.12226 2.21924C1.11594 1.68201 1.1184 1.14479 1.12226 0.607564C1.12508 0.232421 1.3522 0.00424105 1.7284 0.00424105C2.82992 0.00213153 3.93179 0.000373594 5.03331 0.00424105C5.77622 0.00705374 6.37884 0.306957 6.83801 0.891646C6.97056 1.06041 6.96458 1.21546 6.82781 1.32621C6.69105 1.43696 6.53389 1.40707 6.40239 1.24007C6.03323 0.772106 5.55155 0.558341 4.95807 0.562209C3.92757 0.568889 2.89707 0.562209 1.86657 0.562209H1.71223C1.69816 0.582601 1.68656 0.591391 1.68656 0.60018C1.69324 1.2355 1.68656 1.87152 1.71434 2.50578C1.73121 2.87143 1.96783 3.25642 2.23187 3.45928C2.23609 3.40408 2.24242 3.35838 2.24277 3.31267C2.24277 2.97831 2.24031 2.64466 2.24277 2.30924C2.24558 2.0772 2.34473 1.96996 2.56904 1.96715C3.01837 1.96152 3.46782 1.96152 3.91738 1.96715C4.11567 1.96926 4.23803 2.08599 4.23381 2.24842C4.22959 2.41085 4.10934 2.5216 3.90894 2.52582C3.60763 2.5318 3.30632 2.52582 3.00466 2.52582H2.8366C2.81972 2.54973 2.80812 2.55852 2.80812 2.56731C2.8134 3.09855 2.79054 3.63191 2.83379 4.15999C2.87985 4.72253 3.3784 5.20526 3.93214 5.30054C3.99724 5.30911 4.06164 5.32238 4.12481 5.34027C4.18692 5.3563 4.24126 5.39397 4.27806 5.4465C4.31486 5.49903 4.33171 5.56297 4.32557 5.62681C4.31819 5.76745 4.23345 5.85886 4.09212 5.88558C4.03785 5.89309 3.98301 5.89568 3.92828 5.89332C3.28698 5.89332 2.64534 5.8898 2.00404 5.89332C1.31423 5.89859 0.788609 6.29448 0.611058 6.94808C0.574143 7.10431 0.557832 7.26471 0.562539 7.42518C0.559023 9.18475 0.55832 10.9446 0.56043 12.7046C0.56043 12.7429 0.56043 12.7816 0.56043 12.8199C0.56711 12.9785 0.537577 13.1177 0.365299 13.1771C0.193022 13.2366 0.0900068 13.129 -0.000350952 13.0045L7.09522e-07 7.04863Z" fill="#B07FD8"/>
<path d="M6.82992 8.14088C6.39501 7.76012 6.12323 7.33892 5.9819 6.83298C5.95804 6.77382 5.9151 6.72432 5.8599 6.69235C5.13317 6.22966 4.78158 5.56235 4.77279 4.70975C4.76611 4.00236 4.76998 3.29497 4.77279 2.58757C4.77279 2.20364 4.98796 1.96984 5.36557 1.96913C6.89497 1.96667 8.42437 1.95155 9.95412 1.98144C11.0817 2.00359 12.0056 2.93881 12.0636 4.0674C12.0893 4.55962 12.1125 5.05536 11.935 5.53141C11.7574 6.00746 11.4593 6.39209 11.0244 6.66071C10.9775 6.68706 10.9364 6.72264 10.9037 6.7653C10.8709 6.80796 10.8471 6.85682 10.8338 6.90893C10.6977 7.38568 10.4274 7.77875 10.0251 8.13174C10.1113 8.13561 10.1658 8.13878 10.2203 8.14053C10.5923 8.15425 10.9723 8.12366 11.3344 8.19011C12.2816 8.36379 12.9074 9.15275 12.9127 10.1572C12.9219 11.9834 12.9155 13.8095 12.9145 15.6357C12.916 15.6904 12.9099 15.745 12.8965 15.7981C12.8839 15.858 12.85 15.9114 12.8011 15.9482C12.7521 15.9851 12.6915 16.003 12.6304 15.9985C12.4947 15.9964 12.4001 15.9261 12.3702 15.7918C12.3561 15.7164 12.3502 15.6398 12.3526 15.5632C12.3526 13.7863 12.3526 12.0096 12.3526 10.2332C12.3526 9.73181 12.199 9.30956 11.795 8.99489C11.5236 8.78394 11.2093 8.70377 10.8732 8.70342C9.23946 8.70178 7.60564 8.70178 5.9717 8.70342C5.23864 8.70553 4.70599 9.11021 4.53617 9.79158C4.50335 9.94697 4.4893 10.1057 4.49433 10.2645C4.49152 12.014 4.49094 13.7633 4.49258 15.5126C4.49258 15.5618 4.49258 15.6114 4.49258 15.6606C4.48484 15.8768 4.3871 15.9967 4.21588 15.9995C4.04008 16.002 3.93707 15.8772 3.93004 15.6525C3.93004 15.6364 3.93004 15.6198 3.93004 15.6033C3.93004 13.7993 3.92722 11.995 3.93004 10.191C3.9325 9.17138 4.53828 8.3884 5.49284 8.19222C5.76813 8.13526 6.0596 8.15284 6.34368 8.14159C6.48959 8.13596 6.63585 8.14088 6.82992 8.14088ZM6.45478 4.22316V4.40704C6.45478 4.95516 6.44247 5.50363 6.46005 6.05141C6.46697 6.31318 6.50678 6.57305 6.57854 6.8249C6.84856 7.73902 7.91211 8.33109 8.83572 8.10291C9.78817 7.867 10.3802 7.12374 10.3887 6.14247C10.394 5.54477 10.3887 4.94707 10.3887 4.34937C10.3887 4.30754 10.3809 4.2657 10.3767 4.22245L6.45478 4.22316ZM5.34201 2.52886C5.33709 2.57597 5.33287 2.59707 5.33287 2.61816C5.33287 3.34173 5.32267 4.06564 5.3392 4.78886C5.34412 5.00297 5.40354 5.22201 5.47421 5.42628C5.55373 5.65594 5.69927 5.85701 5.89259 6.00429V5.81338C5.89259 5.2274 5.89259 4.64084 5.89259 4.05369C5.89259 3.74148 5.98084 3.65253 6.29235 3.65253H10.5515C10.863 3.65253 10.9512 3.74148 10.9516 4.05369C10.9516 4.64576 10.9516 5.23772 10.9516 5.82955C10.9516 5.88053 10.9568 5.93151 10.9611 6.00535C11.0127 5.95648 11.0469 5.9294 11.0746 5.89706C11.1234 5.84514 11.1676 5.78915 11.2068 5.7297C11.6347 5.01704 11.6372 4.2548 11.3411 3.51998C11.0687 2.84423 10.4931 2.52956 9.75899 2.52956C8.33928 2.52956 6.91969 2.52956 5.50022 2.52956L5.34201 2.52886Z" fill="#B07FD8"/>
<path d="M13.5522 5.89998C13.2921 5.89998 13.0618 5.90209 12.8318 5.89998C12.6427 5.89752 12.5239 5.79451 12.513 5.63735C12.5031 5.49003 12.6037 5.36592 12.7798 5.33745C13.2984 5.25412 13.6894 4.9943 13.9049 4.51051C13.9743 4.35598 14.0137 4.18965 14.0209 4.0204C14.0357 3.53416 14.0262 3.04686 14.0262 2.54128C13.9689 2.53776 13.9116 2.53108 13.8539 2.53108C13.3497 2.53108 12.8452 2.53108 12.3421 2.53108C12.2712 2.53301 12.2003 2.52604 12.1311 2.51034C11.9986 2.47518 11.9318 2.37885 11.935 2.24243C11.9321 2.18136 11.9518 2.12138 11.9902 2.07383C12.0286 2.02627 12.0831 1.99445 12.1434 1.98437C12.2026 1.97276 12.2629 1.96781 12.3231 1.9696C12.9482 1.9696 13.5732 1.9696 14.1981 1.9696C14.5107 1.9696 14.6024 2.06031 14.601 2.3697C14.5986 2.95052 14.607 3.5324 14.5838 4.11252C14.5666 4.54743 14.3848 4.9275 14.0916 5.25236C14.0744 5.2717 14.0592 5.29315 14.0279 5.33323H15.153C15.1555 5.29209 15.1611 5.24428 15.1611 5.19681C15.1611 4.41805 15.1653 3.63928 15.1611 2.86087C15.1548 1.75408 14.4762 0.846279 13.4095 0.634976C12.6009 0.475004 11.7781 0.46516 11.057 0.986562C10.9073 1.0945 10.7775 1.23267 10.6436 1.3603C10.4984 1.50093 10.3472 1.52062 10.2217 1.40741C10.0962 1.2942 10.1004 1.12614 10.2382 0.972147C10.8007 0.348081 11.4983 0.0228634 12.3389 0.00844832C12.8371 0.001065 13.3367 -0.0179205 13.8184 0.154708C14.9871 0.566768 15.7159 1.59867 15.7226 2.85595C15.727 3.69976 15.727 4.54415 15.7226 5.38913C15.7226 5.48933 15.7511 5.54523 15.839 5.59586C16.4971 5.97663 16.8234 6.5578 16.8442 7.31125C16.8533 7.63999 16.8459 7.96907 16.8459 8.29816C16.8459 9.79521 16.8459 11.2922 16.8459 12.789C16.8459 13.0558 16.7513 13.1944 16.5685 13.1965C16.3857 13.1986 16.2872 13.0586 16.2872 12.7949C16.2872 10.9854 16.2872 9.17583 16.2872 7.3661C16.2872 6.7445 16.0225 6.27231 15.4466 6.01741C15.2627 5.93585 15.0444 5.91862 14.8394 5.90139C14.6344 5.88416 14.3845 5.83424 14.2276 5.9253C14.0708 6.01636 14.0051 6.26212 13.9042 6.44283C13.6155 6.95931 13.33 7.4772 13.0428 7.99439C13.0207 8.03852 12.9952 8.08084 12.9665 8.12096C12.8779 8.23311 12.7629 8.26933 12.6314 8.20885C12.4908 8.14522 12.4448 8.02779 12.4789 7.88258C12.4962 7.82492 12.5214 7.76991 12.5537 7.71909C12.8585 7.16804 13.1642 6.61722 13.471 6.06664C13.4932 6.02058 13.5157 5.97206 13.5522 5.89998Z" fill="#B07FD8"/>
<path d="M9.58073 13.8054C9.52202 13.9084 9.48264 14.0325 9.40002 14.1113C9.15391 14.3454 8.89444 14.5641 8.63602 14.7846C8.48097 14.9164 8.3646 14.9171 8.2106 14.7863C7.95605 14.5697 7.70889 14.3451 7.45399 14.1292C7.39806 14.0849 7.35484 14.0266 7.32872 13.9603C7.3026 13.8939 7.29451 13.8218 7.30527 13.7512C7.37804 13.0101 7.4459 12.2686 7.51798 11.5275C7.54259 11.2712 7.57669 11.0156 7.58829 10.7589C7.59321 10.6534 7.5563 10.5444 7.53028 10.4389C7.46453 10.1735 7.39211 9.90981 7.32566 9.64436C7.2789 9.45767 7.35378 9.31211 7.51481 9.26641C7.67584 9.2207 7.81507 9.31668 7.86394 9.50373C7.93004 9.75757 7.99508 10.0121 8.04957 10.2688C8.06962 10.3644 8.1104 10.3957 8.20357 10.3915C8.38323 10.3827 8.60754 10.4453 8.73095 10.3595C8.84135 10.2825 8.8424 10.0462 8.88846 9.87957C8.92186 9.75863 8.94823 9.63522 8.98198 9.51428C9.03542 9.32231 9.16762 9.23054 9.32829 9.26816C9.49952 9.31 9.58214 9.45415 9.53397 9.65491C9.46366 9.9418 9.35466 10.2231 9.31951 10.5135C9.28435 10.8039 9.30614 11.1003 9.32935 11.3925C9.39193 12.1895 9.46998 12.9855 9.5403 13.7815L9.58073 13.8054ZM8.12868 10.9621C8.11708 10.9797 8.10653 10.9885 8.10583 10.9973C8.0252 11.8908 7.94597 12.7844 7.86816 13.6781C7.86669 13.6989 7.86942 13.7197 7.87618 13.7394C7.88295 13.7591 7.89361 13.7772 7.90753 13.7927C8.07454 13.94 8.24752 14.081 8.42155 14.2269C8.57977 14.0951 8.72216 13.9668 8.8751 13.8532C8.96792 13.7829 8.98374 13.7076 8.97249 13.5997C8.91588 13.0611 8.86701 12.5217 8.81463 11.9824C8.78123 11.6417 8.74642 11.301 8.71231 10.9611L8.12868 10.9621Z" fill="#662E93"/>
<path d="M2.24348 10.6848C2.24348 11.3814 2.24348 12.0778 2.24348 12.7739C2.24477 12.8287 2.24324 12.8835 2.23891 12.9381C2.22379 13.0921 2.12851 13.1734 1.98331 13.1934C1.85463 13.2113 1.73192 13.1139 1.69782 12.9737C1.68632 12.9203 1.68113 12.8658 1.68235 12.8112C1.68235 11.3854 1.68235 9.95997 1.68235 8.53487C1.68116 8.46928 1.68908 8.40385 1.7059 8.34044C1.71999 8.28078 1.75556 8.2284 1.80583 8.19331C1.85609 8.15823 1.91752 8.14289 1.97838 8.15023C2.04263 8.14978 2.10471 8.17344 2.15236 8.21653C2.20001 8.25962 2.22976 8.31902 2.23574 8.38298C2.24279 8.44283 2.24526 8.50313 2.24313 8.56335C2.2436 9.27051 2.24371 9.97766 2.24348 10.6848Z" fill="#662E93"/>
<path d="M14.6007 10.6687C14.6007 9.96689 14.6007 9.26512 14.6007 8.56335C14.5984 8.50314 14.6008 8.44285 14.6077 8.38299C14.6139 8.31909 14.6437 8.25978 14.6913 8.21672C14.7389 8.17366 14.8009 8.14995 14.8651 8.15024C14.926 8.14288 14.9875 8.15821 15.0378 8.19329C15.0881 8.22837 15.1238 8.28076 15.1379 8.34045C15.1547 8.40373 15.1627 8.46905 15.1615 8.53452C15.1629 9.96033 15.1629 11.3858 15.1615 12.8109C15.1626 12.8656 15.1573 12.9202 15.1457 12.9737C15.1105 13.1143 14.9892 13.2113 14.8605 13.1934C14.7153 13.1734 14.6197 13.0921 14.6049 12.9381C14.5989 12.8784 14.6003 12.8179 14.6003 12.7574C14.6006 12.0606 14.6007 11.3643 14.6007 10.6687Z" fill="#662E93"/>
<path d="M5.6173 13.4753C5.6173 12.7791 5.6173 12.083 5.6173 11.3869C5.61577 11.3266 5.61777 11.2662 5.62328 11.2061C5.64121 11.0585 5.74176 10.9621 5.88275 10.96C6.03498 10.9572 6.13167 11.0328 6.16402 11.1822C6.17521 11.2413 6.18028 11.3014 6.17913 11.3615C6.17913 12.77 6.17913 14.1786 6.17913 15.5873C6.17913 15.6094 6.17913 15.6312 6.17913 15.653C6.17316 15.8759 6.06874 16.0028 5.89294 16.0007C5.71715 15.9986 5.61871 15.8766 5.61835 15.6463C5.61648 14.9221 5.61613 14.1984 5.6173 13.4753Z" fill="#662E93"/>
<path d="M11.2272 13.4984C11.2272 14.1894 11.2272 14.88 11.2272 15.5703C11.2286 15.6306 11.2265 15.691 11.2209 15.751C11.203 15.8987 11.1017 15.9972 10.9618 15.9972C10.8095 15.9993 10.7135 15.9226 10.6805 15.7735C10.6698 15.72 10.6648 15.6654 10.6657 15.6108C10.6657 14.1857 10.6657 12.7606 10.6657 11.3355C10.6651 11.2809 10.6706 11.2264 10.6823 11.173C10.7174 11.024 10.8162 10.9519 10.9681 10.9579C11.035 10.9582 11.0991 10.9851 11.1463 11.0326C11.1935 11.0801 11.2199 11.1444 11.2198 11.2114C11.23 11.4466 11.2262 11.6825 11.2265 11.918C11.2274 12.4457 11.2277 12.9725 11.2272 13.4984Z" fill="#662E93"/>
<path d="M3.73138 7.01805C3.78869 7.24412 3.84072 7.4498 3.89276 7.65583C3.90331 7.69837 3.91596 7.74021 3.92335 7.78346C3.95218 7.95679 3.87448 8.09426 3.72786 8.13188C3.57 8.17266 3.42902 8.09321 3.37628 7.91601C3.3151 7.70505 3.26834 7.49164 3.2149 7.27963C3.17974 7.13619 3.13896 6.99379 3.10591 6.85C3.05387 6.62217 3.16603 6.46325 3.39702 6.45973C3.8024 6.45235 4.20813 6.45411 4.61351 6.45973C4.7988 6.4622 4.91904 6.57927 4.92045 6.73714C4.92045 6.90062 4.79598 7.01524 4.60156 7.01841C4.31959 7.02052 4.03585 7.01805 3.73138 7.01805Z" fill="#B07FD8"/>
</g>
<defs>
<clipPath id="clip0_182_125">
<rect width="16.8473" height="16" fill="white"/>
</clipPath>
</defs>
</svg>
