<svg width="16" height="16" viewBox="0 0 16 16" fill="none" xmlns="http://www.w3.org/2000/svg">
<g clip-path="url(#clip0_342_178)">
<path d="M16 13.0312V16H0V0H16V10.4062C15.9894 10.4169 15.9795 10.4284 15.9704 10.4404C15.8725 10.5929 15.7463 10.6529 15.6071 10.6133C15.4583 10.5717 15.3775 10.4517 15.3754 10.2663C15.3696 10.157 15.3696 10.0476 15.3754 9.93833C15.3883 9.8 15.3392 9.69208 15.2604 9.58042C14.5825 8.61833 13.9496 7.62792 13.4271 6.57042C13.0854 5.87875 12.7758 5.17292 12.6479 4.40583C12.5437 3.78083 12.4908 3.145 12.3638 2.52458C12.2325 1.885 12.0383 1.25792 11.8738 0.632083H10.3954C10.5204 0.984167 10.6517 1.32792 10.7617 1.67875C10.9396 2.24417 10.9192 2.7975 10.615 3.3225C10.0517 4.29458 8.93708 4.40208 8.21 3.54792C7.99083 3.29042 7.79708 3.01167 7.59083 2.74375C7.07 2.06792 6.54917 1.39125 6.02375 0.72C5.9989 0.692782 5.96892 0.670745 5.93553 0.655156C5.90213 0.639568 5.86599 0.630736 5.82917 0.629167C5.1575 0.6225 4.48542 0.625 3.81375 0.625416C3.77541 0.628427 3.73729 0.633714 3.69958 0.64125C3.75333 0.6925 3.79125 0.727917 3.82792 0.76625C4.45625 1.385 5.04792 2.03208 5.52 2.78375C5.965 3.49208 6.05542 4.225 5.74167 5.0025C5.555 5.465 5.35708 5.92375 5.1725 6.38708C4.90458 7.06 4.76 7.74958 4.90458 8.4775C4.98792 8.90583 5.17333 9.29417 5.36 9.68583C6.20583 11.4496 6.70833 13.2967 6.6875 15.2692C6.68923 15.3062 6.69326 15.3431 6.69958 15.3796C7.31208 15.3796 7.91583 15.3763 8.51917 15.3825C8.62667 15.3825 8.67375 15.3446 8.71833 15.255C9.15458 14.3729 9.25333 13.4354 9.17125 12.4708C9.09958 11.6333 8.89708 10.82 8.7 10.0058C8.5425 9.35625 8.42125 8.70292 8.47833 8.02875C8.51292 7.61958 8.53792 7.20917 8.57042 6.79958C8.5766 6.70614 8.59166 6.6135 8.61542 6.52292C8.68425 6.28358 8.8264 6.07184 9.02185 5.9175C9.2173 5.76315 9.45622 5.67397 9.705 5.6625C10.2496 5.64 10.7137 5.95417 10.8992 6.48917C11.3663 7.83153 11.9863 9.11568 12.7471 10.3162C13.3979 11.3475 14.1471 12.2971 15.0804 13.0925C15.1692 13.1683 15.2625 13.2392 15.3775 13.3313C15.3775 13.2354 15.3733 13.1738 15.3775 13.1129C15.3823 13.0314 15.4188 12.955 15.4791 12.8999C15.5394 12.8448 15.6188 12.8154 15.7004 12.8179C15.8496 12.8188 15.9275 12.9213 16 13.0312ZM1.655 0.625C1.7025 0.699583 1.73417 0.75 1.7675 0.801667C2.15208 1.385 2.50417 1.98417 2.76042 2.63708C3.01042 3.27375 3.07625 3.90375 2.83583 4.5675C2.6582 5.0777 2.51017 5.59773 2.3925 6.125C2.16042 7.105 2.11917 8.09083 2.375 9.07708C2.56333 9.80417 2.93833 10.4346 3.35125 11.0521C4.04708 12.0938 4.52958 13.2263 4.72625 14.4688C4.77292 14.7646 4.79833 15.0642 4.83375 15.3633H6.05583C6.08122 14.795 6.04855 14.2255 5.95833 13.6637C5.75026 12.2882 5.31978 10.9556 4.68375 9.71833C4.15875 8.69333 4.07625 7.62875 4.45875 6.54292C4.65333 5.98958 4.88042 5.44667 5.11458 4.90833C5.41583 4.21375 5.32708 3.58333 4.90042 2.96458C4.30708 2.10417 3.57917 1.37167 2.81125 0.672916C2.77604 0.643715 2.73199 0.62727 2.68625 0.62625C2.35333 0.625 2.02042 0.625 1.655 0.625ZM4.18125 15.3671C4.18125 15.2933 4.18625 15.2267 4.18125 15.1608C4.13437 14.6059 4.02592 14.058 3.85792 13.5271C3.56917 12.6104 3.10208 11.7863 2.56625 10.9921C1.70833 9.71167 1.44625 8.29167 1.64125 6.775C1.7475 5.94542 1.97458 5.14417 2.24583 4.35833C2.4175 3.86542 2.38375 3.40292 2.20417 2.93C1.9075 2.15583 1.46625 1.465 1.00292 0.78375C0.905 0.639583 0.800417 0.595 0.627917 0.642084V0.820417C0.627917 4.12181 0.626389 7.4232 0.623334 10.7246C0.619435 10.8156 0.635463 10.9063 0.670298 10.9904C0.705132 11.0746 0.757931 11.1501 0.825 11.2117C1.7 12.0933 2.45708 13.0625 2.96042 14.2075C3.12458 14.5825 3.24458 14.9742 3.38792 15.3671H4.18125ZM15.375 15.375C15.375 14.9646 15.3779 14.5796 15.3713 14.1942C15.3653 14.136 15.3369 14.0825 15.2921 14.045C15.1517 13.9292 15.0004 13.8292 14.8567 13.7154C13.7596 12.8337 12.9033 11.745 12.1633 10.5592C11.4087 9.34913 10.7893 8.05987 10.3162 6.71458C10.2075 6.40583 9.95833 6.24167 9.67542 6.2875C9.37583 6.33625 9.19708 6.56708 9.19208 6.90083C9.19295 7.09326 9.18377 7.28561 9.16458 7.47708C9.0925 8.06833 9.04708 8.65708 9.1775 9.2475C9.3575 10.065 9.54625 10.8808 9.69958 11.7033C9.87333 12.6325 9.88667 13.5671 9.65333 14.4917C9.57875 14.7871 9.47125 15.075 9.37833 15.3667H10.9538C10.96 15.3188 10.9654 15.2783 10.9696 15.2379C11.0413 14.5742 10.9667 13.9179 10.8575 13.2646C10.7054 12.355 10.4533 11.4704 10.1808 10.5908C10.1436 10.4783 10.1313 10.359 10.1446 10.2413C10.1651 10.1251 10.2216 10.0184 10.3061 9.93619C10.3906 9.85394 10.4988 9.80033 10.6154 9.78292C10.8725 9.74125 11.0737 9.84542 11.2129 10.0846C11.7337 10.9729 12.2433 11.8679 12.7788 12.7471C13.3139 13.6282 13.912 14.4696 14.5683 15.2646C14.6054 15.3096 14.6588 15.3692 14.7075 15.3721C14.9242 15.3813 15.1421 15.375 15.375 15.375ZM15.3333 8.60375L15.375 8.58625C15.375 7.99333 15.375 7.40042 15.3725 6.80708C15.3673 6.75078 15.3498 6.6963 15.3212 6.6475C14.5071 5.01792 13.9246 3.30417 13.4679 1.54458C13.3888 1.24 13.3167 0.93375 13.2438 0.637083H12.5117C12.5312 0.704583 12.5463 0.759167 12.5633 0.813334C12.8456 1.67835 13.0475 2.56752 13.1667 3.46958C13.2196 3.88625 13.2621 4.30917 13.3679 4.71375C13.6046 5.62083 14.0404 6.44542 14.5083 7.25167C14.7713 7.70833 15.0575 8.15333 15.3333 8.60333V8.60375ZM6.81292 0.625C7.38208 1.40042 7.93792 2.16083 8.49792 2.91667C8.60526 3.0637 8.72943 3.19767 8.86792 3.31583C9.18417 3.58083 9.55458 3.56583 9.85458 3.2825C10.0043 3.14738 10.1175 2.97674 10.1839 2.7863C10.2502 2.59587 10.2675 2.3918 10.2342 2.19292C10.16 1.67792 9.9425 1.20917 9.73417 0.739167C9.6925 0.6475 9.64125 0.62375 9.54583 0.624166C8.8125 0.627917 8.07875 0.62625 7.345 0.62625L6.81292 0.625ZM2.7125 15.3675C2.34292 14.0217 1.57083 12.9333 0.6325 11.9092V15.3675H2.7125ZM10.9533 10.9283C11.3513 12.3867 11.7175 13.8387 11.5946 15.3667H13.8446C12.7429 13.9583 11.8333 12.4529 10.9533 10.9283ZM13.8888 0.629167C14.2596 2.20417 14.7254 3.73083 15.3642 5.2475V0.629167H13.8888Z" fill="#B07FD8"/>
<path d="M16 11.8125C15.9825 11.8375 15.9658 11.8625 15.9479 11.8867C15.8592 12.0079 15.7421 12.0612 15.5967 12.0142C15.5334 11.9948 15.478 11.9556 15.4386 11.9024C15.3992 11.8492 15.378 11.7847 15.378 11.7185C15.378 11.6523 15.3992 11.5879 15.4386 11.5347C15.478 11.4815 15.5334 11.4423 15.5967 11.4229C15.7425 11.3767 15.8596 11.4292 15.9479 11.5504C15.9658 11.575 15.9825 11.6 16 11.625V11.8125Z" fill="#662E93"/>
<path d="M5.55583 7.84121C5.55833 7.26621 5.73666 6.75788 6.13916 6.33829C6.49333 5.96913 7.07041 5.85204 7.52166 6.04663C7.97291 6.24121 8.18166 6.65204 8.07625 7.17704C8.01708 7.47163 7.91291 7.75663 7.84041 8.04871C7.76778 8.33865 7.78507 8.64383 7.89 8.92371C8.07 9.42371 8.2375 9.92579 8.29625 10.4575C8.35498 10.9586 8.32835 11.4661 8.2175 11.9583C8.11083 12.42 7.67375 12.6433 7.25625 12.462C7.07916 12.3854 6.9525 12.2579 6.91083 12.0654C6.70583 11.12 6.34 10.232 5.94833 9.35204C5.73291 8.86996 5.55 8.38121 5.55583 7.84121ZM7.54625 11.9283C7.58083 11.8591 7.6125 11.8187 7.62041 11.7741C7.64708 11.6208 7.67125 11.4662 7.68583 11.3112C7.75166 10.6175 7.61416 9.95246 7.35958 9.31121C7.10958 8.68288 7.12708 8.06746 7.35958 7.44163C7.4176 7.27528 7.45319 7.10195 7.46541 6.92621C7.48125 6.73496 7.38208 6.62704 7.18875 6.59288C6.92708 6.54579 6.70416 6.62079 6.53291 6.82704C6.32673 7.07138 6.20447 7.37548 6.18416 7.69454C6.14916 8.16663 6.29583 8.59538 6.48458 9.01788C6.8925 9.92913 7.26875 10.8512 7.5 11.8275C7.51305 11.8621 7.52851 11.8958 7.54625 11.9283Z" fill="#662E93"/>
</g>
<defs>
<clipPath id="clip0_342_178">
<rect width="16" height="16" fill="white"/>
</clipPath>
</defs>
</svg>
