<svg width="36" height="36" viewBox="0 0 36 36" fill="none" xmlns="http://www.w3.org/2000/svg">
<g clip-path="url(#clip0_412_209)">
<path d="M11.7422 0C12.0094 0.137813 12.3094 0.235313 12.5372 0.420938C13.1531 0.922501 13.3125 1.59094 13.11 2.39625C13.2553 2.39625 13.3791 2.39625 13.5019 2.39625C14.6728 2.41594 15.8456 2.36719 17.0119 2.46937C19.8412 2.71594 22.3219 5.13375 22.7081 7.95094C22.7647 8.38016 22.7923 8.8127 22.7906 9.24562C22.7972 12.9225 22.7906 16.6003 22.7906 20.2781C22.7906 21.4744 23.2856 22.3997 24.3309 23.01C24.4491 23.0794 24.5803 23.1272 24.7266 23.1975C24.9594 22.0615 25.4609 20.9978 26.1891 20.0953C27.4481 18.5625 29.0625 17.6897 31.0256 17.4516C31.1991 17.43 31.2853 17.3812 31.3491 17.2134C31.7616 16.14 32.655 15.5541 33.7678 15.6094C34.7775 15.6591 35.6316 16.3781 35.9297 17.4253C35.9491 17.478 35.9726 17.5291 36 17.5781V32.2031C35.9859 32.2209 35.9644 32.2369 35.9578 32.2575C35.5959 33.4538 34.8497 34.1175 33.7847 34.1859C32.6597 34.2581 31.8525 33.7172 31.3181 32.5416C31.2872 32.4921 31.2462 32.4499 31.1977 32.4175C31.1492 32.3852 31.0944 32.3636 31.0369 32.3541C27.9312 31.8997 25.8853 30.1841 24.8991 27.2072C24.8306 27.0019 24.7472 26.9034 24.5334 26.8603C24.2009 26.7946 23.8737 26.704 23.5547 26.5894C22.2793 26.1273 21.177 25.2838 20.3978 24.1734C19.6185 23.063 19.2 21.7397 19.1991 20.3831C19.1888 16.6331 19.1991 12.8831 19.1991 9.13781C19.1991 7.28625 17.9184 6.00469 16.0613 5.99531C14.4216 5.98781 12.78 5.99531 11.1422 5.99531C11.0344 5.99531 10.9275 6.00938 10.7456 6.02156C10.8067 6.10739 10.8744 6.18827 10.9481 6.26344C12.2906 7.34906 12.8053 8.74594 12.5062 10.4391C12.4716 10.6369 12.5522 10.7053 12.6937 10.7925C15.4284 12.5044 16.7869 14.9869 16.8037 18.1987C16.8187 20.9634 16.8037 23.73 16.8037 26.4928C16.8037 28.6491 16.8103 30.8053 16.8037 32.9616C16.7981 34.2825 16.0153 35.3934 14.8087 35.8228C14.6119 35.8931 14.4075 35.9419 14.2069 36.0009H2.60156C2.51344 35.9756 2.42531 35.9484 2.33625 35.9259C1.24219 35.6381 0.504375 34.965 0.13875 33.8906C0.0909378 33.7509 0.045 33.6094 0 33.4697V17.2969C0.0256577 17.2198 0.0463259 17.1412 0.0618753 17.0616C0.41625 14.3522 1.75125 12.2725 4.06688 10.8225C4.26938 10.6959 4.32375 10.5787 4.28156 10.3462C4.04344 9.01969 4.29937 7.75875 5.27906 6.84937C5.94 6.23625 6.05437 5.60719 5.99812 4.82344C5.97469 4.50937 5.99812 4.19156 5.9925 3.87562C5.98575 3.78125 5.97355 3.68734 5.95594 3.59437C5.72156 3.59437 5.51156 3.60281 5.29969 3.59437C5.04506 3.58169 4.7961 3.51469 4.56949 3.39787C4.34289 3.28106 4.14389 3.11713 3.98584 2.91709C3.8278 2.71705 3.71436 2.48552 3.65315 2.23804C3.59194 1.99055 3.58437 1.73284 3.63094 1.48219C3.78562 0.676875 4.32656 0.248438 5.05969 0.00468779L11.7422 0ZM12.0131 11.7844C10.3003 14.4619 6.51562 14.4581 4.79437 11.7844C4.64812 11.8781 4.49531 11.9578 4.35563 12.0581C2.31938 13.5131 1.23 15.4959 1.21313 17.9944C1.17938 22.9734 1.20094 27.9544 1.20469 32.9344C1.20469 34.0266 1.9725 34.8009 3.06094 34.8028C6.62344 34.8084 10.1859 34.8084 13.7484 34.8028C14.8341 34.8028 15.6066 34.0266 15.6075 32.9344C15.6113 27.9306 15.6113 22.9272 15.6075 17.9241C15.6057 16.3365 15.0605 14.7974 14.0625 13.5628C13.5043 12.8397 12.8076 12.2351 12.0131 11.7844ZM31.1794 31.1334V18.6562C27.9919 18.7762 25.6397 21.75 25.8169 25.5178C25.9828 29.0297 28.9303 31.0313 31.1794 31.1334ZM32.4056 24.8719V26.9062C32.4056 28.5216 32.4009 30.1378 32.4056 31.7541C32.4056 32.4956 32.9306 33.0066 33.6412 32.9869C34.3322 32.9681 34.7991 32.4412 34.7991 31.6678C34.7991 27.8391 34.7991 24.0097 34.7991 20.1797C34.7991 19.4653 34.7991 18.7509 34.7991 18.0366C34.7944 17.4928 34.5037 17.0634 34.0369 16.8797C33.2306 16.5619 32.4094 17.145 32.4066 18.0525C32.4009 20.3278 32.4056 22.6003 32.4056 24.8719ZM24.6019 24.4313C22.7944 23.8538 21.54 22.2572 21.5784 19.9313C21.6394 16.3238 21.6 12.7125 21.5934 9.10594C21.5878 5.95594 19.2263 3.60188 16.0763 3.59531C14.4475 3.59531 12.8188 3.59531 11.19 3.59531H10.8309V4.79531H11.2369C12.8419 4.79531 14.4469 4.78969 16.0519 4.79531C16.3915 4.79416 16.7303 4.82904 17.0625 4.89938C19.08 5.35594 20.3916 6.99937 20.3944 9.07219C20.4 12.7978 20.4 16.5234 20.3944 20.2491C20.3944 21.8662 20.9644 23.2491 22.1484 24.3562C22.8323 25.0032 23.6801 25.4509 24.6 25.6509L24.6019 24.4313ZM8.36719 12.5925C8.95966 12.5992 9.54079 12.4298 10.037 12.106C10.5331 11.7822 10.9221 11.3183 11.1544 10.7733C11.3868 10.2283 11.4522 9.62651 11.3424 9.04427C11.2325 8.46203 10.9524 7.92548 10.5374 7.50259C10.1224 7.07969 9.59118 6.78947 9.01111 6.66868C8.43104 6.54789 7.82817 6.60196 7.27885 6.82404C6.72953 7.04613 6.25848 7.42624 5.92535 7.91624C5.59222 8.40623 5.41199 8.98407 5.4075 9.57656C5.40329 9.96907 5.47657 10.3585 5.62312 10.7227C5.76968 11.0868 5.98664 11.4185 6.26157 11.6986C6.53651 11.9788 6.86401 12.202 7.22533 12.3553C7.58664 12.5087 7.97467 12.5893 8.36719 12.5925ZM8.38688 2.39625C9.34781 2.39625 10.3088 2.39625 11.2697 2.39625C11.7178 2.39625 11.9906 2.17219 11.9981 1.81219C12.0056 1.45219 11.7216 1.2 11.2584 1.2C9.34844 1.2 7.43875 1.2 5.52937 1.2C5.08594 1.2 4.8075 1.42969 4.79906 1.78781C4.79063 2.14594 5.07563 2.39531 5.54063 2.39625C6.48938 2.3975 7.43813 2.3975 8.38688 2.39625ZM7.22625 3.60469V5.47969H9.57V3.60469H7.22625Z" fill="#B07FD8"/>
<path d="M9.58313 26.3871C9.58313 27.2655 9.62625 28.1458 9.57375 29.0205C9.5346 29.766 9.2108 30.468 8.66915 30.9818C8.12751 31.4955 7.40934 31.7817 6.66281 31.7814C6.12 31.788 5.55 31.7721 5.03625 31.6183C4.45354 31.4419 3.94284 31.083 3.57932 30.5946C3.2158 30.1062 3.01865 29.514 3.01688 28.9052C2.99344 27.2317 2.98781 25.5574 3.01688 23.8839C3.02863 23.1239 3.3377 22.3987 3.87782 21.8638C4.41795 21.329 5.14612 21.027 5.90625 21.0227C6.49406 21.0133 7.11563 21.0386 7.66688 21.2167C8.8725 21.6049 9.58406 22.7336 9.60469 24.1042C9.61594 24.8655 9.60469 25.6267 9.60469 26.3871H9.58313ZM4.20656 26.3777V28.7674C4.20656 28.803 4.20656 28.8377 4.20656 28.8724C4.2375 29.658 4.73813 30.3311 5.50313 30.5139C5.87156 30.6011 6.26906 30.5946 6.6525 30.588C7.56938 30.5721 8.34938 29.8783 8.37 28.9689C8.40844 27.2599 8.40281 25.5489 8.37 23.8399C8.35594 23.0505 7.74563 22.3924 6.97219 22.2461C6.67065 22.2045 6.36581 22.1919 6.06188 22.2086C4.95281 22.218 4.21313 22.9539 4.20281 24.0583C4.20094 24.8317 4.20656 25.6052 4.20656 26.3777Z" fill="#662E93"/>
<path d="M11.7281 21.5942H13.5094C13.6263 21.5892 13.7435 21.5927 13.86 21.6045C14.0066 21.6231 14.1416 21.6941 14.24 21.8043C14.3384 21.9146 14.3935 22.0568 14.3953 22.2045C14.3954 22.2811 14.3804 22.3569 14.3511 22.4276C14.3218 22.4983 14.2789 22.5625 14.2247 22.6165C14.1705 22.6705 14.1061 22.7133 14.0353 22.7423C13.9645 22.7714 13.8887 22.7862 13.8122 22.7858C12.8053 22.797 11.7987 22.797 10.7925 22.7858C10.395 22.7811 10.1137 22.4802 10.2122 22.0817C10.3219 21.6392 10.4644 21.1499 10.7522 20.8199C11.2069 20.2977 11.7834 19.8824 12.3272 19.437C12.734 19.1024 12.9525 18.687 12.9384 18.1611C12.9413 17.9599 12.8659 17.7654 12.728 17.6188C12.5902 17.4722 12.4007 17.385 12.1997 17.3755C11.9986 17.371 11.8034 17.4435 11.654 17.5783C11.5047 17.713 11.4124 17.8997 11.3962 18.1002C11.385 18.2042 11.3962 18.3111 11.3859 18.4161C11.3737 18.5633 11.308 18.7009 11.2012 18.8029C11.0945 18.905 10.9541 18.9645 10.8065 18.9702C10.6588 18.9686 10.5165 18.9142 10.4052 18.8169C10.294 18.7196 10.2212 18.5858 10.2 18.4395C10.0237 17.3689 10.8694 16.2833 11.9653 16.1755C12.2307 16.1487 12.4988 16.176 12.7534 16.2558C13.008 16.3355 13.2438 16.466 13.4466 16.6394C13.6493 16.8128 13.8148 17.0255 13.9331 17.2647C14.0514 17.5038 14.1199 17.7644 14.1347 18.0308C14.1787 19.002 13.8234 19.7867 13.0575 20.3858C12.5912 20.7495 12.1262 21.1139 11.6625 21.4789L11.7281 21.5942Z" fill="#662E93"/>
<path d="M13.2066 32.4054C13.2066 31.9966 13.2019 31.6366 13.2066 31.2804C13.2131 30.8679 13.455 30.5988 13.8037 30.6026C14.1525 30.6063 14.3962 30.8782 14.4019 31.2888C14.4106 31.827 14.4106 32.3654 14.4019 32.9041C14.3953 33.3729 14.1703 33.5988 13.7119 33.6054C13.1625 33.6129 12.6122 33.6138 12.0619 33.6054C11.6606 33.5988 11.3887 33.3345 11.3991 32.9866C11.4094 32.6388 11.67 32.4185 12.0628 32.412C12.4247 32.4007 12.7866 32.4054 13.2066 32.4054Z" fill="#662E93"/>
<path d="M8.99999 9.02619C8.99999 9.22494 9.01124 9.42557 8.99999 9.62338C8.99416 9.77741 8.92872 9.92315 8.81747 10.0298C8.70623 10.1365 8.55788 10.1959 8.40374 10.1953C8.3273 10.1966 8.25134 10.1829 8.18023 10.1548C8.10912 10.1267 8.04425 10.0848 7.98937 10.0316C7.93449 9.97838 7.89066 9.91483 7.86042 9.84461C7.83017 9.77439 7.81409 9.69889 7.81312 9.62244C7.79718 9.20151 7.79624 8.77869 7.81312 8.35869C7.81844 8.21036 7.88095 8.06985 7.98755 7.96657C8.09415 7.86329 8.23657 7.80526 8.38499 7.80463C8.53915 7.79873 8.68947 7.85358 8.8036 7.95737C8.91774 8.06116 8.98658 8.20561 8.99531 8.35963C9.01406 8.57994 8.99531 8.804 8.99531 9.02619H8.99999Z" fill="#662E93"/>
</g>
<defs>
<clipPath id="clip0_412_209">
<rect width="36" height="36" fill="white"/>
</clipPath>
</defs>
</svg>
