<svg width="16" height="16" viewBox="0 0 16 16" fill="none" xmlns="http://www.w3.org/2000/svg">
<g clip-path="url(#clip0_344_205)">
<path d="M0 5V1.46875H7.50375V8.50208H14.5312V16H11C11.0092 15.8467 11.0179 15.6929 11.0275 15.5312C11.2671 15.5312 11.4958 15.5379 11.7242 15.5275C11.8032 15.5244 11.879 15.4951 11.9396 15.4442C12.6213 14.7711 13.2986 14.0938 13.9717 13.4121C14.025 13.353 14.0559 13.277 14.0588 13.1975C14.0654 12.5678 14.0654 11.9379 14.0588 11.3079C14.0539 11.2236 14.0199 11.1436 13.9625 11.0817C13.2958 10.4075 12.6258 9.7375 11.9525 9.07167C11.8909 9.01411 11.8112 8.97978 11.7271 8.97458C11.0971 8.96708 10.4671 8.96708 9.83708 8.97458C9.75293 8.97972 9.67321 9.01405 9.61167 9.07167C8.93694 9.73833 8.26681 10.4083 7.60125 11.0817C7.54373 11.1434 7.50954 11.2233 7.50458 11.3075C7.49708 11.9375 7.49708 12.5675 7.50458 13.1975C7.50774 13.2769 7.53854 13.3526 7.59167 13.4117C8.265 14.0933 8.9425 14.7707 9.62417 15.4438C9.6844 15.495 9.76016 15.5243 9.83917 15.5271C10.0708 15.5379 10.3029 15.5312 10.5375 15.5312C10.5467 15.7013 10.555 15.8504 10.5633 16H0V5.46875H0.46875C0.46875 5.70833 0.461667 5.93708 0.472917 6.16458C0.476782 6.24379 0.507494 6.31932 0.56 6.37875C1.23333 7.06042 1.91056 7.73792 2.59167 8.41125C2.64643 8.46147 2.71704 8.49095 2.79125 8.49458C3.43181 8.50069 4.07222 8.50069 4.7125 8.49458C4.78686 8.48955 4.85714 8.45876 4.91125 8.4075C5.59208 7.73361 6.26931 7.05611 6.94292 6.375C6.99501 6.3153 7.0245 6.23921 7.02625 6.16C7.03292 5.53 7.03292 4.9 7.02625 4.27C7.02313 4.19068 6.99215 4.11499 6.93875 4.05625C6.26542 3.37458 5.58819 2.69708 4.90708 2.02375C4.85225 1.97338 4.78146 1.94388 4.70708 1.94042C4.07208 1.93431 3.43694 1.93431 2.80167 1.94042C2.72225 1.94384 2.64658 1.97511 2.58792 2.02875C1.90625 2.70153 1.22889 3.37875 0.555833 4.06042C0.504847 4.12094 0.47552 4.19675 0.4725 4.27583C0.462083 4.5075 0.46875 4.74 0.46875 4.97625L0 5ZM3.75 8.96875C3.4325 8.96875 3.11458 8.96417 2.79708 8.9725C2.72266 8.97482 2.65137 9.00296 2.59542 9.05208C1.91042 9.72931 1.22986 10.4099 0.55375 11.0938C0.503018 11.1488 0.473487 11.2202 0.470417 11.295C0.464028 11.93 0.464028 12.565 0.470417 13.2C0.472434 13.2746 0.500603 13.3461 0.55 13.4021C1.22722 14.0868 1.90778 14.7674 2.59167 15.4438C2.64669 15.4946 2.71805 15.5242 2.79292 15.5271C3.42792 15.5335 4.06306 15.5335 4.69833 15.5271C4.77286 15.5249 4.84424 15.4966 4.9 15.4471C5.585 14.7701 6.26556 14.0896 6.94167 13.4054C6.99243 13.3503 7.02197 13.279 7.025 13.2042C7.03111 12.5692 7.03111 11.9342 7.025 11.2992C7.02284 11.2246 6.99469 11.1531 6.94542 11.0971C6.26847 10.4121 5.58792 9.73153 4.90375 9.05542C4.84836 9.00514 4.77722 8.97568 4.7025 8.97208C4.38667 8.96417 4.06917 8.96875 3.75 8.96875ZM0.4725 8.49042H1.93667L0.4725 7.02667V8.49042ZM7.02292 7.01167L5.54917 8.4875H7.02458L7.02292 7.01167ZM0.472917 10.4621L1.95333 8.98083H0.474583L0.472917 10.4621ZM5.54167 8.97458L7.02125 10.4546V8.97458H5.54167ZM7.50792 10.4617L8.98792 8.98083H7.50583L7.50792 10.4617ZM12.5763 8.97542L14.0521 10.4508V8.97542H12.5763ZM1.96375 1.94833H0.480417V3.4325L1.96375 1.94833ZM5.54708 1.94542L7.02292 3.42125V1.94542H5.54708ZM1.95375 15.5242L0.481667 14.0517V15.5242H1.95375ZM7.02625 14.0658L5.57167 15.5213H7.02625V14.0658ZM8.97042 15.5242L7.50917 14.0467V15.5242H8.97042ZM14.0538 15.5242V14.0658L12.5954 15.5242H14.0538Z" fill="#B07FD8"/>
<path d="M16 7.5H8.5V0H16V7.5ZM12.2604 0.46875C11.9375 0.46875 11.6146 0.464583 11.2921 0.472083C11.2225 0.474023 11.1557 0.499925 11.1029 0.545417C10.4146 1.22681 9.72986 1.91153 9.04875 2.59958C9.00186 2.65108 8.97471 2.71749 8.97208 2.78708C8.96681 3.42764 8.96681 4.06806 8.97208 4.70833C8.97368 4.77797 8.9998 4.84481 9.04583 4.89708C9.72667 5.58542 10.4113 6.27014 11.0996 6.95125C11.1512 6.99823 11.2178 7.02539 11.2875 7.02792C11.9264 7.0332 12.5667 7.0332 13.2083 7.02792C13.2781 7.02657 13.3451 7.00059 13.3975 6.95458C14.0858 6.27375 14.7707 5.58931 15.4521 4.90125C15.4968 4.85425 15.5236 4.79307 15.5279 4.72833C15.5332 4.0775 15.5332 3.42681 15.5279 2.77625C15.5249 2.71142 15.4991 2.64973 15.455 2.60208C14.7736 1.91458 14.0889 1.23 13.4008 0.548334C13.3488 0.502081 13.2825 0.475155 13.2129 0.472083C12.8954 0.464583 12.5779 0.46875 12.2604 0.46875ZM10.4496 7.02375L8.97667 5.54833V7.02375H10.4496ZM15.5167 7.02375V5.55792L14.0483 7.02417L15.5167 7.02375ZM8.97708 1.9475C9.46458 1.45917 9.96 0.963333 10.4462 0.477083H8.97708V1.9475ZM15.5267 0.479167H14.0712L15.5267 1.945V0.479167Z" fill="#662E93"/>
<path d="M5.61875 5.43961C4.62167 5.55086 4.08 6.09836 3.96958 7.08544H3.53083C3.42333 6.10502 2.88458 5.54752 1.88458 5.44044V5.00002C2.86917 4.89127 3.41708 4.35002 3.52833 3.35669H3.98167C3.99792 3.79877 4.14833 4.19002 4.46667 4.50336C4.61747 4.65568 4.79687 4.77673 4.99458 4.85953C5.19229 4.94233 5.4044 4.98526 5.61875 4.98586V5.43961ZM3.73417 4.33627C3.53417 4.71627 3.23083 5.00002 2.875 5.20836C3.05 5.35002 3.22375 5.46794 3.36917 5.61419C3.51458 5.76044 3.62833 5.93169 3.76417 6.10252C3.96324 5.73444 4.26489 5.43206 4.6325 5.23211C4.45667 5.09252 4.28583 4.97919 4.14375 4.83711C4.00167 4.69502 3.88 4.51711 3.73417 4.33627Z" fill="#B07FD8"/>
<path d="M12.645 12.4821C12.2033 12.4979 11.8142 12.6488 11.4983 12.9658C11.1825 13.2829 11.0292 13.67 11.0133 14.1183H10.55C10.5337 13.6758 10.3833 13.285 10.0683 12.97C9.75332 12.655 9.36541 12.5 8.91666 12.4829V12.02C9.35374 12.0017 9.74499 11.8533 10.06 11.5396C10.2139 11.3892 10.3363 11.2096 10.42 11.0114C10.5037 10.8131 10.547 10.6002 10.5475 10.385H11.0058C11.1142 11.3692 11.6562 11.9167 12.6492 12.0283L12.645 12.4821ZM9.87499 12.25C10.2601 12.4566 10.5758 12.7719 10.7829 13.1567C10.9887 12.7718 11.3037 12.4563 11.6883 12.25C11.3031 12.0445 10.9871 11.7298 10.78 11.3454C10.5742 11.7297 10.2593 12.0444 9.87499 12.25Z" fill="#B07FD8"/>
<path d="M1.88165 12.4707V12.0307C2.86915 11.9241 3.4186 11.3756 3.52999 10.3853C3.54883 10.3804 3.56807 10.3772 3.58749 10.3757C3.71249 10.3757 3.83749 10.3757 3.96874 10.3757C4.07415 11.367 4.61832 11.9195 5.6154 12.0286V12.4703C4.63165 12.5807 4.08207 13.1203 3.97124 14.1141H3.52915C3.42124 13.1274 2.87499 12.5761 1.88165 12.4707ZM3.74999 13.1582C3.95613 12.7727 4.27155 12.4568 4.65665 12.2499C4.2718 12.0433 3.95643 11.7278 3.74999 11.3428C3.54458 11.7274 3.23038 12.0429 2.84665 12.2499C3.23073 12.457 3.54502 12.773 3.74999 13.1582Z" fill="#B07FD8"/>
<path d="M12.0292 5.61375C11.9221 4.6275 11.3767 4.07667 10.3825 3.97083C10.38 3.93875 10.3754 3.90833 10.3754 3.87792C10.3754 3.76375 10.3754 3.64958 10.3754 3.53125C11.3692 3.42417 11.9192 2.87792 12.0313 1.875H12.4692C12.575 2.86583 13.1183 3.41875 14.1158 3.52833V3.97C13.1325 4.08 12.5829 4.61958 12.4717 5.61375H12.0292ZM12.2646 2.86792C12.1208 3.04667 12.0038 3.22042 11.8579 3.36583C11.7121 3.51125 11.5417 3.625 11.3683 3.76375C11.7431 3.96947 12.0496 4.28028 12.25 4.65792C12.4546 4.27216 12.7694 3.95598 13.1542 3.74958C12.7778 3.54898 12.4686 3.24245 12.2646 2.86792Z" fill="#662E93"/>
<path d="M11.5558 0.943848H12.0067V1.4001H11.5558V0.943848Z" fill="#662E93"/>
<path d="M12.4929 1.39916V0.94458H12.9433V1.39916H12.4929Z" fill="#662E93"/>
</g>
<defs>
<clipPath id="clip0_344_205">
<rect width="16" height="16" fill="white"/>
</clipPath>
</defs>
</svg>
