<svg width="35" height="36" viewBox="0 0 35 36" fill="none" xmlns="http://www.w3.org/2000/svg">
<g clip-path="url(#clip0_406_193)">
<path d="M26.7016 28.9896V31.1128C26.7016 32.6145 25.9124 33.5026 24.3797 33.6916C24.3797 34.2035 24.3797 34.7202 24.3797 35.237C24.3797 35.8022 24.1858 35.9932 23.6128 35.9951C23.1416 35.9951 22.6695 35.9854 22.1983 35.9951C22.0473 36.01 21.8954 35.9754 21.7657 35.8965C21.636 35.8177 21.5354 35.6988 21.479 35.5579C21.2133 35.0024 20.9244 34.4575 20.6607 33.901C20.6318 33.8239 20.5779 33.7587 20.5076 33.7159C20.4373 33.673 20.3547 33.6549 20.2729 33.6645C16.8261 33.6716 13.3792 33.6716 9.93238 33.6645C9.72297 33.6645 9.60663 33.7226 9.5155 33.9165C9.25858 34.4633 8.97064 34.9956 8.71373 35.5414C8.55958 35.8681 8.32593 36.0058 7.96819 35.9951C7.48345 35.9806 6.99871 35.9951 6.51396 35.9903C6.01274 35.9903 5.80623 35.7838 5.80236 35.2884C5.80236 34.758 5.80236 34.2277 5.80236 33.7856C5.32634 33.5917 4.87262 33.4812 4.49646 33.2447C3.82848 32.8268 3.49885 32.1714 3.48431 31.3813C3.46977 30.5912 3.48431 29.8107 3.48431 29.0429C3.0461 28.882 2.61177 28.7656 2.22398 28.5717C0.523495 27.7341 -0.346137 25.767 0.145394 23.924C0.380275 23.0237 0.917865 22.2317 1.66783 21.6811C2.41781 21.1304 3.33445 20.8547 4.26376 20.9002C5.19306 20.9456 6.07839 21.3096 6.771 21.9309C7.4636 22.5522 7.92126 23.3929 8.06708 24.3118C8.10764 24.5986 8.12837 24.8879 8.12913 25.1776C8.13882 25.7593 8.12913 26.3351 8.12913 26.9585C10.4307 26.3613 12.742 26.1189 15.0794 26.1189C17.4168 26.1189 19.7329 26.3516 22.0597 26.9605C22.0597 26.3303 22.0151 25.7292 22.0723 25.1388C22.1295 24.5484 22.1993 23.924 22.4213 23.3801C22.7739 22.515 23.4184 21.8007 24.2428 21.3613C25.0672 20.9219 26.0195 20.7852 26.9343 20.9748C27.8481 21.164 28.6694 21.6606 29.2613 22.382C29.8532 23.1034 30.1799 24.0059 30.1869 24.9391C30.1947 26.8693 28.8529 28.5194 26.9323 28.9392C26.8703 28.9595 26.8112 28.9692 26.7016 28.9896ZM6.96186 27.3114C6.96186 26.5358 6.96962 25.7486 6.96186 24.9643C6.94247 23.3636 5.68505 22.0849 4.1232 22.0645C2.53809 22.0442 1.21474 23.2861 1.16142 24.8421C1.13149 25.6115 1.4079 26.3614 1.93003 26.9274C2.45217 27.4933 3.17742 27.8291 3.94676 27.8611C4.44992 27.8902 4.638 28.0821 4.63897 28.5863C4.63897 29.4695 4.63897 30.3517 4.63897 31.2349C4.63897 32.0251 5.11402 32.5079 5.8993 32.5079C12.0291 32.5079 18.1591 32.5079 24.2895 32.5079C25.0583 32.5079 25.5353 32.0299 25.5402 31.264C25.545 30.3915 25.5402 29.5189 25.5402 28.6522C25.5402 28.0705 25.703 27.8941 26.275 27.8601C26.9967 27.8088 27.6732 27.4903 28.1727 26.967C28.6721 26.4436 28.9586 25.7529 28.9762 25.0296C28.9937 24.3064 28.7411 23.6026 28.2677 23.0556C27.7942 22.5086 27.1339 22.1576 26.4156 22.0713C24.9546 21.9075 23.512 22.9487 23.2997 24.4437C23.1707 25.3463 23.2328 26.276 23.2289 27.1931C23.2289 27.2678 23.3608 27.3705 23.4538 27.4122C23.8465 27.5877 24.2478 27.7457 24.6686 27.9193C24.5542 28.1258 24.4689 28.2828 24.3777 28.4389C24.2866 28.595 24.1916 28.7685 24.1373 28.8636C18.0732 26.7307 12.0817 26.7258 6.03503 28.8636L5.50472 27.9183L6.96186 27.3114ZM6.97738 34.8337C7.14558 34.8441 7.31427 34.8441 7.48248 34.8337C7.59979 34.8181 7.77333 34.791 7.81598 34.7115C8.00406 34.3955 8.15336 34.0571 8.32884 33.7032H6.97835L6.97738 34.8337ZM23.2047 33.6955H21.8474C22.0248 34.0503 22.178 34.3741 22.3486 34.6863C22.3727 34.7234 22.4043 34.7551 22.4414 34.7793C22.4784 34.8035 22.5202 34.8197 22.5638 34.8269C22.7732 34.8463 22.9856 34.8337 23.2037 34.8337L23.2047 33.6955Z" fill="#B07FD8"/>
<path d="M32.5069 33.7072C32.5069 34.221 32.5069 34.7397 32.5069 35.2583C32.5069 35.7974 32.3033 35.9932 31.7556 35.9961C31.2708 35.9961 30.7861 35.9884 30.3013 35.9961C30.1561 36.0094 30.0104 35.9756 29.8859 35.8996C29.7614 35.8237 29.6647 35.7096 29.6101 35.5744C29.3415 35.0198 29.0536 34.475 28.7928 33.9175C28.7638 33.8332 28.706 33.7618 28.6296 33.7159C28.5532 33.67 28.463 33.6525 28.375 33.6664C28.0259 33.6829 27.6769 33.6713 27.3037 33.6713V32.5147H32.345C33.2098 32.5147 33.6674 32.0581 33.6674 31.1952C33.6674 21.6296 33.6674 12.064 33.6674 2.49837C33.6674 1.63067 33.2117 1.16823 32.3566 1.16823C30.0105 1.16823 27.664 1.16823 25.3172 1.16823H24.9721V13.3256H23.8087V1.16144H23.3811C21.1077 1.16144 18.8333 1.1915 16.5598 1.14787C15.5661 1.12945 14.9873 1.73926 15.092 2.62731C15.0965 2.70933 15.0965 2.79153 15.092 2.87356H13.9771C13.6368 1.39024 14.7478 0.00387088 16.3039 0.00290139C21.6852 -0.00226921 27.0674 -0.00226921 32.4507 0.00290139C32.6437 0.00384992 32.8361 0.0252993 33.0246 0.066888C33.5181 0.178054 33.9612 0.448407 34.2859 0.836285C34.6105 1.22416 34.7986 1.70804 34.8211 2.21334C34.8279 2.37039 34.8211 2.52745 34.8211 2.68548C34.8211 12.0944 34.8075 21.5042 34.8376 30.9141C34.8502 32.2238 34.2995 33.4842 32.5069 33.7072ZM29.995 33.6887C30.66 35.0654 30.3585 34.8521 31.3271 34.7988V33.6887H29.995Z" fill="#B07FD8"/>
<path d="M9.28671 4.06395V2.92383H10.4268V4.06395H14.8399C15.4759 4.06395 15.6301 4.20549 15.6824 4.8279C15.8666 6.99568 16.0511 9.16313 16.236 11.3303C16.2903 11.9701 16.0896 12.1912 15.443 12.1912H10.4569V13.3255H9.2935V12.1912H8.86498C7.31768 12.1912 5.77005 12.1912 4.2221 12.1912C3.6695 12.1912 3.44651 11.9585 3.49305 11.4088C3.67919 9.15634 3.86921 6.90455 4.06311 4.65339C4.09704 4.2559 4.31614 4.06685 4.74175 4.06588C6.10776 4.06588 7.47377 4.06588 8.83977 4.06588L9.28671 4.06395ZM4.69327 11.0094H15.0367C14.8768 9.07717 14.7178 7.16922 14.5578 5.24575H5.17317C5.01224 7.17116 4.85421 9.07911 4.69327 11.0094Z" fill="#662E93"/>
<path d="M4.60989 19.7242H3.5037C3.5037 18.6364 3.42711 17.5574 3.52406 16.4938C3.62973 15.3305 4.63315 14.519 5.80139 14.5171C11.9932 14.5119 18.1856 14.5119 24.3787 14.5171C24.6823 14.5146 24.9834 14.5723 25.2646 14.6868C25.5457 14.8012 25.8015 14.9702 26.0171 15.184C26.2326 15.3978 26.4038 15.6521 26.5206 15.9323C26.6374 16.2125 26.6976 16.5131 26.6977 16.8167C26.7113 17.7232 26.6977 18.6306 26.6977 19.5371C26.6977 19.5855 26.6919 19.634 26.6871 19.7096H25.5402V18.173C25.5402 17.7493 25.5402 17.3257 25.5402 16.903C25.5314 16.1633 25.0486 15.6785 24.3079 15.6775C22.1428 15.6737 19.9776 15.6737 17.8124 15.6775H6.01952C5.08203 15.6775 4.64188 16.1167 4.63994 17.0494C4.63994 17.9083 4.63994 18.767 4.63994 19.6253C4.63297 19.6591 4.62291 19.6922 4.60989 19.7242Z" fill="#B07FD8"/>
<path d="M12.7449 19.1524H11.6368V18.0249H12.7449V19.1524Z" fill="#662E93"/>
<path d="M18.556 19.1456H17.4362V18.0181H18.556V19.1456Z" fill="#662E93"/>
<path d="M9.8461 22.0441H8.72925V20.9233H9.8461V22.0441Z" fill="#662E93"/>
<path d="M14.5404 20.9155H15.6543V22.044H14.5404V20.9155Z" fill="#662E93"/>
<path d="M21.4499 22.044H20.336V20.9185H21.4499V22.044Z" fill="#662E93"/>
<path d="M11.6232 24.946V23.8291H12.7458V24.946H11.6232Z" fill="#662E93"/>
<path d="M18.5482 24.9528H17.4314V23.832H18.5482V24.9528Z" fill="#662E93"/>
<path d="M2.32484 24.9431C2.32916 24.5983 2.43583 24.2627 2.6313 23.9787C2.82677 23.6947 3.10223 23.4752 3.4227 23.3481C3.74316 23.221 4.09417 23.192 4.43116 23.2648C4.76814 23.3376 5.07589 23.5089 5.31533 23.7569C5.55476 24.0049 5.71508 24.3185 5.77593 24.6579C5.83677 24.9972 5.7954 25.347 5.65705 25.6628C5.51871 25.9786 5.28965 26.2461 4.99894 26.4314C4.70824 26.6168 4.36902 26.7115 4.02435 26.7037C3.56678 26.6917 3.13221 26.5005 2.8143 26.1712C2.4964 25.8418 2.32062 25.4008 2.32484 24.9431ZM4.64095 24.9654C4.64189 24.8496 4.60828 24.7362 4.54442 24.6397C4.48056 24.5432 4.38936 24.4679 4.28248 24.4235C4.17559 24.3791 4.05789 24.3675 3.94442 24.3904C3.83096 24.4132 3.72689 24.4694 3.64553 24.5518C3.56417 24.6341 3.50922 24.7388 3.48771 24.8525C3.46621 24.9663 3.47911 25.0838 3.52479 25.1902C3.57046 25.2965 3.64682 25.3868 3.74411 25.4495C3.84139 25.5123 3.95517 25.5445 4.07089 25.5422C4.22162 25.5382 4.36491 25.4758 4.47054 25.3682C4.57616 25.2606 4.63587 25.1161 4.63707 24.9654H4.64095Z" fill="#662E93"/>
<path d="M27.8611 24.9694C27.8601 25.3144 27.7566 25.6513 27.5637 25.9373C27.3708 26.2234 27.0973 26.4456 26.7778 26.5758C26.4583 26.7061 26.1073 26.7384 25.7694 26.6687C25.4315 26.599 25.122 26.4305 24.8801 26.1845C24.6382 25.9385 24.4749 25.6262 24.4109 25.2871C24.3469 24.9481 24.3851 24.5977 24.5207 24.2805C24.6563 23.9632 24.8831 23.6934 25.1723 23.5054C25.4616 23.3173 25.8002 23.2195 26.1451 23.2243C26.6029 23.2319 27.0393 23.4191 27.3603 23.7456C27.6813 24.072 27.8612 24.5115 27.8611 24.9694ZM26.6977 24.9606C26.6977 24.8449 26.6632 24.7319 26.5985 24.6359C26.5339 24.54 26.4421 24.4654 26.3349 24.4219C26.2277 24.3784 26.11 24.3678 25.9967 24.3915C25.8835 24.4153 25.7799 24.4722 25.6992 24.5551C25.6185 24.638 25.5644 24.7431 25.5437 24.857C25.5231 24.9708 25.5368 25.0882 25.5832 25.1942C25.6296 25.3002 25.7066 25.3899 25.8043 25.4519C25.902 25.5139 26.0159 25.5454 26.1316 25.5423C26.2833 25.5385 26.4276 25.4756 26.5335 25.3669C26.6395 25.2582 26.6988 25.1124 26.6987 24.9606H26.6977Z" fill="#662E93"/>
</g>
<defs>
<clipPath id="clip0_406_193">
<rect width="34.8453" height="36" fill="white"/>
</clipPath>
</defs>
</svg>
