<svg width="19" height="16" viewBox="0 0 19 16" fill="none" xmlns="http://www.w3.org/2000/svg">
<g clip-path="url(#clip0_358_395)">
<path d="M-5.54292e-06 1.7948C0.0870001 1.44345 0.194925 1.10161 0.427891 0.811114C0.823933 0.314755 1.33361 0.0394742 1.97022 0.00619334C2.04154 0.00286525 2.11285 0.000488281 2.18417 0.000488281C5.62351 0.000488281 9.06253 0.00207337 12.5012 0.00524298C12.6572 0.00524298 12.8459 0.0461302 12.96 0.139792C13.0752 0.24757 13.1435 0.396276 13.1502 0.553901C13.1616 2.83602 13.1668 5.11813 13.154 7.40024C13.1474 8.49994 12.206 9.38616 11.0711 9.38854C9.02671 9.39329 6.98231 9.40137 4.93792 9.38236C4.39925 9.3776 3.94853 9.51738 3.51825 9.83878C2.68148 10.464 1.82093 11.0578 0.970369 11.6654C0.542472 11.9716 0.26006 11.9127 -0.00190735 11.4615L-5.54292e-06 1.7948ZM12.0885 1.06975H4.85282C3.93759 1.06975 3.02237 1.06548 2.10715 1.06975C1.48907 1.07403 1.07069 1.49004 1.07069 2.09671C1.06879 4.77122 1.06879 7.44557 1.07069 10.1198C1.0736 10.1676 1.079 10.2152 1.08685 10.2624C1.7634 9.7803 2.42522 9.31722 3.07705 8.84178C3.55825 8.48667 4.14314 8.30017 4.74109 8.31119C6.82114 8.31879 8.90072 8.31452 10.9808 8.31404C11.683 8.31404 12.0885 7.90992 12.089 7.21054V1.06975H12.0885Z" fill="#B07FD8"/>
<path d="M18.2569 15.5962C18.0192 16.0498 17.7154 16.1192 17.2913 15.8159C16.378 15.1635 15.4618 14.515 14.5518 13.8585C14.253 13.6397 13.8909 13.5245 13.5206 13.5304C11.4347 13.5339 9.34905 13.5339 7.26377 13.5304C5.98341 13.5304 5.10052 12.6499 5.09862 11.3729C5.09862 11.2421 5.09529 11.1114 5.09862 10.9806C5.09862 10.8391 5.15482 10.7035 5.25486 10.6034C5.3549 10.5034 5.49058 10.4472 5.63206 10.4472C5.77354 10.4472 5.90922 10.5034 6.00926 10.6034C6.1093 10.7035 6.1655 10.8391 6.1655 10.9806C6.17287 11.0994 6.17287 11.2185 6.1655 11.3372C6.1113 11.9981 6.6186 12.4783 7.28422 12.4707C9.35761 12.4493 11.4315 12.4616 13.5049 12.4645C13.7008 12.4648 13.8963 12.4807 14.0897 12.512C14.4833 12.5762 14.8333 12.7474 15.1561 12.9794C15.7685 13.4196 16.3822 13.8578 16.9975 14.294C17.0498 14.3311 17.1035 14.3658 17.1772 14.4152C17.1805 14.3387 17.1853 14.2826 17.1853 14.225C17.1853 11.5806 17.1853 8.93623 17.1853 6.29183C17.1853 5.63477 16.774 5.22018 16.1212 5.21733C15.6876 5.21733 15.254 5.21733 14.8199 5.21733C14.4734 5.21733 14.2304 4.99863 14.2271 4.68817C14.2237 4.3777 14.4648 4.14664 14.8085 4.14902C15.3724 4.1533 15.942 4.12049 16.4987 4.1861C17.4021 4.29308 18.0577 4.9701 18.2227 5.86726C18.2314 5.90134 18.2422 5.93484 18.255 5.96758L18.2569 15.5962Z" fill="#662E93"/>
<path d="M6.9343 3.97896C5.91305 3.97896 4.8899 3.98229 3.87056 3.97896C3.43791 3.97896 3.18069 3.56485 3.37705 3.20019C3.49068 2.98957 3.67848 2.91017 3.90954 2.91065C4.3788 2.91065 4.84759 2.91065 5.31685 2.91065C6.86013 2.91065 8.40373 2.91065 9.94764 2.91065C10.2804 2.91065 10.5144 3.08941 10.5538 3.36945C10.6014 3.70225 10.3565 3.97611 9.99756 3.97849C9.3386 3.98229 8.67964 3.97849 8.02068 3.97849L6.9343 3.97896Z" fill="#B07FD8"/>
<path d="M6.9381 6.47555C5.91685 6.47555 4.8937 6.47841 3.87436 6.47555C3.44076 6.47555 3.18164 6.06572 3.37515 5.70011C3.48355 5.49567 3.66374 5.40914 3.88815 5.40771C4.18482 5.40771 4.48197 5.40771 4.77864 5.40771C6.50037 5.40771 8.2221 5.40771 9.94383 5.40771C10.2876 5.40771 10.5229 5.59266 10.5548 5.88078C10.5914 6.21026 10.3527 6.47318 10.0014 6.47555C9.4256 6.48031 8.84984 6.47555 8.27361 6.47555H6.9381Z" fill="#B07FD8"/>
</g>
<defs>
<clipPath id="clip0_358_395">
<rect width="18.2569" height="16" fill="white"/>
</clipPath>
</defs>
</svg>
