<svg width="39" height="36" viewBox="0 0 39 36" fill="none" xmlns="http://www.w3.org/2000/svg">
<g clip-path="url(#clip0_157_12)">
<path d="M0 12.9265C0.196794 12.2347 0.662289 11.7786 1.25551 11.3981C2.52616 10.5824 3.7741 9.73157 5.03245 8.89782C5.1535 8.80859 5.28709 8.73779 5.42888 8.68772C5.68528 8.61391 5.94546 8.68772 6.02589 8.9404C6.0836 9.12495 6.02588 9.36627 5.95871 9.55933C5.91992 9.66911 5.75908 9.74009 5.6446 9.81674C4.32569 10.6969 3.00616 11.5757 1.686 12.4533C1.57925 12.5199 1.47686 12.5933 1.37945 12.6729C1.23989 12.7934 1.14823 12.96 1.12118 13.1424C1.09413 13.3249 1.13348 13.5109 1.23207 13.6668C1.33066 13.8226 1.48192 13.9378 1.65832 13.9915C1.83472 14.0451 2.0245 14.0336 2.19312 13.959C2.32888 13.8931 2.45867 13.8155 2.58104 13.7272C7.68255 10.3335 12.7828 6.93883 17.8818 3.54324C18.6255 3.04924 18.8279 3.05018 19.5848 3.55271L34.8629 13.712C34.9857 13.8001 35.1151 13.8785 35.2499 13.9467C35.4189 14.0268 35.6114 14.0425 35.7911 13.9907C35.9709 13.939 36.1256 13.8235 36.2263 13.6658C36.327 13.5081 36.3666 13.319 36.3379 13.1341C36.3091 12.9493 36.2139 12.7812 36.0702 12.6615C35.972 12.5827 35.8693 12.5097 35.7627 12.4429C30.2001 8.74324 24.6387 5.04104 19.0787 1.3363C18.827 1.16785 18.6557 1.14703 18.3908 1.32684C15.2869 3.40886 12.1773 5.4811 9.06201 7.54356L8.904 7.64766C8.49149 7.91454 8.17643 7.89656 7.97869 7.59561C7.78095 7.29466 7.89165 6.99372 8.29848 6.72305C11.545 4.55965 14.7911 2.39719 18.037 0.235673C18.5157 -0.0842006 18.9576 -0.075684 19.4344 0.242297C25.1187 4.03157 30.8056 7.81706 36.495 11.5988C37.2055 12.072 37.5707 12.7212 37.4099 13.5918C37.2651 14.3716 36.7854 14.8694 36.0266 15.0738C35.459 15.2262 34.932 15.0956 34.4475 14.7691C33.9395 14.4275 33.4286 14.0906 32.8562 13.7101C32.8562 14.0167 32.8656 14.2514 32.8562 14.4843C32.8382 14.8505 32.6177 15.0871 32.3102 15.0928C32.0028 15.0984 31.7662 14.8666 31.7501 14.4994C31.7312 14.0716 31.7605 13.642 31.7331 13.2152C31.7253 13.1404 31.7027 13.0679 31.6666 13.002C31.6306 12.936 31.5818 12.8779 31.5231 12.8309C27.3387 10.0347 23.1511 7.24293 18.9604 4.45555C18.7806 4.3363 18.6652 4.34955 18.4958 4.46217C14.3177 7.24955 10.1393 10.0354 5.9606 12.8196C5.8956 12.8684 5.84149 12.9302 5.80173 13.001C5.76198 13.0719 5.73746 13.1503 5.72975 13.2313C5.71839 19.6287 5.71556 26.0262 5.72123 32.4237C5.72123 32.4842 5.73069 32.5458 5.73826 32.6328H13.4662V28.6003C12.8986 28.6003 12.3375 28.6117 11.7764 28.6003C10.9609 28.5814 10.3942 28.1442 10.2362 27.4193C10.206 27.2583 10.1933 27.0946 10.1983 26.9309C10.1983 23.7953 10.1983 20.6596 10.1983 17.524C10.1983 16.4962 10.8105 15.8802 11.8427 15.8792C15.1907 15.8792 18.5394 15.8792 21.8887 15.8792H22.4232C22.4232 15.3502 22.3854 14.8486 22.4317 14.3546C22.4853 13.8581 22.7209 13.3991 23.0931 13.0661C23.4652 12.7332 23.9474 12.55 24.4467 12.5519C24.946 12.5538 25.4268 12.7406 25.7964 13.0763C26.166 13.412 26.3982 13.8728 26.448 14.3697C26.4935 14.8543 26.4556 15.3455 26.4556 15.8792H36.899C38.1091 15.8792 38.6796 16.447 38.6796 17.6555V26.7984C38.6796 28.0619 38.1327 28.6041 36.8564 28.6041H26.5199V32.6395H31.7407V31.1423C31.7407 30.777 31.7322 30.4107 31.7407 30.0464C31.753 29.6253 31.9734 29.3839 32.3159 29.3962C32.6386 29.4057 32.8476 29.6451 32.8514 30.0455C32.859 30.8972 32.8514 31.7489 32.8514 32.6593C33.0407 32.6593 33.1949 32.6593 33.3529 32.6593C33.9944 32.6726 34.6425 32.6338 35.2745 32.7161C36.1184 32.8268 36.6804 33.5991 36.6284 34.448C36.6029 34.8475 36.4326 35.2241 36.1494 35.5071C35.8661 35.79 35.4895 35.9599 35.09 35.9849C34.9272 35.9972 34.7636 35.9991 34.5999 35.9991C24.0121 35.9991 13.424 35.9991 2.83554 35.9991C2.57196 36.0097 2.30805 35.989 2.04931 35.9376C1.68834 35.8409 1.37063 35.6251 1.14778 35.325C0.924939 35.025 0.81005 34.6584 0.821776 34.2848C0.833503 33.9112 0.971156 33.5526 1.21238 33.2671C1.4536 32.9816 1.78422 32.7861 2.15055 32.7123C2.34893 32.6779 2.55 32.6614 2.75134 32.6631C3.33037 32.6555 3.9094 32.6574 4.48843 32.6537C4.52108 32.6479 4.55287 32.6381 4.58304 32.6243V13.7376C4.28312 13.9316 4.00496 14.1161 3.73153 14.2931C3.47891 14.4587 3.23197 14.6338 2.97462 14.7947C1.82981 15.5139 0.519424 15.0502 0.0794744 13.7716C0.0510905 13.6921 0.0264916 13.6117 0 13.5313V12.9265ZM24.4385 16.9959H12.0158C11.3639 16.9959 11.3157 17.0414 11.3157 17.6726V26.8155C11.3157 27.4306 11.3914 27.5044 12.0149 27.5044H36.864C37.4875 27.5044 37.5641 27.4297 37.5641 26.8155V17.6735C37.5641 17.0423 37.5149 16.9959 36.864 16.9959H24.4385ZM14.6148 32.6395H22.3598V28.6325H14.6148V32.6395ZM22.3636 33.7751H2.77878C2.70309 33.7751 2.6274 33.7751 2.55265 33.7751C2.18082 33.7921 1.95564 33.988 1.94145 34.306C1.92631 34.6391 2.15055 34.8644 2.53751 34.8984C2.62456 34.906 2.71349 34.8984 2.80148 34.8984H22.3636V33.7751ZM23.5273 28.6249V34.8776H25.3638V28.6268L23.5273 28.6249ZM26.4916 34.8824C26.6089 34.8937 26.6581 34.9032 26.7073 34.9032C29.4132 34.9032 32.1188 34.9032 34.8241 34.9032C34.9372 34.9035 35.0496 34.886 35.1571 34.8511C35.4154 34.7641 35.5772 34.5578 35.5044 34.3041C35.4514 34.1149 35.2773 33.9445 35.1184 33.8111C35.0408 33.7458 34.8761 33.7789 34.7513 33.7789C32.1336 33.7789 29.516 33.7789 26.8984 33.7789C26.7754 33.7789 26.6524 33.7883 26.4916 33.7959V34.8824ZM25.3799 15.8678C25.3799 15.5007 25.3799 15.1656 25.3799 14.8268C25.3845 14.7141 25.381 14.6012 25.3695 14.489C25.3381 14.2706 25.2324 14.0698 25.0702 13.9203C24.908 13.7709 24.6993 13.6819 24.4792 13.6685C24.0307 13.6533 23.5794 13.9637 23.533 14.4114C23.481 14.8846 23.5207 15.3748 23.5207 15.865L25.3799 15.8678Z" fill="#B07FD8"/>
<path d="M18.739 13.7119C17.8164 13.7099 16.9321 13.3428 16.2792 12.6908C15.6263 12.0388 15.2579 11.1549 15.2544 10.2321C15.2544 8.32422 16.8524 6.73053 18.7409 6.74472C19.657 6.75769 20.5319 7.12748 21.1798 7.7755C21.8277 8.42353 22.1974 9.29871 22.2103 10.2151C22.2264 12.1201 20.6558 13.7025 18.739 13.7119ZM18.1562 9.66144V7.95797C17.3047 8.12927 16.5799 8.85987 16.4654 9.66144H18.1562ZM19.3095 7.95797V9.65387H20.9889C20.8905 8.87501 20.1468 8.12832 19.3095 7.9646V7.95797ZM16.4796 10.8075C16.5553 11.5797 17.351 12.3747 18.1543 12.4873V10.8141L16.4796 10.8075ZM20.986 10.8075H19.2783V12.51C20.1411 12.3501 20.8867 11.5996 20.986 10.8179V10.8075Z" fill="#662E93"/>
<path d="M21.1642 23.879C21.0753 24.1643 20.9864 24.4253 20.9037 24.6856C20.8211 24.9458 20.59 24.9764 20.3411 24.908C20.0922 24.8396 19.8629 24.739 19.9651 24.4434C20.4309 23.0949 20.8978 21.7485 21.3659 20.4041C21.4664 20.114 21.7215 20.0378 22.0308 20.0393C22.3401 20.0409 22.5881 20.1266 22.6876 20.4159C23.1489 21.7524 23.6076 23.0889 24.0742 24.4253C24.1791 24.7233 23.9729 24.8279 23.724 24.9018C23.4751 24.9757 23.2325 24.9599 23.1374 24.673C23.0485 24.4143 23.0369 24.044 22.8396 23.9332C22.6005 23.7996 22.2023 23.8845 21.8734 23.879C21.6495 23.8758 21.4255 23.879 21.1642 23.879ZM22.053 21.261L21.9926 21.2563C21.789 21.8892 21.5846 22.5228 21.3757 23.173H22.6636C22.453 22.515 22.253 21.8884 22.053 21.261Z" fill="#662E93"/>
<path d="M29.5922 20.8318V22.1683C29.9379 22.1683 30.265 22.173 30.5921 22.1683C30.8499 22.1636 31.0001 22.2556 31.009 22.4922C31.0187 22.7477 30.8534 22.8475 30.5877 22.8483C30.2686 22.8483 29.9504 22.8483 29.6028 22.8483V24.1636C29.6865 24.1747 29.7707 24.182 29.8553 24.1856C30.4232 24.1856 30.9912 24.1927 31.5583 24.1856C31.8596 24.1809 31.9956 24.3074 32.0027 24.5606C32.0098 24.8137 31.88 24.9482 31.5743 24.9466C30.7468 24.9403 29.9193 24.9466 29.0917 24.9466C28.6909 24.9466 28.594 24.8515 28.594 24.4946C28.594 23.1769 28.594 21.8593 28.594 20.5417C28.594 20.184 28.6829 20.0857 29.0837 20.0802C29.9228 20.07 30.7628 20.0755 31.6018 20.0802C31.8836 20.0802 32.0054 20.2233 32.0036 20.46C32.0018 20.6966 31.8863 20.8405 31.6018 20.8405C30.9388 20.8326 30.2792 20.8318 29.5922 20.8318Z" fill="#662E93"/>
<path d="M17.9769 20C18.3173 20.0723 18.6924 20.1226 19.0435 20.2358C19.351 20.3349 19.4212 20.555 19.2897 20.7964C19.1484 21.0566 18.9439 21.0252 18.6675 20.9481C18.3443 20.8602 18.0084 20.8141 17.6702 20.8113C17.4036 20.8113 17.1636 20.9277 17.0978 21.1973C17.032 21.467 17.2107 21.6344 17.4534 21.7476C17.768 21.8915 18.0969 22.0102 18.4106 22.1541C19.3208 22.5723 19.6639 23.2115 19.4168 24.0055C19.2079 24.6761 18.4853 25.0566 17.5085 24.9945C17.0187 24.9638 16.5307 24.8711 16.1876 24.5393C16.1212 24.4722 16.0707 24.394 16.0391 24.3094C16.0075 24.2247 15.9955 24.1353 16.0037 24.0464C16.0712 23.7123 16.3832 23.6392 16.6925 23.8577C17.048 24.1085 17.4231 24.2775 17.8969 24.1958C18.1866 24.1462 18.4142 24.0283 18.488 23.7657C18.5617 23.5031 18.4364 23.2854 18.1938 23.1407C17.9795 23.0126 17.7387 22.9206 17.512 22.8098C17.224 22.6682 16.9245 22.5409 16.6543 22.3766C16.1583 22.0763 16.0321 21.6289 16.121 21.1321C16.2099 20.6352 16.5467 20.3223 17.072 20.173C17.3503 20.0928 17.6418 20.0621 17.9769 20Z" fill="#662E93"/>
<path d="M25.7648 24.1847C26.3532 24.1847 26.8945 24.1941 27.4349 24.1847C27.7523 24.1776 27.8945 24.2956 27.8918 24.5707C27.8891 24.8459 27.7318 24.9528 27.4216 24.9481C26.7105 24.9371 26.0048 24.9481 25.2964 24.9426C24.8929 24.9426 24.7897 24.8482 24.7889 24.4952C24.7853 23.1687 24.7853 21.8422 24.7889 20.5157C24.7889 20.1902 24.9195 20.0809 25.2751 20.0794C25.6306 20.0778 25.7639 20.1879 25.7639 20.5078C25.7639 21.6045 25.7639 22.7012 25.7639 23.7979L25.7648 24.1847Z" fill="#662E93"/>
</g>
<defs>
<clipPath id="clip0_157_12">
<rect width="38.6777" height="36" fill="white"/>
</clipPath>
</defs>
</svg>
