<svg width="16" height="12" viewBox="0 0 16 12" fill="none" xmlns="http://www.w3.org/2000/svg">
<g clip-path="url(#clip0_245_199)">
<path d="M6.46052 2.60445L4.71306 4.13047C3.94933 4.79814 3.18415 5.46389 2.42474 6.13588C2.35572 6.19548 2.31151 6.27876 2.30081 6.36932C2.29361 7.84011 2.29553 9.3109 2.29601 10.7812C2.29601 10.8052 2.29889 10.8292 2.30129 10.8672H4.95323V10.6688C4.95323 9.92429 4.95323 9.17993 4.95323 8.43573C4.95323 8.14753 5.03969 8.05962 5.32837 8.05914C6.07866 8.05914 6.82894 8.05914 7.57923 8.05914C7.86407 8.05914 7.95245 8.15137 7.95245 8.43957C7.95245 9.24365 7.95245 10.0477 7.95245 10.8667H10.6111C10.6111 10.6669 10.6111 10.4704 10.6111 10.274C10.6111 9.96224 10.6077 9.64954 10.6135 9.3378C10.612 9.30015 10.6182 9.26258 10.6315 9.22735C10.6449 9.19212 10.6653 9.15995 10.6914 9.13277C10.7175 9.1056 10.7488 9.08397 10.7834 9.06918C10.8181 9.05439 10.8554 9.04675 10.8931 9.04672C10.9655 9.04827 11.0349 9.07637 11.088 9.12568C11.1412 9.175 11.1743 9.24211 11.1813 9.31426C11.185 9.35016 11.1862 9.38627 11.1851 9.42234C11.1851 9.97425 11.1851 10.5271 11.1851 11.079C11.1851 11.361 11.0862 11.458 10.8056 11.458C9.78509 11.458 8.76454 11.458 7.74398 11.458C7.47307 11.458 7.3746 11.3619 7.37412 11.0896C7.37412 10.3454 7.37412 9.60118 7.37412 8.85698V8.64852H5.52963V8.84065C5.52963 9.57909 5.52963 10.3174 5.52963 11.0555C5.52963 11.3711 5.43933 11.459 5.12039 11.459H2.11252C1.80703 11.459 1.71913 11.3701 1.71913 11.0608C1.71913 9.44635 1.71913 7.83146 1.71624 6.21705C1.71315 6.14279 1.72764 6.06885 1.75852 6.00124C1.7894 5.93363 1.83581 5.87427 1.89397 5.82798C3.32889 4.57911 4.76174 3.32735 6.1925 2.07271C6.39184 1.89835 6.49319 1.89451 6.69829 2.05734C7.06046 2.34554 7.42136 2.63375 7.78097 2.92195C7.94765 3.05596 7.98175 3.21976 7.87704 3.35905C7.77232 3.49835 7.58883 3.50556 7.41735 3.36962C7.10225 3.12033 6.78955 2.86815 6.46052 2.60445Z" fill="#B07FD8"/>
<path d="M8.01152 4.71791C8.01287 3.92714 8.24889 3.15457 8.68969 2.49806C9.13049 1.84154 9.75623 1.33064 10.4876 1.03005C11.219 0.729473 12.0232 0.652743 12.7983 0.809586C13.5733 0.966429 14.2844 1.34979 14.8414 1.91109C15.3984 2.4724 15.7762 3.1864 15.9271 3.96264C16.078 4.73889 15.995 5.54244 15.6888 6.27151C15.3826 7.00058 14.8669 7.62236 14.207 8.05808C13.5471 8.4938 12.7727 8.72386 11.982 8.71911C10.9257 8.71238 9.91506 8.28769 9.17102 7.53789C8.42699 6.7881 8.01011 5.77421 8.01152 4.71791ZM15.4236 4.72079C15.4228 4.04425 15.2213 3.38315 14.8446 2.82122C14.4678 2.25929 13.9328 1.8218 13.3072 1.56416C12.6816 1.30651 11.9937 1.2403 11.3305 1.37391C10.6673 1.50752 10.0586 1.83494 9.58161 2.31471C9.10461 2.79447 8.78071 3.405 8.65093 4.06898C8.52115 4.73296 8.59133 5.42051 8.85258 6.04458C9.11383 6.66864 9.5544 7.20114 10.1185 7.57464C10.6826 7.94814 11.3448 8.14584 12.0214 8.1427C12.9255 8.13737 13.7907 7.77452 14.4282 7.13337C15.0656 6.49223 15.4235 5.6249 15.4236 4.72079Z" fill="#B07FD8"/>
<path d="M6.45763 0.668059L4.19477 2.62303L3.59627 3.14131C3.49444 3.22969 3.38444 3.27772 3.25043 3.2148C3.11641 3.15188 3.08183 3.0414 3.08279 2.9045C3.08519 2.44242 3.08279 1.98082 3.08279 1.50288H2.36757C2.36469 1.56629 2.35892 1.62969 2.35892 1.69502C2.35892 2.45107 2.35508 3.20712 2.35892 3.96364C2.36242 4.04392 2.34653 4.12385 2.31258 4.19668C2.27863 4.26951 2.22764 4.33308 2.16391 4.38202C1.6144 4.84746 1.07162 5.32107 0.527402 5.79276C0.421728 5.88403 0.312691 5.94743 0.169071 5.88115C-0.0446788 5.78268 -0.0619708 5.54491 0.138329 5.36863C0.563427 4.99733 0.976036 4.61018 1.42323 4.2677C1.70519 4.05155 1.80317 3.81714 1.78876 3.46554C1.75946 2.74503 1.77964 2.02453 1.7806 1.30402C1.7806 0.996608 1.86802 0.911589 2.17928 0.910628C2.55154 0.910628 2.92332 0.910628 3.29558 0.910628C3.55256 0.910628 3.65583 1.0163 3.65775 1.27328C3.65775 1.60952 3.65775 1.94191 3.65775 2.30985C3.73221 2.25125 3.78264 2.21378 3.82971 2.17391C4.59281 1.51489 5.35558 0.85571 6.11803 0.196368C6.41824 -0.0634937 6.47012 -0.0639745 6.77562 0.182438C7.30783 0.611859 7.84084 1.04048 8.37466 1.4683C8.48129 1.5538 8.54902 1.65131 8.51876 1.79252C8.4736 2.01684 8.22431 2.08649 8.02257 1.92654C7.64166 1.62441 7.2646 1.31795 6.88609 1.0139C6.75064 0.901021 6.6099 0.789584 6.45763 0.668059Z" fill="#662E93"/>
<path d="M13.6459 2.76286C13.6142 2.84658 13.576 2.92769 13.5316 3.00543C12.6433 4.26455 11.7534 5.52223 10.8618 6.77847C10.7475 6.93938 10.5804 6.97637 10.442 6.88318C10.3037 6.79 10.2763 6.61131 10.3969 6.44079C11.2858 5.18263 12.1756 3.92479 13.0661 2.66727C13.1569 2.53854 13.2803 2.47273 13.4206 2.53614C13.5099 2.57697 13.57 2.68312 13.6459 2.76286Z" fill="#662E93"/>
<path d="M13.2049 7.03222C12.9502 7.02657 12.7079 6.92143 12.5298 6.73931C12.3517 6.5572 12.252 6.31259 12.252 6.05786C12.252 5.80312 12.3517 5.55851 12.5298 5.3764C12.7079 5.19429 12.9502 5.08915 13.2049 5.0835C13.334 5.08349 13.4619 5.109 13.5811 5.15853C13.7003 5.20807 13.8086 5.28067 13.8997 5.37217C13.9908 5.46366 14.0629 5.57225 14.1119 5.69169C14.1609 5.81113 14.1859 5.93908 14.1853 6.06819C14.1845 6.19595 14.1585 6.32231 14.1088 6.43999C14.0591 6.55768 13.9866 6.66438 13.8955 6.75397C13.8044 6.84355 13.6965 6.91425 13.578 6.962C13.4595 7.00975 13.3327 7.03361 13.2049 7.03222ZM13.2006 6.45582C13.2531 6.45735 13.3053 6.4484 13.3543 6.42948C13.4032 6.41056 13.4479 6.38206 13.4857 6.34564C13.5235 6.30923 13.5537 6.26563 13.5744 6.21741C13.5952 6.16919 13.6061 6.11731 13.6065 6.06482C13.6061 5.95884 13.5641 5.85726 13.4895 5.78196C13.415 5.70666 13.3138 5.66369 13.2078 5.6623C13.1052 5.66323 13.007 5.7037 12.9335 5.77529C12.86 5.84688 12.817 5.94406 12.8134 6.04657C12.811 6.09892 12.8191 6.15123 12.8374 6.20036C12.8556 6.2495 12.8835 6.29445 12.9196 6.33252C12.9556 6.37059 12.9989 6.40101 13.0469 6.42195C13.095 6.44289 13.1468 6.45392 13.1992 6.45438L13.2006 6.45582Z" fill="#662E93"/>
<path d="M10.7615 4.43835C10.6338 4.4388 10.5073 4.41402 10.3893 4.36545C10.2712 4.31687 10.1639 4.24546 10.0735 4.1553C9.98315 4.06514 9.91147 3.95802 9.8626 3.84009C9.81374 3.72216 9.78865 3.59573 9.78877 3.46807C9.78918 3.34015 9.81479 3.21356 9.86412 3.09553C9.91345 2.9775 9.98555 2.87035 10.0763 2.78018C10.167 2.69002 10.2747 2.61861 10.393 2.57003C10.5113 2.52146 10.6381 2.49667 10.766 2.49708C10.8939 2.49749 11.0205 2.52309 11.1386 2.57242C11.2566 2.62175 11.3637 2.69385 11.4539 2.7846C11.5441 2.87534 11.6155 2.98296 11.6641 3.1013C11.7126 3.21964 11.7374 3.3464 11.737 3.47432C11.737 3.60189 11.7117 3.7282 11.6625 3.84592C11.6134 3.96364 11.5413 4.07043 11.4506 4.1601C11.3599 4.24977 11.2522 4.32054 11.1339 4.36831C11.0156 4.41607 10.889 4.43988 10.7615 4.43835ZM11.1601 3.47384C11.1613 3.42133 11.152 3.36911 11.1329 3.3202C11.1137 3.27129 11.0851 3.22666 11.0486 3.18888C11.0121 3.1511 10.9685 3.12092 10.9203 3.10008C10.8721 3.07924 10.8202 3.06816 10.7677 3.06747C10.6616 3.0681 10.56 3.1105 10.485 3.18547C10.4099 3.26045 10.3674 3.36198 10.3666 3.46807C10.367 3.57069 10.4073 3.66913 10.479 3.7425C10.5508 3.81586 10.6483 3.85837 10.7509 3.86099C10.8035 3.86365 10.8561 3.85563 10.9055 3.8374C10.9549 3.81917 11 3.79111 11.0383 3.75493C11.0765 3.71874 11.1071 3.67517 11.128 3.62686C11.1489 3.57855 11.1599 3.52649 11.1601 3.47384Z" fill="#662E93"/>
</g>
<defs>
<clipPath id="clip0_245_199">
<rect width="16" height="11.4584" fill="white"/>
</clipPath>
</defs>
</svg>
