<svg width="10" height="16" viewBox="0 0 10 16" fill="none" xmlns="http://www.w3.org/2000/svg">
<g clip-path="url(#clip0_196_259)">
<path d="M1.05917 16.0001C1.0423 15.9892 1.02427 15.9803 1.00542 15.9734C0.376665 15.8176 0.00249844 15.3463 0.00124844 14.698C-0.00125156 13.6201 0.00124844 12.5422 0.00124844 11.4643C0.00124844 10.532 0.00124844 9.59981 0.00124844 8.66758C0.00124844 7.85633 0.528749 7.32467 1.33792 7.32342C3.55125 7.31981 5.76458 7.31731 7.97791 7.31592C8.16541 7.31592 8.35291 7.31967 8.54041 7.32342C9.275 7.33717 9.79375 7.85467 9.80583 8.58967C9.81 8.84467 9.80583 9.09967 9.80583 9.35508V14.6201C9.80583 15.3568 9.48333 15.7801 8.77083 15.9813C8.76167 15.9838 8.755 15.9934 8.74708 16.0001H1.05917ZM1.50042 7.83717C0.859999 7.76634 0.500416 8.08134 0.500416 8.68925V14.6409C0.500416 15.203 0.797082 15.5001 1.35667 15.5001H8.43417C9.01528 15.5001 9.30583 15.2084 9.30583 14.6251C9.30583 12.6512 9.30583 10.6776 9.30583 8.70425C9.30583 8.64717 9.30791 8.58967 9.30333 8.53259C9.26583 8.02717 8.79833 7.70467 8.30583 7.853V8.01967C8.30583 8.81134 8.30583 9.603 8.30583 10.3947C8.30583 11.0526 7.88917 11.4713 7.235 11.4718C5.68305 11.4718 4.13111 11.4718 2.57917 11.4718C1.915 11.4718 1.50167 11.0551 1.50083 10.3884C1.50083 9.59703 1.50083 8.80536 1.50083 8.01342L1.50042 7.83717ZM7.79875 7.84425H2.00708C2.00416 7.903 2 7.95383 2 8.00467C2 8.79606 2 9.58772 2 10.3797C2 10.7847 2.1875 10.9738 2.59 10.9738C4.13111 10.9738 5.67278 10.9738 7.215 10.9738C7.6175 10.9738 7.80583 10.7847 7.80625 10.3809C7.80625 9.58925 7.80625 8.79759 7.80625 8.00592C7.80542 7.95467 7.80125 7.90384 7.79875 7.84425Z" fill="#B07FD8"/>
<path d="M7.71625 0C7.79459 0.0245833 7.87417 0.0466666 7.95125 0.0741666C8.18901 0.158074 8.39549 0.312532 8.54314 0.516907C8.69078 0.721281 8.77254 0.965841 8.7775 1.21792C8.78334 2.54542 8.79167 3.87333 8.77375 5.20042C8.765 5.84708 8.46167 6.36708 7.9475 6.75875C7.8225 6.85417 7.67417 6.83917 7.58584 6.72875C7.4975 6.61833 7.50917 6.47458 7.63834 6.37167C7.93 6.14042 8.13834 5.86 8.23 5.49667C8.2543 5.41702 8.26913 5.33479 8.27417 5.25167C8.2775 4.53375 8.27625 3.81583 8.27625 3.085H7.28834C7.28417 3.12125 7.28 3.15625 7.27584 3.19125C7.25865 3.37802 7.1721 3.55156 7.03327 3.67767C6.89444 3.80378 6.71339 3.87329 6.52584 3.8725C5.4375 3.87778 4.34931 3.87778 3.26125 3.8725C3.07996 3.86865 2.9062 3.79925 2.77214 3.67714C2.63808 3.55503 2.5528 3.38848 2.53209 3.20833C2.52667 3.16667 2.52334 3.1275 2.51875 3.08083C2.47209 3.07792 2.43125 3.07292 2.39042 3.07292C2.11 3.07292 1.82959 3.07292 1.5375 3.07292C1.53375 3.135 1.52834 3.185 1.52834 3.235C1.52834 3.84417 1.52834 4.45333 1.52834 5.0625C1.52834 5.5625 1.71834 5.97167 2.10542 6.28875C2.13375 6.31167 2.16209 6.335 2.18875 6.36042C2.2975 6.46875 2.30792 6.6025 2.21792 6.70917C2.12792 6.81583 1.98917 6.83167 1.86834 6.73958C1.35459 6.34875 1.045 5.83167 1.035 5.185C1.01625 3.8575 1.02375 2.53 1.03167 1.2025C1.035 0.648333 1.44167 0.17 1.99 0.0333335C2.02417 0.0250001 2.05709 0.01125 2.09084 0H7.71625ZM2.5275 2.56875C2.5275 2.45625 2.5275 2.36042 2.5275 2.26042C2.52643 2.15977 2.54556 2.05992 2.58376 1.96679C2.62196 1.87367 2.67845 1.78915 2.7499 1.71825C2.82135 1.64734 2.90629 1.59149 2.99971 1.55401C3.09312 1.51652 3.19311 1.49815 3.29375 1.5C4.36681 1.4975 5.43973 1.4975 6.5125 1.5C6.94917 1.5 7.27084 1.82417 7.27792 2.25958C7.28 2.36083 7.27792 2.4625 7.27792 2.56208H8.27792C8.27792 2.12667 8.28 1.70042 8.27792 1.27458C8.275 0.819583 7.95459 0.5 7.49709 0.499584C5.76792 0.499584 4.03875 0.499584 2.30959 0.499584C1.85125 0.499584 1.53125 0.819583 1.52834 1.27417C1.52584 1.665 1.52834 2.05542 1.52834 2.44583C1.52834 2.48542 1.53542 2.525 1.53959 2.56792L2.5275 2.56875ZM4.9025 2C4.37625 2 3.85042 2 3.32459 2C3.12167 2 3.02917 2.09333 3.02792 2.29583C3.02598 2.56139 3.02598 2.82694 3.02792 3.0925C3.03 3.27625 3.12459 3.37333 3.3075 3.37375C4.36473 3.37542 5.42181 3.37542 6.47875 3.37375C6.68042 3.37375 6.77584 3.275 6.77709 3.07667C6.77917 2.82167 6.77709 2.56667 6.77709 2.31125C6.77709 2.08833 6.68792 2.00042 6.46417 2C5.94417 2 5.42361 2 4.9025 2Z" fill="#662E93"/>
<path d="M6.71833 13.1772C7.06166 13.1772 7.405 13.1772 7.74791 13.1772C7.94291 13.1772 8.05875 13.2772 8.05416 13.431C8.04958 13.578 7.93541 13.6751 7.75083 13.6755C7.05916 13.6775 6.36764 13.6775 5.67625 13.6755C5.49375 13.6755 5.37875 13.5735 5.3775 13.4255C5.37625 13.2776 5.48916 13.178 5.67333 13.1755C6.02166 13.1755 6.37 13.1772 6.71833 13.1772Z" fill="#B07FD8"/>
<path d="M6.71584 14.7224C6.3675 14.7224 6.01917 14.7224 5.67084 14.7224C5.48917 14.7224 5.375 14.6208 5.37917 14.4724C5.38167 14.3303 5.495 14.2258 5.66417 14.2253C6.36639 14.2234 7.06847 14.2234 7.77042 14.2253C7.93917 14.2253 8.0525 14.3299 8.05542 14.4724C8.05834 14.6224 7.94417 14.7224 7.76375 14.7224C7.41292 14.7237 7.06459 14.7224 6.71584 14.7224Z" fill="#B07FD8"/>
<path d="M3.14834 8.8792C3.10657 8.87902 3.06485 8.87666 3.02334 8.87212C2.96057 8.86527 2.90294 8.83426 2.86265 8.78565C2.82236 8.73704 2.80258 8.67465 2.8075 8.6117C2.8175 8.47212 2.9 8.38462 3.03459 8.3792C3.28875 8.3692 3.54375 8.37087 3.79792 8.3792C3.82946 8.38021 3.86049 8.38752 3.88916 8.40071C3.91783 8.4139 3.94357 8.43271 3.96485 8.45601C3.98614 8.47931 4.00253 8.50665 4.01308 8.53639C4.02363 8.56614 4.0281 8.5977 4.02625 8.6292C4.01959 8.76712 3.94292 8.84837 3.80708 8.87295C3.75911 8.87882 3.71083 8.88174 3.6625 8.8817C3.63125 9.07795 3.72334 9.37004 3.39959 9.36712C3.08834 9.36295 3.16834 9.08337 3.14834 8.8792Z" fill="#662E93"/>
<path d="M6.66208 8.88091C6.6325 9.07841 6.7225 9.36966 6.39833 9.36549C6.08917 9.36174 6.16708 9.08341 6.14833 8.88216C6.09458 8.87882 6.04875 8.87882 6.00417 8.87257C5.94117 8.86756 5.88255 8.83841 5.84055 8.7912C5.79854 8.744 5.7764 8.68238 5.77875 8.61924C5.78708 8.48174 5.86542 8.38674 6.00042 8.38049C6.25958 8.36882 6.52 8.36841 6.77917 8.38049C6.91333 8.38674 6.99417 8.48007 6.99708 8.62007C7 8.76007 6.92042 8.84091 6.78875 8.87007C6.74683 8.87659 6.7045 8.88021 6.66208 8.88091Z" fill="#662E93"/>
</g>
<defs>
<clipPath id="clip0_196_259">
<rect width="9.8075" height="16" fill="white"/>
</clipPath>
</defs>
</svg>
