<svg width="18" height="16" viewBox="0 0 18 16" fill="none" xmlns="http://www.w3.org/2000/svg">
<g clip-path="url(#clip0_279_78)">
<path d="M17.3474 5.6527C17.2954 5.9417 17.257 6.23433 17.1884 6.51925C16.9652 7.45101 16.4863 8.30123 15.806 8.97329C13.5279 11.2644 11.2484 13.5545 8.96733 15.8436C8.76133 16.0509 8.58921 16.0518 8.38366 15.8436C7.40486 14.8621 6.42606 13.8791 5.44726 12.8946C5.30224 12.7489 5.27062 12.5924 5.35329 12.4504C5.43596 12.3084 5.57104 12.2449 5.72689 12.2907C5.8161 12.3238 5.89617 12.3778 5.96045 12.4481C6.81758 13.3038 7.67245 14.1616 8.52506 15.0215C8.56847 15.0711 8.6089 15.1232 8.64613 15.1776C8.70802 15.1231 8.74687 15.0927 8.78166 15.0582C10.9618 12.8687 13.1412 10.6786 15.3199 8.48784C17.1622 6.62769 17.1093 3.67867 15.2164 1.90064C13.4822 0.270515 10.7138 0.282765 9.00663 1.92786C8.73558 2.18783 8.61631 2.18012 8.33307 1.92559C6.99542 0.724665 5.45042 0.358532 3.7577 0.936993C2.06497 1.51545 1.04717 2.73952 0.746754 4.51029C0.491512 6.01656 0.927455 7.33772 1.9814 8.4411C2.52847 9.01458 3.09723 9.56627 3.65289 10.1293C3.71152 10.1822 3.76085 10.2446 3.79881 10.314C3.83249 10.3774 3.84343 10.4505 3.82977 10.5211C3.81612 10.5916 3.7787 10.6553 3.72381 10.7014C3.67311 10.752 3.60706 10.7841 3.53612 10.7927C3.46518 10.8014 3.3934 10.786 3.33214 10.7491C3.29759 10.7298 3.26608 10.7055 3.23863 10.6769C2.60121 10.0336 1.94661 9.40657 1.33268 8.74191C0.569214 7.91482 0.147727 6.91941 0.0271089 5.79652C0.0197163 5.74685 0.00961199 5.69762 -0.00315857 5.64907V4.83242C0.0176221 4.70448 0.0420168 4.57653 0.0596353 4.44814C0.578701 0.978734 4.34046 -1.01707 7.4788 0.523677C7.90074 0.731016 8.28563 1.01458 8.70621 1.27409C8.71073 1.27046 8.74687 1.2446 8.78121 1.21647C9.94312 0.26371 11.2735 -0.129189 12.7589 0.0414003C14.8745 0.284581 16.6363 1.83803 17.1707 3.91686C17.248 4.21721 17.2873 4.52708 17.3442 4.83242L17.3474 5.6527Z" fill="#B07FD8"/>
<path d="M8.81914 6.16079C9.12363 6.16805 9.50717 6.30415 9.81571 6.60631C10.3452 7.12489 10.8769 7.6421 11.3842 8.182C12.0772 8.92243 12.0944 10.073 11.4511 10.8588C11.1391 11.2384 10.7013 11.4922 10.218 11.5737C9.7347 11.6552 9.23835 11.5589 8.82005 11.3025C8.71524 11.2381 8.64612 11.2299 8.53634 11.298C8.11533 11.5588 7.61415 11.6568 7.12645 11.5736C6.63875 11.4904 6.19788 11.2318 5.88622 10.846C5.57455 10.4601 5.41341 9.97358 5.43289 9.47715C5.45236 8.98073 5.65114 8.5084 5.99206 8.14842C6.48041 7.63666 6.98367 7.13941 7.48828 6.64352C7.83387 6.30642 8.23096 6.15534 8.81914 6.16079ZM9.83107 10.9246C10.4143 10.9273 10.9153 10.607 11.1226 10.0966C11.3444 9.55215 11.2613 9.04356 10.8588 8.61709C10.3772 8.10714 9.87715 7.61488 9.37661 7.12443C9.19025 6.93742 8.93758 6.83238 8.67413 6.83238C8.41068 6.83238 8.15801 6.93742 7.97165 7.12443C7.47593 7.6114 6.98517 8.10456 6.49938 8.60393C6.25213 8.8546 6.11177 9.19211 6.10806 9.54493C6.10435 9.89776 6.23758 10.2382 6.47951 10.494C6.98276 11.0335 7.80405 11.0707 8.37281 10.5802C8.61405 10.3724 8.73421 10.3706 8.97364 10.5802C9.21058 10.7923 9.5139 10.9144 9.83107 10.9255V10.9246Z" fill="#B07FD8"/>
<path d="M5.72598 4.31152C5.73547 3.9032 5.85157 3.52481 6.1294 3.20904C6.61955 2.651 7.39431 2.64011 7.90163 3.18227C8.46136 3.7816 8.46994 4.80559 7.9206 5.42126C7.41464 5.98792 6.60374 5.97794 6.11359 5.39767C5.85112 5.08643 5.73728 4.7203 5.72598 4.31152ZM6.40587 4.26615C6.40587 4.58601 6.51429 4.85595 6.68867 5.0152C6.89332 5.20258 7.15308 5.20485 7.35998 5.02155C7.74126 4.6831 7.74171 3.93904 7.35998 3.60194C7.15308 3.42046 6.89106 3.42046 6.68867 3.60784C6.48629 3.79522 6.41491 4.04248 6.40587 4.26615Z" fill="#662E93"/>
<path d="M11.6214 4.32046C11.6101 4.71608 11.4985 5.07768 11.2428 5.38619C10.7486 5.98234 9.92053 5.99096 9.41411 5.4066C8.91492 4.83087 8.88601 3.90351 9.34861 3.29692C9.88529 2.59324 10.8191 2.61638 11.3241 3.34229C11.5194 3.63065 11.6231 3.97172 11.6214 4.32046ZM10.9438 4.31638C10.9334 4.05777 10.8683 3.81731 10.6768 3.6254C10.459 3.40853 10.1744 3.41216 9.95712 3.63039C9.61469 3.97429 9.61469 4.64757 9.95712 4.99147C10.1789 5.21469 10.4699 5.21424 10.689 4.98603C10.866 4.80092 10.9325 4.57044 10.9433 4.31638H10.9438Z" fill="#662E93"/>
<path d="M5.96315 6.69106C5.95999 7.38612 5.5516 7.9233 4.98781 8.01404C4.67746 8.06394 4.40821 7.96277 4.17872 7.75634C3.61493 7.24911 3.59686 6.27638 4.13806 5.74284C4.58982 5.29867 5.26745 5.34812 5.66635 5.8549C5.85291 6.09394 5.95708 6.3874 5.96315 6.69106ZM5.3307 6.74324C5.25661 6.56902 5.21324 6.4016 5.12153 6.26776C4.98375 6.06632 4.74929 6.07358 4.58937 6.25733C4.37117 6.50777 4.37388 6.96691 4.59479 7.21326C4.74929 7.38521 4.96658 7.39973 5.10346 7.21326C5.19833 7.08079 5.24848 6.91156 5.32618 6.74324H5.3307Z" fill="#662E93"/>
<path d="M11.3865 6.67848C11.3932 6.32978 11.5333 5.99706 11.7777 5.74931C12.1974 5.32783 12.8321 5.33872 13.24 5.77154C13.7031 6.26335 13.7284 7.10813 13.296 7.62806C12.8267 8.19337 12.0456 8.14936 11.6268 7.53415C11.4635 7.27938 11.3798 6.98139 11.3865 6.67848ZM12.9744 6.74653C12.8953 6.57095 12.8443 6.38902 12.7413 6.2452C12.613 6.06735 12.3934 6.08187 12.2444 6.2452C12.0085 6.49882 12.0103 6.97565 12.248 7.22518C12.4016 7.38624 12.6125 7.39758 12.7449 7.21974C12.8411 7.08862 12.8908 6.92347 12.9744 6.74653Z" fill="#662E93"/>
<path d="M15.8281 5.47701C15.8335 5.82545 15.7522 6.24012 15.6095 6.64346C15.5273 6.87575 15.3515 6.97602 15.155 6.90978C14.9585 6.84354 14.8898 6.65344 14.9698 6.41797C15.2557 5.57455 15.1988 4.75836 14.785 3.96802C14.6703 3.74843 14.7118 3.55153 14.8898 3.45217C15.0678 3.35281 15.2625 3.42404 15.3868 3.65316C15.6804 4.19623 15.8299 4.7765 15.8281 5.47701Z" fill="#662E93"/>
<path d="M4.90966 11.5315C4.90872 11.6226 4.87223 11.7097 4.80804 11.7741C4.74384 11.8385 4.65706 11.875 4.56633 11.8758C4.47864 11.8731 4.39536 11.8366 4.33366 11.774C4.27196 11.7113 4.23655 11.6273 4.23474 11.5392C4.23352 11.451 4.26683 11.3659 4.3275 11.3022C4.38817 11.2385 4.47135 11.2012 4.5591 11.1985C4.604 11.1968 4.64879 11.2041 4.69084 11.22C4.73289 11.2359 4.77137 11.2601 4.80401 11.2911C4.83665 11.3221 4.86281 11.3593 4.88095 11.4006C4.89909 11.4419 4.90885 11.4864 4.90966 11.5315Z" fill="#B07FD8"/>
</g>
<defs>
<clipPath id="clip0_279_78">
<rect width="17.3474" height="16" fill="white"/>
</clipPath>
</defs>
</svg>
