<svg width="39" height="36" viewBox="0 0 39 36" fill="none" xmlns="http://www.w3.org/2000/svg">
<g clip-path="url(#clip0_403_132)">
<path d="M2.21138 21.8574H16.6142C16.7478 21.8492 16.8819 21.8528 17.0149 21.8681C17.3609 21.9303 17.5699 22.1445 17.5709 22.4992C17.572 22.8538 17.362 23.0681 17.0159 23.1324C16.883 23.1478 16.7489 23.1514 16.6152 23.1431H1.31784V24.4288H17.8431C17.9641 24.4288 18.0852 24.4234 18.2052 24.4288C18.5898 24.4534 18.848 24.7052 18.8609 25.0534C18.8737 25.4016 18.5995 25.6962 18.1956 25.708C17.3791 25.7198 16.5627 25.708 15.7453 25.708C15.1431 25.708 9.18296 25.7305 8.58191 25.6994C8.23799 25.6812 8.06657 25.7916 7.91228 26.1034C6.38769 29.1826 4.8438 32.2542 3.30528 35.327C3.25707 35.4224 3.21207 35.5199 3.15957 35.6131C2.98815 35.9152 2.73101 36.0663 2.39031 35.9581C2.0496 35.8498 1.90389 35.5874 1.94461 35.2402C2.0271 34.5224 2.12353 33.8056 2.21245 33.0889C2.51887 30.6472 2.82422 28.2054 3.13707 25.708H0.965349C0.177872 25.708 0.00751995 25.5355 0.00751995 24.7373C0.00751995 24.0409 -0.0171219 23.3445 0.020377 22.6492C0.0346392 22.3888 0.134869 22.1405 0.305368 21.9431C1.93746 20.2803 3.58456 18.6325 5.24665 16.9997C5.43195 16.8345 5.66742 16.7364 5.9152 16.7211C6.68982 16.6869 7.46766 16.7051 8.24442 16.7094C8.71583 16.7094 9.00404 16.9622 9.00404 17.3522C9.00404 17.7422 8.71369 17.9886 8.24227 17.995C7.59944 17.995 6.9566 17.9886 6.31376 18.0025C6.17261 18.0039 6.03615 18.0534 5.92699 18.1429C4.70881 19.3514 3.50027 20.5717 2.21138 21.8574ZM3.71134 31.5L3.77884 31.5257C4.74309 29.6036 5.69664 27.6826 6.67161 25.7348H4.42917C4.18597 27.6655 3.94919 29.5822 3.71134 31.5Z" fill="#B07FD8"/>
<path d="M31.078 25.7148H20.6555C20.5221 25.7235 20.3881 25.7181 20.2558 25.6987C19.9344 25.628 19.7319 25.4191 19.7287 25.0816C19.7287 24.7259 19.929 24.5095 20.274 24.4388C20.407 24.4225 20.5411 24.4185 20.6747 24.427H37.2632V23.1435H21.9958C21.8622 23.149 21.7284 23.1465 21.5951 23.136C21.4327 23.1239 21.2813 23.0494 21.1727 22.9282C21.064 22.8069 21.0065 22.6483 21.0122 22.4856C21.0337 22.1299 21.2372 21.9221 21.5854 21.8664C21.7054 21.8538 21.8261 21.851 21.9465 21.8578H36.3589C36.2421 21.7281 36.1854 21.6596 36.1232 21.5974C34.9961 20.4703 33.8733 19.34 32.7355 18.2247C32.5928 18.0971 32.4112 18.0216 32.2201 18.0104C31.6051 17.9847 30.988 18.0029 30.373 17.9997C29.8705 17.9997 29.5748 17.7501 29.5813 17.3483C29.5877 16.9465 29.8791 16.7172 30.3902 16.7162C31.1401 16.7162 31.8901 16.6915 32.6401 16.7279C32.9006 16.7421 33.1488 16.8432 33.3451 17.0151C35.0079 18.6465 36.6557 20.2935 38.2885 21.9564C38.4537 22.1423 38.5512 22.3787 38.5649 22.627C38.5981 23.4017 38.5821 24.1795 38.5756 24.9563C38.5756 25.478 38.3356 25.7062 37.8085 25.7137C37.0585 25.7202 36.3086 25.7191 35.5586 25.7223C35.5214 25.7308 35.4855 25.7437 35.4514 25.7609C35.5939 26.9041 35.7354 28.0547 35.88 29.2054C36.1307 31.1975 36.3807 33.1889 36.63 35.1795C36.6814 35.5952 36.4843 35.9027 36.1361 35.9841C35.8146 36.0602 35.5297 35.877 35.3464 35.4613C33.9851 32.35 32.6244 29.239 31.2644 26.1284C31.2098 25.9944 31.1476 25.8616 31.078 25.7148ZM34.7283 30.8382L34.7872 30.8189C34.5729 29.1276 34.3615 27.4351 34.1529 25.7416H32.503L34.7283 30.8382Z" fill="#B07FD8"/>
<path d="M27.0067 16.0722C26.1431 16.0722 22.1147 16.0776 21.3004 16.0722C20.8483 16.0722 20.5558 15.7787 20.5826 15.3898C20.6072 15.0287 20.8772 14.7941 21.3026 14.7908C22.1168 14.7844 26.1453 14.7908 26.9863 14.7908C26.9938 14.6323 27.0056 14.5026 27.0056 14.373C27.0056 11.8152 27.0056 9.25744 27.0056 6.69966C27.0056 5.98504 26.8138 5.79111 26.1056 5.79111H12.4882C11.7725 5.79111 11.5786 5.98182 11.5786 6.68895V14.7866C12.3907 14.7866 16.3773 14.7866 17.1498 14.7866C17.2829 14.7778 17.4166 14.7894 17.5462 14.8208C17.6912 14.8583 17.8173 14.9479 17.9005 15.0723C17.9837 15.1968 18.0181 15.3476 17.9973 15.4958C17.9705 15.8269 17.707 16.0605 17.3341 16.0669C16.6506 16.0787 12.7539 16.0669 12.0703 16.0669H11.585C11.5699 16.3085 11.572 16.5509 11.5914 16.7922C11.6461 17.1618 11.8989 17.3183 12.2632 17.3611C12.3472 17.3654 12.4295 17.3866 12.5053 17.4232C12.581 17.4599 12.6486 17.5113 12.7041 17.5745C12.7597 17.6377 12.802 17.7114 12.8285 17.7913C12.8551 17.8711 12.8654 17.9554 12.8589 18.0393C12.8321 18.4004 12.5375 18.6425 12.1357 18.635C11.1168 18.6179 10.295 17.7372 10.294 16.6379C10.2882 13.5445 10.2882 10.4513 10.294 7.35857C10.294 7.03715 10.2875 6.71573 10.294 6.39431C10.2985 5.89213 10.5005 5.41191 10.8564 5.0576C11.2124 4.70329 11.6935 4.50339 12.1957 4.50115C16.9227 4.49115 21.6497 4.49115 26.3767 4.50115C26.63 4.49883 26.8812 4.54723 27.1155 4.64349C27.3498 4.73974 27.5625 4.88192 27.741 5.06163C27.9195 5.24135 28.0603 5.45497 28.155 5.68992C28.2497 5.92487 28.2964 6.17639 28.2924 6.42967C28.3024 9.85814 28.3024 13.2866 28.2924 16.7151C28.2929 17.1898 28.1183 17.6481 27.802 18.0022C27.4857 18.3563 27.0499 18.5812 26.5781 18.6339C26.1228 18.6864 25.7874 18.4732 25.7285 18.0982C25.6696 17.7233 25.9171 17.4436 26.3906 17.3601C26.8031 17.2883 26.9906 17.0751 27.0056 16.6508C27.0067 16.474 27.0067 16.3015 27.0067 16.0722Z" fill="#662E93"/>
<path d="M4.50735 0.00107081C5.73946 0.00107081 6.97156 0.00107081 8.20367 0.00107081C8.77794 0.00107081 9.00293 0.228207 9.00293 0.806762C9.00293 3.27097 9.00293 5.73518 9.00293 8.1994C9.00293 8.77367 8.77472 8.99866 8.19617 8.99866C5.73196 8.99866 3.26775 8.99866 0.803533 8.99866C0.229265 8.99866 0.00427246 8.77152 0.00427246 8.1919C0.00427246 5.72769 0.00427246 3.26347 0.00427246 0.799261C0.00427246 0.223921 0.230338 0.0010714 0.809963 0C2.04314 0.0010714 3.27846 0.00107081 4.50735 0.00107081ZM7.6894 7.69691V1.31889H1.31459V7.69691H7.6894Z" fill="#662E93"/>
<path d="M34.1186 0.000976562C35.3368 0.000976562 36.555 0.000976562 37.7742 0.000976562C38.3506 0.000976562 38.5767 0.227042 38.5767 0.803453C38.5767 3.26767 38.5767 5.73188 38.5767 8.19609C38.5767 8.77143 38.3496 8.99857 37.7731 8.99857C35.3089 8.99857 32.8447 8.99857 30.3805 8.99857C29.8052 8.99857 29.5791 8.7725 29.5791 8.19502C29.5791 5.73081 29.5791 3.26659 29.5791 0.802381C29.5791 0.225969 29.8041 0.00204796 30.3816 0.000976562C31.6276 0.000976562 32.8726 0.000976562 34.1186 0.000976562ZM37.2632 7.69682V1.31879H30.8851V7.69682H37.2632Z" fill="#662E93"/>
</g>
<defs>
<clipPath id="clip0_403_132">
<rect width="38.5853" height="36" fill="white"/>
</clipPath>
</defs>
</svg>
