<svg width="31" height="36" viewBox="0 0 31 36" fill="none" xmlns="http://www.w3.org/2000/svg">
<g clip-path="url(#clip0_429_254)">
<path d="M14.1778 36C13.5889 35.9145 12.9962 35.8497 12.412 35.7408C8.62593 35.0307 5.54523 33.1419 3.18117 30.1138C1.24051 27.6172 0.131724 24.5748 0.0109169 21.4149C-0.10989 18.2551 0.763363 15.1369 2.50774 12.4994C2.53967 12.4505 2.56973 12.3998 2.60166 12.3528C2.81017 12.0711 3.11073 12.0119 3.36808 12.1904C3.60195 12.3528 3.64985 12.6506 3.48455 12.9417C3.09476 13.6349 2.65708 14.3055 2.32553 15.0259C-0.908263 22.042 2.2842 30.513 9.33599 33.6679C17.0828 37.1327 25.9858 33.172 28.5903 25.1011C30.8304 18.1507 27.2547 10.4143 20.4387 7.8013C14.7789 5.63072 9.66097 6.71836 5.21368 10.8604C5.15357 10.9167 5.09815 10.9778 5.03804 11.0332C4.75627 11.2906 4.48577 11.3103 4.25848 11.0933C4.03118 10.8764 4.02085 10.5467 4.29041 10.2875C4.72903 9.86574 5.18644 9.46281 5.63728 9.05424C5.7312 8.96877 5.83358 8.89081 5.95286 8.79219C5.52832 8.05489 5.10755 7.32886 4.69053 6.60001C4.26317 5.85426 4.40875 5.28508 5.14606 4.85867C5.5612 4.61822 5.9754 4.3759 6.39336 4.14109C7.04237 3.77573 7.63597 3.92977 8.01167 4.56751C8.45029 5.31326 8.87858 6.06465 9.30969 6.8104C10.0057 6.59344 10.6782 6.36333 11.3629 6.17736C11.8833 6.04078 12.4106 5.9323 12.9427 5.85238C13.154 5.81857 13.2179 5.74531 13.2103 5.54337C13.1981 5.20431 13.2103 4.86525 13.2103 4.48767C13.0685 4.4764 12.9464 4.46889 12.8234 4.45856C12.2457 4.40784 11.8128 3.98142 11.7996 3.40285C11.7814 2.63017 11.7814 1.85687 11.7996 1.08294C11.7996 0.94144 11.8276 0.801334 11.8818 0.670664C11.9361 0.539994 12.0157 0.421334 12.116 0.321497C12.2163 0.22166 12.3353 0.142613 12.4662 0.0888922C12.5971 0.0351711 12.7373 0.00783469 12.8788 0.00845313C14.4016 -0.00281771 15.9247 -0.00281771 17.4482 0.00845313C17.5896 0.00746338 17.7299 0.0343943 17.8609 0.0877026C17.992 0.141011 18.1112 0.219649 18.2118 0.319112C18.3124 0.418576 18.3924 0.53691 18.4472 0.667336C18.502 0.797762 18.5305 0.937716 18.5311 1.07918C18.548 1.85249 18.548 2.62579 18.5311 3.3991C18.5268 3.672 18.4191 3.93309 18.2298 4.12971C18.0405 4.32634 17.7836 4.44385 17.5111 4.45856C17.3956 4.46889 17.2801 4.47452 17.1213 4.48486C17.1213 4.88121 17.1119 5.26442 17.1298 5.64575C17.1425 5.69045 17.1665 5.73116 17.1993 5.76403C17.2322 5.7969 17.2729 5.82084 17.3176 5.8336C18.5756 6.01782 19.8063 6.355 20.9825 6.83764C21.0764 6.68642 21.1704 6.54178 21.2549 6.39338C21.6137 5.77631 21.964 5.15359 22.3284 4.54027C22.6769 3.95325 23.279 3.7823 23.8669 4.10446C24.3484 4.36807 24.8246 4.64296 25.2955 4.92911C25.875 5.28227 26.0347 5.88338 25.7012 6.47697C25.273 7.24151 24.8268 7.9976 24.375 8.77998C24.453 8.84949 24.5253 8.92087 24.6042 8.98474C27.452 11.3037 29.2666 14.2501 30.0236 17.8511C31.7048 25.8553 26.4057 33.9778 18.393 35.6459C17.652 35.8009 16.895 35.8835 16.1464 36H14.1778ZM17.436 3.35871V1.09985H12.8844V3.35871H17.436ZM5.50766 5.88619C5.96319 6.66388 6.39054 7.39649 6.82259 8.13191L8.32537 7.26687L7.03298 5.00801L5.50766 5.88619ZM23.4987 8.13097L24.8052 5.88338L23.2874 5.00707L21.9997 7.26124L23.4987 8.13097Z" fill="#B07FD8"/>
<path d="M14.9902 32.6835C18.6466 32.6009 21.5949 31.3151 23.9608 28.7293C24.0322 28.6514 24.0999 28.5697 24.175 28.4964C24.423 28.2522 24.7282 28.2334 24.9583 28.4438C25.0117 28.4905 25.0546 28.548 25.0842 28.6124C25.1139 28.6768 25.1296 28.7467 25.1304 28.8176C25.1312 28.8885 25.117 28.9588 25.0889 29.0239C25.0607 29.0889 25.0191 29.1473 24.9668 29.1952C24.4746 29.7127 23.9937 30.2481 23.4461 30.698C20.6613 33.0085 17.4482 34.0069 13.849 33.6641C7.83791 33.0902 2.99803 28.2522 2.34901 22.211C2.03414 19.2499 2.75338 16.2711 4.38469 13.7798C6.016 11.2886 8.45893 9.43846 11.299 8.54328C18.4607 6.27033 26.1258 10.6885 27.745 18.0427C28.4175 21.0943 28.0193 24.0219 26.5935 26.8058C26.556 26.8791 26.5203 26.9533 26.4771 27.0228C26.2977 27.3149 26.0215 27.4154 25.7651 27.2867C25.4758 27.1411 25.3998 26.8434 25.5435 26.5043C25.8628 25.7529 26.2394 25.0156 26.4752 24.2379C28.5246 17.4698 24.1881 10.4311 17.2284 9.20168C10.6162 8.02952 4.31859 12.6205 3.43571 19.2571C3.0243 22.3302 3.83423 25.4421 5.69163 27.9246C7.54902 30.4072 10.3058 32.0625 13.37 32.5351C13.9589 32.6291 14.5581 32.645 14.9902 32.6835Z" fill="#B07FD8"/>
<path d="M20.9534 20.3646C20.6538 21.332 20.3899 22.1933 20.1166 23.048C20.0673 23.2273 19.9699 23.3897 19.8348 23.5176C19.446 23.8341 18.9407 23.5815 18.8298 23.0292C18.6589 22.1839 18.4945 21.3311 18.3273 20.482C18.2184 19.9304 18.1091 19.3796 17.9995 18.8299C17.9141 18.4016 18.0568 18.1217 18.3893 18.0616C18.7218 18.0015 18.9482 18.1903 19.0355 18.6251C19.2036 19.462 19.3708 20.2998 19.5521 21.2099C19.6094 21.0709 19.646 20.9958 19.6723 20.9159C19.9053 20.1645 20.1419 19.4207 20.3683 18.6712C20.4622 18.3603 20.5505 18.0419 20.9638 18.0484C21.377 18.055 21.4541 18.3828 21.548 18.689C21.764 19.3934 21.98 20.0975 22.1961 20.8013C22.2264 20.9184 22.2877 21.0252 22.3736 21.1103L22.8244 18.8609C22.8469 18.7463 22.8667 18.6308 22.8948 18.5181C22.9803 18.1715 23.2179 18.0043 23.5316 18.0663C23.8266 18.1255 23.9938 18.3988 23.9261 18.7416C23.7383 19.7053 23.541 20.6689 23.3485 21.6316C23.2546 22.1135 23.1531 22.5953 23.0592 23.0771C22.9953 23.4011 22.8178 23.6097 22.4769 23.6322C22.1181 23.6566 21.9133 23.4613 21.8091 23.1325C21.5339 22.2403 21.2578 21.348 20.9534 20.3646Z" fill="#662E93"/>
<path d="M12.3068 25.7934V26.9627H18.0145V25.7924C17.7206 25.7924 17.4425 25.799 17.1692 25.7924C16.7813 25.7811 16.539 25.5792 16.5343 25.2777C16.5296 24.9405 16.7578 24.732 17.1598 24.7226C17.4529 24.7151 17.7469 24.7104 18.038 24.7273C18.3229 24.7323 18.5944 24.8495 18.7933 25.0535C18.9922 25.2576 19.1026 25.5319 19.1003 25.8168C19.1106 26.1925 19.1097 26.5682 19.1003 26.9439C19.0843 27.5685 18.6363 28.0447 18.0108 28.0485C16.1135 28.0616 14.216 28.0616 12.3181 28.0485C11.6944 28.0485 11.2436 27.5666 11.2286 26.9449C11.2198 26.5692 11.2198 26.1935 11.2286 25.8178C11.2436 25.2185 11.6615 24.7555 12.2551 24.7348C13.0272 24.7076 13.8011 24.717 14.5741 24.7283C14.9226 24.733 15.1377 24.964 15.133 25.2768C15.133 25.5586 14.9066 25.7793 14.5694 25.7887C13.9608 25.8037 13.3484 25.7943 12.7417 25.7952L12.3068 25.7934Z" fill="#662E93"/>
<path d="M7.43031 20.281C7.43031 21.2512 7.43031 22.1059 7.43031 22.9607C7.43031 23.403 7.24247 23.6378 6.89683 23.6341C6.55119 23.6303 6.37649 23.3946 6.37555 22.9456C6.37555 21.5368 6.37555 20.1345 6.37555 18.7294C6.37555 18.4354 6.43284 18.1799 6.73715 18.0794C7.05743 17.9733 7.26313 18.148 7.43783 18.4035C8.10562 19.3775 8.78093 20.3458 9.49851 21.3809C9.51542 21.2249 9.53138 21.1432 9.53138 21.0606C9.53138 20.2641 9.53138 19.4639 9.53138 18.6702C9.53138 18.2748 9.71923 18.0569 10.0451 18.0531C10.3711 18.0494 10.5824 18.2729 10.5833 18.6533C10.589 20.1176 10.5833 21.5819 10.5833 23.0461C10.5833 23.3194 10.4734 23.5327 10.2076 23.6097C9.94183 23.6867 9.73238 23.5721 9.57647 23.3467C8.95782 22.4507 8.33793 21.5556 7.71678 20.6614C7.64258 20.5637 7.5665 20.466 7.43031 20.281Z" fill="#662E93"/>
<path d="M14.4689 18.0493C15.0213 18.0542 15.5598 18.2227 16.0164 18.5336C16.473 18.8444 16.8272 19.2837 17.0342 19.7958C17.2412 20.3079 17.2917 20.8699 17.1793 21.4107C17.0669 21.9516 16.7968 22.4469 16.4029 22.8342C16.009 23.2215 15.5092 23.4833 14.9666 23.5866C14.4239 23.6898 13.8629 23.6299 13.3543 23.4143C12.8457 23.1988 12.4125 22.8372 12.1093 22.3755C11.8062 21.9137 11.6468 21.3725 11.6512 20.8201C11.6601 20.0799 11.9613 19.3732 12.4892 18.8542C13.017 18.3351 13.7287 18.0458 14.4689 18.0493ZM14.4614 22.5793C14.8044 22.5761 15.1388 22.4715 15.4224 22.2785C15.706 22.0855 15.9261 21.8128 16.055 21.4949C16.1838 21.177 16.2156 20.828 16.1463 20.4921C16.0771 20.1561 15.9099 19.8482 15.6658 19.6071C15.4217 19.3661 15.1117 19.2027 14.7749 19.1376C14.4381 19.0725 14.0896 19.1086 13.7733 19.2414C13.457 19.3742 13.1871 19.5976 12.9977 19.8836C12.8082 20.1696 12.7077 20.5052 12.7088 20.8483C12.7118 21.3102 12.8981 21.752 13.2267 22.0766C13.5554 22.4012 13.9995 22.582 14.4614 22.5793Z" fill="#662E93"/>
<path d="M15.6881 11.0471C15.6881 11.1288 15.6881 11.2115 15.6881 11.2923C15.6618 11.6323 15.4683 11.8398 15.1743 11.8473C14.8803 11.8549 14.6577 11.6398 14.638 11.2838C14.6263 11.1087 14.6263 10.933 14.638 10.7578C14.6634 10.4404 14.8625 10.245 15.1461 10.2384C15.4439 10.2319 15.6515 10.4338 15.6815 10.7682C15.69 10.8621 15.6815 10.956 15.6815 11.0499L15.6881 11.0471Z" fill="#662E93"/>
<path d="M15.6919 30.638C15.6919 30.6963 15.6919 30.7545 15.6919 30.8137C15.6778 31.2307 15.488 31.4524 15.1499 31.4458C14.8259 31.4392 14.6474 31.2269 14.6343 30.825C14.6274 30.6728 14.629 30.5204 14.639 30.3685C14.6653 30.0426 14.8879 29.8237 15.1734 29.8312C15.4589 29.8388 15.6533 30.0482 15.6834 30.3572C15.6881 30.4511 15.6881 30.5451 15.6834 30.639L15.6919 30.638Z" fill="#662E93"/>
<path d="M20.8323 29.5786C20.651 29.7768 20.5421 29.9956 20.3824 30.0482C20.2861 30.0701 20.1861 30.0699 20.0898 30.0478C19.9935 30.0257 19.9035 29.9822 19.8264 29.9205C19.6362 29.7315 19.5005 29.4946 19.4338 29.2349C19.4187 29.138 19.4266 29.039 19.4566 28.9458C19.4866 28.8525 19.5379 28.7675 19.6066 28.6976C19.7343 28.5971 20.0706 28.5614 20.1626 28.6525C20.4209 28.8977 20.5947 29.2283 20.8323 29.5786Z" fill="#662E93"/>
<path d="M11.0369 29.079C10.7956 29.4284 10.6209 29.759 10.3654 30.0088C10.2715 30.1027 9.92583 30.0699 9.81124 29.9666C9.74373 29.8883 9.69413 29.7962 9.6659 29.6967C9.63767 29.5973 9.6315 29.4929 9.64781 29.3908C9.70113 29.1514 9.82709 28.9342 10.0085 28.769C10.089 28.7052 10.182 28.659 10.2815 28.6334C10.381 28.6078 10.4848 28.6035 10.5861 28.6206C10.7458 28.661 10.8575 28.8855 11.0369 29.079Z" fill="#662E93"/>
<path d="M10.1954 11.5903C10.2555 11.6232 10.4208 11.6645 10.5035 11.7707C10.6584 11.9755 10.7883 12.1981 10.8905 12.4338C11.0022 12.6827 10.8989 12.9034 10.681 13.0396C10.4443 13.1908 10.1926 13.1636 10.0179 12.9456C9.8575 12.7443 9.72686 12.521 9.63 12.2825C9.49475 11.9416 9.74928 11.5997 10.1954 11.5903Z" fill="#662E93"/>
<path d="M20.1053 11.5903C20.589 11.5903 20.8361 11.9595 20.6736 12.3276C20.5835 12.531 20.4717 12.7241 20.3401 12.9034C20.3058 12.9589 20.2604 13.0069 20.2069 13.0444C20.1534 13.0819 20.0928 13.1081 20.0289 13.1215C19.9649 13.1349 19.8989 13.1351 19.8349 13.1221C19.7708 13.1092 19.7101 13.0833 19.6564 13.0461C19.4065 12.8968 19.3164 12.6582 19.4488 12.3812C19.5386 12.178 19.6517 11.9861 19.786 11.8092C19.879 11.7184 19.9871 11.6443 20.1053 11.5903Z" fill="#662E93"/>
<path d="M23.4104 24.9717C23.7514 25.2121 24.0801 25.4009 24.3497 25.6554C24.4333 25.7362 24.4089 26.0405 24.3215 26.1579C24.2342 26.2753 23.9655 26.4247 23.8331 26.3824C23.527 26.2822 23.245 26.1197 23.0047 25.9053C22.9033 25.8114 22.9014 25.5296 22.9605 25.3671C23.0103 25.2253 23.2094 25.1379 23.4104 24.9717Z" fill="#662E93"/>
<path d="M7.43688 15.9802C7.44439 16.462 7.07151 16.7138 6.70333 16.5541C6.49904 16.4654 6.30529 16.3542 6.1257 16.2225C5.88714 16.0478 5.82327 15.7989 5.97824 15.5406C6.13322 15.2824 6.36333 15.1959 6.64134 15.3274C6.84527 15.416 7.03792 15.5286 7.21522 15.6627C7.30644 15.7553 7.38138 15.8627 7.43688 15.9802Z" fill="#662E93"/>
<path d="M24.4258 15.861C24.3929 15.9249 24.361 16.0874 24.2624 16.1606C24.041 16.3323 23.7974 16.4732 23.5382 16.5795C23.2968 16.6735 23.0686 16.5655 22.9465 16.3278C22.8244 16.0902 22.8526 15.8582 23.0639 15.6948C23.2688 15.5398 23.4926 15.4113 23.7298 15.3125C24.0557 15.1773 24.4136 15.4412 24.4258 15.861Z" fill="#662E93"/>
<path d="M6.40561 26.4839C6.24125 26.3411 6.01959 26.2359 5.96699 26.0763C5.94289 25.9796 5.94085 25.8788 5.96101 25.7812C5.98117 25.6837 6.02302 25.5919 6.08346 25.5127C6.26911 25.3347 6.49119 25.1992 6.73435 25.1154C6.79035 25.0878 6.85131 25.0716 6.91366 25.0678C6.976 25.064 7.03848 25.0726 7.09743 25.0933C7.15638 25.1139 7.21062 25.1461 7.25697 25.188C7.30333 25.2298 7.34087 25.2805 7.36739 25.3371C7.50922 25.5972 7.46695 25.8499 7.22087 26.019C6.97479 26.188 6.71932 26.3092 6.40561 26.4839Z" fill="#662E93"/>
</g>
<defs>
<clipPath id="clip0_429_254">
<rect width="30.3355" height="36" fill="white"/>
</clipPath>
</defs>
</svg>
