<svg width="36" height="36" viewBox="0 0 36 36" fill="none" xmlns="http://www.w3.org/2000/svg">
<g clip-path="url(#clip0_415_232)">
<path d="M33.6178 -3.95775e-05C33.7284 0.0327729 33.8381 0.0683977 33.9497 0.0993352C34.4665 0.247807 34.9178 0.567036 35.2299 1.00494C35.542 1.44285 35.6965 1.97359 35.6681 2.51059C35.6488 3.03581 35.4517 3.53891 35.1092 3.93759C34.7668 4.33627 34.2991 4.60692 33.7828 4.70527C33.6591 4.73059 33.5353 4.75871 33.3816 4.79152C33.3816 5.59777 33.3816 6.39277 33.3816 7.18684C33.3861 7.31513 33.3735 7.44345 33.3441 7.5684C33.2597 7.88059 33.0206 7.99871 32.7253 7.95933C32.43 7.91996 32.2819 7.70902 32.2791 7.41465C32.2734 6.68809 32.2791 5.96152 32.2791 5.2359V4.80277H30.18V5.66996C30.18 6.19684 30.18 6.72465 30.18 7.25152C30.18 7.6584 29.9766 7.91527 29.6663 7.92277C29.3147 7.93215 29.0784 7.66871 29.0756 7.24215C29.0691 6.43496 29.0756 5.62777 29.0756 4.80465C29.0144 4.78654 28.9516 4.77399 28.8881 4.76715C27.6928 4.76715 26.4975 4.7559 25.3022 4.77183C24.7453 4.77934 24.255 5.00715 23.8322 5.36621C19.1216 9.37496 14.4097 13.3831 9.69657 17.3906C9.50907 17.549 9.47063 17.7168 9.47157 17.9381C9.47532 20.7618 9.47532 23.5856 9.47157 26.4093C9.47157 26.9925 9.27532 27.279 8.88282 27.269C8.52938 27.2606 8.36438 26.9878 8.36438 26.4253C8.36438 23.9878 8.36438 21.5503 8.36438 19.1128V18.629C8.23219 18.7171 8.14594 18.765 8.07188 18.8268C7.55063 19.2628 7.04063 19.7109 6.50813 20.1346C6.42533 20.1968 6.35969 20.2789 6.31738 20.3734C6.27506 20.4678 6.25747 20.5715 6.26625 20.6746C6.27282 22.5609 6.26625 24.4472 6.26625 26.3334C6.26625 26.4272 6.26625 26.5209 6.26625 26.6147C6.25688 27.015 6.04876 27.2709 5.73376 27.2709C5.39626 27.2709 5.16469 27.0121 5.16188 26.6062C5.15438 25.7859 5.16188 24.9656 5.16188 24.1453C5.16188 23.279 5.16188 22.4121 5.16188 21.5446C5.15538 21.4579 5.14443 21.3715 5.12907 21.2859C4.68844 21.6609 4.29657 22.004 3.89063 22.3331C3.57725 22.5964 3.20087 22.7738 2.79833 22.8479C2.39579 22.9221 1.98089 22.8904 1.59428 22.756C1.20766 22.6216 0.862564 22.3891 0.592792 22.0813C0.32302 21.7735 0.137816 21.4009 0.0553165 21C-0.144371 20.054 0.196879 19.2731 0.925316 18.6562C2.50782 17.3162 4.09188 15.9778 5.6775 14.6409C10.74 10.3621 15.8044 6.0809 20.8706 1.79715C21.9703 0.859648 23.1816 0.214649 24.6309 0.056211C24.6753 0.0438186 24.7173 0.0245192 24.7556 -0.000976562L33.6178 -3.95775e-05ZM34.5553 2.41496C34.5553 1.66496 34.0181 1.13434 33.2306 1.1334C30.6291 1.1334 28.0266 1.1334 25.425 1.1334C24.122 1.1171 22.8581 1.5783 21.8719 2.42996C15.7025 7.63621 9.53344 12.845 3.36469 18.0562C2.76469 18.5625 2.15907 19.0621 1.56844 19.5806C1.14375 19.9556 1.01438 20.4712 1.19344 20.9484C1.39125 21.464 1.785 21.7209 2.31844 21.764C2.79375 21.8015 3.12657 21.5203 3.46219 21.2343C9.98344 15.6806 16.5063 10.1278 23.0306 4.5759C23.7236 3.9654 24.6187 3.63428 25.5422 3.64683C27.1359 3.65527 28.7297 3.64683 30.3234 3.64683C31.2966 3.64683 32.2688 3.65433 33.2419 3.64683C34.0106 3.6384 34.5553 3.11715 34.5553 2.41496Z" fill="#B07FD8"/>
<path d="M23.7019 35.9998C23.5639 35.9797 23.425 35.9666 23.2856 35.9604C17.1806 35.946 11.0753 35.9332 4.9697 35.922C4.30407 35.922 4.16064 35.7804 4.1597 35.1288C4.1597 33.5938 4.1597 32.0588 4.1597 30.5238C4.1597 29.2498 5.0522 28.3507 6.32251 28.3479C7.7522 28.3479 9.18189 28.3582 10.6106 28.3592C11.3897 28.3592 11.7516 27.9973 11.7534 27.2238C11.7534 26.1692 11.7534 25.1145 11.7534 24.0598C11.7534 22.7717 12.6188 21.9035 13.9153 21.8942C15.3338 21.8848 16.7513 21.8942 18.1697 21.8942C18.9947 21.8942 19.3463 21.5426 19.3472 20.7232C19.3472 19.6798 19.3472 18.6373 19.3472 17.5948C19.3472 16.3057 20.2125 15.4385 21.5091 15.4282C22.9275 15.4188 24.345 15.4282 25.7634 15.4282C26.5884 15.4282 26.94 15.0767 26.9409 14.2573C26.9409 13.2026 26.9409 12.1479 26.9409 11.0932C26.9466 9.83884 27.8438 8.94541 29.1019 8.96416C31.1053 8.99509 33.1078 9.04103 35.1113 9.08416C35.5697 9.09353 35.7244 9.28291 35.7234 9.82385C35.7159 16.0338 35.7075 22.2438 35.6981 28.4538C35.6981 30.6926 35.6766 32.9304 35.6775 35.1682C35.6775 35.5188 35.6147 35.8104 35.3025 36.0054L23.7019 35.9998ZM34.5713 34.8354C34.5778 34.721 34.59 34.6067 34.591 34.4923C34.6047 26.5135 34.6203 18.5351 34.6378 10.557C34.6378 10.2532 34.5581 10.152 34.2497 10.1482C32.5509 10.1276 30.8522 10.0845 29.1535 10.0545C28.4203 10.0423 28.0463 10.4154 28.0444 11.1476C28.0444 12.2135 28.0491 13.2795 28.0444 14.3454C28.035 15.6579 27.165 16.5157 25.8506 16.5185C24.4219 16.5185 22.9922 16.5185 21.5625 16.5185C20.8238 16.5185 20.4553 16.8842 20.4534 17.6145C20.4534 18.6804 20.4534 19.7463 20.4534 20.8123C20.4441 22.1248 19.5741 22.9826 18.2597 22.9854C16.83 22.9854 15.4013 22.9854 13.9716 22.9854C13.2328 22.9854 12.8644 23.351 12.8616 24.0813C12.8616 25.1473 12.8672 26.2132 12.8616 27.2792C12.8522 28.5917 11.9813 29.4495 10.6678 29.4523C9.23814 29.4523 7.80939 29.4523 6.3797 29.4523C5.64095 29.4523 5.27157 29.8179 5.2697 30.5482C5.2697 31.8485 5.2697 33.1488 5.2697 34.4492C5.2697 34.5617 5.28376 34.6732 5.29407 34.8242L34.5713 34.8354Z" fill="#B07FD8"/>
<path d="M23.0569 27.5539H22.6397C21.3159 27.5539 19.9922 27.5539 18.6684 27.5539C18.3572 27.5539 18.1059 27.4602 18.0178 27.1395C17.9128 26.7552 18.1809 26.4495 18.6291 26.4458C19.4372 26.4392 20.2453 26.4458 21.0534 26.4458C21.8616 26.4458 22.6706 26.4458 23.4788 26.4458C23.9475 26.4458 24.1453 26.6333 24.1566 27.102C24.1697 27.6645 24.1687 28.227 24.1566 28.7895C24.1566 29.0155 24.2297 29.1027 24.4603 29.098C24.9872 29.0867 25.515 29.0905 26.0419 29.098C26.445 29.1027 26.6756 29.3061 26.6775 29.6408C26.6794 29.9755 26.4506 30.192 26.0466 30.1958C24.7341 30.2099 23.4216 30.2127 22.1091 30.2192H21.6403C21.6403 30.8942 21.645 31.5317 21.6403 32.1739C21.6403 32.5649 21.4528 32.7945 21.1472 32.8302C20.7638 32.877 20.5059 32.6427 20.4909 32.1927C20.4769 31.677 20.4909 31.1614 20.4862 30.6467V30.2623C20.4203 30.2437 20.3529 30.2308 20.2847 30.2239C19.1494 30.2117 18.0131 30.2099 16.8769 30.1874C16.6059 30.1874 16.5375 30.2811 16.5441 30.5352C16.5609 31.1089 16.5581 31.6827 16.5516 32.2564C16.5516 32.5433 16.4081 32.7917 16.1175 32.8067C15.93 32.817 15.7087 32.6942 15.5484 32.5705C15.465 32.5067 15.4547 32.3136 15.4547 32.1786C15.4481 31.3705 15.45 30.5624 15.4547 29.7542C15.4547 29.2855 15.6422 29.1036 16.1203 29.098C18.2869 29.0858 20.4534 29.0689 22.62 29.0727C22.9584 29.0727 23.0766 28.9789 23.0503 28.6386C23.0241 28.2983 23.0569 27.9458 23.0569 27.5539Z" fill="#662E93"/>
<path d="M27.5841 22.3123C26.9044 22.3123 26.2716 22.3273 25.6453 22.3057C25.574 22.3054 25.5036 22.2902 25.4385 22.2611C25.3734 22.232 25.3151 22.1896 25.2673 22.1367C25.2196 22.0837 25.1834 22.0213 25.1612 21.9536C25.1389 21.8858 25.1311 21.8142 25.1381 21.7432C25.1719 21.4404 25.3406 21.2501 25.6613 21.2304C25.755 21.2239 25.8488 21.2304 25.9425 21.2304L29.7375 21.2464C29.8519 21.2464 29.9663 21.2351 30.1069 21.2286V19.6789H29.6803C28.4034 19.6789 27.1266 19.6901 25.8506 19.6676C25.6257 19.6545 25.4126 19.5626 25.2488 19.4079C25.155 19.3142 25.1353 19.0151 25.215 18.9017C25.2774 18.8164 25.3562 18.7445 25.4469 18.6902C25.5375 18.6359 25.6382 18.6004 25.7428 18.5857C26.5969 18.5529 27.4519 18.5707 28.3069 18.5707C29.0569 18.5707 29.8069 18.5707 30.5569 18.5707C31.0472 18.5707 31.2384 18.7582 31.2431 19.2467C31.2488 19.8092 31.2563 20.3717 31.2431 20.9342C31.2356 21.1995 31.3369 21.2811 31.5891 21.2736C32.0691 21.2576 32.55 21.267 33.03 21.2736C33.5306 21.2736 33.7688 21.4554 33.7734 21.822C33.7781 22.1886 33.54 22.3751 33.0459 22.377C31.7466 22.377 30.4472 22.3939 29.1478 22.377C28.8159 22.377 28.7241 22.4801 28.7391 22.797C28.7616 23.3107 28.7513 23.8282 28.7391 24.342C28.7316 24.7882 28.5178 25.032 28.1616 25.0301C27.8053 25.0282 27.5944 24.7751 27.5906 24.3354C27.5803 23.6867 27.5841 23.0445 27.5841 22.3123Z" fill="#662E93"/>
</g>
<defs>
<clipPath id="clip0_415_232">
<rect width="35.7281" height="36" fill="white"/>
</clipPath>
</defs>
</svg>
