<svg width="16" height="16" viewBox="0 0 16 16" fill="none" xmlns="http://www.w3.org/2000/svg">
<g clip-path="url(#clip0_347_235)">
<path d="M0 0.94265C0.0251746 0.850354 0.0454963 0.75464 0.0761305 0.666191C0.227785 0.238897 0.475892 0.00773163 0.813474 0.00516787C1.90994 -0.00166882 3.0067 0.00174952 4.10346 0.00516787C4.2809 0.00516787 4.38221 0.130365 4.37978 0.330765C4.37735 0.531166 4.27665 0.643544 4.09467 0.643544C3.03309 0.643544 1.97151 0.643545 0.909926 0.646536C0.813778 0.646536 0.717629 0.67901 0.621177 0.696529V0.759768C0.739164 0.799079 0.857454 0.835826 0.974835 0.878556C1.53141 1.08152 2.03945 1.44643 2.54719 1.81262C3.1444 2.24333 3.73494 2.69413 4.34399 3.08894C4.81909 3.39455 5.33434 3.5567 5.85659 3.56495C6.07851 3.56989 6.29938 3.52119 6.50961 3.42095C6.98065 3.19235 7.16628 2.66251 7.04647 1.98183C6.96488 1.51864 6.80382 1.10929 6.60303 0.730712C6.57513 0.677727 6.50203 0.649099 6.44956 0.648245C6.02493 0.641835 5.60029 0.644826 5.17566 0.644399C5.13021 0.647983 5.08461 0.645551 5.03948 0.637135C4.9221 0.604661 4.84839 0.505956 4.84688 0.331193C4.84475 0.146175 4.91967 0.0423422 5.04494 0.0102952C5.09 0.00237293 5.13548 0.00022793 5.18082 0.00388604H11.702C12.2725 0.00388604 12.5991 0.455963 12.5998 1.25586C12.6016 3.74071 12.6016 6.22556 12.5998 8.71042C12.5998 9.50945 12.2722 9.95982 11.7004 9.95982H1.01032C0.41068 9.95854 0.232335 9.79189 0 9.01849V0.94265ZM9.13748 0.643544C9.13323 0.674737 9.12778 0.690119 9.13051 0.702083C9.13987 0.749979 9.15121 0.797062 9.16448 0.84309C9.32432 1.37806 9.4323 1.93183 9.44959 2.51381C9.4781 3.46453 9.32826 4.34262 8.85571 5.0562C8.42562 5.70569 7.86298 5.99283 7.25272 6.0206C6.69979 6.04539 6.14231 5.99497 5.59059 5.92318C4.34702 5.76166 3.10346 5.64074 1.85322 5.77876C1.38764 5.83046 0.924789 5.93087 0.463759 6.00821V7.49306C0.476566 7.49488 0.489472 7.49488 0.502279 7.49306C0.53625 7.47981 0.569917 7.46486 0.603281 7.45033C1.36641 7.09696 2.15258 6.95168 2.94907 7.05294C4.00459 7.18754 5.05616 7.3794 6.10955 7.54519C6.99127 7.68448 7.87208 7.74473 8.74834 7.48152C10.0635 7.08585 11.1863 6.22528 12.0562 4.75881C12.1077 4.66704 12.1368 4.55438 12.1393 4.43748C12.1454 3.38378 12.1439 2.33007 12.1427 1.27551C12.1427 0.818734 12.0171 0.644826 11.6929 0.644399H9.13748V0.643544ZM7.16264 0.643544C7.27911 1.0781 7.41802 1.48446 7.49628 1.91261C7.60365 2.51082 7.52206 3.06972 7.2054 3.53162C6.82445 4.0871 6.33673 4.23708 5.81928 4.2076C5.06738 4.16487 4.35824 3.86149 3.68884 3.38719C3.03096 2.92102 2.38461 2.42322 1.72674 1.95619C1.33043 1.66946 0.903325 1.47659 0.462546 1.38533V5.3395C1.05915 5.25746 1.6497 5.14422 2.24297 5.1015C3.46682 5.01347 4.68582 5.15064 5.9033 5.32283C6.42529 5.39676 6.94729 5.47025 7.47383 5.35061C8.28154 5.16644 8.80324 4.4691 8.95823 3.34233C9.08683 2.40827 8.90484 1.55453 8.62944 0.723021C8.61943 0.701248 8.60604 0.682968 8.59027 0.669569C8.57451 0.656169 8.55679 0.648 8.53845 0.645681C8.07378 0.643544 7.61002 0.643544 7.16264 0.643544ZM0.454963 8.21561C0.454963 8.37884 0.454963 8.53523 0.454963 8.69162C0.454963 9.13386 0.583869 9.31675 0.895368 9.31675H11.7077C12.0135 9.31675 12.143 9.13856 12.1439 8.70956C12.146 7.74131 12.1439 6.77264 12.1439 5.80397C12.1411 5.74942 12.1358 5.69519 12.1281 5.64159C12.1044 5.66424 12.0953 5.67065 12.0881 5.68005C12.0617 5.71295 12.0356 5.74671 12.0101 5.78089C10.7787 7.43495 9.29733 8.22715 7.61214 8.29679C6.6276 8.33739 5.65823 8.11562 4.68733 7.92804C3.71644 7.74046 2.75313 7.56612 1.77557 7.73576C1.32142 7.80647 0.876738 7.96804 0.454963 8.21561Z" fill="#B07FD8"/>
<path d="M15.5294 15.0859C15.4633 15.2568 15.4126 15.4487 15.3277 15.6012C15.1475 15.9251 14.8912 16.0003 14.6101 15.9999C11.2534 15.9965 7.89683 15.9965 4.54021 15.9999C4.29241 15.9999 4.04461 16.0029 3.79711 15.9999C3.25388 15.9913 2.93207 15.541 2.92964 14.7731C2.92631 13.534 2.92964 12.2948 2.92964 11.0557C2.92882 10.9916 2.93196 10.9275 2.93905 10.8642C2.94474 10.7922 2.96951 10.7257 3.0084 10.6782C3.0473 10.6307 3.09748 10.6056 3.14894 10.6079C3.26086 10.6032 3.34609 10.6844 3.36793 10.8467C3.38552 10.9779 3.38643 11.1138 3.39644 11.2762H5.89509C5.9509 11.2762 6.02006 11.2531 6.05888 11.2903C6.13046 11.3599 6.21357 11.4526 6.23874 11.5607C6.27362 11.7099 6.20447 11.838 6.09437 11.8855C6.03096 11.9089 5.96546 11.9191 5.89995 11.9158C5.12166 11.9175 4.34316 11.9175 3.56447 11.9158H3.39401C3.39067 12.0077 3.38582 12.0765 3.38582 12.1457C3.38582 13.0003 3.38582 13.8549 3.38582 14.7095C3.38582 15.197 3.50168 15.3568 3.85322 15.3568H13.7399C14.0432 15.3568 14.3465 15.3598 14.6498 15.3568C14.9464 15.3534 15.0729 15.1722 15.0744 14.756C15.0744 14.5069 15.0808 14.2569 15.0708 14.0087C15.067 13.971 15.0573 13.9349 15.0424 13.9031C15.0275 13.8714 15.0078 13.8446 14.9847 13.825C14.6397 13.6059 14.2922 13.3948 13.9422 13.1917C13.8709 13.1578 13.7956 13.1433 13.7205 13.149C12.2444 13.1464 10.7683 13.1456 9.29215 13.1464C9.22149 13.1499 9.15078 13.1422 9.08135 13.1233C8.96883 13.0862 8.89512 12.9635 8.92303 12.8123C8.94335 12.7029 9.02009 12.5986 9.09106 12.5294C9.13747 12.4867 9.21845 12.5068 9.28366 12.5068C10.694 12.5068 12.1044 12.5123 13.5142 12.4995C13.7569 12.4995 14.0034 12.4311 14.2437 12.3632C14.4906 12.2935 14.7329 12.1923 14.9749 12.0893C15.0144 12.0726 15.0693 11.9953 15.0696 11.9453C15.075 10.8497 15.0738 9.75413 15.0738 8.62352H14.5285C14.4575 8.62352 14.3862 8.62864 14.3162 8.61839C14.1733 8.59702 14.0811 8.462 14.085 8.29065C14.089 8.11931 14.1812 7.99155 14.3277 7.98557C14.5245 7.97787 14.722 7.983 14.9188 7.98215H15.0623C15.0623 7.67535 15.0787 7.38394 15.0574 7.09936C15.0374 6.82632 14.8924 6.693 14.6607 6.68659C14.429 6.68018 14.2058 6.68659 13.9786 6.68659C13.7559 6.68659 13.5336 6.69087 13.3113 6.68403C13.1496 6.67933 13.0608 6.56097 13.0602 6.37082C13.0602 6.18965 13.1439 6.05377 13.2937 6.05164C13.7836 6.0448 14.2743 6.03454 14.7638 6.06189C15.1424 6.08283 15.3865 6.38834 15.4997 6.8981C15.5079 6.92252 15.5179 6.9457 15.5294 6.96733V12.394C15.4417 12.4794 15.3614 12.5922 15.2646 12.6401C15.0672 12.7379 14.8606 12.8003 14.658 12.8772C14.8703 13.0507 15.0826 13.1712 15.2904 13.3105C15.3771 13.3686 15.4502 13.4673 15.5294 13.5476V15.0859Z" fill="#662E93"/>
</g>
<defs>
<clipPath id="clip0_347_235">
<rect width="15.5294" height="16" fill="white"/>
</clipPath>
</defs>
</svg>
