<svg width="16" height="16" viewBox="0 0 16 16" fill="none" xmlns="http://www.w3.org/2000/svg">
<g clip-path="url(#clip0_234_2)">
<path d="M16 9.59385C15.8788 9.92718 15.6354 10.0901 15.2963 10.1772C13.7067 10.5938 12.1213 11.0218 10.5346 11.4463C10.51 11.453 10.485 11.458 10.4475 11.4668C10.4079 11.3188 10.3692 11.1751 10.3275 11.0197C10.7888 10.8947 11.2342 10.7747 11.6796 10.6551C12.8654 10.3384 14.0503 10.0215 15.2342 9.70427C15.5225 9.62677 15.57 9.54177 15.4925 9.25302C15.4775 9.19802 15.4625 9.1426 15.445 9.08635C15.3879 8.90718 15.2838 8.84718 15.1004 8.89593C14.2813 9.11371 13.4627 9.33274 12.6446 9.55301L10.125 10.228C10.0833 10.0788 10.0458 9.93635 10.0029 9.77843L10.9708 9.5151C10.8704 9.1401 10.7721 8.76885 10.6733 8.39926C10.6121 8.16801 10.5483 7.93718 10.4883 7.70593C10.3721 7.26552 10.5742 6.88385 10.9817 6.77343C11.3825 6.6651 11.7546 6.90135 11.8729 7.34177C12.0321 7.93343 12.19 8.52593 12.3529 9.13343C12.4129 9.12135 12.4671 9.11343 12.5196 9.09927C13.3235 8.8851 14.127 8.6701 14.93 8.45426C15.43 8.32052 15.7767 8.52052 15.9133 9.0176C15.9379 9.10593 15.9713 9.19218 16.0004 9.27968L16 9.59385ZM11.8946 9.26801C11.8854 9.22093 11.8813 9.18468 11.8721 9.15093C11.7196 8.58343 11.5668 8.01621 11.4138 7.44927C11.3646 7.26968 11.2433 7.18635 11.1 7.22552C10.9567 7.26468 10.8917 7.39718 10.9392 7.57718C11.0188 7.88427 11.1029 8.18968 11.1854 8.49385C11.2646 8.78843 11.3433 9.0826 11.4258 9.39052L11.8946 9.26801Z" fill="#662E93"/>
<path d="M-2.54298e-06 12.8438C0.124997 12.488 0.399164 12.3363 0.749997 12.2496C1.53208 12.0559 2.30791 11.8367 3.08625 11.6275C3.11541 11.6196 3.14416 11.6088 3.18666 11.595C3.06666 11.1446 2.9475 10.6992 2.82916 10.2534C2.77958 10.0675 2.72333 9.88338 2.68458 9.69505C2.64667 9.51542 2.67965 9.32809 2.77661 9.1722C2.87358 9.01631 3.02704 8.90393 3.20492 8.85853C3.38281 8.81313 3.57135 8.83823 3.73116 8.92858C3.89097 9.01894 4.00969 9.16755 4.0625 9.34338C4.22583 9.91296 4.37333 10.4875 4.52791 11.0596C4.54125 11.1092 4.55541 11.1588 4.57458 11.2263L5.49125 10.9867C5.53291 11.1355 5.57041 11.2742 5.61416 11.433C5.42416 11.4855 5.24125 11.5375 5.0575 11.5871L0.749997 12.7421C0.479581 12.8146 0.432081 12.8992 0.504164 13.173C0.516247 13.218 0.527498 13.2634 0.540414 13.3084C0.604164 13.5346 0.707081 13.595 0.932081 13.5342L5.42208 12.3334C5.46375 12.323 5.50166 12.3138 5.56333 12.2992C5.605 12.4463 5.6425 12.5884 5.68583 12.7463L4.58 13.0417C3.41555 13.3548 2.25 13.6671 1.08333 13.9788C0.559997 14.1184 0.224998 13.9238 0.0808309 13.4042C0.0579142 13.3209 0.0262476 13.2375 -0.00250244 13.1542L-2.54298e-06 12.8438ZM4.09833 11.3571C4.10375 11.333 4.11 11.3221 4.1075 11.3155C3.94625 10.7075 3.78625 10.0992 3.62083 9.49213C3.61347 9.46008 3.59963 9.42988 3.58017 9.40338C3.56072 9.37688 3.53604 9.35463 3.50768 9.33801C3.47931 9.32139 3.44784 9.31074 3.41521 9.30672C3.38258 9.3027 3.34947 9.30539 3.31791 9.31463C3.18791 9.34546 3.11291 9.4713 3.14833 9.61838C3.2 9.83588 3.25916 10.0517 3.31708 10.2675C3.42458 10.6675 3.53333 11.0675 3.645 11.4805L4.09833 11.3571Z" fill="#662E93"/>
<path fill-rule="evenodd" clip-rule="evenodd" d="M13.4375 0V0.692083H12.9375V0H13.4375ZM16 3.0625H15.3075V2.5625H16V3.0625ZM14.5537 3.71661C14.7324 3.44631 14.827 3.12906 14.8254 2.805C14.8246 2.58986 14.7814 2.37699 14.6982 2.17857C14.6151 1.98015 14.4936 1.80007 14.3408 1.64864C14.1879 1.49721 14.0068 1.3774 13.8076 1.29605C13.6084 1.21471 13.3952 1.17343 13.18 1.17458C12.856 1.17599 12.5396 1.27347 12.2709 1.45469C12.0023 1.63592 11.7934 1.89274 11.6707 2.19269C11.548 2.49264 11.5171 2.82223 11.5817 3.13978C11.6464 3.45733 11.8038 3.74857 12.034 3.97667C12.2641 4.20477 12.5568 4.35947 12.875 4.42122C13.1931 4.48297 13.5224 4.44898 13.8212 4.32356C14.12 4.19814 14.3749 3.98692 14.5537 3.71661ZM14.16 2.16299C14.2883 2.3553 14.3568 2.58132 14.3567 2.8125C14.357 2.96648 14.3269 3.11901 14.268 3.26128C14.2091 3.40355 14.1226 3.53276 14.0135 3.64144C13.9044 3.75013 13.7749 3.83615 13.6324 3.89454C13.49 3.95294 13.3373 3.98255 13.1833 3.98167C12.9522 3.98093 12.7264 3.91169 12.5345 3.78271C12.3427 3.65372 12.1934 3.47078 12.1054 3.25697C12.0175 3.04317 11.9949 2.80811 12.0405 2.58147C12.0861 2.35483 12.1978 2.14678 12.3616 1.9836C12.5253 1.82042 12.7337 1.70943 12.9606 1.66466C13.1874 1.61988 13.4223 1.64332 13.6358 1.73201C13.8493 1.82071 14.0317 1.97068 14.16 2.16299ZM10.385 2.58625H11.0663V3.03334H10.385V2.58625ZM13.4125 5.61916V4.93541H12.9621V5.61916H13.4125ZM14.7967 0.493751C14.7132 0.63743 14.6354 0.772086 14.5571 0.907492L14.5533 0.914103L14.445 1.10125L14.04 0.867917C14.1579 0.664167 14.2688 0.472084 14.3904 0.260834L14.7967 0.493751ZM11.4771 1.55416L10.8683 1.20375L10.6375 1.61L11.2438 1.96L11.4771 1.55416ZM11.4779 4.06958L10.87 4.42208L10.6354 4.01667L11.2413 3.66667L11.3143 3.79083L11.3176 3.79646C11.3692 3.88406 11.4209 3.97204 11.4779 4.06958ZM14.4467 4.52292L14.0417 4.75792C14.1621 4.96875 14.2734 5.16084 14.3938 5.36542L14.7975 5.13L14.4467 4.52292ZM15.1317 1.96166L14.8983 1.55541L15.5054 1.205L15.7383 1.6075L15.1317 1.96166ZM15.066 3.77878L15.065 3.78065C15.0085 3.87888 14.9553 3.9715 14.8983 4.07L15.5054 4.42041L15.7383 4.015L15.1317 3.66458L15.066 3.77878ZM11.985 5.36334L11.5788 5.13167L11.9296 4.52292L12.3354 4.75584L11.985 5.36334ZM11.9842 0.262502L11.5784 0.494585L11.9292 1.10334L12.3334 0.867502L11.9842 0.262502Z" fill="#B07FD8"/>
<path fill-rule="evenodd" clip-rule="evenodd" d="M4.76044 4.07341H5.22919L5.22942 3.86817V3.86815V3.86814C5.22968 3.71464 5.22993 3.56651 5.22877 3.41757C5.22169 2.33591 4.50335 1.52007 3.43002 1.39132C2.91419 1.32924 2.44669 1.47341 2.02252 1.79174L2.30877 2.15799C2.32806 2.14557 2.34275 2.13563 2.35554 2.12698L2.35566 2.1269C2.36685 2.11932 2.37659 2.11273 2.38669 2.10632C3.31335 1.50674 4.52169 2.01007 4.73002 3.09341C4.7601 3.24878 4.75948 3.4103 4.75885 3.57178C4.75858 3.64069 4.75832 3.70958 4.76044 3.77799C4.76209 3.84173 4.76155 3.90565 4.761 3.97132C4.76072 4.00482 4.76044 4.03878 4.76044 4.07341ZM0.0272013 4.31414L0.0271852 4.3142C0.018305 4.34499 0.00942975 4.37577 1.87568e-05 4.40632L-0.00164795 4.81132C0.00939326 4.8344 0.0184537 4.85838 0.0254355 4.88299C0.161685 5.5359 0.639185 6.00715 1.30585 6.06549C1.67697 6.09779 2.05041 6.09351 2.42357 6.08924H2.42366H2.42376C2.55119 6.08778 2.67859 6.08632 2.80585 6.08632L2.97193 6.08669H2.97226H2.9726C4.2399 6.0895 5.50685 6.09231 6.77419 6.08632C7.54169 6.0834 8.17585 5.5209 8.25252 4.80424C8.33377 4.01507 7.85835 3.3084 7.08793 3.18757C6.78009 3.13966 6.46355 3.1518 6.14526 3.16401C6.00129 3.16953 5.85697 3.17507 5.71293 3.17507V3.61257H5.91252C6.01021 3.61321 6.10801 3.61259 6.20582 3.61197C6.42592 3.61057 6.64607 3.60917 6.86502 3.62215C7.27752 3.64549 7.56794 3.86715 7.72169 4.24715C7.9921 4.91424 7.50085 5.61424 6.76085 5.61799C6.15334 5.62049 5.54564 5.61965 4.938 5.61882C4.6342 5.6184 4.33042 5.61799 4.02669 5.61799C3.74724 5.61799 3.4678 5.61836 3.18835 5.61873C2.62946 5.61947 2.07057 5.62021 1.51169 5.61799C0.928352 5.6159 0.478769 5.18799 0.470019 4.63424C0.460435 4.06715 0.891269 3.6334 1.48544 3.61215C1.53157 3.61079 1.57842 3.61121 1.62868 3.61167C1.65514 3.61191 1.68253 3.61215 1.71127 3.61215C1.68502 3.1759 1.7596 2.78965 2.02085 2.44965L1.64835 2.16632C1.45399 2.41511 1.32507 2.70863 1.27335 3.02007C1.25794 3.12007 1.22044 3.16382 1.11627 3.1909C0.612935 3.32215 0.267935 3.63715 0.0866855 4.1259C0.0637128 4.18754 0.0454493 4.25087 0.0272088 4.31412L0.0272013 4.31414ZM3.59752 3.6009V3.1559H4.05169V3.6009H3.59752ZM7.08335 4.38424H6.63669L6.63752 4.83798H7.08335V4.38424Z" fill="#B07FD8"/>
<path fill-rule="evenodd" clip-rule="evenodd" d="M9.40625 14.1188H9.87L9.87172 14.0895C9.87231 14.0801 9.87284 14.0716 9.87319 14.0636C9.87355 14.0556 9.87373 14.0481 9.87359 14.0409C9.8735 14.0362 9.87329 14.0317 9.87292 14.0271L9.87304 13.4108C9.87325 12.6579 9.87345 11.905 9.87083 11.1521C9.87032 11.0324 9.85635 10.9132 9.82916 10.7967C9.60125 9.82585 8.74333 9.22834 7.74583 9.34127C6.83125 9.44461 6.125 10.2617 6.125 11.2242V13.9742V14.1146H6.59541V13.9358C6.59554 13.6496 6.59495 13.3634 6.59435 13.0773C6.59304 12.4416 6.59173 11.806 6.59834 11.1704C6.60708 10.8017 6.76056 10.4512 7.0256 10.1947C7.29066 9.9382 7.64599 9.79628 8.01482 9.79962C8.38364 9.80294 8.73635 9.95128 8.99671 10.2125C9.25707 10.4738 9.40418 10.827 9.40625 11.1959C9.40903 11.807 9.4081 12.4181 9.40718 13.0292C9.40672 13.3347 9.40625 13.6403 9.40625 13.9459V14.1188ZM4.71875 14.6033V16H11.2812V14.6017H8.24541V15.0654H10.8029V15.52H5.195V15.0596H7.75208V14.6033H4.71875ZM8.00875 10.2733C8.47584 10.255 8.89542 10.6308 8.93083 11.1113C8.94281 11.2736 8.93976 11.4371 8.93664 11.604V11.6042C8.9352 11.6811 8.93375 11.7586 8.93375 11.8371H8.46875V11.3371C8.46875 10.9488 8.38042 10.8275 8.01042 10.7121L8.00875 10.2733ZM8.47833 12.78H8.92458V12.3258H8.47833V12.78Z" fill="#B07FD8"/>
</g>
<defs>
<clipPath id="clip0_234_2">
<rect width="16" height="16" fill="white"/>
</clipPath>
</defs>
</svg>
