<svg width="16" height="16" viewBox="0 0 16 16" fill="none" xmlns="http://www.w3.org/2000/svg">
<g clip-path="url(#clip0_220_267)">
<path d="M16 5.78125V6.09375C15.9898 6.10458 15.9811 6.11678 15.9742 6.13C15.7763 6.69542 15.2196 6.87125 14.7383 6.51917C14.655 6.45958 14.5763 6.39792 14.475 6.3225C14.2304 9.04042 13.9892 11.7262 13.7458 14.4317H13.9296C14.3612 14.4317 14.7933 14.4317 15.225 14.4317C15.3404 14.4289 15.4547 14.454 15.5583 14.5047C15.662 14.5555 15.7519 14.6305 15.8204 14.7233C15.8971 14.8237 15.9413 14.9492 16 15.0633V15.375C15.9562 15.523 15.876 15.6577 15.7669 15.7669C15.6577 15.876 15.523 15.9562 15.375 16H0.625C0.476853 15.9564 0.342007 15.8764 0.232814 15.7672C0.123621 15.658 0.0435725 15.5231 0 15.375V15.0625C0.155417 14.5875 0.48875 14.3958 0.978333 14.4287C1.25292 14.4462 1.52958 14.4317 1.80542 14.4317H2.25417C2.01083 11.7233 1.76917 9.03667 1.52542 6.32583C1.39417 6.42125 1.2925 6.50167 1.18417 6.57208C1.08875 6.63598 0.980096 6.6774 0.866365 6.69325C0.752634 6.7091 0.636789 6.69896 0.527543 6.66359C0.418297 6.62821 0.318492 6.56853 0.235635 6.48903C0.152777 6.40953 0.0890231 6.31227 0.0491667 6.20458C0.0345833 6.16708 0.01625 6.13083 0 6.09375V5.78125C0.0870833 5.51708 0.278333 5.34542 0.495 5.18292C2.5025 3.67875 4.50736 2.17069 6.50958 0.65875C6.89792 0.365 7.2825 0.0754167 7.78125 0H8.21875C8.57151 0.0683488 8.90408 0.21611 9.19125 0.432083C11.2929 2.01958 13.3978 3.60292 15.5058 5.18208C15.7225 5.34458 15.9125 5.51792 16 5.78125ZM13.2675 14.4225C13.2729 14.3946 13.2792 14.375 13.2808 14.3554C13.3836 13.2254 13.4863 12.0953 13.5888 10.965C13.7343 9.35389 13.88 7.74181 14.0258 6.12875C14.0337 6.08642 14.0287 6.04271 14.0116 6.00322C13.9944 5.96373 13.9659 5.93025 13.9296 5.90708C12.0304 4.48292 10.1329 3.05681 8.23708 1.62875C8.04792 1.48625 7.95083 1.48833 7.76042 1.63125C7.38181 1.91542 7.00333 2.2 6.625 2.485C6.58792 2.51333 6.55083 2.54208 6.51208 2.56833C6.38083 2.65792 6.2475 2.64583 6.16583 2.53792C6.08417 2.43 6.10667 2.29042 6.23083 2.19625C6.67528 1.86014 7.12083 1.52597 7.5675 1.19375C7.63086 1.1488 7.70127 1.11472 7.77583 1.09292C8.05875 1.00667 8.3025 1.08875 8.53333 1.26292C10.67 2.87403 12.8079 4.48292 14.9471 6.08958C14.9954 6.1291 15.0465 6.16503 15.1 6.19708C15.1603 6.22917 15.23 6.23906 15.2968 6.22505C15.3637 6.21104 15.4235 6.17401 15.4658 6.12042C15.508 6.07002 15.5312 6.00637 15.5312 5.94063C15.5312 5.87488 15.508 5.81123 15.4658 5.76083C15.428 5.718 15.3852 5.67982 15.3383 5.64708C13.1833 4.02542 11.0289 2.40444 8.875 0.784167C8.30417 0.355 7.69333 0.359583 7.12083 0.790417C4.96889 2.40792 2.8175 4.02583 0.666667 5.64417C0.632503 5.66801 0.599805 5.69389 0.56875 5.72167C0.450417 5.83583 0.435417 5.99417 0.527083 6.11583C0.571562 6.17471 0.636705 6.21455 0.709384 6.2273C0.782064 6.24006 0.856878 6.22479 0.91875 6.18458C0.953854 6.16217 0.987788 6.13797 1.02042 6.11208L5.21625 2.95833C5.26062 2.92208 5.30724 2.88868 5.35583 2.85833C5.47208 2.79208 5.58 2.81208 5.66042 2.91708C5.74083 3.02208 5.72542 3.13208 5.63292 3.22625C5.59874 3.25824 5.5621 3.2875 5.52333 3.31375C4.37111 4.18097 3.21833 5.04736 2.065 5.91292C2.02998 5.93384 2.00231 5.96512 1.98581 6.00243C1.96932 6.03975 1.96481 6.08126 1.97292 6.12125C1.9975 6.30708 2.01208 6.49375 2.02875 6.68042C2.12708 7.77958 2.22431 8.87875 2.32042 9.97792C2.42153 11.1079 2.52333 12.2381 2.62583 13.3683C2.6575 13.7192 2.69125 14.0696 2.72458 14.4233L13.2675 14.4225ZM8 14.9004H0.955833C0.90375 14.9004 0.85125 14.9004 0.799583 14.9004C0.605833 14.9083 0.475 15.03 0.47 15.205C0.465 15.38 0.602084 15.5204 0.797084 15.5296C0.833334 15.5296 0.87 15.5296 0.90625 15.5296H15.0908C15.1429 15.5316 15.1951 15.5305 15.2471 15.5263C15.3255 15.5174 15.3978 15.4798 15.4501 15.4206C15.5023 15.3615 15.5308 15.2851 15.53 15.2063C15.5286 15.1273 15.4972 15.0519 15.4422 14.9953C15.3871 14.9388 15.3126 14.9053 15.2337 14.9017C15.1771 14.8971 15.1196 14.8992 15.0621 14.8992L8 14.9004Z" fill="#B07FD8"/>
<path d="M10.2796 7.12124L10.7525 7.60166C10.9121 7.43791 11.0783 7.27332 11.2383 7.10166C11.3471 6.98541 11.4696 6.92041 11.6275 6.97666C11.7854 7.03291 11.8225 7.16457 11.8358 7.31249C11.9338 8.30207 11.06 9.20749 10.0679 9.13249C10.0077 9.12448 9.9464 9.13173 9.88969 9.15357C9.83297 9.17541 9.78265 9.21115 9.74334 9.25749C9.54709 9.46582 9.34043 9.66041 9.12126 9.87791C9.23543 9.98749 9.33751 10.0829 9.43626 10.1812C9.84543 10.5892 10.2563 10.9958 10.6608 11.4083C10.8875 11.6392 10.9621 11.9179 10.8592 12.2275C10.7588 12.5296 10.5417 12.7108 10.2279 12.7662C10.1095 12.7886 9.9874 12.7821 9.87201 12.7473C9.75661 12.7125 9.65131 12.6504 9.56501 12.5662C9.39834 12.4117 9.23626 12.2475 9.07709 12.0825C8.96834 11.97 8.96709 11.8296 9.06293 11.7354C9.15876 11.6412 9.29251 11.6433 9.40959 11.7554C9.54876 11.8887 9.6821 12.0279 9.81959 12.1629C10.0013 12.3417 10.1946 12.3571 10.3396 12.2046C10.4846 12.0521 10.4646 11.8712 10.2883 11.6962C9.18584 10.5932 8.08112 9.48999 6.97418 8.38666C6.81918 8.23291 6.75959 8.07707 6.78293 7.85916C6.85251 7.21916 6.43709 6.65458 5.79001 6.53166C5.88626 6.62874 5.96043 6.70166 6.03251 6.77666C6.25626 7.00916 6.25709 7.27874 6.03251 7.50958C5.89793 7.64749 5.76293 7.78499 5.62334 7.91791C5.40168 8.12916 5.13709 8.12999 4.91501 7.91791C4.83668 7.84332 4.77126 7.75458 4.68168 7.68791C4.70354 7.92696 4.81289 8.14953 4.98876 8.31291C5.26501 8.58291 5.59918 8.71082 5.98418 8.65999C6.20168 8.63124 6.35918 8.69374 6.51209 8.84958C7.17626 9.52541 7.85001 10.1921 8.52001 10.8625C8.55798 10.898 8.594 10.9356 8.62793 10.975C8.71376 11.0817 8.70918 11.2121 8.61959 11.2987C8.59868 11.3205 8.57357 11.3378 8.54579 11.3497C8.51801 11.3615 8.48812 11.3676 8.45793 11.3676C8.42773 11.3676 8.39784 11.3615 8.37006 11.3497C8.34228 11.3378 8.31718 11.3205 8.29626 11.2987C8.20126 11.2104 8.11918 11.1083 8.02001 10.9996C7.96084 11.0546 7.91918 11.0908 7.88043 11.1296C7.41251 11.5967 6.94668 12.0662 6.47668 12.5312C6.24251 12.7633 5.96126 12.8433 5.64334 12.7371C5.34168 12.6362 5.15959 12.4183 5.10668 12.1046C5.05959 11.8279 5.15334 11.5925 5.35001 11.3962C5.81001 10.936 6.27029 10.4758 6.73084 10.0158C6.77251 9.97416 6.81751 9.94124 6.87876 9.88874C6.68834 9.69791 6.50376 9.52999 6.34043 9.34707C6.20459 9.19499 6.06751 9.13124 5.84751 9.13874C4.88543 9.16416 4.09293 8.30749 4.15918 7.34707C4.17043 7.18957 4.20418 7.04207 4.37418 6.98249C4.54418 6.92291 4.66293 7.00332 4.77376 7.12207C4.93001 7.28874 5.09251 7.44999 5.24918 7.61041L5.71959 7.12499C5.56001 6.96666 5.39334 6.79624 5.21959 6.63166C5.10793 6.52583 5.04876 6.40583 5.09959 6.25666C5.15043 6.10749 5.28251 6.05708 5.43293 6.04166C6.42709 5.93708 7.33709 6.81832 7.25959 7.81874C7.24959 7.94374 7.27459 8.03124 7.36793 8.11874C7.58043 8.31708 7.78168 8.52749 8.00376 8.74957C8.24793 8.50291 8.48751 8.26666 8.71834 8.02207C8.74876 7.98957 8.74501 7.91541 8.74084 7.86208C8.65959 6.84416 9.50668 5.97457 10.5246 6.04291C10.6361 6.04949 10.7433 6.08812 10.8333 6.15416C10.9642 6.26083 10.9438 6.45749 10.8075 6.59707C10.6338 6.77582 10.4538 6.94874 10.2796 7.12124ZM8.81293 9.53416C9.01543 9.32999 9.23251 9.12874 9.42918 8.90916C9.60584 8.71083 9.79418 8.63083 10.0717 8.65916C10.6767 8.72416 11.2529 8.26583 11.3392 7.65541C11.2379 7.76083 11.1633 7.84541 11.0817 7.92208C10.8671 8.12416 10.5938 8.12499 10.3833 7.92208C10.2367 7.78152 10.0932 7.63805 9.95293 7.49166C9.75001 7.28082 9.74793 7.00582 9.94959 6.79374C10.0275 6.71041 10.1163 6.64166 10.2025 6.56582C10.1889 6.55527 10.173 6.54788 10.1562 6.54421C10.1393 6.54053 10.1218 6.54066 10.105 6.54458C9.82571 6.61835 9.58224 6.79007 9.41901 7.02841C9.25578 7.26675 9.18368 7.55583 9.21584 7.84291C9.24209 8.07333 9.18334 8.24166 9.01376 8.39624C8.78001 8.60958 8.56251 8.84041 8.34043 9.06291L8.81293 9.53416ZM7.19626 10.22C7.17626 10.2379 7.15168 10.2567 7.12959 10.2783C6.65459 10.7528 6.17987 11.2276 5.70543 11.7029C5.53251 11.8767 5.51918 12.0667 5.66376 12.2112C5.80834 12.3558 5.99709 12.3421 6.17209 12.1696C6.43084 11.9133 6.68751 11.6546 6.94543 11.3971L7.66001 10.6833L7.19626 10.22Z" fill="#662E93"/>
</g>
<defs>
<clipPath id="clip0_220_267">
<rect width="16" height="16" fill="white"/>
</clipPath>
</defs>
</svg>
