<svg width="16" height="16" viewBox="0 0 16 16" fill="none" xmlns="http://www.w3.org/2000/svg">
<g clip-path="url(#clip0_224_328)">
<path d="M16 5.21875V16H0V5.21875C0.0916667 5.04917 0.231667 4.99 0.424167 4.99667C0.7575 5.00833 1.09083 5 1.42417 5H1.68917V4.79167C1.68917 3.33583 1.69208 1.88 1.68583 0.424166C1.68583 0.232083 1.73875 0.0908333 1.90792 0H14.0954C14.2642 0.0916667 14.3183 0.232083 14.3175 0.424166C14.3113 1.885 14.3142 3.34625 14.3142 4.80708V5C14.7479 5 15.1629 5.0075 15.5775 4.99667C15.7683 4.99125 15.9079 5.05 16 5.21875ZM2.32 5H6.46833C6.51542 5 6.5625 4.99792 6.60875 5C6.68842 5.00485 6.76318 5.04012 6.81758 5.09852C6.87198 5.15693 6.90187 5.23399 6.90107 5.3138C6.90026 5.39361 6.86883 5.47007 6.81327 5.52736C6.7577 5.58466 6.68225 5.61842 6.6025 5.62167C6.55083 5.62583 6.49833 5.62167 6.44625 5.62167H0.634583V8.11125H15.3625V5.625H9.54167C9.48442 5.62737 9.42707 5.62598 9.37 5.62083C9.29436 5.61134 9.22484 5.57437 9.17467 5.51696C9.12451 5.45956 9.09718 5.38572 9.0979 5.30949C9.09862 5.23325 9.12734 5.15994 9.17858 5.10349C9.22982 5.04705 9.30002 5.0114 9.37583 5.00333C9.42766 4.99909 9.4797 4.99797 9.53167 5H13.6775V0.632917H2.32V5ZM4.68083 8.75792H0.634167V13.8642H4.68083V8.75792ZM11.3192 13.8637H15.3608V8.75833H11.3192V13.8637ZM7.68083 8.76125H5.32458V15.3667H7.68083V8.76125ZM10.6808 15.3675V8.76H8.32375V15.3675H10.6808ZM0.639167 14.5075V15.3637H4.68375V14.5075H0.639167ZM15.3713 14.5108H11.3296V15.3671H15.3713V14.5108Z" fill="#B07FD8"/>
<path d="M11.2083 3.08332C11.3229 2.68332 11.4262 2.32457 11.5292 1.96582C11.5708 1.82124 11.6087 1.67415 11.6542 1.53165C11.7121 1.34874 11.8508 1.24707 12.0229 1.25332C12.195 1.25957 12.3371 1.37832 12.3746 1.57165C12.5296 2.36776 12.6824 3.16443 12.8329 3.96165C12.8687 4.14915 12.7675 4.31124 12.6012 4.34624C12.4125 4.3879 12.2592 4.2804 12.2179 4.07415C12.1433 3.69665 12.0725 3.31832 11.9996 2.9404C11.99 2.88999 11.9779 2.83999 11.9579 2.7429L11.5971 3.99999C11.5883 4.02999 11.5804 4.0604 11.5704 4.08999C11.5087 4.2754 11.3775 4.37707 11.2054 4.37374C11.0417 4.3704 10.9071 4.26874 10.8533 4.09165C10.7342 3.69874 10.6204 3.30415 10.5037 2.9104C10.4908 2.86665 10.4742 2.82415 10.4479 2.74665C10.3667 3.19665 10.2904 3.6104 10.2183 4.02457C10.1912 4.17874 10.1329 4.30624 9.96499 4.34332C9.72874 4.39499 9.55457 4.20915 9.59707 3.94374C9.64624 3.6354 9.70624 3.32915 9.76166 3.02207C9.84166 2.57763 9.92208 2.13221 10.0029 1.68582C10.0092 1.64999 10.0175 1.61457 10.0254 1.57915C10.0692 1.37915 10.1921 1.26207 10.3683 1.25124C10.5446 1.2404 10.6908 1.34749 10.7533 1.54957C10.8279 1.7929 10.8983 2.0379 10.9708 2.28207C11.0454 2.53457 11.1208 2.78624 11.2083 3.08332Z" fill="#662E93"/>
<path d="M5.44 3.12499C5.315 3.12499 5.2025 3.12707 5.08833 3.12499C4.88333 3.12041 4.75042 2.99999 4.74875 2.81666C4.74708 2.63332 4.87792 2.50457 5.08208 2.50166C5.31625 2.49805 5.55042 2.49805 5.78458 2.50166C5.97167 2.50457 6.09458 2.61332 6.11792 2.78666C6.20792 3.44791 5.71042 4.18166 5.0675 4.33666C4.23417 4.53666 3.36917 3.97707 3.19542 3.12832C3.02167 2.27957 3.59625 1.42791 4.44167 1.27999C4.80816 1.21141 5.18709 1.27661 5.50958 1.46374C5.725 1.58582 5.79292 1.76666 5.69208 1.93749C5.59125 2.10832 5.41667 2.12499 5.20292 2.00499C4.83708 1.80082 4.42167 1.83832 4.11292 2.10624C3.96606 2.23297 3.86231 2.40229 3.81609 2.59068C3.76987 2.77907 3.78347 2.97718 3.855 3.15749C3.92706 3.33769 4.05296 3.49128 4.21551 3.59732C4.37807 3.70335 4.56937 3.75667 4.76333 3.74999C5.11 3.73666 5.375 3.49999 5.44 3.12499Z" fill="#662E93"/>
<path d="M7.85332 2.21173C8.04166 1.92715 8.20832 1.66673 8.38124 1.4059C8.46041 1.28798 8.57374 1.23173 8.71749 1.26757C8.85249 1.30132 8.94416 1.39257 8.94874 1.5284C8.94818 1.6205 8.92176 1.71059 8.87249 1.7884C8.66666 2.11923 8.44624 2.4409 8.23957 2.77132C8.1947 2.84527 8.16946 2.92946 8.16624 3.0159C8.15791 3.34923 8.16624 3.68257 8.16207 4.0159C8.16207 4.23632 8.04332 4.37215 7.85874 4.3759C7.67416 4.37965 7.54082 4.23465 7.53874 4.01215C7.53582 3.68465 7.54457 3.35673 7.53374 3.02923C7.52914 2.92803 7.49919 2.8296 7.44666 2.74298C7.24749 2.42007 7.03457 2.1059 6.82874 1.78715C6.70374 1.59257 6.72457 1.41215 6.88249 1.30715C7.04707 1.19632 7.21999 1.24798 7.35416 1.4509C7.51666 1.6959 7.67791 1.9434 7.85332 2.21173Z" fill="#662E93"/>
<path d="M8.31124 5.31586C8.31071 5.37773 8.29175 5.43804 8.25679 5.48909C8.22183 5.54013 8.17245 5.5796 8.11495 5.60245C8.05745 5.6253 7.99445 5.6305 7.93398 5.61737C7.87352 5.60425 7.81834 5.5734 7.77549 5.52877C7.73264 5.48414 7.70406 5.42775 7.6934 5.36681C7.68275 5.30586 7.6905 5.24312 7.71566 5.1866C7.74083 5.13008 7.78227 5.08234 7.8347 5.04948C7.88712 5.01662 7.94815 5.00013 8.00999 5.00211C8.09095 5.00555 8.16746 5.04009 8.22358 5.09854C8.2797 5.15699 8.3111 5.23483 8.31124 5.31586Z" fill="#662E93"/>
<path d="M1.51125 11.6416C1.41708 11.5708 1.30291 11.5249 1.26125 11.4424C1.21958 11.3599 1.24458 11.2374 1.25708 11.1345C1.26166 11.0958 1.31041 11.0599 1.34333 11.027C1.74041 10.6287 2.135 10.227 2.53916 9.83784C2.62255 9.76422 2.72716 9.71899 2.83791 9.70867C2.95791 9.69784 3.04958 9.78534 3.0925 9.90409C3.11467 9.96042 3.11934 10.0221 3.10588 10.0812C3.09243 10.1402 3.06148 10.1938 3.01708 10.2349C2.83208 10.4253 2.64208 10.612 2.45583 10.7999C2.23125 11.0245 2.00958 11.252 1.77958 11.4712C1.7125 11.5353 1.62041 11.5737 1.51125 11.6416Z" fill="#662E93"/>
<path d="M3.88751 11.6287C3.86376 11.6704 3.83251 11.7608 3.77126 11.8237C3.36821 12.2362 2.96029 12.6451 2.54751 13.0504C2.39584 13.2004 2.20459 13.2075 2.07626 13.0775C1.94793 12.9475 1.95709 12.7587 2.10793 12.6071C2.51501 12.1971 2.92501 11.7904 3.33251 11.3808C3.43918 11.2737 3.56376 11.2375 3.70251 11.295C3.82293 11.3446 3.88459 11.445 3.88751 11.6287Z" fill="#662E93"/>
<path d="M12.1754 11.6288C12.0992 11.5692 11.985 11.5213 11.9462 11.438C11.9075 11.3546 11.9333 11.2326 11.9462 11.1296C11.9517 11.0909 12.0008 11.0563 12.0337 11.023C12.4346 10.6213 12.8357 10.2199 13.2371 9.8188C13.3367 9.71964 13.46 9.65214 13.5862 9.72422C13.6746 9.77505 13.7717 9.88005 13.7842 9.97172C13.7967 10.0634 13.7354 10.1959 13.6646 10.2696C13.2717 10.6792 12.8658 11.0763 12.4646 11.478C12.4442 11.5018 12.4201 11.5222 12.3933 11.5384C12.3354 11.5663 12.2733 11.5888 12.1754 11.6288Z" fill="#662E93"/>
<path d="M14.5746 11.6251C14.5525 11.6643 14.5225 11.7572 14.4617 11.8197C14.0539 12.2363 13.6422 12.6488 13.2267 13.0572C13.0821 13.2001 12.8933 13.2043 12.7683 13.0801C12.6433 12.9559 12.6433 12.7601 12.7938 12.6093C13.2004 12.1993 13.6108 11.7926 14.0179 11.383C14.1242 11.2763 14.2475 11.2368 14.3871 11.2926C14.5067 11.3418 14.5708 11.4401 14.5746 11.6251Z" fill="#662E93"/>
</g>
<defs>
<clipPath id="clip0_224_328">
<rect width="16" height="16" fill="white"/>
</clipPath>
</defs>
</svg>
