<svg width="16" height="16" viewBox="0 0 16 16" fill="none" xmlns="http://www.w3.org/2000/svg">
<g clip-path="url(#clip0_346_223)">
<path d="M16 9.1875V9.875C15.9654 9.95542 15.9508 10.0583 15.8921 10.1125C15.7033 10.285 15.7312 10.5025 15.7321 10.7183C15.7321 10.8696 15.73 11.0208 15.7342 11.1717C15.735 11.2173 15.7461 11.2622 15.7667 11.3029C15.8412 11.4433 15.9217 11.5804 16 11.7196V15.375C15.9585 15.5242 15.8792 15.6602 15.7697 15.7697C15.6602 15.8792 15.5242 15.9585 15.375 16H11.0937C10.9687 15.9304 10.8458 15.8579 10.7187 15.7917C10.668 15.7608 10.6111 15.7413 10.5521 15.7346C10.2575 15.7292 9.9625 15.7308 9.6675 15.7346C9.6221 15.7352 9.57747 15.7463 9.53708 15.7671C9.39792 15.8417 9.26167 15.9225 9.12458 16.0008H5.59375C5.46333 15.9212 5.33458 15.8387 5.20167 15.7633C5.16052 15.7431 5.11502 15.7332 5.06917 15.7346C4.51917 15.7324 3.96903 15.7324 3.41875 15.7346C3.373 15.7334 3.32761 15.7429 3.28625 15.7625C3.14708 15.8383 3.01167 15.9208 2.875 16.0008H0.625C0.47558 15.9598 0.339402 15.8806 0.22983 15.771C0.120258 15.6614 0.0410575 15.5253 0 15.3758V12.8125C0.0325 12.7433 0.0487501 12.6575 0.1 12.6083C0.297083 12.4187 0.274583 12.1821 0.266667 11.945C0.262917 11.805 0.266667 11.6646 0.266667 11.5246C0.267559 11.4789 0.257711 11.4337 0.237917 11.3925C0.1625 11.2592 0.0800001 11.1304 0.000416756 11V8.25C0.0312501 8.18 0.045 8.09167 0.0966666 8.04167C0.31125 7.83958 0.26625 7.58333 0.267917 7.33333C0.267917 7.20833 0.270417 7.08333 0.267917 6.96042C0.268751 6.91462 0.258907 6.86925 0.239167 6.82792C0.164167 6.69542 0.08125 6.56667 0.0016667 6.43667V5.09375C0.0816667 4.9575 0.164583 4.82292 0.240417 4.68458C0.260104 4.64327 0.269537 4.59782 0.267917 4.55208C0.270417 4.21569 0.270417 3.87931 0.267917 3.54292C0.26803 3.49736 0.257471 3.45241 0.237083 3.41167C0.162083 3.2725 0.0808334 3.13708 0.0016667 3V0.625C0.0424607 0.475449 0.121573 0.339131 0.231185 0.229519C0.340798 0.119907 0.477115 0.040794 0.626666 0H3.81417C4.00667 0.0591667 4.19833 0.122917 4.39208 0.176667C4.52667 0.21375 4.665 0.26 4.80167 0.263334C5.61417 0.271667 6.42667 0.268333 7.23875 0.26625C7.28968 0.267454 7.34015 0.256303 7.38583 0.23375C7.52083 0.160417 7.65083 0.07875 7.78292 0H10.6579C10.7325 0.0329167 10.8246 0.0483336 10.8787 0.1025C11.0642 0.29375 11.2954 0.2725 11.5258 0.269167C11.7121 0.265834 11.8987 0.269167 12.085 0.267083C12.1308 0.268757 12.1763 0.259622 12.2179 0.240417C12.3562 0.164584 12.4908 0.0812502 12.6267 0.000833511H15.3767C15.5261 0.0417784 15.6624 0.120941 15.772 0.23053C15.8816 0.34012 15.9607 0.476357 16.0017 0.625833V2.28208C15.9362 2.40375 15.8679 2.52375 15.8062 2.64708C15.7758 2.70833 15.7379 2.77542 15.7371 2.84042C15.7312 3.3325 15.7333 3.82458 15.7371 4.31667C15.7358 4.36743 15.7463 4.41779 15.7679 4.46375C15.8421 4.60333 15.9242 4.73875 16.0033 4.87583V6.71958C15.9367 6.84042 15.8675 6.96 15.8046 7.0825C15.7699 7.13672 15.7474 7.19787 15.7387 7.26167C15.7333 7.72333 15.7346 8.185 15.7387 8.64625C15.7388 8.69671 15.751 8.74642 15.7742 8.79125C15.8417 8.925 15.9225 9.05542 16 9.1875ZM0.810834 7.595C0.8525 7.5875 0.88 7.58458 0.905 7.57917C1.72583 7.38917 2.54708 7.20417 3.36667 7.0075C3.63625 6.94333 3.87917 6.97417 4.10833 7.13542C4.83639 7.64764 5.56556 8.15792 6.29583 8.66625C6.54583 8.84042 6.67083 9.07458 6.665 9.38208C6.66 9.67875 6.665 9.97542 6.665 10.2725C6.66208 10.6592 6.47625 10.9246 6.1125 11.055C5.07083 11.43 4.02625 11.7971 2.98417 12.1717C2.77803 12.2491 2.551 12.2501 2.34417 12.1746C1.99583 12.0529 1.64458 11.9383 1.29458 11.8217C1.13833 11.77 0.98125 11.7208 0.804167 11.6637C0.804167 11.8304 0.800833 11.975 0.8075 12.1192C0.81037 12.1376 0.817571 12.155 0.82851 12.1701C0.839449 12.1852 0.853813 12.1974 0.870417 12.2058C1.28042 12.3387 1.69333 12.4621 2.1025 12.5975C2.36833 12.6854 2.64042 12.7667 2.88875 12.8921C3.27833 13.0887 3.65167 13.3183 4.02958 13.5375C4.55833 13.8446 4.63208 14.4125 4.2025 14.8442C4.095 14.9525 3.98708 15.06 3.85042 15.1975C4.23333 15.1975 4.57042 15.1975 4.9075 15.1938C4.92726 15.1888 4.94553 15.1792 4.96071 15.1656C4.97588 15.152 4.98751 15.1349 4.99458 15.1158C5.11958 14.6329 5.475 14.3308 5.87625 14.1179C6.38417 13.8488 6.92833 13.6437 7.46542 13.4342C7.62604 13.3792 7.79756 13.3637 7.96542 13.3892C8.20083 13.4204 8.43042 13.4992 8.66167 13.5592C8.85125 13.6083 9.01375 13.7088 9.10708 13.8787C9.34375 14.3088 9.6525 14.7021 9.78333 15.1875H10.3604C10.2554 14.9758 10.1621 14.78 10.0621 14.5879C9.89542 14.27 9.91875 13.97 10.1287 13.6792C10.4621 13.2192 10.7922 12.7578 11.1192 12.295C11.2344 12.1259 11.4085 12.0059 11.6075 11.9583C12.7742 11.67 13.9396 11.38 15.1037 11.0883C15.1392 11.0796 15.1908 11.0387 15.1925 11.0104C15.2012 10.8571 15.1967 10.7033 15.1967 10.54C15.1262 10.5546 15.0808 10.5629 15.0354 10.5733C13.8812 10.8442 12.7272 11.1154 11.5733 11.3871C11.2817 11.4554 11.0242 11.3996 10.81 11.1871C10.3222 10.7029 9.83611 10.2168 9.35167 9.72875C9.25318 9.63421 9.18227 9.51467 9.14653 9.38292C9.11078 9.25117 9.11155 9.11218 9.14875 8.98083C9.25625 8.54667 9.36361 8.11264 9.47083 7.67875C9.60458 7.13708 9.89375 6.93208 10.4563 6.97625C11.2608 7.04 12.0646 7.11167 12.87 7.1575C13.2471 7.17917 13.575 7.2825 13.8817 7.50667C14.2587 7.78375 14.6579 8.03042 15.0483 8.29C15.09 8.3175 15.1317 8.34125 15.1871 8.37333V7.38958C14.9821 7.28833 14.7962 7.20958 14.6233 7.10875C14.2571 6.89542 14.1337 6.62417 14.1946 6.20542C14.2537 5.79875 14.3146 5.3925 14.3725 4.98542C14.4021 4.77417 14.4904 4.59042 14.6671 4.47333C14.8271 4.36667 15.0071 4.29042 15.1846 4.1975V3.12083C14.8904 3.32917 14.6175 3.52875 14.3412 3.72125C14.0271 3.94042 13.7133 3.94625 13.3942 3.7375C13.05 3.5125 12.7087 3.28333 12.3675 3.05417C12.2503 2.97993 12.1546 2.87618 12.0901 2.75333C12.0256 2.63047 11.9945 2.49282 12 2.35417C12.0021 1.89583 12 1.4375 12 0.979167V0.8125H11.2967C11.3404 1.075 11.38 1.32583 11.4242 1.57542C11.4682 1.7812 11.4331 1.99602 11.3258 2.17708C11.1637 2.44417 11.0075 2.71458 10.8421 2.97917C10.6337 3.315 10.2887 3.43958 9.91 3.31583C9.32167 3.12375 8.73583 2.92458 8.14833 2.73042C8.03894 2.6962 7.93792 2.63945 7.8518 2.56381C7.76569 2.48817 7.69637 2.39532 7.64833 2.29125C7.50917 2.00583 7.35667 1.72708 7.22542 1.43875C7.13667 1.24375 7.07583 1.03667 6.99375 0.811666H5.93542C5.97208 0.87 5.9975 0.913333 6.02542 0.955C6.22667 1.25875 6.43 1.56083 6.63 1.86542C6.87083 2.23125 6.835 2.60375 6.52917 2.91458C6.325 3.12292 6.125 3.33667 5.9075 3.52958C5.79322 3.63462 5.65866 3.71517 5.51208 3.76625C4.75333 4.00542 3.98958 4.22708 3.22833 4.45708C3.02812 4.52064 2.81179 4.51059 2.61833 4.42875C2.24792 4.27708 1.87583 4.12875 1.50417 3.98042C1.27875 3.89042 1.05208 3.8025 0.81125 3.70792V4.43417C1.40792 4.63375 1.99417 4.82833 2.57875 5.02708C2.75334 5.08753 2.89783 5.21307 2.98208 5.3775C3.03958 5.48208 3.0925 5.58958 3.14458 5.69708C3.38417 6.19292 3.16375 6.6875 2.63375 6.84125C2.35917 6.92083 2.07958 6.98583 1.80875 7.07667C1.50875 7.1775 1.21375 7.21792 0.91 7.10208C0.877443 7.09504 0.84411 7.09224 0.810834 7.09375V7.595ZM0.5325 9.625C0.5325 10.005 0.536667 10.385 0.5325 10.765C0.529583 10.9375 0.6025 11.035 0.76375 11.0879C1.35167 11.28 1.93667 11.4804 2.52583 11.6687C2.61387 11.6963 2.70821 11.6963 2.79625 11.6687C3.84083 11.3025 4.8825 10.9283 5.92583 10.5583C6.07375 10.5058 6.13875 10.4104 6.13417 10.2525C6.12833 9.96611 6.12833 9.67986 6.13417 9.39375C6.13755 9.33413 6.1246 9.27472 6.09669 9.22192C6.06879 9.16913 6.027 9.12495 5.97583 9.09417C5.25417 8.59417 4.53625 8.08417 3.81125 7.58667C3.73082 7.53403 3.63368 7.51323 3.53875 7.52833C2.60958 7.73333 1.68333 7.94917 0.75625 8.1625C0.601666 8.19792 0.53125 8.295 0.5325 8.45417C0.534167 8.8425 0.5325 9.23292 0.5325 9.625ZM2.42417 0.534167H0.878333C0.60875 0.534167 0.5325 0.60875 0.5325 0.87375C0.5325 1.50319 0.5325 2.13292 0.5325 2.76292C0.5325 2.98458 0.564167 3.03375 0.76625 3.11458C1.44625 3.38667 2.12542 3.66125 2.80792 3.92583C2.89899 3.9584 2.99781 3.96247 3.09125 3.9375C3.60125 3.79375 4.10083 3.60417 4.61708 3.49458C5.21124 3.3767 5.74345 3.04969 6.11708 2.57292C6.12333 2.565 6.13167 2.55833 6.13875 2.55083C6.27792 2.40625 6.28833 2.31833 6.1775 2.15042C5.9825 1.85542 5.77667 1.56708 5.59417 1.26542C5.48875 1.09333 5.34958 1.0075 5.16 0.94625C4.20333 0.634584 3.23792 0.40625 2.42417 0.5325V0.534167ZM13.2237 15.4675C13.8646 15.4675 14.5053 15.4675 15.1458 15.4675C15.3833 15.4675 15.4671 15.3842 15.4675 15.1496C15.4675 14.0768 15.4675 13.0039 15.4675 11.9308C15.4675 11.6658 15.3458 11.5721 15.0871 11.6367C13.9821 11.9129 12.8787 12.1879 11.7737 12.47C11.6852 12.4942 11.6067 12.546 11.5496 12.6179C11.2162 13.0704 10.8942 13.5317 10.5642 13.9871C10.523 14.0375 10.4983 14.0994 10.4936 14.1644C10.4889 14.2293 10.5044 14.2942 10.5379 14.35C10.6921 14.6508 10.8467 14.9517 10.9908 15.2571C11.0625 15.4092 11.1658 15.4708 11.3333 15.4696C11.9633 15.4642 12.5937 15.4675 13.2237 15.4675ZM15.4675 9.5025C15.5242 9.28833 15.3925 9.15042 15.1921 9.02125C14.5837 8.62958 13.9875 8.22042 13.3833 7.82167C13.3126 7.76985 13.2304 7.73583 13.1438 7.7225C12.2154 7.64458 11.2858 7.57375 10.3567 7.50333C10.1262 7.48625 10.0558 7.54042 10.0017 7.75917C9.89458 8.18792 9.79333 8.61833 9.67917 9.045C9.65801 9.10632 9.65558 9.17255 9.67221 9.23526C9.68883 9.29796 9.72374 9.3543 9.7725 9.39708C10.2311 9.85125 10.6878 10.3079 11.1425 10.7671C11.1839 10.8139 11.238 10.8477 11.2981 10.8644C11.3583 10.8811 11.4221 10.88 11.4817 10.8612C11.7687 10.7887 12.0583 10.7246 12.3467 10.6567C13.3083 10.4297 14.2699 10.2026 15.2312 9.97542C15.41 9.93375 15.4637 9.86042 15.4675 9.68083C15.4683 9.63417 15.4675 9.58708 15.4675 9.5025ZM14.0092 0.5325C13.6237 0.5325 13.2383 0.5325 12.8529 0.5325C12.615 0.5325 12.5321 0.615833 12.5317 0.850417C12.5317 1.34 12.5342 1.82917 12.5317 2.31875C12.527 2.3809 12.5398 2.44313 12.5686 2.49836C12.5975 2.5536 12.6413 2.59964 12.695 2.63125C13.0219 2.84347 13.3465 3.06 13.6687 3.28083C13.8042 3.37375 13.9233 3.36833 14.0546 3.27292C14.4712 2.97042 14.8906 2.67083 15.3125 2.37417C15.3631 2.34257 15.4044 2.29804 15.4321 2.24515C15.4598 2.19227 15.4729 2.13296 15.47 2.07333C15.4658 1.66208 15.47 1.25042 15.4679 0.839167C15.4679 0.61625 15.3804 0.533333 15.1512 0.5325C14.7704 0.531667 14.39 0.5325 14.01 0.5325H14.0092ZM0.5325 14.0937C0.5325 14.4529 0.5325 14.8121 0.5325 15.1712C0.5325 15.3771 0.6225 15.4663 0.828333 15.4671C1.4425 15.4671 2.05667 15.4712 2.67083 15.4633C2.76308 15.4603 2.85142 15.4254 2.92083 15.3646C3.23333 15.0662 3.53625 14.7583 3.8375 14.4479C4.00083 14.2812 3.97625 14.1233 3.77333 14.0033C3.59417 13.8979 3.41375 13.795 3.23167 13.6938C2.9725 13.5513 2.72208 13.3837 2.44792 13.2771C1.94375 13.0842 1.42542 12.9279 0.9125 12.7587C0.670416 12.6792 0.533333 12.7829 0.532083 13.0437C0.531667 13.3962 0.5325 13.745 0.5325 14.0937ZM9.2325 0.5325C8.81583 0.5325 8.39917 0.529167 7.9825 0.5325C7.91636 0.530565 7.8509 0.546162 7.79274 0.577708C7.73458 0.609254 7.6858 0.655626 7.65136 0.712116C7.61691 0.768606 7.59803 0.833204 7.59662 0.899352C7.59521 0.9655 7.61133 1.03084 7.64333 1.08875C7.80083 1.405 7.95417 1.72375 8.12125 2.035C8.16397 2.11591 8.23286 2.17995 8.31667 2.21667C8.895 2.42042 9.4775 2.61167 10.0592 2.80583C10.2079 2.85583 10.3221 2.81375 10.4033 2.67542C10.5504 2.42542 10.7083 2.17917 10.8475 1.92333C10.8884 1.84127 10.904 1.74885 10.8921 1.65792C10.8542 1.36958 10.7987 1.08333 10.75 0.79625C10.7167 0.597083 10.6408 0.532083 10.4342 0.53125C10.0342 0.531667 9.63333 0.5325 9.2325 0.5325ZM7.36083 15.4675C7.88167 15.4675 8.4025 15.4675 8.92292 15.4675C9.19333 15.4675 9.30042 15.2875 9.17 15.0537C9.01792 14.7812 8.86875 14.5067 8.70208 14.2433C8.64416 14.1608 8.56184 14.0984 8.46667 14.065C8.28514 14.0015 8.09848 13.9539 7.90875 13.9225C7.80809 13.9044 7.70443 13.9133 7.60833 13.9483C7.2275 14.1008 6.85833 14.2817 6.47333 14.4258C6.15118 14.5443 5.86392 14.7417 5.63792 15C5.55125 15.0975 5.49 15.1929 5.54542 15.3208C5.59792 15.4425 5.70667 15.4679 5.83042 15.4675C6.34042 15.4662 6.85083 15.4675 7.36083 15.4675ZM0.804167 5C0.6375 5 0.536667 5.1 0.53375 5.26292C0.529583 5.51292 0.53375 5.76292 0.53375 6.01292C0.53375 6.45875 0.53375 6.46083 0.975833 6.5675C1.11042 6.6 1.25833 6.66083 1.38333 6.63292C1.77292 6.54583 2.15667 6.43 2.53625 6.30542C2.61042 6.28125 2.68792 6.17375 2.70583 6.09208C2.74083 5.93375 2.47708 5.55333 2.32042 5.50083C1.84819 5.34194 1.37597 5.18444 0.90375 5.02833C0.861667 5.01417 0.82125 5.00458 0.804167 5ZM15.4667 5.78167C15.4667 5.53167 15.4771 5.28167 15.4604 5.03167C15.4553 4.98753 15.4406 4.94504 15.4174 4.90718C15.3941 4.86932 15.3629 4.837 15.3258 4.8125C15.2596 4.77958 15.1471 4.80333 15.0687 4.83583C14.9204 4.89708 14.8971 5.04208 14.8775 5.18542C14.83 5.53542 14.7801 5.885 14.7279 6.23417C14.6892 6.49458 14.7096 6.54167 14.9362 6.6775C14.9779 6.70125 15.0162 6.72583 15.0571 6.74875C15.2837 6.87375 15.4629 6.77375 15.4662 6.51292C15.4696 6.27042 15.4667 6.02583 15.4667 5.78167Z" fill="#B07FD8"/>
<path d="M10.5792 11.8953C10.5792 12.0045 10.5838 12.1141 10.5792 12.2232C10.5758 12.3356 10.5475 12.4459 10.4966 12.5461C10.4456 12.6464 10.3732 12.7342 10.2844 12.8032C10.1956 12.8723 10.0927 12.9209 9.98297 12.9456C9.87326 12.9703 9.75944 12.9705 9.64964 12.9461C9.19339 12.8445 8.73631 12.7378 8.29006 12.5999C8.1197 12.54 7.97064 12.4315 7.86131 12.2878C7.59881 11.9395 7.36631 11.5678 7.12839 11.2011C7.03726 11.0633 6.99262 10.8999 7.001 10.7349C7.00937 10.5699 7.07032 10.4119 7.17494 10.284C7.27955 10.1561 7.42234 10.065 7.58243 10.0241C7.74251 9.9832 7.91148 9.99456 8.06464 10.0566C8.73714 10.321 9.40784 10.5896 10.0767 10.8624C10.4042 10.9953 10.5738 11.2432 10.5813 11.5982C10.5813 11.6974 10.5813 11.7961 10.5813 11.8953H10.5792ZM10.0471 11.8907C10.0471 11.8074 10.0426 11.7241 10.0471 11.6407C10.0563 11.4907 9.99131 11.3966 9.85214 11.3411C9.20048 11.0828 8.54964 10.8228 7.89964 10.5611C7.78214 10.5141 7.67131 10.5161 7.58756 10.6186C7.50381 10.7211 7.52131 10.8378 7.59589 10.9486C7.82256 11.2849 8.04381 11.6245 8.27339 11.9586C8.31208 12.0193 8.36961 12.0655 8.43714 12.0903C8.87298 12.2082 9.31214 12.3203 9.75048 12.4236C9.91714 12.4624 10.0351 12.3578 10.0421 12.1874C10.0513 12.0886 10.0471 11.9895 10.0471 11.8907Z" fill="#662E93"/>
<path d="M7.00363 5.0737C7.00363 4.9579 7.001 4.8425 7.00363 4.72709C7.00631 4.53666 7.07789 4.35477 7.20327 4.21976C7.32865 4.08474 7.49805 4.00715 7.67577 4.00331C7.93848 3.99608 8.20118 4.00331 8.46389 4.0009C8.56748 3.99833 8.67024 4.02133 8.76421 4.06811C8.85818 4.1149 8.94084 4.18422 9.00581 4.27071C9.2839 4.62375 9.56161 4.9776 9.83408 5.33547C9.93597 5.4626 9.99436 5.62315 9.99961 5.79063C10.0049 5.95811 9.95667 6.1225 9.86297 6.25668C9.76052 6.41229 9.65431 6.56629 9.54097 6.71306C9.34169 6.97201 9.08274 7.05806 8.78476 6.96156C8.44475 6.85098 8.10924 6.72271 7.77147 6.59967C7.73499 6.5898 7.70068 6.57231 7.67052 6.5482C7.33276 6.21486 7.0374 5.85257 7.0025 5.32863C6.99687 5.24379 7.0025 5.15814 7.0025 5.0729L7.00363 5.0737ZM8.09385 4.51438C7.97676 4.51438 7.85967 4.51438 7.74258 4.51438C7.56169 4.5168 7.48513 4.59681 7.48325 4.78781C7.48137 4.97881 7.47762 5.15935 7.48513 5.34472C7.48851 5.41869 7.50819 5.49075 7.54255 5.55502C7.62554 5.70636 7.71664 5.85243 7.81538 5.9925C7.85955 6.05586 7.91915 6.10497 7.98764 6.13444C8.28788 6.24944 8.59073 6.35117 8.89172 6.46014C9.01444 6.50437 9.11127 6.47582 9.1882 6.36364C9.27151 6.24301 9.35746 6.12238 9.44077 6.00175C9.5466 5.84694 9.5436 5.76571 9.42613 5.61332C9.24374 5.37769 9.06285 5.14045 8.87708 4.90804C8.49429 4.42954 8.67518 4.52564 8.09385 4.51438Z" fill="#662E93"/>
<path d="M5.91312 11.9244C6.21229 11.8854 6.45439 11.9622 6.61657 12.1764C6.72436 12.3188 6.82396 12.4665 6.91547 12.6175C6.99013 12.737 7.01332 12.877 6.98113 13.014C6.94895 13.1509 6.86335 13.2764 6.73878 13.3692C6.53236 13.5272 6.31989 13.679 6.10568 13.8298C6.01104 13.899 5.89837 13.9467 5.77863 13.9684C5.65889 13.9901 5.53617 13.9849 5.42242 13.9535C5.19358 13.8987 4.96162 13.8491 4.74013 13.7787C4.43072 13.6801 4.20476 13.4839 4.05574 13.2412C4.01434 13.1708 3.99064 13.0931 3.98611 13.0129C3.98159 12.9327 3.99633 12.8518 4.02943 12.7751C4.06253 12.6985 4.11328 12.6278 4.17852 12.5674C4.24377 12.507 4.32211 12.4582 4.40869 12.424C4.87929 12.2463 5.36297 12.0971 5.84127 11.936C5.86484 11.9301 5.8889 11.9262 5.91312 11.9244ZM6.00976 12.3252L5.68227 12.4359C5.3498 12.5473 5.01728 12.6585 4.6854 12.7712C4.51648 12.8285 4.42514 12.9556 4.51297 13.0483C4.63184 13.1739 4.77182 13.2991 4.93622 13.3727C5.12472 13.4576 5.34725 13.4946 5.56081 13.5344C5.64668 13.5498 5.73773 13.5355 5.81477 13.4946C6.01969 13.362 6.21057 13.2148 6.40512 13.0712C6.45128 13.0412 6.48333 12.9979 6.49478 12.9498C6.50623 12.9018 6.49622 12.8527 6.46679 12.8125C6.38868 12.6782 6.30006 12.549 6.20149 12.4257C6.15506 12.3721 6.06073 12.3504 6.00976 12.3252Z" fill="#662E93"/>
<path d="M11 5.39639C11.0417 5.11014 11.0458 4.81305 11.1275 4.54055C11.2717 4.05764 11.7942 3.86264 12.2383 4.10264C12.5858 4.29055 12.9283 4.48847 13.2675 4.69097C13.4036 4.77003 13.5114 4.88979 13.5759 5.03338C13.6403 5.17698 13.6581 5.33717 13.6267 5.49139C13.5938 5.68097 13.5592 5.87014 13.5175 6.05764C13.4321 6.44389 13.1333 6.68722 12.7362 6.69305C12.4346 6.69778 12.1328 6.69778 11.8308 6.69305C11.3796 6.68514 11.0583 6.36972 11.0392 5.91639C11.0317 5.74514 11.0392 5.57305 11.0392 5.40139L11 5.39639ZM11.5712 5.41639C11.5712 5.57222 11.5671 5.72847 11.5712 5.8843C11.5775 6.06597 11.6637 6.1568 11.8408 6.15972C12.1371 6.1643 12.4338 6.16264 12.7304 6.15972C12.8729 6.15972 12.9654 6.0868 12.9942 5.94305C13.0292 5.76972 13.0608 5.59597 13.0979 5.42347C13.1144 5.36762 13.1107 5.30773 13.0874 5.25437C13.0641 5.20101 13.0226 5.1576 12.9704 5.1318C12.6421 4.94222 12.3138 4.75222 11.9808 4.56972C11.8313 4.48639 11.6858 4.54555 11.6275 4.70514C11.5961 4.79284 11.5776 4.88463 11.5725 4.97764C11.5642 5.12514 11.5708 5.27055 11.5712 5.4168V5.41639Z" fill="#662E93"/>
<path d="M8.87878 8.04953C8.86346 8.13992 8.8396 8.22865 8.80753 8.31453C8.70919 8.53203 8.60544 8.74828 8.48836 8.95662C8.26461 9.35537 7.78003 9.48037 7.39878 9.23245C7.11503 9.04912 6.83753 8.85328 6.57336 8.64328C6.47981 8.5696 6.40487 8.47498 6.35458 8.36704C6.30429 8.2591 6.28006 8.14085 6.28383 8.02183C6.2876 7.90281 6.31927 7.78634 6.37629 7.68179C6.43331 7.57725 6.51408 7.48756 6.61211 7.41995C6.79202 7.29606 6.97947 7.18348 7.17336 7.08287C7.26863 7.03342 7.37355 7.00538 7.48078 7.0007C7.58802 6.99602 7.69498 7.01482 7.79419 7.05578C7.99878 7.13245 8.20294 7.21078 8.40211 7.29953C8.70836 7.43578 8.85586 7.68245 8.87878 8.04953ZM7.52419 7.52578C7.47377 7.53857 7.42456 7.55571 7.37711 7.57703C7.23294 7.66037 7.08794 7.74162 6.94919 7.83328C6.77669 7.94662 6.77211 8.13162 6.94128 8.25745C7.17461 8.4312 7.41253 8.59995 7.65253 8.76495C7.80919 8.87287 7.94669 8.8337 8.04003 8.66287C8.09961 8.55328 8.15378 8.44078 8.20961 8.32953C8.41794 7.91037 8.40419 7.8712 7.96419 7.69578C7.81544 7.6362 7.66669 7.58037 7.52419 7.52578Z" fill="#662E93"/>
<path d="M4.0001 5.98098C4.00543 5.83558 4.04528 5.69519 4.11482 5.5768C4.18436 5.45842 4.28061 5.36712 4.39191 5.31398C4.59396 5.20399 4.80173 5.11026 5.01386 5.03339C5.13016 4.99442 5.25239 4.98948 5.37055 5.019C5.75089 5.11718 6.07386 5.74863 5.9852 6.19428C5.96461 6.31128 5.92119 6.42054 5.85863 6.51284C5.79607 6.60513 5.71619 6.67775 5.62573 6.72457C5.46849 6.8139 5.30674 6.89094 5.14145 6.95523C5.04515 6.99078 4.92417 7.02125 4.83725 6.98062C4.61503 6.88133 4.4024 6.75275 4.20313 6.59718C4.04947 6.47318 3.99732 6.25014 4.0001 5.98098ZM5.56176 6.06139C5.56176 5.8811 5.36534 5.56876 5.26278 5.54083C5.22523 5.53042 5.18606 5.53261 5.14945 5.54718C4.95824 5.63182 4.76425 5.708 4.58034 5.81084C4.54746 5.83166 4.51886 5.86123 4.49665 5.89735C4.47444 5.93347 4.4592 5.97522 4.45205 6.01949C4.44753 6.0944 4.50038 6.19809 4.55392 6.24845C4.64243 6.32412 4.73905 6.38464 4.84108 6.42832C4.8927 6.45359 4.94964 6.45789 5.00343 6.44059C5.15173 6.38332 5.2963 6.31258 5.43591 6.22898C5.4971 6.19132 5.5343 6.09863 5.56072 6.06181L5.56176 6.06139Z" fill="#662E93"/>
</g>
<defs>
<clipPath id="clip0_346_223">
<rect width="16" height="16" fill="white"/>
</clipPath>
</defs>
</svg>
