<svg width="19" height="16" viewBox="0 0 19 16" fill="none" xmlns="http://www.w3.org/2000/svg">
<g clip-path="url(#clip0_224_339)">
<path d="M18.2472 13.9743C18.1522 14.1303 18.0096 14.164 17.8338 14.145C17.4231 14.1059 17.0363 13.9344 16.7318 13.6566C16.1094 13.0876 15.4351 13.0876 14.8097 13.6471C14.0584 14.3224 13.004 14.311 12.2651 13.621C11.7091 13.0994 10.9721 13.1018 10.4119 13.621C9.65631 14.3205 8.63893 14.3323 7.87055 13.6504C7.24568 13.0956 6.56902 13.0975 5.94272 13.6557C5.20285 14.3153 4.17455 14.3115 3.43801 13.6467C2.81694 13.0857 2.13884 13.0871 1.51635 13.6557C1.21214 13.934 0.82524 14.1056 0.41439 14.1446C0.240471 14.1645 0.0979148 14.1303 0.000976562 13.9738V13.796C0.0354088 13.7378 0.0847945 13.6899 0.144026 13.6571C0.203257 13.6243 0.270184 13.608 0.337885 13.6097C0.670516 13.5964 0.950401 13.4546 1.19655 13.2303C1.90078 12.583 2.8597 12.5233 3.58864 13.0748C3.67845 13.1426 3.75828 13.2227 3.84429 13.2957C4.08363 13.5049 4.39178 13.6189 4.70993 13.6158C5.02808 13.6127 5.33396 13.4929 5.56922 13.2791C5.70703 13.1587 5.86004 13.0563 6.00212 12.9406C6.03871 12.9107 6.08432 12.8618 6.08432 12.822C6.08955 12.0467 6.08813 11.2714 6.08813 10.4795C6.01067 10.4757 5.94557 10.4705 5.8838 10.4705C5.37313 10.4705 4.86246 10.4705 4.35179 10.4705C4.30998 10.4705 4.26863 10.4705 4.22682 10.4705C4.02344 10.4648 3.91367 10.3756 3.90987 10.213C3.90607 10.0503 4.01868 9.94125 4.23062 9.93888C4.61077 9.93461 4.99092 9.93888 5.37107 9.93888H6.08908C6.08908 9.66953 6.0924 9.41726 6.08908 9.16403C6.07618 8.8074 6.14611 8.45262 6.29341 8.12743C6.71727 7.22645 7.4253 6.70483 8.42557 6.64318C9.38783 6.58486 10.1362 6.99314 10.6732 7.79027C10.7093 7.84386 10.7412 7.90076 10.7849 7.97189C10.8158 7.92922 10.8424 7.89555 10.8661 7.85951C11.4307 6.99599 12.2256 6.58533 13.2601 6.6484C13.4673 6.66073 13.5856 6.77406 13.5738 6.93292C13.5609 7.10221 13.4255 7.19231 13.2083 7.17666C12.2104 7.10268 11.3356 7.731 11.1085 8.6941C11.0766 8.82646 11.0597 8.96199 11.0581 9.09812C11.0538 10.2599 11.0553 11.4217 11.0557 12.583C11.0557 12.6233 11.0619 12.6636 11.0657 12.7096H11.6393V12.4981C11.6393 11.3899 11.6359 10.2817 11.6393 9.17352C11.6426 8.45131 12.0669 7.91546 12.7369 7.77178C13.5291 7.60154 14.3236 8.19856 14.3664 9.0047C14.3825 9.30535 14.3692 9.60741 14.3692 9.9237H14.9451C15.0041 9.08294 15.0079 8.26116 14.2856 7.64375C14.2585 7.62051 14.2295 7.59917 14.2048 7.57404C14.0936 7.46165 14.0817 7.31797 14.173 7.20653C14.2642 7.0951 14.4229 7.07233 14.5531 7.17524C15.0121 7.53752 15.3224 8.00366 15.426 8.57745C15.4869 8.9184 15.4764 9.27215 15.4949 9.62069C15.5002 9.71932 15.4949 9.8189 15.4949 9.93983H15.7221C16.4287 9.93983 17.1353 9.94267 17.8419 9.93745C18.0053 9.93745 18.1446 9.96685 18.2467 10.102V10.3154C18.1441 10.451 18.0039 10.4757 17.8414 10.4757C16.0303 10.4719 14.2194 10.4719 12.4086 10.4757C12.3345 10.4757 12.2603 10.4823 12.171 10.4866C12.171 11.2818 12.171 12.0571 12.1738 12.8324C12.1818 12.8767 12.2063 12.9164 12.2423 12.9434C12.3891 13.0634 12.5454 13.171 12.689 13.2943C12.9237 13.4988 13.224 13.6129 13.5356 13.6161C13.8472 13.6193 14.1497 13.5114 14.3887 13.3119C14.4752 13.2398 14.555 13.1592 14.6443 13.0909C15.3814 12.5285 16.3455 12.584 17.0507 13.2331C17.2954 13.4593 17.5734 13.6021 17.906 13.6125C17.9738 13.6107 18.0408 13.6271 18.1002 13.6598C18.1595 13.6926 18.2089 13.7406 18.2434 13.7989L18.2472 13.9743ZM10.5126 9.92465C10.5126 9.59271 10.5288 9.26551 10.5093 8.94258C10.4508 7.94676 9.47954 7.10268 8.4845 7.16575C7.40344 7.23451 6.63126 8.04587 6.62414 9.137C6.61653 10.2751 6.62414 11.4132 6.62414 12.5489C6.62414 12.6044 6.63031 12.6598 6.63364 12.7073H7.20101V12.4972C7.20101 11.3591 7.19579 10.221 7.20387 9.08294C7.20816 8.75691 7.32941 8.4432 7.54562 8.19873C7.76183 7.95426 8.05868 7.79521 8.38233 7.75044C9.07373 7.66366 9.72093 8.07954 9.88582 8.74626C9.94285 8.97767 9.93001 9.2271 9.94142 9.46894C9.94902 9.61974 9.94142 9.77101 9.94142 9.92181L10.5126 9.92465ZM7.73845 9.92465H9.40873C9.40873 9.66716 9.40873 9.41963 9.40873 9.17257C9.41011 9.10737 9.40598 9.04218 9.39638 8.97767C9.36474 8.77345 9.25754 8.58848 9.09595 8.45926C8.93435 8.33004 8.73008 8.26595 8.52346 8.27965C8.32559 8.28774 8.13743 8.36742 7.99412 8.50381C7.8508 8.6402 7.76212 8.82397 7.74463 9.02082C7.72134 9.31388 7.73845 9.61168 7.73845 9.9237V9.92465ZM13.8356 9.93508C13.8356 9.62306 13.846 9.33474 13.8327 9.04691C13.822 8.85328 13.7423 8.66984 13.608 8.52962C13.4738 8.3894 13.2938 8.3016 13.1005 8.28202C12.6728 8.24503 12.2679 8.49446 12.2081 8.89848C12.1605 9.23042 12.1981 9.57706 12.1981 9.92655C12.2299 9.92939 12.2646 9.93556 12.2988 9.93556L13.8356 9.93508ZM7.75318 12.6902C7.70851 12.8291 7.74415 12.9083 7.86533 12.9747C7.98696 13.0478 8.09997 13.1344 8.20223 13.2327C8.76533 13.7382 9.46718 13.7439 10.0312 13.2474C10.1432 13.1421 10.2653 13.0481 10.3957 12.9666C10.5178 12.8965 10.5459 12.8182 10.4983 12.6902H7.75318ZM7.74415 11.0305H10.5107V10.4785H7.74558L7.74415 11.0305ZM7.74415 12.1373H10.5017V11.5839H7.74558L7.74415 12.1373Z" fill="#B07FD8"/>
<path d="M18.2472 15.8236C18.1522 15.9805 18.0096 16.0132 17.8352 15.9952C17.4218 15.9478 17.0431 15.8131 16.7499 15.5163C16.1754 14.9344 15.3286 14.9857 14.7774 15.5163C14.0945 16.1721 13.0287 16.1508 12.3169 15.5163C11.6654 14.9373 11.0201 14.9401 10.3634 15.5068C10.1985 15.641 10.0192 15.7565 9.82878 15.8511C9.79769 15.8689 9.76315 15.8799 9.72746 15.8833C9.69178 15.8867 9.65577 15.8825 9.62186 15.8709C9.58794 15.8593 9.55689 15.8406 9.53079 15.8161C9.50468 15.7916 9.48412 15.7618 9.47048 15.7287C9.40681 15.5926 9.46288 15.4613 9.60686 15.3712C9.77584 15.2736 9.93666 15.1626 10.0878 15.0392C10.8233 14.391 11.8673 14.3891 12.5948 15.0501C12.7968 15.2337 13.0154 15.3778 13.2862 15.4295C13.7453 15.5182 14.1416 15.392 14.4804 15.0748C14.6803 14.8795 14.9226 14.7329 15.1886 14.6464C15.4546 14.56 15.737 14.536 16.0138 14.5764C16.3828 14.6161 16.7285 14.7759 16.9975 15.0312C17.2593 15.2937 17.6083 15.4515 17.9787 15.475C18.0714 15.4812 18.1574 15.586 18.2462 15.6457L18.2472 15.8236Z" fill="#662E93"/>
<path d="M0 15.6459C0.0346318 15.5877 0.0842197 15.5398 0.143625 15.5072C0.20303 15.4746 0.270091 15.4585 0.337858 15.4605C0.699476 15.4491 0.986013 15.2708 1.24927 15.0337C1.5428 14.766 1.91578 14.6011 2.31168 14.5639C2.70758 14.5268 3.10483 14.6194 3.44321 14.8279C3.5485 14.8942 3.64759 14.9699 3.73925 15.0541C4.34369 15.5975 5.02986 15.6027 5.63762 15.0645C6.29195 14.486 7.1625 14.393 7.87433 14.8274C7.95986 14.8796 8.03542 14.9474 8.11762 15.0052C8.29107 15.1276 8.46118 15.2547 8.64033 15.3675C8.79191 15.4623 8.85179 15.5994 8.78289 15.7393C8.76781 15.7718 8.74605 15.8007 8.71901 15.8242C8.69197 15.8478 8.66027 15.8653 8.62597 15.8758C8.59167 15.8863 8.55554 15.8894 8.51994 15.885C8.48434 15.8806 8.45007 15.8688 8.41937 15.8502C8.21072 15.7398 8.01379 15.6085 7.83156 15.4586C7.26371 14.9659 6.56186 14.9578 5.99781 15.4586C5.18524 16.1779 4.1883 16.1746 3.38428 15.4486C2.8497 14.9654 2.11411 14.9592 1.58095 15.4486C1.25545 15.7483 0.887175 15.9366 0.447151 15.9906C0.26563 16.0129 0.104066 15.9968 0 15.8218V15.6459Z" fill="#662E93"/>
<path d="M0 10.0967C0.102165 9.96155 0.24092 9.9312 0.404384 9.93215C1.22931 9.93689 2.05423 9.93452 2.87868 9.93452C2.92628 9.9333 2.9739 9.9352 3.02124 9.94021C3.17568 9.96108 3.27879 10.073 3.27356 10.2115C3.27121 10.2804 3.2417 10.3457 3.19144 10.3931C3.14118 10.4405 3.07422 10.4662 3.00508 10.4647C2.73185 10.4718 2.45909 10.4675 2.18586 10.468C1.58665 10.468 0.987439 10.4642 0.388228 10.4704C0.229515 10.4704 0.098839 10.4381 0.000475289 10.3101L0 10.0967Z" fill="#662E93"/>
<path d="M4.95861 3.02018C4.96068 3.29151 4.88196 3.55734 4.73244 3.78396C4.58292 4.01059 4.36933 4.1878 4.11876 4.29314C3.86818 4.39847 3.5919 4.42717 3.32496 4.37561C3.05801 4.32405 2.81242 4.19455 2.61933 4.00352C2.42623 3.81249 2.29433 3.56854 2.24034 3.30261C2.18636 3.03667 2.21272 2.76073 2.3161 2.50977C2.41947 2.25881 2.59519 2.04413 2.82098 1.89296C3.04677 1.74179 3.31246 1.66093 3.58436 1.66064C3.94671 1.66088 4.29432 1.80382 4.55165 2.05839C4.80898 2.31296 4.95523 2.6586 4.95861 3.02018ZM3.58056 2.19459C3.47045 2.19515 3.36153 2.21738 3.26003 2.26001C3.15854 2.30263 3.06647 2.36482 2.98909 2.443C2.91171 2.52119 2.85055 2.61384 2.80911 2.71565C2.76766 2.81745 2.74675 2.92642 2.74756 3.0363C2.75191 3.25808 2.84313 3.46934 3.00168 3.62481C3.16022 3.78028 3.37349 3.8676 3.59577 3.86805C3.70595 3.86669 3.81479 3.84367 3.91605 3.80032C4.01732 3.75696 4.10903 3.69412 4.18595 3.61538C4.26287 3.53664 4.32348 3.44355 4.36433 3.34142C4.40518 3.23929 4.42546 3.13013 4.42402 3.02018C4.42429 2.91021 4.40256 2.80129 4.3601 2.69982C4.31763 2.59834 4.25529 2.50635 4.17673 2.42923C4.09817 2.35212 4.00497 2.29143 3.9026 2.25073C3.80023 2.21003 3.69074 2.19014 3.58056 2.19222V2.19459Z" fill="#662E93"/>
<path d="M5.6039 5.24328C5.38437 5.24944 4.87021 4.75248 4.89112 4.58699C4.89831 4.54207 4.91468 4.49911 4.9392 4.46077C4.96373 4.42243 4.99588 4.38953 5.03368 4.36411C5.10211 4.3276 5.23706 4.32997 5.29456 4.37597C5.46538 4.51293 5.62117 4.6676 5.75929 4.83736C5.80681 4.89427 5.80681 5.02467 5.77307 5.09723C5.73933 5.16978 5.64144 5.21341 5.6039 5.24328Z" fill="#B07FD8"/>
<path d="M1.57238 0.810303C1.80428 0.810303 2.30085 1.29826 2.28041 1.46755C2.27139 1.54437 2.21674 1.65485 2.15591 1.67667C2.06896 1.70844 1.92925 1.70986 1.86177 1.65912C1.69793 1.53332 1.55114 1.38683 1.42508 1.22333C1.37756 1.16121 1.37756 1.02796 1.40702 0.94877C1.43601 0.87764 1.53912 0.838755 1.57238 0.810303Z" fill="#B07FD8"/>
<path d="M3.85185 0.551603C3.85185 0.640279 3.85613 0.729429 3.85185 0.81763C3.84282 0.97459 3.73876 1.08176 3.59525 1.07986C3.44367 1.07749 3.33912 0.993558 3.32772 0.846556C3.31109 0.640296 3.31109 0.433036 3.32772 0.226776C3.34055 0.080722 3.44842 -0.00747909 3.59905 0.00105652C3.63203 0.000415736 3.66481 0.00641049 3.69542 0.0186827C3.72603 0.030955 3.75385 0.0492533 3.77722 0.0724869C3.80059 0.0957205 3.81903 0.123413 3.83145 0.153913C3.84386 0.184413 3.84999 0.217096 3.84948 0.250012C3.85708 0.350068 3.85138 0.451073 3.85185 0.551603Z" fill="#B07FD8"/>
<path d="M3.85189 5.51066C3.85189 5.6055 3.85664 5.70034 3.85189 5.79518C3.84238 5.94598 3.76018 6.03703 3.60764 6.04841C3.45511 6.05979 3.34439 5.9768 3.33108 5.8317C3.31184 5.61985 3.31184 5.4067 3.33108 5.19485C3.34439 5.05259 3.45226 4.96486 3.60574 4.97577C3.75923 4.98667 3.84333 5.07724 3.85189 5.22804C3.85712 5.32098 3.85189 5.41582 3.85189 5.51066Z" fill="#B07FD8"/>
<path d="M5.11635 1.74228C5.05791 1.69486 4.95431 1.65218 4.92628 1.57963C4.89824 1.50708 4.90252 1.36908 4.95146 1.30602C5.08271 1.14587 5.22841 0.998092 5.38674 0.864534C5.48557 0.777282 5.60865 0.784395 5.71224 0.871173C5.81583 0.957952 5.85955 1.08409 5.77639 1.18604C5.62211 1.36455 5.45724 1.53367 5.28267 1.69249C5.25273 1.71952 5.19476 1.71952 5.11635 1.74228Z" fill="#B07FD8"/>
<path d="M1.10912 2.76453C1.20415 2.76453 1.29919 2.75931 1.39423 2.76453C1.45778 2.76451 1.51881 2.78931 1.56428 2.83361C1.60975 2.87792 1.63604 2.93822 1.63752 3.00163C1.65083 3.14389 1.58003 3.26196 1.4408 3.27429C1.21194 3.29563 0.981584 3.29563 0.752726 3.27429C0.613021 3.26101 0.54792 3.14009 0.562651 2.99783C0.563324 2.96645 0.570237 2.93551 0.582987 2.90681C0.595737 2.87811 0.614071 2.85223 0.636925 2.83066C0.659779 2.80908 0.686698 2.79226 0.716121 2.78115C0.745543 2.77004 0.776883 2.76487 0.808322 2.76595C0.907637 2.75978 1.00838 2.76453 1.10912 2.76453Z" fill="#B07FD8"/>
<path d="M6.09664 2.76411C6.1855 2.76411 6.27436 2.76127 6.36322 2.76411C6.39618 2.76278 6.42907 2.76807 6.45994 2.77966C6.4908 2.79126 6.51902 2.80893 6.54291 2.83162C6.5668 2.85431 6.58588 2.88156 6.59901 2.91175C6.61214 2.94195 6.61906 2.97447 6.61935 3.00738C6.63123 3.14679 6.5552 3.26439 6.41549 3.27672C6.19194 3.29593 5.96714 3.29593 5.74358 3.27672C5.60387 3.26439 5.52832 3.14727 5.53925 3.00785C5.53929 2.9749 5.54599 2.9423 5.55896 2.912C5.57193 2.8817 5.5909 2.85433 5.61473 2.83152C5.63856 2.80872 5.66676 2.79095 5.69764 2.77929C5.72851 2.76762 5.76144 2.7623 5.79442 2.76364C5.89516 2.76127 5.9959 2.76411 6.09664 2.76411Z" fill="#B07FD8"/>
<path d="M2.3118 4.56607C2.27284 4.65379 2.26096 4.71734 2.22389 4.75575C2.09179 4.89801 1.95589 5.04027 1.81191 5.16972C1.75869 5.21282 1.69169 5.23534 1.62318 5.23317C1.55468 5.23099 1.48925 5.20426 1.43888 5.15787C1.33577 5.05829 1.33197 4.9146 1.44316 4.79368C1.56573 4.65023 1.70125 4.51832 1.84802 4.39962C1.89079 4.37318 1.93866 4.35601 1.98852 4.34923C2.03838 4.34245 2.0891 4.34621 2.13741 4.36026C2.21201 4.38777 2.25763 4.49826 2.3118 4.56607Z" fill="#B07FD8"/>
</g>
<defs>
<clipPath id="clip0_224_339">
<rect width="18.2472" height="16" fill="white"/>
</clipPath>
</defs>
</svg>
