<svg width="16" height="16" viewBox="0 0 16 16" fill="none" xmlns="http://www.w3.org/2000/svg">
<g clip-path="url(#clip0_245_189)">
<path d="M-2.12987e-05 8.8437C0.018312 8.8137 0.0378954 8.78453 0.0549787 8.75411C0.102331 8.66157 0.179255 8.5875 0.273526 8.54368C0.367798 8.49986 0.474009 8.48881 0.575284 8.51227C0.676559 8.53573 0.767087 8.59237 0.832485 8.67318C0.897883 8.75399 0.934398 8.85434 0.936229 8.95828C0.940395 9.0462 0.936229 9.13495 0.936229 9.2237V9.49245C1.38873 9.58328 1.70831 9.89453 2.05331 10.1666C2.22357 10.3026 2.43473 10.3772 2.65264 10.3784C2.87055 10.3795 3.08248 10.3071 3.25415 10.1729C3.4704 10.0108 3.66748 9.81578 3.90165 9.68703C4.58998 9.3087 5.27664 9.33995 5.93456 9.7762C6.09873 9.88495 6.24373 10.0224 6.39831 10.1454C6.78664 10.4533 7.2704 10.4533 7.6629 10.1487C7.86373 9.99245 8.05123 9.81036 8.27164 9.69036C8.95998 9.3112 9.64664 9.34078 10.3054 9.7737C10.4654 9.8787 10.6075 10.012 10.7575 10.1324C11.165 10.4595 11.6462 10.4554 12.0591 10.1324C12.2919 9.95078 12.5318 9.77842 12.7787 9.61536C12.8762 9.5512 12.9987 9.52495 13.125 9.47578C13.125 9.31953 13.1229 9.1537 13.125 8.98786C13.1291 8.70828 13.3246 8.50203 13.5862 8.49786C13.8479 8.4937 14.0604 8.70245 14.0612 8.98953C14.0637 9.75453 14.0612 10.5195 14.0612 11.3099H14.4008C15.2933 11.3099 15.74 11.6454 15.9862 12.4999C15.9898 12.5098 15.994 12.5194 15.9987 12.5287V12.8412C15.9783 12.8754 15.9571 12.9095 15.9371 12.9441C15.8885 13.0309 15.8136 13.0999 15.7232 13.1413C15.6328 13.1827 15.5316 13.1944 15.4341 13.1745C15.2208 13.1249 15.0808 12.9579 15.0616 12.7304C15.0396 12.4729 14.9112 12.2904 14.6866 12.2624C14.4841 12.2374 14.2762 12.257 14.0616 12.257V12.4387C14.0616 13.1608 14.0658 13.8833 14.0596 14.6054C14.0582 14.8937 13.9677 15.1745 13.8003 15.4093C13.633 15.6441 13.3971 15.8213 13.125 15.9166C13.0329 15.9491 12.9371 15.972 12.8429 15.9999H1.2179C1.17831 15.9883 1.13956 15.9758 1.09956 15.9658C0.586506 15.8341 0.242062 15.5187 0.0662286 15.0195C0.0391452 14.9416 0.0212288 14.8608 -0.000854492 14.7812L-2.12987e-05 8.8437ZM13.125 10.4749C12.905 10.6512 12.7246 10.8083 12.5321 10.9487C12.2086 11.1856 11.8186 11.3144 11.4177 11.3167C11.0168 11.319 10.6253 11.1948 10.2991 10.9616C10.1471 10.8529 10.0075 10.7262 9.86081 10.6095C9.45831 10.2899 8.97248 10.2916 8.57206 10.6133C8.4179 10.7383 8.26998 10.8699 8.10789 10.9829C7.79055 11.2008 7.41449 11.3172 7.02952 11.3167C6.64455 11.3162 6.26882 11.1987 5.95206 10.9799C5.79081 10.8666 5.64248 10.7341 5.4879 10.6112C5.08498 10.2908 4.59873 10.2908 4.19915 10.6112C4.09373 10.6945 3.99081 10.7849 3.88665 10.8708C3.36873 11.2933 2.78081 11.4008 2.13998 11.2458C1.77956 11.1591 1.49665 10.937 1.22331 10.7016C1.13998 10.6299 1.04831 10.5666 0.938312 10.4824V14.5016C0.938312 14.8862 1.11498 15.0612 1.50373 15.0612H12.5633C12.9483 15.0612 13.125 14.8845 13.125 14.4983V10.4749Z" fill="#B07FD8"/>
<path d="M5.4375 0C5.58875 0.03625 5.7425 0.0633331 5.89042 0.110416C6.4825 0.29875 6.9275 0.67125 7.23667 1.20792C7.2575 1.24375 7.27833 1.27958 7.29917 1.315C7.30125 1.31875 7.30792 1.32 7.32458 1.32833C7.57833 1.145 7.86 1.00583 8.18125 0.963333C8.95042 0.861667 9.55625 1.13708 10.0092 1.76042C10.0327 1.7989 10.0664 1.83018 10.1065 1.85082C10.1466 1.87147 10.1917 1.8807 10.2367 1.8775C10.6892 1.88125 11.1467 1.85417 11.5929 1.91125C12.4904 2.02667 13.1592 2.84417 13.1562 3.75917C13.1529 4.66667 12.4792 5.45833 11.5908 5.59583C11.4831 5.61366 11.3742 5.623 11.265 5.62375C8.46305 5.62542 5.66097 5.62542 2.85875 5.62375C2.60674 5.62576 2.35692 5.57694 2.1242 5.48022C1.89149 5.3835 1.68066 5.24086 1.50431 5.06082C1.32797 4.88078 1.18973 4.66704 1.09785 4.43237C1.00598 4.1977 0.962351 3.94691 0.969583 3.695C0.987083 2.74208 1.78167 1.92333 2.73333 1.87708C2.78 1.87458 2.82667 1.87708 2.86292 1.87708C2.95333 1.65542 3.01958 1.435 3.12833 1.23792C3.50333 0.556667 4.07958 0.151667 4.84958 0.0275002C4.87948 0.0203613 4.90886 0.0111728 4.9375 0H5.4375ZM7.04667 4.6875C8.4475 4.6875 9.84819 4.6875 11.2487 4.6875C11.7983 4.6875 12.2158 4.28167 12.2183 3.75583C12.2204 3.2225 11.8017 2.81583 11.2433 2.81375C10.7747 2.81208 10.3061 2.81208 9.8375 2.81375C9.59625 2.81375 9.43417 2.70875 9.34042 2.48542C9.1775 2.09708 8.88458 1.87667 8.46083 1.87958C8.04417 1.8825 7.75917 2.10375 7.59583 2.485C7.485 2.74417 7.27458 2.85583 6.9925 2.80792C6.75125 2.76625 6.615 2.58083 6.58875 2.30792C6.57592 2.13117 6.53731 1.95725 6.47417 1.79167C6.22167 1.17833 5.58125 0.844167 4.92333 0.964167C4.61116 1.024 4.32846 1.1878 4.12129 1.42886C3.91412 1.66993 3.79471 1.97405 3.7825 2.29167C3.76833 2.64 3.58958 2.81208 3.24083 2.81333C3.095 2.81333 2.94917 2.80958 2.80333 2.81333C2.56405 2.82395 2.33789 2.92566 2.17118 3.09764C2.00447 3.26962 1.90983 3.49884 1.90667 3.73833C1.90208 4.26625 2.3175 4.68458 2.86 4.68583C4.25556 4.68889 5.65111 4.68944 7.04667 4.6875Z" fill="#B07FD8"/>
<path d="M15.4063 15.9999C15.1367 15.8749 15.04 15.6629 15.0592 15.3724C15.075 15.1399 15.0621 14.9054 15.0625 14.6716C15.0625 14.3799 15.1933 14.1908 15.4375 14.1349C15.6583 14.0837 15.85 14.1958 15.9792 14.4504C15.9833 14.4583 15.9942 14.4629 16.0021 14.4687V15.6562C15.9308 15.8071 15.8093 15.9286 15.6583 15.9999H15.4063Z" fill="#662E93"/>
<path d="M2.84376 7.51676C2.84376 7.37134 2.84168 7.22509 2.84376 7.08051C2.84876 6.80301 3.04626 6.59718 3.30709 6.59426C3.36963 6.59364 3.43166 6.60556 3.48952 6.62932C3.54737 6.65308 3.59987 6.6882 3.64392 6.7326C3.68797 6.777 3.72268 6.82978 3.74598 6.88782C3.76928 6.94586 3.78071 7.00798 3.77959 7.07051C3.78432 7.37607 3.78432 7.68246 3.77959 7.98968C3.77584 8.26551 3.57126 8.47009 3.30918 8.46843C3.04709 8.46676 2.85084 8.26009 2.84418 7.98384C2.84168 7.82843 2.84376 7.67259 2.84376 7.51676Z" fill="#662E93"/>
<path d="M5.65581 7.54172C5.65581 7.69255 5.65914 7.84296 5.65581 7.99338C5.64831 8.26671 5.43997 8.4713 5.17956 8.46672C5.05607 8.46409 4.93863 8.41279 4.85278 8.32398C4.76694 8.23517 4.71966 8.11605 4.72122 7.99255C4.71664 7.68088 4.71581 7.36755 4.72122 7.05755C4.72485 6.93603 4.77568 6.8207 4.86292 6.73603C4.95015 6.65136 5.06694 6.604 5.18852 6.604C5.31009 6.604 5.42688 6.65136 5.51412 6.73603C5.60136 6.8207 5.65218 6.93603 5.65581 7.05755C5.65998 7.2213 5.65581 7.38255 5.65581 7.54172Z" fill="#662E93"/>
<path d="M7.53083 7.5474C7.53083 7.69282 7.53333 7.83907 7.53083 7.98365C7.52541 8.26073 7.32666 8.46615 7.06583 8.46823C6.80499 8.47032 6.59916 8.2649 6.59541 7.9899C6.59124 7.68434 6.59124 7.37796 6.59541 7.07073C6.595 7.00934 6.60668 6.94847 6.6298 6.89159C6.65291 6.83471 6.68701 6.78295 6.73013 6.73925C6.77325 6.69554 6.82456 6.66076 6.88112 6.63689C6.93768 6.61302 6.99839 6.60052 7.05978 6.60011C7.12118 6.5997 7.18205 6.61138 7.23893 6.6345C7.2958 6.65761 7.34757 6.6917 7.39127 6.73483C7.43497 6.77795 7.46975 6.82925 7.49363 6.88582C7.5175 6.94238 7.53 7.00309 7.53041 7.06448C7.53458 7.22532 7.53083 7.38615 7.53083 7.5474Z" fill="#662E93"/>
<path d="M9.40585 7.54382C9.40585 7.69466 9.4096 7.84549 9.40585 7.99591C9.39793 8.26882 9.1896 8.47341 8.92877 8.46841C8.80514 8.46578 8.68756 8.41436 8.6017 8.32538C8.51583 8.23639 8.46865 8.11705 8.47044 7.99341C8.46599 7.68785 8.46599 7.38146 8.47044 7.07424C8.47377 6.79882 8.67877 6.59341 8.93919 6.59424C9.1996 6.59507 9.40043 6.80007 9.40585 7.07674C9.40877 7.23257 9.40627 7.38841 9.40585 7.54382Z" fill="#662E93"/>
<path d="M11.2808 7.5305C11.2808 7.68634 11.2846 7.84217 11.2808 7.998C11.2804 8.0594 11.2679 8.1201 11.244 8.17665C11.2201 8.23321 11.1853 8.2845 11.1416 8.3276C11.0978 8.3707 11.0461 8.40477 10.9892 8.42786C10.9323 8.45095 10.8714 8.46261 10.81 8.46217C10.7486 8.46173 10.6879 8.44921 10.6314 8.42531C10.5748 8.40141 10.5235 8.36661 10.4804 8.32289C10.4373 8.27916 10.4032 8.22738 10.3801 8.1705C10.3571 8.11361 10.3454 8.05273 10.3458 7.99134C10.3417 7.68578 10.3417 7.37939 10.3458 7.07217C10.3496 6.79759 10.5542 6.59217 10.8167 6.59425C11.0792 6.59634 11.275 6.80259 11.2813 7.07884C11.2833 7.22925 11.2813 7.38009 11.2808 7.5305Z" fill="#662E93"/>
</g>
<defs>
<clipPath id="clip0_245_189">
<rect width="16" height="16" fill="white"/>
</clipPath>
</defs>
</svg>
