<svg width="16" height="16" viewBox="0 0 16 16" fill="none" xmlns="http://www.w3.org/2000/svg">
<g clip-path="url(#clip0_184_153)">
<path d="M12.5151 14.4069H6.66734C6.66734 14.7401 6.66734 15.0661 6.66734 15.3917C6.66734 15.7889 6.45766 15.9981 6.06142 15.999C5.57277 15.999 5.08413 15.999 4.59548 15.999C4.22056 15.999 4.00422 15.7835 4.002 15.4131C4.002 15.2585 4.002 15.1021 4.002 14.9413H4.52796V15.4553H6.12716V14.3985H5.95347C5.4093 14.3985 4.86513 14.3985 4.32095 14.3985C3.65729 14.3985 3.20507 13.9422 3.20374 13.2759C3.20374 12.6318 3.20374 11.9875 3.20374 11.3431C3.20596 10.7239 3.59065 10.257 4.19791 10.1517C4.31562 10.1313 4.36404 10.0846 4.39914 9.978C4.73008 8.97184 5.06547 7.9679 5.40041 6.96306C5.59276 6.38558 5.94414 6.13281 6.55539 6.13281H12.6488C13.256 6.13281 13.6061 6.38735 13.7998 6.96839C14.1341 7.97293 14.468 8.97776 14.8015 9.98289C14.8344 10.0819 14.8761 10.1295 14.9898 10.1486C15.6055 10.2525 15.9929 10.7203 15.9956 11.348C15.9978 11.9424 15.9818 12.5372 16 13.1306C16.0178 13.7348 15.7908 14.1621 15.196 14.3745C15.196 14.7125 15.196 15.0506 15.196 15.3882C15.196 15.788 14.9881 15.9985 14.594 15.9994C14.0998 15.9994 13.6055 15.9994 13.1112 15.9994C12.7496 15.9994 12.5337 15.7795 12.5306 15.4179C12.5306 15.0954 12.5306 14.7734 12.528 14.4513C12.5254 14.4361 12.521 14.4212 12.5151 14.4069ZM9.59032 13.8654C11.35 13.8654 13.1097 13.8654 14.8695 13.8654C15.2453 13.8654 15.4616 13.6517 15.4625 13.279C15.4625 12.6408 15.4625 12.0023 15.4625 11.3635C15.4625 10.9326 15.196 10.6665 14.7677 10.6665C11.32 10.6665 7.87251 10.6665 4.42535 10.6665C3.99623 10.6665 3.73369 10.9331 3.7328 11.3653C3.7328 11.9819 3.7328 12.5983 3.7328 13.2146C3.7328 13.6682 3.92826 13.8658 4.37737 13.8658L9.59032 13.8654ZM14.2831 10.1286C14.2675 10.0713 14.2582 10.0286 14.2444 9.98733C14.0094 9.28279 13.7713 8.5787 13.5417 7.87239C13.5066 7.76444 13.4613 7.72935 13.3462 7.72935C10.8476 7.73349 8.34887 7.73349 5.84997 7.72935C5.73536 7.72935 5.68916 7.76266 5.65362 7.8715C5.4244 8.57781 5.1863 9.28146 4.95175 9.98644C4.93709 10.0309 4.92909 10.0753 4.91666 10.1281L14.2831 10.1286ZM5.90416 7.19184H13.2911C13.2467 6.85778 13.0464 6.66766 12.7292 6.66721C10.6419 6.66544 8.5541 6.66544 6.46566 6.66721C6.14893 6.66899 5.94947 6.85689 5.90416 7.19184ZM14.6553 14.4109H13.0766V15.457H14.6553V14.4109Z" fill="#B07FD8"/>
<path d="M9.06613 5.59229H8.53306V1.15806C8.53306 0.738718 8.32827 0.533487 7.91115 0.533487H1.1452C0.7414 0.533487 0.533504 0.743604 0.533504 1.1514V7.91735C0.533504 8.32382 0.741845 8.5326 1.14786 8.5326C2.03068 8.5326 2.91365 8.5326 3.79676 8.5326H3.98822V9.06567H3.8243C2.93053 9.06567 2.03646 9.06567 1.14209 9.06567C0.4531 9.06567 0.00221424 8.61744 0.00177002 7.93201C0.00177002 5.66618 0.00177002 3.40065 0.00177002 1.13541C0.00177002 0.44864 0.451767 0.00219727 1.14164 0.00219727H7.92137C8.61924 0.00219727 9.0639 0.44642 9.06435 1.14918C9.06435 2.57069 9.06435 3.9922 9.06435 5.41371L9.06613 5.59229Z" fill="#B07FD8"/>
<path d="M3.73279 5.86644C3.73279 6.46392 3.73279 7.04052 3.73279 7.61712C3.73279 7.92186 3.65505 7.9996 3.34898 7.9996C2.87722 7.9996 2.40531 7.9996 1.93325 7.9996C1.6947 7.9996 1.60097 7.90587 1.60052 7.66643C1.60052 5.57859 1.60052 3.49074 1.60052 1.4029C1.60052 1.16169 1.69292 1.06751 1.93058 1.06707C2.98561 1.06707 4.04019 1.06174 5.09478 1.06707C5.6952 1.08014 6.26887 1.31795 6.70244 1.73351C7.136 2.14907 7.39792 2.71215 7.43643 3.31147C7.47495 3.9108 7.28725 4.50277 6.91043 4.9704C6.53362 5.43804 5.9951 5.74732 5.40129 5.83713C5.26384 5.85474 5.1254 5.8635 4.98683 5.86333C4.57637 5.86955 4.16591 5.86644 3.73279 5.86644ZM3.19973 7.45987C3.19973 6.86594 3.19973 6.2889 3.19973 5.71186C3.19973 5.41378 3.27835 5.33382 3.57065 5.33338C4.09839 5.33338 4.62612 5.34404 5.15342 5.3276C6.10805 5.29873 6.89699 4.49913 6.93031 3.54583C6.94143 3.29418 6.90136 3.04289 6.81254 2.80717C6.72372 2.57145 6.58799 2.35621 6.41356 2.17448C6.23914 1.99274 6.02965 1.8483 5.79777 1.74988C5.5659 1.65146 5.31647 1.60112 5.06457 1.60191C4.13703 1.5948 3.2095 1.60191 2.28241 1.60191C2.23487 1.60191 2.18734 1.60813 2.14514 1.61124V7.45987H3.19973Z" fill="#662E93"/>
<path d="M6.93878 11.9873V11.4751H12.2557V11.9873H6.93878Z" fill="#662E93"/>
<path d="M6.93921 13.0544V12.5417H12.2557V13.0544H6.93921Z" fill="#662E93"/>
<path d="M5.328 13.3325C5.11662 13.3316 4.91025 13.268 4.73511 13.1496C4.55998 13.0313 4.42399 12.8635 4.34441 12.6677C4.26484 12.4718 4.24528 12.2568 4.28822 12.0498C4.33115 11.8428 4.43465 11.6533 4.58556 11.5052C4.73646 11.3572 4.92797 11.2574 5.13573 11.2184C5.3435 11.1795 5.55815 11.2032 5.75242 11.2865C5.94669 11.3699 6.1118 11.5091 6.22677 11.6865C6.34174 11.8638 6.40139 12.0714 6.39813 12.2828C6.39323 12.5632 6.27827 12.8304 6.07806 13.0268C5.87785 13.2232 5.60845 13.333 5.328 13.3325ZM5.86462 12.2721C5.86594 12.1664 5.83581 12.0627 5.77804 11.9741C5.72028 11.8856 5.63749 11.8163 5.54021 11.7749C5.44293 11.7335 5.33554 11.722 5.2317 11.7418C5.12786 11.7616 5.03226 11.8119 4.95704 11.8861C4.88182 11.9604 4.83038 12.0554 4.80927 12.159C4.78816 12.2625 4.79832 12.3701 4.83846 12.4679C4.8786 12.5657 4.94692 12.6493 5.03472 12.7082C5.12252 12.7671 5.22584 12.7985 5.33155 12.7985C5.47178 12.7985 5.60637 12.7433 5.70615 12.6447C5.80593 12.5462 5.86287 12.4123 5.86462 12.2721Z" fill="#662E93"/>
<path d="M13.8557 13.3324C13.6444 13.3308 13.4383 13.2664 13.2637 13.1474C13.089 13.0284 12.9536 12.8602 12.8748 12.6641C12.7959 12.468 12.7771 12.253 12.8208 12.0462C12.8644 11.8394 12.9685 11.6502 13.1199 11.5027C13.2713 11.3552 13.4631 11.2561 13.6709 11.2178C13.8788 11.1796 14.0933 11.2039 14.2873 11.2879C14.4812 11.3718 14.6459 11.5115 14.7603 11.6891C14.8747 11.8668 14.9337 12.0745 14.9299 12.2858C14.9247 12.5666 14.8091 12.834 14.6079 13.0299C14.4068 13.2259 14.1365 13.3346 13.8557 13.3324ZM14.3968 12.273C14.3981 12.1674 14.3681 12.0638 14.3105 11.9754C14.2529 11.8869 14.1703 11.8176 14.0732 11.7761C13.9761 11.7346 13.8689 11.7229 13.7652 11.7424C13.6615 11.762 13.5658 11.8118 13.4905 11.8858C13.4151 11.9597 13.3634 12.0543 13.3419 12.1577C13.3204 12.261 13.33 12.3684 13.3696 12.4663C13.4092 12.5641 13.477 12.648 13.5643 12.7073C13.6517 12.7666 13.7546 12.7987 13.8602 12.7994C14.001 12.8003 14.1365 12.7455 14.2371 12.6469C14.3376 12.5482 14.3951 12.4138 14.3968 12.273Z" fill="#662E93"/>
<path d="M4.30406 2.66673C4.55372 2.66673 4.80381 2.66673 5.05347 2.66673C5.51057 2.6725 5.86373 3.02211 5.86462 3.46366C5.86462 3.56923 5.84372 3.67375 5.80312 3.7712C5.76252 3.86865 5.70302 3.9571 5.62807 4.03143C5.55311 4.10577 5.46417 4.16453 5.36639 4.20432C5.26861 4.24411 5.16392 4.26414 5.05835 4.26326C4.54217 4.26771 4.02598 4.26593 3.50979 4.26326C3.30145 4.26326 3.20195 4.16376 3.19884 3.95764C3.19617 3.6301 3.19617 3.30256 3.19884 2.97502C3.19884 2.76001 3.29923 2.66628 3.52001 2.66406C3.7821 2.6654 4.0433 2.66673 4.30406 2.66673ZM3.74567 3.19979V3.73286C4.1899 3.73286 4.62168 3.73597 5.05302 3.73286C5.22094 3.73286 5.33288 3.61514 5.33066 3.46633C5.33085 3.43154 5.32405 3.39707 5.31065 3.36497C5.29725 3.33287 5.27753 3.30379 5.25266 3.27946C5.22779 3.25513 5.19829 3.23605 5.1659 3.22336C5.13351 3.21067 5.0989 3.20462 5.06413 3.20557C4.62701 3.19757 4.19034 3.20068 3.74567 3.20068V3.19979Z" fill="#662E93"/>
</g>
<defs>
<clipPath id="clip0_184_153">
<rect width="16.0009" height="16" fill="white"/>
</clipPath>
</defs>
</svg>
