<svg width="17" height="16" viewBox="0 0 17 16" fill="none" xmlns="http://www.w3.org/2000/svg">
<g clip-path="url(#clip0_220_271)">
<path d="M16.2064 15.8502C16.122 15.9481 16.035 16.0405 15.8861 15.9818C15.7371 15.9232 15.7303 15.8012 15.7307 15.6683C15.7324 14.6925 15.7324 13.7166 15.7307 12.7406V12.5583H14.2806V15.6392C14.2826 15.6918 14.2812 15.7445 14.2764 15.797C14.2726 15.8509 14.2489 15.9015 14.2099 15.9388C14.1709 15.9762 14.1194 15.9977 14.0654 15.9992C14.0121 16.0081 13.9575 15.9964 13.9127 15.9663C13.8679 15.9363 13.8363 15.8902 13.8244 15.8375C13.8086 15.7712 13.802 15.703 13.805 15.6349C13.805 13.2293 13.805 10.8237 13.805 8.41803V8.20405H0.474796V15.5573C0.474796 15.594 0.474796 15.6311 0.474796 15.6678C0.480283 15.8012 0.465511 15.9236 0.319485 15.9814C0.173459 16.0392 0.0844082 15.9485 0 15.8502V5.78449C0.0747013 5.65788 0.186542 5.62032 0.332146 5.62243C0.796392 5.6296 1.26064 5.62496 1.74092 5.62496C1.7443 5.56208 1.74978 5.50679 1.74978 5.4515C1.74978 4.90285 1.74978 4.35419 1.74978 3.80554C1.74978 3.32357 2.01356 3.05811 2.49046 3.05768C3.87223 3.05768 5.25399 3.05768 6.63575 3.05768C7.11561 3.05768 7.37559 3.32061 7.37643 3.80216C7.37643 4.10266 7.37643 4.40357 7.37643 4.70407C7.37643 4.87795 7.28781 4.98472 7.14811 4.98894C7.00841 4.99316 6.90417 4.88217 6.9029 4.7028C6.90079 4.39682 6.9029 4.09084 6.9029 3.78486C6.9029 3.58945 6.84508 3.53164 6.64673 3.53164C5.2599 3.53164 3.87293 3.53164 2.48582 3.53164C2.34613 3.53164 2.2326 3.56878 2.2326 3.7224C2.22627 4.34913 2.23007 4.97586 2.23007 5.61356H10.3252V5.05225H10.1488C9.76392 5.05225 9.3786 5.05225 8.9937 5.05225C8.80926 5.05225 8.66661 4.96784 8.60035 4.78932C8.56782 4.71319 8.56085 4.62856 8.58048 4.54813C8.60011 4.4677 8.64529 4.3958 8.70924 4.34322C9.24045 3.86125 9.77321 3.38111 10.3075 2.90279C10.3792 2.8337 10.4749 2.79526 10.5745 2.79566C10.674 2.79605 10.7695 2.83524 10.8405 2.9049C11.3765 3.38139 11.9075 3.86336 12.4388 4.34533C12.5024 4.39835 12.5471 4.4706 12.5661 4.5512C12.5852 4.6318 12.5775 4.7164 12.5443 4.79227C12.4768 4.9708 12.3333 5.05098 12.1485 5.05267C11.7686 5.05563 11.3888 5.05267 11.0089 5.05267H10.8237V5.62496H13.4783C14.0054 5.62496 14.2802 5.89633 14.2802 6.42008C14.2802 7.78075 14.2802 9.14141 14.2802 10.5021V10.7076C14.3405 10.711 14.3912 10.7156 14.4414 10.716C14.7368 10.716 15.0323 10.7291 15.3277 10.7131C15.7704 10.6886 16.0696 10.8612 16.2064 11.2917V15.8502ZM0.485769 6.10524V7.70478H1.73796V6.10524H0.485769ZM2.2364 6.10524V7.70478H3.46032V6.10482L2.2364 6.10524ZM10.3261 6.10988H9.10216V7.70773H10.3261V6.10988ZM12.5422 6.10102V7.70478H13.805C13.805 7.24053 13.805 6.78726 13.805 6.33399C13.805 6.19007 13.7206 6.1044 13.5788 6.10229C13.2356 6.0968 12.8934 6.10102 12.5422 6.10102ZM5.17971 7.70815V6.11326H3.95579V7.70815H5.17971ZM6.89615 6.11031H5.67223V7.70478H6.89615V6.11031ZM8.60964 6.11031H7.38825V7.70478H8.60964V6.11031ZM12.0429 7.709V6.11031H10.8232V7.71069L12.0429 7.709ZM9.16589 4.5669H11.9813L10.573 3.29614L9.16589 4.5669ZM15.7312 12.0581C15.7312 11.842 15.7354 11.6361 15.7312 11.4314C15.7265 11.2774 15.6366 11.1955 15.4754 11.1925C15.2382 11.1887 15.001 11.1925 14.7638 11.1925H14.2878V12.0594L15.7312 12.0581Z" fill="#B07FD8"/>
<path d="M13.81 2.87243C13.274 2.84627 12.857 2.62132 12.576 2.16172C12.4734 1.9929 12.4916 1.85321 12.622 1.77513C12.7524 1.69705 12.8752 1.74474 12.982 1.91651C13.2213 2.30226 13.6479 2.47487 14.0713 2.35712C14.222 2.31414 14.3599 2.23486 14.473 2.12623C14.586 2.0176 14.6707 1.88293 14.7196 1.73399C14.7685 1.58505 14.7802 1.42639 14.7536 1.2719C14.7271 1.1174 14.663 0.971772 14.5671 0.847757C14.4712 0.723743 14.3464 0.62512 14.2035 0.560519C14.0607 0.495918 13.9042 0.467308 13.7478 0.477193C13.5913 0.487077 13.4396 0.535154 13.3061 0.617218C13.1725 0.699281 13.0611 0.812829 12.9815 0.947927C12.9393 1.0163 12.8803 1.10535 12.8127 1.12054C12.7351 1.13785 12.6068 1.11168 12.5641 1.05555C12.5397 1.01542 12.5246 0.97023 12.5202 0.923422C12.5159 0.876614 12.5222 0.829422 12.5388 0.785441C12.6281 0.590089 12.7637 0.419439 12.9338 0.288252C13.1039 0.157064 13.3034 0.0692893 13.515 0.0325199C14.0924 -0.078899 14.584 0.097936 14.9428 0.566402C15.3015 1.03487 15.3462 1.54638 15.0888 2.06845C14.8314 2.59051 14.3848 2.84331 13.81 2.87243Z" fill="#662E93"/>
<path d="M3.62704 4.136C3.82202 4.136 4.01743 4.136 4.21241 4.136C4.38123 4.136 4.48927 4.23434 4.48589 4.37572C4.48209 4.50951 4.37701 4.60742 4.2179 4.60869C3.81724 4.61207 3.41658 4.61207 3.01592 4.60869C2.85513 4.60869 2.75468 4.51078 2.75299 4.37361C2.75299 4.22885 2.85344 4.13769 3.02605 4.136C3.22652 4.13432 3.42699 4.136 3.62704 4.136Z" fill="#662E93"/>
<path d="M2.68716 11.4238C2.66352 11.4061 2.65972 11.401 2.65508 11.4006C2.23684 11.3516 2.23684 11.3516 2.23684 10.919C2.23684 10.6397 2.23473 10.3598 2.23684 10.0804C2.23684 9.86943 2.31449 9.79515 2.52551 9.79472C3.56458 9.79303 4.60365 9.79303 5.64271 9.79472C5.8588 9.79472 5.93814 9.87576 5.94152 10.0902C5.94405 10.4067 5.94152 10.7232 5.94152 11.0397C5.94152 11.3221 5.88032 11.385 5.60388 11.3926C5.57307 11.3926 5.54184 11.3976 5.48824 11.4023V11.5897C5.48824 12.5182 5.48824 13.4466 5.48824 14.3751C5.48824 14.6735 5.4262 14.7347 5.12529 14.7347C4.43427 14.7347 3.74338 14.7347 3.05264 14.7347C2.74455 14.7347 2.68716 14.6761 2.68716 14.3629V11.4238ZM5.00838 11.404H3.17082V12.8959H5.0088L5.00838 11.404ZM5.4587 10.2792H2.7243V10.9102H5.4587V10.2792ZM3.16744 14.2506H5.00416V13.3922H3.16744V14.2506Z" fill="#662E93"/>
<path d="M9.27353 12.8989H11.1174V11.3931H10.9389C10.1846 11.3931 9.43039 11.3931 8.67635 11.3931C8.41848 11.3931 8.35137 11.3243 8.35095 11.0639C8.35095 10.7372 8.35095 10.4101 8.35095 10.083C8.35095 9.87456 8.42819 9.79563 8.6371 9.79521C9.68179 9.79352 10.7261 9.79352 11.7699 9.79521C11.9725 9.79521 12.0535 9.87962 12.0552 10.0881C12.0573 10.4046 12.0552 10.7212 12.0552 11.0377C12.0552 11.3251 11.9974 11.3834 11.7041 11.3935C11.6783 11.3935 11.653 11.3973 11.6045 11.4011V11.5906C11.6045 12.5137 11.6045 13.4367 11.6045 14.3596C11.6045 14.6719 11.5433 14.7344 11.2377 14.7344C10.5363 14.7344 9.83485 14.7344 9.13342 14.7344C8.8688 14.7344 8.79832 14.6618 8.79832 14.3942C8.79832 13.7189 8.79832 13.0437 8.79832 12.3684C8.79832 12.3367 8.79832 12.3051 8.79832 12.2734C8.80802 12.1278 8.90636 12.0278 9.03677 12.0295C9.16718 12.0312 9.26678 12.1316 9.27058 12.2789C9.27733 12.4832 9.27353 12.6875 9.27353 12.8989ZM11.5724 10.2793H8.83419V10.9064H11.5724V10.2793ZM11.1208 14.2507V13.3893H9.28197V14.2507H11.1208Z" fill="#662E93"/>
</g>
<defs>
<clipPath id="clip0_220_271">
<rect width="16.2064" height="16" fill="white"/>
</clipPath>
</defs>
</svg>
