<svg width="36" height="36" viewBox="0 0 36 36" fill="none" xmlns="http://www.w3.org/2000/svg">
<g clip-path="url(#clip0_412_217)">
<path d="M0 33.2578V2.74219C0.0271875 2.64187 0.0562497 2.5425 0.0824997 2.44125C0.310312 1.56 0.800625 0.864376 1.60125 0.428438C1.95469 0.240938 2.36062 0.139688 2.74219 0H20.4609C20.4901 0.0195042 20.5216 0.0352534 20.5547 0.046875C22.2637 0.439688 23.2003 1.60781 23.2031 3.35063C23.2031 3.86344 23.2031 4.37531 23.2031 4.92188C24.0891 4.92188 24.9412 4.90875 25.7925 4.92656C26.4 4.93875 27.0197 4.92656 27.6112 5.03719C30.5119 5.59969 32.4806 8.01656 32.4862 10.9828C32.49 15.1416 32.49 19.3009 32.4862 23.4609V23.9062C32.6456 23.9062 32.7675 23.8997 32.8959 23.9062C34.2375 23.9784 35.1928 24.6272 35.7488 25.8478C35.8501 26.1084 35.9347 26.3752 36.0019 26.6466V31.5684C35.7844 32.0062 35.4666 32.3184 34.9472 32.3616C34.9472 33.165 34.9472 33.9375 34.9472 34.7053C34.9416 35.3944 34.5084 35.8528 33.8822 35.8462C33.2559 35.8397 32.8462 35.3925 32.8406 34.7212C32.8341 34.0303 32.8406 33.3384 32.8406 32.6475C32.8406 32.5481 32.8275 32.4478 32.8209 32.3587H30.0234C30.0234 33.1612 30.0234 33.9441 30.0234 34.7259C30.0234 35.25 29.7778 35.6194 29.3531 35.7769C28.635 36.0412 27.9319 35.5575 27.9197 34.7719C27.9066 33.9666 27.9197 33.1612 27.9197 32.3644C27.1312 32.1769 26.8641 31.8478 26.8641 31.08C26.8641 29.7328 26.8547 28.3856 26.8641 27.0384C26.8664 26.33 27.1087 25.6433 27.5513 25.0901C27.994 24.537 28.6109 24.1501 29.3016 23.9925C29.6381 23.9147 29.9916 23.9062 30.3712 23.8622V18.2597C30.3712 15.8109 30.3806 13.3631 30.3712 10.9144C30.3609 8.95406 29.0147 7.35187 27.0769 7.10062C26.1394 6.97781 25.1841 7.04625 24.2362 7.03219C23.9006 7.02656 23.565 7.03219 23.205 7.03219V23.3016C23.205 26.4525 23.2134 29.6034 23.205 32.7553C23.1994 34.1559 22.5394 35.1628 21.2644 35.7469C21.0041 35.8481 20.7376 35.9326 20.4666 36H2.74781C2.65875 35.9737 2.57156 35.9456 2.48156 35.9231C1.32656 35.6287 0.551562 34.9191 0.156562 33.7941C0.0937498 33.6187 0.0496875 33.4369 0 33.2578ZM4.21875 2.10938H3.375C2.50312 2.10938 2.10656 2.50406 2.10656 3.37031V32.6203C2.10656 33.5091 2.49844 33.8953 3.3975 33.8953H19.7812C20.7188 33.8953 21.0938 33.5203 21.0938 32.5716V3.4275C21.0938 3.31031 21.0994 3.19219 21.0881 3.07594C21.0692 2.83383 20.9663 2.60594 20.7972 2.43167C20.628 2.2574 20.4033 2.14771 20.1619 2.12156C19.7812 2.09063 19.3969 2.11594 18.9844 2.11594V2.56125C18.9844 6.8025 18.9844 11.0441 18.9844 15.2859C18.9883 15.7071 18.9673 16.1282 18.9216 16.5469C18.5953 19.2872 17.2884 21.3825 14.7131 22.4906C12.0675 23.6287 9.47438 23.3944 7.11938 21.6966C5.08125 20.2294 4.24594 18.1022 4.22813 15.6562C4.19531 11.2978 4.21875 6.9375 4.21875 2.58V2.10938ZM6.32812 2.12438V4.54031C6.32812 8.26594 6.31969 11.9916 6.32812 15.7172C6.33937 19.3172 9.44813 21.7472 12.9319 20.8941C15.3159 20.31 16.8628 18.3 16.8694 15.7303C16.8797 11.2781 16.8694 6.82406 16.8694 2.37375C16.8694 2.295 16.8609 2.21625 16.8562 2.12438H6.32812ZM33.8906 30.2194V29.9381C33.8906 28.9791 33.9 28.0191 33.8859 27.06C33.8766 26.4516 33.4172 26.0287 32.79 26.0203C31.8888 26.0134 30.9878 26.0134 30.0872 26.0203C29.4084 26.0203 28.9734 26.4637 28.9697 27.1453C28.965 28.0931 28.9697 29.0419 28.9697 29.9897C28.9745 30.0674 28.9839 30.1447 28.9978 30.2212L33.8906 30.2194Z" fill="#B07FD8"/>
<path d="M11.5791 27.5623C9.96375 27.5623 8.34844 27.5689 6.73312 27.5623C5.92687 27.5576 5.42906 26.8451 5.70187 26.1195C5.86219 25.6967 6.23062 25.4585 6.75656 25.4567C8.33719 25.4567 9.9175 25.4567 11.4975 25.4567C13.1484 25.4567 14.7984 25.452 16.4494 25.4567C17.265 25.4567 17.7619 26.1476 17.5003 26.8826C17.3438 27.3176 16.9687 27.5623 16.4259 27.5623C14.8109 27.5623 13.1953 27.5623 11.5791 27.5623Z" fill="#662E93"/>
<path d="M11.6325 31.781C10.005 31.781 8.3775 31.781 6.75093 31.781C5.93625 31.781 5.43843 31.0863 5.69906 30.3551C5.85468 29.9266 6.22219 29.6801 6.74156 29.6763C7.5375 29.6707 8.33531 29.6763 9.13031 29.6763C11.5678 29.6763 14.0025 29.6763 16.4344 29.6763C17.2697 29.6763 17.7769 30.3766 17.4975 31.1191C17.3353 31.5504 16.9622 31.782 16.4081 31.7829C14.8162 31.7816 13.2244 31.781 11.6325 31.781Z" fill="#662E93"/>
<path d="M11.5997 10.5462C9.86906 10.5462 8.42812 9.11084 8.43937 7.39897C8.44969 5.60178 9.81844 4.2349 11.6034 4.23584C13.3884 4.23678 14.775 5.62522 14.7637 7.43834C14.7525 9.13897 13.3191 10.5471 11.5997 10.5462ZM12.6562 7.37272C12.6562 7.09349 12.5453 6.82571 12.3479 6.62826C12.1504 6.43082 11.8827 6.3199 11.6034 6.3199C11.3242 6.3199 11.0564 6.43082 10.859 6.62826C10.6615 6.82571 10.5506 7.09349 10.5506 7.37272C10.5506 7.65194 10.6615 7.91973 10.859 8.11717C11.0564 8.31461 11.3242 8.42553 11.6034 8.42553C11.8827 8.42553 12.1504 8.31461 12.3479 8.11717C12.5453 7.91973 12.6562 7.65194 12.6562 7.37272Z" fill="#662E93"/>
<path d="M12.6563 13.7107C12.654 13.9899 12.5409 14.2568 12.3419 14.4527C12.1429 14.6485 11.8742 14.7573 11.595 14.7551C11.3158 14.7528 11.0489 14.6398 10.853 14.4407C10.6572 14.2417 10.5484 13.973 10.5506 13.6938C10.5529 13.4146 10.6659 13.1477 10.865 12.9518C10.9635 12.8549 11.0802 12.7782 11.2083 12.7264C11.3365 12.6745 11.4736 12.6483 11.6119 12.6494C11.7501 12.6506 11.8868 12.6789 12.0141 12.7328C12.1414 12.7868 12.2569 12.8652 12.3539 12.9638C12.4508 13.0623 12.5275 13.179 12.5793 13.3072C12.6312 13.4353 12.6574 13.5724 12.6563 13.7107Z" fill="#662E93"/>
<path d="M12.6563 17.9065C12.658 18.0448 12.6326 18.182 12.5813 18.3104C12.5301 18.4388 12.454 18.5559 12.3575 18.6549C12.261 18.754 12.1459 18.833 12.0189 18.8876C11.8918 18.9421 11.7553 18.9711 11.617 18.9729C11.4788 18.9747 11.3415 18.9492 11.2131 18.898C11.0847 18.8467 10.9676 18.7707 10.8686 18.6742C10.7696 18.5777 10.6905 18.4626 10.636 18.3355C10.5814 18.2085 10.5524 18.0719 10.5506 17.9337C10.547 17.6545 10.6545 17.3852 10.8494 17.1852C11.0443 16.9853 11.3106 16.8709 11.5898 16.8673C11.8691 16.8637 12.1383 16.9711 12.3383 17.166C12.5383 17.3609 12.6526 17.6273 12.6563 17.9065Z" fill="#662E93"/>
</g>
<defs>
<clipPath id="clip0_412_217">
<rect width="36" height="36" fill="white"/>
</clipPath>
</defs>
</svg>
