<svg width="17" height="16" viewBox="0 0 17 16" fill="none" xmlns="http://www.w3.org/2000/svg">
<g clip-path="url(#clip0_192_220)">
<path d="M3.1043 0.501318H0.00602722V0H16.003V0.496585H12.9181V5.14615H12.4047V0.516379H8.26422C8.26422 0.834382 8.29133 1.15325 8.25819 1.46566C8.20139 2.00312 8.37266 2.4386 8.6799 2.87924C9.54613 4.12242 10.3706 5.39745 11.2127 6.65828C11.3246 6.8261 11.3922 7.00253 11.3517 7.20478C11.323 7.35697 11.2412 7.49401 11.1209 7.5915C11.0005 7.68899 10.8495 7.74058 10.6946 7.73708C10.2265 7.74052 9.7587 7.73708 9.28492 7.73708C9.07364 8.40364 8.63945 8.7991 7.92427 8.7608C7.29342 8.72723 6.91173 8.34382 6.731 7.73708C6.28261 7.73708 5.83121 7.73277 5.37981 7.73708C5.09064 7.74095 4.86128 7.64026 4.72401 7.38121C4.58674 7.12216 4.64397 6.88677 4.80018 6.65354C5.75634 5.22432 6.70949 3.79252 7.65962 2.35813C7.71245 2.2736 7.74144 2.17636 7.74354 2.0767C7.75128 1.56032 7.74698 1.04395 7.74698 0.516379H3.61595V5.14744H3.1043V0.501318ZM8.00603 7.2207C8.87785 7.2207 9.74924 7.2207 10.6211 7.21683C10.6912 7.21683 10.788 7.18455 10.8224 7.13334C10.8483 7.09462 10.8104 6.99134 10.7734 6.93497C10.2914 6.20343 9.80303 5.47534 9.31978 4.74423C9.29942 4.70776 9.26889 4.67801 9.2319 4.6586C9.19492 4.63919 9.15309 4.63097 9.11151 4.63493C8.37452 4.63923 7.63739 4.63923 6.90012 4.63493C6.85849 4.63101 6.81663 4.6393 6.77964 4.65879C6.74265 4.67827 6.71214 4.70811 6.69184 4.74466C6.21204 5.47189 5.72621 6.19483 5.24684 6.92249C5.20682 6.98316 5.16078 7.09462 5.19004 7.13291C5.22834 7.1867 5.33161 7.21639 5.4052 7.21683C6.27358 7.22414 7.1398 7.2207 8.00603 7.2207ZM8.89635 4.11296C8.59169 3.65639 8.30424 3.22651 8.0056 2.77898L7.117 4.11296H8.89635ZM7.29773 7.74439C7.34879 7.89761 7.44824 8.03009 7.5811 8.1219C7.71397 8.21371 7.87306 8.25988 8.03443 8.25346C8.3477 8.2427 8.63429 8.02883 8.70701 7.74482L7.29773 7.74439Z" fill="#B07FD8"/>
<path d="M2.07972 13.4223C1.6494 13.4223 1.21908 13.415 0.788768 13.4249C0.487547 13.4318 0.231939 13.3577 0.0787469 13.0806C-0.0744455 12.8035 0.00903573 12.5487 0.176859 12.2983C1.11323 10.9011 2.04271 9.4991 2.97951 8.10186C3.06176 7.98385 3.10372 7.84244 3.09913 7.69866C3.09182 7.20422 3.09655 6.70893 3.09655 6.20288H3.60561C3.6082 6.25323 3.6125 6.30487 3.6125 6.35693C3.6125 6.83028 3.60863 7.30363 3.6168 7.77698C3.61943 7.8714 3.64769 7.96332 3.69856 8.04291C4.64813 9.4773 5.60099 10.9091 6.55715 12.3383C6.66903 12.5057 6.7396 12.68 6.70217 12.8835C6.67551 13.0361 6.5954 13.1743 6.47619 13.2732C6.35698 13.3722 6.20644 13.4255 6.05153 13.4236C5.57818 13.4275 5.10484 13.4236 4.63149 13.4236C4.43699 14.0626 4.02689 14.4499 3.34958 14.4499C2.68001 14.4451 2.27508 14.0561 2.07972 13.4223ZM3.37066 12.9059C4.23689 12.9059 5.10311 12.9081 5.96934 12.9025C6.03991 12.9025 6.1363 12.8711 6.17202 12.8203C6.19827 12.7824 6.16126 12.6783 6.12468 12.6223C5.6423 11.8908 5.15432 11.1623 4.67108 10.4312C4.65074 10.3947 4.62032 10.3648 4.58347 10.3451C4.54662 10.3254 4.50488 10.3168 4.46323 10.3201C3.72625 10.325 2.98926 10.325 2.25227 10.3201C2.14426 10.3201 2.08918 10.3597 2.0341 10.4428C1.55688 11.1653 1.0745 11.8839 0.598138 12.6068C0.558118 12.6679 0.512075 12.779 0.539185 12.8177C0.576622 12.8715 0.680328 12.9038 0.754342 12.9038C1.62831 12.9076 2.50013 12.9055 3.37152 12.9055L3.37066 12.9059ZM2.467 9.79602H4.24291C3.94169 9.34419 3.65295 8.91215 3.35431 8.46462L2.467 9.79602ZM2.64644 13.43C2.69772 13.5832 2.7973 13.7155 2.93021 13.8072C3.06313 13.899 3.22221 13.9451 3.38357 13.9387C3.69684 13.9275 3.98343 13.7132 4.05615 13.43H2.64644Z" fill="#662E93"/>
<path d="M12.3965 6.19531H12.9056C12.9082 6.25125 12.9129 6.30332 12.9129 6.35496C12.9129 6.82831 12.909 7.30165 12.9168 7.775C12.9198 7.86922 12.948 7.96091 12.9985 8.04051C13.9487 9.47489 14.9017 10.9067 15.8576 12.3359C15.9694 12.5033 16.04 12.678 16.0021 12.8811C15.9755 13.0337 15.8954 13.1719 15.7762 13.2708C15.657 13.3698 15.5064 13.4231 15.3515 13.4212C14.8782 13.425 14.4048 13.4212 13.9315 13.4212C13.7348 14.0628 13.3247 14.4501 12.6474 14.4501C11.9778 14.447 11.5716 14.0576 11.378 13.4242C10.9317 13.4242 10.4859 13.419 10.0401 13.4242C9.75267 13.4285 9.52073 13.3381 9.37916 13.0799C9.23759 12.8217 9.2931 12.5773 9.45145 12.3389C10.3926 10.9318 11.3276 9.52079 12.2713 8.11495C12.3602 7.98848 12.4055 7.83654 12.4004 7.68205C12.3931 7.19106 12.3965 6.70438 12.3965 6.19531ZM12.6388 12.9057C13.5154 12.9057 14.3923 12.9078 15.2693 12.9022C15.3399 12.9022 15.4367 12.8699 15.4711 12.8187C15.4974 12.7804 15.46 12.6767 15.4229 12.6208C14.9406 11.8892 14.4522 11.1612 13.9693 10.4296C13.9488 10.3932 13.9181 10.3635 13.8811 10.3441C13.8441 10.3246 13.8023 10.3162 13.7606 10.3199C13.0239 10.3242 12.2869 10.3242 11.5497 10.3199C11.508 10.3162 11.4662 10.3245 11.4291 10.344C11.3921 10.3635 11.3615 10.3932 11.341 10.4296C10.8612 11.1569 10.3753 11.8798 9.8964 12.6074C9.85638 12.6681 9.81034 12.7796 9.83874 12.8179C9.87704 12.8717 9.98031 12.9018 10.056 12.9039C10.9171 12.9078 11.7777 12.9057 12.6388 12.9057ZM13.5463 9.79964L12.6543 8.46351L11.7648 9.79964H13.5463ZM13.3643 13.4354H11.9443C11.9954 13.583 12.0912 13.7111 12.2185 13.8017C12.3457 13.8923 12.4981 13.941 12.6543 13.941C12.8105 13.941 12.9629 13.8923 13.0901 13.8017C13.2174 13.7111 13.3132 13.583 13.3643 13.4354Z" fill="#662E93"/>
<path d="M6.87086 8.95051L6.11049 9.70829L5.79851 9.36404L6.54683 8.61572L6.87086 8.95051Z" fill="#B07FD8"/>
<path d="M9.48072 8.62476L10.2303 9.37221C10.118 9.4742 9.99666 9.58393 9.88607 9.68376L9.13818 8.93544L9.48072 8.62476Z" fill="#B07FD8"/>
<path d="M1.45748 15.3722L1.13345 15.0654L1.90071 14.2986L2.21096 14.617L1.45748 15.3722Z" fill="#B07FD8"/>
<path d="M4.82513 14.3008L5.58033 15.0564L5.24985 15.3796L4.48819 14.6175L4.82513 14.3008Z" fill="#B07FD8"/>
<path d="M10.7579 15.3919L10.4334 15.0679C10.689 14.8123 10.9412 14.5597 11.1968 14.3032L11.5226 14.6272L10.7579 15.3919Z" fill="#B07FD8"/>
<path d="M13.8007 14.6127L14.1079 14.2981L14.8756 15.0649L14.5473 15.3661L13.8007 14.6127Z" fill="#B07FD8"/>
<path d="M8.25303 10.3152H7.75601V9.30225H8.25303V10.3152Z" fill="#B07FD8"/>
<path d="M3.60218 15.9991H3.1086V14.9814H3.60218V15.9991Z" fill="#B07FD8"/>
<path d="M12.4056 14.9802H12.9013V15.9953H12.4056V14.9802Z" fill="#B07FD8"/>
</g>
<defs>
<clipPath id="clip0_192_220">
<rect width="16.0125" height="16" fill="white"/>
</clipPath>
</defs>
</svg>
