<svg width="15" height="16" viewBox="0 0 15 16" fill="none" xmlns="http://www.w3.org/2000/svg">
<g clip-path="url(#clip0_272_12)">
<path d="M1.22662 15.9999C0.777838 15.9122 0.402224 15.67 0.00900269 15.4177L0.489085 14.6195C0.660459 14.722 0.82166 14.8151 0.980905 14.9137C1.28961 15.1027 1.59754 15.1055 1.90781 14.918C2.06823 14.8213 2.22969 14.7266 2.3922 14.634C3.00961 14.2803 3.62638 14.282 4.24249 14.6391C4.34348 14.6929 4.44145 14.7522 4.53594 14.8167C4.95185 15.1238 5.36112 15.1297 5.78799 14.8288C5.9754 14.6974 6.17699 14.5874 6.38897 14.501C6.93087 14.2791 7.45751 14.3417 7.95872 14.6367C8.11523 14.7291 8.27174 14.8227 8.42824 14.9176C8.73186 15.1026 9.0364 15.1042 9.34185 14.9223C9.50735 14.8241 9.67207 14.7267 9.83954 14.6301C10.4523 14.2811 11.0645 14.2828 11.6761 14.6352C11.8201 14.7185 11.9637 14.803 12.1034 14.893C12.4344 15.1062 12.7639 15.1113 13.0988 14.9012C13.2572 14.8022 13.4208 14.7118 13.5992 14.6074L14.0711 15.4106C13.6708 15.6575 13.2862 15.9111 12.8218 15.9999H12.3816C11.9488 15.9162 11.5861 15.6826 11.2203 15.4564C10.9073 15.2608 10.5943 15.2663 10.2813 15.4564C9.9084 15.6814 9.541 15.9189 9.102 16.0003H8.66457C8.56088 15.9705 8.44937 15.9561 8.35429 15.9083C8.06711 15.7651 7.78148 15.6168 7.50447 15.4552C7.19145 15.2729 6.88666 15.2635 6.57599 15.449C6.19803 15.6747 5.82751 15.9185 5.38342 16.0003H4.94755C4.69831 15.9025 4.44477 15.8136 4.20102 15.7033C4.05077 15.6352 3.915 15.5351 3.77062 15.4494C3.46622 15.2655 3.16103 15.2667 2.85663 15.4494C2.47828 15.6747 2.10814 15.9189 1.66405 16.0011L1.22662 15.9999Z" fill="#662E93"/>
<path d="M13.598 8.46418L14.0765 9.28036C13.7952 9.43334 13.5315 9.60589 13.2459 9.72523C12.7122 9.94825 12.1871 9.88525 11.6894 9.59415C11.5329 9.50181 11.3764 9.40817 11.2199 9.31323C10.9116 9.12385 10.6037 9.12111 10.2926 9.30696C10.1275 9.40556 9.96135 9.5026 9.79415 9.59807C9.17986 9.94707 8.56675 9.94121 7.9552 9.58672C7.80678 9.50064 7.65967 9.41208 7.51385 9.32105C7.19654 9.12307 6.88 9.11837 6.55917 9.31362C6.39953 9.41117 6.23794 9.50586 6.07439 9.59768C5.46063 9.9459 4.84764 9.94264 4.23544 9.58789C4.08259 9.49921 3.93091 9.40791 3.7804 9.31401C3.46739 9.11837 3.15438 9.12268 2.83941 9.31166C2.63869 9.43178 2.43758 9.55229 2.22982 9.65989C1.77478 9.89464 1.29822 9.9279 0.827135 9.73344C0.541512 9.61606 0.279364 9.44234 -0.00430298 9.28897L0.485561 8.47592C0.66163 8.58195 0.82557 8.68211 0.991075 8.77954C1.25557 8.93605 1.52593 8.9607 1.80999 8.82532C1.9035 8.78071 1.93872 8.72907 1.93833 8.6246C1.93441 7.69261 1.93598 6.76061 1.93598 5.82862C1.93598 4.54762 1.93285 3.26662 1.93598 1.98601C1.93911 1.02623 2.52523 0.280481 3.44196 0.0535471C4.57663 -0.227772 5.75512 0.643575 5.80872 1.81424C5.82672 2.20316 5.81185 2.59325 5.81185 2.99273H4.88338C4.88338 2.6449 4.88768 2.30254 4.88338 1.96057C4.87477 1.43237 4.52459 1.02819 4.01829 0.952283C3.4537 0.867378 2.91101 1.29973 2.88675 1.87176C2.86993 2.2775 2.87971 2.68402 2.87932 3.09015C2.87932 3.88677 2.87932 4.68339 2.87932 5.48V5.65881H6.81779V5.46318C6.81779 4.29173 6.81271 3.12028 6.81779 1.94884C6.82327 1.01762 7.42191 0.273047 8.32729 0.0504175C9.47566 -0.232076 10.6604 0.665486 10.6921 1.8475C10.7023 2.22624 10.6921 2.60499 10.6921 2.99234H9.76011C9.76011 2.94304 9.76011 2.89374 9.76011 2.84405C9.76011 2.54199 9.76558 2.23994 9.75815 1.93788C9.74407 1.37094 9.2988 0.933111 8.74986 0.93898C8.48625 0.941146 8.23416 1.0473 8.04842 1.23437C7.86268 1.42143 7.7583 1.67426 7.758 1.93788C7.749 2.48956 7.75526 3.04164 7.75526 3.59371C7.75526 5.13999 7.75461 6.6864 7.75331 8.23294C7.75331 8.33858 7.77913 8.39923 7.87969 8.45049C8.06436 8.54478 8.23965 8.65864 8.41689 8.76741C8.72599 8.95678 9.03353 8.95561 9.34654 8.77406C9.59812 8.62812 9.84384 8.46418 10.1111 8.35345C10.6451 8.13239 11.1702 8.19303 11.6679 8.4857C11.8295 8.58078 11.9888 8.67898 12.1496 8.77524C12.4489 8.95404 12.7494 8.95717 13.0495 8.78071L13.598 8.46418ZM2.88636 8.28028C3.45526 8.13747 3.95373 8.29085 4.41817 8.60073C4.49642 8.65277 4.57937 8.6962 4.65762 8.74707C4.99372 8.96657 5.32277 8.96187 5.66826 8.75411C6.02705 8.53774 6.37253 8.28928 6.80801 8.24155V6.61976H2.88636V8.28028Z" fill="#B07FD8"/>
<path d="M0.00508118 12.4073L0.489467 11.6041C0.645973 11.6972 0.789567 11.7786 0.928466 11.8694C1.26887 12.0916 1.60418 12.0932 1.95241 11.8791C2.19108 11.7324 2.43249 11.581 2.69112 11.4773C3.22128 11.2652 3.74127 11.3282 4.2327 11.6186C4.3806 11.7058 4.52967 11.7911 4.67405 11.8834C5.00193 12.092 5.32668 12.0928 5.65573 11.8862C5.80989 11.7895 5.96874 11.6992 6.12525 11.61C6.73406 11.268 7.34286 11.2676 7.94893 11.6178C8.10205 11.7062 8.2536 11.7975 8.40358 11.8917C8.72207 12.0904 9.039 12.0912 9.35905 11.8964C9.51895 11.7988 9.68041 11.704 9.84344 11.6119C10.4581 11.2656 11.0708 11.2684 11.6804 11.626C11.8369 11.7179 11.9934 11.8134 12.1499 11.9065C12.4489 12.0846 12.749 12.0892 13.0499 11.9116C13.2248 11.8087 13.402 11.7074 13.5976 11.5931L14.0722 12.3995C13.6309 12.6484 13.2318 12.9594 12.7028 12.979C12.3423 12.9936 11.9856 12.9014 11.6773 12.7141C11.5255 12.6236 11.3741 12.5323 11.223 12.4402C10.9147 12.2511 10.6056 12.249 10.2957 12.434C10.1302 12.5322 9.96434 12.6296 9.79727 12.7251C9.18299 13.0772 8.56987 13.067 7.95833 12.7149C7.80965 12.6292 7.66253 12.54 7.51737 12.4488C7.19418 12.2465 6.87296 12.2485 6.54899 12.4488C6.39248 12.5443 6.23598 12.6355 6.07947 12.7254C5.46571 13.0737 4.85272 13.0707 4.24052 12.7164C4.08402 12.6253 3.92751 12.5298 3.77101 12.4355C3.46699 12.2512 3.16337 12.2528 2.85779 12.4328C2.66216 12.5502 2.46653 12.6703 2.26268 12.7747C1.71491 13.0572 1.16323 13.0557 0.619367 12.7681C0.413171 12.6593 0.216756 12.5333 0.00508118 12.4073Z" fill="#662E93"/>
</g>
<defs>
<clipPath id="clip0_272_12">
<rect width="14.0765" height="16" fill="white"/>
</clipPath>
</defs>
</svg>
