<svg width="15" height="16" viewBox="0 0 15 16" fill="none" xmlns="http://www.w3.org/2000/svg">
<g clip-path="url(#clip0_238_123)">
<path d="M0.635083 16L0.497475 15.9371C0.191818 15.7942 0.0237695 15.5575 0.00834069 15.2179C0.00583872 15.1659 0.00834069 15.1138 0.00834069 15.0617C0.00834069 10.7084 0.014595 6.35336 0.00125122 2.0017C0.00125122 1.40795 0.391142 1.05586 0.946578 1.05836C3.96395 1.07211 6.98174 1.06503 9.99911 1.06503C10.0563 1.06223 10.1136 1.06404 10.1705 1.07045C10.2359 1.07888 10.2957 1.11177 10.3378 1.16249C10.3799 1.21321 10.4012 1.278 10.3973 1.34378C10.3962 1.40936 10.3697 1.47197 10.3235 1.51855C10.2773 1.56512 10.2149 1.59207 10.1492 1.59378C10.0925 1.59836 10.0346 1.59586 9.97743 1.59586H0.954918C0.897621 1.5935 0.84023 1.59489 0.783116 1.60003C0.717512 1.60583 0.656427 1.63585 0.611785 1.68424C0.567142 1.73262 0.542146 1.79589 0.541676 1.8617C0.53834 1.90836 0.541676 1.95545 0.541676 2.00211C0.541676 6.35545 0.541676 10.7088 0.541676 15.0621C0.541676 15.3954 0.611732 15.4654 0.943242 15.4654H11.3543C11.6742 15.4654 11.7455 15.3934 11.7455 15.0692C11.7455 12.3192 11.7455 9.5692 11.7455 6.8192C11.7427 6.75166 11.7461 6.684 11.7559 6.61711C11.7666 6.55381 11.8002 6.49665 11.8503 6.45649C11.9005 6.41634 11.9636 6.396 12.0278 6.39934C12.0919 6.40269 12.1526 6.42948 12.1983 6.47463C12.244 6.51978 12.2714 6.58013 12.2755 6.6442C12.2813 6.70586 12.2792 6.7692 12.2792 6.83128C12.2792 9.54961 12.273 12.2679 12.2855 14.9859C12.288 15.4859 12.1295 15.8317 11.6437 15.9963L0.635083 16Z" fill="#B07FD8"/>
<path d="M11.5816 2.9246e-05C11.7067 0.0791959 11.7484 0.195446 11.7563 0.341279C11.7711 0.780054 11.8823 1.21021 12.082 1.60128C12.4319 2.27461 12.9915 2.62253 13.7479 2.65961C13.8103 2.65991 13.8726 2.66465 13.9343 2.67378C13.9998 2.68262 14.0593 2.71683 14.0999 2.76904C14.1404 2.82126 14.1588 2.8873 14.1511 2.95295C14.1382 3.09753 14.0544 3.17753 13.9105 3.19461C13.7145 3.21836 13.514 3.22211 13.323 3.26711C12.5953 3.43961 12.1554 3.92836 11.9356 4.61545C11.8385 4.9192 11.8051 5.2442 11.7555 5.5617C11.7255 5.7567 11.6446 5.8667 11.4911 5.87045C11.3377 5.8742 11.2242 5.75628 11.2155 5.55711C11.202 5.11884 11.0957 4.6884 10.9036 4.2942C10.5741 3.6342 10.0412 3.27086 9.30315 3.21086C9.22517 3.20461 9.14677 3.20211 9.06921 3.19336C8.9191 3.1767 8.82444 3.08045 8.81902 2.94336C8.81675 2.90938 8.82121 2.87528 8.83214 2.84302C8.84308 2.81076 8.86027 2.78097 8.88273 2.75535C8.90519 2.72974 8.93248 2.7088 8.96305 2.69373C8.99362 2.67866 9.02686 2.66975 9.06087 2.66753C9.18972 2.65086 9.32149 2.65628 9.44993 2.63711C10.2472 2.52003 10.7585 2.0492 11.0145 1.30795C11.12 1.00211 11.1609 0.671696 11.2084 0.349613C11.2301 0.201279 11.2601 0.076696 11.3965 -0.0012207L11.5816 2.9246e-05ZM11.474 1.6192C11.2359 2.1967 10.8485 2.62295 10.3035 2.9342C10.8401 3.22759 11.2571 3.69926 11.4824 4.26753C11.7326 3.67878 12.1133 3.24128 12.6537 2.94211C11.9848 2.44086 11.9848 2.44086 11.474 1.6192Z" fill="#662E93"/>
<path d="M6.42463 8.25755H10.678V8.08797C10.678 7.64505 10.678 7.20255 10.678 6.76005C10.6755 6.69794 10.6834 6.63584 10.7013 6.5763C10.7212 6.52119 10.7591 6.47437 10.8088 6.44338C10.8586 6.4124 10.9174 6.39905 10.9756 6.4055C11.0339 6.41195 11.0883 6.43782 11.1301 6.47893C11.1719 6.52004 11.1986 6.57401 11.2059 6.63214C11.2114 6.68919 11.2129 6.74655 11.2105 6.80381V14.5371C11.2105 14.8663 11.1404 14.9351 10.8039 14.9351H1.48659C1.14257 14.9351 1.07293 14.8663 1.07293 14.5267V2.52672C1.07293 2.20506 1.14757 2.12964 1.46699 2.12964H8.14349C8.18018 2.12964 8.21646 2.12964 8.25274 2.12964C8.43246 2.13922 8.55172 2.25464 8.54464 2.40881C8.53755 2.56297 8.42496 2.65881 8.24607 2.66131C7.69897 2.66381 7.15187 2.66131 6.60436 2.66131H6.42422L6.42463 8.25755ZM5.86878 8.81255H1.61544V14.3896H5.86878V8.81255ZM5.86878 8.25714V2.67589H1.61127V8.25922L5.86878 8.25714ZM10.6692 14.3938V8.81047H6.42297V14.3938H10.6692Z" fill="#B07FD8"/>
<path d="M10.414 5.86129C10.4169 6.00046 10.3123 6.11129 10.1638 6.12921C10.0497 6.13654 9.93608 6.15046 9.82356 6.17087C9.40948 6.26712 9.13218 6.53379 8.99249 6.92087C8.90408 7.16712 8.86447 7.43254 8.81943 7.69171C8.78441 7.89129 8.7081 7.99504 8.55256 7.99796C8.39702 8.00087 8.30611 7.88712 8.27317 7.68629C8.23147 7.43171 8.19603 7.17004 8.10637 6.93046C7.91998 6.43046 7.54468 6.15879 7.00342 6.13171C6.98257 6.13171 6.96172 6.13171 6.94129 6.12837C6.78659 6.11337 6.68234 6.01046 6.679 5.87046C6.6789 5.80212 6.70461 5.73627 6.75099 5.68606C6.79738 5.63584 6.86102 5.60498 6.9292 5.59962C7.0126 5.58879 7.096 5.59421 7.17939 5.58046C7.7144 5.49087 8.01338 5.14087 8.166 4.65129C8.22688 4.45504 8.2494 4.24546 8.27526 4.04004C8.30111 3.84587 8.38743 3.73754 8.54255 3.73421C8.69767 3.73087 8.7819 3.83796 8.81943 4.02921C8.87573 4.31754 8.91868 4.61629 9.02793 4.88462C9.21725 5.34296 9.58879 5.57796 10.0908 5.59546C10.2914 5.60337 10.4103 5.70296 10.414 5.86129ZM7.97752 5.86629L8.54547 6.51962C8.73228 6.30546 8.93202 6.07671 9.11425 5.86712L8.54589 5.21379L7.97752 5.86629Z" fill="#662E93"/>
<path d="M2.4561 5.86619C2.21382 5.87036 2.0808 5.65328 2.17338 5.47994C2.20615 5.42702 2.24631 5.37904 2.29264 5.33744C2.95455 4.67522 3.61673 4.01355 4.2792 3.35244C4.31442 3.31432 4.3534 3.27984 4.39554 3.24953C4.448 3.21452 4.51141 3.19978 4.57395 3.20806C4.63648 3.21634 4.69387 3.24707 4.73539 3.29453C4.77692 3.3386 4.8014 3.396 4.80446 3.45646C4.80751 3.51692 4.78894 3.57649 4.75207 3.62453C4.72755 3.65816 4.6996 3.68916 4.66867 3.71703C3.99536 4.39008 3.32164 5.0623 2.6475 5.73369C2.58842 5.78431 2.52428 5.82871 2.4561 5.86619Z" fill="#B07FD8"/>
<path d="M3.50526 3.45823C3.44979 3.55115 3.42186 3.6249 3.37015 3.67948C3.1237 3.93365 2.87267 4.18365 2.61956 4.42948C2.48695 4.55948 2.33058 4.56407 2.21883 4.45115C2.10707 4.33823 2.11208 4.18698 2.24551 4.05157C2.49821 3.79615 2.753 3.54323 3.00778 3.2899C3.09952 3.19907 3.21628 3.17032 3.32094 3.23782C3.396 3.28657 3.44187 3.37907 3.50526 3.45823Z" fill="#B07FD8"/>
<path d="M9.64633 9.58327C9.58962 9.67786 9.56293 9.75869 9.50581 9.81411C8.81304 10.5116 8.11805 11.2067 7.42083 11.8995C7.2899 12.0299 7.12894 12.0324 7.02052 11.9179C6.91711 11.8099 6.92044 11.6495 7.04137 11.5279C7.73914 10.8279 8.43802 10.1291 9.13802 9.43161C9.22767 9.34202 9.34026 9.30286 9.44909 9.36744C9.5254 9.41202 9.57503 9.49994 9.64633 9.58327Z" fill="#B07FD8"/>
<path d="M7.18482 10.6913C7.11434 10.6325 7.01135 10.5859 6.98174 10.5104C6.95213 10.435 6.95881 10.2963 7.0101 10.2404C7.27739 9.94878 7.56011 9.67253 7.84408 9.39961C7.89343 9.35563 7.9582 9.33296 8.02422 9.33655C8.09025 9.34014 8.15217 9.36971 8.19645 9.41878C8.24395 9.46477 8.27161 9.52747 8.27356 9.59354C8.27551 9.6596 8.25158 9.72382 8.20687 9.77253C7.93666 10.0534 7.65894 10.3275 7.37914 10.5996C7.33994 10.6392 7.27239 10.6517 7.18482 10.6913Z" fill="#B07FD8"/>
</g>
<defs>
<clipPath id="clip0_238_123">
<rect width="14.1503" height="16" fill="white"/>
</clipPath>
</defs>
</svg>
