<svg width="16" height="16" viewBox="0 0 16 16" fill="none" xmlns="http://www.w3.org/2000/svg">
<g clip-path="url(#clip0_222_299)">
<path d="M0 11.2813H2.58083V9.87509C2.38375 9.87509 2.1925 9.87718 2.00167 9.87509C1.1375 9.86468 0.403333 9.28134 0.277083 8.43009C0.211667 7.98884 0.265417 7.52968 0.265417 7.04176C0.735 7.06259 1.21792 7.06343 1.69625 7.11301C1.99417 7.14426 2.25042 7.31426 2.475 7.51676C2.50167 7.54093 2.52958 7.56384 2.55833 7.58676C2.56083 7.58884 2.56792 7.58676 2.58958 7.58343C2.58958 7.37509 2.59292 7.16384 2.58625 6.95343C2.57625 6.90881 2.55232 6.86854 2.51792 6.83843C2.41833 6.73218 2.30958 6.63343 2.21292 6.52551C1.99084 6.28598 1.86845 5.97079 1.8707 5.64416C1.87294 5.31753 1.99965 5.00405 2.225 4.76759C2.41292 4.56634 2.61542 4.37926 2.8275 4.16968C3.1925 4.57259 3.68917 4.87009 3.75958 5.48384C3.7841 5.66491 3.76993 5.84911 3.718 6.02429C3.66607 6.19947 3.57757 6.36165 3.45833 6.50009C3.44665 6.51724 3.43263 6.53267 3.41667 6.54593C3.03 6.79593 3.00792 7.17093 3.08333 7.58176C3.10583 7.56551 3.13375 7.54801 3.15792 7.52676C3.50792 7.21801 3.91208 7.05634 4.38208 7.06176C4.71917 7.06551 5.05625 7.06176 5.41458 7.06176C5.37292 7.62884 5.495 8.18676 5.29417 8.72843C5.17057 9.06067 4.94957 9.34786 4.66009 9.55245C4.3706 9.75704 4.02611 9.86949 3.67167 9.87509C3.47458 9.87843 3.2775 9.87509 3.06958 9.87509V11.2743H5.63417C5.5825 11.6247 5.53458 11.9526 5.48542 12.2805C5.30403 13.4891 5.12278 14.6975 4.94167 15.9055C4.9386 15.9365 4.93721 15.9677 4.9375 15.9988H0.71875C0.666667 15.6763 0.612917 15.3538 0.5625 15.0309C0.51625 14.7343 0.47375 14.4372 0.4275 14.1272L0.89 14.0588C0.965417 14.5588 1.03792 15.0388 1.11083 15.5205H4.5275C4.71542 14.2626 4.9025 13.0138 5.09042 11.7559H0.54875L0.82125 13.6051L0.358333 13.6668C0.299583 13.2751 0.245417 12.9005 0.186667 12.5263C0.126667 12.1422 0.0616667 11.7584 0 11.3743V11.2813ZM4.9275 7.54509C3.46917 7.36634 2.9025 8.17009 3.07917 9.39593C4.33958 9.53718 5.07042 8.97384 4.9275 7.54509ZM0.695 7.54509C0.708333 7.83051 0.677917 8.12009 0.742917 8.38634C0.971667 9.32509 1.75917 9.50343 2.57625 9.38301C2.71875 8.08593 2.1175 7.39009 0.695 7.54176V7.54509ZM2.8225 4.84884C2.175 5.34301 2.1775 5.99718 2.82917 6.46301C3.51583 5.91301 3.41333 5.29176 2.8225 4.84718V4.84884Z" fill="#B07FD8"/>
<path d="M16 5.65625H10.8225C10.8159 5.61387 10.8114 5.57117 10.8092 5.52833C10.8092 3.70611 10.8092 1.88403 10.8092 0.0620836C10.8092 0.0416669 10.8117 0.0204167 10.8129 0H16V5.65625ZM15.5225 5.17917V0.4775H11.2917V5.17917H15.5225Z" fill="#B07FD8"/>
<path d="M6.82709 6.13135H12.4342V11.2672H10.3458V10.8143H11.9663V6.60385H7.29375V10.803H9.85542V11.2713H6.82709V6.13135Z" fill="#662E93"/>
<path d="M7.76416 7.06714H11.495V10.3334H7.76416V7.06714ZM8.22499 9.86506H11.0267V7.54172H8.22499V9.86506Z" fill="#B07FD8"/>
<path d="M1.6429 12.2271V12.6758H1.19415V12.2271H1.6429Z" fill="#662E93"/>
<path d="M12.2187 2.8383H11.7579V0.977051H15.0217V4.7083H11.7546V3.3233H12.2129V4.23997H14.55V1.44747H12.2187V2.8383Z" fill="#662E93"/>
<path d="M13.1483 1.91675V2.363H12.6942V1.91675H13.1483Z" fill="#B07FD8"/>
<path d="M8.69833 8.00708H9.14667V8.45833H8.69833V8.00708Z" fill="black"/>
</g>
<defs>
<clipPath id="clip0_222_299">
<rect width="16" height="16" fill="white"/>
</clipPath>
</defs>
</svg>
