<svg width="36" height="36" viewBox="0 0 36 36" fill="none" xmlns="http://www.w3.org/2000/svg">
<g clip-path="url(#clip0_403_143)">
<path d="M26.1184 19.1606V23.7866H24.981V15.701H11.048V23.7769H9.88157V19.1606H0.824026C0.178924 19.1606 0.00386634 18.9875 0.00289917 18.3491V0.824996C0.00289917 0.176992 0.176022 0 0.810486 0H35.1963C35.8124 0 35.9942 0.181827 35.9942 0.798882V18.3579C35.9942 18.9778 35.8133 19.1606 35.2001 19.1606H26.1184ZM34.8142 1.18672H1.18188V2.32701H14.4892V3.49245H1.18575V17.9739H9.86997C9.86997 17.0309 9.86997 16.1131 9.86997 15.1952C9.86997 14.7532 10.0634 14.552 10.4957 14.5182C10.5625 14.5124 10.6282 14.4988 10.6195 14.5008C10.5605 13.7899 10.4919 13.11 10.457 12.4272C10.4454 12.2008 10.4029 12.0722 10.1814 11.9552C9.85361 11.7794 9.59278 11.5006 9.43915 11.1619C9.28551 10.8231 9.24759 10.4432 9.33125 10.0808C9.39302 9.79583 9.52538 9.53093 9.71619 9.31042C9.907 9.08992 10.1501 8.92087 10.4233 8.8188C10.6964 8.71674 10.9909 8.68492 11.2795 8.72627C11.5682 8.76762 11.8418 8.88081 12.0753 9.05545C12.3088 9.2301 12.4947 9.4606 12.616 9.72581C12.7372 9.99101 12.7899 10.2824 12.7692 10.5733C12.7484 10.8641 12.655 11.1451 12.4974 11.3905C12.3398 11.6358 12.1231 11.8377 11.8672 11.9774C11.7618 12.0393 11.6302 12.1631 11.6205 12.2676C11.5548 13.0234 11.6626 13.7843 11.9358 14.4921H13.3334C13.3407 14.4602 13.3459 14.4279 13.3489 14.3954C13.3489 13.4765 13.3489 12.5577 13.3537 11.638C13.3644 10.3158 14.1642 9.24614 15.4293 8.84574C15.5144 8.81962 15.5985 8.78771 15.6875 8.75772C14.817 7.21025 14.9544 5.81366 16.0618 4.81361C16.5466 4.37702 17.165 4.11739 17.8161 4.077C18.4673 4.03661 19.113 4.21783 19.6481 4.59116C20.1919 4.96352 20.5895 5.51326 20.7729 6.14637C21.0582 7.09322 20.8406 7.95304 20.2893 8.75772C21.6133 9.12428 22.4248 9.94057 22.6105 11.2811C22.6888 11.8517 22.6376 12.4417 22.6414 13.022C22.6414 13.5133 22.6414 14.0046 22.6414 14.5095H24.0613C24.2876 13.8238 24.4317 13.1361 24.3911 12.4127C24.3794 12.196 24.333 12.0771 24.1299 11.9687C23.8631 11.8342 23.6381 11.6294 23.4789 11.3765C23.3198 11.1237 23.2325 10.8322 23.2266 10.5334C23.2125 10.2238 23.2813 9.91604 23.4259 9.64191C23.5706 9.36778 23.7858 9.13723 24.0493 8.97408C24.3128 8.81092 24.6151 8.72109 24.925 8.71384C25.2349 8.7066 25.5411 8.78222 25.8119 8.93288C26.0828 9.08354 26.3085 9.30378 26.4658 9.57086C26.6231 9.83794 26.7062 10.1422 26.7066 10.4521C26.707 10.7621 26.6246 11.0665 26.468 11.334C26.3114 11.6014 26.0862 11.8222 25.8157 11.9736C25.7122 12.0335 25.5652 12.1293 25.5565 12.2192C25.484 12.9785 25.4385 13.7406 25.3843 14.5056C26.0111 14.5753 26.1242 14.7058 26.1252 15.4244V17.9787H34.8133V3.47698H21.5099V2.31637H34.8171L34.8142 1.18672ZM21.4673 14.4979C21.4673 13.4456 21.5157 12.4069 21.4518 11.3759C21.3986 10.5209 20.6355 9.88544 19.7738 9.8748C18.5913 9.86126 17.4081 9.86126 16.2243 9.8748C15.3616 9.88544 14.5975 10.5218 14.5453 11.3749C14.4814 12.4069 14.5298 13.4446 14.5298 14.4979H21.4673ZM17.9855 5.22852C17.6418 5.23024 17.3064 5.33363 17.0214 5.52567C16.7364 5.71771 16.5146 5.9898 16.384 6.30766C16.2533 6.62553 16.2197 6.97494 16.2873 7.31188C16.3549 7.64883 16.5207 7.95822 16.7639 8.20109C17.007 8.44396 17.3166 8.60944 17.6536 8.67667C17.9906 8.7439 18.34 8.70989 18.6577 8.57891C18.9754 8.44792 19.2473 8.22584 19.439 7.94063C19.6307 7.65542 19.7338 7.31985 19.7351 6.9762C19.736 6.74652 19.6914 6.51894 19.604 6.30656C19.5165 6.09418 19.3879 5.9012 19.2256 5.73875C19.0632 5.5763 18.8703 5.44758 18.658 5.36001C18.4456 5.27244 18.2181 5.22775 17.9884 5.22852H17.9855ZM11.6109 10.4512C11.612 10.3359 11.5788 10.2228 11.5154 10.1265C11.4519 10.0301 11.3613 9.95485 11.2549 9.91027C11.1485 9.8657 11.0312 9.85383 10.9181 9.8762C10.8049 9.89856 10.701 9.95414 10.6196 10.0358C10.5381 10.1175 10.4829 10.2217 10.4609 10.3349C10.4389 10.4481 10.4512 10.5653 10.4961 10.6716C10.5411 10.7778 10.6167 10.8682 10.7132 10.9313C10.8098 10.9944 10.923 11.0273 11.0383 11.0257C11.1899 11.0237 11.3346 10.9625 11.4416 10.8551C11.5486 10.7478 11.6094 10.6028 11.6109 10.4512ZM24.9752 11.0315C25.0905 11.0299 25.2028 10.994 25.2976 10.9283C25.3924 10.8626 25.4655 10.7702 25.5075 10.6628C25.5495 10.5554 25.5586 10.4379 25.5336 10.3253C25.5085 10.2127 25.4505 10.1102 25.3669 10.0307C25.2833 9.95125 25.178 9.8985 25.0643 9.87919C24.9506 9.85987 24.8337 9.87488 24.7286 9.92229C24.6234 9.9697 24.5348 10.0474 24.474 10.1454C24.4132 10.2434 24.383 10.3573 24.3872 10.4725C24.3927 10.6241 24.4574 10.7674 24.5673 10.8719C24.6772 10.9764 24.8236 11.0337 24.9752 11.0315Z" fill="#B07FD8"/>
<path d="M1.98076 29.1787C1.19155 27.7473 1.3434 26.4706 2.38794 25.5818C2.84029 25.2007 3.40884 24.9848 4.00014 24.9697C4.59143 24.9546 5.17027 25.1411 5.6415 25.4986C6.76632 26.3594 6.94428 27.579 6.19182 29.1255L7.55456 30.0927L8.91827 29.1177C8.47627 28.4688 8.28864 27.7173 8.51303 26.8933C8.63018 26.4659 8.85417 26.0753 9.16392 25.7584C9.47367 25.4414 9.85898 25.2085 10.2836 25.0816C10.7082 24.9547 11.1581 24.9379 11.591 25.0328C12.0239 25.1278 12.4254 25.3313 12.7579 25.6243C13.7648 26.5199 13.9031 27.8043 13.1448 29.1168L14.5153 30.0985C14.9331 29.7967 15.3861 29.4685 15.8742 29.1139C15.4031 28.4098 15.2223 27.5906 15.5347 26.7066C15.7236 26.1648 16.0895 25.7025 16.5734 25.3941C17.0529 25.0789 17.6234 24.9317 18.1955 24.9754C18.7677 25.0192 19.3091 25.2515 19.7351 25.6359C20.7245 26.5238 20.8493 27.7192 20.122 29.1274L21.4905 30.0946L22.8484 29.1177C22.4045 28.463 22.2159 27.7008 22.4528 26.8691C22.6131 26.29 22.971 25.7852 23.4645 25.4425C23.9526 25.0974 24.5448 24.9312 25.1412 24.9719C25.7376 25.0126 26.3017 25.2577 26.7384 25.6659C27.7055 26.5664 27.8274 27.8391 27.0546 29.1555C27.3067 29.2836 27.5517 29.425 27.7887 29.5791C28.0062 29.749 28.2148 29.9301 28.4135 30.1217L29.8043 29.1216C29.0528 27.579 29.2298 26.3623 30.3546 25.4986C30.8251 25.1403 31.4036 24.9529 31.9948 24.9674C32.5861 24.9818 33.1547 25.1971 33.6072 25.5779C34.6518 26.4638 34.8055 27.7424 34.0212 29.168C34.1034 29.2106 34.1837 29.2561 34.2668 29.2957C35.3887 29.8344 35.9681 30.7329 35.9903 31.9709C36.0097 33.0706 35.9961 34.1722 35.9903 35.2728C35.9903 35.7922 35.7853 35.9972 35.264 35.9972C23.7521 35.9972 12.2399 35.9972 0.727309 35.9972C0.206005 35.9972 0.00289864 35.7932 0.000964295 35.2738C0.000964295 34.1973 -0.00580589 33.1199 0.000964295 32.0434C0.00966883 30.7252 0.619953 29.7919 1.82505 29.2512C1.87147 29.2348 1.91306 29.2145 1.98076 29.1787ZM6.96846 34.824V34.4991C6.96846 33.6054 6.98877 32.7117 6.95782 31.8191C6.92687 30.9264 6.1628 30.2087 5.23819 30.1952C4.46445 30.1836 3.69072 30.1855 2.91698 30.1952C1.90919 30.2077 1.17608 30.9563 1.16157 31.9728C1.15577 32.5647 1.16157 33.1566 1.16157 33.7486V34.824H6.96846ZM13.9321 34.824C13.9321 33.8433 13.9388 32.9023 13.9321 31.9612C13.9224 30.9467 13.1787 30.2058 12.1651 30.1952C11.4165 30.1874 10.6679 30.1884 9.91929 30.1952C8.88152 30.2039 8.1397 30.9428 8.131 31.9767C8.12423 32.8346 8.131 33.6915 8.131 34.5494C8.131 34.6403 8.14744 34.7322 8.15614 34.825L13.9321 34.824ZM20.8957 34.824C20.8957 33.8404 20.9034 32.8994 20.8957 31.9583C20.8851 30.9447 20.1403 30.2058 19.1248 30.1961C18.3762 30.1884 17.6276 30.1884 16.879 30.1961C15.8432 30.2048 15.1033 30.9447 15.0946 31.9815C15.0878 32.8384 15.0946 33.6963 15.0946 34.5532C15.0984 34.6439 15.1071 34.7343 15.1207 34.824H20.8957ZM27.8593 34.824C27.8593 33.8433 27.8661 32.9023 27.8593 31.9622C27.8497 30.9476 27.1059 30.2058 26.0923 30.1952C25.3437 30.1874 24.5951 30.1884 23.8475 30.1952C22.8097 30.2039 22.0669 30.9428 22.0582 31.9767C22.0515 32.8336 22.0582 33.6915 22.0582 34.5484C22.0582 34.6403 22.0747 34.7322 22.0834 34.825L27.8593 34.824ZM34.8229 34.824C34.8229 33.795 34.8471 32.8056 34.8162 31.8171C34.7881 30.9244 34.0328 30.2165 33.1314 30.1981C32.3344 30.1816 31.5375 30.1836 30.7405 30.1981C30.5135 30.1996 30.289 30.2458 30.0799 30.3342C29.8708 30.4225 29.6811 30.5512 29.5218 30.7129C29.3624 30.8746 29.2365 31.0661 29.1512 31.2765C29.066 31.4868 29.023 31.712 29.0248 31.939C29.0151 32.8201 29.0248 33.7012 29.0248 34.5832C29.0294 34.6637 29.0388 34.7437 29.0528 34.8231L34.8229 34.824ZM4.06695 26.1302C3.78034 26.1302 3.50017 26.2151 3.26176 26.3741C3.02336 26.5332 2.83741 26.7593 2.72738 27.024C2.61735 27.2886 2.58817 27.5799 2.64353 27.8611C2.69888 28.1423 2.83629 28.4008 3.0384 28.604C3.24052 28.8072 3.4983 28.946 3.77921 29.0028C4.06011 29.0597 4.35156 29.0321 4.61679 28.9234C4.88201 28.8148 5.10912 28.6301 5.26945 28.3925C5.42979 28.155 5.51617 27.8752 5.5177 27.5886C5.51872 27.3981 5.4822 27.2093 5.41024 27.0329C5.33827 26.8565 5.23226 26.696 5.09826 26.5605C4.96427 26.4251 4.8049 26.3174 4.62928 26.2435C4.45365 26.1697 4.2652 26.1312 4.07468 26.1302H4.06695ZM11.0306 26.1302C10.7438 26.1302 10.4635 26.2151 10.2251 26.3743C9.98661 26.5335 9.80066 26.7598 9.69072 27.0246C9.58077 27.2894 9.55176 27.5809 9.60735 27.8622C9.66293 28.1435 9.80063 28.402 10.003 28.605C10.2054 28.8081 10.4635 28.9467 10.7446 29.0032C11.0257 29.0597 11.3172 29.0317 11.5824 28.9226C11.8476 28.8136 12.0745 28.6284 12.2345 28.3904C12.3945 28.1525 12.4804 27.8725 12.4813 27.5857C12.4826 27.2013 12.3313 26.8321 12.0605 26.5592C11.7898 26.2863 11.4218 26.1319 11.0373 26.1302H11.0306ZM19.4449 27.5809C19.4449 27.294 19.3599 27.0135 19.2005 26.7749C19.041 26.5363 18.8145 26.3504 18.5494 26.2406C18.2843 26.1308 17.9926 26.1021 17.7112 26.158C17.4297 26.214 17.1712 26.3522 16.9684 26.5551C16.7655 26.758 16.6273 27.0165 16.5713 27.2979C16.5153 27.5793 16.5441 27.871 16.6539 28.1361C16.7637 28.4012 16.9496 28.6278 17.1882 28.7872C17.4268 28.9466 17.7073 29.0317 17.9942 29.0317C18.3784 29.0304 18.7465 28.8773 19.0183 28.6057C19.2901 28.3341 19.4434 27.9661 19.4449 27.5819V27.5809ZM26.4086 27.5935C26.4118 27.3064 26.3298 27.0248 26.1729 26.7844C26.0161 26.5439 25.7914 26.3555 25.5273 26.2428C25.2633 26.1301 24.9717 26.0983 24.6896 26.1514C24.4075 26.2045 24.1474 26.3401 23.9424 26.541C23.7374 26.742 23.5966 26.9993 23.5378 27.2803C23.4791 27.5613 23.5051 27.8534 23.6124 28.1197C23.7198 28.3859 23.9038 28.6144 24.141 28.776C24.3783 28.9377 24.6582 29.0253 24.9452 29.0278C25.1358 29.0301 25.3249 28.9948 25.5018 28.9241C25.6787 28.8533 25.8399 28.7483 25.9762 28.6152C26.1125 28.4821 26.2213 28.3235 26.2963 28.1483C26.3714 27.9732 26.4111 27.785 26.4134 27.5945L26.4086 27.5935ZM33.3722 27.5703C33.3708 27.2831 33.2843 27.0029 33.1236 26.7649C32.9628 26.527 32.7351 26.3421 32.4692 26.2337C32.2033 26.1253 31.9113 26.0982 31.63 26.1559C31.3487 26.2136 31.0909 26.3535 30.8891 26.5578C30.6874 26.7621 30.5508 27.0217 30.4967 27.3037C30.4426 27.5857 30.4734 27.8774 30.5851 28.1419C30.6969 28.4063 30.8847 28.6317 31.1246 28.7894C31.3646 28.9471 31.6459 29.0301 31.933 29.0278C32.1237 29.0272 32.3124 28.9889 32.4883 28.9153C32.6642 28.8417 32.8239 28.7342 32.9582 28.5988C33.0924 28.4634 33.1987 28.3029 33.2709 28.1264C33.3431 27.9499 33.3799 27.761 33.379 27.5703H33.3722Z" fill="#662E93"/>
</g>
<defs>
<clipPath id="clip0_403_143">
<rect width="36" height="36" fill="white"/>
</clipPath>
</defs>
</svg>
