<svg width="36" height="36" viewBox="0 0 36 36" fill="none" xmlns="http://www.w3.org/2000/svg">
<g clip-path="url(#clip0_114_60)">
<path d="M-3.57628e-06 15.7247C0.148121 15.4744 0.342184 15.301 0.656246 15.3788C0.952496 15.4528 1.03125 15.6928 1.07812 15.961C1.20937 16.6575 1.35937 17.3522 1.55343 18.061C1.59375 17.9475 1.63875 17.8341 1.67437 17.7188C1.87125 17.0841 2.06531 16.4475 2.26125 15.8119C2.33906 15.5569 2.48343 15.3703 2.77406 15.3647C3.07968 15.3591 3.23437 15.5391 3.31875 15.8147C3.54656 16.5647 3.78093 17.3072 4.07531 18.0647C4.14187 17.7488 4.21125 17.4328 4.275 17.116C4.35562 16.7156 4.42687 16.3135 4.51031 15.9131C4.59375 15.5128 4.83187 15.3188 5.15343 15.3788C5.475 15.4388 5.62218 15.7003 5.5425 16.1156C5.28875 17.4338 5.0275 18.7506 4.75875 20.0663C4.69687 20.37 4.50187 20.5631 4.17562 20.5772C3.84937 20.5913 3.64406 20.4216 3.54937 20.1216C3.34125 19.4653 3.1425 18.8091 2.93906 18.1481C2.90156 18.0291 2.85656 17.9119 2.78437 17.7047C2.54343 18.4725 2.33062 19.1541 2.11687 19.8356C2.08968 19.9247 2.06437 20.0147 2.03531 20.1028C1.93406 20.4178 1.72687 20.5978 1.38656 20.5763C1.06218 20.5556 0.881247 20.3625 0.818434 20.0513C0.638434 19.1475 0.461246 18.2419 0.277496 17.3381C0.192184 16.9163 0.0899963 16.4944 -0.00375366 16.0772L-3.57628e-06 15.7247Z" fill="#662E93"/>
<path d="M17.6822 35.9353C17.2472 35.7234 16.7841 35.5528 16.3837 35.2866C16.0153 35.0409 15.9891 34.7063 16.2112 34.4484C16.4334 34.1906 16.7147 34.2094 17.0644 34.5019C17.4544 34.8272 17.8997 35.0016 18.3919 34.8019C18.4824 34.759 18.5627 34.6972 18.6274 34.6207C18.692 34.5443 18.7396 34.4548 18.7669 34.3584C18.7894 34.245 18.5981 34.0275 18.4537 33.9553C18.0375 33.7472 17.5959 33.5887 17.1647 33.4116C16.6509 33.1997 16.3622 32.8172 16.3284 32.2631C16.2947 31.7091 16.5366 31.2647 17.0109 30.9694C17.7234 30.525 18.9216 30.6712 19.5291 31.2694C19.74 31.4784 19.7756 31.7156 19.6022 31.9641C19.4409 32.1947 19.1653 32.2256 18.8831 32.0906C18.6272 31.9577 18.3575 31.8533 18.0787 31.7794C17.9062 31.7572 17.731 31.79 17.5781 31.8731C17.5251 31.9049 17.4805 31.9489 17.4479 32.0014C17.4153 32.0539 17.3957 32.1134 17.3906 32.175C17.4031 32.233 17.4283 32.2875 17.4645 32.3345C17.5006 32.3815 17.5468 32.4199 17.5997 32.4469C17.8706 32.5809 18.1622 32.6812 18.4434 32.7937L18.6384 32.8716C19.4297 33.195 19.8666 33.7425 19.8478 34.3838C19.8272 35.0831 19.3716 35.6025 18.5353 35.8838C18.5054 35.8994 18.4779 35.9193 18.4537 35.9428L17.6822 35.9353Z" fill="#662E93"/>
<path d="M0 35.2332C0.766875 34.4525 1.53437 33.6713 2.3025 32.8894C2.5725 32.6157 2.84063 32.3391 3.12188 32.0766C3.21631 31.9787 3.34563 31.9222 3.48159 31.9194C3.61755 31.9166 3.7491 31.9677 3.8475 32.0616C3.89848 32.1061 3.93991 32.1604 3.96926 32.2214C3.99862 32.2823 4.01529 32.3486 4.01827 32.4162C4.02125 32.4838 4.01048 32.5512 3.9866 32.6145C3.96273 32.6778 3.92625 32.7356 3.87938 32.7844C2.82656 33.841 1.76156 34.8853 0.70125 35.9344H0V35.2332Z" fill="#662E93"/>
<path d="M0 0.356262C0.358125 -0.098426 0.61875 -0.112489 1.03125 0.292511C1.95 1.20845 2.86406 2.12814 3.78469 3.04126C3.96562 3.22126 4.06594 3.41626 3.98719 3.66845C3.86531 4.05564 3.40312 4.1372 3.07875 3.82032C2.49375 3.24845 1.91719 2.66814 1.3425 2.08689C0.88875 1.63314 0.44625 1.16439 0 0.706886V0.356262Z" fill="#662E93"/>
<path d="M35.2237 35.9353C34.6734 35.3981 34.1194 34.8637 33.5719 34.3228C33.0812 33.839 32.5944 33.3512 32.1112 32.8593C31.86 32.6034 31.8478 32.2968 32.0587 32.0812C32.2697 31.8656 32.5894 31.8618 32.8369 32.1065C33.8075 33.0684 34.7737 34.0353 35.7356 35.0071C36.0478 35.324 35.9869 35.609 35.5744 35.9353H35.2237Z" fill="#662E93"/>
<path d="M11.9269 11.9832L12.9375 13.6463C13.0697 13.8657 13.2122 14.0804 13.3341 14.3072C13.4822 14.5838 13.4137 14.8613 13.1775 15.0169C12.9412 15.1726 12.6281 15.1201 12.4434 14.8482C12.2719 14.5979 12.1237 14.3316 11.9653 14.0719C11.5041 13.3135 11.0409 12.556 10.5825 11.7957C10.3012 11.3354 10.3284 10.9604 10.6425 10.6454C10.9566 10.3304 11.3325 10.3069 11.7928 10.5863C13.0819 11.3654 14.3672 12.1491 15.705 12.9619C15.8081 12.5532 15.9056 12.1772 15.9984 11.8004C16.3666 10.2922 16.7347 8.78381 17.1028 7.27506C17.2406 6.71256 17.5087 6.46412 17.9578 6.46037C18.4069 6.45662 18.69 6.70693 18.8259 7.25912C19.2634 9.0385 19.7009 10.8197 20.1384 12.6029C20.1647 12.7116 20.1975 12.8194 20.2322 12.9638L23.3756 11.0522C23.6569 10.8826 23.9306 10.7063 24.2137 10.5432C24.6244 10.3079 25.0069 10.3557 25.3022 10.6604C25.5975 10.9651 25.6312 11.3288 25.3959 11.7235C24.6459 12.9647 23.8959 14.2004 23.1412 15.4388C23.0934 15.5176 23.0522 15.6001 22.9875 15.7201C23.6766 15.8897 24.3412 16.0547 25.0059 16.2169C26.2528 16.5216 27.4997 16.8282 28.7484 17.1272C29.1103 17.2135 29.3634 17.4085 29.4572 17.7751C29.4853 17.8834 29.4913 17.9963 29.4749 18.107C29.4585 18.2177 29.4199 18.324 29.3616 18.4195C29.3033 18.515 29.2263 18.5978 29.1353 18.663C29.0443 18.7282 28.9411 18.7743 28.8319 18.7988C27.7125 19.0801 26.5875 19.351 25.4634 19.6172C25.3932 19.6388 25.3192 19.6454 25.2463 19.6365C25.1733 19.6276 25.1031 19.6034 25.0401 19.5656C24.9772 19.5277 24.9229 19.477 24.8808 19.4168C24.8387 19.3566 24.8098 19.2881 24.7959 19.216C24.7369 18.9394 24.9037 18.6863 25.2328 18.6019C26.0212 18.3994 26.8134 18.2091 27.615 17.9457C27.3216 17.8688 27.03 17.7872 26.7356 17.7151C24.6825 17.2154 22.6312 16.711 20.5744 16.2244C20.0972 16.1119 19.8337 15.8494 19.7194 15.376C19.1709 13.0819 18.6066 10.7926 18.0469 8.50131C18.0402 8.46739 18.0268 8.43517 18.0073 8.40664C17.9878 8.37811 17.9626 8.35386 17.9334 8.33537C17.8284 8.75537 17.7216 9.17912 17.6194 9.59537C17.1506 11.5351 16.6725 13.4747 16.2084 15.4163C16.1006 15.8663 15.8334 16.1119 15.3891 16.2188C13.0969 16.7701 10.8066 17.3326 8.51625 17.8913C8.44421 17.905 8.3794 17.9439 8.33344 18.001C8.44406 18.0347 8.55375 18.0732 8.66531 18.1004C10.8881 18.6422 13.11 19.1916 15.3366 19.7176C15.8456 19.8376 16.1072 20.1094 16.2272 20.6157C16.7522 22.8422 17.3025 25.0641 17.8444 27.2869C17.8691 27.4069 17.9247 27.5184 18.0056 27.6104C18.1744 26.9279 18.3469 26.2463 18.5128 25.5629C18.9187 23.8951 19.3284 22.2282 19.7222 20.5585C19.8319 20.0944 20.0897 19.8329 20.5547 19.7279C21.4547 19.5254 22.3481 19.2966 23.2453 19.0838C23.6203 18.9901 23.8809 19.126 23.9681 19.4372C24.0553 19.7485 23.8744 19.9885 23.505 20.0935C23.3484 20.1376 23.1909 20.1779 22.9903 20.2322C23.0606 20.3588 23.115 20.4666 23.1778 20.5697C23.9119 21.7782 24.6516 22.9829 25.38 24.1941C25.7119 24.7482 25.5 25.3838 24.9112 25.5066C24.6515 25.542 24.3874 25.4892 24.1612 25.3566C23.0006 24.6807 21.8597 23.971 20.7112 23.2735C20.5631 23.1797 20.4131 23.0963 20.2247 22.9838C20.0278 23.7882 19.8403 24.5551 19.6519 25.3229C19.3706 26.4563 19.0997 27.5916 18.8194 28.7251C18.6919 29.2397 18.4003 29.491 17.9569 29.4863C17.5134 29.4816 17.2425 29.2332 17.1206 28.7363C16.6769 26.9332 16.2356 25.1301 15.7969 23.3269C15.7725 23.2257 15.7416 23.1263 15.7031 22.9885L14.6081 23.6522C13.6594 24.2288 12.7144 24.8101 11.7619 25.381C11.2059 25.7147 10.5675 25.5188 10.4437 24.9376C10.4045 24.6662 10.4584 24.3896 10.5966 24.1529C11.2903 22.9613 12.0187 21.7904 12.7341 20.6119C12.7997 20.5032 12.8625 20.3926 12.9441 20.2538C12.8325 20.2154 12.7406 20.176 12.6459 20.1535C10.8653 19.716 9.08406 19.2813 7.30219 18.8494C6.71344 18.7051 6.45844 18.4379 6.45844 17.9804C6.45844 17.5229 6.70969 17.2519 7.29562 17.1085C9.77906 16.5029 12.2644 15.8897 14.7487 15.3019C15.0834 15.2232 15.2259 15.0666 15.2934 14.7394C15.4387 14.0476 15.4547 14.0504 14.8397 13.6744C13.9728 13.1438 13.105 12.6147 12.2362 12.0872C12.1519 12.0357 12.0619 11.9935 11.9747 11.9457L11.9269 11.9832ZM11.9269 23.9513L11.9812 24.0066L14.6944 22.3594C15.4537 21.8982 15.4537 21.8982 15.2334 21.0329C15.1744 20.7976 14.2369 20.4047 14.0287 20.5304C13.9923 20.5593 13.9634 20.5966 13.9444 20.6391C13.2731 21.7429 12.6006 22.8469 11.9269 23.9513ZM23.9475 24.0094C23.9719 23.9682 23.9841 23.9551 23.9812 23.9504C23.3137 22.8422 22.6472 21.7341 21.9694 20.6316C21.9379 20.5978 21.899 20.5717 21.8557 20.5554C21.8124 20.5392 21.766 20.5332 21.72 20.5379C20.7647 20.6869 20.7647 20.6897 20.5491 21.6272C20.5475 21.6388 20.5446 21.6501 20.5406 21.661C20.4394 21.856 20.5406 21.9488 20.7037 22.0454C21.5353 22.5404 22.3603 23.0457 23.1872 23.5454C23.4416 23.6991 23.695 23.8538 23.9475 24.0094ZM24 11.9897L23.9466 11.9354L21.2334 13.5844C20.4741 14.0457 20.4741 14.0457 20.6934 14.9091C20.7525 15.1407 21.6937 15.5354 21.8991 15.4097C21.9349 15.3802 21.9638 15.3431 21.9834 15.301L24 11.9897Z" fill="#B07FD8"/>
<path d="M15.0572 34.2478C14.2697 34.0331 13.4634 33.8728 12.6984 33.5915C7.30031 31.6331 3.75 27.914 2.08219 22.4043C2.06046 22.3379 2.04231 22.2703 2.02781 22.2018C1.96406 21.8643 2.1 21.614 2.385 21.5456C2.67 21.4771 2.92219 21.6037 3.03094 21.9281C3.1875 22.3968 3.30563 22.8712 3.48656 23.3259C5.59969 28.6197 9.43938 31.8862 15.0056 33.1256C15.0853 33.1434 15.1669 33.1556 15.2438 33.18C15.525 33.2737 15.675 33.4762 15.6188 33.7668C15.5625 34.0575 15.375 34.2056 15.0572 34.2478Z" fill="#B07FD8"/>
<path d="M15 2.36341C14.9738 2.73841 14.7263 2.84997 14.4272 2.95028C13.3894 3.29716 12.3131 3.57184 11.3334 4.04622C7.24125 6.02903 4.52532 9.22591 3.16407 13.5684C3.13969 13.6462 3.12094 13.7259 3.09188 13.8028C2.97375 14.1131 2.71688 14.2537 2.43563 14.1712C2.36736 14.1529 2.30376 14.1202 2.24903 14.0755C2.1943 14.0307 2.14969 13.9749 2.11815 13.9116C2.0866 13.8484 2.06884 13.7791 2.06604 13.7085C2.06323 13.6378 2.07545 13.5674 2.10188 13.5018C2.4 12.6431 2.65688 11.7609 3.05438 10.9481C5.35688 6.24372 9.05094 3.23684 14.1366 1.92747C14.5838 1.81216 14.8238 1.89185 14.9484 2.18153C14.9696 2.24097 14.9868 2.30173 15 2.36341Z" fill="#B07FD8"/>
<path d="M21.6394 1.85535C22.3612 2.0841 23.1019 2.26878 23.8031 2.55003C28.8225 4.56378 32.1466 8.15191 33.7753 13.3144C33.8334 13.5019 33.8587 13.7522 33.7753 13.9125C33.7227 13.99 33.652 14.0534 33.5694 14.0974C33.4867 14.1413 33.3946 14.1644 33.3009 14.1647C33.2047 14.1422 33.1145 14.0992 33.0364 14.0387C32.9583 13.9782 32.894 13.9016 32.8481 13.8141C32.6709 13.4232 32.5828 12.9928 32.4244 12.5953C30.4581 7.62597 26.9 4.4291 21.75 3.00472C21.625 2.97617 21.502 2.93985 21.3816 2.89597C21.3195 2.87651 21.2619 2.84474 21.2124 2.80257C21.1629 2.7604 21.1223 2.70868 21.0932 2.6505C21.064 2.59232 21.0469 2.52887 21.0428 2.46394C21.0387 2.399 21.0478 2.33391 21.0694 2.27254C21.1397 2.00816 21.3431 1.87878 21.6394 1.85535Z" fill="#B07FD8"/>
<path d="M21.615 34.0491C21.3 34.0397 21.1078 33.9019 21.0572 33.6263C20.9991 33.3141 21.1509 33.1051 21.4519 33.0151C21.8766 32.8876 22.3116 32.7947 22.7297 32.6494C27.7803 30.8951 31.1241 27.4719 32.7609 22.3801C32.7722 22.3472 32.7769 22.3116 32.7872 22.2788C32.9184 21.8551 33.1622 21.6788 33.4856 21.7679C33.8091 21.8569 33.9262 22.1513 33.8025 22.5704C33.4137 23.9309 32.8442 25.2331 32.1094 26.4422C29.7087 30.3404 26.2909 32.8576 21.8559 33.9938C21.7659 34.0172 21.675 34.0351 21.615 34.0491Z" fill="#B07FD8"/>
<path d="M18.8681 3.03088C18.8681 2.15526 18.8512 1.37432 18.8803 0.593384C18.8906 0.494243 18.9207 0.3982 18.9691 0.311037C19.0174 0.223873 19.0829 0.147392 19.1616 0.086196C19.2769 0.00650855 19.5431 0.0280709 19.6697 0.112446C19.7402 0.169597 19.7982 0.240764 19.8398 0.321449C19.8814 0.402134 19.9059 0.490581 19.9116 0.581196C19.9387 1.91338 19.9406 3.24557 19.9462 4.57776C19.9462 4.8637 19.8178 5.07463 19.5366 5.1637C19.2553 5.25276 19.0341 5.12713 18.8737 4.89838C18.2869 4.05463 17.7037 3.21088 17.0662 2.28932C17.0503 2.4562 17.0344 2.54807 17.0344 2.63901C17.0344 3.29526 17.0569 3.95151 17.0184 4.60213C17.009 4.71272 16.9771 4.82021 16.9247 4.91805C16.8723 5.01589 16.8005 5.10203 16.7137 5.1712C16.3716 5.39338 15.9862 5.09994 15.9834 4.63776C15.9769 3.29432 15.9834 1.94995 15.9834 0.606509C15.9834 0.325259 16.0903 0.126509 16.3584 0.0440088C16.6266 -0.0384912 16.8272 0.0918214 16.9819 0.312134L18.615 2.67651C18.6759 2.76651 18.7444 2.85932 18.8681 3.03088Z" fill="#662E93"/>
<path d="M34.1878 16.4269V17.4535C34.5628 17.4535 34.9256 17.4441 35.2922 17.4535C35.4092 17.4571 35.5215 17.5005 35.6105 17.5766C35.6996 17.6527 35.76 17.7568 35.7818 17.8719C35.8037 17.9869 35.7857 18.1059 35.7307 18.2093C35.6758 18.3128 35.5872 18.3943 35.4797 18.4406C35.3461 18.4828 35.2062 18.5015 35.0663 18.496C34.785 18.5035 34.5084 18.496 34.2047 18.496V19.5094C34.5544 19.5094 34.9106 19.5094 35.2678 19.5094C35.6784 19.5094 35.9241 19.7035 35.9241 20.025C35.9241 20.3466 35.6813 20.5585 35.2509 20.5603C34.7597 20.5603 34.2694 20.5603 33.7791 20.5603C33.3244 20.5603 33.1284 20.3728 33.1275 19.9294C33.1225 18.6206 33.1225 17.3122 33.1275 16.0041C33.1275 15.5578 33.3225 15.3722 33.7744 15.3694C34.2881 15.3694 34.8056 15.3647 35.3166 15.3694C35.6916 15.3741 35.9278 15.5869 35.9241 15.9C35.9203 16.2131 35.6841 16.4147 35.3044 16.4194C34.9434 16.4306 34.5825 16.4269 34.1878 16.4269Z" fill="#662E93"/>
<path d="M36 0.50812C35.8762 0.701245 35.8125 0.854995 35.7037 0.96562C34.7587 1.92062 33.8091 2.87093 32.8547 3.81656C32.5997 4.06968 32.2922 4.08374 32.0766 3.87656C31.8609 3.66937 31.8553 3.33843 32.1178 3.07406C33.0731 2.11218 34.0247 1.1475 35.0016 0.20812C35.0837 0.143961 35.1788 0.098478 35.2804 0.0748393C35.3819 0.0512007 35.4873 0.0499738 35.5894 0.0712444C35.7469 0.113432 35.8547 0.34312 36 0.50812Z" fill="#662E93"/>
</g>
<defs>
<clipPath id="clip0_114_60">
<rect width="36" height="35.9353" fill="white"/>
</clipPath>
</defs>
</svg>
