<svg width="26" height="36" viewBox="0 0 26 36" fill="none" xmlns="http://www.w3.org/2000/svg">
<g clip-path="url(#clip0_114_76)">
<path d="M2.89111 36C2.28751 35.8537 1.70418 35.6695 1.21249 35.2589C0.259068 34.4659 -0.0757745 33.4331 0.0141044 32.1845H1.60637C1.61518 32.0418 1.6284 31.9404 1.6284 31.8382C1.6284 30.5729 1.6284 29.3066 1.63457 28.0404C1.63457 27.8245 1.56848 27.7179 1.37991 27.6086C1.13019 27.4699 0.921999 27.267 0.776785 27.021C0.631571 26.775 0.554592 26.4947 0.553784 26.209C0.552976 25.9234 0.628368 25.6426 0.772188 25.3958C0.916007 25.149 1.12305 24.9449 1.37198 24.8048C1.45925 24.765 1.53175 24.6987 1.57921 24.6153C1.62666 24.5319 1.64665 24.4358 1.63633 24.3404C1.62575 23.0865 1.63104 21.8317 1.63104 20.5769V20.2456H0.028202V19.1442H25.1828V20.2227H18.3873C18.3776 20.3443 18.3635 20.4439 18.3635 20.5435C18.3635 21.8211 18.3635 23.0988 18.3591 24.3774C18.3495 24.4615 18.367 24.5465 18.4089 24.62C18.4509 24.6936 18.5153 24.7518 18.5926 24.7863C19.7275 25.4357 19.7152 26.9733 18.5864 27.6368C18.4916 27.7037 18.4166 27.7951 18.3697 27.9012C18.3362 27.9664 18.3626 28.0616 18.3626 28.1444V32.1449H22.4336C22.4415 32.0479 22.4574 31.9475 22.4574 31.8479C22.4574 30.5817 22.4574 29.3155 22.4627 28.0492C22.4627 27.8439 22.4195 27.7241 22.2203 27.6086C21.9694 27.4722 21.7594 27.2712 21.6123 27.0264C21.4651 26.7816 21.3861 26.5019 21.3834 26.2162C21.3807 25.9306 21.4544 25.6495 21.597 25.4019C21.7395 25.1544 21.9456 24.9494 22.1939 24.8083C22.4142 24.6788 22.4662 24.5439 22.4627 24.3113C22.4521 23.4302 22.4583 22.549 22.4583 21.6731V21.3127H23.5703V23.3209C23.5703 23.5086 23.5809 23.6963 23.5703 23.8831C23.5403 24.3333 23.595 24.6638 24.047 24.9836C24.9687 25.6348 24.8074 27.0262 23.8276 27.6192C23.7245 27.6818 23.5844 27.8043 23.5835 27.8994C23.5676 29.3093 23.5729 30.7112 23.5729 32.159H25.1423C25.4322 33.3441 24.7466 34.8906 23.6443 35.4942C23.2319 35.7198 22.7631 35.8343 22.3146 36H2.89111ZM6.79379 32.1554C6.81229 32.1132 6.82903 32.0929 6.82903 32.0673C6.82903 30.6839 6.83961 29.3005 6.82903 27.917C6.82903 27.8175 6.70303 27.6871 6.60257 27.6271C5.49495 26.9663 5.48085 25.4357 6.59288 24.7924C6.67552 24.7558 6.74443 24.694 6.78971 24.6158C6.83499 24.5376 6.85431 24.447 6.8449 24.3571C6.83432 23.0909 6.84049 21.8247 6.83873 20.5584C6.83873 20.4571 6.82551 20.3566 6.81846 20.2562H2.74219C2.74219 21.6854 2.74219 23.0909 2.75188 24.4955C2.75188 24.5836 2.86996 24.7061 2.96336 24.7598C4.09302 25.4383 4.10888 26.9627 2.97129 27.6122C2.89396 27.6466 2.82966 27.7048 2.7878 27.7784C2.74595 27.8519 2.72873 27.937 2.73867 28.021C2.7466 28.9242 2.73867 29.8265 2.73867 30.7297V32.1493L6.79379 32.1554ZM7.949 20.2483C7.949 21.6899 7.94371 23.0944 7.95957 24.4981C7.95957 24.5959 8.09527 24.7219 8.19837 24.7836C9.29894 25.4471 9.30158 26.9786 8.18427 27.6148C7.98336 27.7294 7.94371 27.851 7.94459 28.0554C7.95252 29.3084 7.94459 30.5614 7.949 31.8153C7.949 31.9272 7.96309 32.0383 7.97014 32.1484H12.0429C12.0429 30.7147 12.0473 29.3102 12.0341 27.9056C12.0341 27.8175 11.9178 27.6941 11.8252 27.6412C10.6938 26.9733 10.6753 25.4463 11.8085 24.7933C12.0068 24.6788 12.0482 24.5563 12.0473 24.3527C12.0394 23.0988 12.0473 21.8458 12.0429 20.5919C12.0429 20.48 12.0323 20.3681 12.0261 20.2509L7.949 20.2483ZM17.2506 32.1599C17.2506 30.7121 17.2506 29.2952 17.24 27.8792C17.24 27.791 17.1061 27.6835 17.01 27.6271C15.905 26.9733 15.8945 25.4383 17.01 24.796C17.0923 24.7589 17.1608 24.6967 17.2056 24.6184C17.2504 24.54 17.2692 24.4495 17.2594 24.3598C17.2497 23.1182 17.255 21.8767 17.255 20.6342V20.2571H13.1814C13.1703 20.2963 13.1624 20.3364 13.1576 20.3769C13.1576 21.7357 13.1496 23.0953 13.1646 24.4532C13.1646 24.5642 13.2897 24.7131 13.3964 24.7775C14.4996 25.4463 14.511 26.9698 13.3964 27.6113C13.3141 27.6478 13.2457 27.7097 13.201 27.7878C13.1563 27.8659 13.1377 27.9563 13.1479 28.0457C13.1576 29.311 13.1479 30.5764 13.154 31.8409C13.154 31.9422 13.1673 32.0435 13.1752 32.1599H17.2506ZM1.17548 33.2877C1.2171 33.4188 1.26624 33.5474 1.32263 33.6728C1.77115 34.5284 2.49018 34.8941 3.44536 34.8932C9.55125 34.8874 15.6565 34.8874 21.7613 34.8932C21.9014 34.8932 22.0424 34.8932 22.1825 34.8774C23.0442 34.806 23.8734 34.079 23.9765 33.2913L1.17548 33.2877ZM2.6999 26.2049C2.70004 26.0689 2.64774 25.938 2.55386 25.8396C2.45999 25.7411 2.33177 25.6826 2.19587 25.6762C2.05968 25.6761 1.92868 25.7285 1.83019 25.8226C1.73169 25.9167 1.6733 26.0451 1.66717 26.1811C1.66324 26.2504 1.67329 26.3197 1.69674 26.385C1.72018 26.4502 1.75652 26.5101 1.80361 26.561C1.85069 26.6119 1.90755 26.6528 1.97079 26.6813C2.03403 26.7098 2.10235 26.7252 2.17168 26.7267C2.24101 26.7281 2.30993 26.7156 2.37433 26.6899C2.43872 26.6642 2.49727 26.6257 2.54649 26.5769C2.5957 26.528 2.63457 26.4698 2.66078 26.4055C2.68698 26.3413 2.69999 26.2725 2.69901 26.2032L2.6999 26.2049ZM7.36566 26.7187C7.43273 26.7233 7.50005 26.7145 7.56365 26.6927C7.62726 26.671 7.68587 26.6367 7.73604 26.592C7.78621 26.5472 7.82692 26.4929 7.85577 26.4322C7.88463 26.3715 7.90104 26.3056 7.90406 26.2384C7.90932 26.1683 7.90037 26.0979 7.87773 26.0314C7.8551 25.9648 7.81925 25.9035 7.77234 25.8512C7.72543 25.7988 7.66842 25.7565 7.60475 25.7268C7.54107 25.697 7.47204 25.6804 7.40179 25.678C7.26622 25.679 7.13621 25.7321 7.03863 25.8262C6.94105 25.9203 6.88337 26.0483 6.8775 26.1838C6.87407 26.2511 6.884 26.3183 6.90674 26.3817C6.92948 26.4451 6.96456 26.5034 7.00996 26.5531C7.05536 26.6028 7.11018 26.6431 7.17123 26.6715C7.23229 26.6999 7.29837 26.7159 7.36566 26.7187ZM13.1144 26.219C13.1177 26.1515 13.1077 26.084 13.0849 26.0204C13.0621 25.9567 13.027 25.8982 12.9815 25.8481C12.9361 25.798 12.8813 25.7574 12.8202 25.7285C12.7591 25.6996 12.6929 25.6831 12.6253 25.6798C12.5578 25.6765 12.4903 25.6865 12.4267 25.7093C12.363 25.7321 12.3045 25.7672 12.2544 25.8126C12.2043 25.858 12.1637 25.9128 12.1348 25.974C12.1059 26.0351 12.0894 26.1013 12.0861 26.1688C12.0828 26.2363 12.0928 26.3038 12.1156 26.3675C12.1384 26.4311 12.1735 26.4897 12.2189 26.5397C12.2643 26.5898 12.3191 26.6305 12.3803 26.6593C12.4414 26.6882 12.5076 26.7048 12.5751 26.7081C12.6426 26.7114 12.7101 26.7013 12.7738 26.6786C12.8374 26.6558 12.896 26.6207 12.946 26.5752C12.9961 26.5298 13.0368 26.475 13.0656 26.4139C13.0945 26.3528 13.1111 26.2866 13.1144 26.219ZM18.3221 26.2049C18.3251 26.0685 18.2738 25.9364 18.1794 25.8377C18.0851 25.7391 17.9554 25.6819 17.8189 25.6789C17.6824 25.6758 17.5504 25.7272 17.4517 25.8215C17.353 25.9159 17.2959 26.0456 17.2929 26.182C17.2914 26.2496 17.3032 26.3168 17.3277 26.3798C17.3521 26.4428 17.3888 26.5004 17.4355 26.5493C17.5299 26.6479 17.6595 26.705 17.796 26.7081C17.9325 26.7111 18.0646 26.6598 18.1632 26.5655C18.2619 26.4711 18.319 26.3414 18.3221 26.2049ZM23.5324 26.1873C23.5254 26.0538 23.4671 25.9282 23.3696 25.8368C23.272 25.7454 23.1429 25.6953 23.0092 25.697C22.8756 25.6987 22.7478 25.7521 22.6526 25.846C22.5575 25.9399 22.5023 26.0669 22.4988 26.2005C22.497 26.2701 22.5092 26.3394 22.5348 26.4042C22.5603 26.4689 22.5987 26.5279 22.6476 26.5775C22.6965 26.627 22.7549 26.6662 22.8193 26.6927C22.8838 26.7191 22.9528 26.7323 23.0225 26.7314C23.0921 26.7305 23.1608 26.7156 23.2245 26.6875C23.2883 26.6594 23.3456 26.6187 23.3933 26.5679C23.4409 26.5171 23.4777 26.4572 23.5017 26.3918C23.5256 26.3264 23.536 26.2569 23.5324 26.1873Z" fill="#B07FD8"/>
<path d="M13.1496 2.68137V18.115H12.0543V2.68314H5.35749V8.24329H4.25339V2.6664H3.20392V1.58521H21.993V2.64877H20.9805V18.1026H19.8606V2.68226L13.1496 2.68137Z" fill="#B07FD8"/>
<path d="M22.7922 0V1.06797H2.41086V0H22.7922Z" fill="#662E93"/>
<path d="M4.25778 12.0067H5.32664V18.1105H4.25778V12.0067Z" fill="#662E93"/>
<path d="M16.172 13.3752L15.2706 12.7425L18.0022 8.83191L18.9089 9.46194L16.172 13.3752Z" fill="#662E93"/>
<path d="M7.19382 11.4164L6.2915 10.7864L9.03105 6.87048L9.93336 7.50492L7.19382 11.4164Z" fill="#662E93"/>
<path d="M8.25387 13.3725L7.35068 12.7425L10.0911 8.82837L10.9925 9.46281C10.077 10.7696 9.17293 12.0596 8.25387 13.3725Z" fill="#662E93"/>
<path d="M16.9466 6.87134C17.2506 7.08546 17.5343 7.28372 17.8489 7.50401L15.1111 11.4155L14.2079 10.7846C15.1199 9.47782 16.0249 8.1878 16.9466 6.87134Z" fill="#662E93"/>
<path d="M5.32488 10.6488H4.26044V9.5791H5.32488V10.6488Z" fill="#662E93"/>
</g>
<defs>
<clipPath id="clip0_114_76">
<rect width="25.2066" height="36" fill="white"/>
</clipPath>
</defs>
</svg>
