<svg width="37" height="36" viewBox="0 0 37 36" fill="none" xmlns="http://www.w3.org/2000/svg">
<g clip-path="url(#clip0_384_54)">
<path d="M36.0134 22.5684V21.8625C35.8193 21.2152 35.5066 20.647 34.8656 20.3526C34.6355 20.2503 34.6016 20.1155 34.6016 19.9037C34.6073 17.2707 34.6087 14.6382 34.6059 12.0061C34.6059 11.9038 34.6158 11.8021 34.6214 11.6786C35.1515 11.6638 35.7191 11.7816 36.012 11.1802V10.7567C35.8525 10.5901 35.7127 10.3981 35.5313 10.2626C33.7828 8.94182 32.0336 7.62321 30.2674 6.32577C30.0321 6.16006 29.7533 6.06704 29.4655 6.05824C27.5787 6.03565 25.6911 6.04976 23.8042 6.042C23.5714 6.04107 23.34 6.00709 23.1167 5.94106C18.5519 4.57632 13.9904 3.209 9.4322 1.83909C8.62325 1.59627 8.62254 1.59697 8.58018 0.764719C8.55689 0.310828 8.26465 -0.00117722 7.86864 0.00446995C7.47264 0.0101171 7.19028 0.322123 7.17545 0.780956C7.16769 1.0259 7.17545 1.27155 7.17545 1.51509C6.13849 1.96686 5.72625 2.76664 5.76366 3.85302C5.78837 4.57444 5.7686 5.29728 5.7686 6.04624H5.34506C3.86833 6.04624 2.39136 6.04624 0.914154 6.04624C0.244965 6.04624 1.90735e-05 6.29118 -0.00351334 6.95896C-0.00351334 8.22439 -0.00351334 9.49007 -0.00351334 10.756C-0.00351334 11.4252 0.241432 11.6701 0.90921 11.6736C2.16335 11.6736 3.41773 11.6736 4.67234 11.6736H5.04294V34.599C4.79658 34.599 4.56434 34.5849 4.33704 34.6026C4.19448 34.6054 4.05643 34.653 3.94241 34.7387C3.8284 34.8243 3.74421 34.9436 3.70174 35.0797C3.60503 35.3529 3.68127 35.5887 3.87398 35.7856C3.95898 35.8631 4.04984 35.9339 4.14574 35.9974H29.8234C30.2724 35.7687 30.4383 35.5118 30.3634 35.163C30.2808 34.779 29.9957 34.5948 29.4782 34.5913H29.0067V17.2919H29.4542C30.1432 17.2919 30.3846 17.0483 30.386 16.3594C30.386 15.598 30.386 14.8361 30.386 14.0737C30.386 13.2866 30.1743 13.0727 29.3822 13.0727H13.1C13.0182 13.0727 12.9363 13.0727 12.8544 13.0727C12.3864 13.0981 12.1097 13.3593 12.1033 13.828C12.0906 14.7302 12.0906 15.6325 12.1033 16.5351C12.1097 17.0032 12.3857 17.2665 12.8565 17.2876C13.0633 17.2975 13.2709 17.2876 13.4812 17.2876V34.5659H10.712V11.6948H33.1898V20.2213C33.0889 20.2722 32.9929 20.3145 32.9018 20.3675C32.1959 20.7741 31.807 21.3896 31.8013 22.2028C31.7957 23.016 32.1635 23.6569 32.8828 24.0431C33.144 24.1842 33.2428 24.3325 33.2018 24.6078C33.1955 24.6895 33.1955 24.7717 33.2018 24.8534C33.2075 25.4181 33.3889 25.6003 33.9353 25.752C34.1738 25.8244 34.3819 25.9732 34.5275 26.1756C34.7174 26.4579 34.5656 26.8391 34.2692 27.0226C33.9296 27.2344 33.6141 27.1582 33.2908 26.7833C32.9675 26.4085 32.6089 26.3407 32.2785 26.5836C31.9482 26.8264 31.9065 27.2457 32.179 27.6424C32.7571 28.4895 33.9155 28.7789 34.8353 28.3222C35.4819 28.001 35.8115 27.4441 36.0155 26.7869V26.081C35.8038 25.3666 35.4297 24.7878 34.7153 24.4744C34.6751 24.4567 34.6743 24.192 34.7153 24.1708C35.4226 23.8567 35.8017 23.2849 36.0134 22.5684ZM27.554 34.5687H24.7798V31.3604C24.9831 31.3604 25.173 31.3858 25.3516 31.3533C25.5513 31.3173 25.7751 31.27 25.929 31.1528C26.1591 30.9778 26.2226 30.7067 26.1139 30.4229C25.9897 30.0982 25.7349 29.9556 25.401 29.9535C24.6746 29.9486 23.9483 29.9535 23.2212 29.9535C21.2061 29.9535 19.1903 29.9535 17.1738 29.9535C16.6592 29.9535 16.3316 30.2267 16.3232 30.6439C16.314 31.0738 16.6507 31.3554 17.1829 31.3618C17.3545 31.3618 17.526 31.3618 17.6982 31.3618V34.575H14.9368V17.2961H15.3413C17.2524 17.2961 19.1627 17.2961 21.0724 17.2961C21.3978 17.2961 21.6809 17.2255 21.8489 16.9227C22.1405 16.4067 21.7783 15.8758 21.1261 15.8744C18.735 15.8702 16.3441 15.8702 13.9535 15.8744H13.5426V14.5233H28.9474V15.8744C28.2641 15.8744 27.5991 15.8688 26.9349 15.8744C26.4951 15.8794 26.1725 16.1624 26.1584 16.5309C26.1443 16.9502 26.4549 17.2686 26.9109 17.2912C27.1184 17.301 27.3267 17.2912 27.5519 17.2912L27.554 34.5687ZM9.99904 3.47607L18.3413 5.97776L18.3314 6.0187H10.0019L9.99904 3.47607ZM5.05776 10.2329H1.43157V7.47567H5.05706L5.05776 10.2329ZM6.50344 32.8823V25.2586L9.1329 28.8502L6.50344 32.8823ZM9.13149 17.2749L6.4985 20.8701V13.3297L9.13149 17.2749ZM27.2236 7.45873L27.2504 7.52226C26.0066 8.35028 24.7643 9.18324 23.5092 9.99855C23.4351 10.0473 23.2466 9.99855 23.1562 9.9329C22.1235 9.16983 21.0964 8.39334 20.0602 7.62109C19.9999 7.58972 19.9351 7.56781 19.8682 7.55615L19.9592 7.45591L27.2236 7.45873ZM15.5996 7.45873L12.0701 10.1016L8.10935 7.45873H15.5996ZM29.6604 7.60768L33.1616 10.2329H25.7172L29.6604 7.60768ZM9.26985 26.6528C8.39595 25.4598 7.5757 24.3487 6.77239 23.2242C6.71521 23.1437 6.74415 22.9355 6.81121 22.8416C7.46981 21.9162 8.14535 21.0028 8.81666 20.0886C8.95149 19.9044 9.08773 19.7223 9.26985 19.4773V26.6528ZM14.2972 10.2527C14.3318 10.1941 14.3389 10.1701 14.3544 10.1581C15.4217 9.35477 16.4926 8.5564 17.555 7.74603C17.7244 7.61685 17.8232 7.69521 17.9495 7.7905C18.9693 8.55852 19.9912 9.32559 21.0153 10.0917C21.0767 10.1224 21.1428 10.1429 21.2108 10.1524L21.1148 10.2562L14.2972 10.2527ZM7.18039 6.02506C7.18039 5.16034 7.16839 4.31891 7.18675 3.47818C7.19451 3.11959 7.51075 2.81817 7.8037 2.8217C8.21735 2.82735 8.54983 3.06453 8.56324 3.45277C8.59148 4.30408 8.57171 5.1561 8.57171 6.02506H7.18039ZM7.07804 34.5793L9.26632 31.2227V34.5793H7.07804ZM9.73574 10.2364H6.49285V8.07498L9.73574 10.2364ZM9.27126 14.8297L9.21337 14.8643C8.51383 13.8139 7.81429 12.7635 7.09569 11.6878H9.27126V14.8297Z" fill="#B07FD8"/>
<path d="M24.0301 18.7035C23.5974 18.7035 23.164 18.6957 22.7313 18.7035C22.2273 18.7147 21.9548 18.9858 21.947 19.4948C21.9386 20.3724 21.9386 21.2501 21.947 22.1278C21.952 22.6353 22.2294 22.9148 22.7299 22.9198C23.6193 22.9297 24.5087 22.9297 25.3982 22.9198C25.8803 22.9134 26.1584 22.6311 26.1641 22.1433C26.1744 21.2539 26.1744 20.3647 26.1641 19.4757C26.1584 18.9752 25.8754 18.7147 25.3643 18.6992H24.0301V18.7035ZM24.7269 20.1407V21.4819H23.392V20.1407H24.7269Z" fill="#662E93"/>
<path d="M18.4027 18.7035C17.97 18.7035 17.5366 18.6958 17.1039 18.7035C16.5999 18.7148 16.3274 18.9859 16.3203 19.4955C16.3114 20.3732 16.3114 21.2506 16.3203 22.1278C16.3253 22.6354 16.6027 22.9149 17.1039 22.9198C17.9924 22.9297 18.8816 22.9297 19.7715 22.9198C20.2536 22.9142 20.5317 22.6318 20.5374 22.1434C20.5472 21.2544 20.5472 20.3652 20.5374 19.4758C20.531 18.976 20.2486 18.7099 19.7369 18.6993C19.2922 18.6929 18.8474 18.7035 18.4027 18.7035ZM19.0959 20.133V21.4777H17.7681V20.1294L19.0959 20.133Z" fill="#662E93"/>
<path d="M26.1676 26.4097C26.1676 25.9861 26.1725 25.5668 26.1676 25.1454C26.1591 24.6125 25.8951 24.3336 25.3735 24.328C24.4958 24.3191 23.6181 24.3191 22.7405 24.328C22.2329 24.3329 21.9541 24.6104 21.9491 25.1115C21.9393 26.001 21.9393 26.8902 21.9491 27.7791C21.9548 28.2613 22.2379 28.5387 22.7256 28.5443C23.6146 28.5542 24.5038 28.5542 25.3932 28.5443C25.893 28.538 26.1591 28.2549 26.1697 27.7431C26.1739 27.2984 26.1676 26.8537 26.1676 26.4097ZM23.3941 27.1099V25.7624H24.724V27.1071L23.3941 27.1099Z" fill="#662E93"/>
<path d="M16.3189 26.4477C16.3189 26.8713 16.3147 27.2906 16.3189 27.7113C16.326 28.2654 16.5893 28.5407 17.1335 28.5449C17.999 28.5529 18.8649 28.5529 19.7312 28.5449C20.2585 28.5407 20.5331 28.2668 20.5381 27.7402C20.5461 26.8748 20.5461 26.0091 20.5381 25.1432C20.5331 24.5976 20.2599 24.3307 19.7065 24.3265C18.8524 24.3209 17.9983 24.3209 17.1441 24.3265C16.5942 24.33 16.3267 24.6011 16.3182 25.1489C16.3126 25.5823 16.3189 26.015 16.3189 26.4477ZM17.7597 25.7715H19.091V27.1077H17.7582L17.7597 25.7715Z" fill="#662E93"/>
<path d="M24.0661 15.88C23.6913 15.8743 23.3461 16.1969 23.3461 16.5534C23.3461 16.9452 23.6687 17.2861 24.0464 17.2925C24.424 17.2988 24.7523 16.9706 24.765 16.5731C24.7763 16.2138 24.4431 15.8835 24.0661 15.88Z" fill="#662E93"/>
</g>
<defs>
<clipPath id="clip0_384_54">
<rect width="36.0134" height="36" fill="white" transform="matrix(-1 0 0 1 36.0134 0)"/>
</clipPath>
</defs>
</svg>
