<svg width="16" height="16" viewBox="0 0 16 16" fill="none" xmlns="http://www.w3.org/2000/svg">
<g clip-path="url(#clip0_236_54)">
<path d="M8.09375 0C8.93931 0.69 9.78486 1.37972 10.6304 2.06917C12.3696 3.48583 14.1093 4.90083 15.8496 6.31417C15.9027 6.36267 15.953 6.41429 16 6.46875V6.625C15.9254 6.75 15.815 6.78542 15.6712 6.78375C15.1146 6.7775 14.5575 6.78125 13.9771 6.78125V6.95542C13.9771 7.49167 13.9771 8.02833 13.9771 8.56458C13.9771 8.67667 13.9529 8.77292 13.8442 8.825C13.6863 8.90167 13.5183 8.79292 13.5108 8.59917C13.5021 8.38083 13.5079 8.16208 13.5079 7.94333C13.5079 7.5525 13.5108 7.16208 13.5046 6.77125C13.5027 6.70702 13.4761 6.646 13.4304 6.60083C11.6296 5.15167 9.82681 3.70486 8.02208 2.26042C8.01251 2.2554 8.00246 2.25136 7.99208 2.24833C7.68667 2.4925 7.37417 2.74125 7.06292 2.99125C5.59264 4.17042 4.12167 5.34889 2.65 6.52667C2.59582 6.56405 2.55234 6.61493 2.52384 6.67426C2.49534 6.7336 2.48281 6.79934 2.4875 6.865C2.4975 7.40667 2.49167 7.94833 2.49125 8.49C2.49306 8.53685 2.49153 8.58378 2.48667 8.63042C2.46708 8.76917 2.37417 8.85083 2.24542 8.84583C2.11667 8.84083 2.0275 8.75458 2.02542 8.61125C2.02042 8.24708 2.02292 7.8825 2.02292 7.51792C2.02292 7.27917 2.02292 7.04083 2.02292 6.78125H1.84417C1.33875 6.78125 0.83375 6.77708 0.328333 6.78375C0.184583 6.78583 0.0745833 6.75042 0 6.625V6.46875C0.268333 6.24 0.532083 6.00583 0.805417 5.78333C3.12958 3.89111 5.45458 2.00028 7.78042 0.110833C7.82208 0.0754168 7.86375 0.0370833 7.90542 0H8.09375ZM15.0983 6.3125C15.015 6.2425 14.9658 6.19875 14.9146 6.15708C12.6521 4.31764 10.3903 2.4775 8.12917 0.636667C8.02583 0.553333 7.96958 0.5575 7.86958 0.63875C5.88458 2.25819 3.8975 3.875 1.90833 5.48917C1.58292 5.75375 1.25792 6.01917 0.897917 6.3125C1.30917 6.3125 1.67667 6.3175 2.04333 6.30875C2.12884 6.30555 2.21136 6.27649 2.28 6.22542C3.24111 5.46042 4.20028 4.69236 5.1575 3.92125C6.03056 3.22097 6.90375 2.52042 7.77708 1.81958C7.96458 1.66958 8.03625 1.67042 8.22792 1.82167C8.30167 1.87958 8.37375 1.93917 8.44708 1.99792C10.2096 3.41208 11.9725 4.82569 13.7358 6.23875C13.7816 6.27898 13.8386 6.30415 13.8992 6.31083C14.2846 6.31542 14.6696 6.3125 15.0983 6.3125Z" fill="#B07FD8"/>
<path d="M6.34375 16L6.125 15.7175H4.02916C3.72375 15.7175 3.66 15.655 3.65958 15.3558C3.65958 15.1058 3.65958 14.8558 3.65958 14.6058C3.65958 14.3837 3.73875 14.3033 3.95958 14.3029C4.63125 14.3012 5.30291 14.3012 5.97458 14.3029H6.15833C6.25291 14.0308 6.27083 14.0187 6.56416 14.0183H7.27708V13.535H2.36541C2.08458 13.535 2.02333 13.4754 2.02291 13.2017C2.02291 12.0714 2.02291 10.9412 2.02291 9.81124C2.02145 9.76435 2.02354 9.71741 2.02916 9.67083C2.04833 9.55124 2.1325 9.47041 2.24125 9.485C2.32458 9.49583 2.41 9.56833 2.46625 9.63708C2.50166 9.67875 2.49083 9.76624 2.49083 9.83333C2.49083 10.8439 2.49083 11.8542 2.49083 12.8642V13.0579H13.5083V9.83333C13.5083 9.59583 13.585 9.47874 13.7408 9.47541C13.8967 9.47208 13.9771 9.58833 13.9771 9.82499C13.9771 10.95 13.9771 12.075 13.9771 13.2C13.9771 13.4758 13.9154 13.5358 13.6354 13.5358H8.72166V14.0183C8.97541 14.0183 9.22833 14.0183 9.48166 14.0183C9.72375 14.0183 9.77333 14.06 9.82875 14.3025H9.99291C10.6646 14.3025 11.3364 14.3025 12.0083 14.3025C12.2708 14.3025 12.3396 14.3729 12.3417 14.6358C12.3417 14.8858 12.3417 15.1358 12.3417 15.3858C12.3417 15.6429 12.2662 15.7167 12.0037 15.7167H9.875L9.65625 16H6.34375ZM9.33333 15.5229V14.495H6.66666V15.5308H9.26958C9.29097 15.5295 9.31226 15.5268 9.33333 15.5229ZM4.1375 14.7808V15.2392H6.17666V14.7808H4.1375ZM9.81833 15.2354H11.8629V14.7825H9.81833V15.2354ZM7.76708 14.0046H8.23V13.5462H7.76708V14.0046Z" fill="#B07FD8"/>
<path fill-rule="evenodd" clip-rule="evenodd" d="M3.53126 0C3.63334 0.0725 3.72001 0.15625 3.67751 0.29625C3.63501 0.43625 3.51834 0.467083 3.38209 0.47125C2.43126 0.502083 1.67667 1.23417 1.57959 2.21542C1.57751 2.23625 1.57626 2.25708 1.57501 2.27792C1.57376 2.29875 1.57251 2.31958 1.57042 2.34042C1.55709 2.49042 1.46709 2.58417 1.33834 2.58375C1.30541 2.58381 1.27285 2.57688 1.24281 2.56341C1.21276 2.54994 1.18592 2.53025 1.16406 2.50563C1.1422 2.48101 1.12581 2.45203 1.11599 2.4206C1.10617 2.38917 1.10314 2.35602 1.10709 2.32333C1.11329 2.13116 1.14011 1.9402 1.18709 1.75375C1.46959 0.789583 2.11209 0.215 3.10042 0.028333C3.12999 0.0207966 3.15907 0.011474 3.18751 0.000416438L3.53126 0ZM12.9912 0.045165L12.9912 0.0451658C13.1179 0.0760523 13.2445 0.106934 13.3654 0.151667C13.8029 0.313465 14.1821 0.60211 14.4546 0.980665C14.7271 1.35922 14.8804 1.81047 14.895 2.27667C14.9008 2.45667 14.8192 2.57167 14.6771 2.58292C14.535 2.59417 14.4408 2.49208 14.4271 2.30917C14.3479 1.23875 13.6354 0.530416 12.57 0.470416C12.4471 0.463333 12.3571 0.415417 12.32 0.29625C12.2783 0.156667 12.3642 0.0724998 12.4667 0.000416438L12.8125 0C12.8717 0.0160256 12.9314 0.0305959 12.9912 0.045165ZM7.31292 12.1838H8.00001C8.21792 12.1838 8.43667 12.1842 8.65626 12.1858C8.91834 12.1833 8.99584 12.1088 8.99584 11.8525C8.99608 11.8046 8.99718 11.7567 8.99828 11.7088C9.00101 11.5901 9.00373 11.4713 8.99334 11.3525C8.96751 11.0683 9.06292 10.8663 9.33751 10.76C9.39025 10.7375 9.43983 10.7082 9.48501 10.6729C9.66751 10.5379 9.84709 10.5467 10.0358 10.665C10.2096 10.7738 10.3892 10.8744 10.5682 10.9747L10.5683 10.9748L10.5888 10.9863C10.75 11.0754 10.8667 11.0467 10.9583 10.8904C11.2028 10.4735 11.4445 10.0546 11.6833 9.63375C11.7725 9.47709 11.7363 9.36292 11.5771 9.26667C11.447 9.18038 11.3113 9.10284 11.1708 9.03459C10.8542 8.89875 10.6946 8.68084 10.7563 8.32625C10.7604 8.27963 10.7596 8.2327 10.7538 8.18625C10.7459 8.10273 10.7635 8.01879 10.8042 7.94541C10.8448 7.87203 10.9067 7.81264 10.9817 7.77501C11.1854 7.66042 11.3888 7.54417 11.5888 7.42251C11.7375 7.33251 11.77 7.21501 11.6842 7.06417C11.4456 6.64306 11.2039 6.22417 10.9592 5.80751C10.8658 5.64792 10.7529 5.62001 10.5913 5.70959L10.5017 5.75891C10.3581 5.83779 10.2143 5.91679 10.0788 6.0075C9.86334 6.15292 9.65834 6.16417 9.44667 6.00126C9.37814 5.9535 9.30565 5.91169 9.23001 5.87626C9.1563 5.84204 9.09455 5.78651 9.05273 5.71684C9.01092 5.64717 8.99095 5.56656 8.99542 5.48542C8.99917 5.25084 9.00001 5.01667 8.99542 4.78251C8.99209 4.6075 8.90834 4.51584 8.73709 4.51584C8.24792 4.51167 7.75848 4.51167 7.26876 4.51584C7.09667 4.51751 7.01417 4.60667 7.00876 4.78084C6.99771 4.91575 6.99771 5.05134 7.00876 5.18625C7.05959 5.57375 6.94626 5.86084 6.55584 5.99875C6.52745 6.01157 6.50072 6.0278 6.47626 6.04709C6.32042 6.14917 6.16501 6.14584 6.00626 6.05167C5.80501 5.93209 5.60292 5.81376 5.39834 5.70084C5.25209 5.62001 5.13584 5.64834 5.05251 5.79125C4.80251 6.21709 4.55556 6.645 4.31167 7.075C4.23417 7.21167 4.26751 7.32709 4.39876 7.41042C4.50001 7.47501 4.60417 7.53334 4.70834 7.59167C5.24992 7.89267 5.24987 7.9066 5.2484 8.28787C5.24816 8.351 5.24788 8.42419 5.25001 8.51042C5.25604 8.59674 5.23628 8.68291 5.19326 8.75798C5.15023 8.83306 5.08587 8.89366 5.00834 8.93209C4.80917 9.04459 4.61042 9.15792 4.41417 9.27584C4.26376 9.36625 4.23167 9.48042 4.31792 9.63209C4.55959 10.0571 4.80431 10.4804 5.05209 10.9021C5.13584 11.0442 5.25334 11.0725 5.39834 10.9946C5.54765 10.9215 5.69162 10.838 5.82917 10.7446C6.10376 10.5408 6.36626 10.5167 6.63626 10.7446C6.67913 10.7741 6.72492 10.7991 6.77292 10.8192C6.84661 10.8536 6.90828 10.9093 6.94995 10.9791C6.99163 11.0489 7.01138 11.1297 7.00667 11.2108C7.00417 11.4346 7.00459 11.6638 7.00667 11.8821C7.00876 12.1004 7.09209 12.1838 7.31292 12.1838ZM5.20732 6.45658L5.35542 6.19959C5.83626 6.55376 6.28834 6.71667 6.87126 6.37792C7.45417 6.03917 7.51751 5.56625 7.46459 4.99334H8.53667C8.47501 5.57417 8.55626 6.05 9.14167 6.385C9.72709 6.72 10.1683 6.54959 10.6438 6.19875L11.1796 7.125C10.6596 7.36959 10.2679 7.66167 10.2679 8.33959C10.2679 9.0175 10.6396 9.32209 11.1813 9.565L10.6479 10.49C10.1729 10.1579 9.72751 9.97001 9.13959 10.31C8.55167 10.65 8.47834 11.1238 8.53626 11.7042H7.47459C7.47459 11.6597 7.4739 11.6148 7.47321 11.5696C7.47182 11.4784 7.47041 11.3861 7.47459 11.2942C7.49459 10.8613 7.28376 10.5933 6.92667 10.3575C6.42959 10.0292 5.98126 10.0408 5.51709 10.3838C5.46326 10.4191 5.40763 10.4517 5.35042 10.4813L4.82292 9.57084C5.34001 9.32417 5.73709 9.03209 5.73417 8.35667C5.73126 7.68125 5.37042 7.36959 4.81751 7.1325C4.95076 6.90181 5.07694 6.68284 5.20732 6.45658ZM1.93209 2.26876C1.96042 1.49251 2.61126 0.849172 3.39709 0.821255C3.56376 0.815422 3.67584 0.898755 3.68626 1.03792C3.69667 1.17709 3.59959 1.27209 3.43042 1.28792C2.82542 1.34542 2.45042 1.71375 2.39917 2.30084C2.38334 2.48417 2.29209 2.58834 2.15209 2.58292C2.00376 2.5775 1.92501 2.46501 1.93209 2.26876ZM3.42376 1.64666C3.06917 1.65082 2.75584 1.96124 2.75 2.31332C2.74667 2.46332 2.82334 2.56332 2.95417 2.58166C2.9853 2.58597 3.01699 2.58378 3.04723 2.57523C3.07748 2.56669 3.10562 2.55197 3.12989 2.532C3.15416 2.51204 3.17404 2.48726 3.18825 2.45923C3.20247 2.4312 3.21073 2.40053 3.21251 2.36916C3.23042 2.19749 3.32376 2.12707 3.48292 2.10499C3.62167 2.08541 3.69292 1.99499 3.68584 1.85499C3.67876 1.72541 3.57209 1.64457 3.42376 1.64666ZM14.0679 2.27708C14.0738 2.46333 13.9979 2.57208 13.855 2.58292C13.7121 2.59375 13.6175 2.48792 13.6008 2.30833C13.5458 1.7125 13.1754 1.34417 12.5771 1.28833C12.4033 1.2725 12.3075 1.18417 12.3133 1.04542C12.3192 0.899583 12.4342 0.813334 12.6108 0.821667C13.4021 0.859167 14.0438 1.5 14.0679 2.27708ZM13.0346 2.58209C13.1667 2.57167 13.25 2.47042 13.25 2.32417C13.2521 1.96792 12.9317 1.64792 12.5692 1.64584C12.4304 1.64459 12.3388 1.70625 12.3129 1.84417C12.2908 1.97125 12.3738 2.08167 12.5213 2.10459C12.6821 2.13 12.7704 2.20334 12.7875 2.37375C12.7899 2.40371 12.7982 2.43288 12.812 2.4596C12.8257 2.48632 12.8447 2.51005 12.8676 2.52942C12.8906 2.54879 12.9172 2.56342 12.9458 2.57246C12.9745 2.5815 13.0047 2.58477 13.0346 2.58209Z" fill="#662E93"/>
<path d="M9.18293 8.34341C9.18416 8.57748 9.11593 8.80664 8.98687 9.00191C8.85781 9.19718 8.67372 9.34977 8.4579 9.44037C8.24208 9.53097 8.00423 9.5555 7.77446 9.51087C7.5447 9.46624 7.33333 9.35445 7.16712 9.18964C7.00092 9.02483 6.88734 8.81442 6.84076 8.58504C6.79419 8.35565 6.81671 8.11761 6.90548 7.90103C6.99425 7.68445 7.14528 7.49908 7.33945 7.36837C7.53362 7.23766 7.7622 7.16749 7.99626 7.16675C8.30893 7.16782 8.60863 7.29182 8.83065 7.51197C9.05268 7.73213 9.17921 8.03077 9.18293 8.34341ZM8.71376 8.34341C8.71318 8.20227 8.6708 8.06447 8.59196 7.9474C8.51311 7.83033 8.40135 7.73925 8.27078 7.68565C8.14021 7.63206 7.99669 7.61836 7.85833 7.64628C7.71998 7.67419 7.593 7.74248 7.49343 7.84252C7.39386 7.94255 7.32617 8.06985 7.29889 8.20833C7.27162 8.34681 7.28599 8.49027 7.34019 8.62059C7.39439 8.75091 7.486 8.86225 7.60343 8.94054C7.72087 9.01884 7.85887 9.06058 8.00001 9.0605C8.18921 9.05832 8.36999 8.98197 8.50347 8.84786C8.63695 8.71376 8.71246 8.53262 8.71376 8.34341Z" fill="#B07FD8"/>
</g>
<defs>
<clipPath id="clip0_236_54">
<rect width="16" height="16" fill="white"/>
</clipPath>
</defs>
</svg>
