<svg width="38" height="36" viewBox="0 0 38 36" fill="none" xmlns="http://www.w3.org/2000/svg">
<g clip-path="url(#clip0_396_77)">
<path d="M0 35.0428C0.207696 34.6333 0.540794 34.4932 0.993414 34.5167C1.54205 34.5442 2.09264 34.5226 2.70103 34.5226V13.0261C2.70103 12.1688 2.89697 11.9709 3.76106 11.9709C5.2796 11.9709 6.79813 11.9709 8.31666 11.9709C8.96228 11.9709 9.22484 12.2335 9.22974 12.8879C9.22974 13.5737 9.22974 14.2595 9.22974 14.9747H14.9894V3.77086C14.9894 3.04196 15.2294 2.80194 15.9573 2.79998C16.5079 2.79998 17.0585 2.79998 17.6101 2.79018C17.6316 2.79018 17.6522 2.77353 17.7129 2.74708C17.7129 2.15926 17.7129 1.54596 17.7129 0.937572C17.7129 0.26158 17.9726 0 18.6446 0H31.1329C31.8098 0 32.0675 0.252762 32.0724 0.925815C32.0773 1.53519 32.0724 2.14456 32.0724 2.79998C32.6328 2.79998 33.155 2.79998 33.6781 2.79998C34.3639 2.79998 34.6108 3.05176 34.6108 3.73069C34.6108 7.81995 34.6108 11.9095 34.6108 15.9995C34.6108 16.0729 34.6108 16.1474 34.6108 16.2199C34.603 16.3988 34.5281 16.5683 34.401 16.6944C34.2739 16.8206 34.104 16.8943 33.925 16.9008C33.746 16.9131 33.5688 16.8582 33.4282 16.7467C33.2876 16.6353 33.1936 16.4754 33.1648 16.2983C33.1474 16.1648 33.1418 16.0301 33.1481 15.8956C33.1481 12.1852 33.1481 8.47505 33.1481 4.76525V4.29794H16.4824V34.4991H21.6063V34.0945C21.6063 32.269 21.6063 30.4445 21.6063 28.6209C21.6063 27.9351 21.8512 27.6833 22.5282 27.6824C24.0095 27.6824 25.4911 27.6824 26.9731 27.6824C27.6148 27.6824 27.8616 27.9292 27.8626 28.5709C27.8626 30.4082 27.8626 32.2448 27.8626 34.0808V34.4991H33.1432V34.0631C33.1432 30.3527 33.1432 26.6426 33.1432 22.9328C33.1361 22.7746 33.1499 22.6161 33.1843 22.4615C33.2263 22.2927 33.3302 22.1458 33.4753 22.0498C33.6204 21.9538 33.7963 21.9158 33.9681 21.9433C34.134 21.9592 34.289 22.0332 34.4057 22.1522C34.5224 22.2712 34.5933 22.4276 34.6059 22.5938C34.615 22.7281 34.6173 22.8629 34.6127 22.9974C34.6127 26.6707 34.6127 30.3439 34.6127 34.0171V34.5197H35.4896C35.8687 34.5197 36.2498 34.5412 36.628 34.5148C37.0796 34.4824 37.4117 34.6314 37.6204 35.0399V35.4808C37.3971 35.8726 37.0659 35.9971 36.6162 35.9971C24.7462 35.9873 12.8755 35.9873 1.00419 35.9971C0.555489 35.9971 0.220432 35.8717 0 35.4808V35.0428ZM11.8975 34.4962H14.958V16.5099H4.19115V34.503H7.16747V34.0866C7.16747 33.1569 7.16747 32.2252 7.16747 31.2965C7.16747 30.6881 7.43983 30.4265 8.0492 30.4236C9.01649 30.4236 9.98345 30.4236 10.9501 30.4236C11.6359 30.4236 11.8955 30.6832 11.8965 31.3827C11.8984 32.4104 11.8975 33.4381 11.8975 34.4962ZM26.3686 34.5138V29.1793H23.1072V34.5138H26.3686ZM30.5666 2.77842V1.496H19.2021V2.77842H30.5666ZM7.73962 13.4571H4.20291V14.9727H7.7455L7.73962 13.4571ZM10.3848 34.4991V31.9137H8.66053V34.503L10.3848 34.4991Z" fill="#B07FD8"/>
<path d="M30.4275 22.0346C30.4275 22.5245 30.4275 23.0143 30.4275 23.5042C30.4216 24.0548 30.1659 24.3291 29.629 24.334C28.6382 24.3418 27.6481 24.3418 26.6586 24.334C26.1168 24.3291 25.8592 24.0606 25.8562 23.5091C25.8516 22.5294 25.8516 21.5516 25.8562 20.5759C25.8562 20.038 26.1344 19.7647 26.6713 19.7617C27.651 19.7565 28.6288 19.7565 29.6045 19.7617C30.1453 19.7617 30.4147 20.037 30.4275 20.571C30.4275 20.5955 30.4275 20.6199 30.4275 20.6444V22.0346ZM27.3424 22.837H28.9364V21.245H27.3424V22.837Z" fill="#662E93"/>
<path d="M21.2457 24.333C20.7451 24.333 20.2435 24.3408 19.7429 24.333C19.2423 24.3252 18.9679 24.0459 18.9591 23.5551C18.9506 22.5532 18.9506 21.551 18.9591 20.5484C18.964 20.0468 19.2589 19.7647 19.7713 19.7647C20.7608 19.7588 21.7506 19.7588 22.7408 19.7647C23.2414 19.7647 23.5245 20.0302 23.5324 20.5278C23.5461 21.5415 23.5461 22.5558 23.5324 23.5708C23.5255 24.0714 23.2502 24.3261 22.7437 24.3359C22.2372 24.3457 21.7493 24.333 21.2457 24.333ZM22.0432 22.8448V21.2489H20.4502V22.8448H22.0432Z" fill="#662E93"/>
<path d="M21.2732 11.4868C20.7716 11.4868 20.2699 11.4976 19.7693 11.4868C19.2305 11.4721 18.965 11.1929 18.9621 10.657C18.9562 9.67734 18.9562 8.69993 18.9621 7.7248C18.9621 7.19674 19.256 6.91067 19.785 6.90773C20.7647 6.9012 21.7424 6.9012 22.7182 6.90773C23.2551 6.90773 23.5333 7.18009 23.5392 7.72088C23.5503 8.71037 23.5503 9.7002 23.5392 10.6903C23.5323 11.2125 23.2668 11.4741 22.7388 11.4859C22.2509 11.4966 21.762 11.4868 21.2732 11.4868ZM22.0569 8.39393H20.46V9.9879H22.0589L22.0569 8.39393Z" fill="#662E93"/>
<path d="M30.4265 9.18945C30.4265 9.69008 30.4324 10.1917 30.4265 10.6923C30.4206 11.1929 30.163 11.4761 29.6604 11.481C28.6461 11.4953 27.6318 11.4953 26.6174 11.481C26.1168 11.4731 25.8601 11.1929 25.8572 10.6874C25.8507 9.69792 25.8507 8.7081 25.8572 7.71795C25.8572 7.18597 26.1403 6.90871 26.6772 6.90578C27.6569 6.8999 28.6346 6.8999 29.6104 6.90578C30.1434 6.90578 30.4197 7.18989 30.4265 7.72285C30.4324 8.21172 30.4275 8.70058 30.4265 9.18945ZM28.9374 8.39492H27.3444V9.99575H28.9374V8.39492Z" fill="#662E93"/>
<path d="M21.2722 17.9165C20.7716 17.9165 20.27 17.9234 19.7693 17.9165C19.2687 17.9097 18.967 17.6226 18.963 17.1191C18.9545 16.1171 18.9545 15.1149 18.963 14.1124C18.9679 13.6372 19.2422 13.3492 19.7125 13.3433C20.7392 13.3296 21.766 13.3296 22.7927 13.3433C23.2541 13.3492 23.5284 13.6166 23.5353 14.0761C23.5497 15.1028 23.5497 16.1296 23.5353 17.1563C23.5284 17.6461 23.2365 17.9087 22.7378 17.9175C22.2391 17.9263 21.7611 17.9165 21.2722 17.9165ZM20.46 14.8217V16.4195H22.0432V14.8217H20.46Z" fill="#662E93"/>
<path d="M28.1742 13.3358C28.6513 13.3358 29.1274 13.3289 29.6045 13.3358C30.1542 13.3446 30.4216 13.6052 30.4255 14.1431C30.4314 15.1339 30.4314 16.1237 30.4255 17.1125C30.4255 17.622 30.1385 17.908 29.6281 17.912C28.6386 17.9205 27.6487 17.9205 26.6586 17.912C26.1452 17.912 25.8611 17.6249 25.8572 17.1164C25.8507 16.1139 25.8507 15.112 25.8572 14.1107C25.8572 13.614 26.1295 13.3475 26.6351 13.3358C27.1406 13.324 27.6608 13.3358 28.1742 13.3358ZM27.3424 14.8191V16.4189H28.9325V14.8191H27.3424Z" fill="#662E93"/>
<path d="M33.9289 18.7886C34.1175 18.8003 34.2938 18.8858 34.4197 19.0267C34.5455 19.1676 34.6107 19.3525 34.601 19.5412C34.5913 19.7298 34.5076 19.9071 34.368 20.0344C34.2284 20.1616 34.0442 20.2287 33.8554 20.221C33.6645 20.2143 33.4836 20.1336 33.3512 19.9959C33.2188 19.8582 33.1452 19.6743 33.1461 19.4833C33.1496 19.3855 33.1729 19.2894 33.2147 19.2009C33.2564 19.1124 33.3156 19.0333 33.3888 18.9684C33.462 18.9034 33.5476 18.854 33.6404 18.8231C33.7333 18.7922 33.8314 18.7805 33.9289 18.7886Z" fill="#662E93"/>
<path d="M5.78023 23.502C5.78023 22.0716 5.78023 20.6413 5.78023 19.2109C5.77596 19.0762 5.78054 18.9414 5.79395 18.8073C5.81323 18.6419 5.89057 18.4887 6.0122 18.3749C6.13383 18.2612 6.29186 18.1943 6.45819 18.1861C6.62418 18.1694 6.79067 18.2129 6.9272 18.3088C7.06374 18.4047 7.16121 18.5465 7.20178 18.7083C7.23632 18.8629 7.25178 19.0212 7.24782 19.1796C7.24782 22.0657 7.24782 24.9516 7.24782 27.8371C7.24782 27.8734 7.24782 27.9096 7.24782 27.9469C7.239 28.5092 6.95391 28.8541 6.50521 28.8531C6.05651 28.8521 5.78023 28.5102 5.77926 27.941C5.77991 26.4617 5.78023 24.982 5.78023 23.502Z" fill="#662E93"/>
<path d="M8.79182 23.5087C8.79182 22.0666 8.79182 20.6238 8.79182 19.1804C8.7877 19.0459 8.79393 18.9113 8.81043 18.7778C8.83932 18.6179 8.9213 18.4724 9.04311 18.3648C9.16492 18.2573 9.31945 18.194 9.4817 18.1852C9.64395 18.1763 9.80444 18.2225 9.93721 18.3161C10.07 18.4098 10.1673 18.5455 10.2134 18.7013C10.2475 18.8563 10.2627 19.0149 10.2584 19.1736C10.2584 22.0591 10.2584 24.9446 10.2584 27.8302C10.2584 28.4954 10.0027 28.8491 9.52365 28.853C9.04458 28.8569 8.78986 28.5052 8.78888 27.837L8.79182 23.5087Z" fill="#662E93"/>
<path d="M11.7995 23.5041C11.7995 22.0737 11.7995 20.643 11.7995 19.212C11.7952 19.0657 11.8027 18.9192 11.822 18.7741C11.8514 18.6107 11.9364 18.4625 12.0625 18.3546C12.1887 18.2467 12.3482 18.1856 12.5142 18.1818C12.6801 18.178 12.8423 18.2317 12.9733 18.3337C13.1042 18.4358 13.1959 18.5799 13.2328 18.7418C13.2581 18.8734 13.2693 19.0074 13.2661 19.1415C13.2661 22.0525 13.2661 24.9628 13.2661 27.8726C13.2686 27.9945 13.2607 28.1164 13.2426 28.237C13.2169 28.4112 13.1283 28.57 12.9935 28.6833C12.8586 28.7967 12.687 28.8566 12.5109 28.8519C12.3349 28.8472 12.1666 28.7782 12.0381 28.6578C11.9095 28.5375 11.8295 28.3742 11.8132 28.1988C11.7976 28.0033 11.7924 27.8071 11.7975 27.611C11.7982 26.2427 11.7988 24.8737 11.7995 23.5041Z" fill="#662E93"/>
</g>
<defs>
<clipPath id="clip0_396_77">
<rect width="37.6204" height="36" fill="white"/>
</clipPath>
</defs>
</svg>
