<svg width="16" height="16" viewBox="0 0 16 16" fill="none" xmlns="http://www.w3.org/2000/svg">
<g clip-path="url(#clip0_342_182)">
<path d="M16 7.03125V7.34375C15.9895 7.36125 15.9803 7.37949 15.9725 7.39833C15.8442 7.79417 15.565 7.9975 15.1458 8H14.9425V8.875C15.2613 8.89833 15.5467 9 15.7367 9.2575C15.8508 9.41208 15.9138 9.60417 16 9.77958V14.8421C15.9879 14.8863 15.9754 14.9304 15.9633 14.975C15.8467 15.4096 15.5842 15.7208 15.1696 15.8975C15.0628 15.9369 14.9541 15.9705 14.8438 15.9983H1.15625C1.11708 15.9871 1.07792 15.975 1.03833 15.965C0.552083 15.8371 0.224167 15.5379 0.0616668 15.0604C0.0404168 14.9983 0.02 14.9354 0 14.8733V1.125C0.0129167 1.08708 0.0279167 1.05 0.03875 1.01125C0.17625 0.533333 0.47625 0.211667 0.9525 0.0579166C1.01 0.0391666 1.0675 0.0191667 1.125 0H6.21875C6.39417 0.0858333 6.58667 0.14875 6.74083 0.262917C6.99708 0.452917 7.10042 0.738333 7.1225 1.0525H7.99333C7.99958 0.915416 7.99333 0.78875 8.01292 0.667083C8.0775 0.304166 8.31833 0.103333 8.65625 0.000416438H8.96875C8.98452 0.0121818 9.00141 0.02237 9.01917 0.0308336C9.4025 0.167084 9.59458 0.435416 9.5975 0.840833C9.5975 0.91125 9.5975 0.982084 9.5975 1.055H10.6642C10.6642 0.982917 10.6642 0.92125 10.6642 0.859583C10.6642 0.65125 10.6979 0.442917 10.8525 0.299583C10.985 0.1775 11.1575 0.0983331 11.3108 0.000416438H11.625C11.6469 0.0125336 11.6696 0.0232496 11.6929 0.0324999C12.0425 0.152083 12.2454 0.417083 12.2654 0.785833C12.27 0.872917 12.2654 0.960417 12.2654 1.05625H13.3354C13.3354 0.984584 13.3375 0.918334 13.3354 0.8525C13.3271 0.635834 13.3733 0.428333 13.5329 0.281666C13.6579 0.166666 13.8217 0.0924998 13.9683 0.000416438H14.2808C14.7992 0.161666 14.985 0.535416 14.9329 1.04208C14.9592 1.05417 14.9683 1.06167 14.9771 1.06167C15.0446 1.06375 15.1117 1.06375 15.1792 1.06542C15.6171 1.07667 15.87 1.32042 15.9996 1.71917V2.03167C15.9866 2.05248 15.9752 2.07421 15.9654 2.09667C15.8338 2.4625 15.5654 2.65625 15.1779 2.66417C15.1017 2.66417 15.0254 2.66417 14.9438 2.66417V3.73292H15.1371C15.3517 3.73 15.5633 3.76708 15.7104 3.92708C15.8287 4.05625 15.9046 4.22458 15.9996 4.37542V4.68792C15.8433 5.165 15.5063 5.36792 15.0146 5.3375C14.9917 5.3388 14.969 5.34286 14.9471 5.34958V6.40292C15.0367 6.40292 15.1138 6.40292 15.1912 6.40292C15.3322 6.39898 15.4716 6.43366 15.5944 6.5032C15.7171 6.57275 15.8184 6.67451 15.8875 6.7975C15.9291 6.87339 15.9666 6.95141 16 7.03125ZM0.5325 7.98958C0.5325 10.1771 0.5325 12.3646 0.5325 14.5521C0.5325 15.1512 0.847917 15.4662 1.44917 15.4662H14.5417C15.1546 15.4662 15.4679 15.1554 15.4679 14.5475C15.4679 13.1775 15.4679 11.8076 15.4679 10.4379C15.4679 10.2767 15.4717 10.115 15.4679 9.95375C15.4571 9.58792 15.1508 9.35042 14.7958 9.43542C14.6491 9.47027 14.5045 9.51382 14.3629 9.56583C13.2379 9.98542 12.1204 9.95958 10.9925 9.54542C10.0667 9.20542 9.15708 9.24292 8.29708 9.78708C8.01625 9.965 7.71708 10.1229 7.37667 10.1537C6.7575 10.21 6.36167 9.85417 6.03667 9.39292C5.93074 9.24917 5.86279 9.08102 5.83912 8.90403C5.81545 8.72705 5.83682 8.54695 5.90125 8.38042C6.00307 8.11364 6.12611 7.85546 6.26917 7.60833C6.48958 7.21625 6.63583 6.805 6.66083 6.35458C6.69042 5.82583 6.58333 5.32083 6.39708 4.82792C6.12711 4.118 6.05511 3.34808 6.18875 2.60042C6.26458 2.1625 6.39917 1.73208 6.54417 1.31083C6.69292 0.877917 6.39917 0.519167 5.95292 0.525C4.45292 0.54125 2.95292 0.53125 1.45292 0.53125C0.851666 0.53125 0.53625 0.845416 0.53625 1.4425C0.533195 3.62583 0.531944 5.80861 0.5325 7.99083V7.98958ZM13.8692 9.16667C14.005 9.12167 14.1192 9.07458 14.2396 9.04667C14.3671 9.01708 14.4062 8.955 14.4062 8.82125C14.4015 6.18792 14.4004 3.55458 14.4029 0.92125C14.4029 0.664167 14.3046 0.527083 14.1258 0.5325C13.9471 0.537917 13.87 0.660834 13.8696 0.920834V9.16667H13.8692ZM8.5325 9.05875C8.65061 9.01068 8.7712 8.96896 8.89375 8.93375C9.02583 8.90333 9.06917 8.84417 9.06917 8.70083C9.06333 6.1075 9.06194 3.51389 9.065 0.92C9.065 0.665 8.97917 0.536666 8.80625 0.531666C8.62625 0.526666 8.5325 0.66 8.5325 0.921666V9.06V9.05875ZM8 8H7.09167C6.58917 8 6.58833 8 6.41875 8.48167C6.34833 8.68167 6.34333 8.87625 6.45375 9.06708C6.77625 9.62458 7.18792 9.75292 7.76125 9.47167C7.82308 9.44449 7.88259 9.4123 7.93917 9.37542C7.95485 9.36433 7.96808 9.35014 7.97805 9.33373C7.98801 9.31732 7.99449 9.29903 7.99708 9.28C8 8.86 8 8.44 8 8ZM13.3275 6.94917H9.60792V7.45833H13.3275V6.94917ZM9.60292 2.12125H13.3233V1.61H9.60292V2.12125ZM13.3263 4.2775H9.60667V4.79167H13.3263V4.2775ZM7.99208 2.66667C7.58125 2.66667 7.18208 2.66667 6.78375 2.66958C6.755 2.66958 6.70292 2.71333 6.7025 2.7375C6.69708 3.06667 6.69875 3.39625 6.69875 3.72542H7.99333L7.99208 2.66667ZM12.2808 8.00833V9.31125H13.2121C13.3021 9.31125 13.3408 9.27417 13.3371 9.17833C13.3308 8.98083 13.335 8.78292 13.335 8.58542V8.00625L12.2808 8.00833ZM10.6538 6.39542V5.34792H9.61208V6.39333L10.6538 6.39542ZM10.6571 2.68042H9.6075V3.72208H10.6571V2.68042ZM13.3237 6.395V5.34875H12.2771V6.39292L13.3237 6.395ZM12.2821 2.67417V3.72375H13.3237V2.67208L12.2821 2.67417ZM7.99042 6.3975V5.34833H7.13083C7.16 5.70458 7.18792 6.04917 7.21417 6.39542L7.99042 6.3975ZM9.605 8.78625L10.6496 8.87167V8.00792H9.60667L9.605 8.78625ZM6.77583 4.27958C6.82875 4.44083 6.87458 4.58875 6.9275 4.73417C6.9375 4.76167 6.97375 4.79917 6.99833 4.79958C7.32875 4.80375 7.65917 4.8025 7.99042 4.8025V4.2775L6.77583 4.27958ZM11.7229 9.22542V8.00958H11.1987C11.1987 8.34 11.1963 8.66125 11.2021 8.98208C11.2069 9.00265 11.2163 9.02182 11.2298 9.03809C11.2432 9.05436 11.2603 9.06728 11.2796 9.07583C11.4196 9.12917 11.5633 9.17125 11.7246 9.22333L11.7229 9.22542ZM7.99208 1.60417H7.0075C6.95042 1.77292 6.89292 1.94208 6.83208 2.1225H7.99208V1.60417ZM11.7221 2.67792H11.2083V3.71958H11.7225L11.7221 2.67792ZM11.7221 6.39375V5.34375H11.2083V6.39375H11.7221ZM6.94417 7.45833H7.99V6.93542C7.71625 6.93542 7.45208 6.93333 7.18833 6.93833C7.16985 6.94142 7.15234 6.94879 7.13722 6.95987C7.1221 6.97094 7.10978 6.98539 7.10125 7.00208C7.04458 7.15083 6.99667 7.30292 6.94417 7.45833ZM14.9417 7.46333C15.1271 7.46042 15.325 7.52375 15.4242 7.32417C15.4414 7.28054 15.4492 7.23371 15.4468 7.18684C15.4444 7.13997 15.432 7.09416 15.4104 7.0525C15.3008 6.87208 15.1125 6.94583 14.9417 6.93875V7.46333ZM14.9417 2.13C15.125 2.11458 15.3263 2.19292 15.425 1.98875C15.4422 1.94514 15.4498 1.89834 15.4472 1.85154C15.4447 1.80473 15.4322 1.75902 15.4104 1.7175C15.3008 1.54167 15.1146 1.60042 14.9417 1.60375V2.13ZM11.2033 1.05H11.7308C11.7213 0.872083 11.7896 0.677916 11.5988 0.577916C11.5558 0.559144 11.5094 0.549768 11.4625 0.550414C11.4157 0.551061 11.3695 0.561717 11.3271 0.581667C11.1446 0.687917 11.2046 0.8775 11.2033 1.05167V1.05ZM14.9421 4.79583C15.1242 4.79333 15.3171 4.85417 15.4167 4.66792C15.4364 4.6231 15.4461 4.57448 15.4449 4.52551C15.4438 4.47653 15.4319 4.42842 15.41 4.38458C15.3021 4.20583 15.1133 4.27667 14.9421 4.27125V4.79583Z" fill="#B07FD8"/>
<path d="M4.79416 1.33674C4.8983 1.33531 5.0017 1.35444 5.09843 1.39304C5.19517 1.43164 5.28333 1.48894 5.35788 1.56167C5.43243 1.6344 5.49189 1.72113 5.53287 1.81688C5.57384 1.91263 5.59552 2.01552 5.59666 2.11966C5.59972 2.278 5.55561 2.43367 5.46995 2.56687C5.3843 2.70007 5.26096 2.80479 5.11562 2.8677C4.97029 2.93062 4.80952 2.94888 4.65378 2.92018C4.49803 2.89147 4.35434 2.81709 4.24099 2.7065C4.12763 2.59591 4.04973 2.4541 4.01718 2.29912C3.98464 2.14413 3.99893 1.98296 4.05823 1.83612C4.11753 1.68927 4.21917 1.56338 4.35022 1.47446C4.48127 1.38554 4.6358 1.3376 4.79416 1.33674ZM5.06333 2.12841C5.06306 2.09334 5.05564 2.05869 5.04152 2.02659C5.02741 1.99448 5.00689 1.96559 4.98123 1.94169C4.95557 1.91778 4.9253 1.89936 4.89228 1.88755C4.85925 1.87574 4.82417 1.87078 4.78916 1.87299C4.72103 1.87494 4.65631 1.90327 4.60866 1.95201C4.56101 2.00074 4.53415 2.06608 4.53375 2.13424C4.53514 2.20501 4.56393 2.27247 4.61405 2.32244C4.66418 2.37241 4.73173 2.40099 4.8025 2.40216C4.83783 2.40114 4.87261 2.39315 4.90486 2.37867C4.9371 2.36418 4.96617 2.34347 4.9904 2.31773C5.01463 2.292 5.03354 2.26173 5.04606 2.22867C5.05857 2.19561 5.06444 2.16041 5.06333 2.12508V2.12841Z" fill="#662E93"/>
<path d="M2.12917 14.6629C2.0251 14.6633 1.92198 14.6431 1.82576 14.6034C1.72953 14.5638 1.64211 14.5055 1.56852 14.4319C1.49493 14.3583 1.43663 14.2709 1.39698 14.1747C1.35733 14.0784 1.33712 13.9753 1.3375 13.8712C1.33656 13.7656 1.35661 13.6609 1.39648 13.5631C1.43634 13.4653 1.49524 13.3764 1.56974 13.3016C1.64424 13.2267 1.73287 13.1674 1.83047 13.1271C1.92808 13.0867 2.03273 13.0662 2.13834 13.0667C2.34878 13.0695 2.54981 13.1544 2.69856 13.3033C2.8473 13.4522 2.932 13.6533 2.93459 13.8637C2.93481 13.9693 2.91409 14.0738 2.87361 14.1713C2.83314 14.2688 2.77372 14.3572 2.6988 14.4316C2.62389 14.5059 2.53496 14.5646 2.43718 14.6043C2.3394 14.644 2.2347 14.664 2.12917 14.6629ZM2.40042 13.8608C2.39688 13.7903 2.36628 13.7238 2.31499 13.6752C2.26369 13.6266 2.19565 13.5997 2.125 13.6C2.08999 13.6016 2.05564 13.6101 2.02393 13.6251C1.99222 13.64 1.96379 13.6611 1.94028 13.6871C1.91676 13.7131 1.89863 13.7435 1.88693 13.7765C1.87522 13.8095 1.87018 13.8446 1.87209 13.8796C1.87284 13.9134 1.88028 13.9466 1.89397 13.9775C1.90766 14.0084 1.92734 14.0363 1.95186 14.0595C1.97638 14.0828 2.00526 14.1009 2.03684 14.113C2.06842 14.125 2.10206 14.1306 2.13584 14.1296C2.17087 14.1294 2.20552 14.1222 2.23779 14.1086C2.27007 14.095 2.29933 14.0751 2.32391 14.0501C2.34849 14.0252 2.3679 13.9956 2.38103 13.9631C2.39416 13.9306 2.40075 13.8959 2.40042 13.8608Z" fill="#662E93"/>
<path d="M14.4004 10.9332C14.3296 10.9316 14.2622 10.9026 14.2123 10.8524C14.1624 10.8021 14.134 10.7345 14.1329 10.6636C14.1348 10.5929 14.1646 10.5257 14.216 10.477C14.2673 10.4282 14.3359 10.4019 14.4067 10.4037C14.4404 10.4037 14.4738 10.4104 14.505 10.4235C14.5361 10.4365 14.5643 10.4556 14.588 10.4796C14.6118 10.5037 14.6305 10.5321 14.6431 10.5634C14.6557 10.5947 14.6621 10.6282 14.6617 10.662C14.6626 10.697 14.6566 10.7319 14.6439 10.7646C14.6312 10.7973 14.6122 10.8271 14.5879 10.8523C14.5635 10.8776 14.5345 10.8977 14.5023 10.9116C14.4701 10.9255 14.4355 10.9329 14.4004 10.9332Z" fill="#662E93"/>
<path d="M2.66209 12.2642C2.66293 12.2992 2.65669 12.3341 2.64375 12.3667C2.63081 12.3993 2.61144 12.4289 2.58678 12.4538C2.56211 12.4788 2.53268 12.4985 2.50023 12.5118C2.46778 12.5251 2.43298 12.5317 2.39792 12.5312C2.32933 12.5292 2.26421 12.5006 2.21621 12.4516C2.16822 12.4026 2.14108 12.3368 2.14048 12.2682C2.13989 12.1996 2.16589 12.1334 2.21303 12.0836C2.26018 12.0337 2.3248 12.0041 2.39334 12.0008C2.42842 11.9999 2.46332 12.0061 2.49597 12.0189C2.52863 12.0318 2.55837 12.0511 2.58343 12.0756C2.6085 12.1002 2.62837 12.1295 2.64188 12.1619C2.65539 12.1943 2.66226 12.2291 2.66209 12.2642Z" fill="#662E93"/>
<path d="M13.3333 13.3333C13.3327 13.3683 13.3252 13.403 13.3112 13.4351C13.2972 13.4673 13.277 13.4963 13.2517 13.5207C13.2264 13.545 13.1966 13.5641 13.1639 13.5768C13.1312 13.5896 13.0963 13.5957 13.0612 13.5949C13.0275 13.595 12.994 13.5884 12.9628 13.5754C12.9315 13.5625 12.9032 13.5435 12.8793 13.5196C12.8555 13.4957 12.8366 13.4672 12.8238 13.436C12.8109 13.4047 12.8044 13.3712 12.8046 13.3374C12.8035 13.3024 12.8095 13.2675 12.822 13.2347C12.8346 13.202 12.8535 13.1721 12.8778 13.1467C12.902 13.1213 12.931 13.1011 12.9632 13.087C12.9953 13.073 13.0299 13.0655 13.065 13.0649C13.1358 13.066 13.2035 13.0946 13.2536 13.1447C13.3036 13.1948 13.3323 13.2624 13.3333 13.3333Z" fill="#662E93"/>
<path d="M4.26625 3.99993C4.19522 3.99873 4.1275 3.96966 4.0777 3.919C4.02789 3.86834 3.99999 3.80014 4 3.7291C4.0009 3.67681 4.01723 3.62595 4.04694 3.58291C4.07665 3.53987 4.11841 3.50656 4.16698 3.48717C4.21555 3.46779 4.26877 3.46318 4.31995 3.47393C4.37113 3.48469 4.41799 3.51032 4.45465 3.54761C4.49132 3.58491 4.51614 3.6322 4.52602 3.68356C4.53589 3.73492 4.53038 3.78805 4.51016 3.83628C4.48994 3.88451 4.45593 3.9257 4.41239 3.95466C4.36884 3.98363 4.31771 3.99909 4.26542 3.9991L4.26625 3.99993Z" fill="#662E93"/>
<path d="M12.7979 10.6721C12.7958 10.743 12.766 10.8101 12.7147 10.8591C12.6635 10.9081 12.595 10.9349 12.5242 10.9338C12.4891 10.9323 12.4546 10.9239 12.4228 10.9091C12.391 10.8942 12.3624 10.8732 12.3388 10.8473C12.3151 10.8213 12.2969 10.7909 12.2851 10.7578C12.2733 10.7248 12.2682 10.6897 12.27 10.6546C12.2721 10.5866 12.301 10.5221 12.3504 10.4753C12.3998 10.4284 12.4657 10.403 12.5338 10.4046C12.5687 10.4046 12.6034 10.4115 12.6356 10.425C12.6679 10.4385 12.6972 10.4583 12.7217 10.4832C12.7463 10.508 12.7657 10.5376 12.7788 10.57C12.7919 10.6024 12.7984 10.6371 12.7979 10.6721Z" fill="#662E93"/>
</g>
<defs>
<clipPath id="clip0_342_182">
<rect width="16" height="16" fill="white"/>
</clipPath>
</defs>
</svg>
