<svg width="18" height="16" viewBox="0 0 18 16" fill="none" xmlns="http://www.w3.org/2000/svg">
<g clip-path="url(#clip0_342_144)">
<path d="M13.961 16.0001H0.109369V12.0851L0.344827 12.037C0.229885 11.5194 0.120516 11.0241 0 10.4787H1.63567L1.68652 10.9607H3.26855C3.37234 10.3672 3.05956 9.57723 4.07524 9.37451C4.02787 9.93181 3.5876 10.3965 3.87391 10.9593H8.9286C8.84361 10.5692 9.12435 10.1512 8.68826 9.83219C8.6186 9.77995 8.65761 9.57305 8.64716 9.4393C9.06513 9.39402 9.36817 9.64828 9.40578 10.0663C9.42529 10.285 9.39464 10.5093 9.42598 10.726C9.43922 10.8172 9.55138 10.9663 9.62034 10.9677C10.4424 10.9844 11.2644 10.9781 12.1087 10.9781C12.1275 10.8012 12.1428 10.6549 12.1616 10.478H13.6851C13.7722 11.0206 13.6851 11.5264 13.3187 12.0203L13.961 12.0788V16.0001ZM13.4552 15.5124C13.4615 15.378 13.4706 15.2651 13.4706 15.1523C13.4706 14.4208 13.4552 13.6894 13.4789 12.9586C13.4894 12.6291 13.3995 12.5288 13.061 12.5295C9.03379 12.5414 5.00662 12.5372 0.97945 12.5386C0.857541 12.5386 0.735632 12.5518 0.606757 12.5595V15.5124H13.4552ZM0.622082 10.9614C0.588645 11.6239 1.06304 12.0537 1.81957 12.0544C5.19447 12.0544 8.56984 12.0526 11.9457 12.0488C12.1875 12.0485 12.4267 11.9987 12.6486 11.9025C13.0435 11.7249 13.2288 11.3188 13.1216 10.8757C12.9509 10.9454 12.6917 10.9649 12.6339 11.0847C12.4828 11.4086 12.2522 11.4825 11.9373 11.4818C9.76803 11.4776 7.59875 11.4776 5.42947 11.4818C4.21177 11.4818 2.99129 11.4901 1.77638 11.4679C1.59526 11.4644 1.31452 11.3571 1.2567 11.2226C1.11041 10.8674 0.886102 10.9147 0.622082 10.9614Z" fill="#B07FD8"/>
<path d="M4.36225 5.07415L3.84326 5.01285C3.84326 4.38589 3.82306 3.76381 3.85302 3.14382C3.86555 2.87771 4.53013 2.40679 4.80948 2.40401C4.91258 2.40401 5.01846 2.40401 5.15779 2.40401V1.35907H7.5263V2.38171H8.38105C8.38105 1.98743 8.38105 1.59662 8.38105 1.20582C8.38105 0.419331 8.79903 0.00135744 9.58133 -0.000732422C10.2738 -0.000732422 10.9662 -0.000732422 11.7158 -0.000732422C11.4629 0.502925 11.2449 0.960606 10.9997 1.40226C10.9523 1.48656 10.8004 1.53392 10.689 1.55552C10.5566 1.58129 10.4152 1.56179 10.2285 1.56179C10.2285 1.78123 10.2041 1.96653 10.2376 2.14068C10.2585 2.24727 10.3483 2.39077 10.4417 2.4249C10.8137 2.56423 11.0185 2.80944 11.0219 3.20233C11.0289 4.00275 11.0345 4.80456 11.0178 5.60428C11.008 6.08217 10.7001 6.37057 10.2139 6.3852C9.8565 6.39774 9.49913 6.3852 9.11181 6.3852C9.29572 8.07938 8.69384 9.28802 7.02195 9.77426C5.89342 10.1065 4.71683 9.61334 4.0411 8.62553C3.31801 7.56249 3.41414 6.39216 4.36225 5.07415ZM6.09614 4.54542L6.11355 4.61508C5.79729 4.78018 5.46848 4.92647 5.16615 5.11456C4.41658 5.58339 4.03901 6.27722 4.07245 7.15705C4.10589 8.06893 4.56009 8.74535 5.37862 9.14242C5.64849 9.27654 5.94213 9.35618 6.24278 9.37681C6.54343 9.39744 6.8452 9.35864 7.13086 9.26265C7.41652 9.16665 7.68047 9.01533 7.90765 8.81733C8.13483 8.61932 8.32078 8.37851 8.4549 8.10864C8.58901 7.83877 8.66865 7.54512 8.68928 7.24447C8.70991 6.94382 8.67112 6.64205 8.57512 6.35639C8.47913 6.07073 8.32781 5.80678 8.1298 5.5796C7.93179 5.35242 7.69098 5.16647 7.42111 5.03236C7.15361 4.89303 6.88123 4.75719 6.61094 4.62065L6.63602 4.53149H8.37757C8.37757 4.15601 8.38314 3.82163 8.37757 3.48655C8.37392 3.33047 8.30906 3.18208 8.19698 3.0734C8.08491 2.96471 7.9346 2.90443 7.77848 2.90557C6.83804 2.90186 5.89806 2.90186 4.95855 2.90557C4.87558 2.90456 4.79323 2.92003 4.71627 2.95108C4.63932 2.98213 4.5693 3.02815 4.51027 3.08647C4.45123 3.14479 4.40436 3.21425 4.37238 3.29082C4.34039 3.36739 4.32393 3.44955 4.32393 3.53253C4.31906 3.77565 4.33159 4.02017 4.32393 4.26329C4.31488 4.47228 4.39847 4.5489 4.60955 4.54194C5.10345 4.53776 5.59945 4.54542 6.09614 4.54542ZM10.8506 0.4876C10.3685 0.4876 9.90457 0.474364 9.44201 0.491779C9.0937 0.505015 8.90352 0.718181 8.89795 1.08391C8.89029 1.58269 8.90213 2.08217 8.89795 2.58095C8.89795 2.73142 8.83665 2.88189 8.84152 3.03097C8.86172 3.68509 8.89586 4.33852 8.92581 5.00171L8.39081 5.07137C8.65552 5.63563 8.98781 6.04664 9.68025 5.88433C9.80147 5.85646 9.93452 5.88433 10.062 5.88015C10.48 5.87597 10.5294 5.8272 10.5322 5.42316C10.5322 4.87771 10.5322 4.33225 10.5322 3.7868C10.5322 2.99613 10.5322 2.99613 9.76594 2.86726V1.07694C10.1902 0.995436 10.7809 1.27478 10.8506 0.4876ZM7.00941 2.3838C7.09091 1.82651 7.08813 1.82651 6.60328 1.82302H6.11564C5.62801 1.82302 5.59387 1.8697 5.72066 2.3838H7.00941Z" fill="#B07FD8"/>
<path d="M9.76036 8.53282V8.02359C10.1247 8.02359 10.4709 8.01105 10.8157 8.02846C10.93 8.03702 11.0447 8.0191 11.1509 7.97608C11.2571 7.93307 11.352 7.86613 11.4281 7.78047C12.5106 6.68213 13.602 5.59261 14.7022 4.51192C14.8542 4.38256 15.0431 4.30433 15.2421 4.2883C15.598 4.25277 15.9603 4.27576 16.3197 4.27646C16.5148 4.27646 16.7078 4.21376 16.6681 3.99781C16.6465 3.88078 16.4535 3.71916 16.3288 3.7115C15.8417 3.67933 15.353 3.67933 14.8659 3.7115C14.7161 3.72125 14.5496 3.84246 14.434 3.95671C13.4511 4.92501 12.4333 5.86406 11.5186 6.89436C11.0031 7.47534 10.4444 7.51366 9.76036 7.41544V6.99746C9.84909 6.97652 9.94026 6.96785 10.0313 6.97169C10.5461 7.06294 10.891 6.82331 11.2344 6.46385C12.1735 5.4844 13.1515 4.54257 14.1017 3.57426C14.2137 3.44895 14.3526 3.35059 14.508 3.28653C14.6633 3.22247 14.8312 3.19438 14.999 3.20436C15.4504 3.22317 15.9046 3.20436 16.356 3.21063C16.8541 3.21759 17.1919 3.54222 17.1919 3.99851C17.1919 4.43181 16.861 4.74807 16.3769 4.77803C16.3424 4.78255 16.3075 4.78255 16.2731 4.77803C15.3988 4.60039 14.8046 5.00303 14.2396 5.63278C13.4587 6.50356 12.5873 7.29213 11.7715 8.13296C11.4998 8.4116 11.2038 8.55093 10.8171 8.53421C10.4737 8.52167 10.1282 8.53282 9.76036 8.53282Z" fill="#662E93"/>
<path d="M13.4552 15.5152H0.604668V12.5622C0.733543 12.5545 0.855452 12.5413 0.977361 12.5413C5.00453 12.5413 9.0317 12.5413 13.0589 12.5322C13.3995 12.5322 13.4894 12.6318 13.4768 12.9613C13.4532 13.6921 13.4699 14.4242 13.4685 15.155C13.4706 15.2679 13.4615 15.3807 13.4552 15.5152ZM1.91153 13.5995V13.1439H1.43434V13.5995H1.91153ZM6.79485 13.5925H7.28248C7.27203 13.419 7.26367 13.2762 7.25531 13.1376H6.79415L6.79485 13.5925ZM8.60606 13.1327H8.10937C8.12748 13.2943 8.09335 13.495 8.17137 13.5597C8.26611 13.6385 8.45629 13.6029 8.60606 13.6176V13.1327ZM7.28736 14.9523C7.26228 14.7844 7.28736 14.5928 7.20307 14.5016C7.13341 14.427 6.93626 14.473 6.79972 14.466V14.9537L7.28736 14.9523ZM8.12818 14.9397H8.60954V14.4897H8.12818V14.9397ZM12.1024 13.1285C12.1491 13.3194 12.1498 13.4894 12.2327 13.5932C12.278 13.6496 12.5406 13.6343 12.5712 13.5786C12.636 13.4587 12.6144 13.2922 12.6297 13.1285H12.1024ZM1.4427 14.4897V14.9425H1.91362V14.4897H1.4427ZM10.8178 13.1313V13.5974H11.2651V13.1313H10.8178ZM5.89969 13.5939V13.1404H5.45733V13.5939H5.89969ZM4.12957 13.5939H4.56914V13.1334H4.12957V13.5939ZM5.88994 14.9523C5.98328 14.4417 5.92268 14.3825 5.47196 14.5113V14.9523H5.88994ZM9.93591 13.1341H9.49425V13.5876H9.93591V13.1341ZM12.5831 14.9523C12.689 14.4507 12.6165 14.3804 12.1651 14.512V14.9523H12.5831ZM3.28736 14.9523C3.24835 14.7691 3.25113 14.5998 3.17241 14.4869C3.13549 14.434 2.87008 14.4458 2.83664 14.503C2.76698 14.6207 2.78649 14.7886 2.76698 14.9523H3.28736ZM4.13236 14.9411H4.57053V14.4897H4.11076C4.11076 14.6116 4.11076 14.7036 4.11076 14.7949C4.11588 14.8447 4.12378 14.8943 4.13445 14.9432L4.13236 14.9411ZM9.93731 14.4995C9.44967 14.4061 9.39046 14.4786 9.5256 14.9404H9.93731V14.4995ZM3.23929 13.1341H2.79554V13.5883H3.23929V13.1341ZM10.8213 14.9411H11.2644V14.4765H10.8213V14.9411Z" fill="white"/>
<path d="M0.622082 10.9614C0.886101 10.9147 1.10972 10.8681 1.25949 11.2178C1.31731 11.3522 1.59805 11.4595 1.77917 11.463C2.99617 11.4853 4.21735 11.4762 5.43225 11.4769C7.60153 11.4769 9.77081 11.4769 11.9401 11.4769C12.255 11.4769 12.4855 11.4072 12.6367 11.0798C12.6917 10.9628 12.9509 10.9405 13.1243 10.8708C13.2316 11.3139 13.0463 11.72 12.6513 11.8977C12.4295 11.9938 12.1903 12.0436 11.9485 12.044C8.57309 12.0528 5.19772 12.0546 1.82236 12.0495C1.06304 12.0516 0.588644 11.6239 0.622082 10.9614Z" fill="white"/>
<path d="M6.09613 4.54534C5.59944 4.54534 5.10345 4.53767 4.60745 4.54882C4.39847 4.55369 4.31278 4.47916 4.32184 4.27017C4.33229 4.02705 4.32184 3.78253 4.32184 3.53941C4.32183 3.45643 4.3383 3.37427 4.37028 3.2977C4.40227 3.22113 4.44914 3.15168 4.50817 3.09336C4.5672 3.03504 4.63723 2.98902 4.71418 2.95796C4.79113 2.92691 4.87348 2.91144 4.95646 2.91245C5.89643 2.90874 6.83641 2.90874 7.77638 2.91245C7.9325 2.91131 8.08281 2.97159 8.19489 3.08028C8.30697 3.18897 8.37183 3.33736 8.37548 3.49344C8.38244 3.82781 8.37548 4.16219 8.37548 4.53837H6.63392L6.60884 4.62754C6.87913 4.76686 7.15151 4.89643 7.41902 5.03924C7.96404 5.31009 8.37916 5.78636 8.57303 6.36328C8.7669 6.94019 8.72365 7.57049 8.4528 8.11552C8.18195 8.66055 7.70568 9.07566 7.12877 9.26953C6.55185 9.4634 5.92155 9.42016 5.37652 9.14931C4.5559 8.75223 4.10379 8.07581 4.07036 7.16393C4.03692 6.2841 4.41449 5.59027 5.16405 5.12144C5.46639 4.93335 5.79519 4.78706 6.11146 4.62196L6.09613 4.54534ZM7.35353 8.22001L7.83142 7.36595L7.34378 7.26146C7.23023 7.4607 7.13061 7.63764 7.02333 7.82573L7.35353 8.22001ZM7.84117 6.77661L7.33681 5.94067L7.01985 6.31754L7.33612 6.89016L7.84117 6.77661ZM5.36607 5.9351C5.1954 6.23882 5.05259 6.49239 4.89098 6.7801L5.37861 6.8825L5.70184 6.32172L5.36607 5.9351ZM5.37374 7.25868L4.87704 7.3771C5.05886 7.67595 5.20585 7.91838 5.37722 8.20121L5.70045 7.82015L5.37374 7.25868ZM5.86137 8.35794L5.9366 8.47358H6.78648C6.8032 7.98595 6.50784 7.96296 6.21595 8.03192C6.08499 8.06397 5.98398 8.24439 5.86694 8.35934L5.86137 8.35794ZM6.85615 5.80413L6.783 5.68919H5.938C5.90874 6.19354 6.23267 6.15941 6.4953 6.11134C6.63044 6.08626 6.73981 5.91141 6.86172 5.80413H6.85615Z" fill="white"/>
<path d="M10.8506 0.487731C10.7809 1.27491 10.1902 0.995567 9.76385 1.07707V2.8653C10.5301 2.99418 10.5301 2.99417 10.5301 3.78484C10.5301 4.33029 10.5301 4.87575 10.5301 5.4212C10.5301 5.82524 10.4751 5.87401 10.0599 5.87819C9.93243 5.87819 9.79938 5.8545 9.67816 5.88237C8.98572 6.04259 8.65343 5.63367 8.38872 5.06941L8.92372 4.99975C8.89377 4.33656 8.85963 3.68313 8.83943 3.02901C8.83456 2.87993 8.89307 2.72946 8.89586 2.57899C8.90282 2.08021 8.89098 1.58073 8.89586 1.08195C8.90143 0.716223 9.08952 0.503057 9.43992 0.489821C9.90457 0.474495 10.3685 0.487731 10.8506 0.487731Z" fill="white"/>
<path d="M7.0094 2.38378H5.72344C5.59666 1.86967 5.63009 1.82648 6.11843 1.823H6.60606C7.08812 1.82439 7.09091 1.82787 7.0094 2.38378Z" fill="white"/>
<path d="M1.91153 13.5994H1.43435V13.1438H1.91153V13.5994Z" fill="#662E93"/>
<path d="M6.79485 13.5926V13.1377H7.25601C7.26437 13.277 7.27273 13.4163 7.28318 13.5926H6.79485Z" fill="#662E93"/>
<path d="M8.60885 13.1328V13.6204C8.45908 13.6058 8.2689 13.6413 8.17416 13.5626C8.09614 13.4978 8.13027 13.2972 8.11216 13.1356L8.60885 13.1328Z" fill="#662E93"/>
<path d="M7.29015 14.9524H6.80251V14.4648C6.94184 14.4717 7.13828 14.4257 7.20586 14.5003C7.29015 14.5929 7.26507 14.7845 7.29015 14.9524Z" fill="#662E93"/>
<path d="M8.13097 14.9398V14.4897H8.61233V14.9426L8.13097 14.9398Z" fill="#662E93"/>
<path d="M12.1052 13.1265H12.6325C12.6172 13.2902 12.6388 13.4567 12.574 13.5765C12.5434 13.6322 12.2807 13.6461 12.2355 13.5911C12.1526 13.4873 12.1519 13.3173 12.1052 13.1265Z" fill="#662E93"/>
<path d="M1.4427 14.4897H1.91362V14.9426H1.4427V14.4897Z" fill="#662E93"/>
<path d="M10.8178 13.1313H11.2651V13.5974H10.8178V13.1313Z" fill="#662E93"/>
<path d="M5.89968 13.5939H5.45733V13.1404H5.89968V13.5939Z" fill="#662E93"/>
<path d="M4.12957 13.5945V13.134H4.56914V13.5945H4.12957Z" fill="#662E93"/>
<path d="M5.88993 14.9531H5.47196V14.5121C5.92198 14.3832 5.98328 14.4425 5.88993 14.9531Z" fill="#662E93"/>
<path d="M9.93591 13.1348V13.5883H9.49426V13.1348H9.93591Z" fill="#662E93"/>
<path d="M12.5852 14.9529H12.1672V14.5126C12.6186 14.381 12.691 14.4513 12.5852 14.9529Z" fill="#662E93"/>
<path d="M3.28945 14.9544H2.76907C2.78858 14.7907 2.76907 14.6228 2.83873 14.5051C2.87217 14.4479 3.13758 14.4354 3.1745 14.489C3.25322 14.6019 3.25044 14.7684 3.28945 14.9544Z" fill="#662E93"/>
<path d="M4.13445 14.9431C4.12417 14.8934 4.11673 14.8432 4.11216 14.7927C4.10868 14.7014 4.11216 14.6095 4.11216 14.4875H4.57402V14.9431H4.13445Z" fill="#662E93"/>
<path d="M9.9394 14.5015V14.9425H9.52769C9.39255 14.4806 9.45385 14.4082 9.9394 14.5015Z" fill="#662E93"/>
<path d="M3.24138 13.1362V13.5904H2.79763V13.1362H3.24138Z" fill="#662E93"/>
<path d="M10.8234 14.9432V14.4785H11.2665V14.9432H10.8234Z" fill="#662E93"/>
<path d="M7.35354 8.22003L7.02125 7.82574C7.12853 7.63765 7.23023 7.46071 7.34169 7.26147L7.82933 7.36597L7.35354 8.22003Z" fill="#662E93"/>
<path d="M7.84396 6.77753L7.33891 6.88968L7.02264 6.31706L7.33961 5.94019L7.84396 6.77753Z" fill="#662E93"/>
<path d="M5.36886 5.93579L5.70184 6.32242L5.37861 6.8832L4.89098 6.78079C5.05538 6.49239 5.19819 6.23952 5.36886 5.93579Z" fill="#662E93"/>
<path d="M5.37653 7.25879L5.70185 7.82027L5.37862 8.20132C5.20725 7.91849 5.06026 7.67606 4.87844 7.37721L5.37653 7.25879Z" fill="#662E93"/>
<path d="M5.86694 8.35947C5.98398 8.24592 6.08499 8.06549 6.22152 8.03345C6.51201 7.96379 6.80878 7.99026 6.79206 8.47511H5.94218L5.86694 8.35947Z" fill="#662E93"/>
<path d="M6.86172 5.80415C6.73982 5.91143 6.63045 6.08628 6.49391 6.11136C6.23268 6.15943 5.90875 6.19356 5.93661 5.68921H6.78719L6.86172 5.80415Z" fill="#662E93"/>
</g>
<defs>
<clipPath id="clip0_342_144">
<rect width="17.1926" height="16" fill="white"/>
</clipPath>
</defs>
</svg>
