<svg width="15" height="16" viewBox="0 0 15 16" fill="none" xmlns="http://www.w3.org/2000/svg">
<g clip-path="url(#clip0_238_101)">
<path d="M7.41744 1.14324H2.32704C1.86847 1.14324 1.66909 1.3337 1.6387 1.79272C1.4773 4.19702 1.31574 6.60101 1.15402 9.00467C1.1469 9.11181 1.14595 9.21895 1.14595 9.32608C1.14595 11.3199 1.14595 13.3136 1.14595 15.3072C1.14909 15.4019 1.13967 15.4967 1.11794 15.589C1.08295 15.7169 1.00401 15.8283 0.895063 15.9034C0.78612 15.9785 0.654201 16.0125 0.522642 15.9995C0.38807 15.9855 0.26268 15.9245 0.168365 15.8272C0.0740509 15.7299 0.0168054 15.6025 0.00662472 15.4671C0.00235226 15.4081 0.00662472 15.3481 0.00662472 15.2886C0.00662472 13.5568 -0.0118893 11.8245 0.0132707 10.0932C0.0294111 8.98182 0.101569 7.87093 0.165655 6.76004C0.233065 5.58392 0.319938 4.40923 0.398267 3.23406C0.435295 2.676 0.463778 2.11699 0.51125 1.55988C0.58673 0.668502 1.32871 0.00235051 2.24444 0.000922026C4.19078 -0.00193495 6.13713 -0.00193495 8.08347 0.000922026C9.56712 0.000922026 11.0505 0.000922026 12.5335 0.000922026C13.5541 0.000922026 14.261 0.687073 14.3251 1.70939C14.4314 3.40167 14.5553 5.09252 14.664 6.7848C14.7423 7.99569 14.8368 9.20466 14.8226 10.4213C14.8036 12.0516 14.8183 13.6825 14.8173 15.3129C14.8207 15.4018 14.8127 15.4907 14.7936 15.5776C14.7595 15.7084 14.6798 15.8226 14.5689 15.8995C14.458 15.9764 14.3233 16.0108 14.1893 15.9966C14.0551 15.9815 13.9305 15.9195 13.8371 15.8216C13.7438 15.7237 13.6876 15.5961 13.6785 15.461C13.6747 15.4019 13.6785 15.3424 13.6785 15.2829C13.6785 13.5449 13.697 11.8069 13.6718 10.0694C13.6557 8.96991 13.5831 7.87093 13.5195 6.77242C13.4525 5.6144 13.3657 4.45732 13.2878 3.29977C13.2517 2.75981 13.218 2.21936 13.1791 1.68082C13.1709 1.53939 13.1105 1.40608 13.0098 1.30674C12.9091 1.2074 12.7752 1.14913 12.6341 1.14324C12.5752 1.13943 12.5159 1.14324 12.4566 1.14324H7.41744Z" fill="#B07FD8"/>
<path d="M7.39328 9.14287H4.08402C3.3297 9.14287 2.85498 8.66671 2.85498 7.90485C2.85498 6.44144 2.85498 4.97804 2.85498 3.51463C2.85498 2.76229 3.3297 2.28613 4.07738 2.28613H10.7495C11.4948 2.28613 11.9696 2.7623 11.9696 3.51558C11.9696 4.98502 11.9696 6.45446 11.9696 7.92389C11.9696 8.66099 11.4901 9.14287 10.7562 9.14287C9.63458 9.14287 8.51361 9.14287 7.39328 9.14287ZM10.8179 7.99198V3.44273H4.0038V7.99198H10.8179Z" fill="#B07FD8"/>
<path d="M6.27292 11.4413V14.1669C6.27292 14.6507 6.06452 14.8568 5.57699 14.8568C4.88358 14.8568 4.19002 14.8568 3.4963 14.8568C3.08424 14.8568 2.85591 14.6297 2.85543 14.2197C2.85543 13.2984 2.85543 12.377 2.85543 11.4451C2.80226 11.4318 2.75242 11.4209 2.704 11.4056C2.57111 11.369 2.45594 11.2854 2.37982 11.1702C2.30371 11.055 2.27181 10.916 2.29004 10.779C2.33039 10.4933 2.56728 10.2881 2.87489 10.2871C3.76404 10.2871 4.65366 10.2871 5.54281 10.2871C5.76782 10.2871 5.99331 10.2871 6.21833 10.2871C6.5606 10.2871 6.80793 10.4938 6.84021 10.799C6.87249 11.1042 6.67406 11.3523 6.33748 11.4275L6.27292 11.4413ZM4.0071 11.4366V13.6998H5.12411V11.4366H4.0071Z" fill="#662E93"/>
<path d="M9.12119 10.8571C9.12119 10.9702 9.08768 11.0808 9.02492 11.1749C8.96215 11.2689 8.87296 11.3422 8.76865 11.3853C8.66433 11.4284 8.5496 11.4395 8.43899 11.4172C8.32839 11.3948 8.22689 11.34 8.14738 11.2597C8.06786 11.1794 8.01391 11.0773 7.99236 10.9662C7.97081 10.8551 7.98263 10.7401 8.02633 10.6357C8.07003 10.5314 8.14364 10.4424 8.23782 10.3801C8.332 10.3178 8.4425 10.2849 8.55533 10.2857C8.70545 10.2876 8.8488 10.3486 8.9546 10.4554C9.0604 10.5623 9.12021 10.7065 9.12119 10.8571Z" fill="#662E93"/>
<path d="M10.2605 10.2856C10.3733 10.2856 10.4836 10.3192 10.5774 10.3822C10.6711 10.4451 10.7441 10.5345 10.7871 10.6392C10.8302 10.7438 10.8412 10.8588 10.819 10.9697C10.7967 11.0807 10.7421 11.1825 10.6621 11.2623C10.5821 11.342 10.4803 11.3962 10.3696 11.4179C10.2589 11.4395 10.1442 11.4277 10.0402 11.384C9.93618 11.3402 9.84745 11.2665 9.78525 11.1721C9.72306 11.0777 9.69021 10.9669 9.69087 10.8537C9.69273 10.7031 9.75345 10.5591 9.85997 10.4529C9.9665 10.3467 10.1103 10.2866 10.2605 10.2856Z" fill="#662E93"/>
<path d="M12.5392 10.8599C12.5386 10.9731 12.5046 11.0836 12.4413 11.1773C12.3781 11.2711 12.2885 11.3439 12.1839 11.3864C12.0794 11.429 11.9645 11.4395 11.854 11.4166C11.7435 11.3936 11.6423 11.3382 11.5632 11.2575C11.4841 11.1768 11.4307 11.0743 11.4098 10.9631C11.3889 10.8518 11.4013 10.7369 11.4456 10.6328C11.4899 10.5287 11.564 10.4401 11.6586 10.3783C11.7531 10.3165 11.8638 10.2843 11.9767 10.2857C12.1267 10.2884 12.2697 10.3501 12.3749 10.4575C12.4801 10.5649 12.5391 10.7094 12.5392 10.8599Z" fill="#662E93"/>
<path d="M8.55154 11.9998C8.66433 11.9998 8.77458 12.0333 8.86832 12.0963C8.96206 12.1592 9.03508 12.2486 9.07811 12.3532C9.12114 12.4577 9.13225 12.5728 9.11004 12.6837C9.08783 12.7946 9.03329 12.8964 8.95333 12.9762C8.87338 13.056 8.77161 13.1102 8.66092 13.1319C8.55023 13.1536 8.4356 13.1419 8.33156 13.0982C8.22752 13.0545 8.13875 12.9809 8.0765 12.8865C8.01425 12.7922 7.98132 12.6814 7.98188 12.5683C7.98362 12.4176 8.04428 12.2735 8.15082 12.1672C8.25736 12.0609 8.40125 12.0007 8.55154 11.9998Z" fill="#662E93"/>
<path d="M10.8302 12.5784C10.8288 12.6916 10.7938 12.8018 10.7299 12.895C10.6659 12.9883 10.5758 13.0604 10.4709 13.1022C10.3661 13.144 10.2512 13.1536 10.1409 13.1298C10.0305 13.106 9.92973 13.0499 9.85125 12.9685C9.77277 12.8872 9.72014 12.7843 9.70003 12.673C9.67993 12.5616 9.69325 12.4467 9.73832 12.343C9.78338 12.2392 9.85816 12.1512 9.95316 12.0901C10.0482 12.029 10.1591 11.9976 10.2719 11.9999C10.4219 12.0039 10.5644 12.0667 10.6688 12.1748C10.7732 12.283 10.8311 12.4279 10.8302 12.5784Z" fill="#662E93"/>
<path d="M12.5392 12.5712C12.5392 12.6843 12.5057 12.795 12.4429 12.889C12.3801 12.9831 12.2909 13.0563 12.1866 13.0994C12.0823 13.1426 11.9676 13.1536 11.857 13.1313C11.7464 13.1089 11.6449 13.0541 11.5653 12.9738C11.4858 12.8935 11.4319 12.7914 11.4103 12.6803C11.3888 12.5692 11.4006 12.4542 11.4443 12.3498C11.488 12.2455 11.5616 12.1565 11.6558 12.0942C11.75 12.0319 11.8605 11.999 11.9733 11.9998C12.1234 12.0018 12.2668 12.0627 12.3726 12.1696C12.4784 12.2764 12.5382 12.4206 12.5392 12.5712Z" fill="#662E93"/>
<path d="M8.55676 14.8566C8.44387 14.8577 8.33322 14.825 8.23886 14.7629C8.14449 14.7007 8.07067 14.6119 8.02675 14.5076C7.98283 14.4032 7.9708 14.2882 7.99219 14.177C8.01358 14.0658 8.06742 13.9635 8.14687 13.8831C8.22633 13.8027 8.32782 13.7477 8.43846 13.7252C8.54911 13.7028 8.66391 13.7138 8.76831 13.7569C8.87271 13.7999 8.96199 13.8732 9.02482 13.9672C9.08764 14.0613 9.12119 14.172 9.12119 14.2852C9.1201 14.4355 9.06044 14.5795 8.95497 14.6862C8.8495 14.793 8.70658 14.8542 8.55676 14.8566Z" fill="#662E93"/>
<path d="M10.8302 14.2882C10.8302 14.4016 10.7965 14.5124 10.7336 14.6065C10.6706 14.7007 10.5812 14.7739 10.4766 14.8169C10.372 14.8599 10.2571 14.8707 10.1464 14.848C10.0357 14.8253 9.93418 14.7701 9.85484 14.6893C9.77551 14.6086 9.7219 14.506 9.70084 14.3947C9.67978 14.2833 9.69221 14.1682 9.73657 14.0639C9.78093 13.9597 9.8552 13.871 9.94993 13.8092C10.0447 13.7474 10.1556 13.7152 10.2686 13.7169C10.418 13.7198 10.5603 13.7812 10.6652 13.888C10.7702 13.9947 10.8293 14.1384 10.8302 14.2882Z" fill="#662E93"/>
<path d="M12.5392 14.2776C12.5407 14.3908 12.5086 14.5019 12.4471 14.5968C12.3856 14.6917 12.2973 14.7661 12.1936 14.8106C12.0898 14.8551 11.9752 14.8677 11.8643 14.8468C11.7534 14.8259 11.6512 14.7724 11.5706 14.6932C11.4901 14.6139 11.4348 14.5124 11.4118 14.4016C11.3889 14.2908 11.3992 14.1756 11.4416 14.0707C11.484 13.9658 11.5564 13.8759 11.6498 13.8123C11.7432 13.7488 11.8533 13.7145 11.9662 13.7139C12.1162 13.7141 12.2602 13.7732 12.3673 13.8786C12.4744 13.984 12.5361 14.1272 12.5392 14.2776Z" fill="#662E93"/>
</g>
<defs>
<clipPath id="clip0_238_101">
<rect width="14.8235" height="16" fill="white"/>
</clipPath>
</defs>
</svg>
