<svg width="16" height="16" viewBox="0 0 16 16" fill="none" xmlns="http://www.w3.org/2000/svg">
<g clip-path="url(#clip0_189_178)">
<path d="M3.49688e-06 2.46873C0.0612535 2.25457 0.0958369 2.0279 0.190837 1.82998C0.304587 1.59373 0.46042 1.37582 0.616253 1.16332C0.713337 1.03082 0.848337 1.02873 0.954587 1.12373C1.06084 1.21873 1.07125 1.3504 0.964587 1.46873C0.595003 1.87748 0.459587 2.35957 0.464587 2.90373C0.475837 3.9554 0.464587 5.00748 0.46917 6.05915C0.46623 6.47422 0.604225 6.878 0.860584 7.20444C1.11694 7.53089 1.47649 7.76068 1.88042 7.85623C1.94542 7.87248 2.01209 7.88082 2.09375 7.8954C2.09375 7.42123 2.09375 6.95873 2.09 6.49623C2.09 6.45457 2.04417 6.40665 2.01 6.37123C1.74292 6.10082 1.47084 5.8354 1.20542 5.56332C1.06959 5.42415 1.10792 5.23957 1.28 5.17082C1.38667 5.12915 1.47125 5.16582 1.54625 5.24415C1.71514 5.41998 1.88445 5.59512 2.05417 5.76957L2.09584 5.75415V5.5929C2.09584 4.60873 2.09584 3.62457 2.09584 2.6404C2.09584 2.4254 2.21125 2.30998 2.38292 2.35332C2.52167 2.38832 2.56667 2.48582 2.56542 2.6229C2.56209 3.10207 2.56542 3.58123 2.56542 4.05998C2.56542 4.08498 2.56792 4.10998 2.57042 4.15748C2.61417 4.12207 2.64584 4.1004 2.67292 4.07415C2.80625 3.94207 2.93792 3.80915 3.07084 3.67665C3.2425 3.50498 3.36625 3.4829 3.48042 3.60332C3.59459 3.72373 3.57459 3.83623 3.40709 4.00415L2.86542 4.54582C2.78834 4.6229 2.70542 4.69582 2.63584 4.77957C2.59668 4.8248 2.57276 4.88122 2.5675 4.94082C2.56375 5.89915 2.565 6.85748 2.56542 7.81582C2.5673 7.8375 2.57036 7.85906 2.57459 7.8804C2.62852 7.87688 2.68222 7.87034 2.73542 7.86082C3.13703 7.76741 3.49548 7.5415 3.75301 7.21949C4.01055 6.89748 4.15215 6.49813 4.155 6.08582C4.16195 4.96082 4.16195 3.83582 4.155 2.71082C4.14834 1.55415 3.08167 0.69415 1.94667 0.922067C1.83459 0.944567 1.72875 0.957067 1.65167 0.847483C1.54167 0.6904 1.62542 0.51415 1.83084 0.467067C2.35498 0.35535 2.90165 0.429146 3.3774 0.67584C3.85316 0.922535 4.22847 1.32681 4.43917 1.81957C4.56284 2.10739 4.62609 2.41755 4.625 2.73082C4.625 3.58443 4.625 4.43832 4.625 5.29248V5.44873C4.85125 5.41332 5.06542 5.35665 5.28 5.35373C5.49459 5.35082 5.70917 5.40207 5.93334 5.43082C6.16459 4.86623 6.58167 4.51998 7.22209 4.52332C7.8625 4.52665 8.27417 4.88165 8.505 5.45998C9.17167 5.45415 9.24292 5.47582 9.69959 5.8229C10.195 5.4829 10.7392 5.37123 11.3246 5.54957C11.91 5.7279 12.2917 6.11998 12.5158 6.69165C12.9358 6.53832 13.345 6.56665 13.7658 6.7654V6.43207C13.7658 6.06248 13.7633 5.69248 13.7658 5.3229C13.7658 5.22832 13.7425 5.17915 13.6479 5.13707C13.2863 4.97665 13.0929 4.69332 13.0883 4.29332C13.0846 3.97165 13.0883 3.64957 13.0883 3.31665C13.0242 3.31332 12.9663 3.3254 12.925 3.30457C12.8471 3.2654 12.7442 3.22123 12.7167 3.15248C12.7047 3.10995 12.7029 3.06522 12.7112 3.02184C12.7195 2.97845 12.7378 2.93759 12.7646 2.90248C12.9896 2.65707 13.2254 2.4204 13.4704 2.19415C13.6178 2.05803 13.8117 1.98366 14.0123 1.98637C14.2129 1.98909 14.4047 2.06868 14.5483 2.20873C14.7763 2.42248 14.9917 2.64873 15.215 2.86832C15.295 2.94748 15.34 3.03498 15.2963 3.1479C15.2525 3.26082 15.1579 3.30915 15.0367 3.30707C15.0013 3.30707 14.9654 3.31207 14.9117 3.31582C14.9117 3.6154 14.9058 3.91123 14.9117 4.20665C14.9221 4.65707 14.7313 4.97457 14.315 5.15582C14.2957 5.16501 14.2787 5.17844 14.2653 5.1951C14.2519 5.21177 14.2424 5.23124 14.2375 5.25207C14.2317 5.5629 14.2342 5.87373 14.2342 6.18498L14.2875 6.2229C14.3122 6.17312 14.3422 6.12617 14.3771 6.0829C14.7204 5.73554 15.1731 5.51753 15.6588 5.46582C15.8096 5.4479 15.925 5.48457 15.9988 5.6229V5.77915C15.9196 5.88582 15.8138 5.92582 15.6808 5.93873C14.8863 6.01498 14.2338 6.7404 14.2333 7.5379C14.2333 8.3654 14.2333 9.1929 14.2333 10.0204V10.2225C14.3471 10.2225 14.4446 10.2225 14.5417 10.2225C14.7617 10.2254 14.8408 10.3058 14.8421 10.5258C14.8421 10.7321 14.8421 10.9383 14.8421 11.1542H15.1563C15.3879 11.1542 15.4658 11.2325 15.4671 11.4621C15.4671 11.6679 15.4671 11.8733 15.4671 12.0804C15.67 12.1058 15.8838 12.0229 15.9983 12.2471V12.3721C15.9338 12.5096 15.8283 12.5583 15.6746 12.5579C10.5565 12.5551 5.43861 12.5551 0.320837 12.5579C0.16917 12.5579 0.0583368 12.5162 -0.00166321 12.3721V12.2783C0.0537535 12.1325 0.157087 12.0821 0.313753 12.0842C0.849587 12.0917 1.38584 12.0871 1.92209 12.0871H2.08875V8.3779C2.03875 8.36707 1.99375 8.3554 1.94792 8.34832C1.50087 8.27632 1.08464 8.07512 0.750515 7.7695C0.416392 7.46388 0.178971 7.0672 0.0675036 6.62832C0.0441703 6.53373 0.0220867 6.43873 -0.000413259 6.34373L3.49688e-06 2.46873ZM5.04959 11.41C4.79292 11.41 4.54459 11.41 4.29625 11.41C4.08459 11.41 4.00459 11.3296 4.00459 11.1183C4.0025 10.8475 4.00459 10.5767 4.00459 10.3062C4.00459 10.0746 4.08209 9.9979 4.31459 9.99748C4.90292 9.99748 5.49125 9.99748 6.07959 9.99748H6.23917V9.50373C5.8225 9.50373 5.41542 9.50373 5.01 9.50373C4.79834 9.50373 4.72084 9.42415 4.72042 9.20998C4.72042 8.78832 4.72042 8.36651 4.72042 7.94457C4.72042 7.7229 4.79709 7.64665 5.02209 7.64665C7.01125 7.64665 9.00028 7.64665 10.9892 7.64665C11.2042 7.64665 11.2829 7.72582 11.2833 7.93832C11.285 8.36554 11.285 8.79248 11.2833 9.21915C11.2833 9.42373 11.2029 9.50457 11.0017 9.5054C10.6425 9.5054 10.2833 9.5054 9.92375 9.5054H9.7625V9.9979H9.94542C10.5338 9.9979 11.1221 9.9979 11.7104 9.9979C11.9121 9.9979 11.9946 10.0812 11.9967 10.2829C11.9992 10.5483 11.9967 10.8137 11.9967 11.0796C11.9967 11.3454 11.9267 11.4108 11.6633 11.4129C11.4258 11.4129 11.1888 11.4129 10.9529 11.4129V12.0816H12.53C12.53 11.8683 12.53 11.665 12.53 11.4637C12.53 11.2412 12.6096 11.1617 12.8283 11.1592C12.935 11.1592 13.0417 11.1592 13.1546 11.1592C13.1546 10.9325 13.1546 10.7296 13.1546 10.5271C13.1546 10.3083 13.2358 10.23 13.4588 10.2275C13.5558 10.2275 13.6529 10.2275 13.7463 10.2275C13.753 10.206 13.7578 10.184 13.7608 10.1617C13.7608 9.2504 13.7642 8.33915 13.7588 7.4279C13.7543 7.39608 13.7434 7.36549 13.7268 7.33799C13.7102 7.31049 13.6882 7.28664 13.6621 7.2679C13.3058 7.01373 12.9313 6.9954 12.5471 7.20332C12.2992 7.33748 12.1858 7.28165 12.1067 7.00832C12.0649 6.84722 12.0003 6.69289 11.915 6.54998C11.465 5.84873 10.5033 5.73248 9.87584 6.29415C9.70375 6.4479 9.57917 6.44582 9.45334 6.28748C9.15542 5.91248 8.8875 5.8379 8.42584 5.99873C8.24959 6.0604 8.12042 5.98207 8.0875 5.79415C8.07959 5.7479 8.0725 5.70165 8.06167 5.65623C8.0164 5.46882 7.91036 5.30167 7.76009 5.18087C7.60983 5.06007 7.4238 4.99241 7.23104 4.98847C7.03828 4.98452 6.84963 5.04449 6.69455 5.15904C6.53946 5.27359 6.42666 5.43625 6.37375 5.62165C6.35709 5.68165 6.34959 5.74415 6.33209 5.80415C6.26417 6.04748 6.15375 6.09582 5.93167 5.97957C5.54209 5.77582 5.14709 5.76498 4.74417 5.94165C4.70541 5.95395 4.67195 5.97901 4.64925 6.01276C4.62655 6.0465 4.61595 6.08694 4.61917 6.12748C4.60674 6.64161 4.42278 7.13683 4.09656 7.5344C3.77033 7.93197 3.32056 8.20907 2.81875 8.32165C2.73542 8.34123 2.65 8.35832 2.575 8.37457V12.0775H5.04667L5.04959 11.41ZM10.4663 11.41C10.2163 11.41 9.9825 11.41 9.74917 11.41C9.61209 11.41 9.53792 11.3337 9.52875 11.1983C9.525 11.1686 9.52728 11.1384 9.53547 11.1095C9.54366 11.0807 9.55758 11.0538 9.57641 11.0304C9.59524 11.0071 9.61858 10.9878 9.64505 10.9737C9.67151 10.9596 9.70055 10.9509 9.73042 10.9483C9.77707 10.9436 9.82399 10.9422 9.87084 10.9442H11.3542C11.4092 10.9442 11.4642 10.9396 11.5158 10.9371V10.4787H4.48209V10.9446H8.36292C8.4252 10.9409 8.48769 10.9444 8.54917 10.955C8.67417 10.9842 8.73 11.0721 8.72 11.1979C8.71 11.3237 8.64542 11.4008 8.515 11.4112C8.46834 11.415 8.42167 11.4112 8.37459 11.4112H5.53917V12.0792H10.4667L10.4663 11.41ZM5.19459 9.02373H10.8042V8.12498H5.19459V9.02373ZM9.27459 9.51623H6.73292V9.98665H9.27459V9.51623ZM14.4413 3.31707H13.5663C13.5663 3.67748 13.5538 4.02998 13.5713 4.38123C13.5817 4.58957 13.8013 4.7504 14.0121 4.74457C14.2325 4.7379 14.4308 4.56582 14.4383 4.3454C14.4471 4.00832 14.4392 3.67082 14.4392 3.31707H14.4413ZM13.0046 12.0783H14.9908V11.6354H13.0046V12.0783ZM13.6296 11.1454H14.365V10.6933H13.6296V11.1454ZM14.4933 2.83332C14.085 2.31957 13.8625 2.3579 13.5304 2.83332H14.4933Z" fill="#B07FD8"/>
<path d="M0 13.9064C0.05375 13.7589 0.157917 13.7105 0.31375 13.7109C4.65625 13.714 8.99847 13.714 13.3404 13.7109C13.4808 13.7109 13.6037 13.7264 13.64 13.8918C13.6476 13.9222 13.6489 13.9538 13.6438 13.9847C13.6387 14.0156 13.6274 14.0451 13.6105 14.0715C13.5936 14.0979 13.5715 14.1205 13.5456 14.138C13.5196 14.1556 13.4904 14.1676 13.4596 14.1734C13.4133 14.1804 13.3664 14.1828 13.3196 14.1805C8.99292 14.1805 4.66639 14.1814 0.34 14.183C0.185 14.183 0.06375 14.1518 0 13.9989V13.9064Z" fill="#662E93"/>
<path d="M10.5937 0C10.6967 0.0333333 10.8021 0.0595834 10.9021 0.101667C11.1828 0.220174 11.4118 0.435056 11.5481 0.707569C11.6843 0.980081 11.7187 1.29229 11.645 1.58792C11.495 2.18 10.93 2.59708 10.3358 2.55417C10.0264 2.53513 9.73424 2.40517 9.5129 2.18812C9.29157 1.97107 9.15592 1.68149 9.13083 1.3725C9.07917 0.763333 9.49667 0.189166 10.1021 0.0362498C10.1413 0.0262498 10.18 0.0120833 10.2187 0H10.5937ZM10.3996 0.469166C10.2398 0.470483 10.0839 0.51907 9.95168 0.608806C9.81943 0.698542 9.7167 0.825412 9.65644 0.973431C9.59617 1.12145 9.58106 1.284 9.61301 1.44059C9.64497 1.59718 9.72255 1.74081 9.83599 1.85338C9.94943 1.96595 10.0937 2.04243 10.2505 2.07318C10.4073 2.10393 10.5697 2.08757 10.7173 2.02617C10.8648 1.96477 10.9909 1.86107 11.0796 1.72813C11.1684 1.5952 11.2157 1.43898 11.2158 1.27917C11.2148 1.06356 11.1283 0.857167 10.9753 0.705297C10.8222 0.553428 10.6152 0.468502 10.3996 0.469166Z" fill="#662E93"/>
<path d="M16 14.0001C15.9313 14.1447 15.8167 14.1897 15.6592 14.1847C15.3629 14.1751 15.0663 14.1847 14.7696 14.1813C14.5788 14.1813 14.4879 14.1009 14.49 13.9447C14.4921 13.7884 14.5813 13.7147 14.7738 13.7134C15.0758 13.7134 15.3775 13.7192 15.6792 13.7105C15.8233 13.7063 15.9292 13.748 16 13.8772V14.0001Z" fill="#662E93"/>
<path d="M7.90625 15.9999C7.86458 15.9329 7.80208 15.8708 7.78375 15.7974C7.75625 15.6879 7.80208 15.5766 7.91792 15.5545C7.99583 15.5395 8.12625 15.5629 8.16042 15.6158C8.20583 15.6866 8.18958 15.8037 8.18167 15.8995C8.17875 15.9349 8.12458 15.9666 8.09375 15.9999H7.90625Z" fill="#662E93"/>
<path d="M2.09375 16C2.05209 15.9392 1.98875 15.8834 1.96875 15.8159C1.95073 15.7662 1.95248 15.7115 1.97366 15.6631C1.99483 15.6147 2.0338 15.5763 2.0825 15.5559C2.12601 15.5312 2.17693 15.5231 2.22597 15.5328C2.275 15.5426 2.31888 15.5697 2.34959 15.6092C2.38651 15.65 2.40784 15.7025 2.40983 15.7574C2.41181 15.8124 2.39431 15.8663 2.36042 15.9096C2.33604 15.9416 2.30945 15.9718 2.28084 16H2.09375Z" fill="#662E93"/>
<path d="M5 16.0001C4.95833 15.9284 4.875 15.8547 4.87916 15.7855C4.88333 15.7022 4.94375 15.5922 5.01166 15.5589C5.07166 15.5289 5.21625 15.5626 5.25083 15.6155C5.29666 15.6859 5.28125 15.803 5.27375 15.8984C5.27125 15.9343 5.21791 15.9664 5.1875 16.0001H5Z" fill="#662E93"/>
<path d="M10.8125 15.9999C10.7725 15.9614 10.7376 15.9178 10.7087 15.8703C10.66 15.7611 10.6742 15.6541 10.7733 15.5786C10.8133 15.5442 10.8649 15.5262 10.9176 15.5282C10.9704 15.5303 11.0204 15.5524 11.0575 15.5899C11.1533 15.6791 11.155 15.7907 11.0925 15.9007C11.0657 15.9373 11.0346 15.9706 11 15.9999H10.8125Z" fill="#662E93"/>
<path d="M13.7188 15.9999C13.6831 15.9645 13.6512 15.9254 13.6238 15.8832C13.565 15.7687 13.58 15.6582 13.6833 15.5778C13.723 15.5428 13.7748 15.5245 13.8277 15.5268C13.8807 15.5291 13.9306 15.5519 13.9671 15.5903C14.0625 15.6799 14.0629 15.792 14.0004 15.9016C13.9732 15.9381 13.9416 15.9711 13.9063 15.9999H13.7188Z" fill="#662E93"/>
<path d="M6.77208 14.8618C6.77206 14.8924 6.76585 14.9227 6.7538 14.9509C6.74176 14.979 6.72415 15.0045 6.70202 15.0257C6.67989 15.0468 6.6537 15.0633 6.62503 15.0741C6.59636 15.0849 6.56581 15.0898 6.5352 15.0885C6.50459 15.0872 6.47457 15.0797 6.44694 15.0664C6.41931 15.0532 6.39464 15.0345 6.37442 15.0115C6.3542 14.9885 6.33884 14.9616 6.32928 14.9325C6.31971 14.9034 6.31613 14.8727 6.31875 14.8422C6.31877 14.8115 6.32499 14.7812 6.33703 14.7531C6.34907 14.7249 6.36669 14.6994 6.38882 14.6783C6.41095 14.6571 6.43714 14.6406 6.4658 14.6298C6.49447 14.619 6.52503 14.6141 6.55563 14.6154C6.58624 14.6168 6.61626 14.6243 6.64389 14.6375C6.67152 14.6507 6.69619 14.6694 6.71641 14.6924C6.73663 14.7154 6.75199 14.7423 6.76156 14.7714C6.77113 14.8005 6.77471 14.8312 6.77208 14.8618Z" fill="#662E93"/>
<path d="M3.8625 14.862C3.86293 14.8929 3.85704 14.9235 3.84519 14.952C3.83334 14.9806 3.81579 15.0064 3.79361 15.0279C3.77142 15.0494 3.74508 15.0661 3.7162 15.0771C3.68731 15.088 3.65649 15.0929 3.62563 15.0916C3.59477 15.0902 3.56452 15.0825 3.53673 15.069C3.50895 15.0555 3.48422 15.0364 3.46407 15.013C3.44392 14.9896 3.42876 14.9623 3.41953 14.9328C3.41031 14.9033 3.4072 14.8723 3.41042 14.8416C3.41176 14.8119 3.41893 14.7827 3.43153 14.7558C3.44413 14.7289 3.4619 14.7047 3.48384 14.6847C3.50578 14.6647 3.53145 14.6491 3.55939 14.639C3.58732 14.6289 3.61698 14.6244 3.64667 14.6257C3.67635 14.6271 3.70548 14.6342 3.73239 14.6468C3.7593 14.6594 3.78347 14.6772 3.80351 14.6991C3.82355 14.7211 3.83908 14.7468 3.8492 14.7747C3.85932 14.8026 3.86384 14.8323 3.8625 14.862Z" fill="#662E93"/>
<path d="M9.45125 14.6251C9.48123 14.6243 9.51105 14.6296 9.53895 14.6406C9.56686 14.6516 9.59228 14.6681 9.61371 14.689C9.63515 14.71 9.65217 14.7351 9.66377 14.7627C9.67537 14.7904 9.68131 14.8201 9.68125 14.8501C9.68348 14.881 9.67936 14.9121 9.66915 14.9413C9.65894 14.9706 9.64286 14.9975 9.62188 15.0203C9.6009 15.0432 9.57548 15.0615 9.54717 15.0741C9.51886 15.0868 9.48826 15.0935 9.45726 15.0939C9.42625 15.0943 9.39549 15.0884 9.36687 15.0764C9.33824 15.0645 9.31236 15.0469 9.2908 15.0246C9.26924 15.0023 9.25247 14.9758 9.24151 14.9468C9.23056 14.9178 9.22565 14.8869 9.22708 14.8559C9.22625 14.8259 9.23142 14.7961 9.24231 14.7681C9.2532 14.7402 9.26957 14.7147 9.29046 14.6932C9.31136 14.6717 9.33635 14.6546 9.36396 14.6429C9.39158 14.6312 9.42126 14.6251 9.45125 14.6251Z" fill="#662E93"/>
<path d="M12.5896 14.8624C12.5899 14.8933 12.5838 14.9239 12.5719 14.9523C12.5599 14.9807 12.5423 15.0064 12.5201 15.0278C12.4978 15.0492 12.4715 15.0658 12.4426 15.0767C12.4137 15.0875 12.3829 15.0923 12.3521 15.0909C12.3213 15.0894 12.2911 15.0816 12.2634 15.0681C12.2356 15.0545 12.211 15.0355 12.1909 15.012C12.1708 14.9886 12.1557 14.9614 12.1465 14.9319C12.1374 14.9025 12.1343 14.8714 12.1375 14.8408C12.138 14.8107 12.1447 14.7811 12.1571 14.7537C12.1695 14.7263 12.1874 14.7018 12.2096 14.6816C12.2319 14.6613 12.258 14.6459 12.2865 14.6362C12.3149 14.6264 12.345 14.6226 12.375 14.6249C12.4048 14.6262 12.434 14.6334 12.4609 14.6461C12.4879 14.6587 12.5121 14.6766 12.532 14.6988C12.552 14.7209 12.5674 14.7467 12.5773 14.7748C12.5871 14.8029 12.5913 14.8327 12.5896 14.8624Z" fill="#662E93"/>
<path d="M0.951668 14.8509C0.953755 14.8808 0.949789 14.9109 0.940004 14.9393C0.930219 14.9677 0.914816 14.9938 0.894714 15.0162C0.874611 15.0385 0.850221 15.0565 0.822996 15.0692C0.795772 15.0819 0.76627 15.089 0.736251 15.09C0.704957 15.0909 0.673816 15.0853 0.644762 15.0737C0.615708 15.062 0.589363 15.0445 0.567363 15.0222C0.545363 15 0.528179 14.9734 0.516877 14.9442C0.505576 14.915 0.500399 14.8838 0.501668 14.8525C0.500763 14.8226 0.505939 14.7928 0.516883 14.7649C0.527828 14.737 0.544313 14.7116 0.565343 14.6902C0.586373 14.6689 0.611512 14.6521 0.63924 14.6407C0.666967 14.6293 0.696709 14.6237 0.726668 14.6242C0.756676 14.623 0.786603 14.6281 0.81455 14.6391C0.842497 14.6501 0.867854 14.6667 0.889011 14.6881C0.910168 14.7094 0.926663 14.7348 0.937449 14.7629C0.948235 14.7909 0.953077 14.8209 0.951668 14.8509Z" fill="#662E93"/>
<path d="M15.2675 15.0901C15.2375 15.0896 15.2078 15.0831 15.1804 15.071C15.1529 15.0588 15.1282 15.0412 15.1076 15.0193C15.0871 14.9974 15.0712 14.9715 15.0609 14.9433C15.0505 14.9151 15.046 14.8851 15.0475 14.8551C15.0457 14.8238 15.0507 14.7925 15.062 14.7633C15.0734 14.7341 15.0909 14.7077 15.1133 14.6858C15.1357 14.6639 15.1626 14.6471 15.1921 14.6365C15.2215 14.6259 15.2529 14.6217 15.2842 14.6243C15.3141 14.6255 15.3435 14.6327 15.3706 14.6455C15.3977 14.6583 15.4219 14.6764 15.4418 14.6987C15.4618 14.7211 15.477 14.7472 15.4867 14.7756C15.4963 14.804 15.5001 14.834 15.4979 14.8638C15.4978 14.8939 15.4917 14.9236 15.4801 14.9513C15.4684 14.9789 15.4514 15.004 15.4299 15.0251C15.4085 15.0461 15.3831 15.0627 15.3552 15.0739C15.3273 15.085 15.2975 15.0905 15.2675 15.0901Z" fill="#662E93"/>
</g>
<defs>
<clipPath id="clip0_189_178">
<rect width="16" height="16" fill="white"/>
</clipPath>
</defs>
</svg>
