<svg width="18" height="16" viewBox="0 0 18 16" fill="none" xmlns="http://www.w3.org/2000/svg">
<g clip-path="url(#clip0_220_278)">
<path d="M6.19679 10.7389C4.95713 9.2476 5.3167 7.49812 6.13058 6.54011C7.05702 5.45018 8.56356 5.07991 9.85313 5.64016C10.5778 5.94431 11.1634 6.50707 11.4962 7.21902C11.842 7.94275 11.8929 8.69602 11.6861 9.46915C12.1109 9.488 12.5224 9.50175 12.934 9.52569C13.1856 9.54046 13.3414 9.70344 13.3322 9.92193C13.3231 10.1404 13.1372 10.3075 12.8851 10.2856C11.3001 10.147 9.76502 10.418 8.25033 10.8499C6.71833 11.2874 5.25915 11.893 3.95837 12.8275C3.5937 13.0898 3.27386 13.4148 2.93975 13.7173C2.77219 13.8701 2.58323 13.9073 2.42229 13.7983C2.21856 13.6603 2.19463 13.4066 2.37594 13.2024C2.83213 12.6853 3.36975 12.2463 3.96754 11.9026C4.65562 11.5089 5.37323 11.1657 6.07812 10.8005L6.19679 10.7389ZM8.59819 6.15048C8.11329 6.14987 7.63918 6.29362 7.23628 6.56343C6.83337 6.83323 6.5199 7.21687 6.3358 7.66547C6.15171 8.11406 6.10533 8.60731 6.20257 9.08236C6.29981 9.55741 6.53627 9.99276 6.88181 10.3329C6.97451 10.4251 7.0504 10.4292 7.16499 10.3895C8.28624 9.99348 9.44767 9.72208 10.6283 9.58018C10.8178 9.55777 10.883 9.48189 10.9339 9.31789C11.0471 8.95208 11.0728 8.5648 11.0089 8.18725C10.945 7.8097 10.7933 7.45244 10.566 7.14425C10.3388 6.83607 10.0423 6.58558 9.70049 6.41296C9.35869 6.24035 8.98111 6.15044 8.59819 6.15048Z" fill="#B07FD8"/>
<path d="M9.95244 11.6086C10.2025 11.6275 10.4439 11.6397 10.6838 11.6662C10.913 11.6912 11.0607 11.8699 11.0403 12.0818C11.0307 12.1816 10.9819 12.2734 10.9047 12.3374C10.8275 12.4013 10.7281 12.4321 10.6283 12.423C8.44234 12.2438 6.53446 13.0154 4.74117 14.1572C4.04677 14.5886 3.44359 15.1518 2.96572 15.815C2.82515 16.0127 2.58883 16.0539 2.41464 15.9286C2.24046 15.8033 2.20277 15.5772 2.34741 15.3709C2.89951 14.5815 3.62069 13.9708 4.42082 13.4503C5.8367 12.531 7.37482 11.9183 9.04944 11.682C9.34891 11.6397 9.65551 11.6316 9.95244 11.6086Z" fill="#662E93"/>
<path d="M8.21365 2.4229C8.21365 1.76793 8.21365 1.11296 8.21365 0.457982C8.21365 0.165637 8.36186 -0.00498202 8.6048 -0.000398217C8.83857 0.00469489 8.9771 0.172258 8.9771 0.457982C8.9771 1.76759 8.9771 3.07737 8.9771 4.38731C8.9771 4.66998 8.83348 4.835 8.59563 4.835C8.35778 4.835 8.21467 4.67049 8.21365 4.38782C8.21314 3.73285 8.21416 3.07788 8.21365 2.4229Z" fill="#B07FD8"/>
<path d="M2.42533 8.97041C1.78937 8.97041 1.15324 8.97041 0.516945 8.97041C0.447148 8.97257 0.377294 8.96882 0.308128 8.95921C0.222826 8.94424 0.145367 8.90012 0.0889823 8.83439C0.0325979 8.76865 0.000786416 8.68537 -0.00101747 8.59879C-0.00282136 8.5122 0.0254939 8.42767 0.0790916 8.35965C0.132689 8.29162 0.208244 8.24431 0.292849 8.2258C0.374203 8.21151 0.456781 8.20537 0.539355 8.20747C1.79226 8.20747 3.04533 8.20747 4.29858 8.20747C4.38111 8.20532 4.46366 8.21112 4.54508 8.22478C4.63198 8.24166 4.71005 8.28887 4.76537 8.35798C4.82068 8.4271 4.84963 8.51361 4.84706 8.6021C4.84449 8.69058 4.81057 8.77527 4.75133 8.84106C4.6921 8.90684 4.61142 8.94944 4.52369 8.96125C4.45451 8.9685 4.38489 8.97072 4.31539 8.96787C3.6852 8.97025 3.05518 8.97109 2.42533 8.97041Z" fill="#B07FD8"/>
<path d="M14.7715 8.9706C14.1094 8.9706 13.4473 8.9706 12.7852 8.9706C12.5418 8.9706 12.4032 8.86874 12.3554 8.67367C12.344 8.62565 12.3424 8.57586 12.3506 8.52721C12.3588 8.47856 12.3767 8.43204 12.4031 8.39038C12.4295 8.34872 12.464 8.31276 12.5045 8.28462C12.5451 8.25648 12.5908 8.23672 12.639 8.2265C12.7141 8.21222 12.7904 8.20608 12.8667 8.20816C14.1325 8.20816 15.3983 8.20816 16.6641 8.20816C16.7402 8.2065 16.8163 8.2123 16.8913 8.22548C16.9763 8.24237 17.0527 8.28851 17.1072 8.35587C17.1617 8.42323 17.1909 8.50756 17.1897 8.59422C17.1906 8.68425 17.1583 8.77144 17.0989 8.8391C17.0395 8.90677 16.9572 8.95014 16.8679 8.96092C16.7412 8.97197 16.614 8.97538 16.4869 8.97111C15.9158 8.97145 15.344 8.97128 14.7715 8.9706Z" fill="#662E93"/>
<path d="M2.84145 2.40039C2.89238 2.42942 3.00086 2.46355 3.07267 2.53434C4.02576 3.47962 4.97648 4.4283 5.92481 5.38037C6.09696 5.55303 6.09798 5.78782 5.94162 5.94061C5.78526 6.0934 5.55913 6.08831 5.38138 5.91107C4.43304 4.96885 3.48725 4.02475 2.54401 3.07879C2.41566 2.94994 2.3632 2.80275 2.44215 2.62856C2.50683 2.47984 2.62754 2.40956 2.84145 2.40039Z" fill="#B07FD8"/>
<path d="M14.8372 2.75893C14.7603 2.89135 14.7242 2.99779 14.6529 3.06961C13.7069 4.0227 12.7581 4.97239 11.8063 5.91869C11.6306 6.09339 11.4014 6.09288 11.2461 5.93448C11.0907 5.77608 11.1004 5.54995 11.2761 5.37424C12.2194 4.42794 13.1638 3.48283 14.1094 2.5389C14.2403 2.40801 14.4018 2.34995 14.5576 2.44316C14.6692 2.50886 14.74 2.64433 14.8372 2.75893Z" fill="#662E93"/>
<path d="M7.8984 14.4752C6.9633 14.5475 6.14484 14.8689 5.52144 15.5957C5.34166 15.806 5.12367 15.858 4.94338 15.7159C4.76308 15.5738 4.74627 15.3451 4.92046 15.1266C5.48783 14.4136 6.25434 14.0194 7.11915 13.8121C7.43543 13.7367 7.7726 13.7336 8.10059 13.7291C8.36034 13.7255 8.51263 13.9078 8.49327 14.1401C8.47494 14.3606 8.29973 14.4966 8.05068 14.4849C7.99975 14.4844 7.94933 14.4793 7.8984 14.4752Z" fill="#662E93"/>
<path d="M6.24517 2.54087C6.2961 2.58926 6.44278 2.66158 6.49524 2.77567C6.77892 3.39244 7.04325 4.01736 7.30708 4.6428C7.32913 4.68875 7.34168 4.73868 7.34399 4.7896C7.34629 4.84052 7.3383 4.89138 7.32049 4.93914C7.30268 4.9869 7.27542 5.03057 7.24034 5.06755C7.20525 5.10453 7.16307 5.13404 7.11631 5.15434C7.06956 5.17463 7.01919 5.18528 6.96822 5.18565C6.91725 5.18603 6.86673 5.17611 6.81968 5.1565C6.77263 5.13689 6.73002 5.10799 6.6944 5.07153C6.65878 5.03507 6.63088 4.9918 6.61238 4.94431C6.33837 4.32346 6.06843 3.70057 5.80716 3.07412C5.69613 2.80775 5.88457 2.53476 6.24517 2.54087Z" fill="#B07FD8"/>
<path d="M5.13029 7.07065C5.12723 7.35637 4.86392 7.5163 4.57004 7.40221C4.13713 7.23567 3.70727 7.06148 3.27589 6.88985C3.09865 6.81956 2.91937 6.75284 2.74467 6.67746C2.51549 6.57866 2.42279 6.37188 2.50784 6.16815C2.5929 5.96443 2.79968 5.8809 3.03345 5.97258C3.64463 6.21093 4.2502 6.45489 4.85882 6.6958C5.02842 6.76455 5.13029 6.87966 5.13029 7.07065Z" fill="#B07FD8"/>
<path d="M10.1424 5.13184C9.85109 5.12624 9.67691 4.867 9.77674 4.60267C9.94226 4.16364 10.119 3.7292 10.2916 3.29272C10.364 3.10988 10.4343 2.92652 10.5112 2.74572C10.6095 2.51398 10.8076 2.42027 11.0154 2.50023C11.2232 2.58019 11.3113 2.79258 11.2222 3.02075C10.9807 3.64109 10.7322 4.25888 10.4842 4.87668C10.4597 4.94879 10.4139 5.01178 10.3529 5.05733C10.2919 5.10289 10.2185 5.12887 10.1424 5.13184Z" fill="#B07FD8"/>
<path d="M14.6422 6.13812C14.6473 6.21532 14.6276 6.29213 14.5859 6.35729C14.5442 6.42246 14.4827 6.47255 14.4104 6.50024C13.7891 6.77221 13.1667 7.04215 12.5413 7.30444C12.4962 7.32479 12.4475 7.336 12.398 7.33743C12.3485 7.33885 12.2993 7.33047 12.253 7.31276C12.2068 7.29505 12.1646 7.26837 12.1287 7.23425C12.0929 7.20013 12.0642 7.15925 12.0442 7.11396C12.0214 7.06776 12.0085 7.0173 12.0063 6.96583C12.0041 6.91435 12.0128 6.86298 12.0316 6.81503C12.0504 6.76708 12.0791 6.72359 12.1157 6.68736C12.1524 6.65113 12.1962 6.62296 12.2443 6.60465C12.8647 6.33013 13.4866 6.05918 14.113 5.79892C14.1698 5.77222 14.2325 5.76036 14.2952 5.76447C14.3578 5.76857 14.4184 5.78849 14.4713 5.82238C14.5241 5.85626 14.5675 5.903 14.5974 5.95822C14.6273 6.01344 14.6427 6.07533 14.6422 6.13812Z" fill="#662E93"/>
<path d="M2.54961 11.043C2.54558 10.9659 2.56621 10.8895 2.60853 10.8249C2.65084 10.7604 2.71262 10.711 2.78492 10.6839C3.40067 10.415 4.01745 10.1476 4.63677 9.88631C4.85221 9.79566 5.06561 9.88275 5.14965 10.0758C5.1713 10.1221 5.18319 10.1724 5.18458 10.2235C5.18596 10.2746 5.17682 10.3255 5.15771 10.3729C5.1386 10.4204 5.10994 10.4634 5.07351 10.4992C5.03707 10.5351 4.99364 10.5631 4.94592 10.5815C4.32558 10.856 3.70371 11.1275 3.07675 11.3862C3.0197 11.4128 2.95684 11.4244 2.89408 11.4199C2.83131 11.4155 2.77072 11.3951 2.71799 11.3608C2.66527 11.3264 2.62214 11.2792 2.59269 11.2236C2.56323 11.168 2.54841 11.1059 2.54961 11.043Z" fill="#B07FD8"/>
</g>
<defs>
<clipPath id="clip0_220_278">
<rect width="17.1918" height="16" fill="white"/>
</clipPath>
</defs>
</svg>
