<svg width="16" height="16" viewBox="0 0 16 16" fill="none" xmlns="http://www.w3.org/2000/svg">
<g clip-path="url(#clip0_224_322)">
<path d="M3.03125 16C2.91708 15.9279 2.835 15.8333 2.88 15.6913C2.92792 15.5396 3.05792 15.5246 3.1975 15.5246C5.895 15.5246 8.59278 15.5246 11.2908 15.5246H11.4992C11.4796 15.4713 11.4671 15.4288 11.4496 15.3892C11.2242 14.8863 10.9954 14.3846 10.7742 13.8796C10.7283 13.7746 10.6713 13.7333 10.5533 13.7342C10.0483 13.7392 9.54292 13.7342 9.03792 13.7313C8.86792 13.7313 8.7625 13.6408 8.75625 13.5033C8.75 13.3658 8.8625 13.2596 9.035 13.2513C9.06083 13.2513 9.08708 13.2513 9.11292 13.2513L10.4254 13.2483H10.6087V9.24543C10.5604 9.24126 10.5058 9.23335 10.4517 9.23335L1.53042 9.2296C1.43083 9.2296 1.35292 9.22168 1.35375 9.3696C1.35917 10.6246 1.35667 11.8796 1.35708 13.135C1.35708 13.1654 1.36125 13.1958 1.36458 13.2425C1.42417 13.2454 1.47875 13.2508 1.53375 13.2513C2.0025 13.2513 2.47125 13.2454 2.94 13.2567C3.04064 13.2609 3.136 13.3028 3.20708 13.3742C3.325 13.5138 3.21125 13.7183 3.0175 13.7292C2.83583 13.7388 2.65292 13.7325 2.47083 13.7329C2.11125 13.7329 1.75208 13.7292 1.39292 13.7371C1.36224 13.7391 1.33242 13.7481 1.30571 13.7633C1.27901 13.7785 1.25611 13.7996 1.23875 13.825C0.98875 14.3625 0.748333 14.9042 0.505833 15.4454C0.497466 15.4693 0.490646 15.4936 0.485417 15.5183C0.542083 15.5217 0.59125 15.5267 0.64 15.5267C1.12458 15.5267 1.60875 15.5292 2.09333 15.5267C2.22875 15.5267 2.34875 15.5471 2.39708 15.6896C2.44542 15.8321 2.35792 15.9238 2.25167 16.0008H0.375C0.290376 15.967 0.213509 15.9163 0.149052 15.8518C0.0845942 15.7873 0.0338872 15.7105 0 15.6258V15.4071C0.281667 14.7821 0.565 14.1571 0.842084 13.5321C0.869344 13.4597 0.881949 13.3827 0.879167 13.3054C0.881389 11.9938 0.881389 10.682 0.879167 9.37001C0.879167 8.94251 1.06083 8.75876 1.48417 8.75876H3.99333C3.99333 8.48043 4.0025 8.22085 3.99333 7.96251C3.94375 6.73918 5.00708 5.76001 6.20167 5.89293C6.21798 5.89154 6.23407 5.88818 6.24958 5.88293V5.73543C6.24958 5.37085 6.2625 5.00585 6.24708 4.6421C6.21125 3.81168 6.37958 3.61501 7.24042 3.6571C7.51542 3.67043 7.79167 3.65918 8.09167 3.65918C8.09167 3.59835 8.09167 3.54376 8.09167 3.48918C8.1 3.0371 8.0725 2.58043 8.12458 2.13335C8.24958 1.05001 9.11083 0.197929 10.1938 0.0316792C10.2231 0.0244225 10.2518 0.0148084 10.2796 0.00292969H10.8421C11.085 0.0745964 11.3421 0.116679 11.5679 0.223763C12.4908 0.661263 12.9883 1.39835 13.0308 2.42376C13.0475 2.82835 13.0338 3.23418 13.0338 3.65043C13.0979 3.65376 13.1479 3.65876 13.1983 3.65876C13.5683 3.65876 13.9379 3.65626 14.3075 3.65876C14.6358 3.6621 14.8713 3.89293 14.875 4.21835C14.8796 4.59835 14.8779 4.97876 14.875 5.35876C14.875 5.52043 14.7729 5.62626 14.6317 5.62626C14.5042 5.62626 14.4038 5.51585 14.4025 5.36085C14.3992 5.01168 14.3967 4.66293 14.4025 4.31418C14.405 4.18168 14.3667 4.12918 14.2258 4.1296C11.7833 4.1321 9.34083 4.1321 6.89833 4.1296C6.76042 4.1296 6.71708 4.17835 6.71833 4.31251C6.72375 4.83835 6.72208 5.3646 6.71833 5.89043C6.71377 5.92773 6.72195 5.96548 6.74154 5.99755C6.76113 6.02962 6.79098 6.05413 6.82625 6.0671C7.58625 6.4471 7.96917 7.07001 7.99 7.91585C7.99708 8.18626 7.99 8.45751 7.99 8.75376H10.5075C10.9033 8.75376 11.0942 8.94335 11.0942 9.3371C11.0942 10.6546 11.0942 11.9725 11.0971 13.29C11.1009 13.3914 11.1245 13.4911 11.1667 13.5833C11.3833 14.0792 11.6096 14.5704 11.8296 15.0646C11.8946 15.21 11.9508 15.3596 12.0192 15.5275H12.1667H15.3071C15.545 15.5275 15.5604 15.5038 15.4638 15.2888C15.1592 14.6104 14.8517 13.9333 14.5508 13.2533C14.5092 13.1583 14.4588 13.1258 14.3542 13.1283C13.7238 13.1329 13.0938 13.1283 12.4633 13.1283C12.4217 13.1283 12.38 13.1283 12.3383 13.1283C12.1829 13.1167 12.0883 13.0221 12.0883 12.8838C12.0883 12.7454 12.1854 12.6538 12.3458 12.6525C12.82 12.6496 13.2937 12.6504 13.7679 12.6496H14.4029V6.4271C14.3985 6.36996 14.4006 6.31251 14.4092 6.25585C14.4388 6.13085 14.5146 6.05001 14.6517 6.06126C14.7101 6.06135 14.7661 6.08422 14.8079 6.12499C14.8497 6.16576 14.8739 6.22123 14.8754 6.2796C14.8804 6.33126 14.8775 6.38376 14.8775 6.43543C14.8775 8.51376 14.8785 10.5918 14.8804 12.6696C14.8808 12.7726 14.9022 12.8744 14.9433 12.9688C15.2917 13.75 15.6471 14.5317 16 15.3125V15.5313C15.9696 15.6386 15.9141 15.7371 15.838 15.8186C15.7619 15.9001 15.6675 15.9623 15.5625 16H3.03125ZM12.5833 3.65126C12.5658 3.1221 12.5942 2.6021 12.5221 2.09668C12.3867 1.14835 11.5042 0.45668 10.525 0.47168C9.5725 0.483763 8.71542 1.20626 8.59792 2.14668C8.54042 2.60835 8.57042 3.08085 8.56167 3.54835C8.56349 3.58359 8.56767 3.61866 8.57417 3.65335L12.5833 3.65126ZM6.24333 8.75001V6.36585C5.64833 6.2946 5.16333 6.47751 4.785 6.93793C4.33833 7.48293 4.48708 8.12668 4.46375 8.7496L6.24333 8.75001ZM6.735 6.5496V8.7371H7.5325C7.51042 8.31835 7.52167 7.91001 7.45792 7.51335C7.39 7.09085 7.12125 6.78085 6.735 6.54918V6.5496Z" fill="#B07FD8"/>
<path d="M4.96875 0C5.19541 0.05875 5.34667 0.20125 5.39417 0.428333C5.4775 0.826667 5.7275 1.04542 6.10708 1.15292C6.28458 1.20333 6.40916 1.31958 6.43208 1.51292C6.4436 1.58823 6.43304 1.66527 6.40168 1.7347C6.37033 1.80414 6.31952 1.863 6.25541 1.90417C6.22677 1.92685 6.19412 1.94396 6.15917 1.95458C5.68958 2.05833 5.46458 2.38208 5.34208 2.82083C5.31968 2.91915 5.2601 3.00499 5.17583 3.06036C5.09156 3.11574 4.98913 3.13636 4.89 3.11792C4.81716 3.10872 4.74824 3.07974 4.69073 3.03412C4.63321 2.9885 4.58929 2.92799 4.56375 2.85917C4.49166 2.68083 4.42708 2.49875 4.345 2.32542C4.30984 2.25464 4.25444 2.1959 4.18583 2.15667C4.035 2.07542 3.87375 2.01417 3.71708 1.94458C3.55417 1.87208 3.465 1.74875 3.46416 1.56958C3.46416 1.38167 3.55416 1.255 3.72541 1.18292C3.73418 1.17746 3.74338 1.17272 3.75292 1.16875C4.18333 1.06667 4.43208 0.79375 4.52833 0.365417C4.54558 0.277932 4.58732 0.197144 4.64869 0.132454C4.71006 0.0677637 4.78854 0.0218309 4.875 0H4.96875ZM5.83083 1.565C5.63292 1.45458 5.395 1.38208 5.24958 1.22417C5.10417 1.06625 5.04625 0.81875 4.94791 0.60625C4.85041 0.817917 4.79667 1.06167 4.65 1.22C4.50333 1.37833 4.26125 1.45625 4.04916 1.57625C4.17 1.63042 4.28291 1.69125 4.40291 1.73333C4.49223 1.76203 4.57314 1.81222 4.63853 1.87949C4.70391 1.94677 4.75178 2.02907 4.77791 2.11917C4.82375 2.25667 4.88333 2.38917 4.94208 2.53583C5.05 2.30333 5.10583 2.06 5.25292 1.90125C5.4 1.7425 5.63541 1.67292 5.83083 1.565Z" fill="#662E93"/>
<path d="M2.84833 6.59833C2.71083 6.59499 2.58417 6.50874 2.515 6.34458C2.44042 6.16708 2.38042 5.98333 2.2975 5.81041C2.25907 5.73516 2.19937 5.67286 2.12583 5.63124C1.98542 5.55374 1.83417 5.49791 1.685 5.43416C1.51042 5.35916 1.4075 5.23166 1.40958 5.03833C1.41167 4.8525 1.50333 4.70499 1.68083 4.65958C2.13625 4.54374 2.3775 4.24874 2.49458 3.80708C2.55625 3.57458 2.70625 3.48166 2.90042 3.48625C3.10875 3.49125 3.23125 3.61124 3.3025 3.79833C3.37792 3.99749 3.41833 4.23374 3.5525 4.37916C3.68667 4.52458 3.915 4.56791 4.105 4.65166C4.27958 4.72833 4.37958 4.85208 4.37875 5.0475C4.37875 5.23625 4.27875 5.35833 4.11125 5.43208C4.10673 5.43458 4.10198 5.43667 4.09708 5.43833C3.64375 5.54208 3.41292 5.84541 3.2975 6.27999C3.23667 6.51374 3.09083 6.60041 2.84833 6.59833ZM2.89458 6.01708C3.01167 5.50541 3.28583 5.16333 3.82417 5.06916C3.58667 4.93624 3.34458 4.86083 3.19458 4.69916C3.04458 4.53749 2.99125 4.29458 2.87125 4.03249C2.7775 4.58249 2.50708 4.92499 1.96667 5.04041C2.50292 5.16333 2.77667 5.49999 2.89458 6.01708Z" fill="#662E93"/>
<path d="M5.95834 14.7287C5.84625 14.6541 5.70375 14.6037 5.625 14.502C4.88125 13.5312 4.1475 12.5524 3.41292 11.5749C3.2925 11.4149 3.29834 11.2583 3.4275 11.1058C3.63959 10.8558 3.85584 10.6095 4.07042 10.3612C4.12452 10.2974 4.19234 10.2466 4.26883 10.2127C4.34531 10.1788 4.42847 10.1626 4.51209 10.1653C5.49598 10.1653 6.47987 10.1653 7.46375 10.1653C7.54995 10.1631 7.63552 10.1805 7.71399 10.2163C7.79246 10.252 7.86177 10.3051 7.91667 10.3716C8.125 10.6128 8.33334 10.8503 8.54167 11.092C8.68667 11.2616 8.69209 11.4062 8.5575 11.5853C7.83223 12.5503 7.10598 13.5149 6.37875 14.4791C6.32888 14.5466 6.26598 14.6035 6.19378 14.6464C6.12158 14.6893 6.04152 14.7172 5.95834 14.7287ZM6.77334 11.5074H5.21167L5.99042 13.8303L6.77334 11.5074ZM3.95084 11.4999L5.255 13.2295C5.09875 12.6678 4.9175 12.1224 4.73125 11.5787C4.72284 11.5597 4.71008 11.543 4.69401 11.5299C4.67794 11.5168 4.65901 11.5077 4.63875 11.5033C4.42209 11.4945 4.205 11.4999 3.95084 11.4999ZM8.02875 11.4999H7.62917C7.27709 11.4999 7.27625 11.4999 7.16584 11.8283C7.00973 12.2938 6.85375 12.7592 6.69792 13.2245L6.72042 13.2366L8.02875 11.4999ZM5.30959 11.0124H6.6175C6.47792 10.4995 6.06542 10.6699 5.73042 10.6445C5.475 10.6249 5.48167 10.8837 5.30959 11.0124ZM7.83834 11.0266C7.55917 10.6287 7.37084 10.5533 6.98625 10.6749C7.05584 10.7745 7.12084 10.8733 7.19459 10.9666C7.21868 10.9978 7.25393 11.0184 7.29292 11.0241C7.46542 11.0299 7.63959 11.0266 7.83834 11.0266ZM4.16417 11.0158C4.69209 11.0737 4.86834 10.9949 4.97292 10.6608C4.625 10.5833 4.32584 10.6391 4.16417 11.0158Z" fill="#662E93"/>
</g>
<defs>
<clipPath id="clip0_224_322">
<rect width="16" height="16" fill="white"/>
</clipPath>
</defs>
</svg>
