<svg width="13" height="16" viewBox="0 0 13 16" fill="none" xmlns="http://www.w3.org/2000/svg">
<g clip-path="url(#clip0_238_115)">
<path d="M2.03374 16.0001C1.96156 15.9235 1.85624 15.8591 1.82312 15.7682C1.74749 15.5594 1.90968 15.3773 2.15312 15.376C2.63218 15.3732 3.11124 15.376 3.59062 15.376H3.76343C3.65874 14.7923 3.82906 14.2373 3.89812 13.676C4.02062 12.6851 4.16656 11.6969 4.30437 10.6907C4.19656 10.6816 4.09499 10.6757 3.99406 10.6644C3.41593 10.5994 2.97718 10.311 2.73562 9.78631C2.46437 9.19663 2.22781 8.59038 1.99343 7.98444C1.91312 7.77756 1.91671 7.5475 2.00344 7.34323C2.09017 7.13896 2.25319 6.97659 2.45781 6.89069C2.56729 6.84308 2.68501 6.81729 2.80437 6.81475C4.62187 6.81017 6.43937 6.80913 8.25687 6.81163C8.47249 6.81163 8.60406 6.93819 8.60062 7.12975C8.59718 7.32131 8.46406 7.43506 8.24249 7.43538C6.49249 7.43538 4.74249 7.43538 2.99249 7.43538C2.94562 7.43538 2.89874 7.43538 2.85187 7.43538C2.61124 7.44069 2.50499 7.59975 2.59749 7.82569C2.77749 8.26319 2.96156 8.69881 3.14374 9.13538C3.17499 9.20725 3.20343 9.27944 3.22937 9.35413C3.39406 9.8185 3.71218 10.0482 4.20687 10.0513C4.67562 10.0544 5.14437 10.0513 5.61312 10.0513H10.2231C10.7994 10.0513 11.0766 9.851 11.2856 9.31788C11.4731 8.83881 11.6797 8.36725 11.8772 7.89194C12.0078 7.57944 11.915 7.43631 11.5797 7.43569C11.4391 7.43569 11.2984 7.43975 11.1581 7.43569C10.9653 7.42881 10.8391 7.301 10.84 7.12319C10.8409 6.94538 10.965 6.81913 11.1609 6.81413C11.3275 6.81006 11.4941 6.81163 11.6609 6.81413C12.3247 6.82194 12.7366 7.42413 12.4922 8.04006C12.3197 8.47506 12.1325 8.90381 11.9522 9.33569C11.9181 9.41725 11.8834 9.4985 11.8531 9.58163C11.6123 10.2462 11.14 10.6099 10.4362 10.6726C10.365 10.6788 10.2937 10.6829 10.2069 10.6891C10.2587 11.0754 10.3084 11.4504 10.3603 11.8254C10.5 12.8354 10.6437 13.8448 10.7775 14.8566C10.7997 15.0235 10.7806 15.1957 10.7806 15.3785H12.1112C12.1791 15.3785 12.2469 15.3785 12.3144 15.3785C12.4884 15.3826 12.6031 15.4632 12.6456 15.6094C12.6853 15.7454 12.63 15.8723 12.4894 15.9669C12.4728 15.9782 12.4581 15.991 12.4416 16.0032L2.03374 16.0001ZM8.70249 14.2726C8.69906 14.2307 8.69843 14.2051 8.69499 14.1788C8.53874 13.046 8.37906 11.9135 8.22624 10.7801C8.21156 10.6707 8.15156 10.6763 8.07656 10.6763C7.53031 10.6763 6.98281 10.6798 6.43749 10.6741C6.32156 10.6741 6.29249 10.7123 6.27781 10.8226C6.16187 11.6882 6.03718 12.5526 5.91656 13.4163C5.87718 13.6976 5.84156 13.9788 5.80281 14.271L8.70249 14.2726ZM8.85374 10.6851C8.8514 10.7013 8.85015 10.7177 8.84999 10.7341C9.04874 12.1716 9.24801 13.6091 9.44781 15.0466C9.45393 15.112 9.47781 15.1744 9.51686 15.2272C9.55592 15.28 9.60865 15.321 9.66937 15.346C9.72655 15.3723 9.78996 15.3821 9.85243 15.3743C9.91489 15.3665 9.97391 15.3413 10.0228 15.3016C10.1622 15.1985 10.1769 15.0516 10.155 14.8954C9.98708 13.68 9.81937 12.4643 9.65187 11.2485C9.62593 11.061 9.59562 10.8735 9.56781 10.6879L8.85374 10.6851ZM4.94749 10.6851C4.93656 10.7319 4.92531 10.7669 4.92031 10.8026C4.73031 12.1776 4.54104 13.5526 4.35249 14.9276C4.34341 14.9943 4.34809 15.0621 4.36624 15.1269C4.39012 15.2049 4.44041 15.272 4.50845 15.3168C4.5765 15.3617 4.65805 15.3814 4.73906 15.3726C4.91312 15.3538 5.03718 15.2238 5.06468 15.0266C5.23135 13.8373 5.39708 12.6477 5.56187 11.4579C5.59718 11.2032 5.62968 10.9482 5.66468 10.6841L4.94749 10.6851ZM5.63499 15.3673H8.87749L8.79312 14.9129H5.71812C5.68999 15.0626 5.66374 15.2091 5.63499 15.3663V15.3673Z" fill="#B07FD8"/>
<path d="M7.15875 6.81877e-05C7.42156 0.192256 7.44 0.321943 7.24094 0.578193C7.03125 0.847568 7.0375 1.16288 7.25656 1.45319C7.34094 1.56507 7.4325 1.67382 7.50094 1.79694C7.63282 2.02997 7.6864 2.29919 7.65377 2.56496C7.62114 2.83072 7.50403 3.07899 7.31969 3.27319C7.17219 3.42944 6.98875 3.45257 6.85094 3.32976C6.71313 3.20694 6.71563 3.02382 6.85344 2.85851C7.10125 2.56132 7.10688 2.26476 6.85344 1.95226C6.64969 1.70226 6.4725 1.43819 6.45719 1.10538C6.43688 0.651631 6.59156 0.271631 6.97094 -0.000244141L7.15875 6.81877e-05Z" fill="#B07FD8"/>
<path d="M5.43999 0C5.69874 0.200625 5.71437 0.321875 5.51406 0.58C5.30218 0.85375 5.30968 1.17375 5.54531 1.46719C5.71781 1.68 5.86937 1.90063 5.91781 2.17688C5.99374 2.60969 5.85937 2.97937 5.56906 3.29531C5.43656 3.43969 5.25343 3.44437 5.12343 3.32656C4.99343 3.20875 4.99031 3.02437 5.10968 2.87781C5.38093 2.54562 5.38343 2.27188 5.11906 1.93625C5.06437 1.86688 5.00687 1.79906 4.95749 1.72594C4.61156 1.21187 4.65843 0.587812 5.07968 0.132187C5.12781 0.0799999 5.19343 0.0443748 5.25124 0.00124979L5.43999 0Z" fill="#B07FD8"/>
<path d="M8.8775 0C9.14219 0.18375 9.16375 0.3225 8.96594 0.575313C8.75656 0.843438 8.7575 1.1475 8.96875 1.4375C9.04563 1.5425 9.13219 1.64125 9.19938 1.75156C9.34372 1.98647 9.40686 2.2623 9.37908 2.53661C9.3513 2.81092 9.23414 3.06849 9.04563 3.26969C8.89906 3.42813 8.71688 3.45219 8.57688 3.33219C8.43688 3.21219 8.43563 3.02906 8.57344 2.86188C8.82969 2.55156 8.83031 2.25938 8.56094 1.93188C8.355 1.68188 8.18906 1.41406 8.18031 1.08C8.16875 0.6375 8.325 0.2675 8.69 0.0015626L8.8775 0Z" fill="#B07FD8"/>
<path d="M6.54593 4.76372C6.48062 4.60028 6.4303 4.46997 6.37624 4.34153C6.26937 4.08559 6.40343 3.87434 6.68093 3.87278C7.32155 3.87028 7.96208 3.87028 8.60249 3.87278C8.87687 3.87278 9.00874 4.05466 8.93218 4.32028C8.89218 4.45934 8.85062 4.59809 8.80249 4.76059C9.03968 4.76059 9.25687 4.76434 9.47343 4.75653C9.50468 4.75653 9.5453 4.70341 9.56718 4.66653C9.68312 4.46341 9.79405 4.25716 9.9078 4.05278C10.0791 3.74403 10.3491 3.73716 10.5275 4.03747C10.6472 4.23872 10.7684 4.43903 10.8809 4.64434C10.9294 4.73309 10.9869 4.76747 11.09 4.76559C11.4437 4.75903 11.7981 4.76278 12.1525 4.76341C12.2047 4.7623 12.2568 4.76449 12.3087 4.76997C12.4819 4.79247 12.5994 4.92247 12.5956 5.08247C12.5949 5.16175 12.5631 5.23759 12.507 5.29368C12.451 5.34977 12.3752 5.38165 12.2959 5.38247C12.0412 5.39122 11.7856 5.38622 11.5306 5.38716H11.3462C11.3822 5.52997 11.4331 5.61341 11.5881 5.60059C11.7389 5.59221 11.8901 5.59148 12.0409 5.59841C12.2566 5.60247 12.3947 5.72653 12.3956 5.91091C12.3966 6.09528 12.2575 6.22091 12.0422 6.22341C11.4225 6.22528 10.8028 6.22341 10.1831 6.22341H2.94937C2.65343 6.22341 2.50187 6.11434 2.50749 5.90559C2.5128 5.70466 2.66374 5.59872 2.9478 5.59841H3.99218C3.98718 5.43028 3.91312 5.37966 3.75499 5.38372C3.30218 5.39466 2.84874 5.39184 2.39593 5.38372C2.27968 5.38372 2.22749 5.41684 2.18062 5.52653C2.07187 5.78333 1.87162 5.99058 1.61871 6.10808C1.3658 6.22559 1.07826 6.24497 0.811867 6.16247C0.275305 5.99903 -0.0731328 5.45684 0.0131172 4.92028C0.106867 4.33216 0.600305 3.91403 1.18093 3.94184C1.31571 3.95179 1.44823 3.98191 1.57405 4.03122C1.61289 4.04323 1.64882 4.06313 1.6796 4.08967C1.71039 4.11621 1.73537 4.14883 1.75297 4.18546C1.77057 4.2221 1.78041 4.26198 1.78189 4.3026C1.78337 4.34322 1.77645 4.38371 1.76155 4.42153C1.70187 4.58559 1.55093 4.65184 1.36999 4.61841C1.24124 4.59497 1.09968 4.57059 0.976555 4.60028C0.742805 4.65653 0.601555 4.90903 0.632805 5.14559C0.649951 5.26253 0.70633 5.37018 0.792695 5.45086C0.87906 5.53155 0.990282 5.58049 1.10812 5.58966C1.22341 5.59629 1.33759 5.56401 1.43234 5.498C1.52709 5.43198 1.59691 5.33605 1.63062 5.22559C1.6384 5.20077 1.64476 5.17552 1.64968 5.14997C1.71218 4.80966 1.76593 4.76341 2.10937 4.76341C2.66124 4.76341 3.21343 4.76028 3.76562 4.76591C3.88437 4.76591 3.94312 4.73778 3.99624 4.61997C4.19312 4.18247 4.54093 3.94247 5.02437 3.93466C5.50781 3.92684 5.86499 4.15497 6.07312 4.58716C6.14031 4.72622 6.20937 4.79059 6.36062 4.76466C6.42229 4.75999 6.48421 4.75968 6.54593 4.76372ZM7.33124 5.58653H8.00968C8.07812 5.21778 8.14374 4.86341 8.20937 4.50966H7.13468C7.20062 4.87153 7.26468 5.22247 7.33124 5.58653ZM5.03624 5.59778C5.13888 5.59826 5.23937 5.56837 5.32506 5.51188C5.41075 5.45538 5.47782 5.37481 5.51783 5.28029C5.55783 5.18577 5.56899 5.08153 5.5499 4.98068C5.5308 4.87983 5.48231 4.78688 5.41052 4.71353C5.33873 4.64018 5.24684 4.5897 5.14643 4.56844C5.04602 4.54719 4.94156 4.5561 4.8462 4.59407C4.75084 4.63204 4.66884 4.69736 4.61052 4.78182C4.5522 4.86627 4.52016 4.96609 4.51843 5.06872C4.51723 5.13758 4.52972 5.206 4.55518 5.26999C4.58063 5.33399 4.61855 5.39229 4.66673 5.44151C4.7149 5.49073 4.77237 5.52989 4.83581 5.55672C4.89924 5.58354 4.96737 5.5975 5.03624 5.59778ZM10.7144 5.59278L10.2287 4.76466L9.7728 5.59372L10.7144 5.59278ZM6.08937 5.58684H6.68812C6.67593 5.51372 6.66624 5.45466 6.65531 5.38872C6.53749 5.38872 6.43312 5.39872 6.33155 5.38622C6.17718 5.36747 6.09624 5.42497 6.08937 5.58684ZM8.6678 5.58684C9.06468 5.62747 9.07093 5.62497 9.14312 5.38778C9.04471 5.39217 8.94615 5.39155 8.8478 5.38591C8.69468 5.37059 8.63562 5.42997 8.6678 5.58778V5.58684Z" fill="#662E93"/>
<path d="M9.71437 6.81256C9.77617 6.81297 9.83644 6.8318 9.88748 6.86665C9.93852 6.9015 9.978 6.95078 10.0009 7.00819C10.0237 7.06561 10.029 7.12854 10.0159 7.18894C10.0028 7.24933 9.97201 7.30446 9.92743 7.34726C9.88285 7.39006 9.82651 7.41858 9.76563 7.42919C9.70475 7.4398 9.64208 7.43201 9.58565 7.40681C9.52922 7.38161 9.48159 7.34015 9.44885 7.28773C9.41612 7.23531 9.39976 7.17432 9.40187 7.11256C9.40359 7.03136 9.43747 6.95416 9.49606 6.89791C9.55465 6.84166 9.63317 6.81097 9.71437 6.81256Z" fill="#B07FD8"/>
</g>
<defs>
<clipPath id="clip0_238_115">
<rect width="12.6575" height="16" fill="white"/>
</clipPath>
</defs>
</svg>
