<svg width="36" height="36" viewBox="0 0 36 36" fill="none" xmlns="http://www.w3.org/2000/svg">
<g clip-path="url(#clip0_404_158)">
<path d="M31.1978 -0.000109959C31.5362 0.0816655 31.8802 0.144642 32.2111 0.249916C34.9369 1.11467 35.8449 3.60929 35.6729 5.54276C35.5724 6.70851 35.0708 7.80336 34.2536 8.64077C33.4364 9.47819 32.3542 10.0064 31.1912 10.1353C28.0697 10.4624 25.3974 8.02328 25.5036 4.94402C25.592 2.38172 27.3215 0.432267 29.8433 0.0562875C29.8984 0.0427013 29.9517 0.0228315 30.0022 -0.00292969L31.1978 -0.000109959ZM30.5972 9.09201C32.8954 9.09201 34.6324 7.35404 34.639 5.04083C34.6493 2.85357 32.8155 1.03853 30.5972 1.03853C29.5324 1.03848 28.5105 1.45862 27.7537 2.20768C26.9969 2.95674 26.5663 3.97419 26.5554 5.03895C26.5507 7.339 28.2971 9.09107 30.5972 9.09201Z" fill="#662E93"/>
<path d="M31.5324 20.1357H35.6738V23.2977C35.4135 23.2869 35.1527 23.2904 34.8927 23.3081C34.81 23.3175 34.716 23.4359 34.6728 23.5261C34.6361 23.6023 34.6643 23.7141 34.6643 23.8081V35.9804H30.7551V34.9465H33.5825V23.3165H18.1993V23.7348C18.1993 26.8169 18.1927 29.899 18.204 32.9811C18.204 33.6625 18.1344 34.312 17.6814 34.9296H29.6478V36.0002H2.79165C1.63269 36.0002 1.00574 35.3808 1.00574 34.2274C1.00574 32.482 1.00574 30.7355 1.00574 28.9891V28.6319H2.04533C1.8282 25.391 0.969087 22.339 0.00376034 19.2259C1.24656 19.8886 2.36684 20.759 3.31614 21.7995V21.4084C3.31614 15.8891 3.31614 10.3697 3.31614 4.85032C3.31614 3.87371 3.59812 3.03152 4.43561 2.48447C4.8169 2.23785 5.24565 2.0739 5.6942 2.00321C6.22997 1.92144 6.7883 1.98348 7.36355 1.98348V3.02588C6.9105 3.02588 6.46778 3.02588 6.02601 3.02588C5.08606 3.03528 4.39426 3.65658 4.38674 4.59089C4.36512 7.22274 4.37922 9.864 4.38016 12.5015C4.38556 12.5442 4.39468 12.5863 4.40742 12.6274H17.1437V12.2515C17.1437 9.76749 17.1437 7.28321 17.1437 4.79862C17.1437 3.64812 16.5158 3.02682 15.3578 3.02682H8.47081V1.97408H8.84679C11.0262 1.97408 13.206 1.97408 15.386 1.97408C17.0939 1.97408 18.1993 3.07663 18.2002 4.78734C18.2002 9.744 18.2002 14.701 18.2002 19.6583V20.1047H19.2548C19.2548 18.3677 19.2548 16.6357 19.2548 14.9087C19.2548 13.7347 19.8855 13.0984 21.052 13.0984H29.77C30.9468 13.0984 31.5663 13.7187 31.5672 14.8993C31.5672 16.3995 31.5672 17.8996 31.5672 19.3998C31.5653 19.6282 31.5456 19.8594 31.5324 20.1357ZM4.39614 13.7234C4.38484 13.7768 4.37668 13.8308 4.3717 13.8851C4.3717 17.0007 4.37326 20.1163 4.3764 23.2319C4.3764 23.3898 4.47039 23.5478 4.52585 23.7122C6.21775 22.9236 7.74141 22.6379 8.65128 22.9462C6.99791 24.4717 6.13222 26.3582 5.95739 28.6113H6.95655V34.9427H15.371C16.5196 34.9427 17.1428 34.3139 17.1437 33.1568V13.7234H4.39614ZM26.2725 14.1473H21.067C20.4786 14.1473 20.3104 14.3146 20.3095 14.8993C20.3095 16.3863 20.3095 17.8736 20.3095 19.3612C20.3095 19.9769 20.4617 20.1301 21.0746 20.131C22.6907 20.131 24.3067 20.131 25.9228 20.131C26.0356 20.131 26.1484 20.1188 26.2725 20.1113V14.1473ZM2.06319 29.6866C2.06319 31.2845 2.05661 32.857 2.06789 34.4258C2.06789 34.7754 2.29253 34.9418 2.68543 34.9437C3.53138 34.9437 4.3717 34.9437 5.21577 34.9437C5.75342 34.9437 5.92731 34.7717 5.92825 34.2256C5.92825 32.82 5.92825 31.4145 5.92825 30.009C5.92825 29.9065 5.91697 29.8031 5.90945 29.6856L2.06319 29.6866ZM34.6239 21.2223H18.2171V22.2149H34.6239V21.2223ZM27.3675 20.1226C28.2774 20.1226 29.1647 20.1376 30.052 20.1151C30.3951 20.1066 30.5126 19.8434 30.5126 19.5229C30.5126 17.9419 30.5126 16.36 30.5126 14.779C30.5126 14.3438 30.3246 14.1605 29.8903 14.153C29.3518 14.1445 28.8122 14.153 28.2736 14.153H27.3703L27.3675 20.1226ZM4.87551 28.5981C5.0635 26.8564 5.08418 26.7943 6.25817 24.1474C4.44971 24.499 3.09149 26.4456 3.18172 28.5981H4.87551ZM2.76345 25.6138C3.05671 25.2378 3.34903 24.8618 3.63196 24.4858C3.64935 24.4593 3.66035 24.4291 3.6641 24.3977C3.66786 24.3662 3.66425 24.3343 3.65358 24.3044C3.1985 23.4508 2.62265 22.6672 1.94381 21.978L2.76345 25.6138Z" fill="#B07FD8"/>
<path d="M32.5241 33.8736H19.2708V24.3867H32.5241V33.8736ZM26.7434 32.8246V25.4366H20.3367V32.8246H26.7434ZM27.8394 27.1643H31.4723V25.4338H27.8394V27.1643ZM27.8394 29.9841H31.4638V28.2734H27.8413L27.8394 29.9841ZM27.8497 31.082V32.8086H31.4676V31.0829L27.8497 31.082Z" fill="#662E93"/>
<path d="M16.0581 10.4267H15.0523C15.0448 10.3149 15.0335 10.2237 15.0335 10.1335C15.0335 8.84858 15.0335 7.56461 15.0335 6.25244H16.059L16.0581 10.4267Z" fill="#662E93"/>
<path d="M29.238 4.97307H30.208V2.99072H31.2495V6.00419H29.238V4.97307Z" fill="#662E93"/>
<path d="M15.0439 20.0728V15.9004H16.0656V20.0728H15.0439Z" fill="#662E93"/>
<path d="M28.4221 16.5865V15.5864H29.4363V16.5865H28.4221Z" fill="#662E93"/>
<path d="M29.4307 18.7051H28.4268V17.7021H29.4307V18.7051Z" fill="#662E93"/>
</g>
<defs>
<clipPath id="clip0_404_158">
<rect width="35.6926" height="36" fill="white"/>
</clipPath>
</defs>
</svg>
