<svg width="36" height="36" viewBox="0 0 36 36" fill="none" xmlns="http://www.w3.org/2000/svg">
<g clip-path="url(#clip0_161_56)">
<path d="M0 16.5198C0.0232301 16.4804 0.0423922 16.4388 0.0571876 16.3956C0.396563 14.9752 1.46344 14.123 2.91563 14.122C7.48625 14.122 12.0559 14.122 16.6247 14.122H17.1075C15.9825 11.5691 15.8306 8.9926 16.8131 6.40296C17.7956 3.81333 19.5938 1.9433 22.125 0.819207C25.9416 -0.873982 30.4444 0.115593 33.3103 3.26492C36.1228 6.35217 36.6731 10.9887 34.6406 14.6469C33.4472 16.7926 31.6997 18.3155 29.3991 19.1621C27.1134 20.0087 24.8156 19.9616 22.5122 19.1301V21.8862H32.9062C34.5647 21.8862 35.5209 22.6218 35.9578 24.2304C35.9634 24.251 35.9841 24.267 35.9981 24.2859V27.9544C35.973 28.0054 35.9516 28.0582 35.9344 28.1125C35.6531 29.3146 34.7897 30.1565 33.5709 30.3117C32.9147 30.3954 32.2388 30.3531 31.5713 30.3484C31.4684 30.3408 31.3653 30.3579 31.2704 30.3983C31.1755 30.4387 31.0916 30.5013 31.0256 30.5807C30.5034 31.1687 29.9681 31.7443 29.4319 32.3181C29.0269 32.7499 28.6303 32.7508 28.2291 32.3181C27.6759 31.7265 27.1369 31.1216 26.5753 30.5384C26.4626 30.4307 26.3154 30.3667 26.16 30.3578C25.3753 30.3409 24.5897 30.3493 23.805 30.3493H22.5197C22.305 32.209 21.2241 33.1713 19.3922 33.1713C17.6006 33.1713 15.8081 33.1713 14.0156 33.1657C13.9186 33.1582 13.8213 33.1773 13.7343 33.2211C13.6472 33.2648 13.5737 33.3315 13.5216 33.414C13.0125 34.1167 12.4903 34.809 11.9672 35.5042C11.4694 36.1692 11.0297 36.1626 10.5234 35.4919C10.0172 34.8212 9.49219 34.1233 8.98969 33.4291C8.93475 33.3419 8.85723 33.2713 8.76542 33.2249C8.6736 33.1786 8.57095 33.1581 8.46844 33.1657C6.58219 33.1751 4.69625 33.1751 2.81062 33.1657C1.47375 33.1582 0.381562 32.2674 0.0693748 30.9636C0.0497381 30.8978 0.0265797 30.8331 0 30.7698V16.5198ZM11.25 34.1101C11.7384 33.4573 12.2091 32.8468 12.6562 32.2194C12.7548 32.0674 12.8918 31.9444 13.0532 31.8629C13.2146 31.7815 13.3947 31.7444 13.575 31.7556C15.555 31.7697 17.5359 31.7622 19.5159 31.7613C20.52 31.7613 21.09 31.1969 21.09 30.1951C21.09 25.8323 21.09 21.4698 21.09 17.1077C21.09 16.1021 20.5228 15.534 19.5225 15.534H2.96906C1.97062 15.534 1.40719 16.0983 1.40625 17.1114V30.1612C1.40625 31.1959 1.96406 31.7603 2.98406 31.7603C4.94063 31.7603 6.89812 31.7716 8.85469 31.7528C9.315 31.7528 9.62625 31.9024 9.88594 32.2758C10.3125 32.8872 10.7812 33.4752 11.25 34.1082V34.1101ZM26.0212 1.38548C25.5216 1.44286 25.0191 1.47955 24.5212 1.56045C18.9487 2.48229 15.8438 8.93522 18.5775 13.8887C18.6788 14.0712 18.7913 14.1211 18.9881 14.1267C19.4663 14.1408 19.9584 14.1211 20.4169 14.2321C21.69 14.5416 22.5141 15.6722 22.4878 17.0625C22.4794 17.4905 22.6238 17.6655 23.0109 17.8075C24.5231 18.3606 26.0662 18.5121 27.6403 18.1951C31.8937 17.3381 34.785 13.4711 34.4194 9.24846C34.0312 4.73988 30.4237 1.42499 26.0212 1.38548ZM22.5075 28.9374H22.9181C24.0778 28.9374 25.2375 28.9553 26.3972 28.9289C26.6009 28.9145 26.805 28.9502 26.9917 29.033C27.1785 29.1158 27.3423 29.2432 27.4688 29.404C27.8991 29.9091 28.3659 30.3832 28.8337 30.8883C29.34 30.339 29.8238 29.8292 30.2906 29.3043C30.3901 29.1815 30.5169 29.0839 30.6609 29.0194C30.8048 28.9548 30.9619 28.9251 31.1194 28.9327C31.7869 28.9487 32.4544 28.9412 33.1219 28.9327C34.0041 28.9261 34.5909 28.3344 34.5966 27.4446C34.6012 26.5745 34.5966 25.7044 34.5966 24.8352C34.5966 23.8588 34.02 23.2897 33.0384 23.2897H22.5075V28.9374Z" fill="#B07FD8"/>
<path d="M10.8928 19.0597H4.46626C4.34927 19.0649 4.23205 19.0612 4.11564 19.0484C3.94914 19.0233 3.79725 18.9388 3.68787 18.8104C3.5785 18.6819 3.51897 18.5182 3.52022 18.3493C3.52148 18.1803 3.58343 18.0175 3.6947 17.8907C3.80597 17.7639 3.95909 17.6817 4.12595 17.6591C4.24242 17.6471 4.3596 17.6437 4.47657 17.6487H17.3306C17.436 17.6448 17.5415 17.647 17.6466 17.6553C17.8215 17.6711 17.9841 17.7523 18.1021 17.8828C18.2201 18.0134 18.2848 18.1837 18.2834 18.3599C18.282 18.5361 18.2145 18.7053 18.0944 18.834C17.9744 18.9626 17.8105 19.0411 17.6353 19.0541C17.5302 19.0616 17.4247 19.0635 17.3194 19.0597H10.8928Z" fill="#662E93"/>
<path d="M10.9303 21.1761H17.3222C17.4391 21.1712 17.5563 21.1744 17.6728 21.1855C17.8402 21.208 17.9939 21.2905 18.1054 21.4178C18.2169 21.5452 18.2787 21.7087 18.2794 21.8782C18.2801 22.0477 18.2196 22.2117 18.1092 22.34C17.9987 22.4682 17.8457 22.552 17.6784 22.5758C17.5619 22.5878 17.4448 22.5912 17.3278 22.5862H4.47373C4.36871 22.5904 4.26353 22.5885 4.15873 22.5805C3.98544 22.5645 3.82431 22.4843 3.70674 22.3555C3.58918 22.2268 3.52359 22.0587 3.52277 21.8841C3.52195 21.7095 3.58596 21.5408 3.70231 21.411C3.81867 21.2812 3.97903 21.1994 4.15216 21.1818C4.26915 21.1733 4.38653 21.1714 4.50373 21.1761H10.9303Z" fill="#662E93"/>
<path d="M10.9041 26.1155H4.51221C4.40721 26.1155 4.30128 26.1202 4.19628 26.1155C4.0169 26.1077 3.84735 26.0311 3.72264 25.9015C3.59793 25.7719 3.52759 25.5992 3.52615 25.4191C3.5247 25.239 3.59227 25.0652 3.71488 24.9336C3.8375 24.802 4.0058 24.7227 4.18503 24.712C4.27878 24.7035 4.37253 24.712 4.46628 24.712H17.3194C17.4247 24.7082 17.5302 24.7101 17.6353 24.7177C17.8094 24.7319 17.9719 24.811 18.0909 24.9394C18.2098 25.0678 18.2765 25.2361 18.2779 25.4114C18.2793 25.5867 18.2153 25.7561 18.0985 25.8864C17.9816 26.0167 17.8204 26.0984 17.6466 26.1155C17.53 26.1251 17.4129 26.1276 17.296 26.123L10.9041 26.1155Z" fill="#662E93"/>
<path d="M15.4688 29.643C14.8022 29.643 14.1366 29.643 13.47 29.643C12.9703 29.643 12.6478 29.3486 12.6581 28.9215C12.6685 28.4944 12.9797 28.2358 13.4672 28.2339C14.8003 28.2339 16.1331 28.2339 17.4656 28.2339C17.9644 28.2339 18.2878 28.5283 18.2775 28.9544C18.2672 29.3805 17.9522 29.6402 17.4675 29.643C16.8019 29.6458 16.1363 29.643 15.4688 29.643Z" fill="#662E93"/>
<path d="M26.0147 6.16037C26.6475 5.49626 27.3834 5.10589 28.2703 5.09742C29.6025 5.08519 30.6066 5.68345 31.17 6.89502C31.7334 8.1066 31.5694 9.28336 30.6731 10.2711C29.7581 11.2776 28.7653 12.2135 27.8062 13.1805C27.4012 13.5888 26.9991 13.9998 26.5875 14.4034C26.1975 14.7843 25.8375 14.79 25.4531 14.41C24.1153 13.0742 22.7719 11.7451 21.4537 10.3905C21.0052 9.94391 20.7058 9.36866 20.5968 8.7441C20.4878 8.11954 20.5746 7.47644 20.8453 6.90349C21.1045 6.33903 21.5264 5.86547 22.0565 5.54388C22.5865 5.22229 23.2004 5.06744 23.8191 5.0993C24.6787 5.13881 25.3959 5.50379 26.0147 6.16037ZM25.9959 12.9604C27.2372 11.7253 28.4578 10.5429 29.6381 9.32193C30.2662 8.67193 30.2006 7.63626 29.5641 6.99756C29.2586 6.69106 28.8476 6.51377 28.4158 6.50222C27.9839 6.49067 27.5641 6.64574 27.2428 6.93547C26.9981 7.15371 26.7806 7.4058 26.5406 7.62498C26.1994 7.9448 25.8234 7.94104 25.4812 7.61745C25.2862 7.42932 25.1016 7.2346 24.9084 7.04647C24.1819 6.33439 23.1422 6.3184 22.4587 7.00602C21.7753 7.69364 21.8025 8.73213 22.515 9.46397C23.0072 9.96628 23.5078 10.4601 24.0037 10.9587L25.9959 12.9604Z" fill="#662E93"/>
</g>
<defs>
<clipPath id="clip0_161_56">
<rect width="36" height="36" fill="white"/>
</clipPath>
</defs>
</svg>
