<svg width="17" height="16" viewBox="0 0 17 16" fill="none" xmlns="http://www.w3.org/2000/svg">
<g clip-path="url(#clip0_238_97)">
<path d="M16.1453 0.24198V10.7742C16.0142 11.0034 15.9377 11.0414 15.6722 10.9983C15.5012 10.9708 15.3316 10.9351 15.1601 10.9108C14.9066 10.875 14.6494 10.8058 14.3991 10.8241C14.0292 10.8512 13.6656 10.9424 13.2989 11.0075C13.0426 11.0534 12.8771 10.9209 12.8684 10.6632C12.8643 10.5445 12.8684 10.4253 12.8684 10.3084H3.27922C3.27922 10.4313 3.27922 10.5408 3.27922 10.6509C3.27509 10.9108 3.1128 11.0506 2.86066 11.0103C2.67408 10.9805 2.48703 10.9511 2.30274 10.9117C1.89381 10.8246 1.4881 10.7792 1.07458 10.8952C0.883413 10.9488 0.682616 10.9667 0.485487 10.9979C0.134781 11.0543 0 10.9369 0 10.577V0.454237C0 0.109032 0.105441 0.00221603 0.450646 0.00175759C5.5323 0.00175759 10.6139 0.00175759 15.6956 0.00175759C15.8959 -7.61657e-05 16.055 0.0494356 16.1453 0.24198ZM3.28426 9.62945H12.8574V2.90231C11.7755 3.19662 10.8403 2.94815 10.0462 2.17247C9.49199 2.72901 8.84192 3.02608 8.06441 3.02333C7.2869 3.02058 6.6405 2.72306 6.09633 2.17293C5.29681 2.96053 4.35793 3.19341 3.28426 2.90643V9.62945ZM0.661528 0.660077V10.3102L1.31893 10.1956V10.0008C1.31893 7.715 1.31893 5.42938 1.31893 3.1439C1.31662 3.07564 1.31937 3.00729 1.32718 2.93944C1.33866 2.86474 1.37649 2.79663 1.43384 2.74741C1.49119 2.6982 1.56427 2.67114 1.63984 2.67114C1.71541 2.67114 1.78848 2.6982 1.84583 2.74741C1.90318 2.79663 1.94102 2.86474 1.95249 2.93944C1.96046 3.00728 1.96337 3.07563 1.9612 3.1439C1.9612 5.42418 1.9612 7.70446 1.9612 9.98474V10.1956L2.61998 10.3084C2.62319 10.241 2.62823 10.1901 2.62823 10.1392C2.62823 7.66977 2.62915 5.20016 2.63098 2.73039C2.63399 2.68178 2.62377 2.63326 2.60141 2.59C2.57905 2.54673 2.54539 2.51033 2.504 2.48467C2.18173 2.2629 1.92226 1.96158 1.75078 1.60996C1.61004 1.30969 1.51193 0.989237 1.3877 0.658702L0.661528 0.660077ZM15.4829 10.3098V0.664662H14.7086C14.588 1.43897 14.2286 2.05557 13.6083 2.51951C13.5803 2.54716 13.5581 2.58015 13.5431 2.61653C13.528 2.65291 13.5204 2.69194 13.5208 2.73131C13.5162 5.20046 13.5151 7.66992 13.5175 10.1397C13.5175 10.1906 13.5221 10.2415 13.5258 10.3089L14.1827 10.1956V9.98565C14.1827 7.70538 14.1827 5.4251 14.1827 3.14482C14.1808 3.07655 14.1837 3.00822 14.1915 2.94036C14.2029 2.86566 14.2408 2.79754 14.2981 2.74833C14.3555 2.69912 14.4285 2.67206 14.5041 2.67206C14.5797 2.67206 14.6528 2.69912 14.7101 2.74833C14.7675 2.79754 14.8053 2.86566 14.8168 2.94036C14.8248 3.00819 14.8276 3.07655 14.825 3.14482C14.825 5.42999 14.825 7.71546 14.825 10.0012V10.1956L15.4829 10.3098ZM10.0852 0.660077H6.06057C6.1981 1.63976 7.10902 2.39802 8.1153 2.37097C9.29807 2.34026 10.005 1.40779 10.0852 0.660077ZM5.34816 0.660077H2.09599C2.10882 0.726092 2.11662 0.783397 2.13129 0.83841C2.23821 1.26237 2.47867 1.6407 2.81714 1.9175C3.15561 2.1943 3.57414 2.3549 4.01089 2.37556C4.64949 2.40811 5.19366 2.18164 5.62918 1.7099C5.64676 1.68796 5.65929 1.66241 5.66587 1.63507C5.67244 1.60773 5.67291 1.57928 5.66723 1.55174C5.56867 1.26017 5.46047 0.971816 5.34816 0.660077ZM10.799 0.660077C10.6862 0.973191 10.5776 1.26109 10.4827 1.55358C10.478 1.58368 10.4799 1.61444 10.4883 1.64373C10.4967 1.67301 10.5114 1.70013 10.5313 1.7232C11.2515 2.53097 12.5626 2.60157 13.3681 1.87632C13.7293 1.55174 13.9732 1.15794 14.0475 0.660077H10.799Z" fill="#B07FD8"/>
<path d="M16.1453 15.5989V15.7566C16.0481 15.9634 15.873 16.0005 15.6644 16C10.6042 15.9976 5.54422 15.9968 0.484579 15.9978C0.426891 15.9993 0.369163 15.9972 0.311748 15.9913C0.119203 15.9647 -0.00640947 15.8272 0.00275932 15.6571C0.0119281 15.4871 0.146251 15.3592 0.340171 15.3477C0.417647 15.3436 0.495124 15.3477 0.589562 15.3477C0.589562 15.2748 0.589562 15.2184 0.589562 15.1616C0.589562 14.8255 0.582685 14.4886 0.599189 14.153C0.628529 13.5731 1.07459 13.1243 1.65589 13.0715C1.77371 13.061 1.89199 13.0541 2.01806 13.0454C2.01806 12.8588 2.01531 12.686 2.01806 12.5132C2.0309 11.8713 2.44303 11.401 3.07751 11.3318C3.37412 11.2997 3.67348 11.3212 3.97468 11.3125C4.42349 11.2997 4.86222 11.3148 5.16387 11.6394C5.41097 11.5303 5.62231 11.3712 5.84557 11.3519C6.34573 11.3061 6.85414 11.3217 7.35475 11.3377C7.50925 11.3428 7.66558 11.4212 7.81319 11.4858C7.91038 11.5289 7.99153 11.6077 8.08459 11.6738C8.35965 11.3955 8.69569 11.307 9.06703 11.3125C9.31413 11.3166 9.56122 11.3194 9.80787 11.3125C10.2241 11.2997 10.6166 11.3524 10.9347 11.6848C11.1571 11.4615 11.4188 11.3308 11.7232 11.323C12.1537 11.312 12.5869 11.2937 13.0151 11.3263C13.7028 11.3794 14.1227 11.8654 14.1273 12.5553C14.1273 12.7172 14.1273 12.879 14.1273 13.0596C14.2038 13.0596 14.2648 13.0596 14.3267 13.0596C15.0763 13.0802 15.5484 13.5589 15.5553 14.307C15.5581 14.5642 15.5553 14.8219 15.5553 15.079V15.3376C16.0243 15.3761 16.0243 15.3761 16.1453 15.5989ZM6.96967 15.3362H9.17522C9.17522 14.9443 9.18439 14.5619 9.17201 14.18C9.16541 14.0549 9.11157 13.937 9.02137 13.85C8.93118 13.763 8.81134 13.7136 8.68606 13.7115C8.27713 13.7014 7.86805 13.7014 7.45882 13.7115C7.3335 13.7137 7.21366 13.7633 7.12348 13.8503C7.03329 13.9373 6.97947 14.0553 6.97288 14.1805C6.9605 14.5619 6.96967 14.9443 6.96967 15.3362ZM3.44839 15.3413C3.44839 14.9654 3.45435 14.6036 3.44839 14.241C3.4406 13.9114 3.22696 13.7088 2.89505 13.706C2.5283 13.7027 2.16155 13.7027 1.7948 13.706C1.46151 13.7092 1.24467 13.9233 1.23825 14.2561C1.23229 14.5812 1.23825 14.9067 1.23825 15.2317C1.24047 15.2673 1.24507 15.3026 1.25201 15.3376L3.44839 15.3413ZM6.31226 15.3413C6.31226 14.9598 6.31776 14.5931 6.31226 14.2268C6.3134 14.1582 6.30064 14.09 6.27477 14.0264C6.2489 13.9629 6.21045 13.9052 6.16172 13.8568C6.11299 13.8085 6.055 13.7705 5.99121 13.7451C5.92743 13.7198 5.85918 13.7075 5.79056 13.7092C5.40776 13.7028 5.02451 13.7037 4.64171 13.7092C4.32584 13.7134 4.10809 13.9297 4.10258 14.2451C4.09708 14.5605 4.10258 14.887 4.10258 15.2051C4.10258 15.251 4.10809 15.2968 4.11129 15.3426L6.31226 15.3413ZM12.0428 15.3413C12.0428 14.9452 12.0542 14.5619 12.0391 14.1814C12.0328 14.0561 11.9791 13.9378 11.8889 13.8505C11.7987 13.7633 11.6786 13.7136 11.5531 13.7115C11.1442 13.7014 10.735 13.7014 10.3254 13.7115C10.0504 13.7189 9.84867 13.9339 9.83629 14.2112C9.82895 14.3785 9.83308 14.5468 9.83262 14.7155V15.3422L12.0428 15.3413ZM12.7015 15.333H14.9112C14.9112 14.953 14.9199 14.5858 14.9085 14.219C14.9082 14.0855 14.8556 13.9575 14.7619 13.8625C14.6681 13.7675 14.5408 13.7131 14.4074 13.7111C14.004 13.7016 13.6001 13.7016 13.1957 13.7111C13.0677 13.7111 12.9447 13.7612 12.853 13.8506C12.7613 13.94 12.7081 14.0616 12.7047 14.1897C12.6901 14.5665 12.7002 14.9443 12.7002 15.333H12.7015ZM5.54713 13.0408C6.25542 13.1353 6.25542 13.1353 6.61896 13.3929C6.80509 13.2948 6.9715 13.1774 7.15625 13.1178C7.341 13.0582 7.54363 13.0582 7.74535 13.0312C7.74535 12.8318 7.75956 12.6324 7.74168 12.4352C7.71738 12.1689 7.52209 11.9768 7.2704 11.9704C6.85139 11.9609 6.43192 11.9609 6.01198 11.9704C5.89753 11.973 5.78788 12.0169 5.70322 12.094C5.61856 12.1711 5.56459 12.2761 5.55125 12.3898C5.52925 12.6044 5.54575 12.8199 5.54575 13.0417L5.54713 13.0408ZM12.3738 13.4282C12.6759 13.1032 13.0582 13.0431 13.474 13.055C13.474 12.8451 13.4827 12.6521 13.4717 12.4591C13.4709 12.3931 13.4571 12.3279 13.4309 12.2674C13.4047 12.2068 13.3668 12.152 13.3193 12.1063C13.2717 12.0605 13.2156 12.0246 13.1541 12.0008C13.0926 11.9769 13.027 11.9655 12.961 11.9672C12.5677 11.9604 12.1743 11.9604 11.781 11.9672C11.5114 11.9713 11.3028 12.1473 11.2767 12.4128C11.2552 12.6186 11.2726 12.829 11.2726 13.0546C11.6856 13.0381 12.0712 13.1078 12.3724 13.4291L12.3738 13.4282ZM2.67775 13.0527C3.09035 13.0408 3.47315 13.1045 3.77801 13.4264C4.0815 13.1055 4.46567 13.0381 4.88331 13.0537C4.88331 12.8318 4.89706 12.6273 4.87964 12.4256C4.87075 12.3061 4.81825 12.194 4.73212 12.1107C4.64599 12.0273 4.53224 11.9785 4.41249 11.9736C3.98797 11.963 3.56254 11.963 3.13849 11.9736C3.02121 11.9788 2.90989 12.0267 2.82547 12.1083C2.74104 12.1898 2.68932 12.2994 2.68005 12.4164C2.66629 12.6195 2.67775 12.8244 2.67775 13.0527ZM8.39954 13.0527C8.82039 13.0394 9.20227 13.105 9.50575 13.4273C9.80557 13.0995 10.1934 13.0445 10.606 13.0486C10.606 12.8396 10.6156 12.6507 10.6037 12.4632C10.5845 12.1634 10.3809 11.9727 10.0779 11.9681C9.69463 11.9626 9.31137 11.9626 8.92812 11.9681C8.63472 11.9722 8.42842 12.1565 8.40229 12.4485C8.38579 12.6406 8.39954 12.835 8.39954 13.0532V13.0527Z" fill="#662E93"/>
</g>
<defs>
<clipPath id="clip0_238_97">
<rect width="16.1453" height="16" fill="white"/>
</clipPath>
</defs>
</svg>
