<svg width="37" height="36" viewBox="0 0 37 36" fill="none" xmlns="http://www.w3.org/2000/svg">
<g clip-path="url(#clip0_397_95)">
<path d="M0 34.5229C0.597588 34.5229 1.19518 34.5276 1.79277 34.5276H36.0103V36H0V34.5229Z" fill="#B07FD8"/>
<path d="M4.84101e-06 24.0415C0.972495 24.034 1.94405 24.019 2.91278 24.0237C3.15238 24.0237 3.25949 23.9429 3.33936 23.7183C4.33221 20.9183 5.33101 18.1198 6.33576 15.3229C6.36958 15.229 6.38931 15.1256 6.42972 14.9772H5.30219V13.5273H8.50812C8.47148 13.6533 8.44235 13.7707 8.40195 13.8844C7.06646 17.6309 5.73222 21.3774 4.39923 25.1239C4.30527 25.388 4.18124 25.4829 3.89748 25.4782C2.59707 25.4556 1.29666 25.4566 -0.00375366 25.449L4.84101e-06 24.0415Z" fill="#B07FD8"/>
<path d="M26.0938 23.9836C25.7536 22.3863 25.4219 20.8322 25.0893 19.2781C24.8074 17.9514 24.5115 16.6265 24.2437 15.297C24.1901 15.0339 24.084 14.9503 23.8256 14.9625C23.4065 14.9813 22.9865 14.9672 22.5458 14.9672V13.5249H25.3505C26.1962 17.4891 27.0493 21.4533 27.9063 25.4466H8.10504C8.9582 21.4617 9.80667 17.5069 10.6589 13.5305H13.4589V14.9634C13.0211 14.9634 12.5691 14.97 12.1181 14.9634C11.9217 14.9634 11.8362 15.0208 11.7883 15.2275C11.1813 18.1001 10.5687 20.9713 9.95042 23.8408C9.94322 23.8878 9.93851 23.9352 9.93633 23.9827L26.0938 23.9836Z" fill="#B07FD8"/>
<path d="M17.9859 17.6522C17.5086 17.0292 17.0331 16.4382 16.5887 15.8256C15.0524 13.7068 13.6562 11.5034 12.7128 9.04919C12.337 8.07294 12.0551 7.07602 12.0354 6.01614C12.0094 4.6575 12.4542 3.3317 13.2944 2.2637C14.1346 1.19571 15.3185 0.451292 16.6451 0.156771C17.4193 -0.0258196 18.2222 -0.0521382 19.0068 0.0793543C19.7913 0.210847 20.5417 0.497509 21.2142 0.922564C21.8866 1.34762 22.4674 1.90253 22.9228 2.55481C23.3781 3.20709 23.6987 3.94365 23.8659 4.72137C24.1478 6.01051 23.9082 7.2583 23.4986 8.47979C22.76 10.6869 21.593 12.6723 20.2926 14.5872C19.6471 15.5343 18.933 16.4354 18.248 17.3553C18.1804 17.4455 18.0977 17.5263 17.9859 17.6522ZM17.9859 15.2853C18.0554 15.2115 18.1209 15.134 18.1823 15.0533C18.9424 13.9004 19.7383 12.7691 20.4495 11.5871C21.3196 10.1401 22.0563 8.62542 22.4124 6.95481C23.1406 3.52901 20.0136 0.641607 16.6808 1.65732C14.6606 2.2737 12.8838 4.3615 13.6741 7.27803C14.4802 10.265 16.2082 12.755 17.984 15.2853H17.9859Z" fill="#B07FD8"/>
<path d="M35.9775 24.0436V25.438C35.8672 25.4542 35.7562 25.4649 35.6448 25.4699C34.4497 25.4699 33.2554 25.4699 32.0602 25.4699C31.8545 25.4699 31.7239 25.437 31.6421 25.2059C30.291 21.393 28.9339 17.5819 27.5708 13.7728C27.5448 13.6897 27.5232 13.6053 27.506 13.52H30.7006V14.9539H29.5675C29.6163 15.1267 29.6417 15.247 29.683 15.3616C30.6734 18.1363 31.6703 20.9053 32.6531 23.6856C32.7471 23.9383 32.8608 24.0304 33.1286 24.0248C33.9366 24.0079 34.7447 24.0182 35.5528 24.0201C35.6899 24.0201 35.8262 24.0351 35.9775 24.0436Z" fill="#B07FD8"/>
<path d="M6.78769 9.78809H11.2113V11.1975H6.78769V9.78809Z" fill="#662E93"/>
<path d="M24.7886 11.2048V9.79541H29.2217V11.2048H24.7886Z" fill="#662E93"/>
<path d="M2.97292 29.2798C2.97292 29.7186 2.98232 30.1254 2.96447 30.5332C2.95062 30.5761 2.92613 30.6149 2.89326 30.6457C2.8604 30.6766 2.82024 30.6987 2.77654 30.7099C2.1254 30.723 1.47331 30.7174 0.803375 30.7174V29.2798H2.97292Z" fill="#662E93"/>
<path d="M5.29749 30.7175V29.2827H7.46703C7.46703 29.7187 7.47173 30.1565 7.45951 30.5982C7.45951 30.6414 7.34676 30.7156 7.28569 30.7165C6.6336 30.7203 5.98058 30.7175 5.29749 30.7175Z" fill="#662E93"/>
<path d="M9.80289 30.7155V29.2798H11.9715C11.9715 29.7148 11.9771 30.1414 11.9649 30.568C11.9536 30.6027 11.9336 30.634 11.9068 30.6588C11.88 30.6837 11.8473 30.7012 11.8118 30.7099C11.1493 30.7193 10.486 30.7155 9.80289 30.7155Z" fill="#662E93"/>
<path d="M16.4769 29.2798C16.4769 29.7176 16.4863 30.1254 16.4684 30.5323C16.4546 30.5753 16.4301 30.6141 16.3972 30.6452C16.3644 30.6762 16.3242 30.6985 16.2805 30.7099C15.6284 30.723 14.9773 30.7174 14.3073 30.7174V29.2798H16.4769Z" fill="#662E93"/>
<path d="M18.8128 29.2798H20.9738C20.9738 29.712 20.9823 30.1254 20.9644 30.5445C20.9644 30.6056 20.8357 30.7089 20.7653 30.7108C20.1235 30.724 19.4818 30.7183 18.8099 30.7183L18.8128 29.2798Z" fill="#662E93"/>
<path d="M25.4633 29.2817V30.6911H23.3078V29.2817H25.4633Z" fill="#662E93"/>
<path d="M27.8038 30.7175V29.2837H29.9734C29.9734 29.7168 29.9781 30.1547 29.9649 30.5916C29.9649 30.6348 29.854 30.711 29.793 30.7119C29.1418 30.7203 28.4888 30.7175 27.8038 30.7175Z" fill="#662E93"/>
<path d="M34.4835 29.29C34.4835 29.71 34.4966 30.1066 34.4732 30.5021C34.4558 30.5531 34.4257 30.5989 34.3857 30.635C34.3458 30.6712 34.2973 30.6966 34.2448 30.7088C33.6134 30.7267 32.9829 30.7182 32.3196 30.7182V29.29H34.4835Z" fill="#662E93"/>
<path d="M17.9981 8.20847C17.5598 8.20439 17.1324 8.07068 16.7699 7.82418C16.4073 7.57769 16.1259 7.22942 15.9609 6.82326C15.7959 6.4171 15.7548 5.9712 15.8427 5.54172C15.9307 5.11224 16.1438 4.71839 16.4551 4.40977C16.7665 4.10115 17.1622 3.89157 17.5924 3.80742C18.0227 3.72327 18.4682 3.76831 18.8729 3.93688C19.2776 4.10544 19.6233 4.38999 19.8666 4.75469C20.1099 5.11938 20.2398 5.54791 20.24 5.9863C20.2368 6.57808 19.9989 7.14441 19.5786 7.56101C19.1583 7.97762 18.5899 8.21047 17.9981 8.20847ZM18.0169 6.75114C18.1672 6.74646 18.3126 6.6974 18.435 6.61015C18.5574 6.5229 18.6512 6.40136 18.7046 6.26087C18.758 6.12038 18.7686 5.96722 18.7351 5.8207C18.7016 5.67418 18.6255 5.54087 18.5163 5.43758C18.4071 5.33428 18.2698 5.26562 18.1216 5.24026C17.9735 5.2149 17.8211 5.23398 17.6838 5.29508C17.5465 5.35618 17.4303 5.45657 17.35 5.5836C17.2696 5.71062 17.2287 5.8586 17.2324 6.00885C17.2418 6.21 17.3288 6.39966 17.4751 6.53806C17.6214 6.67645 17.8156 6.75282 18.0169 6.75114Z" fill="#662E93"/>
</g>
<defs>
<clipPath id="clip0_397_95">
<rect width="36.0103" height="36" fill="white"/>
</clipPath>
</defs>
</svg>
