<svg width="34" height="36" viewBox="0 0 34 36" fill="none" xmlns="http://www.w3.org/2000/svg">
<g clip-path="url(#clip0_123_233)">
<path d="M17.0191 36C14.9041 35.4102 12.7854 34.8298 10.6752 34.225C9.4806 33.8832 8.29072 33.5442 7.03696 33.4991C6.74208 33.4888 6.59087 33.5104 6.51668 33.8607C6.42614 34.2469 6.20894 34.5917 5.8997 34.8402C5.59045 35.0887 5.20694 35.2265 4.81027 35.2318C3.80351 35.2496 2.79488 35.2515 1.78812 35.2318C0.838651 35.213 0.0262959 34.4307 0.0169045 33.4803C-0.00563483 31.2189 -0.00563483 28.9577 0.0169045 26.6969C0.0262959 25.7221 0.82832 24.951 1.84353 24.9201C2.81554 24.89 3.78848 24.8956 4.76049 24.9201C5.08506 24.9183 5.40387 25.0057 5.68211 25.1728C5.96035 25.3399 6.18732 25.5803 6.33825 25.8676C6.44531 26.0611 6.57679 26.1297 6.75616 26.0733C7.18535 25.9381 7.65586 25.8526 8.024 25.6141C9.6102 24.5867 11.3363 24.1049 13.2015 24.35C14.3773 24.505 15.5287 24.8477 16.6866 25.1267C17.1975 25.2497 17.6906 25.4488 18.2005 25.5718C19.289 25.8348 20.0487 26.4443 20.3878 27.5835C20.5164 27.5243 20.6282 27.4755 20.7371 27.4219C22.5929 26.5041 24.4489 25.5862 26.3053 24.6684C27.4022 24.1284 28.5338 24.2317 29.3321 24.9323C30.5474 26.0001 30.4497 27.8708 29.1114 28.9086C28.6306 29.2842 28.1253 29.6223 27.6295 29.9754C25.5117 31.4837 23.3874 32.9807 21.2781 34.5002C20.3192 35.1905 19.3059 35.753 18.1432 35.9972L17.0191 36ZM6.61529 31.9918C7.63707 32.1542 8.63726 32.2312 9.59142 32.482C11.774 33.0549 13.9331 33.7141 16.1025 34.3349C16.8848 34.5584 17.6877 34.7566 18.4775 34.4429C19.0551 34.2214 19.605 33.9336 20.1163 33.5855C22.791 31.7072 25.4469 29.8092 28.099 27.9065C28.319 27.7536 28.5019 27.5534 28.6343 27.3205C29.0419 26.5532 28.5076 25.708 27.6407 25.7503C27.3506 25.7755 27.0684 25.8582 26.8105 25.9935C24.7306 27.0103 22.6558 28.038 20.5859 29.0767C20.3852 29.1834 20.2158 29.3407 20.0947 29.5331C19.5228 30.4544 18.4128 31.0188 17.39 30.7615C15.9625 30.4018 14.5548 29.9623 13.1414 29.55C13.0029 29.5157 12.8797 29.4364 12.7912 29.3246C12.7026 29.2128 12.6537 29.0747 12.6521 28.9321C12.6183 28.3996 13.0672 28.0793 13.6325 28.2399C14.8919 28.5987 16.1485 28.9687 17.4079 29.3274C18.1526 29.5387 18.8006 29.2063 18.9969 28.5245C19.1847 27.8671 18.8203 27.2303 18.0991 27.0125C17.0811 26.705 16.0608 26.4042 15.0384 26.1099C12.7497 25.4525 10.5616 25.5145 8.52832 26.9552C8.15266 27.2181 7.64365 27.2923 7.19004 27.4341C7.00049 27.4786 6.80765 27.5079 6.61341 27.5215L6.61529 31.9918ZM1.41246 30.0816C1.41246 31.124 1.41246 32.1664 1.41246 33.2089C1.41246 33.685 1.56273 33.8315 2.04544 33.8325C2.88879 33.8325 3.73214 33.8325 4.57548 33.8325C5.0319 33.8325 5.1925 33.6766 5.19344 33.2249C5.19344 31.1275 5.19344 29.03 5.19344 26.9326C5.19344 26.4837 5.02627 26.3194 4.57361 26.3175C3.73026 26.3119 2.88691 26.3119 2.04357 26.3175C1.574 26.3175 1.4134 26.48 1.41246 26.9533C1.41121 27.9964 1.41121 29.0391 1.41246 30.0816Z" fill="#B07FD8"/>
<path d="M25.5774 3.59033C25.5774 2.95453 25.5727 2.40607 25.5774 1.85667C25.5887 0.830196 26.2461 0.172799 27.2754 0.157773C27.6388 0.152138 28.0013 0.152138 28.3648 0.157773C29.3978 0.173738 30.0656 0.840527 30.0693 1.89518C30.0768 3.82793 30.0768 5.76099 30.0693 7.69436C30.0602 7.82569 30.0807 7.95739 30.1295 8.07967C30.1783 8.20194 30.254 8.31164 30.3511 8.40059C31.0366 9.05736 31.7088 9.72728 32.3674 10.4103C33.0192 11.0828 33.2248 11.882 32.9065 12.7713C32.5937 13.6466 31.9382 14.1284 31.0235 14.2467C30.4262 14.3247 29.8965 14.1265 29.333 13.7471V14.1622C29.333 16.1344 29.2945 18.1 29.3471 20.0666C29.3828 21.418 28.408 22.5562 26.8678 22.545C22.5919 22.5121 18.3151 22.5356 14.0382 22.5328C12.4652 22.5328 11.558 21.6162 11.557 20.0384C11.557 18.0938 11.557 16.1491 11.557 14.2045V13.8354C11.1814 13.9716 10.832 14.1444 10.4639 14.2176C10.0113 14.3024 9.54354 14.2416 9.12775 14.0438C8.71197 13.8461 8.36959 13.5216 8.14984 13.1169C7.6906 12.298 7.7601 11.2387 8.40622 10.5634C9.60832 9.31437 10.848 8.09913 12.0773 6.87919C12.1407 6.81355 12.2166 6.7612 12.3005 6.72519C12.3843 6.68918 12.4745 6.67022 12.5658 6.66944C12.657 6.66865 12.7475 6.68604 12.832 6.7206C12.9165 6.75517 12.9932 6.8062 13.0578 6.87074C13.3536 7.15999 13.3527 7.57321 13.0258 7.90379C11.913 9.03076 10.7841 10.1352 9.6797 11.2668C9.49077 11.4663 9.35653 11.7112 9.28995 11.9778C9.21388 12.298 9.39701 12.5666 9.68251 12.7366C9.8171 12.8226 9.97459 12.8657 10.1342 12.8603C10.2938 12.855 10.4481 12.8014 10.5766 12.7065C10.6893 12.6225 10.794 12.5282 10.8893 12.4248C13.8401 9.47653 16.7902 6.52795 19.7397 3.57906C20.3098 3.009 20.585 3.00524 21.1485 3.56685C24.1161 6.53077 27.0826 9.49594 30.0477 12.4624C30.3182 12.7328 30.599 12.9366 31.0085 12.8221C31.1399 12.7896 31.2614 12.7254 31.3622 12.6349C31.463 12.5445 31.54 12.4306 31.5864 12.3034C31.6327 12.1762 31.6471 12.0395 31.6282 11.9054C31.6094 11.7713 31.5578 11.6439 31.478 11.5345C31.3929 11.4233 31.2986 11.3193 31.1963 11.2236C28.1973 8.22466 25.1977 5.22662 22.1975 2.22951C21.0949 1.1279 19.8158 1.12884 18.7114 2.22951C18.3357 2.60517 17.9695 2.98082 17.5919 3.34709C17.2623 3.66733 16.8491 3.688 16.5589 3.41095C16.2508 3.11606 16.2631 2.70284 16.604 2.35536C17.0557 1.89518 17.5037 1.43218 17.9742 0.991727C18.6346 0.361778 19.5102 0.00714153 20.4229 -1.1724e-05C21.3355 -0.00716497 22.2166 0.333704 22.8868 0.953223C23.7386 1.73928 24.5369 2.58263 25.3605 3.39498C25.4074 3.44757 25.461 3.4889 25.5774 3.59033ZM20.4572 4.87131C20.4028 4.91639 20.3737 4.93611 20.3492 4.96053C17.9494 7.36097 15.549 9.76391 13.1479 12.1694C13.0332 12.3085 12.9716 12.4839 12.9742 12.6643C12.9629 15.1117 12.9657 17.5591 12.9667 20.0065C12.9667 20.8517 13.2418 21.1269 14.0796 21.1269H26.8331C27.6604 21.1269 27.9309 20.8564 27.9309 20.0356C27.9309 17.5882 27.9309 15.1408 27.9356 12.6934C27.9422 12.5789 27.9236 12.4644 27.8811 12.358C27.8386 12.2515 27.7732 12.1557 27.6896 12.0773C25.3636 9.76579 23.0424 7.44925 20.7258 5.12769C20.6441 5.04693 20.5587 4.96804 20.4563 4.87131H20.4572ZM28.5827 6.62938L28.6691 6.59839C28.6691 5.01312 28.6691 3.42848 28.6691 1.84447C28.6691 1.63785 28.5442 1.56272 28.3488 1.56272C28.0098 1.56272 27.6708 1.57024 27.3327 1.56272C27.0735 1.55521 26.9843 1.67166 26.9861 1.92241C26.9937 2.8916 26.9861 3.86174 26.9927 4.83374C26.9911 4.93559 27.0243 5.03495 27.0866 5.11549C27.5731 5.62356 28.0774 6.12506 28.5827 6.62938Z" fill="#B07FD8"/>
<path d="M14.799 5.84055C14.6594 5.83933 14.5233 5.79648 14.4082 5.7175C14.2931 5.63851 14.2041 5.52697 14.1528 5.39716C14.1014 5.26734 14.0899 5.12515 14.1198 4.98878C14.1497 4.85241 14.2196 4.72807 14.3206 4.63165C14.4216 4.53524 14.549 4.47115 14.6866 4.44757C14.8242 4.424 14.9657 4.44202 15.093 4.49933C15.2204 4.55663 15.3277 4.65062 15.4013 4.76926C15.4748 4.8879 15.5114 5.0258 15.5061 5.16531C15.4984 5.34743 15.4204 5.51947 15.2885 5.64536C15.1567 5.77125 14.9812 5.8412 14.799 5.84055Z" fill="#662E93"/>
<path d="M20.4591 11.3879C21.3504 10.6977 22.3092 10.4216 23.3808 10.7456C24.9773 11.2273 25.8742 13.1441 25.2647 14.8383C25.0902 15.321 24.817 15.7621 24.4627 16.1334C23.3507 17.2726 22.1871 18.361 21.0376 19.4636C20.6254 19.858 20.2807 19.858 19.8759 19.4683C18.7274 18.3657 17.575 17.266 16.4396 16.1494C15.9378 15.6499 15.6067 15.0045 15.4937 14.3056C15.3806 13.6066 15.4915 12.8898 15.8104 12.2576C16.6077 10.6507 18.4822 10.1267 20.0177 11.0827C20.1614 11.1748 20.3014 11.2799 20.4591 11.3879ZM20.4375 18.0605C20.5014 18.0117 20.5418 17.9882 20.5746 17.9563C21.5448 17.0218 22.5224 16.0958 23.4766 15.1454C23.679 14.935 23.8356 14.6849 23.9368 14.411C24.2288 13.6419 23.9518 12.7065 23.3367 12.2604C22.8229 11.8847 21.9824 11.9063 21.4527 12.4229C20.7315 13.1235 20.1981 13.1263 19.4392 12.4172C18.6804 11.7082 17.6474 11.9186 17.143 12.7394C16.681 13.4907 16.7674 14.488 17.3919 15.1079C18.3883 16.1005 19.4082 17.065 20.4375 18.0605Z" fill="#662E93"/>
</g>
<defs>
<clipPath id="clip0_123_233">
<rect width="33.0539" height="36" fill="white"/>
</clipPath>
</defs>
</svg>
