<svg width="14" height="16" viewBox="0 0 14 16" fill="none" xmlns="http://www.w3.org/2000/svg">
<g clip-path="url(#clip0_340_98)">
<path d="M13.6422 1.92714C13.9304 1.92901 13.9921 1.98958 13.9925 2.27631C13.9925 2.77464 13.9962 3.27297 13.9925 3.77167C13.9843 4.59599 13.3876 5.33993 12.5861 5.50555C12.4343 5.53695 12.4156 5.59751 12.416 5.72536C12.4186 7.07119 12.4257 8.41702 12.4119 9.76284C12.4103 10.1549 12.3728 10.5459 12.2997 10.9311C11.6515 14.2127 8.49479 16.5862 4.95003 15.8714C3.35883 15.5506 1.95809 14.6158 1.0513 13.2695C0.144498 11.9232 -0.195332 10.2738 0.10543 8.6787C0.607872 5.92836 2.7754 3.94626 5.54743 3.62176C5.97286 3.57204 6.35941 3.88046 6.43231 4.32795C6.49623 4.7216 6.20314 5.13731 5.80313 5.21582C5.69958 5.23601 5.59341 5.24311 5.48911 5.25956C2.96867 5.65321 1.25387 8.04355 1.68678 10.5591C2.13538 13.1734 4.67414 14.8639 7.24392 14.2601C9.25219 13.7895 10.7352 11.9977 10.7801 9.93257C10.8111 8.50636 10.7872 7.07941 10.7924 5.65284C10.7924 5.53134 10.7464 5.49807 10.6361 5.47452C9.87725 5.31115 9.33929 4.8588 9.21929 4.09504C9.11835 3.4498 9.17218 2.77987 9.1662 2.12117C9.1662 1.98995 9.26415 1.9264 9.39387 1.92453C9.52995 1.92266 9.66565 1.92453 9.82603 1.92453V1.7077C9.82603 1.3776 9.8208 1.0475 9.82342 0.717396C9.8279 0.237011 10.2186 -0.0856136 10.6672 0.0164448C10.8144 0.0489537 10.9463 0.130356 11.0413 0.24739C11.1363 0.364424 11.1889 0.510192 11.1905 0.660946C11.1947 1.07628 11.1905 1.49162 11.1905 1.92378H12.0754C12.0788 1.84228 12.0837 1.78135 12.084 1.72078C12.084 1.37162 12.0784 1.02282 12.0866 0.67403C12.0905 0.574475 12.1163 0.477006 12.1624 0.388662C12.2084 0.300319 12.2735 0.223303 12.353 0.163178C12.4324 0.103052 12.5242 0.0613169 12.6217 0.0409844C12.7193 0.0206519 12.8201 0.0222297 12.9169 0.0456044C13.2343 0.124859 13.4343 0.356266 13.4422 0.685993C13.4515 1.08974 13.4444 1.49349 13.4444 1.92378L13.6422 1.92714ZM9.6507 3.95336C9.7322 4.60085 10.2488 5.00011 10.9442 5.05768C11.2085 5.08011 11.2556 5.12871 11.2556 5.38965C11.2556 6.84128 11.2612 8.2929 11.2556 9.74452C11.2451 12.1543 9.6107 14.1973 7.27756 14.7233C4.50703 15.348 1.72005 13.4788 1.24041 10.6773C0.789558 8.04392 2.40156 5.55564 4.98442 4.90104C5.20088 4.84646 5.42406 4.81843 5.64388 4.77768C5.87753 4.73431 6.00426 4.58216 5.97323 4.38402C5.94071 4.17804 5.78631 4.06289 5.55154 4.08981C4.06963 4.25841 2.83035 4.90628 1.85912 6.03378C-1.0374 9.3905 0.79853 14.619 5.15938 15.4493C7.83757 15.9592 10.5292 14.4501 11.5577 11.8605C11.8365 11.158 11.9573 10.4268 11.9554 9.672C11.9521 8.2701 11.9554 6.86819 11.9554 5.46667C11.9554 5.17208 11.9906 5.13021 12.2874 5.09544C13.0455 5.00236 13.5431 4.43599 13.5394 3.67298C13.5394 3.29316 13.536 2.91296 13.5416 2.53314C13.5435 2.42099 13.5143 2.37762 13.3966 2.378C12.1629 2.38136 10.9292 2.38024 9.69556 2.38099C9.67648 2.38326 9.65768 2.38752 9.63949 2.3937C9.63799 2.92343 9.58677 3.44568 9.6507 3.95336ZM10.7401 1.92116V1.51592C10.7401 1.24825 10.7442 0.980953 10.7401 0.713284C10.7367 0.563747 10.6672 0.457576 10.5016 0.465427C10.3487 0.472156 10.2877 0.570103 10.2881 0.716274C10.2881 1.11292 10.2881 1.50956 10.2881 1.92154L10.7401 1.92116ZM12.988 1.9163C12.988 1.68377 12.988 1.4505 12.988 1.21647C12.988 1.04824 12.988 0.880016 12.988 0.712162C12.9854 0.579449 12.9102 0.499073 12.7816 0.491222C12.6444 0.483372 12.545 0.559261 12.542 0.697956C12.5334 1.10096 12.539 1.50396 12.539 1.9163H12.988Z" fill="#B07FD8"/>
<path d="M6.67754 10.6777H6.08463C5.42443 10.6777 4.76398 10.6777 4.10328 10.6777C3.78252 10.6777 3.69691 10.5517 3.82028 10.2593C4.32048 9.07375 4.8213 7.88868 5.32274 6.7041C5.39078 6.54372 5.46854 6.38708 5.52537 6.22297C5.58929 6.03605 5.70107 5.96128 5.90145 5.96577C6.48053 5.97586 7.06035 5.96913 7.63906 5.96913C8.04542 5.96913 8.12505 6.09474 7.94897 6.45512C7.58086 7.20928 7.21363 7.96394 6.84727 8.7191C6.82596 8.76284 6.80988 8.80882 6.78222 8.87462C6.84801 8.87985 6.8996 8.88696 6.95119 8.88733C7.64841 8.88733 8.34599 8.88284 9.0447 8.89256C9.15087 8.89256 9.2877 8.93406 9.35424 9.00733C9.44957 9.11126 9.36882 9.23612 9.29779 9.34379C8.34873 10.8045 7.39993 12.2654 6.45137 13.7263C6.40127 13.8011 6.31679 13.8845 6.23305 13.9069C6.06295 13.9529 5.95229 13.7817 6.00239 13.5686C6.18781 12.7765 6.37386 11.9843 6.56053 11.1921C6.59829 11.0298 6.63418 10.8672 6.67754 10.6777ZM7.4499 6.42671C6.97512 6.42671 6.53997 6.43194 6.10407 6.42372C5.97734 6.42148 5.91715 6.46522 5.87042 6.57999C5.45919 7.56655 5.04087 8.5505 4.62516 9.53557C4.53132 9.75688 4.43824 9.97857 4.33506 10.2246H4.56796C5.34056 10.2246 6.11317 10.2246 6.88577 10.2246C7.15157 10.2246 7.23045 10.3247 7.17438 10.5864C7.14559 10.7203 7.11082 10.8526 7.07979 10.9857C6.97312 11.438 6.86683 11.8903 6.76091 12.3424L6.79829 12.3581L8.74226 9.35949C8.65852 9.35351 8.61067 9.34678 8.56282 9.34678C7.86523 9.34678 7.16765 9.34678 6.46931 9.34454C6.1979 9.34454 6.1108 9.19762 6.22669 8.95425C6.34258 8.71088 6.46109 8.47349 6.57773 8.23311C6.86222 7.64132 7.14858 7.04878 7.4499 6.42671Z" fill="#662E93"/>
<path d="M11.5468 3.74731H10.8014C10.6488 3.74731 10.5445 3.809 10.546 3.97424C10.5475 4.13947 10.6488 4.20377 10.8014 4.20415C11.3046 4.20415 11.8074 4.20714 12.3106 4.20415C12.49 4.20415 12.5838 4.1133 12.5767 3.96452C12.5689 3.79554 12.4579 3.74769 12.3106 3.74769L11.5468 3.74731Z" fill="#B07FD8"/>
<path d="M11.5666 3.35406H12.33C12.4766 3.35406 12.5723 3.29126 12.5749 3.13723C12.5779 2.97574 12.4807 2.90134 12.3266 2.90097C11.8115 2.89922 11.2963 2.89922 10.7812 2.90097C10.6317 2.90097 10.5453 2.98546 10.5449 3.13051C10.5445 3.27556 10.635 3.35481 10.7846 3.35481L11.5666 3.35406Z" fill="#B07FD8"/>
</g>
<defs>
<clipPath id="clip0_340_98">
<rect width="13.994" height="16" fill="white"/>
</clipPath>
</defs>
</svg>
