<svg width="37" height="36" viewBox="0 0 37 36" fill="none" xmlns="http://www.w3.org/2000/svg">
<g clip-path="url(#clip0_117_170)">
<path d="M34.1938 32.3365C34.1938 33.1299 34.1938 33.9043 34.1938 34.6776C34.1938 35.4981 33.706 35.9899 32.8916 35.9929C31.7562 35.9969 30.6193 35.9969 29.4806 35.9929C28.6932 35.9929 28.1994 35.4921 28.1953 34.7007C28.1903 33.9514 28.1953 33.198 28.1953 32.4247H14.9972C14.9972 33.0358 14.9972 33.6548 14.9972 34.2749C14.9972 34.4623 15.0043 34.6496 14.9972 34.8369C14.9893 35.1407 14.8647 35.4298 14.6493 35.6441C14.4338 35.8585 14.1441 35.9816 13.8402 35.9879C12.6161 36.0039 11.3916 36.0039 10.1668 35.9879C9.86915 35.9843 9.58399 35.8678 9.369 35.6619C9.15402 35.456 9.02525 35.1762 9.00877 34.879C8.98673 34.4693 9.00877 34.0575 9.00877 33.6208H10.1908V34.7648H13.7801V32.3966H12.4778C11.5532 32.3966 10.6286 32.3966 9.70398 32.3966C8.23742 32.3906 7.21463 31.3628 7.21162 29.8923C7.20762 28.4431 7.20762 26.9935 7.21162 25.5436C7.21162 24.1302 8.08515 23.0793 9.46957 22.8389C9.72202 22.7958 9.82119 22.6947 9.89632 22.4683C10.645 20.1929 11.3996 17.9203 12.1603 15.6503C12.583 14.3801 13.3874 13.8031 14.7378 13.8031C19.3225 13.8031 23.9082 13.8031 28.4949 13.8031C29.8332 13.8031 30.6316 14.3841 31.0584 15.6674C31.811 17.9273 32.5623 20.1879 33.3123 22.4492C33.3894 22.6846 33.4906 22.7968 33.7611 22.8429C35.1275 23.0753 35.997 24.1282 36.003 25.5196C36.009 26.881 35.978 28.2444 36.012 29.6048C36.0351 30.9341 35.5081 31.8637 34.1938 32.3365ZM21.6108 31.1945H33.4155C34.3301 31.1945 34.7929 30.7277 34.7929 29.8071C34.7929 28.3946 34.7929 26.9828 34.7929 25.5717C34.7929 24.599 34.1989 23.9979 33.2362 23.9979C25.4786 23.9979 17.7213 23.9979 9.96444 23.9979C8.99675 23.9979 8.40171 24.599 8.3997 25.5637C8.3997 26.9661 8.3997 28.3616 8.3997 29.761C8.3997 30.7498 8.84849 31.1945 9.84423 31.1955L21.6108 31.1945ZM11.0393 22.7798H32.1402C32.0982 22.6386 32.0661 22.5194 32.0281 22.4031C31.5873 21.0768 31.1458 19.7512 30.7037 18.4262C30.5925 18.0956 30.5635 17.6368 30.3311 17.4755C30.0987 17.3142 29.6399 17.4014 29.2822 17.4014C23.9222 17.4014 18.5618 17.3984 13.2011 17.3924C12.9156 17.3924 12.7934 17.4715 12.7062 17.747C12.3306 18.9361 11.9269 20.1161 11.5332 21.3002L11.0393 22.7798ZM13.2873 16.1813H29.9083C29.8002 15.4239 29.3554 15.0032 28.6401 15.0032C23.9432 14.9992 19.2457 14.9992 14.5475 15.0032C13.8342 15.0012 13.3814 15.435 13.2873 16.1793V16.1813ZM29.4155 34.7698H32.9607V32.4147H29.4115L29.4155 34.7698Z" fill="#B07FD8"/>
<path d="M20.3837 12.582H19.1966V2.64465C19.1966 1.65091 18.7498 1.20313 17.7581 1.20313H2.64963C1.64788 1.20313 1.2011 1.6469 1.20009 2.63363V17.7771C1.20009 18.7428 1.65589 19.1976 2.62158 19.1976H8.9747V20.3847C8.89356 20.3897 8.82243 20.3967 8.75031 20.3967C6.65164 20.3967 4.55196 20.4027 2.45229 20.3967C1.03581 20.3917 0.00400168 19.3489 0.00199818 17.9214C-0.00200883 13.7848 -0.00200883 9.64857 0.00199818 5.51267C0.00199818 4.51092 0.00199818 3.50916 0.00199818 2.51342C0.0080087 1.03483 1.02579 0.00903709 2.49436 0.00402832C7.64203 0.00402832 12.7904 0.00402832 17.9394 0.00402832C19.3278 0.00402832 20.3887 1.03083 20.3937 2.39822C20.4047 5.72204 20.3937 9.04585 20.3937 12.3707C20.3957 12.4298 20.3887 12.4909 20.3837 12.582Z" fill="#662E93"/>
<path d="M8.39868 13.1991C8.39868 14.5665 8.39868 15.8778 8.39868 17.1881C8.39868 17.8022 8.20534 17.9965 7.59728 17.9975C6.52207 17.9975 5.44752 17.9975 4.37364 17.9975C3.80865 17.9975 3.60229 17.7972 3.60129 17.2342C3.60129 12.5493 3.60129 7.86479 3.60129 3.18059C3.60129 2.59757 3.80164 2.40223 4.39568 2.40123C6.71874 2.40123 9.04281 2.39522 11.3659 2.40123C14.2048 2.41125 16.4618 4.45783 16.7753 7.2978C17.0759 9.96347 15.2166 12.4869 12.5049 13.0739C12.0886 13.154 11.6656 13.1936 11.2417 13.1921C10.31 13.2111 9.37539 13.1991 8.39868 13.1991ZM4.82743 3.61335V16.7794H7.19958V16.3957C7.19958 15.209 7.19958 14.0219 7.19958 12.8345C7.19958 12.1763 7.3809 12 8.05107 11.999C9.21311 11.999 10.3761 12.0181 11.5372 11.99C13.6409 11.9399 15.3629 10.3081 15.5823 8.18335C15.7906 6.17083 14.4352 4.24746 12.4468 3.74658C12.2189 3.67707 11.9834 3.63537 11.7455 3.62237C9.45052 3.60935 7.1525 3.61335 4.82743 3.61335Z" fill="#B07FD8"/>
<path d="M15.6193 25.8142H27.5662V26.9722H15.6193V25.8142Z" fill="#B07FD8"/>
<path d="M15.6143 29.3684V28.2164H27.5773V29.3684H15.6143Z" fill="#B07FD8"/>
<path d="M14.3972 27.6123C14.395 28.0878 14.2519 28.5519 13.9859 28.9461C13.7199 29.3403 13.343 29.6467 12.9029 29.8266C12.4627 30.0066 11.9791 30.052 11.5132 29.9571C11.0472 29.8622 10.6199 29.6312 10.2852 29.2934C9.95052 28.9557 9.72351 28.5262 9.63288 28.0595C9.54225 27.5927 9.59207 27.1095 9.77605 26.671C9.96003 26.2325 10.2699 25.8585 10.6665 25.5961C11.063 25.3337 11.5285 25.1949 12.004 25.197C12.3197 25.1985 12.6321 25.2621 12.9232 25.3843C13.2144 25.5064 13.4786 25.6847 13.7008 25.909C13.923 26.1333 14.0989 26.3991 14.2184 26.6914C14.3379 26.9836 14.3986 27.2965 14.3972 27.6123ZM11.982 26.3981C11.7435 26.4006 11.5111 26.474 11.3144 26.6089C11.1177 26.7438 10.9656 26.9341 10.8774 27.1557C10.7893 27.3773 10.769 27.6202 10.8192 27.8533C10.8694 28.0865 10.9879 28.2994 11.1595 28.4651C11.3311 28.6307 11.5481 28.7416 11.7828 28.7835C12.0176 28.8255 12.2596 28.7967 12.4779 28.7007C12.6963 28.6048 12.8812 28.4461 13.0091 28.2448C13.1369 28.0434 13.202 27.8086 13.1961 27.5702C13.1882 27.2545 13.0564 26.9546 12.8293 26.7353C12.6021 26.516 12.2977 26.3949 11.982 26.3981Z" fill="#662E93"/>
<path d="M33.5928 27.6094C33.5902 28.0835 33.4472 28.5462 33.1819 28.9391C32.9165 29.3321 32.5407 29.6375 32.1018 29.817C31.663 29.9965 31.1808 30.0419 30.7161 29.9475C30.2515 29.8532 29.8252 29.6233 29.4911 29.2868C29.1571 28.9504 28.9302 28.5225 28.8391 28.0572C28.748 27.5919 28.7969 27.11 28.9795 26.6725C29.162 26.2349 29.4702 25.8612 29.865 25.5986C30.2597 25.3361 30.7235 25.1964 31.1976 25.1971C31.8351 25.1995 32.4455 25.455 32.8946 25.9073C33.3438 26.3597 33.5949 26.9719 33.5928 27.6094ZM32.3907 27.5813C32.3892 27.3426 32.3167 27.1097 32.1824 26.9124C32.0481 26.715 31.8581 26.5621 31.6366 26.4732C31.415 26.3842 31.172 26.3632 30.9385 26.4129C30.705 26.4626 30.4916 26.5806 30.3255 26.752C30.1593 26.9234 30.048 27.1404 30.0056 27.3753C29.9632 27.6103 29.9918 27.8525 30.0876 28.0712C30.1834 28.2898 30.3421 28.475 30.5435 28.6031C30.745 28.7312 30.98 28.7964 31.2186 28.7904C31.5338 28.7831 31.8334 28.6522 32.053 28.4261C32.2726 28.1999 32.3946 27.8965 32.3927 27.5813H32.3907Z" fill="#662E93"/>
<path d="M9.71098 6.00055C10.274 6.00055 10.836 5.99354 11.3979 6.00055C11.6339 6.00088 11.8676 6.04769 12.0855 6.13831C12.3034 6.22893 12.5013 6.36158 12.668 6.5287C12.8346 6.69581 12.9667 6.89411 13.0567 7.11227C13.1467 7.33044 13.1929 7.5642 13.1926 7.8002C13.1922 8.03621 13.1454 8.26983 13.0548 8.48775C12.9642 8.70566 12.8315 8.9036 12.6644 9.07024C12.4973 9.23689 12.299 9.36899 12.0809 9.459C11.8627 9.54901 11.6289 9.59517 11.3929 9.59484C10.2319 9.60586 9.06986 9.60085 7.90883 9.59484C7.41997 9.59484 7.2076 9.37245 7.20059 8.8816C7.19591 8.15633 7.19591 7.43172 7.20059 6.70779C7.20059 6.21793 7.42198 6.00656 7.91284 5.99855C8.51188 5.99655 9.11193 6.00055 9.71098 6.00055ZM8.41872 7.20266V8.39474C9.44451 8.39474 10.4503 8.40576 11.456 8.38873C11.5315 8.38506 11.6054 8.36633 11.6735 8.33364C11.7416 8.30095 11.8024 8.25496 11.8525 8.19839C11.9025 8.14182 11.9407 8.0758 11.9649 8.00423C11.989 7.93266 11.9985 7.85699 11.993 7.78167C11.9699 7.45309 11.7806 7.21969 11.457 7.21267C10.4513 7.19064 9.44552 7.20466 8.41772 7.20466L8.41872 7.20266Z" fill="#662E93"/>
</g>
<defs>
<clipPath id="clip0_117_170">
<rect width="36.003" height="36" fill="white"/>
</clipPath>
</defs>
</svg>
