<svg width="19" height="16" viewBox="0 0 19 16" fill="none" xmlns="http://www.w3.org/2000/svg">
<g clip-path="url(#clip0_355_369)">
<path d="M0 5.62915C0.152057 5.23913 0.436916 5.08609 0.852603 5.10485C1.33938 5.12558 1.82715 5.1088 2.31442 5.11028C2.54793 5.11028 2.68419 5.22037 2.68567 5.40353C2.68715 5.58669 2.54942 5.69974 2.31886 5.69974C1.80049 5.69974 1.28211 5.69974 0.764232 5.70369C0.709432 5.70369 0.655127 5.7501 0.600327 5.77528C0.646734 5.80638 0.689685 5.85674 0.740042 5.86612C1.3458 5.97621 1.95353 6.07791 2.55978 6.1885C2.65852 6.20676 2.69752 6.16974 2.74195 6.08976C3.04064 5.5467 3.58518 5.27961 4.18254 5.37193C4.75424 5.45981 5.19609 5.90759 5.30618 6.52124C5.32642 6.63282 5.36098 6.68712 5.4849 6.70539C5.90503 6.76809 6.32417 6.84659 6.74183 6.91916C6.75319 6.91471 6.74726 6.91916 6.74183 6.91916C6.62186 6.52421 6.50239 6.12925 6.37304 5.70073C6.09658 5.70073 5.78062 5.71554 5.47255 5.69283C5.41496 5.68512 5.35963 5.6654 5.31013 5.63496C5.26064 5.60451 5.21808 5.56402 5.18523 5.51609C5.14376 5.44599 5.1719 5.29146 5.22768 5.21988C5.28347 5.14829 5.40689 5.11867 5.50316 5.11423C5.80431 5.10139 6.10596 5.10978 6.36465 5.10978C6.53646 4.6309 6.69937 4.17868 6.86673 3.71313H6.02302C5.88775 3.71313 5.75149 3.71708 5.61622 3.70968C5.4454 3.7003 5.33432 3.58872 5.3279 3.43272C5.32515 3.39398 5.33029 3.35508 5.343 3.31837C5.35571 3.28167 5.37573 3.24793 5.40184 3.21918C5.42796 3.19043 5.45964 3.16728 5.49496 3.15111C5.53027 3.13495 5.5685 3.12612 5.60733 3.12515C5.72977 3.11429 5.85418 3.12071 5.97711 3.12071C6.42143 3.12071 6.86575 3.12071 7.31007 3.11774C7.38842 3.12168 7.46606 3.10115 7.53223 3.059C7.97427 2.69874 8.5064 2.46622 9.07106 2.38659C9.10611 2.38165 9.14067 2.37128 9.18955 2.35993V1.30047C9.18955 0.973649 9.1851 0.646826 9.19201 0.320003C9.19646 0.122527 9.33074 -0.00731349 9.50205 0.000585555C9.67336 0.0084846 9.77951 0.131907 9.78049 0.327902C9.78395 0.932672 9.78049 1.53695 9.78049 2.14172V2.35746C9.91971 2.3856 10.0505 2.40979 10.1809 2.43843C10.6215 2.54065 11.0351 2.73647 11.3934 3.01259C11.48 3.07491 11.583 3.11059 11.6896 3.11528C12.2139 3.12564 12.7382 3.12021 13.263 3.12021C13.3124 3.12021 13.3617 3.11774 13.4111 3.12021C13.5997 3.13453 13.7251 3.25696 13.7226 3.42087C13.7201 3.58477 13.5962 3.70672 13.4037 3.70918C13.0339 3.71412 12.6631 3.70918 12.2934 3.70918H12.1087L12.6187 5.10583C12.87 5.10583 13.182 5.10287 13.4945 5.10583C13.7192 5.10929 13.8549 5.26036 13.8125 5.45981C13.7759 5.6326 13.653 5.69727 13.4861 5.69727H12.6049C12.481 6.11099 12.3615 6.50841 12.2401 6.91422C12.5284 6.86485 12.8384 6.79623 13.1524 6.76216C13.4664 6.7281 13.651 6.64763 13.7399 6.27785C13.8697 5.73726 14.2963 5.4292 14.8556 5.36601C15.4451 5.29936 15.9052 5.53584 16.2054 6.04829C16.2784 6.1727 16.3441 6.20281 16.4774 6.17813C17.0471 6.07198 17.6178 5.97572 18.1885 5.8755C18.2194 5.87401 18.2497 5.86611 18.2774 5.85229C18.3096 5.82534 18.339 5.79524 18.3653 5.76244C18.3352 5.73841 18.302 5.71865 18.2665 5.70369C18.2239 5.6975 18.1806 5.6965 18.1377 5.70073C17.644 5.70073 17.1503 5.70073 16.6566 5.70073C16.4191 5.70073 16.2903 5.59459 16.2898 5.40452C16.2893 5.21445 16.4167 5.1083 16.6546 5.1083C17.1483 5.1083 17.642 5.12163 18.1357 5.10337C18.5267 5.08855 18.8037 5.22679 18.9597 5.59014V5.9609C18.8259 6.2976 18.5578 6.42794 18.2157 6.47928C17.6494 6.56469 17.0871 6.67676 16.5218 6.76908C16.4231 6.78537 16.3895 6.82338 16.3737 6.91718C16.2661 7.52985 15.844 7.9722 15.2807 8.07192C14.6665 8.18103 14.1319 7.92086 13.7996 7.36397C13.7808 7.33843 13.7563 7.31766 13.728 7.30334C13.6997 7.28901 13.6684 7.28154 13.6367 7.28153C13.0166 7.38026 12.3975 7.48723 11.7794 7.60242C11.7026 7.61927 11.6313 7.65565 11.5726 7.70807C10.3655 8.78382 8.64106 8.78975 7.42559 7.72387C7.35223 7.66079 7.26379 7.61776 7.16887 7.59897C6.56904 7.48838 5.96723 7.39014 5.3674 7.28103C5.26866 7.26277 5.21929 7.26918 5.164 7.36693C4.851 7.9248 4.29807 8.183 3.68688 8.07094C3.12308 7.96726 2.69653 7.51899 2.60076 6.90928C2.58348 6.80413 2.53855 6.78438 2.4492 6.76908C1.878 6.67281 1.31025 6.55926 0.737573 6.47286C0.379154 6.4225 0.121941 6.27094 0 5.92536V5.62915ZM11.9764 5.44451C11.9806 5.11484 11.9193 4.78763 11.7959 4.48188C11.6726 4.17613 11.4897 3.89795 11.2579 3.66349C11.0261 3.42903 10.75 3.24298 10.4457 3.11614C10.1414 2.98929 9.81491 2.92419 9.48522 2.92462C9.15553 2.92504 8.82921 2.99099 8.52522 3.11861C8.22124 3.24624 7.94564 3.43301 7.71446 3.66806C7.48328 3.90312 7.30111 4.18177 7.17855 4.48784C7.05599 4.7939 6.99548 5.12127 7.00052 5.45092C7.00052 6.80314 8.1217 7.92382 9.4749 7.92579C9.80241 7.92787 10.1271 7.86521 10.4303 7.74141C10.7335 7.61761 11.0093 7.43511 11.2417 7.20439C11.4742 6.97368 11.6588 6.6993 11.7849 6.39702C11.9109 6.09475 11.976 5.77054 11.9764 5.44302V5.44451ZM3.17788 6.71526C3.17618 6.81869 3.19507 6.92142 3.23344 7.01748C3.27182 7.11354 3.32892 7.20101 3.40141 7.27479C3.47391 7.34858 3.56036 7.4072 3.65573 7.44726C3.7511 7.48732 3.85348 7.50801 3.95693 7.50813C4.16249 7.50506 4.35877 7.42197 4.50405 7.27651C4.64933 7.13104 4.73218 6.93466 4.73498 6.72909C4.73472 6.52336 4.65316 6.32608 4.50806 6.18025C4.36296 6.03441 4.1661 5.95184 3.96038 5.95054C3.85858 5.94857 3.7574 5.96688 3.66274 6.00439C3.56807 6.04191 3.48182 6.09788 3.409 6.16905C3.33618 6.24021 3.27824 6.32516 3.23856 6.41893C3.19888 6.51271 3.17826 6.61344 3.17788 6.71526ZM15.0082 5.95054C14.9064 5.95105 14.8057 5.97174 14.7119 6.01141C14.6181 6.05109 14.5332 6.10896 14.4619 6.18169C14.3907 6.25441 14.3345 6.34054 14.2968 6.43509C14.259 6.52964 14.2404 6.63074 14.242 6.73254C14.2426 6.88704 14.2891 7.03786 14.3756 7.16585C14.4622 7.29383 14.5848 7.39319 14.728 7.45131C14.8711 7.50942 15.0283 7.52366 15.1796 7.49221C15.3308 7.46076 15.4693 7.38505 15.5775 7.27469C15.6856 7.16434 15.7585 7.02433 15.7868 6.87246C15.8152 6.72058 15.7977 6.56371 15.7367 6.42178C15.6757 6.27984 15.5738 6.15926 15.4441 6.07535C15.3144 5.99144 15.1627 5.94799 15.0082 5.95054Z" fill="#B07FD8"/>
<path d="M0 15.6263C0.148107 15.4634 0.291277 15.2956 0.444321 15.1386C2.28184 13.2681 4.11984 11.3984 5.95835 9.52927C5.98007 9.50705 6.0013 9.48484 6.02302 9.46312C6.18742 9.30168 6.36366 9.28193 6.49252 9.41079C6.62137 9.53964 6.61051 9.707 6.44315 9.88078C4.48846 11.87 2.53345 13.8593 0.578111 15.8485C0.355457 16.0751 0.193526 16.0524 0 15.7769V15.6263Z" fill="#662E93"/>
<path d="M18.9577 15.8113C18.7661 16.0527 18.6121 16.0616 18.3954 15.8395C16.4493 13.8601 14.5036 11.8807 12.5585 9.90137L12.5328 9.87471C12.3743 9.70685 12.3605 9.53159 12.4953 9.40471C12.6301 9.27783 12.7974 9.30054 12.9515 9.45408C13.2859 9.79144 13.6189 10.1301 13.9507 10.4701C15.5542 12.1032 17.1574 13.736 18.7602 15.3685C18.8293 15.4386 18.8915 15.5166 18.9577 15.5892V15.8113Z" fill="#662E93"/>
<path d="M9.77951 11.4274C9.78321 11.4825 9.78321 11.5377 9.77951 11.5928C9.77598 11.6615 9.74637 11.7262 9.69673 11.7737C9.64708 11.8212 9.58115 11.848 9.51242 11.8485C9.3574 11.8599 9.24089 11.7844 9.2162 11.6328C9.19276 11.494 9.19126 11.3524 9.21176 11.2132C9.23546 11.0512 9.35592 10.9713 9.51785 10.9846C9.67978 10.9979 9.77161 11.0967 9.78395 11.2615C9.78839 11.3163 9.78395 11.3721 9.78395 11.4274H9.77951Z" fill="#662E93"/>
<path d="M9.78592 14.2762C9.78661 14.3377 9.78332 14.3992 9.77605 14.4603C9.76921 14.5254 9.73885 14.5857 9.69067 14.63C9.64249 14.6742 9.57981 14.6994 9.51439 14.7007C9.36629 14.7131 9.24583 14.6479 9.21818 14.5062C9.19103 14.3501 9.19103 14.1904 9.21818 14.0342C9.24533 13.8822 9.37616 13.8205 9.52822 13.8368C9.59328 13.8411 9.65445 13.8693 9.7 13.9159C9.74556 13.9626 9.77229 14.0244 9.77506 14.0895C9.77877 14.1509 9.77877 14.2124 9.77506 14.2737L9.78592 14.2762Z" fill="#662E93"/>
<path d="M9.78246 12.8489C9.78246 12.8918 9.78246 12.9353 9.78246 12.9782C9.77111 13.1564 9.65756 13.2769 9.49761 13.2809C9.33765 13.2848 9.21225 13.1663 9.19547 12.992C9.18649 12.8935 9.18649 12.7944 9.19547 12.6958C9.21028 12.5191 9.3337 12.4026 9.49168 12.4036C9.65855 12.4036 9.77259 12.528 9.78197 12.7181C9.78444 12.7625 9.78296 12.8059 9.78246 12.8489Z" fill="#662E93"/>
<path d="M9.78346 10.0674C9.78346 10.296 9.66645 10.4337 9.48181 10.4278C9.29717 10.4219 9.18905 10.2797 9.19103 10.0506C9.193 9.82157 9.30754 9.68976 9.4981 9.6942C9.68867 9.69864 9.78494 9.82848 9.78346 10.0674Z" fill="#662E93"/>
<path d="M9.78345 15.6293C9.78345 15.8599 9.67139 15.9976 9.48724 15.9952C9.30309 15.9927 9.19102 15.8471 9.19102 15.6229C9.19102 15.3988 9.3105 15.2551 9.49316 15.2571C9.67583 15.2591 9.78395 15.3948 9.78345 15.6293Z" fill="#662E93"/>
<path d="M9.47885 5.47311C8.86914 5.46077 8.27819 5.36105 7.72032 5.10334C7.46262 4.98436 7.41177 4.8249 7.5579 4.58694C7.71934 4.32479 7.88818 4.06708 8.04813 3.80345C8.14687 3.64251 8.27967 3.59512 8.45691 3.64202C9.13272 3.82419 9.84472 3.82419 10.5205 3.64202C10.6978 3.59512 10.8311 3.64202 10.9288 3.80444C11.0917 4.07301 11.265 4.33516 11.4284 4.60373C11.5617 4.82194 11.5079 4.98831 11.2734 5.09742C10.7067 5.36253 10.1034 5.46472 9.47885 5.47311ZM8.21599 4.66741C9.04221 4.95107 9.93968 4.9495 10.7649 4.66297C10.7076 4.57065 10.6607 4.50499 10.6252 4.43439C10.561 4.30554 10.4879 4.25321 10.324 4.28875C9.83825 4.39539 9.34555 4.39243 8.85285 4.32874C8.43765 4.27542 8.43765 4.2774 8.21796 4.66741H8.21599Z" fill="#B07FD8"/>
</g>
<defs>
<clipPath id="clip0_355_369">
<rect width="18.9577" height="16" fill="white"/>
</clipPath>
</defs>
</svg>
