<svg width="17" height="16" viewBox="0 0 17 16" fill="none" xmlns="http://www.w3.org/2000/svg">
<g clip-path="url(#clip0_195_239)">
<path d="M8.07885 15.9999C7.80614 15.8768 7.72107 15.6635 7.72193 15.3698C7.72962 13.1851 7.7262 11 7.7262 8.81485V8.61608C6.99697 8.44082 6.44085 8.04244 6.08991 7.38117C5.82412 6.88673 5.74608 6.31285 5.8702 5.7654C6.10359 4.66342 7.14187 3.8487 8.2524 3.8923C9.42789 3.93846 10.3897 4.80491 10.5547 5.92142C10.7098 6.97124 10.1165 8.25745 8.68797 8.61437V8.79946C8.68797 10.9897 8.68455 13.1804 8.69182 15.3707C8.69182 15.6635 8.60932 15.8781 8.33532 16.0008L8.07885 15.9999ZM8.18828 7.69535C8.46958 7.69687 8.745 7.61488 8.97967 7.45977C9.21435 7.30466 9.39771 7.0834 9.50655 6.82401C9.61539 6.56461 9.64481 6.27876 9.59109 6.00263C9.53736 5.72651 9.40291 5.47254 9.20475 5.27288C9.00659 5.07322 8.75363 4.93686 8.47792 4.88105C8.20221 4.82525 7.91614 4.85251 7.65594 4.9594C7.39573 5.06628 7.17309 5.24798 7.01622 5.48147C6.85935 5.71497 6.77529 5.98977 6.77469 6.27107C6.77434 6.64707 6.92282 7.00793 7.18769 7.2748C7.45256 7.54167 7.81229 7.69286 8.18828 7.69535Z" fill="#B07FD8"/>
<path d="M16.4142 6.79822C16.3714 7.09743 16.3377 7.39922 16.2881 7.69587C16.163 8.4395 15.9366 9.16248 15.6153 9.84468C15.487 10.1191 15.2224 10.2294 14.9685 10.1148C14.7146 10.0003 14.6155 9.72798 14.7403 9.45398C15.1168 8.6437 15.3505 7.77444 15.431 6.88456C15.5675 5.2705 15.2256 3.76558 14.4051 2.3698C14.0878 1.83707 13.709 1.34341 13.2767 0.898935C13.1884 0.808031 13.1239 0.696733 13.089 0.574925C13.0377 0.374877 13.1514 0.176539 13.3322 0.0799345C13.4241 0.0279214 13.531 0.00896945 13.6352 0.0262374C13.7393 0.0435054 13.8344 0.09595 13.9046 0.174829C14.1953 0.494137 14.4928 0.811734 14.7492 1.15797C15.7089 2.45444 16.2513 3.91248 16.389 5.52056C16.395 5.56218 16.404 5.60332 16.4159 5.64367L16.4142 6.79822Z" fill="#B07FD8"/>
<path d="M0 5.67579C0.0427453 5.36546 0.077369 5.05342 0.128236 4.74437C0.24962 4.02834 0.465218 3.33153 0.769416 2.67207C0.897652 2.38782 1.16737 2.27198 1.42299 2.38525C1.67861 2.49853 1.7735 2.77937 1.64569 3.06319C1.08701 4.30281 0.860464 5.59885 0.998103 6.95088C1.17307 8.67523 1.85315 10.1735 3.03834 11.4456C3.0892 11.5003 3.14349 11.552 3.1935 11.6076C3.38586 11.8213 3.38415 12.1107 3.19094 12.2975C3.14569 12.3434 3.09134 12.3793 3.03137 12.403C2.9714 12.4267 2.90714 12.4375 2.84273 12.4349C2.77831 12.4322 2.71517 12.4161 2.65735 12.3876C2.59953 12.3591 2.54832 12.3187 2.50701 12.2693C2.14282 11.8538 1.76538 11.4391 1.45334 10.9835C0.615533 9.76181 0.150036 8.39995 0.0286393 6.92267C0.0223297 6.88088 0.0130446 6.8396 0.000854763 6.79913L0 5.67579Z" fill="#B07FD8"/>
<path d="M2.65021 6.33961C2.68056 4.62467 3.23967 3.23545 4.36002 2.07534C4.51006 1.91975 4.68659 1.85435 4.89647 1.92915C4.98378 1.95735 5.06059 2.01115 5.11693 2.08357C5.17326 2.15598 5.20651 2.24367 5.21236 2.33523C5.23331 2.52117 5.13799 2.65881 5.01402 2.78619C4.44805 3.36466 4.03649 4.07607 3.81715 4.85507C3.52178 5.88737 3.56068 6.90941 3.91547 7.9229C3.95914 8.04169 3.97479 8.16895 3.96121 8.29478C3.93257 8.49355 3.74235 8.63888 3.54316 8.65598C3.43827 8.66832 3.33235 8.64399 3.24337 8.58711C3.15439 8.53023 3.08784 8.44431 3.05501 8.34394C2.93275 7.94171 2.81777 7.53605 2.73399 7.12484C2.67244 6.83418 2.66944 6.53197 2.65021 6.33961Z" fill="#662E93"/>
<path d="M13.7546 6.23023C13.7366 7.84002 13.1745 9.22711 12.0512 10.3842C11.9033 10.5364 11.7302 10.5958 11.528 10.5351C11.3442 10.4795 11.2352 10.3436 11.2014 10.1551C11.1676 9.9666 11.2497 9.82682 11.3762 9.69731C11.9896 9.07439 12.4269 8.30005 12.6436 7.45314C12.8603 6.60623 12.8487 5.71701 12.6099 4.87606C12.597 4.8299 12.5821 4.78416 12.5714 4.73757C12.5094 4.46571 12.6492 4.20923 12.8963 4.13913C13.1583 4.06647 13.4122 4.20667 13.4973 4.4811C13.6491 4.9651 13.7353 5.46727 13.7537 5.97419C13.7572 6.05968 13.7546 6.14517 13.7546 6.23023Z" fill="#662E93"/>
<path d="M13.0728 11.8891C13.1015 11.8327 13.1378 11.7126 13.2117 11.6228C13.4049 11.3886 13.6131 11.1663 13.8174 10.9389C14.0047 10.732 14.2876 10.7042 14.4915 10.8692C14.5411 10.9082 14.5822 10.9568 14.6126 11.0121C14.6429 11.0674 14.6619 11.1282 14.6682 11.1909C14.6746 11.2536 14.6683 11.317 14.6497 11.3773C14.6311 11.4375 14.6006 11.4934 14.5599 11.5416C14.3462 11.8011 14.1205 12.0503 13.8871 12.2918C13.7405 12.4431 13.5507 12.473 13.3558 12.3828C13.1745 12.3016 13.0839 12.1529 13.0728 11.8891Z" fill="#B07FD8"/>
<path d="M2.8434 0C3.05712 0.0265021 3.20631 0.115412 3.2918 0.294942C3.33483 0.37606 3.352 0.468408 3.341 0.559572C3.32999 0.650736 3.29134 0.736346 3.23024 0.804894C3.01951 1.05239 2.80279 1.29518 2.57838 1.53156C2.49507 1.61674 2.38254 1.66712 2.26352 1.67251C2.1445 1.67791 2.02787 1.63792 1.9372 1.56063C1.74698 1.40504 1.69098 1.12506 1.84658 0.929711C2.06714 0.654431 2.30823 0.394539 2.55102 0.141487C2.6224 0.0701022 2.74466 0.0465924 2.8434 0Z" fill="#B07FD8"/>
<path d="M12.5881 2.83869C12.571 3.0413 12.4598 3.21142 12.2811 3.28409C12.0892 3.36146 11.9084 3.33197 11.7639 3.18578C11.6028 3.02334 11.4497 2.85108 11.3048 2.67283C11.2293 2.58048 11.1917 2.46286 11.1996 2.3438C11.2075 2.22474 11.2604 2.11316 11.3476 2.03165C11.5186 1.86623 11.799 1.83844 11.9738 2.00387C12.1634 2.19138 12.3403 2.3913 12.5034 2.6023C12.5534 2.66343 12.5611 2.75918 12.5881 2.83869Z" fill="#662E93"/>
<path d="M4.73275 10.5577C4.69342 10.5551 4.6543 10.5499 4.61562 10.5424C4.40532 10.4894 3.93384 9.96188 3.90135 9.74559C3.88602 9.64759 3.9017 9.54725 3.9462 9.4586C3.9907 9.36995 4.0618 9.29743 4.14954 9.25118C4.23729 9.20492 4.3373 9.18726 4.43558 9.20064C4.53387 9.21403 4.62551 9.25779 4.69769 9.32583C4.84511 9.47229 4.98507 9.62609 5.11703 9.78662C5.17718 9.85578 5.21435 9.94192 5.22339 10.0331C5.23243 10.1243 5.21288 10.2161 5.16746 10.2957C5.07984 10.4676 4.93493 10.5526 4.73275 10.5577Z" fill="#662E93"/>
</g>
<defs>
<clipPath id="clip0_195_239">
<rect width="16.4142" height="16" fill="white"/>
</clipPath>
</defs>
</svg>
