<svg width="17" height="16" viewBox="0 0 17 16" fill="none" xmlns="http://www.w3.org/2000/svg">
<g clip-path="url(#clip0_184_163)">
<path d="M6.49726e-06 7.00126C0.0659584 6.88981 0.152364 6.81258 0.292198 6.84723C0.424102 6.8802 0.459165 6.98706 0.480036 7.10644C0.538474 7.41658 0.605261 7.72589 0.691666 8.04146C0.709615 7.99095 0.729651 7.94044 0.745513 7.8891C0.83317 7.60651 0.919575 7.32308 1.00682 7.04008C1.04146 6.92654 1.10574 6.84347 1.23514 6.84097C1.37122 6.83846 1.44009 6.91861 1.47766 7.04133C1.57909 7.37526 1.68345 7.70585 1.81452 8.04313C1.84415 7.90246 1.87504 7.76179 1.90343 7.6207C1.93933 7.44247 1.97105 7.26339 2.0082 7.08516C2.04535 6.90692 2.15137 6.82051 2.29455 6.84723C2.43772 6.87394 2.50325 6.9904 2.46777 7.17532C2.35479 7.76221 2.23847 8.34854 2.11881 8.93431C2.09126 9.06956 2.00444 9.15554 1.85918 9.16181C1.71392 9.16807 1.62251 9.09251 1.58035 8.95894C1.48768 8.66675 1.39919 8.37456 1.30861 8.08028C1.29191 8.02727 1.27188 7.97509 1.23973 7.88284C1.13246 8.2247 1.0377 8.52817 0.942534 8.83163C0.930429 8.87128 0.919158 8.91136 0.906218 8.95059C0.861137 9.09084 0.768888 9.17099 0.617366 9.16139C0.47294 9.1522 0.392378 9.06622 0.364411 8.92763C0.284267 8.52524 0.205376 8.12202 0.123562 7.71963C0.0855769 7.53179 0.0400785 7.34396 -0.00166321 7.1582L6.49726e-06 7.00126Z" fill="#662E93"/>
<path d="M7.87289 16.0001C7.67921 15.9057 7.47301 15.8298 7.29477 15.7112C7.13073 15.6018 7.11904 15.4528 7.21797 15.338C7.3169 15.2232 7.44212 15.2316 7.59782 15.3618C7.77146 15.5067 7.96973 15.5843 8.18888 15.4954C8.22918 15.4763 8.26493 15.4488 8.29373 15.4148C8.32253 15.3807 8.34371 15.3409 8.35584 15.298C8.36586 15.2475 8.28071 15.1506 8.21643 15.1185C8.03109 15.0258 7.83449 14.9553 7.64248 14.8764C7.41373 14.782 7.28517 14.6117 7.27014 14.365C7.25512 14.1183 7.36281 13.9205 7.57402 13.789C7.89126 13.5911 8.42472 13.6563 8.6952 13.9226C8.78912 14.0157 8.80498 14.1213 8.72776 14.2319C8.65597 14.3346 8.53325 14.3483 8.4076 14.2882C8.29367 14.229 8.17356 14.1826 8.04946 14.1497C7.97262 14.1398 7.89463 14.1544 7.82656 14.1914C7.80297 14.2056 7.78309 14.2251 7.76858 14.2485C7.75406 14.2719 7.74532 14.2984 7.74308 14.3258C7.74863 14.3516 7.75986 14.3759 7.77596 14.3968C7.79207 14.4178 7.81263 14.4349 7.83616 14.4469C7.95679 14.5065 8.08661 14.5512 8.21184 14.6013L8.29866 14.6359C8.65096 14.78 8.84547 15.0237 8.83713 15.3092C8.82794 15.6206 8.62508 15.8519 8.25274 15.9771C8.23942 15.9841 8.22719 15.9929 8.21643 16.0034L7.87289 16.0001Z" fill="#662E93"/>
<path d="M0 15.6874C0.341447 15.3398 0.683172 14.992 1.02518 14.6438C1.14539 14.522 1.26477 14.3988 1.39 14.2819C1.43204 14.2384 1.48962 14.2132 1.55016 14.212C1.6107 14.2107 1.66927 14.2335 1.71308 14.2753C1.73578 14.2951 1.75422 14.3193 1.76729 14.3464C1.78036 14.3735 1.78779 14.403 1.78911 14.4331C1.79044 14.4632 1.78564 14.4933 1.77501 14.5215C1.76438 14.5496 1.74814 14.5754 1.72727 14.5971C1.25851 15.0675 0.784326 15.5325 0.312228 15.9996H0V15.6874Z" fill="#662E93"/>
<path d="M0 0.158514C0.159453 -0.0439332 0.275495 -0.0501948 0.459158 0.130129C0.868227 0.537945 1.27521 0.947431 1.68511 1.35399C1.76567 1.43414 1.81034 1.52096 1.77527 1.63325C1.72101 1.80564 1.51522 1.84196 1.3708 1.70087C1.11033 1.44624 0.853617 1.18786 0.597741 0.929065C0.395711 0.727035 0.19869 0.518327 0 0.314627V0.158514Z" fill="#662E93"/>
<path d="M15.6832 15.9999C15.4382 15.7607 15.1915 15.5228 14.9477 15.282C14.7292 15.0666 14.5125 14.8494 14.2974 14.6304C14.1855 14.5164 14.1801 14.3799 14.274 14.2839C14.3679 14.1879 14.5102 14.1862 14.6204 14.2952C15.0526 14.7234 15.4828 15.1539 15.9111 15.5867C16.0501 15.7278 16.023 15.8546 15.8393 15.9999H15.6832Z" fill="#662E93"/>
<path d="M5.31037 5.33549L5.76035 6.07598C5.8192 6.17366 5.88265 6.26925 5.93691 6.37026C6.00287 6.4934 5.97239 6.61696 5.86721 6.68625C5.76202 6.75554 5.6226 6.73216 5.54037 6.61111C5.46398 6.49966 5.39803 6.38111 5.32749 6.26549C5.12212 5.9278 4.91591 5.59053 4.7118 5.252C4.58657 5.04705 4.59868 4.88008 4.73851 4.73983C4.87835 4.59958 5.04573 4.58914 5.25068 4.71353C5.82463 5.06041 6.39691 5.40937 6.99256 5.77127C7.03848 5.58927 7.08189 5.42189 7.12321 5.25409C7.28712 4.58261 7.45102 3.91098 7.61493 3.23922C7.67629 2.98877 7.79567 2.87815 7.99561 2.87648C8.19556 2.87481 8.32162 2.98626 8.38214 3.23212C8.57694 4.02438 8.77173 4.81747 8.96652 5.6114C8.97821 5.65982 8.99282 5.70782 9.00827 5.7721L10.4079 4.92099C10.5331 4.84544 10.655 4.76696 10.781 4.69433C10.9639 4.58956 11.1342 4.61085 11.2657 4.74651C11.3971 4.88217 11.4122 5.04413 11.3074 5.21986C10.9735 5.77252 10.6395 6.32268 10.3035 6.87408C10.2822 6.90915 10.2639 6.94588 10.2351 6.99931C10.5419 7.07486 10.8378 7.14833 11.1338 7.22054C11.6889 7.3562 12.2441 7.49269 12.8001 7.62585C12.9612 7.66425 13.0739 7.75108 13.1156 7.91429C13.1282 7.96252 13.1308 8.01279 13.1235 8.06208C13.1162 8.11138 13.0991 8.1587 13.0731 8.20123C13.0471 8.24376 13.0128 8.28063 12.9723 8.30964C12.9318 8.33865 12.8859 8.35922 12.8372 8.37011C12.3388 8.49533 11.8379 8.61596 11.3375 8.73451C11.3062 8.74413 11.2732 8.74705 11.2408 8.74309C11.2083 8.73912 11.177 8.72836 11.149 8.71151C11.1209 8.69465 11.0968 8.67208 11.078 8.64526C11.0593 8.61844 11.0464 8.58798 11.0403 8.55585C11.014 8.43272 11.0883 8.32001 11.2348 8.28245C11.5858 8.19229 11.9385 8.10755 12.2954 7.99026C12.1648 7.95603 12.035 7.91971 11.9039 7.88757C10.9897 7.66509 10.0764 7.44052 9.16062 7.22388C8.94816 7.17379 8.83086 7.05691 8.77994 6.84612C8.53575 5.8247 8.28447 4.80537 8.03527 3.7852C8.03232 3.7701 8.02632 3.75575 8.01763 3.74305C8.00895 3.73035 7.99776 3.71955 7.98476 3.71132C7.93801 3.89832 7.89042 4.08699 7.84493 4.27232C7.63622 5.13596 7.42334 5.99959 7.21671 6.86406C7.16871 7.06442 7.04975 7.17379 6.85189 7.22137C5.83131 7.46681 4.81156 7.71727 3.79181 7.96605C3.75973 7.97213 3.73088 7.98945 3.71041 8.01488C3.75967 8.02991 3.80851 8.04702 3.85818 8.05913C4.84787 8.3004 5.83715 8.545 6.82852 8.77917C7.05517 8.8326 7.17163 8.95365 7.22506 9.17906C7.45882 10.1704 7.70384 11.1597 7.94511 12.1494C7.95612 12.2028 7.98086 12.2525 8.0169 12.2934C8.09204 11.9895 8.16884 11.6861 8.24272 11.3818C8.42347 10.6392 8.60588 9.89701 8.78119 9.1536C8.83003 8.94697 8.94482 8.83052 9.15186 8.78377C9.55258 8.6936 9.95038 8.59175 10.3498 8.497C10.5168 8.45526 10.6329 8.51578 10.6717 8.65437C10.7105 8.79295 10.6299 8.89981 10.4655 8.94656C10.3958 8.96618 10.3256 8.98413 10.2363 9.00834C10.2676 9.06469 10.2918 9.11269 10.3198 9.1586C10.6466 9.69665 10.976 10.233 11.3003 10.7723C11.4481 11.019 11.3537 11.302 11.0916 11.3567C10.9759 11.3725 10.8584 11.3489 10.7577 11.2899C10.2409 10.989 9.7329 10.673 9.22157 10.3624C9.15562 10.3207 9.08883 10.2835 9.00493 10.2335C8.91727 10.5916 8.83379 10.933 8.74989 11.2749C8.62466 11.7796 8.50403 12.2851 8.37922 12.7897C8.32245 13.0189 8.19263 13.1307 7.9952 13.1287C7.79776 13.1266 7.67712 13.016 7.62286 12.7947C7.42528 11.9919 7.22882 11.1891 7.03347 10.3862C7.02261 10.3411 7.00884 10.2969 6.99173 10.2355L6.50418 10.5311C6.08176 10.7878 5.661 11.0466 5.23691 11.3008C4.98938 11.4494 4.70512 11.3621 4.65002 11.1033C4.63254 10.9825 4.65652 10.8594 4.71806 10.754C5.02695 10.2234 5.35128 9.70208 5.66977 9.17739C5.69899 9.12897 5.72695 9.07971 5.76327 9.01794C5.7136 9.00082 5.67269 8.98329 5.63053 8.97327C4.83772 8.77848 4.04462 8.58494 3.25125 8.39265C2.98912 8.32836 2.87558 8.2094 2.87558 8.0057C2.87558 7.802 2.98745 7.68137 3.24833 7.6175C4.35407 7.34785 5.46064 7.07486 6.5668 6.81314C6.71581 6.77808 6.77926 6.70837 6.80932 6.56269C6.87401 6.25464 6.88111 6.25589 6.60729 6.08851C6.22131 5.85225 5.83493 5.61669 5.44812 5.38182C5.41055 5.35886 5.37048 5.34008 5.33166 5.31879L5.31037 5.33549ZM5.31037 10.6642L5.33458 10.6889L6.54259 9.95545C6.88069 9.75008 6.88069 9.75008 6.7826 9.36481C6.7563 9.26004 6.33889 9.08514 6.24622 9.14107C6.23 9.15397 6.21712 9.17058 6.20865 9.18949C5.90978 9.68093 5.61036 10.1725 5.31037 10.6642ZM10.6625 10.6901C10.6733 10.6717 10.6788 10.6659 10.6775 10.6638C10.3803 10.1704 10.0835 9.67704 9.78174 9.18615C9.76772 9.17109 9.75039 9.15948 9.73113 9.15224C9.71186 9.14499 9.69118 9.14232 9.67071 9.14441C9.24536 9.21078 9.24536 9.21203 9.14935 9.62945C9.14865 9.63458 9.14739 9.63962 9.1456 9.64448C9.10052 9.7313 9.1456 9.77263 9.21823 9.81562C9.58848 10.036 9.9558 10.261 10.324 10.4835C10.4372 10.5519 10.5501 10.6208 10.6625 10.6901ZM10.6859 5.33841L10.6621 5.3142L9.45407 6.04843C9.11596 6.2538 9.11596 6.2538 9.21364 6.63824C9.23993 6.74134 9.65902 6.91708 9.75043 6.86114C9.76641 6.84801 9.77925 6.83147 9.788 6.81272L10.6859 5.33841Z" fill="#B07FD8"/>
<path d="M6.70413 15.2486C6.3535 15.153 5.99452 15.0816 5.65391 14.9564C3.25042 14.0844 1.66967 12.4285 0.927082 9.97533C0.917408 9.94573 0.909326 9.91563 0.902872 9.88517C0.874487 9.7349 0.935013 9.62345 1.06191 9.59297C1.1888 9.5625 1.30109 9.61886 1.34951 9.76328C1.41922 9.97199 1.47181 10.1832 1.55237 10.3857C2.49323 12.7427 4.20283 14.1971 6.68117 14.7489C6.71665 14.7568 6.75297 14.7623 6.7872 14.7731C6.91242 14.8149 6.97921 14.905 6.95416 15.0344C6.92912 15.1638 6.84563 15.2298 6.70413 15.2486Z" fill="#B07FD8"/>
<path d="M6.67866 1.05239C6.66697 1.21936 6.55678 1.26903 6.42362 1.3137C5.96154 1.46814 5.48235 1.59044 5.04614 1.80166C3.22412 2.68449 2.01486 4.10788 1.40877 6.04136C1.39792 6.076 1.38957 6.11148 1.37663 6.14571C1.32404 6.28388 1.20967 6.34649 1.08444 6.30976C1.05404 6.30159 1.02573 6.28706 1.00136 6.26713C0.976992 6.24721 0.95713 6.22234 0.943085 6.19417C0.92904 6.166 0.921132 6.13518 0.919883 6.10372C0.918635 6.07227 0.924074 6.04092 0.935842 6.01172C1.06858 5.62937 1.18295 5.23658 1.35994 4.87468C2.38511 2.78008 4.02987 1.44129 6.29422 0.858294C6.49333 0.806952 6.60019 0.842433 6.6557 0.971415C6.66511 0.99788 6.67278 1.02493 6.67866 1.05239Z" fill="#B07FD8"/>
<path d="M9.63481 0.826172C9.95622 0.928022 10.286 1.01025 10.5982 1.13548C12.8331 2.03209 14.3131 3.62968 15.0383 5.92826C15.0641 6.01174 15.0754 6.12319 15.0383 6.19457C15.0148 6.22905 14.9834 6.2573 14.9466 6.27686C14.9098 6.29643 14.8687 6.30672 14.8271 6.30685C14.7842 6.29681 14.7441 6.27767 14.7093 6.25073C14.6745 6.2238 14.6459 6.18969 14.6254 6.15074C14.5466 5.97668 14.5073 5.78508 14.4368 5.6081C13.5613 3.39551 11.9771 1.97212 9.68406 1.33793C9.62843 1.32521 9.57364 1.30904 9.52002 1.2895C9.49238 1.28084 9.46676 1.26669 9.4447 1.24792C9.42264 1.22914 9.40459 1.20611 9.39162 1.18021C9.37864 1.15431 9.37102 1.12606 9.3692 1.09714C9.36738 1.06823 9.3714 1.03925 9.38102 1.01192C9.41233 0.894211 9.50291 0.836607 9.63481 0.826172Z" fill="#B07FD8"/>
<path d="M9.62396 15.1601C9.48371 15.1559 9.39813 15.0945 9.37559 14.9718C9.34971 14.8328 9.41734 14.7397 9.55133 14.6997C9.74042 14.6429 9.9341 14.6016 10.1203 14.5369C12.369 13.7557 13.8578 12.2316 14.5866 9.96448C14.5916 9.94987 14.5937 9.93401 14.5983 9.9194C14.6568 9.73073 14.7653 9.65225 14.9093 9.69191C15.0533 9.73156 15.1055 9.86263 15.0504 10.0492C14.8773 10.655 14.6237 11.2348 14.2965 11.7731C13.2277 13.5088 11.7059 14.6295 9.73123 15.1354C9.69116 15.1459 9.65067 15.1538 9.62396 15.1601Z" fill="#B07FD8"/>
<path d="M8.40093 1.34955C8.40093 0.959683 8.39341 0.611975 8.40635 0.264267C8.41091 0.220125 8.42436 0.177363 8.44588 0.138554C8.4674 0.0997444 8.49655 0.0656915 8.53158 0.0384445C8.58292 0.00296404 8.70146 0.0125646 8.75782 0.0501321C8.78923 0.0755781 8.81502 0.107265 8.83356 0.14319C8.85209 0.179114 8.86297 0.218495 8.86551 0.25884C8.87762 0.85199 8.87845 1.44514 8.88095 2.03829C8.88095 2.1656 8.82377 2.25952 8.69854 2.29917C8.57332 2.33883 8.47481 2.28289 8.40343 2.18104C8.14213 1.80537 7.88249 1.42969 7.59865 1.01937C7.59155 1.09367 7.58446 1.13458 7.58446 1.17507C7.58446 1.46726 7.59448 1.75945 7.57736 2.04914C7.57315 2.09838 7.55895 2.14624 7.53563 2.1898C7.51231 2.23336 7.48035 2.27172 7.4417 2.30251C7.28934 2.40144 7.11779 2.27079 7.11653 2.065C7.11361 1.46684 7.11653 0.868269 7.11653 0.270111C7.11653 0.144886 7.16412 0.0563935 7.2835 0.0196608C7.40288 -0.0170718 7.49221 0.0409491 7.56108 0.139042L8.28822 1.19177C8.31535 1.23184 8.34583 1.27316 8.40093 1.34955Z" fill="#662E93"/>
<path d="M15.2219 7.31406V7.77113C15.3889 7.77113 15.5504 7.76696 15.7137 7.77113C15.7658 7.77275 15.8158 7.79209 15.8554 7.82596C15.895 7.85983 15.9219 7.9062 15.9317 7.95742C15.9414 8.00864 15.9334 8.06165 15.9089 8.10769C15.8845 8.15373 15.845 8.19006 15.7971 8.21067C15.7377 8.22945 15.6754 8.23779 15.6131 8.2353C15.4878 8.23864 15.3647 8.2353 15.2295 8.2353V8.68653C15.3851 8.68653 15.5438 8.68653 15.7028 8.68653C15.8856 8.68653 15.995 8.77293 15.995 8.9161C15.995 9.05928 15.8869 9.15362 15.6953 9.15445C15.4766 9.15445 15.2583 9.15445 15.0399 9.15445C14.8375 9.15445 14.7503 9.07097 14.7498 8.87353C14.7476 8.29081 14.7476 7.70824 14.7498 7.1258C14.7498 6.92711 14.8367 6.84446 15.0379 6.84321C15.2666 6.84321 15.497 6.84113 15.7245 6.84321C15.8915 6.8453 15.9967 6.94005 15.995 7.07947C15.9933 7.21889 15.8881 7.30863 15.7191 7.31072C15.5584 7.31573 15.3977 7.31406 15.2219 7.31406Z" fill="#662E93"/>
<path d="M16.0288 0.226138C15.9737 0.312126 15.9453 0.380583 15.8969 0.429838C15.4761 0.855046 15.0533 1.27817 14.6284 1.6992C14.5148 1.8119 14.3779 1.81817 14.2819 1.72592C14.1859 1.63367 14.1834 1.48632 14.3003 1.36861C14.7256 0.940338 15.1493 0.510817 15.5843 0.0925651C15.6208 0.0639986 15.6632 0.0437476 15.7084 0.0332226C15.7536 0.0226976 15.8005 0.0221514 15.846 0.031622C15.9161 0.0504058 15.9641 0.152673 16.0288 0.226138Z" fill="#662E93"/>
</g>
<defs>
<clipPath id="clip0_184_163">
<rect width="16.0288" height="16" fill="white"/>
</clipPath>
</defs>
</svg>
