<svg width="16" height="16" viewBox="0 0 16 16" fill="none" xmlns="http://www.w3.org/2000/svg">
<g clip-path="url(#clip0_241_153)">
<path d="M0 15.0312C0.0330559 14.9509 0.0704728 14.8724 0.112083 14.7962C0.264167 14.5462 0.487084 14.4091 0.780834 14.4041C1.07458 14.3991 1.37458 14.4041 1.67125 14.4041H1.84417C0.819583 13.465 0.49 12.3645 1.0775 11.1125C1.59042 10.0179 2.53333 9.56537 3.73458 9.60454C3.80583 9.23954 4.00875 8.98454 4.39125 8.91079C4.77375 8.83704 5.04833 9.03954 5.28833 9.32745C5.74167 8.87204 6.18083 8.42912 6.62167 7.98787C9.1625 5.4462 11.7029 2.90454 14.2429 0.362871C14.4 0.205371 14.5654 0.0712044 14.7812 0.00537109H15.125C15.2242 0.0587044 15.3333 0.100788 15.4212 0.167454C15.8 0.450788 15.855 1.02329 15.4425 1.43412C12.4758 4.38523 9.51361 7.34259 6.55583 10.3062C6.50251 10.3484 6.44515 10.3853 6.38458 10.4162C6.68958 10.6895 6.90125 10.9516 6.8275 11.3329C6.75375 11.7141 6.50333 11.9233 6.13667 11.9966C6.125 12.267 6.11333 12.5283 6.10125 12.8066C6.58667 12.7704 7.035 12.8483 7.41375 13.1641C7.7925 13.48 7.98 13.8979 8.00542 14.392H9.8C9.80297 14.3784 9.80423 14.3644 9.80375 14.3504C9.58153 13.1701 9.36042 11.9895 9.14042 10.8087C9.11917 10.692 9.08 10.6212 8.965 10.5666C8.81927 10.4943 8.69983 10.3782 8.62339 10.2346C8.54695 10.091 8.51736 9.92706 8.53875 9.76579C8.55976 9.60188 8.6312 9.44856 8.74317 9.32704C8.85514 9.20551 9.00211 9.12179 9.16375 9.08745C9.21833 9.07495 9.27333 9.0637 9.32833 9.05204C9.37333 8.55204 9.62 8.21204 10.0913 8.04162C10.1377 8.01512 10.1725 7.97214 10.1888 7.9212C10.3713 7.43412 10.8108 7.1562 11.3279 7.21287C11.3651 7.21962 11.4035 7.21573 11.4385 7.20165C11.4736 7.18757 11.504 7.16388 11.5263 7.13329C11.8179 6.79995 12.1929 6.63579 12.6362 6.67495C13.305 6.73495 13.7742 7.19662 13.8558 7.86787C13.8704 7.98537 13.9137 8.03454 14.0167 8.09412C14.1796 8.18704 14.35 8.30245 14.4567 8.44995C14.5775 8.6212 14.63 8.84037 14.7221 9.0637L14.7408 9.06704C15.1483 9.14079 15.4025 9.38579 15.4604 9.7612C15.5125 10.1012 15.3283 10.4112 14.9708 10.6041C14.9223 10.6366 14.8885 10.6869 14.8767 10.7441C14.71 11.6122 14.5454 12.4808 14.3829 13.35C14.3179 13.6954 14.2554 14.0416 14.1892 14.4025C14.5442 14.4025 14.8825 14.397 15.22 14.4025C15.54 14.4091 15.7717 14.5662 15.9183 14.8491C15.9483 14.9075 15.9733 14.9691 16.0017 15.0291V15.3416C15.9044 15.6819 15.6857 15.9007 15.3454 15.9979H0.65625C0.31625 15.9004 0.09625 15.6829 0 15.3416V15.0312ZM7.45833 14.4025C7.47542 13.857 7.03042 13.3683 6.49667 13.3433C6.14333 13.327 5.78833 13.3375 5.435 13.3358C5.31 13.3358 5.185 13.3416 5.06 13.3316C4.89708 13.3187 4.79875 13.2041 4.80542 13.0529C4.81167 12.9083 4.91125 12.8125 5.07167 12.8029C5.18601 12.796 5.30066 12.796 5.415 12.8029C5.50833 12.8091 5.55625 12.7712 5.55792 12.6841C5.56333 12.4258 5.56667 12.167 5.56208 11.9083C5.55418 11.8585 5.52947 11.8129 5.49208 11.7791C4.98181 11.2672 4.47056 10.7563 3.95833 10.2466C3.91455 10.2044 3.85963 10.1754 3.8 10.1633C2.3225 9.90662 1.03625 11.2958 1.39333 12.7595C1.50435 13.2297 1.77178 13.6483 2.15179 13.9466C2.53181 14.245 3.00188 14.4054 3.485 14.4016C4.76542 14.4062 6.04583 14.4016 7.32583 14.4016L7.45833 14.4025ZM9.65542 10.6712C9.89042 11.9212 10.1221 13.1554 10.355 14.3929H13.6467L14.3454 10.6712H9.65542ZM8 14.935H0.969166C0.917083 14.935 0.865 14.935 0.812916 14.935C0.650416 14.942 0.538333 15.0458 0.53375 15.1916C0.529167 15.3375 0.645834 15.4562 0.813334 15.4662C0.849584 15.4662 0.88625 15.4662 0.9225 15.4662H15.0775C15.3375 15.4662 15.4717 15.3708 15.4658 15.1908C15.46 15.0108 15.3358 14.9337 15.0771 14.9337L8 14.935ZM6.065 10.0725C6.0946 10.0299 6.12674 9.9891 6.16125 9.95037C9.12042 6.99009 12.0797 4.03037 15.0392 1.0712C15.0613 1.04912 15.0842 1.02954 15.1054 1.00495C15.2225 0.879954 15.2304 0.722038 15.1275 0.614121C15.0171 0.498288 14.8617 0.504537 14.7275 0.629954C14.7046 0.651621 14.6829 0.674121 14.6608 0.696205L5.79167 9.5637C5.75208 9.60537 5.71458 9.64704 5.67333 9.6887L6.065 10.0725ZM14.12 9.05704C14.1221 8.77037 13.9146 8.55454 13.6246 8.53329C13.3538 8.51329 13.2796 8.4212 13.3162 8.14954C13.3729 7.72704 13.1692 7.3762 12.7929 7.24745C12.4167 7.1187 12.0354 7.2712 11.8221 7.63704C11.7167 7.8187 11.6179 7.85412 11.4208 7.78162C11.0546 7.64662 10.7283 7.8362 10.6708 8.21829C10.6325 8.46829 10.5954 8.50412 10.3508 8.53495C10.065 8.57079 9.86042 8.80287 9.8925 9.05704H14.12ZM12.0025 10.1308H12.4708C13.1937 10.1308 13.9171 10.1308 14.6404 10.1308C14.8154 10.1308 14.9321 10.0237 14.9321 9.87329C14.9321 9.72287 14.8187 9.61079 14.6504 9.59954C14.6192 9.59746 14.5879 9.59954 14.5567 9.59954C12.85 9.59954 11.1432 9.59954 9.43625 9.59954C9.37 9.59954 9.28625 9.59162 9.24042 9.62704C9.16875 9.68245 9.0875 9.7662 9.07667 9.84704C9.06667 9.92079 9.12792 10.025 9.18958 10.0808C9.23792 10.125 9.33417 10.1291 9.40917 10.1295C10.2746 10.1316 11.1383 10.1308 12.0021 10.1308H12.0025ZM6.30667 11.1441C6.26446 11.0735 6.21593 11.0068 6.16167 10.945C5.70833 10.4854 5.25 10.0304 4.79167 9.5737C4.76001 9.53921 4.72513 9.50782 4.6875 9.47995C4.64118 9.44507 4.58433 9.42704 4.52637 9.42886C4.4684 9.43068 4.4128 9.45223 4.36875 9.48995C4.32408 9.52308 4.29191 9.57032 4.27747 9.62402C4.26302 9.67772 4.26714 9.73472 4.28917 9.78579C4.31495 9.84245 4.35227 9.89312 4.39875 9.93454C4.86486 10.4034 5.33236 10.8712 5.80125 11.3379C5.83644 11.376 5.87718 11.4086 5.92208 11.4345C6.09917 11.527 6.31333 11.3908 6.30667 11.1441Z" fill="#B07FD8"/>
<path d="M7.28124 -4.25975e-05C7.42166 0.0807907 7.46249 0.203708 7.47249 0.362874C7.51124 0.983291 7.67458 1.56371 8.09374 2.04287C8.43749 2.43579 8.88541 2.62037 9.4 2.65704C9.4775 2.66287 9.55666 2.65912 9.63333 2.67162C9.69864 2.67976 9.7586 2.71183 9.80163 2.76163C9.84465 2.81142 9.86768 2.87541 9.86625 2.94121C9.86166 3.07579 9.76333 3.17704 9.61625 3.19496C9.42041 3.21912 9.21958 3.22246 9.02916 3.26787C8.32875 3.43454 7.88958 3.89871 7.66624 4.55954C7.55958 4.87537 7.52041 5.21621 7.47041 5.54871C7.44083 5.74371 7.35791 5.86829 7.20041 5.87121C7.04291 5.87412 6.94333 5.75621 6.93041 5.55537C6.89999 5.08329 6.80166 4.62829 6.57166 4.20996C6.23833 3.60246 5.72124 3.27204 5.02999 3.21412C4.94666 3.20746 4.86333 3.20454 4.77999 3.19537C4.62874 3.17871 4.53499 3.08371 4.52999 2.94537C4.52542 2.87676 4.54825 2.80914 4.59348 2.75735C4.63871 2.70556 4.70264 2.67383 4.77124 2.66912C4.89624 2.65287 5.02124 2.65912 5.14624 2.64162C5.96999 2.52371 6.48791 2.03496 6.7425 1.26662C6.84291 0.964124 6.88375 0.639541 6.92625 0.321624C6.94666 0.172041 6.99083 0.0641243 7.12583 -0.00170898L7.28124 -4.25975e-05ZM6.01541 2.93246C6.553 3.22541 6.97129 3.69705 7.19791 4.26579C7.42363 3.69728 7.84106 3.22561 8.37791 2.93246C7.84068 2.63954 7.42291 2.16782 7.19708 1.59912C6.97198 2.16854 6.55365 2.64056 6.01541 2.93246Z" fill="#662E93"/>
<path d="M0 6.03115C0.0858333 5.91615 0.197083 5.87198 0.343333 5.8624C0.968333 5.82073 1.36333 5.45657 1.52625 4.78448C1.56028 4.62712 1.58325 4.46756 1.595 4.30698C1.61292 4.11865 1.7075 4.00365 1.86125 4.00032C2.015 3.99698 2.1025 4.10657 2.135 4.29657C2.18083 4.56157 2.21833 4.83323 2.31417 5.0824C2.50083 5.57698 2.8775 5.8399 3.41083 5.86698C3.43167 5.86698 3.4525 5.86698 3.47333 5.87032C3.63042 5.88615 3.7275 5.98573 3.72875 6.13115C3.73 6.27657 3.63417 6.37823 3.47875 6.40032C3.34042 6.41948 3.19625 6.42115 3.06417 6.46157C2.53167 6.6249 2.31083 7.04907 2.19208 7.54698C2.16327 7.68442 2.14365 7.82361 2.13333 7.96365C2.11375 8.15782 2.02208 8.26615 1.86708 8.26615C1.71208 8.26615 1.60667 8.15032 1.59667 7.94907C1.58539 7.64649 1.50982 7.34977 1.375 7.07865C1.15792 6.65198 0.813333 6.41782 0.333333 6.40615C0.26598 6.40813 0.19936 6.39172 0.140631 6.35869C0.0819017 6.32565 0.0332836 6.27724 0 6.21865V6.03115ZM2.435 6.1324L1.86667 5.48073L1.29875 6.13115L1.86542 6.78782L2.435 6.1324Z" fill="#662E93"/>
<path d="M3.73418 0.801738C3.72959 0.958404 3.23834 1.4709 3.08334 1.4584C3.03873 1.45474 2.99532 1.44203 2.95578 1.42104C2.91623 1.40005 2.88138 1.37122 2.85334 1.33632C2.81168 1.2709 2.79918 1.13049 2.84168 1.07965C2.99334 0.88958 3.16611 0.717362 3.35668 0.56632C3.51293 0.44882 3.74001 0.603821 3.73418 0.801738Z" fill="#662E93"/>
<path d="M3.74125 2.43249C3.69958 2.48665 3.65417 2.59082 3.57958 2.62249C3.505 2.65415 3.37125 2.64915 3.30917 2.6004C3.14421 2.46552 2.99204 2.31572 2.85458 2.1529C2.76833 2.05374 2.77583 1.92874 2.86542 1.82457C2.955 1.7204 3.07875 1.68499 3.1725 1.7629C3.3625 1.92124 3.52917 2.10749 3.70167 2.28624C3.72333 2.30874 3.72125 2.35457 3.74125 2.43249Z" fill="#662E93"/>
<path d="M2.56086 1.98334C2.51253 2.07334 2.48919 2.14459 2.44336 2.19542C2.32461 2.32584 2.19794 2.44917 2.07044 2.57042C1.94294 2.69167 1.78877 2.69334 1.68169 2.58792C1.57461 2.4825 1.57044 2.32792 1.69086 2.20042C1.81127 2.07292 1.93586 1.9275 2.08044 1.82167C2.12398 1.79434 2.1726 1.77611 2.22337 1.76809C2.27415 1.76007 2.32602 1.76242 2.37586 1.775C2.45003 1.7975 2.50003 1.90792 2.56086 1.98334Z" fill="#662E93"/>
<path d="M2.54752 1.22966C2.49877 1.29091 2.45627 1.39257 2.3846 1.42174C2.31294 1.45091 2.17627 1.45174 2.11377 1.40382C1.94917 1.26825 1.79691 1.11836 1.65877 0.955908C1.56919 0.854242 1.58294 0.729658 1.67335 0.628408C1.76377 0.527158 1.89335 0.490075 1.99585 0.575909C2.17052 0.730919 2.33634 0.895623 2.49252 1.06924C2.52127 1.09966 2.52335 1.15507 2.54752 1.22966Z" fill="#662E93"/>
<path d="M13.6196 4.26989C13.8301 4.27438 14.0304 4.36183 14.1768 4.51321C14.3232 4.66459 14.4038 4.86766 14.4013 5.07823C14.3962 5.29142 14.3072 5.49399 14.1536 5.64187C13.9999 5.78974 13.7941 5.87095 13.5808 5.86781C13.4755 5.8649 13.3717 5.84119 13.2756 5.79802C13.1794 5.75486 13.0928 5.6931 13.0206 5.6163C12.9484 5.53951 12.8921 5.44919 12.855 5.35055C12.8178 5.25191 12.8006 5.1469 12.8042 5.04156C12.8068 4.93726 12.8299 4.83451 12.8724 4.7392C12.9148 4.64389 12.9757 4.5579 13.0514 4.48619C13.1272 4.41448 13.2164 4.35845 13.3139 4.32133C13.4114 4.28421 13.5153 4.26673 13.6196 4.26989ZM13.8667 5.07323C13.8672 5.03822 13.8607 5.00346 13.8477 4.97095C13.8347 4.93845 13.8154 4.90885 13.7908 4.88386C13.7663 4.85887 13.7371 4.83899 13.7048 4.82536C13.6726 4.81174 13.6379 4.80464 13.6029 4.80448C13.5692 4.8032 13.5356 4.80861 13.504 4.82041C13.4724 4.83221 13.4435 4.85016 13.4189 4.87322C13.3943 4.89627 13.3745 4.92398 13.3607 4.95474C13.3468 4.98549 13.3393 5.01869 13.3383 5.05239C13.3363 5.08722 13.3411 5.12211 13.3525 5.15507C13.364 5.18802 13.3819 5.21838 13.4051 5.2444C13.4283 5.27043 13.4565 5.2916 13.4879 5.3067C13.5194 5.3218 13.5535 5.33053 13.5883 5.33239C13.6593 5.33379 13.728 5.30752 13.78 5.25915C13.8319 5.21079 13.863 5.14411 13.8667 5.07323Z" fill="#662E93"/>
<path d="M15.7304 6.66664C15.7308 6.8774 15.6477 7.07973 15.4994 7.22946C15.3511 7.37919 15.1495 7.46416 14.9388 7.46581C14.727 7.46581 14.524 7.3817 14.3743 7.23198C14.2246 7.08227 14.1404 6.87921 14.1404 6.66747C14.1404 6.45574 14.2246 6.25268 14.3743 6.10297C14.524 5.95325 14.727 5.86914 14.9388 5.86914C15.0432 5.86914 15.1467 5.88981 15.2431 5.92996C15.3395 5.97011 15.4271 6.02894 15.5006 6.10307C15.5742 6.17721 15.6324 6.26517 15.6719 6.36189C15.7113 6.45862 15.7312 6.56219 15.7304 6.66664ZM15.195 6.66122C15.1953 6.62617 15.1884 6.59143 15.1748 6.55914C15.1611 6.52686 15.141 6.4977 15.1157 6.47346C15.0904 6.44923 15.0603 6.43043 15.0275 6.41822C14.9946 6.40602 14.9596 6.40066 14.9246 6.40247C14.8567 6.40469 14.7921 6.43281 14.7443 6.48108C14.6964 6.52934 14.6688 6.59409 14.6671 6.66206C14.6677 6.73283 14.6959 6.80057 14.7456 6.85096C14.7953 6.90135 14.8626 6.93044 14.9334 6.93206C14.9683 6.93179 15.0029 6.92458 15.035 6.91084C15.0672 6.89709 15.0962 6.8771 15.1206 6.85202C15.1449 6.82693 15.1641 6.79726 15.1768 6.76472C15.1896 6.73218 15.1958 6.69742 15.195 6.66247V6.66122Z" fill="#662E93"/>
<path d="M12.6596 11.7304C12.5296 11.7304 12.3992 11.7362 12.2692 11.7304C12.1046 11.7216 11.9996 11.6125 12.0012 11.4646C12.0009 11.4304 12.0073 11.3966 12.0201 11.3649C12.0329 11.3333 12.0519 11.3045 12.0759 11.2803C12.1 11.2561 12.1286 11.2368 12.1601 11.2238C12.1916 11.2107 12.2254 11.204 12.2596 11.2041C12.5301 11.195 12.8007 11.195 13.0712 11.2041C13.1067 11.2038 13.142 11.2108 13.1747 11.2246C13.2074 11.2384 13.2369 11.2588 13.2614 11.2845C13.2859 11.3102 13.3048 11.3407 13.3171 11.374C13.3293 11.4074 13.3345 11.4429 13.3325 11.4783C13.3262 11.6183 13.2221 11.7225 13.0654 11.7304C12.9304 11.7358 12.795 11.7304 12.6596 11.7304Z" fill="#B07FD8"/>
<path d="M10.9312 11.7267C10.8326 11.731 10.7339 11.7303 10.6354 11.7246C10.5721 11.7208 10.5127 11.6926 10.4696 11.646C10.4265 11.5995 10.4031 11.5381 10.4041 11.4746C10.4 11.3404 10.4804 11.2209 10.6171 11.2109C10.8241 11.1952 11.032 11.1944 11.2391 11.2084C11.2719 11.2109 11.3038 11.2199 11.3329 11.2349C11.3621 11.25 11.388 11.2707 11.409 11.2959C11.43 11.3211 11.4458 11.3503 11.4553 11.3817C11.4649 11.4131 11.468 11.4461 11.4646 11.4788C11.4504 11.6192 11.3725 11.7113 11.2275 11.7246C11.1296 11.7334 11.03 11.7246 10.9312 11.7246V11.7267Z" fill="#B07FD8"/>
</g>
<defs>
<clipPath id="clip0_241_153">
<rect width="16" height="16" fill="white"/>
</clipPath>
</defs>
</svg>
