<svg width="40" height="36" viewBox="0 0 40 36" fill="none" xmlns="http://www.w3.org/2000/svg">
<g clip-path="url(#clip0_384_61)">
<path d="M0 34.3979C0.139342 34.3979 0.278683 34.4132 0.418025 34.4132H38.6383C38.7777 34.4132 38.917 34.403 39.0564 34.3979V35.9999C38.8662 35.9999 38.675 35.9938 38.4848 35.9938H0.571606C0.38141 35.9938 0.190196 35.9938 0 35.9999V34.3979Z" fill="#662E93"/>
<path d="M39.0564 26.2359C38.0911 26.2359 37.1239 26.2217 36.1607 26.2359C35.88 26.241 35.7386 26.1555 35.6186 25.8941C34.2313 22.8886 32.8246 19.8933 31.4394 16.8858C31.2898 16.5603 31.1108 16.4382 30.7538 16.4555C30.1202 16.485 29.4835 16.4555 28.8488 16.4687C28.5793 16.4759 28.4908 16.3813 28.501 16.1189C28.5162 15.7273 28.501 15.3347 28.501 14.9126H32.2449C32.7697 16.0365 33.3078 17.1838 33.8417 18.3321C34.7632 20.3093 35.6877 22.2855 36.598 24.2678C36.7232 24.5414 36.8615 24.6747 37.1869 24.6574C37.8074 24.6218 38.4298 24.638 39.0523 24.6319L39.0564 26.2359Z" fill="#B07FD8"/>
<path d="M-6.03963e-07 24.6321C0.686537 24.6321 1.37307 24.6586 2.05758 24.6321C2.18166 24.627 2.34847 24.4602 2.41051 24.327C3.54864 21.9185 4.67252 19.5019 5.79743 17.0823C6.10256 16.4272 6.40768 15.7682 6.72196 15.1193C6.7718 15.0176 6.90708 14.8914 7.0037 14.8894C8.15912 14.8741 9.31454 14.8792 10.5086 14.8792V16.4598C9.98175 16.4598 9.44472 16.5188 8.926 16.4466C8.09504 16.3306 7.69634 16.6449 7.35358 17.423C6.09747 20.2708 4.74168 23.0658 3.43675 25.8882C3.31674 26.1486 3.1774 26.2371 2.89465 26.232C1.92942 26.2157 0.962169 26.232 -0.00305176 26.232L-6.03963e-07 24.6321Z" fill="#B07FD8"/>
<path d="M26.838 11.5806V19.7174H12.2377V11.5999H8.97687V10.8514C8.97687 10.2787 8.96466 9.70612 8.985 9.13553C8.98781 8.97676 9.04984 8.82476 9.15893 8.70936C12.5977 5.80963 16.0457 2.91804 19.5241 0C19.6258 0.0834016 19.7347 0.165786 19.8374 0.252239C23.1673 3.04653 26.4949 5.84388 29.8202 8.64427C29.9628 8.77482 30.0514 8.95409 30.0683 9.14672C30.0968 9.83224 30.0683 10.5198 30.0856 11.2053C30.0937 11.5104 29.9839 11.5938 29.69 11.5867C28.8895 11.5694 28.088 11.5806 27.2876 11.5806H26.838ZM28.5803 9.99802C28.4633 9.75697 28.4247 9.54847 28.2996 9.44371C25.466 7.04879 22.6273 4.65964 19.7835 2.27625C19.5933 2.11657 19.4702 2.1064 19.2749 2.27625C16.4386 4.66778 13.5972 7.05354 10.7507 9.43353C10.5564 9.59627 10.4964 9.76206 10.6276 10.0214H13.802V10.5106C13.802 12.913 13.8091 15.3154 13.7938 17.7167C13.7938 18.0717 13.8955 18.1643 14.2444 18.1622C17.7649 18.1514 21.285 18.1514 24.8049 18.1622C25.1873 18.1622 25.2636 18.0371 25.2615 17.6842C25.2473 15.2818 25.2544 12.8794 25.2544 10.4771V9.99904L28.5803 9.99802Z" fill="#B07FD8"/>
<path d="M29.0482 24.6185C28.681 23.3248 28.323 22.0595 27.9497 20.7444L29.4662 20.3111L31.1464 26.2001H7.91908C8.47848 24.2391 9.03178 22.2975 9.5983 20.3091L11.1148 20.7363L10.0173 24.6185H29.0482Z" fill="#B07FD8"/>
<path d="M4.09684 29.5483H6.45243V31.1075C5.72114 31.1075 5.00205 31.1136 4.28399 31.0974C4.21991 31.0974 4.10803 30.958 4.10498 30.8797C4.08769 30.4505 4.09684 30.0203 4.09684 29.5483Z" fill="#662E93"/>
<path d="M11.3386 29.5576V31.0761H9.01247V29.5576H11.3386Z" fill="#662E93"/>
<path d="M16.2196 29.5576V31.0894H13.8945V29.5576H16.2196Z" fill="#662E93"/>
<path d="M25.9725 31.0915H23.6566V29.5557H25.9725V31.0915Z" fill="#662E93"/>
<path d="M21.1067 29.5537V31.1068C20.3693 31.1068 19.639 31.1068 18.9098 31.0997C18.872 31.0879 18.8379 31.0665 18.8108 31.0376C18.7838 31.0087 18.7646 30.9734 18.7552 30.9349C18.742 30.4823 18.7481 30.0287 18.7481 29.5537H21.1067Z" fill="#662E93"/>
<path d="M28.5111 29.5518H30.8596V31.1089C30.1385 31.1089 29.4204 31.1089 28.7024 31.1008C28.6596 31.0897 28.6204 31.0679 28.5883 31.0375C28.5563 31.0071 28.5325 30.969 28.5193 30.9269C28.503 30.4753 28.5111 30.0227 28.5111 29.5518Z" fill="#662E93"/>
<path d="M35.7528 29.5537V31.1068C35.0154 31.1068 34.2852 31.1068 33.5559 31.0997C33.5181 31.0879 33.4841 31.0665 33.457 31.0376C33.4299 31.0087 33.4107 30.9734 33.4013 30.9349C33.3881 30.4823 33.3942 30.0287 33.3942 29.5537H35.7528Z" fill="#662E93"/>
</g>
<defs>
<clipPath id="clip0_384_61">
<rect width="39.0564" height="36" fill="white"/>
</clipPath>
</defs>
</svg>
