<svg width="36" height="30" viewBox="0 0 36 30" fill="none" xmlns="http://www.w3.org/2000/svg">
<g clip-path="url(#clip0_122_208)">
<path d="M34.171 27.5502C33.4959 29.238 32.5323 29.9852 31.098 29.9471C29.7608 29.9121 28.7481 29.0727 28.2393 27.5502H22.4127C21.8789 27.5502 21.5944 27.3338 21.6014 26.9392C21.6084 26.5445 21.8829 26.3512 22.3957 26.3502H26.3782V15.5465H18.9411C18.8409 15.5465 18.7407 15.5465 18.6406 15.5465C18.2559 15.5275 18.0055 15.2901 18.0045 14.9455C18.0035 14.601 18.2539 14.3546 18.6376 14.3445C19.2105 14.3345 19.7834 14.3445 20.3794 14.3445C20.3874 14.2103 20.4004 14.1021 20.4004 13.994C20.4004 11.9687 20.4004 9.94333 20.4075 7.91902C20.4075 7.66961 20.3363 7.5464 20.107 7.43923C17.4867 6.20821 14.8734 4.96317 12.2521 3.73315C12.088 3.66812 11.905 3.66992 11.7423 3.73816C8.92464 5.06333 6.12005 6.40053 3.31545 7.71768C3.07205 7.83187 2.99993 7.96409 2.99993 8.2185C3.00861 11.9439 3.01062 15.669 3.00594 19.3938C3.00594 19.506 3.00594 19.6192 3.00594 19.7314C2.9809 20.089 2.74151 20.3324 2.41598 20.3324C2.09044 20.3324 1.84003 20.097 1.81499 19.7424C1.80698 19.6302 1.81499 19.517 1.81499 19.4048V8.45489C1.49747 8.60013 1.23203 8.72734 0.962593 8.84553C0.429719 9.07892 0.0250561 8.83151 0.0180447 8.25757C0.00902988 7.50834 0.0180447 6.75511 0.0180447 6.00788C0.00959902 5.87593 0.0427476 5.74465 0.112824 5.63253C0.182901 5.52041 0.286377 5.43309 0.408685 5.38286C2.26974 4.50141 4.13045 3.61997 5.99083 2.73853C6.37246 2.55923 6.69198 2.6604 6.85425 2.98293C7.01651 3.30545 6.8843 3.64 6.48464 3.83132C4.873 4.59958 3.26437 5.37184 1.64271 6.11506C1.30515 6.26931 1.15591 6.4466 1.214 6.81621C1.22724 7.00462 1.22724 7.19372 1.214 7.38213C1.34222 7.32905 1.44238 7.29199 1.53954 7.24691C4.69771 5.75146 7.84988 4.25 11.0161 2.76857C11.3236 2.62434 11.4668 2.46808 11.4167 2.12853C11.4029 1.92175 11.4029 1.71428 11.4167 1.50751C11.0501 1.67779 10.7156 1.83004 10.384 1.98629C9.86518 2.23069 9.34934 2.48711 8.82748 2.7225C8.42683 2.9058 8.09528 2.79762 7.94504 2.45005C7.80581 2.12853 7.94504 1.82202 8.32766 1.63672C9.44249 1.10385 10.5523 0.561958 11.6822 0.0621389C11.922 -0.0230134 12.1852 -0.0137042 12.4184 0.0881795C15.5235 1.54156 18.6285 3.01598 21.7266 4.48439C22.3356 4.77386 22.9416 5.06934 23.5546 5.3488C23.7016 5.4033 23.8266 5.50458 23.9104 5.63705C23.9942 5.76953 24.0321 5.92586 24.0184 6.08201C24.0064 6.79517 24.0184 7.50734 24.0184 8.21951C24.0134 8.84754 23.6177 9.09694 23.0448 8.83451C22.584 8.62317 22.1283 8.40281 21.6365 8.17043V14.3506H22.0241C23.3733 14.3506 24.7235 14.3606 26.0727 14.3506C27.6664 14.3345 27.6443 14.3205 27.6203 15.9201C27.6203 16.1806 27.6203 16.442 27.6203 16.7355C27.7605 16.7425 27.8807 16.7525 27.9999 16.7525C29.0126 16.7525 30.0252 16.7615 31.0369 16.7525C31.1797 16.7447 31.3222 16.7709 31.4529 16.8291C31.5835 16.8873 31.6984 16.9757 31.7881 17.087C33.1073 18.6055 34.4415 20.112 35.7506 21.6405C35.9091 21.8407 35.9993 22.0864 36.008 22.3417C36.0311 23.8171 36.02 25.2915 36.019 26.7669C36.019 27.3549 35.8187 27.5522 35.2318 27.5542C34.8591 27.5502 34.5106 27.5502 34.171 27.5502ZM34.782 22.7493H34.3373C32.7387 22.7493 31.1407 22.7493 29.5434 22.7493C29.0076 22.7493 28.7992 22.538 28.7982 21.9981C28.7982 20.7861 28.7982 19.5751 28.7982 18.3641V17.9645H27.6163V26.3282H28.2433C28.649 24.9529 29.5174 24.0745 30.9477 23.9723C32.6385 23.8521 33.6722 24.7736 34.167 26.3242H34.786L34.782 22.7493ZM12.5997 1.49449C12.6119 1.68968 12.6102 1.88549 12.5947 2.08045C12.5376 2.44605 12.6868 2.62334 13.0224 2.78159C15.5535 3.96053 18.0736 5.1635 20.5978 6.35746C21.316 6.69701 22.0341 7.03456 22.8014 7.39415C22.7892 7.19401 22.7892 6.99331 22.8014 6.79317C22.8465 6.44961 22.7152 6.27332 22.3907 6.12307C20.3874 5.19655 18.3982 4.24299 16.4039 3.29844L12.5997 1.49449ZM30.0152 21.5133H34.0448C33.1203 20.4566 32.2018 19.4679 31.3614 18.4172C30.9758 17.9364 30.5551 17.8853 30.0152 17.9795V21.5133ZM32.9951 26.9642C32.9993 26.6065 32.8969 26.2556 32.7011 25.9563C32.5053 25.6569 32.2248 25.4225 31.8954 25.283C31.566 25.1435 31.2025 25.1051 30.8512 25.1728C30.5 25.2405 30.1768 25.4111 29.9227 25.663C29.6687 25.9149 29.4954 26.2366 29.4248 26.5873C29.3542 26.938 29.3895 27.3018 29.5262 27.6324C29.663 27.963 29.895 28.2454 30.1927 28.4437C30.4904 28.642 30.8404 28.7473 31.1981 28.7461C31.6717 28.7446 32.1255 28.5568 32.4618 28.2234C32.798 27.89 32.9896 27.4377 32.9951 26.9642Z" fill="#B07FD8"/>
<path d="M14.4336 27.5502C13.4951 27.5502 12.5465 27.5502 11.597 27.5502C11.004 27.5502 10.8057 27.3498 10.8037 26.7709C10.8037 26.247 10.8037 25.7242 10.8037 25.1763H8.39975V25.5829C8.39975 26.7959 8.39975 28.0079 8.39975 29.2209C8.39975 29.7337 8.1834 29.9491 7.66855 29.9501C5.3561 29.9501 3.04397 29.9501 0.732186 29.9501C0.217342 29.9501 0.00399236 29.7337 0.00299072 29.2179C0.00299072 26.9048 0.00299072 24.5923 0.00299072 22.2805C0.00299072 21.7657 0.217342 21.5523 0.733188 21.5513C2.73246 21.5513 4.73207 21.5513 6.73202 21.5513H7.20079V21.1397C7.20079 20.128 7.20079 19.1153 7.20079 18.1027C7.20079 17.5598 7.40813 17.3505 7.94501 17.3484C8.87954 17.3484 9.81507 17.3484 10.7997 17.3484V15.245C10.7997 14.5098 10.9599 14.3525 11.7072 14.3525C13.1816 14.3525 14.656 14.3525 16.1304 14.3525C16.5401 14.3525 16.8005 14.604 16.7955 14.9535C16.7905 15.3031 16.5371 15.5305 16.1164 15.5455C16.0293 15.5455 15.9411 15.5455 15.854 15.5455H12.0197V26.3182H14.4336C15.1829 24.4771 16.4009 23.6918 18.0125 24.0144C18.6978 24.159 19.311 24.5383 19.7463 25.087C20.1815 25.6357 20.4115 26.3191 20.3964 27.0193C20.3704 28.4647 19.3176 29.6566 17.8392 29.914C16.3458 30.1705 15.0897 29.307 14.4336 27.5502ZM1.22199 28.7231H7.18176V22.7693H6.00082C6.00082 23.3393 6.00082 23.8872 6.00082 24.4351C6.00082 24.9239 5.77946 25.1412 5.28865 25.1452C4.5875 25.1452 3.88635 25.1452 3.18521 25.1452C2.59724 25.1452 2.39992 24.9449 2.39792 24.3579C2.39792 23.8261 2.39792 23.2942 2.39792 22.7643H1.21598L1.22199 28.7231ZM8.43381 18.5494V23.9192H10.7887V18.5604C10.7105 18.5554 10.6514 18.5474 10.5883 18.5474L8.43381 18.5494ZM17.3915 25.1462C17.0352 25.1462 16.6869 25.2518 16.3906 25.4496C16.0942 25.6474 15.8631 25.9286 15.7265 26.2576C15.5898 26.5867 15.5537 26.9488 15.6227 27.2984C15.6917 27.6479 15.8627 27.9692 16.1141 28.2216C16.3656 28.474 16.6862 28.6463 17.0355 28.7166C17.3847 28.787 17.747 28.7523 18.0766 28.6169C18.4062 28.4815 18.6882 28.2515 18.8872 27.9559C19.0861 27.6604 19.1931 27.3125 19.1944 26.9562C19.1954 26.7188 19.1494 26.4836 19.0592 26.2641C18.969 26.0445 18.8364 25.8449 18.6689 25.6768C18.5013 25.5086 18.3023 25.3752 18.0831 25.2841C17.8639 25.1931 17.6288 25.1462 17.3915 25.1462ZM3.62292 22.7653V23.9212H4.77181V22.7653H3.62292Z" fill="#B07FD8"/>
<path d="M14.9996 8.96971C14.9996 9.71994 14.9996 10.4722 14.9996 11.2194C14.9996 11.7312 14.7812 11.9446 14.2644 11.9456C12.7519 11.9456 11.2397 11.9456 9.72794 11.9456C9.2171 11.9456 9.00375 11.7282 9.00275 11.2104C9.00275 9.6979 9.00275 8.18542 9.00275 6.67294C9.00275 6.16111 9.2191 5.94876 9.73695 5.94775C11.2494 5.94775 12.7616 5.94775 14.2734 5.94775C14.7852 5.94775 14.9966 6.16411 14.9996 6.68196C15.0016 7.44521 14.9996 8.20746 14.9996 8.96971ZM11.3937 7.16675H10.2268V8.31864H11.3927L11.3937 7.16675ZM12.6217 7.16074V8.31864H13.7726V7.16375L12.6217 7.16074ZM10.2067 10.7226H11.3736V9.5757H10.2067V10.7226ZM12.6197 9.56168V10.7226H13.7726V9.56268L12.6197 9.56168Z" fill="#662E93"/>
<path d="M30.6032 12.3964C32.1337 11.1022 33.3557 9.63283 33.561 7.56945C33.6131 7.04459 33.4608 6.48567 33.3326 5.96081C33.2184 5.50306 33.2725 5.18554 33.6211 5.04632C33.9697 4.90709 34.2732 5.06835 34.4585 5.51108C35.0224 6.85428 34.8461 8.18747 34.3313 9.48659C33.6542 11.1964 32.4622 12.5095 31.0018 13.5933C30.7544 13.7776 30.491 13.8107 30.2386 13.6224C28.3955 12.2461 26.9682 10.5714 26.4994 8.24656C26.0046 5.79454 27.3378 3.61698 29.6486 3.05806C30.5054 2.84887 31.4071 2.92483 32.2168 3.27441C32.6725 3.46372 32.8448 3.78825 32.6896 4.13983C32.5343 4.49141 32.2178 4.56353 31.7631 4.38724C29.871 3.65303 27.9278 4.75083 27.6303 6.7451C27.4961 7.64658 27.7304 8.50799 28.1031 9.32633C28.668 10.5553 29.5414 11.5319 30.6032 12.3964Z" fill="#B07FD8"/>
<path d="M17.9744 18.5464C16.8393 18.5464 15.7021 18.5464 14.5629 18.5464C14.0831 18.5464 13.8116 18.333 13.8026 17.9604C13.7936 17.5878 14.0741 17.3484 14.5729 17.3484C16.86 17.3484 19.147 17.3484 21.4341 17.3484C21.9139 17.3484 22.1863 17.5617 22.1954 17.9333C22.2044 18.305 21.9219 18.5464 21.4241 18.5474L17.9744 18.5464Z" fill="#662E93"/>
<path d="M20.136 19.7464C21.1737 19.7464 22.2111 19.7464 23.2481 19.7464C23.7209 19.7464 23.9953 19.9717 23.9943 20.3473C23.9933 20.723 23.7199 20.9483 23.2471 20.9483C21.1476 20.9483 19.0479 20.9483 16.9478 20.9483C16.475 20.9483 16.2015 20.724 16.2015 20.3473C16.2015 19.9707 16.475 19.7464 16.9488 19.7464C18.0098 19.745 19.0722 19.745 20.136 19.7464Z" fill="#662E93"/>
<path d="M32.3951 7.15874C32.3934 7.51651 32.2854 7.86569 32.0846 8.16185C31.8839 8.45801 31.5996 8.68777 31.268 8.82187C30.9363 8.95598 30.5722 8.98837 30.222 8.91493C29.8719 8.84148 29.5515 8.66553 29.3017 8.40945C29.0518 8.15337 28.8838 7.82875 28.819 7.4769C28.7542 7.12505 28.7956 6.76187 28.9378 6.43359C29.08 6.10531 29.3167 5.82677 29.6177 5.63341C29.9187 5.44005 30.2705 5.34062 30.6282 5.34777C31.1015 5.35724 31.552 5.55246 31.8826 5.89128C32.2132 6.23011 32.3973 6.68537 32.3951 7.15874ZM30.5921 7.7427C30.7114 7.74469 30.8286 7.71113 30.9287 7.64632C31.0288 7.5815 31.1074 7.48835 31.1544 7.37873C31.2015 7.2691 31.2148 7.14796 31.1928 7.03073C31.1707 6.9135 31.1143 6.80548 31.0307 6.72042C30.947 6.63537 30.84 6.57713 30.7231 6.55311C30.6063 6.5291 30.4849 6.54041 30.3745 6.58558C30.2641 6.63076 30.1697 6.70777 30.1032 6.80681C30.0367 6.90584 30.0012 7.02243 30.0012 7.14171C30.0011 7.29921 30.0629 7.45043 30.1733 7.56283C30.2836 7.67522 30.4336 7.73981 30.5911 7.7427H30.5921Z" fill="#662E93"/>
<path d="M22.5319 22.1464C23.182 22.1464 23.8341 22.1464 24.4811 22.1464C24.9249 22.1464 25.1923 22.3777 25.1943 22.7413C25.1963 23.1049 24.9279 23.3423 24.4881 23.3423C23.164 23.3463 21.8391 23.3463 20.5136 23.3423C20.0689 23.3423 19.8035 23.1129 19.8015 22.7463C19.7995 22.3797 20.0649 22.1454 20.5076 22.1454C21.1817 22.1413 21.8568 22.1464 22.5319 22.1464Z" fill="#662E93"/>
<path d="M31.1901 26.3481C31.3094 26.3459 31.4267 26.3793 31.527 26.444C31.6272 26.5087 31.706 26.6018 31.7532 26.7114C31.8003 26.821 31.8138 26.9422 31.7919 27.0595C31.77 27.1767 31.7136 27.2849 31.63 27.37C31.5464 27.4552 31.4394 27.5135 31.3225 27.5376C31.2056 27.5617 31.0842 27.5505 30.9738 27.5053C30.8633 27.4602 30.7688 27.3832 30.7023 27.2841C30.6357 27.1851 30.6002 27.0684 30.6002 26.9491C30.6001 26.7916 30.6619 26.6404 30.7723 26.528C30.8826 26.4156 31.0327 26.351 31.1901 26.3481Z" fill="#B07FD8"/>
<path d="M17.3945 26.3482C17.5137 26.3466 17.6307 26.3805 17.7306 26.4456C17.8304 26.5106 17.9087 26.6039 17.9554 26.7136C18.0021 26.8233 18.0152 26.9443 17.9929 27.0614C17.9706 27.1785 17.9141 27.2864 17.8303 27.3712C17.7466 27.4561 17.6395 27.5141 17.5228 27.538C17.406 27.5618 17.2847 27.5504 17.1744 27.5051C17.0641 27.4599 16.9698 27.3829 16.9034 27.2839C16.837 27.1849 16.8016 27.0684 16.8015 26.9492C16.8015 26.7912 16.8637 26.6395 16.9747 26.527C17.0857 26.4146 17.2365 26.3503 17.3945 26.3482Z" fill="#B07FD8"/>
</g>
<defs>
<clipPath id="clip0_122_208">
<rect width="36" height="29.9561" fill="white"/>
</clipPath>
</defs>
</svg>
