<svg width="16" height="16" viewBox="0 0 16 16" fill="none" xmlns="http://www.w3.org/2000/svg">
<g clip-path="url(#clip0_352_290)">
<path d="M0 12.7501C0.0721875 12.4064 0.175625 12.0748 0.410625 11.8045C0.5575 11.636 0.718437 11.4798 0.876875 11.3217C1.27125 10.9285 1.66708 10.5367 2.06437 10.146C2.24344 9.9701 2.45469 9.89073 2.70563 9.96635C2.94062 10.0373 3.08531 10.1973 3.13969 10.4335C3.19656 10.6807 3.10125 10.8804 2.92688 11.052C2.53813 11.4355 2.14906 11.8195 1.75969 12.2039C1.72006 12.2377 1.67831 12.269 1.63469 12.2976L1.65563 12.3307H14.3525C14.3178 12.2914 14.29 12.2567 14.2587 12.226C13.8594 11.8304 13.4575 11.4373 13.0603 11.0385C12.8078 10.7854 12.7719 10.4682 12.9566 10.2051C13.0034 10.1359 13.0639 10.077 13.1344 10.0322C13.2049 9.98731 13.2839 9.95741 13.3664 9.94431C13.4489 9.93121 13.5333 9.9352 13.6142 9.95604C13.6951 9.97687 13.7709 10.0141 13.8369 10.0654C13.9374 10.148 14.0326 10.2368 14.1219 10.3314C14.5281 10.7335 14.9316 11.1414 15.3438 11.5389C15.6759 11.8595 15.9091 12.2285 15.975 12.6923C15.981 12.7125 15.9894 12.7319 16 12.7501V13.1876C15.9905 13.2056 15.983 13.2245 15.9778 13.2442C15.9116 13.7079 15.6784 14.077 15.3463 14.3979C14.9088 14.821 14.4844 15.2592 14.0437 15.6792C13.9122 15.8042 13.7447 15.8939 13.5938 15.9995H13.3438C12.7519 15.7976 12.7066 15.1948 13.1281 14.8223C13.5259 14.4714 13.8881 14.0804 14.2653 13.7067C14.2966 13.6754 14.3213 13.6442 14.3559 13.6029H1.63719C1.68719 13.6557 1.72062 13.6932 1.75656 13.7279C2.1525 14.1201 2.55156 14.5092 2.94406 14.9045C3.21781 15.1801 3.23125 15.5607 2.97156 15.8082C2.88469 15.8907 2.7625 15.9364 2.65625 15.9989H2.40625C2.25531 15.8932 2.08812 15.8045 1.95594 15.6785C1.52281 15.2654 1.10156 14.8395 0.677813 14.4167C0.575 14.3139 0.474687 14.2073 0.382187 14.0951C0.163437 13.8314 0.0696875 13.5132 0 13.1864V12.7501Z" fill="#B07FD8"/>
<path d="M-1.78814e-06 6.68745C0.0624982 6.5812 0.106873 6.45776 0.190311 6.37182C0.368436 6.1887 0.596561 6.13932 0.836873 6.22776C1.07719 6.3162 1.23719 6.49807 1.24 6.75244C1.24406 7.14276 1.53094 7.43651 1.9275 7.44651C2.26687 7.45526 2.51156 7.75588 2.4975 8.08838C2.49082 8.24917 2.42238 8.4012 2.30642 8.51279C2.19046 8.62438 2.03593 8.68694 1.875 8.68745C1.0075 8.70932 0.193436 8.03713 0.0312482 7.16682C0.0228107 7.1212 0.00937317 7.07682 -0.00187683 7.03213L-1.78814e-06 6.68745Z" fill="#B07FD8"/>
<path d="M16 7.03137C15.9288 7.36387 15.8266 7.68293 15.6097 7.9545C15.2444 8.41137 14.7709 8.66012 14.1859 8.6845C13.8031 8.70043 13.5166 8.44481 13.5019 8.08856C13.4872 7.73918 13.7456 7.46668 14.1184 7.43793C14.4969 7.40887 14.7213 7.18793 14.75 6.81481C14.7763 6.47106 14.985 6.23418 15.2988 6.19325C15.5988 6.15387 15.8566 6.32793 15.975 6.64887C15.9819 6.66265 15.9903 6.67564 16 6.68762V7.03137Z" fill="#B07FD8"/>
<path d="M2 0C2.065 0.03125 2.1325 0.0565625 2.19438 0.09375C2.30458 0.159127 2.39187 0.256982 2.44429 0.373906C2.49671 0.49083 2.51169 0.621103 2.48719 0.746875C2.4608 0.87764 2.39344 0.9966 2.29488 1.0865C2.19633 1.17641 2.0717 1.23258 1.93906 1.24687C1.45188 1.30406 1.30469 1.45094 1.24563 1.93969C1.2318 2.0781 1.17206 2.20791 1.07592 2.30843C0.979778 2.40896 0.852764 2.47443 0.715106 2.49442C0.577448 2.5144 0.437061 2.48775 0.316303 2.41871C0.195546 2.34967 0.101362 2.24221 0.04875 2.11344L0 2V1.65625C0.0116217 1.62785 0.0210249 1.5986 0.028125 1.56875C0.115 1.05844 0.375 0.65625 0.788125 0.35C1.04719 0.15625 1.34875 0.071875 1.65625 0H2Z" fill="#B07FD8"/>
<path d="M16 2C15.9375 2.10656 15.8934 2.23 15.8103 2.31594C15.6331 2.49906 15.4069 2.54844 15.1653 2.46125C14.9238 2.37406 14.7872 2.19313 14.755 1.93937C14.6925 1.45094 14.5481 1.30375 14.0609 1.24656C13.9225 1.23265 13.7927 1.17279 13.6922 1.07653C13.5917 0.980274 13.5264 0.853153 13.5065 0.715428C13.4867 0.577703 13.5135 0.437299 13.5827 0.316589C13.6519 0.19588 13.7596 0.101812 13.8884 0.0493751C13.9259 0.0334376 13.9628 0.0165625 14 0H14.3438C14.3665 0.0112773 14.3902 0.0202795 14.4147 0.026875C14.9316 0.109688 15.3384 0.370625 15.6494 0.7875C15.8425 1.04656 15.9306 1.34719 16 1.65625V2Z" fill="#B07FD8"/>
<path d="M4.46875 0C4.68062 0.0784375 4.85719 0.195938 4.93344 0.423438C4.97255 0.537228 4.97788 0.659909 4.94878 0.776662C4.91969 0.893416 4.85741 0.999249 4.76947 1.08138C4.68154 1.16351 4.5717 1.21842 4.45324 1.23949C4.33477 1.26055 4.21274 1.24687 4.10188 1.20009C3.99102 1.1533 3.89608 1.07543 3.82852 0.97586C3.76096 0.876292 3.72367 0.759294 3.72116 0.638996C3.71865 0.518697 3.75102 0.400245 3.81436 0.297944C3.87771 0.195643 3.96931 0.113869 4.07812 0.0625C4.12437 0.040625 4.17187 0.02125 4.21875 0H4.46875Z" fill="#662E93"/>
<path d="M6.90625 0C7.11812 0.0784375 7.29469 0.195938 7.37094 0.423438C7.41005 0.537228 7.41538 0.659909 7.38628 0.776662C7.35719 0.893416 7.29491 0.999249 7.20697 1.08138C7.11904 1.16351 7.0092 1.21842 6.89074 1.23949C6.77227 1.26055 6.65024 1.24687 6.53938 1.20009C6.42852 1.1533 6.33358 1.07543 6.26602 0.97586C6.19846 0.876292 6.16117 0.759294 6.15866 0.638996C6.15615 0.518697 6.18852 0.400245 6.25186 0.297944C6.31521 0.195643 6.40681 0.113869 6.51562 0.0625C6.56187 0.040625 6.60937 0.02125 6.65625 0H6.90625Z" fill="#662E93"/>
<path d="M9.34375 0C9.55562 0.0784375 9.73219 0.195938 9.80844 0.423438C9.84755 0.537228 9.85288 0.659909 9.82378 0.776662C9.79469 0.893416 9.73241 0.999249 9.64447 1.08138C9.55654 1.16351 9.4467 1.21842 9.32824 1.23949C9.20977 1.26055 9.08774 1.24687 8.97688 1.20009C8.86602 1.1533 8.77108 1.07543 8.70352 0.97586C8.63596 0.876292 8.59867 0.759294 8.59616 0.638996C8.59365 0.518697 8.62602 0.400245 8.68936 0.297944C8.75271 0.195643 8.84432 0.113869 8.95312 0.0625C8.99937 0.040625 9.04687 0.02125 9.09375 0H9.34375Z" fill="#662E93"/>
<path d="M11.7812 0C11.9931 0.0784375 12.1697 0.195938 12.2459 0.423438C12.285 0.537228 12.2904 0.659909 12.2613 0.776662C12.2322 0.893416 12.1699 0.999249 12.082 1.08138C11.994 1.16351 11.8842 1.21842 11.7657 1.23949C11.6473 1.26055 11.5252 1.24687 11.4144 1.20009C11.3035 1.1533 11.2086 1.07543 11.141 0.97586C11.0735 0.876292 11.0362 0.759294 11.0337 0.638996C11.0311 0.518697 11.0635 0.400245 11.1269 0.297944C11.1902 0.195643 11.2818 0.113869 11.3906 0.0625C11.4369 0.040625 11.4844 0.02125 11.5312 0H11.7812Z" fill="#662E93"/>
<path d="M0 4.18745C0.0784375 3.97557 0.195937 3.79901 0.423437 3.72276C0.537219 3.68368 0.659881 3.67837 0.776613 3.70748C0.893346 3.73658 0.999157 3.79886 1.08127 3.88678C1.16338 3.97471 1.21829 4.08453 1.23935 4.20297C1.26042 4.32142 1.24675 4.44343 1.19999 4.55428C1.15323 4.66513 1.07538 4.76007 0.975845 4.82764C0.876307 4.89521 0.759337 4.93253 0.639058 4.93507C0.518779 4.93762 0.400333 4.9053 0.298023 4.842C0.195713 4.77871 0.113913 4.68715 0.0625 4.57838C0.0403125 4.53213 0.0209375 4.48463 0 4.43745V4.18745Z" fill="#662E93"/>
<path d="M16 4.43747C15.9216 4.64934 15.8041 4.8259 15.5766 4.90215C15.4628 4.94123 15.3401 4.94654 15.2234 4.91744C15.1067 4.88833 15.0008 4.82605 14.9187 4.73813C14.8366 4.6502 14.7817 4.54039 14.7607 4.42194C14.7396 4.30349 14.7533 4.18148 14.8 4.07063C14.8468 3.95978 14.9246 3.86484 15.0242 3.79727C15.1237 3.7297 15.2407 3.69239 15.3609 3.68984C15.4812 3.68729 15.5997 3.71961 15.702 3.78291C15.8043 3.8462 15.8861 3.93776 15.9375 4.04653C15.9597 4.09278 15.9791 4.14028 16 4.18747V4.43747Z" fill="#662E93"/>
<path d="M4.90625 8.06875C4.90501 8.19219 4.86726 8.31249 4.79774 8.41449C4.72822 8.51649 4.63005 8.59562 4.51562 8.64191C4.40118 8.68819 4.27561 8.69955 4.15473 8.67455C4.03384 8.64956 3.92307 8.58933 3.83638 8.50146C3.74968 8.41359 3.69095 8.30201 3.66758 8.18081C3.64421 8.0596 3.65726 7.93419 3.70508 7.82039C3.7529 7.70659 3.83334 7.60949 3.93627 7.54135C4.0392 7.47321 4.16 7.43708 4.28344 7.4375C4.44972 7.43866 4.60875 7.50581 4.72554 7.62418C4.84233 7.74256 4.90733 7.90247 4.90625 8.06875Z" fill="#B07FD8"/>
<path d="M6.71531 7.43751C6.83875 7.43684 6.95962 7.47274 7.06268 7.54067C7.16574 7.60861 7.24638 7.70554 7.29442 7.81924C7.34246 7.93295 7.35576 8.05833 7.33264 8.17959C7.30951 8.30084 7.251 8.41253 7.16448 8.50057C7.07796 8.58861 6.96731 8.64906 6.84648 8.6743C6.72565 8.69953 6.60005 8.68843 6.48552 8.64237C6.371 8.59632 6.27268 8.51739 6.20295 8.41553C6.13323 8.31366 6.09523 8.19344 6.09375 8.07001C6.09296 7.98765 6.10843 7.90594 6.13925 7.82956C6.17008 7.75318 6.21566 7.68363 6.27339 7.62489C6.33112 7.56614 6.39986 7.51935 6.47569 7.4872C6.55152 7.45505 6.63295 7.43816 6.71531 7.43751Z" fill="#B07FD8"/>
<path d="M9.78124 8.06563C9.78063 8.1891 9.74345 8.30963 9.6744 8.412C9.60535 8.51437 9.50752 8.59399 9.39326 8.64082C9.27901 8.68764 9.15344 8.69957 9.03241 8.67511C8.91138 8.65064 8.8003 8.59087 8.71321 8.50334C8.62611 8.41581 8.5669 8.30444 8.54303 8.18329C8.51917 8.06213 8.53173 7.93663 8.57912 7.82261C8.62652 7.70859 8.70663 7.61116 8.80934 7.54262C8.91205 7.47408 9.03276 7.4375 9.15624 7.4375C9.32239 7.438 9.48155 7.50443 9.59874 7.62221C9.71593 7.73999 9.78157 7.89948 9.78124 8.06563Z" fill="#B07FD8"/>
<path d="M12.2812 8.06494C12.2812 8.18855 12.2446 8.30939 12.1759 8.41217C12.1072 8.51495 12.0096 8.59506 11.8954 8.64237C11.7812 8.68967 11.6556 8.70205 11.5343 8.67793C11.4131 8.65382 11.3017 8.59429 11.2143 8.50688C11.1269 8.41948 11.0674 8.30811 11.0433 8.18687C11.0191 8.06564 11.0315 7.93997 11.0788 7.82576C11.1261 7.71156 11.2062 7.61395 11.309 7.54527C11.4118 7.4766 11.5326 7.43994 11.6563 7.43994C11.8219 7.44035 11.9806 7.50634 12.0977 7.62346C12.2149 7.74058 12.2808 7.89931 12.2812 8.06494Z" fill="#B07FD8"/>
</g>
<defs>
<clipPath id="clip0_352_290">
<rect width="16" height="16" fill="white"/>
</clipPath>
</defs>
</svg>
