<svg width="16" height="16" viewBox="0 0 16 16" fill="none" xmlns="http://www.w3.org/2000/svg">
<g clip-path="url(#clip0_224_354)">
<path d="M7.41333 0H8.10083C8.12896 0.0117908 8.15811 0.0209956 8.18791 0.0275002C9.10458 0.143333 9.87125 0.545417 10.475 1.24292C11.0787 1.94042 11.385 2.76625 11.3479 3.69542C11.3333 4.05542 11.2554 4.4125 11.2058 4.77875H11.3658C12.4958 4.77875 13.6257 4.77875 14.7554 4.77875C15.0604 4.77875 15.3029 4.90375 15.4221 5.18C15.5687 5.52083 15.5562 5.88417 15.4337 6.23C15.3571 6.44667 15.1725 6.57417 14.9458 6.62917C14.8867 6.64333 14.8262 6.65333 14.7662 6.665V15.5C14.9296 15.5 15.0846 15.4971 15.2396 15.5C15.3946 15.5029 15.5179 15.5988 15.4987 15.7292C15.485 15.8242 15.4029 15.9092 15.3517 15.9987H0.16208C0.0629133 15.9112 -0.0345867 15.8217 0.0208299 15.67C0.0762466 15.5183 0.207497 15.4929 0.354163 15.4979C0.486663 15.5025 0.61958 15.4979 0.747913 15.4979V6.66125C0.224163 6.57792 0.00833005 6.32458 0.00791338 5.80292C0.00791338 5.75125 0.0120801 5.69875 0.00791338 5.64708C-0.0433366 5.12208 0.31208 4.75792 0.886247 4.77208C1.9375 4.79542 2.98958 4.77875 4.04125 4.77875H4.34875C4.3325 4.7175 4.32041 4.66792 4.30708 4.61875C4.17268 4.16355 4.12973 3.68624 4.18072 3.21436C4.23171 2.74248 4.37563 2.28536 4.60417 1.86938C4.83271 1.45339 5.14135 1.08678 5.51229 0.790675C5.88323 0.494573 6.30913 0.274845 6.76541 0.144167C6.975 0.0833336 7.19583 0.0470833 7.41333 0ZM8.65958 15.4946V15.2917C8.65958 13.11 8.65958 10.9281 8.65958 8.74583C8.65958 8.24583 8.94833 7.94958 9.45375 7.94792C10.6568 7.94431 11.8599 7.94431 13.0629 7.94792C13.4267 7.94792 13.6879 8.16292 13.7617 8.51833C13.7784 8.61027 13.7858 8.70366 13.7837 8.79708C13.7837 10.9638 13.7837 13.1304 13.7837 15.2971V15.4887H14.2421V6.65208H14.0475C13.105 6.65208 12.1624 6.65208 11.2196 6.65208C11.1523 6.6552 11.085 6.64717 11.0204 6.62833C10.967 6.61248 10.9213 6.57739 10.8922 6.52984C10.8631 6.48228 10.8527 6.42563 10.8629 6.37083C10.8671 6.31537 10.8911 6.26326 10.9305 6.22396C10.9699 6.18467 11.022 6.16079 11.0775 6.15667C11.1293 6.15243 11.1814 6.15132 11.2333 6.15333H14.2962C14.4471 6.15333 14.5983 6.15625 14.7492 6.15333C14.9246 6.14917 15.0054 6.06583 15.0096 5.8925C15.0117 5.78333 15.0096 5.67375 15.0096 5.56458C15.0075 5.35625 14.9337 5.28 14.7296 5.27958C13.5104 5.27958 12.2917 5.27958 11.0729 5.27708C10.9762 5.27708 10.9275 5.31167 10.8783 5.3925C10.6729 5.72917 10.4467 6.0475 10.1383 6.30542C9.28541 7.01917 8.31666 7.31542 7.21166 7.15958C6.43666 7.05042 5.78 6.68792 5.215 6.17083C4.98583 5.9625 4.82625 5.67083 4.65 5.40917C4.5875 5.31542 4.53125 5.27625 4.4175 5.27667C3.355 5.28125 2.2925 5.27917 1.23 5.27917C1.07875 5.27917 0.927913 5.27917 0.776663 5.27917C0.58833 5.28167 0.51083 5.35833 0.507913 5.54333C0.507913 5.63708 0.507913 5.73083 0.507913 5.82458C0.507913 6.08875 0.574163 6.15375 0.841247 6.15375H4.27833C4.33043 6.1518 4.38259 6.15278 4.43458 6.15667C4.49288 6.15968 4.5479 6.18456 4.58868 6.22634C4.62945 6.26812 4.65298 6.32373 4.65458 6.38208C4.6623 6.43694 4.64958 6.49273 4.61885 6.53882C4.58812 6.58492 4.54152 6.61811 4.48791 6.63208C4.42786 6.64784 4.36577 6.65444 4.30375 6.65167C3.35041 6.65167 2.39722 6.65167 1.44416 6.65167H1.26833V15.4946H8.65958ZM13.2754 15.4946C13.2798 15.4701 13.2829 15.4453 13.2846 15.4204C13.2846 13.1813 13.2846 10.9424 13.2846 8.70375C13.2846 8.51292 13.2079 8.44625 13.0133 8.44625H9.48208C9.2225 8.44625 9.15958 8.51 9.15958 8.76917V15.4958L13.2754 15.4946ZM7.73375 1.46958C6.70375 1.40167 5.65041 2.32583 5.60541 3.50292C5.5625 4.69208 6.48958 5.70833 7.65333 5.75C8.85458 5.79167 9.85541 4.875 9.90916 3.69667C9.96416 2.47875 8.91208 1.37917 7.73541 1.47083L7.73375 1.46958ZM5.705 5.31417C5.70176 5.29702 5.69673 5.28026 5.69 5.26417C5.38428 4.87916 5.18898 4.41828 5.125 3.93083C5.12083 3.90083 5.08125 3.85333 5.05541 3.85167C4.93041 3.84333 4.80083 3.84792 4.66416 3.84792C4.73041 4.52583 4.9675 5.10333 5.38708 5.59792L5.705 5.31417ZM10.8442 3.86292C10.425 3.8025 10.425 3.8025 10.3442 4.17458C10.3408 4.19 10.335 4.20458 10.3312 4.22C10.24 4.61667 10.0521 4.96667 9.79958 5.2925L10.1212 5.60125C10.5378 5.1118 10.7911 4.50452 10.8458 3.86417L10.8442 3.86292ZM8.01416 0.960417C8.54429 1.01541 9.04645 1.22541 9.45791 1.56417L9.765 1.23708C9.24666 0.81 8.675 0.567917 8.015 0.511667L8.01416 0.960417ZM7.49916 0.51C6.85212 0.563022 6.23828 0.818763 5.745 1.24083L6.05375 1.5325C6.275 1.41 6.49666 1.26125 6.73833 1.16042C6.98 1.05958 7.23833 1.0075 7.49916 0.931667V0.51ZM10.845 3.33958C10.7796 2.67292 10.5458 2.10125 10.1179 1.595C10.0075 1.7125 9.90958 1.81667 9.80791 1.92333C10.1365 2.32903 10.3409 2.82094 10.3967 3.34L10.845 3.33958ZM5.11708 3.33708C5.17026 2.81834 5.37291 2.3262 5.70041 1.92042L5.38958 1.59292C4.97193 2.08438 4.71817 2.69401 4.66375 3.33667L5.11708 3.33708ZM7.49833 6.23917C6.97445 6.18312 6.47804 5.97645 6.06916 5.64417L5.75875 5.96833C6.27583 6.39333 6.845 6.63042 7.49833 6.68542V6.23917ZM9.75583 5.96583L9.4225 5.66208C9.01972 5.98649 8.53156 6.18723 8.01708 6.24V6.68958C8.6577 6.63452 9.26534 6.38159 9.75583 5.96583Z" fill="#B07FD8"/>
<path d="M3.13966 10.2849H4.27357C4.33592 10.2849 4.35498 10.2754 4.36277 10.2672C4.37141 10.2581 4.38065 10.2359 4.38065 10.1694L3.13966 10.2849ZM3.13966 10.2849H3.13965M3.13966 10.2849H3.13965M4.38065 8.41981V8.41639V8.41981ZM4.38065 8.41981V8.42324M4.38065 8.41981V8.42324M4.38065 8.42324V8.42666M4.38065 8.42324V8.42666M4.38065 8.42666V8.43008M4.38065 8.42666V8.43008M4.38065 8.43008V8.43351M4.38065 8.43008V8.43351M4.38065 8.43351V8.43693M4.38065 8.43351V8.43693M4.38065 8.43693V8.44036M4.38065 8.43693V8.44036M4.38065 8.44036V8.44378M4.38065 8.44036V8.44378M4.38065 8.44378V8.44721M4.38065 8.44378V8.44721M4.38065 8.44721V8.45063M4.38065 8.44721V8.45063M4.38065 8.45063V8.45405M4.38065 8.45063V8.45405M4.38065 8.45405V8.45748M4.38065 8.45405V8.45748M4.38065 8.45748V8.4609M4.38065 8.45748V8.4609M4.38065 8.4609V8.46433M4.38065 8.4609V8.46433M4.38065 8.46433V8.46775M4.38065 8.46433V8.46775M4.38065 8.46775V8.47118M4.38065 8.46775V8.47118M4.38065 8.47118V8.4746M4.38065 8.47118V8.4746M4.38065 8.4746V8.47802M4.38065 8.4746V8.47802M4.38065 8.47802V8.48145M4.38065 8.47802V8.48145M4.38065 8.48145V8.48487M4.38065 8.48145V8.48487M4.38065 8.48487V8.4883M4.38065 8.48487V8.4883M4.38065 8.4883V8.49172M4.38065 8.4883V8.49172M4.38065 8.49172V8.49515M4.38065 8.49172V8.49515M4.38065 8.49515V8.49857M4.38065 8.49515V8.49857M4.38065 8.49857V8.50199M4.38065 8.49857V8.50199M4.38065 8.50199V8.50542M4.38065 8.50199V8.50542M4.38065 8.50542V8.50884M4.38065 8.50542V8.50884M4.38065 8.50884V8.51227M4.38065 8.50884V8.51227M4.38065 8.51227V8.51569M4.38065 8.51227V8.51569M4.38065 8.51569V8.51912M4.38065 8.51569V8.51912M4.38065 8.51912V8.52254M4.38065 8.51912V8.52254M4.38065 8.52254V8.52596M4.38065 8.52254V8.52596M4.38065 8.52596V8.52939M4.38065 8.52596V8.52939M4.38065 8.52939V8.53281M4.38065 8.52939V8.53281M4.38065 8.53281V8.53624M4.38065 8.53281V8.53624M4.38065 8.53624V8.53966M4.38065 8.53624V8.53966M4.38065 8.53966V8.54309M4.38065 8.53966V8.54309M4.38065 8.54309V8.54651M4.38065 8.54309V8.54651M4.38065 8.54651V8.54993M4.38065 8.54651V8.54993M4.38065 8.54993V8.55336M4.38065 8.54993V8.55336M4.38065 8.55336V8.55678M4.38065 8.55336V8.55678M4.38065 8.55678V8.56021M4.38065 8.55678V8.56021M4.38065 8.56021V8.56363M4.38065 8.56021V8.56363M4.38065 8.56363V8.56705M4.38065 8.56363V8.56705M4.38065 8.56705V8.57048M4.38065 8.56705V8.57048M4.38065 8.57048V8.5739M4.38065 8.57048V8.5739M4.38065 8.5739V8.57733M4.38065 8.5739V8.57733M4.38065 8.57733V8.58075M4.38065 8.57733V8.58075M4.38065 8.58075V8.58418M4.38065 8.58075V8.58418M4.38065 8.58418V8.5876M4.38065 8.58418V8.5876M4.38065 8.5876V8.59102M4.38065 8.5876V8.59102M4.38065 8.59102V8.59445M4.38065 8.59102V8.59445M4.38065 8.59445V8.59787M4.38065 8.59445V8.59787M4.38065 8.59787V8.6013M4.38065 8.59787V8.6013M4.38065 8.6013V8.60472M4.38065 8.6013V8.60472M4.38065 8.60472V8.60815M4.38065 8.60472V8.60815M4.38065 8.60815V8.61157M4.38065 8.60815V8.61157M4.38065 8.61157V8.61499M4.38065 8.61157V8.61499M4.38065 8.61499V8.61842M4.38065 8.61499V8.61842M4.38065 8.61842V8.62184M4.38065 8.61842V8.62184M4.38065 8.62184V8.62527M4.38065 8.62184V8.62527M4.38065 8.62527V8.62869M4.38065 8.62527V8.62869M4.38065 8.62869V8.63212M4.38065 8.62869V8.63212M4.38065 8.63212V8.63554M4.38065 8.63212V8.63554M4.38065 8.63554V8.63896M4.38065 8.63554V8.63896M4.38065 8.63896V8.64239M4.38065 8.63896V8.64239M4.38065 8.64239V8.64581M4.38065 8.64239V8.64581M4.38065 8.64581V8.64924M4.38065 8.64581V8.64924M4.38065 8.64924V8.65266M4.38065 8.64924V8.65266M4.38065 8.65266V8.65608M4.38065 8.65266V8.65608M4.38065 8.65608V8.65951M4.38065 8.65608V8.65951M4.38065 8.65951V8.66293M4.38065 8.65951V8.66293M4.38065 8.66293V8.66636M4.38065 8.66293V8.66636M4.38065 8.66636V8.66978M4.38065 8.66636V8.66978M4.38065 8.66978V8.67321M4.38065 8.66978V8.67321M4.38065 8.67321V8.67663M4.38065 8.67321V8.67663M4.38065 8.67663V8.68005M4.38065 8.67663V8.68005M4.38065 8.68005V8.68348M4.38065 8.68005V8.68348M4.38065 8.68348V8.6869M4.38065 8.68348V8.6869M4.38065 8.6869V8.69033M4.38065 8.6869V8.69033M4.38065 8.69033V8.69375M4.38065 8.69033V8.69375M4.38065 8.69375V8.69718M4.38065 8.69375V8.69718M4.38065 8.69718V8.7006M4.38065 8.69718V8.7006M4.38065 8.7006V8.70402M4.38065 8.7006V8.70402M4.38065 8.70402V8.70745M4.38065 8.70402V8.70745M4.38065 8.70745V8.71087M4.38065 8.70745V8.71087M4.38065 8.71087V8.7143M4.38065 8.71087V8.7143M4.38065 8.7143V8.71772M4.38065 8.7143V8.71772M4.38065 8.71772V8.72114M4.38065 8.71772V8.72114M4.38065 8.72114V8.72457M4.38065 8.72114V8.72457M4.38065 8.72457V8.72799M4.38065 8.72457V8.72799M4.38065 8.72799V8.73142M4.38065 8.72799V8.73142M4.38065 8.73142V8.73484M4.38065 8.73142V8.73484M4.38065 8.73484V8.73827M4.38065 8.73484V8.73827M4.38065 8.73827V8.74169M4.38065 8.73827V8.74169M4.38065 8.74169V8.74511M4.38065 8.74169V8.74511M4.38065 8.74511V8.74854M4.38065 8.74511V8.74854M4.38065 8.74854V8.75196M4.38065 8.74854V8.75196M4.38065 8.75196V8.75539M4.38065 8.75196V8.75539M4.38065 8.75539V8.75881M4.38065 8.75539V8.75881M4.38065 8.75881V8.76223M4.38065 8.75881V8.76223M4.38065 8.76223V8.76566M4.38065 8.76223V8.76566M4.38065 8.76566V8.76908M4.38065 8.76566V8.76908M4.38065 8.76908V8.77251M4.38065 8.76908V8.77251M4.38065 8.77251V8.77593M4.38065 8.77251V8.77593M4.38065 8.77593V8.77936M4.38065 8.77593V8.77936M4.38065 8.77936V8.78278M4.38065 8.77936V8.78278M4.38065 8.78278V8.7862M4.38065 8.78278V8.7862M4.38065 8.7862V8.78963M4.38065 8.7862V8.78963M4.38065 8.78963V8.79305M4.38065 8.78963V8.79305M4.38065 8.79305V8.79648M4.38065 8.79305V8.79648M4.38065 8.79648V8.7999M4.38065 8.79648V8.7999M4.38065 8.7999V8.80332M4.38065 8.7999V8.80332M4.38065 8.80332V8.80675M4.38065 8.80332V8.80675M4.38065 8.80675V8.81017M4.38065 8.80675V8.81017M4.38065 8.81017V8.8136M4.38065 8.81017V8.8136M4.38065 8.8136V8.81702M4.38065 8.8136V8.81702M4.38065 8.81702V8.82044M4.38065 8.81702V8.82044M4.38065 8.82044V8.82387M4.38065 8.82044V8.82387M4.38065 8.82387V8.82729M4.38065 8.82387V8.82729M4.38065 8.82729V8.83072M4.38065 8.82729V8.83072M4.38065 8.83072V8.83414M4.38065 8.83072V8.83414M4.38065 8.83414V8.83757M4.38065 8.83414V8.83757M4.38065 8.83757V8.84099M4.38065 8.83757V8.84099M4.38065 8.84099V8.84441M4.38065 8.84099V8.84441M4.38065 8.84441V8.84784M4.38065 8.84441V8.84784M4.38065 8.84784V8.85126M4.38065 8.84784V8.85126M4.38065 8.85126V8.85469M4.38065 8.85126V8.85469M4.38065 8.85469V8.85811M4.38065 8.85469V8.85811M4.38065 8.85811V8.86153M4.38065 8.85811V8.86153M4.38065 8.86153V8.86496M4.38065 8.86153V8.86496M4.38065 8.86496V8.86838M4.38065 8.86496V8.86838M4.38065 8.86838V8.87181M4.38065 8.86838V8.87181M4.38065 8.87181V8.87523M4.38065 8.87181V8.87523M4.38065 8.87523V8.87865M4.38065 8.87523V8.87865M4.38065 8.87865V8.88208M4.38065 8.87865V8.88208M4.38065 8.88208V8.8855M4.38065 8.88208V8.8855M4.38065 8.8855V8.88893M4.38065 8.8855V8.88893M4.38065 8.88893V8.89235M4.38065 8.88893V8.89235M4.38065 8.89235V8.89578M4.38065 8.89235V8.89578M4.38065 8.89578V8.8992M4.38065 8.89578V8.8992M4.38065 8.8992V8.90262M4.38065 8.8992V8.90262M4.38065 8.90262V8.90605M4.38065 8.90262V8.90605M4.38065 8.90605V8.90947M4.38065 8.90605V8.90947M4.38065 8.90947V8.9129M4.38065 8.90947V8.9129M4.38065 8.9129V8.91632M4.38065 8.9129V8.91632M4.38065 8.91632V8.91974M4.38065 8.91632V8.91974M4.38065 8.91974V8.92317M4.38065 8.91974V8.92317M4.38065 8.92317V8.92659M4.38065 8.92317V8.92659M4.38065 8.92659V8.93002M4.38065 8.92659V8.93002M4.38065 8.93002V8.93344M4.38065 8.93002V8.93344M4.38065 8.93344V8.93686M4.38065 8.93344V8.93686M4.38065 8.93686V8.94029M4.38065 8.93686V8.94029M4.38065 8.94029V8.94371M4.38065 8.94029V8.94371M4.38065 8.94371V8.94714M4.38065 8.94371V8.94714M4.38065 8.94714V8.95056M4.38065 8.94714V8.95056M4.38065 8.95056V8.95398M4.38065 8.95056V8.95398M4.38065 8.95398V8.95741M4.38065 8.95398V8.95741M4.38065 8.95741V8.96083M4.38065 8.95741V8.96083M4.38065 8.96083V8.96426M4.38065 8.96083V8.96426M4.38065 8.96426V8.96768M4.38065 8.96426V8.96768M4.38065 8.96768V8.97111M4.38065 8.96768V8.97111M4.38065 8.97111V8.97453M4.38065 8.97111V8.97453M4.38065 8.97453V8.97795M4.38065 8.97453V8.97795M4.38065 8.97795V8.98138M4.38065 8.97795V8.98138M4.38065 8.98138V8.9848M4.38065 8.98138V8.9848M4.38065 8.9848V8.98823M4.38065 8.9848V8.98823M4.38065 8.98823V8.99165M4.38065 8.98823V8.99165M4.38065 8.99165V8.99507M4.38065 8.99165V8.99507M4.38065 8.99507V8.9985M4.38065 8.99507V8.9985M4.38065 8.9985V9.00192M4.38065 8.9985V9.00192M4.38065 9.00192V9.00535M4.38065 9.00192V9.00535M4.38065 9.00535V9.00877M4.38065 9.00535V9.00877M4.38065 9.00877V9.01219M4.38065 9.00877V9.01219M4.38065 9.01219V9.01562M4.38065 9.01219V9.01562M4.38065 9.01562V9.01904M4.38065 9.01562V9.01904M4.38065 9.01904V9.02247M4.38065 9.01904V9.02247M4.38065 9.02247V9.02589M4.38065 9.02247V9.02589M4.38065 9.02589V9.02931M4.38065 9.02589V9.02931M4.38065 9.02931V9.03274M4.38065 9.02931V9.03274M4.38065 9.03274V9.03616M4.38065 9.03274V9.03616M4.38065 9.03616V9.03959M4.38065 9.03616V9.03959M4.38065 9.03959V9.04301M4.38065 9.03959V9.04301M4.38065 9.04301V9.04643M4.38065 9.04301V9.04643M4.38065 9.04643V9.04986M4.38065 9.04643V9.04986M4.38065 9.04986V9.05328M4.38065 9.04986V9.05328M4.38065 9.05328V9.05671M4.38065 9.05328V9.05671M4.38065 9.05671V9.06013M4.38065 9.05671V9.06013M4.38065 9.06013V9.06355M4.38065 9.06013V9.06355M4.38065 9.06355V9.06698M4.38065 9.06355V9.06698M4.38065 9.06698V9.0704M4.38065 9.06698V9.0704M4.38065 9.0704V9.07383M4.38065 9.0704V9.07383M4.38065 9.07383V9.07725M4.38065 9.07383V9.07725M4.38065 9.07725V9.08067M4.38065 9.07725V9.08067M4.38065 9.08067V9.0841M4.38065 9.08067V9.0841M4.38065 9.0841V9.08752M4.38065 9.0841V9.08752M4.38065 9.08752V9.09095M4.38065 9.08752V9.09095M4.38065 9.09095V9.09437M4.38065 9.09095V9.09437M4.38065 9.09437V9.09779M4.38065 9.09437V9.09779M4.38065 9.09779V9.10122M4.38065 9.09779V9.10122M4.38065 9.10122V9.10464M4.38065 9.10122V9.10464M4.38065 9.10464V9.10807M4.38065 9.10464V9.10807M4.38065 9.10807V9.11149M4.38065 9.10807V9.11149M4.38065 9.11149V9.11491M4.38065 9.11149V9.11491M4.38065 9.11491V9.11834M4.38065 9.11491V9.11834M4.38065 9.11834V9.12176M4.38065 9.11834V9.12176M4.38065 9.12176V9.12519M4.38065 9.12176V9.12519M4.38065 9.12519V9.12861M4.38065 9.12519V9.12861M4.38065 9.12861V9.13203M4.38065 9.12861V9.13203M4.38065 9.13203V9.13546M4.38065 9.13203V9.13546M4.38065 9.13546V9.13888M4.38065 9.13546V9.13888M4.38065 9.13888V9.14231M4.38065 9.13888V9.14231M4.38065 9.14231V9.14573M4.38065 9.14231V9.14573M4.38065 9.14573V9.14915M4.38065 9.14573V9.14915M4.38065 9.14915V9.15258M4.38065 9.14915V9.15258M4.38065 9.15258V9.156M4.38065 9.15258V9.156M4.38065 9.156V9.15943M4.38065 9.156V9.15943M4.38065 9.15943V9.16285M4.38065 9.15943V9.16285M4.38065 9.16285V9.16627M4.38065 9.16285V9.16627M4.38065 9.16627V9.1697M4.38065 9.16627V9.1697M4.38065 9.1697V9.17312M4.38065 9.1697V9.17312M4.38065 9.17312V9.17655M4.38065 9.17312V9.17655M4.38065 9.17655V9.17997M4.38065 9.17655V9.17997M4.38065 9.17997V9.18339M4.38065 9.17997V9.18339M4.38065 9.18339V9.18682M4.38065 9.18339V9.18682M4.38065 9.18682V9.19024M4.38065 9.18682V9.19024M4.38065 9.19024V9.19367M4.38065 9.19024V9.19367M4.38065 9.19367V9.19709M4.38065 9.19367V9.19709M4.38065 9.19709V9.20051M4.38065 9.19709V9.20051M4.38065 9.20051V9.20394M4.38065 9.20051V9.20394M4.38065 9.20394V9.20736M4.38065 9.20394V9.20736M4.38065 9.20736V9.21079M4.38065 9.20736V9.21079M4.38065 9.21079V9.21421M4.38065 9.21079V9.21421M4.38065 9.21421V9.21763M4.38065 9.21421V9.21763M4.38065 9.21763V9.22106M4.38065 9.21763V9.22106M4.38065 9.22106V9.22448M4.38065 9.22106V9.22448M4.38065 9.22448V9.22791M4.38065 9.22448V9.22791M4.38065 9.22791V9.23133M4.38065 9.22791V9.23133M4.38065 9.23133V9.23475M4.38065 9.23133V9.23475M4.38065 9.23475V9.23818M4.38065 9.23475V9.23818M4.38065 9.23818V9.2416M4.38065 9.23818V9.2416M4.38065 9.2416V9.24502M4.38065 9.2416V9.24502M4.38065 9.24502V9.24845M4.38065 9.24502V9.24845M4.38065 9.24845V9.25187M4.38065 9.24845V9.25187M4.38065 9.25187V9.2553M4.38065 9.25187V9.2553M4.38065 9.2553V9.25872M4.38065 9.2553V9.25872M4.38065 9.25872V9.26214M4.38065 9.25872V9.26214M4.38065 9.26214V9.26557M4.38065 9.26214V9.26557M4.38065 9.26557V9.26899M4.38065 9.26557V9.26899M4.38065 9.26899V9.27242M4.38065 9.26899V9.27242M4.38065 9.27242V9.27584M4.38065 9.27242V9.27584M4.38065 9.27584V9.27926M4.38065 9.27584V9.27926M4.38065 9.27926V9.28269M4.38065 9.27926V9.28269M4.38065 9.28269V9.28611M4.38065 9.28269V9.28611M4.38065 9.28611V9.28954M4.38065 9.28611V9.28954M4.38065 9.28954V9.29296M4.38065 9.28954V9.29296M4.38065 9.29296V9.29638M4.38065 9.29296V9.29638M4.38065 9.29638V9.29981M4.38065 9.29638V9.29981M4.38065 9.29981V9.30323M4.38065 9.29981V9.30323M4.38065 9.30323V9.30666M4.38065 9.30323V9.30666M4.38065 9.30666V9.31008M4.38065 9.30666V9.31008M4.38065 9.31008V9.3135M4.38065 9.31008V9.3135M4.38065 9.3135V9.31693M4.38065 9.3135V9.31693M4.38065 9.31693V9.32035M4.38065 9.31693V9.32035M4.38065 9.32035V9.32377M4.38065 9.32035V9.32377M4.38065 9.32377V9.3272M4.38065 9.32377V9.3272M4.38065 9.3272V9.33062M4.38065 9.3272V9.33062M4.38065 9.33062V9.33405M4.38065 9.33062V9.33405M4.38065 9.33405V9.33747M4.38065 9.33405V9.33747M4.38065 9.33747V9.34089M4.38065 9.33747V9.34089M4.38065 9.34089V9.34432M4.38065 9.34089V9.34432M4.38065 9.34432V9.34774M4.38065 9.34432V9.34774M4.38065 9.34774V9.35117M4.38065 9.34774V9.35117M4.38065 9.35117V9.35459M4.38065 9.35117V9.35459M4.38065 9.35459V9.35801M4.38065 9.35459V9.35801M4.38065 9.35801V9.36144M4.38065 9.35801V9.36144M4.38065 9.36144V9.36486M4.38065 9.36144V9.36486M4.38065 9.36486V9.36829M4.38065 9.36486V9.36829M4.38065 9.36829V9.37171M4.38065 9.36829V9.37171M4.38065 9.37171V9.37513M4.38065 9.37171V9.37513M4.38065 9.37513V9.37856M4.38065 9.37513V9.37856M4.38065 9.37856V9.38198M4.38065 9.37856V9.38198M4.38065 9.38198V9.3854M4.38065 9.38198V9.3854M4.38065 9.3854V9.38883M4.38065 9.3854V9.38883M4.38065 9.38883V9.39225M4.38065 9.38883V9.39225M4.38065 9.39225V9.39568M4.38065 9.39225V9.39568M4.38065 9.39568V9.3991M4.38065 9.39568V9.3991M4.38065 9.3991V9.40252M4.38065 9.3991V9.40252M4.38065 9.40252V9.40595M4.38065 9.40252V9.40595M4.38065 9.40595V9.40937M4.38065 9.40595V9.40937M4.38065 9.40937V9.4128M4.38065 9.40937V9.4128M4.38065 9.4128V9.41622M4.38065 9.4128V9.41622M4.38065 9.41622V9.41964M4.38065 9.41622V9.41964M4.38065 9.41964V9.42307M4.38065 9.41964V9.42307M4.38065 9.42307V9.42649M4.38065 9.42307V9.42649M4.38065 9.42649V9.42991M4.38065 9.42649V9.42991M4.38065 9.42991V9.43334M4.38065 9.42991V9.43334M4.38065 9.43334V9.43676M4.38065 9.43334V9.43676M4.38065 9.43676V9.44019M4.38065 9.43676V9.44019M4.38065 9.44019V9.44361M4.38065 9.44019V9.44361M4.38065 9.44361V9.44703M4.38065 9.44361V9.44703M4.38065 9.44703V9.45046M4.38065 9.44703V9.45046M4.38065 9.45046V9.45388M4.38065 9.45046V9.45388M4.38065 9.45388V9.45731M4.38065 9.45388V9.45731M4.38065 9.45731V9.46073M4.38065 9.45731V9.46073M4.38065 9.46073V9.46415M4.38065 9.46073V9.46415M4.38065 9.46415V9.46758M4.38065 9.46415V9.46758M4.38065 9.46758V9.471M4.38065 9.46758V9.471M4.38065 9.471V9.47442M4.38065 9.471V9.47442M4.38065 9.47442V9.47785M4.38065 9.47442V9.47785M4.38065 9.47785V9.48127M4.38065 9.47785V9.48127M4.38065 9.48127V9.4847M4.38065 9.48127V9.4847M4.38065 9.4847V9.48812M4.38065 9.4847V9.48812M4.38065 9.48812V9.49154M4.38065 9.48812V9.49154M4.38065 9.49154V9.49497M4.38065 9.49154V9.49497M4.38065 9.49497V9.49839M4.38065 9.49497V9.49839M4.38065 9.49839V9.50182M4.38065 9.49839V9.50182M4.38065 9.50182V9.50524M4.38065 9.50182V9.50524M4.38065 9.50524V9.50866M4.38065 9.50524V9.50866M4.38065 9.50866V9.51209M4.38065 9.50866V9.51209M4.38065 9.51209V9.51551M4.38065 9.51209V9.51551M4.38065 9.51551V9.51893M4.38065 9.51551V9.51893M4.38065 9.51893V9.52236M4.38065 9.51893V9.52236M4.38065 9.52236V9.52578M4.38065 9.52236V9.52578M4.38065 9.52578V9.52921M4.38065 9.52578V9.52921M4.38065 9.52921V9.53263M4.38065 9.52921V9.53263M4.38065 9.53263V9.53605M4.38065 9.53263V9.53605M4.38065 9.53605V9.53948M4.38065 9.53605V9.53948M4.38065 9.53948V9.5429M4.38065 9.53948V9.5429M4.38065 9.5429V9.54632M4.38065 9.5429V9.54632M4.38065 9.54632V9.54975M4.38065 9.54632V9.54975M4.38065 9.54975V9.55317M4.38065 9.54975V9.55317M4.38065 9.55317V9.5566M4.38065 9.55317V9.5566M4.38065 9.5566V9.56002M4.38065 9.5566V9.56002M4.38065 9.56002V9.56344M4.38065 9.56002V9.56344M4.38065 9.56344V9.56687M4.38065 9.56344V9.56687M4.38065 9.56687V9.57029M4.38065 9.56687V9.57029M4.38065 9.57029V9.57372M4.38065 9.57029V9.57372M4.38065 9.57372V9.57714M4.38065 9.57372V9.57714M4.38065 9.57714V9.58056M4.38065 9.57714V9.58056M4.38065 9.58056V9.58399M4.38065 9.58056V9.58399M4.38065 9.58399V9.58741M4.38065 9.58399V9.58741M4.38065 9.58741V9.59083M4.38065 9.58741V9.59083M4.38065 9.59083V9.59426M4.38065 9.59083V9.59426M4.38065 9.59426V9.59768M4.38065 9.59426V9.59768M4.38065 9.59768V9.60111M4.38065 9.59768V9.60111M4.38065 9.60111V9.60453M4.38065 9.60111V9.60453M4.38065 9.60453V9.60795M4.38065 9.60453V9.60795M4.38065 9.60795V9.61138M4.38065 9.60795V9.61138M4.38065 9.61138V9.6148M4.38065 9.61138V9.6148M4.38065 9.6148V9.61822M4.38065 9.6148V9.61822M4.38065 9.61822V9.62165M4.38065 9.61822V9.62165M4.38065 9.62165V9.62507M4.38065 9.62165V9.62507M4.38065 9.62507V9.6285M4.38065 9.62507V9.6285M4.38065 9.6285V9.63192M4.38065 9.6285V9.63192M4.38065 9.63192V9.63534M4.38065 9.63192V9.63534M4.38065 9.63534V9.63877M4.38065 9.63534V9.63877M4.38065 9.63877V9.64219M4.38065 9.63877V9.64219M4.38065 9.64219V9.64561M4.38065 9.64219V9.64561M4.38065 9.64561V9.64904M4.38065 9.64561V9.64904M4.38065 9.64904V9.65246M4.38065 9.64904V9.65246M4.38065 9.65246V9.65589M4.38065 9.65246V9.65589M4.38065 9.65589V9.65931M4.38065 9.65589V9.65931M4.38065 9.65931V9.66273M4.38065 9.65931V9.66273M4.38065 9.66273V9.66616M4.38065 9.66273V9.66616M4.38065 9.66616V9.66958M4.38065 9.66616V9.66958M4.38065 9.66958V9.673M4.38065 9.66958V9.673M4.38065 9.673V9.67643M4.38065 9.673V9.67643M4.38065 9.67643V9.67985M4.38065 9.67643V9.67985M4.38065 9.67985V9.68328M4.38065 9.67985V9.68328M4.38065 9.68328V9.6867M4.38065 9.68328V9.6867M4.38065 9.6867V9.69012M4.38065 9.6867V9.69012M4.38065 9.69012V9.69355M4.38065 9.69012V9.69355M4.38065 9.69355V9.69697M4.38065 9.69355V9.69697M4.38065 9.69697V9.70039M4.38065 9.69697V9.70039M4.38065 9.70039V9.70382M4.38065 9.70039V9.70382M4.38065 9.70382V9.70724M4.38065 9.70382V9.70724M4.38065 9.70724V9.71067M4.38065 9.70724V9.71067M4.38065 9.71067V9.71409M4.38065 9.71067V9.71409M4.38065 9.71409V9.71751M4.38065 9.71409V9.71751M4.38065 9.71751V9.72094M4.38065 9.71751V9.72094M4.38065 9.72094V9.72436M4.38065 9.72094V9.72436M4.38065 9.72436V9.72778M4.38065 9.72436V9.72778M4.38065 9.72778V9.73121M4.38065 9.72778V9.73121M4.38065 9.73121V9.73463M4.38065 9.73121V9.73463M4.38065 9.73463V9.73805M4.38065 9.73463V9.73805M4.38065 9.73805V9.74148M4.38065 9.73805V9.74148M4.38065 9.74148V9.7449M4.38065 9.74148V9.7449M4.38065 9.7449V9.74833M4.38065 9.7449V9.74833M4.38065 9.74833V9.75175M4.38065 9.74833V9.75175M4.38065 9.75175V9.75517M4.38065 9.75175V9.75517M4.38065 9.75517V9.7586M4.38065 9.75517V9.7586M4.38065 9.7586V9.76202M4.38065 9.7586V9.76202M4.38065 9.76202V9.76544M4.38065 9.76202V9.76544M4.38065 9.76544V9.76887M4.38065 9.76544V9.76887M4.38065 9.76887V9.77229M4.38065 9.76887V9.77229M4.38065 9.77229V9.77572M4.38065 9.77229V9.77572M4.38065 9.77572V9.77914M4.38065 9.77572V9.77914M4.38065 9.77914V9.78256M4.38065 9.77914V9.78256M4.38065 9.78256V9.78599M4.38065 9.78256V9.78599M4.38065 9.78599V9.78941M4.38065 9.78599V9.78941M4.38065 9.78941V9.79283M4.38065 9.78941V9.79283M4.38065 9.79283V9.79626M4.38065 9.79283V9.79626M4.38065 9.79626V9.79968M4.38065 9.79626V9.79968M4.38065 9.79968V9.80311M4.38065 9.79968V9.80311M4.38065 9.80311V9.80653M4.38065 9.80311V9.80653M4.38065 9.80653V9.80995M4.38065 9.80653V9.80995M4.38065 9.80995V9.81338M4.38065 9.80995V9.81338M4.38065 9.81338V9.8168M4.38065 9.81338V9.8168M4.38065 9.8168V9.82022M4.38065 9.8168V9.82022M4.38065 9.82022V9.82365M4.38065 9.82022V9.82365M4.38065 9.82365V9.82707M4.38065 9.82365V9.82707M4.38065 9.82707V9.83049M4.38065 9.82707V9.83049M4.38065 9.83049V9.83392M4.38065 9.83049V9.83392M4.38065 9.83392V9.83734M4.38065 9.83392V9.83734M4.38065 9.83734V9.84077M4.38065 9.83734V9.84077M4.38065 9.84077V9.84419M4.38065 9.84077V9.84419M4.38065 9.84419V9.84761M4.38065 9.84419V9.84761M4.38065 9.84761V9.85104M4.38065 9.84761V9.85104M4.38065 9.85104V9.85446M4.38065 9.85104V9.85446M4.38065 9.85446V9.85788M4.38065 9.85446V9.85788M4.38065 9.85788V9.86131M4.38065 9.85788V9.86131M4.38065 9.86131V9.86473M4.38065 9.86131V9.86473M4.38065 9.86473V9.86815M4.38065 9.86473V9.86815M4.38065 9.86815V9.87158M4.38065 9.86815V9.87158M4.38065 9.87158V9.875M4.38065 9.87158V9.875M4.38065 9.875V9.87843M4.38065 9.875V9.87843M4.38065 9.87843V9.88185M4.38065 9.87843V9.88185M4.38065 9.88185V9.88527M4.38065 9.88185V9.88527M4.38065 9.88527V9.8887M4.38065 9.88527V9.8887M4.38065 9.8887V9.89212M4.38065 9.8887V9.89212M4.38065 9.89212V9.89554M4.38065 9.89212V9.89554M4.38065 9.89554V9.89897M4.38065 9.89554V9.89897M4.38065 9.89897V9.90239M4.38065 9.89897V9.90239M4.38065 9.90239V9.90581M4.38065 9.90239V9.90581M4.38065 9.90581V9.90924M4.38065 9.90581V9.90924M4.38065 9.90924V9.91266M4.38065 9.90924V9.91266M4.38065 9.91266V9.91609M4.38065 9.91266V9.91609M4.38065 9.91609V9.91951M4.38065 9.91609V9.91951M4.38065 9.91951V9.92293M4.38065 9.91951V9.92293M4.38065 9.92293V9.92636M4.38065 9.92293V9.92636M4.38065 9.92636V9.92978M4.38065 9.92636V9.92978M4.38065 9.92978V9.9332M4.38065 9.92978V9.9332M4.38065 9.9332V9.93663M4.38065 9.9332V9.93663M4.38065 9.93663V9.94005M4.38065 9.93663V9.94005M4.38065 9.94005V9.94347M4.38065 9.94005V9.94347M4.38065 9.94347V9.9469M4.38065 9.94347V9.9469M4.38065 9.9469V9.95032M4.38065 9.9469V9.95032M4.38065 9.95032V9.95375M4.38065 9.95032V9.95375M4.38065 9.95375V9.95717M4.38065 9.95375V9.95717M4.38065 9.95717V9.96059M4.38065 9.95717V9.96059M4.38065 9.96059V9.96402V9.96059ZM3.13965 10.2849L2.0126 10.2847L3.13965 10.2849ZM4.26276 10.6333H4.26277C4.40577 10.6333 4.52203 10.5961 4.60192 10.5127C4.68143 10.4297 4.71667 10.3096 4.71667 10.1616V10.1582V10.1548V10.1514V10.148V10.1446V10.1412V10.1378V10.1345V10.1311V10.1277V10.1243V10.1209V10.1175V10.1141V10.1107V10.1073V10.104V10.1006V10.0972V10.0938V10.0904V10.087V10.0836V10.0802V10.0768V10.0735V10.0701V10.0667V10.0633V10.0599V10.0565V10.0531V10.0497V10.0463V10.043V10.0396V10.0362V10.0328V10.0294V10.026V10.0226V10.0192V10.0158V10.0125V10.0091V10.0057V10.0023V9.9989V9.99551V9.99212V9.98873V9.98534V9.98195V9.97856V9.97517V9.97178V9.96839V9.965V9.96162V9.95823V9.95484V9.95145V9.94806V9.94467V9.94128V9.93789V9.9345V9.93111V9.92772V9.92433V9.92094V9.91755V9.91416V9.91077V9.90739V9.904V9.90061V9.89722V9.89383V9.89044V9.88705V9.88366V9.88027V9.87688V9.87349V9.8701V9.86671V9.86332V9.85993V9.85654V9.85315V9.84976V9.84637V9.84298V9.83959V9.8362V9.83281V9.82942V9.82604V9.82265V9.81926V9.81587V9.81248V9.80909V9.8057V9.80231V9.79892V9.79553V9.79214V9.78875V9.78536V9.78197V9.77858V9.77519V9.7718V9.76841V9.76502V9.76163V9.75824V9.75485V9.75146V9.74807V9.74468V9.74129V9.7379V9.73451V9.73112V9.72773V9.72434V9.72095V9.71756V9.71417V9.71078V9.70739V9.704V9.70061V9.69722V9.69383V9.69044V9.68705V9.68366V9.68027V9.67688V9.67349V9.6701V9.66671V9.66332V9.65993V9.65654V9.65315V9.64976V9.64637V9.64298V9.63959V9.6362V9.63281V9.62942V9.62603V9.62264V9.61925V9.61586V9.61247V9.60907V9.60568V9.60229V9.5989V9.59551V9.59212V9.58873V9.58534V9.58195V9.57856V9.57517V9.57178V9.56839V9.565V9.56161V9.55822V9.55483V9.55144V9.54805V9.54466V9.54127V9.53788V9.53449V9.5311V9.5277V9.52431V9.52092V9.51753V9.51414V9.51075V9.50736V9.50397V9.50058V9.49719V9.4938V9.49041V9.48702V9.48363V9.48024V9.47685V9.47345V9.47006V9.46667V9.46328V9.45989V9.4565V9.45311V9.44972V9.44633V9.44294V9.43955V9.43616V9.43277V9.42938V9.42598V9.42259V9.4192V9.41581V9.41242V9.40903V9.40564V9.40225V9.39886V9.39547V9.39208V9.38868V9.38529V9.3819V9.37851V9.37512V9.37173V9.36834V9.36495V9.36156V9.35817V9.35478V9.35138V9.34799V9.3446V9.34121V9.33782V9.33443V9.33104V9.32765V9.32426V9.32086V9.31747V9.31408V9.31069V9.3073V9.30391V9.30052V9.29713V9.29374V9.29034V9.28695V9.28356V9.28017V9.27678V9.27339V9.27V9.26661V9.26321V9.25982V9.25643V9.25304V9.24965V9.24626V9.24287V9.23948V9.23608V9.23269V9.2293V9.22591V9.22252V9.21913V9.21574V9.21234V9.20895V9.20556V9.20217V9.19878V9.19539V9.192V9.1886V9.18521V9.18182V9.17843V9.17504V9.17165V9.16825V9.16486V9.16147V9.15808V9.15469V9.1513V9.14791V9.14451V9.14112V9.13773V9.13434V9.13095V9.12756V9.12416V9.12077V9.11738V9.11399V9.1106V9.10721V9.10381V9.10042V9.09703V9.09364V9.09025V9.08686V9.08346V9.08007V9.07668V9.07329V9.0699V9.0665V9.06311V9.05972V9.05633V9.05294V9.04955V9.04615V9.04276V9.03937V9.03598V9.03259V9.02919V9.0258V9.02241V9.01902V9.01563V9.01223V9.00884V9.00545V9.00206V8.99867V8.99527V8.99188V8.98849V8.9851V8.98171V8.97831V8.97492V8.97153V8.96814V8.96475V8.96135V8.95796V8.95457V8.95118V8.94778V8.94439V8.941V8.93761V8.93422V8.93082V8.92743V8.92404V8.92065V8.91726V8.91386V8.91047V8.90708V8.90369V8.90029V8.8969V8.89351V8.89012V8.88672V8.88333V8.87994V8.87655V8.87316V8.86976V8.86637V8.86298V8.85959V8.85619V8.8528V8.84941V8.84602V8.84262V8.83923V8.83584V8.83245V8.82905V8.82566V8.82227V8.81888V8.81548V8.81209V8.8087V8.80531V8.80191V8.79852V8.79513V8.79174V8.78834V8.78495V8.78156V8.77817V8.77477V8.77138V8.76799V8.76459V8.7612V8.75781V8.75442V8.75102V8.74763V8.74424V8.74085V8.73745V8.73406V8.73067V8.72727V8.72388V8.72049V8.7171V8.7137V8.71031V8.70692V8.70353V8.70013V8.69674V8.69335V8.68995V8.68656V8.68317V8.67978V8.67638V8.67299V8.6696V8.6662V8.66281V8.65942V8.65602V8.65263V8.64924V8.64585V8.64245V8.63906V8.63567V8.63227V8.62888V8.62549V8.62209V8.6187V8.61531V8.61192V8.60852V8.60513V8.60174V8.59834V8.59495V8.59156V8.58816V8.58477V8.58138V8.57798V8.57459V8.5712V8.5678V8.56441V8.56102V8.55762V8.55423V8.55084V8.54744V8.54405V8.54066V8.53726V8.53387V8.53048V8.52709V8.52369V8.5203V8.51691V8.51351V8.51012V8.50672V8.50333V8.49994V8.49654V8.49315V8.48976V8.48636V8.48297V8.47958V8.47618V8.47279V8.4694V8.466V8.46261V8.45922V8.45582V8.45243V8.44904V8.44564V8.44225V8.43886V8.43546V8.43207V8.42867V8.42528C4.71667 8.27623 4.68206 8.15531 4.60338 8.07171C4.52415 7.98754 4.40858 7.95 4.26611 7.95H4.26171H4.25731H4.25292H4.24852H4.24412H4.23972H4.23532H4.23092H4.22652H4.22212H4.21773H4.21333H4.20893H4.20453H4.20013H4.19573H4.19133H4.18693H4.18254H4.17814H4.17374H4.16934H4.16494H4.16054H4.15614H4.15175H4.14735H4.14295H4.13855H4.13415H4.12975H4.12535H4.12095H4.11656H4.11216H4.10776H4.10336H4.09896H4.09456H4.09016H4.08577H4.08137H4.07697H4.07257H4.06817H4.06377H4.05937H4.05498H4.05058H4.04618H4.04178H4.03738H4.03298H4.02858H4.02418H4.01979H4.01539H4.01099H4.00659H4.00219H3.99779H3.99339H3.989H3.9846H3.9802H3.9758H3.9714H3.967H3.9626H3.95821H3.95381H3.94941H3.94501H3.94061H3.93621H3.93181H3.92742H3.92302H3.91862H3.91422H3.90982H3.90542H3.90102H3.89663H3.89223H3.88783H3.88343H3.87903H3.87463H3.87023H3.86583H3.86144H3.85704H3.85264H3.84824H3.84384H3.83944H3.83504H3.83065H3.82625H3.82185H3.81745H3.81305H3.80865H3.80426H3.79986H3.79546H3.79106H3.78666H3.78226H3.77786H3.77347H3.76907H3.76467H3.76027H3.75587H3.75147H3.74707H3.74268H3.73828H3.73388H3.72948H3.72508H3.72068H3.71628H3.71189H3.70749H3.70309H3.69869H3.69429H3.68989H3.68549H3.6811H3.6767H3.6723H3.6679H3.6635H3.6591H3.65471H3.65031H3.64591H3.64151H3.63711H3.63271H3.62831H3.62392H3.61952H3.61512H3.61072H3.60632H3.60192H3.59752H3.59313H3.58873H3.58433H3.57993H3.57553H3.57113H3.56674H3.56234H3.55794H3.55354H3.54914H3.54474H3.54034H3.53595H3.53155H3.52715H3.52275H3.51835H3.51395H3.50956H3.50516H3.50076H3.49636H3.49196H3.48756H3.48316H3.47877H3.47437H3.46997H3.46557H3.46117H3.45677H3.45238H3.44798H3.44358H3.43918H3.43478H3.43038H3.42598H3.42159H3.41719H3.41279H3.40839H3.40399H3.39959H3.3952H3.3908H3.3864H3.382H3.3776H3.3732H3.36881H3.36441H3.36001H3.35561H3.35121H3.34681H3.34241H3.33802H3.33362H3.32922H3.32482H3.32042H3.31602H3.31163H3.30723H3.30283H3.29843H3.29403H3.28963H3.28524H3.28084H3.27644H3.27204H3.26764H3.26324H3.25885H3.25445H3.25005H3.24565H3.24125H3.23685H3.23246H3.22806H3.22366H3.21926H3.21486H3.21046H3.20607H3.20167H3.19727H3.19287H3.18847H3.18407H3.17968H3.17528H3.17088H3.16648H3.16208H3.15768H3.15329H3.14889H3.14449H3.14009H3.13569H3.13129H3.1269H3.1225H3.1181H3.1137H3.1093H3.1049H3.10051H3.09611H3.09171H3.08731H3.08291H3.07851H3.07412H3.06972H3.06532H3.06092H3.05652H3.05212H3.04773H3.04333H3.03893H3.03453H3.03013H3.02573H3.02134H3.01694H3.01254H3.00814H3.00374H2.99934H2.99495H2.99055H2.98615H2.98175H2.97735H2.97295H2.96856H2.96416H2.95976H2.95536H2.95096H2.94657H2.94217H2.93777H2.93337H2.92897H2.92457H2.92018H2.91578H2.91138H2.90698H2.90258H2.89818H2.89379H2.88939H2.88499H2.88059H2.87619H2.87179H2.8674H2.863H2.8586H2.8542H2.8498H2.84541H2.84101H2.83661H2.83221H2.82781H2.82341H2.81902H2.81462H2.81022H2.80582H2.80142H2.79702H2.79263H2.78823H2.78383H2.77943H2.77503H2.77064H2.76624H2.76184H2.75744H2.75304H2.74864H2.74425H2.73985H2.73545H2.73105H2.72665H2.72226H2.71786H2.71346H2.70906H2.70466H2.70026H2.69587H2.69147H2.68707H2.68267H2.67827H2.67388H2.66948H2.66508H2.66068H2.65628H2.65188H2.64749H2.64309H2.63869H2.63429H2.62989H2.6255H2.6211H2.6167H2.6123H2.6079H2.6035H2.59911H2.59471H2.59031H2.58591H2.58151H2.57712H2.57272H2.56832H2.56392H2.55952H2.55513H2.55073H2.54633H2.54193H2.53753H2.53313H2.52874H2.52434H2.51994H2.51554H2.51114H2.50675H2.50235H2.49795H2.49355H2.48915H2.48476H2.48036H2.47596H2.47156H2.46716H2.46276H2.45837H2.45397H2.44957H2.44517H2.44077H2.43638H2.43198H2.42758H2.42318H2.41878H2.41439H2.40999H2.40559H2.40119H2.39679H2.3924H2.388H2.3836H2.3792H2.3748H2.37041H2.36601H2.36161H2.35721H2.35281H2.34841H2.34402H2.33962H2.33522H2.33082H2.32642H2.32203H2.31763H2.31323H2.30883H2.30443H2.30004H2.29564H2.29124H2.28684H2.28244H2.27805H2.27365H2.26925H2.26485H2.26045H2.25606H2.25166H2.24726H2.24286H2.23846H2.23407H2.22967H2.22527H2.22087H2.21647H2.21208H2.20768H2.20328H2.19888H2.19448H2.19009H2.18569H2.18129H2.17689H2.17249H2.1681H2.1637H2.1593H2.1549H2.1505H2.14611H2.14171H2.13731H2.13291H2.12851H2.12412H2.11972H2.11532H2.11092H2.10652H2.10213H2.09773H2.09333H2.08893H2.08453H2.08014H2.07574H2.07134H2.06694H2.06254H2.05815H2.05375H2.04935H2.04495H2.04055H2.03616H2.03176H2.02736H2.02296H2.01856H2.01417C1.87795 7.95 1.76575 7.98913 1.68809 8.07177C1.61091 8.15389 1.575 8.27142 1.575 8.4137V8.41713V8.42057V8.42401V8.42744V8.43088V8.43432V8.43775V8.44119V8.44463V8.44806V8.4515V8.45493V8.45837V8.46181V8.46524V8.46868V8.47212V8.47555V8.47899V8.48243V8.48586V8.4893V8.49274V8.49617V8.49961V8.50305V8.50648V8.50992V8.51335V8.51679V8.52023V8.52366V8.5271V8.53054V8.53397V8.53741V8.54085V8.54428V8.54772V8.55116V8.55459V8.55803V8.56147V8.5649V8.56834V8.57178V8.57521V8.57865V8.58208V8.58552V8.58896V8.59239V8.59583V8.59927V8.6027V8.60614V8.60958V8.61301V8.61645V8.61989V8.62332V8.62676V8.6302V8.63363V8.63707V8.64051V8.64394V8.64738V8.65082V8.65425V8.65769V8.66112V8.66456V8.668V8.67143V8.67487V8.67831V8.68174V8.68518V8.68862V8.69205V8.69549V8.69893V8.70236V8.7058V8.70924V8.71267V8.71611V8.71955V8.72298V8.72642V8.72986V8.73329V8.73673V8.74017V8.7436V8.74704V8.75048V8.75391V8.75735V8.76079V8.76422V8.76766V8.7711V8.77453V8.77797V8.78141V8.78484V8.78828V8.79171V8.79515V8.79859V8.80202V8.80546V8.8089V8.81233V8.81577V8.81921V8.82264V8.82608V8.82952V8.83295V8.83639V8.83983V8.84326V8.8467V8.85014V8.85357V8.85701V8.86045V8.86388V8.86732V8.87076V8.87419V8.87763V8.88107V8.8845V8.88794V8.89138V8.89481V8.89825V8.90169V8.90512V8.90856V8.912V8.91543V8.91887V8.92231V8.92574V8.92918V8.93262V8.93605V8.93949V8.94293V8.94636V8.9498V8.95324V8.95667V8.96011V8.96355V8.96698V8.97042V8.97386V8.97729V8.98073V8.98417V8.9876V8.99104V8.99448V8.99791V9.00135V9.00479V9.00822V9.01166V9.0151V9.01853V9.02197V9.02541V9.02884V9.03228V9.03572V9.03916V9.04259V9.04603V9.04947V9.0529V9.05634V9.05978V9.06321V9.06665V9.07009V9.07352V9.07696V9.0804V9.08383V9.08727V9.09071V9.09414V9.09758V9.10102V9.10445V9.10789V9.11133V9.11476V9.1182V9.12164V9.12507V9.12851V9.13195V9.13538V9.13882V9.14226V9.14569V9.14913V9.15257V9.156V9.15944V9.16288V9.16631V9.16975V9.17319V9.17663V9.18006V9.1835V9.18694V9.19037V9.19381V9.19725V9.20068V9.20412V9.20756V9.21099V9.21443V9.21787V9.2213V9.22474V9.22818V9.23161V9.23505V9.23849V9.24192V9.24536V9.2488V9.25223V9.25567V9.25911V9.26255V9.26598V9.26942V9.27286V9.27629V9.27973V9.28317V9.2866V9.29004V9.29348V9.29691V9.30035V9.30379V9.30722V9.31066V9.3141V9.31753V9.32097V9.32441V9.32785V9.33128V9.33472V9.33816V9.34159V9.34503V9.34847V9.3519V9.35534V9.35878V9.36221V9.36565V9.36909V9.37252V9.37596V9.3794V9.38284V9.38627V9.38971V9.39315V9.39658V9.40002V9.40346V9.40689V9.41033V9.41377V9.4172V9.42064V9.42408V9.42751V9.43095V9.43439V9.43783V9.44126V9.4447V9.44814V9.45157V9.45501V9.45845V9.46188V9.46532V9.46876V9.47219V9.47563V9.47907V9.48251V9.48594V9.48938V9.49282V9.49625V9.49969V9.50313V9.50656V9.51V9.51344V9.51687V9.52031V9.52375V9.52719V9.53062V9.53406V9.5375V9.54093V9.54437V9.54781V9.55124V9.55468V9.55812V9.56156V9.56499V9.56843V9.57187V9.5753V9.57874V9.58218V9.58561V9.58905V9.59249V9.59592V9.59936V9.6028V9.60624V9.60967V9.61311V9.61655V9.61998V9.62342V9.62686V9.63029V9.63373V9.63717V9.64061V9.64404V9.64748V9.65092V9.65435V9.65779V9.66123V9.66466V9.6681V9.67154V9.67498V9.67841V9.68185V9.68529V9.68872V9.69216V9.6956V9.69903V9.70247V9.70591V9.70935V9.71278V9.71622V9.71966V9.72309V9.72653V9.72997V9.73341V9.73684V9.74028V9.74372V9.74715V9.75059V9.75403V9.75746V9.7609V9.76434V9.76778V9.77121V9.77465V9.77809V9.78152V9.78496V9.7884V9.79184V9.79527V9.79871V9.80215V9.80558V9.80902V9.81246V9.81589V9.81933V9.82277V9.82621V9.82964V9.83308V9.83652V9.83995V9.84339V9.84683V9.85027V9.8537V9.85714V9.86058V9.86401V9.86745V9.87089V9.87433V9.87776V9.8812V9.88464V9.88807V9.89151V9.89495V9.89839V9.90182V9.90526V9.9087V9.91213V9.91557V9.91901V9.92245V9.92588V9.92932V9.93276V9.93619V9.93963V9.94307V9.9465V9.94994V9.95338V9.95682V9.96025V9.96369V9.96713V9.97056V9.974V9.97744V9.98088V9.98431V9.98775V9.99119V9.99463V9.99806V10.0015V10.0049V10.0084V10.0118V10.0152V10.0187V10.0221V10.0256V10.029V10.0324V10.0359V10.0393V10.0427V10.0462V10.0496V10.0531V10.0565V10.0599V10.0634V10.0668V10.0702V10.0737V10.0771V10.0806V10.084V10.0874V10.0909V10.0943V10.0977V10.1012V10.1046V10.1081V10.1115V10.1149V10.1184V10.1218V10.1252V10.1287V10.1321V10.1356V10.139V10.1424V10.1459V10.1493V10.1527V10.1562V10.1596V10.163V10.1665V10.1699V10.1734C1.575 10.314 1.61153 10.4306 1.68949 10.5122C1.76779 10.5941 1.88071 10.6331 2.0177 10.6331H3.14357H3.14358L4.26276 10.6333ZM2.0126 10.2847H2.0126V10.3347L2.0126 10.2847Z" fill="#662E93" stroke="#662E93" stroke-width="0.1"/>
<path d="M6.74391 10.2849H7.86229C7.92367 10.2849 7.94207 10.2754 7.94953 10.2675C7.95808 10.2583 7.96722 10.236 7.96722 10.1694L6.74391 10.2849ZM6.74391 10.2849H6.7439M6.74391 10.2849H6.7439M7.96722 8.41981V8.41639V8.41981ZM7.96722 8.41981V8.42324M7.96722 8.41981V8.42324M7.96722 8.42324V8.42666M7.96722 8.42324V8.42666M7.96722 8.42666V8.43008M7.96722 8.42666V8.43008M7.96722 8.43008V8.43351M7.96722 8.43008V8.43351M7.96722 8.43351V8.43693M7.96722 8.43351V8.43693M7.96722 8.43693V8.44036M7.96722 8.43693V8.44036M7.96722 8.44036V8.44378M7.96722 8.44036V8.44378M7.96722 8.44378V8.44721M7.96722 8.44378V8.44721M7.96722 8.44721V8.45063M7.96722 8.44721V8.45063M7.96722 8.45063V8.45405M7.96722 8.45063V8.45405M7.96722 8.45405V8.45748M7.96722 8.45405V8.45748M7.96722 8.45748V8.4609M7.96722 8.45748V8.4609M7.96722 8.4609V8.46433M7.96722 8.4609V8.46433M7.96722 8.46433V8.46775M7.96722 8.46433V8.46775M7.96722 8.46775V8.47118M7.96722 8.46775V8.47118M7.96722 8.47118V8.4746M7.96722 8.47118V8.4746M7.96722 8.4746V8.47802M7.96722 8.4746V8.47802M7.96722 8.47802V8.48145M7.96722 8.47802V8.48145M7.96722 8.48145V8.48487M7.96722 8.48145V8.48487M7.96722 8.48487V8.4883M7.96722 8.48487V8.4883M7.96722 8.4883V8.49172M7.96722 8.4883V8.49172M7.96722 8.49172V8.49515M7.96722 8.49172V8.49515M7.96722 8.49515V8.49857M7.96722 8.49515V8.49857M7.96722 8.49857V8.50199M7.96722 8.49857V8.50199M7.96722 8.50199V8.50542M7.96722 8.50199V8.50542M7.96722 8.50542V8.50884M7.96722 8.50542V8.50884M7.96722 8.50884V8.51227M7.96722 8.50884V8.51227M7.96722 8.51227V8.51569M7.96722 8.51227V8.51569M7.96722 8.51569V8.51912M7.96722 8.51569V8.51912M7.96722 8.51912V8.52254M7.96722 8.51912V8.52254M7.96722 8.52254V8.52596M7.96722 8.52254V8.52596M7.96722 8.52596V8.52939M7.96722 8.52596V8.52939M7.96722 8.52939V8.53281M7.96722 8.52939V8.53281M7.96722 8.53281V8.53624M7.96722 8.53281V8.53624M7.96722 8.53624V8.53966M7.96722 8.53624V8.53966M7.96722 8.53966V8.54309M7.96722 8.53966V8.54309M7.96722 8.54309V8.54651M7.96722 8.54309V8.54651M7.96722 8.54651V8.54993M7.96722 8.54651V8.54993M7.96722 8.54993V8.55336M7.96722 8.54993V8.55336M7.96722 8.55336V8.55678M7.96722 8.55336V8.55678M7.96722 8.55678V8.56021M7.96722 8.55678V8.56021M7.96722 8.56021V8.56363M7.96722 8.56021V8.56363M7.96722 8.56363V8.56705M7.96722 8.56363V8.56705M7.96722 8.56705V8.57048M7.96722 8.56705V8.57048M7.96722 8.57048V8.5739M7.96722 8.57048V8.5739M7.96722 8.5739V8.57733M7.96722 8.5739V8.57733M7.96722 8.57733V8.58075M7.96722 8.57733V8.58075M7.96722 8.58075V8.58418M7.96722 8.58075V8.58418M7.96722 8.58418V8.5876M7.96722 8.58418V8.5876M7.96722 8.5876V8.59102M7.96722 8.5876V8.59102M7.96722 8.59102V8.59445M7.96722 8.59102V8.59445M7.96722 8.59445V8.59787M7.96722 8.59445V8.59787M7.96722 8.59787V8.6013M7.96722 8.59787V8.6013M7.96722 8.6013V8.60472M7.96722 8.6013V8.60472M7.96722 8.60472V8.60815M7.96722 8.60472V8.60815M7.96722 8.60815V8.61157M7.96722 8.60815V8.61157M7.96722 8.61157V8.61499M7.96722 8.61157V8.61499M7.96722 8.61499V8.61842M7.96722 8.61499V8.61842M7.96722 8.61842V8.62184M7.96722 8.61842V8.62184M7.96722 8.62184V8.62527M7.96722 8.62184V8.62527M7.96722 8.62527V8.62869M7.96722 8.62527V8.62869M7.96722 8.62869V8.63212M7.96722 8.62869V8.63212M7.96722 8.63212V8.63554M7.96722 8.63212V8.63554M7.96722 8.63554V8.63896M7.96722 8.63554V8.63896M7.96722 8.63896V8.64239M7.96722 8.63896V8.64239M7.96722 8.64239V8.64581M7.96722 8.64239V8.64581M7.96722 8.64581V8.64924M7.96722 8.64581V8.64924M7.96722 8.64924V8.65266M7.96722 8.64924V8.65266M7.96722 8.65266V8.65608M7.96722 8.65266V8.65608M7.96722 8.65608V8.65951M7.96722 8.65608V8.65951M7.96722 8.65951V8.66293M7.96722 8.65951V8.66293M7.96722 8.66293V8.66636M7.96722 8.66293V8.66636M7.96722 8.66636V8.66978M7.96722 8.66636V8.66978M7.96722 8.66978V8.67321M7.96722 8.66978V8.67321M7.96722 8.67321V8.67663M7.96722 8.67321V8.67663M7.96722 8.67663V8.68005M7.96722 8.67663V8.68005M7.96722 8.68005V8.68348M7.96722 8.68005V8.68348M7.96722 8.68348V8.6869M7.96722 8.68348V8.6869M7.96722 8.6869V8.69033M7.96722 8.6869V8.69033M7.96722 8.69033V8.69375M7.96722 8.69033V8.69375M7.96722 8.69375V8.69718M7.96722 8.69375V8.69718M7.96722 8.69718V8.7006M7.96722 8.69718V8.7006M7.96722 8.7006V8.70402M7.96722 8.7006V8.70402M7.96722 8.70402V8.70745M7.96722 8.70402V8.70745M7.96722 8.70745V8.71087M7.96722 8.70745V8.71087M7.96722 8.71087V8.7143M7.96722 8.71087V8.7143M7.96722 8.7143V8.71772M7.96722 8.7143V8.71772M7.96722 8.71772V8.72114M7.96722 8.71772V8.72114M7.96722 8.72114V8.72457M7.96722 8.72114V8.72457M7.96722 8.72457V8.72799M7.96722 8.72457V8.72799M7.96722 8.72799V8.73142M7.96722 8.72799V8.73142M7.96722 8.73142V8.73484M7.96722 8.73142V8.73484M7.96722 8.73484V8.73827M7.96722 8.73484V8.73827M7.96722 8.73827V8.74169M7.96722 8.73827V8.74169M7.96722 8.74169V8.74511M7.96722 8.74169V8.74511M7.96722 8.74511V8.74854M7.96722 8.74511V8.74854M7.96722 8.74854V8.75196M7.96722 8.74854V8.75196M7.96722 8.75196V8.75539M7.96722 8.75196V8.75539M7.96722 8.75539V8.75881M7.96722 8.75539V8.75881M7.96722 8.75881V8.76223M7.96722 8.75881V8.76223M7.96722 8.76223V8.76566M7.96722 8.76223V8.76566M7.96722 8.76566V8.76908M7.96722 8.76566V8.76908M7.96722 8.76908V8.77251M7.96722 8.76908V8.77251M7.96722 8.77251V8.77593M7.96722 8.77251V8.77593M7.96722 8.77593V8.77936M7.96722 8.77593V8.77936M7.96722 8.77936V8.78278M7.96722 8.77936V8.78278M7.96722 8.78278V8.7862M7.96722 8.78278V8.7862M7.96722 8.7862V8.78963M7.96722 8.7862V8.78963M7.96722 8.78963V8.79305M7.96722 8.78963V8.79305M7.96722 8.79305V8.79648M7.96722 8.79305V8.79648M7.96722 8.79648V8.7999M7.96722 8.79648V8.7999M7.96722 8.7999V8.80332M7.96722 8.7999V8.80332M7.96722 8.80332V8.80675M7.96722 8.80332V8.80675M7.96722 8.80675V8.81017M7.96722 8.80675V8.81017M7.96722 8.81017V8.8136M7.96722 8.81017V8.8136M7.96722 8.8136V8.81702M7.96722 8.8136V8.81702M7.96722 8.81702V8.82044M7.96722 8.81702V8.82044M7.96722 8.82044V8.82387M7.96722 8.82044V8.82387M7.96722 8.82387V8.82729M7.96722 8.82387V8.82729M7.96722 8.82729V8.83072M7.96722 8.82729V8.83072M7.96722 8.83072V8.83414M7.96722 8.83072V8.83414M7.96722 8.83414V8.83757M7.96722 8.83414V8.83757M7.96722 8.83757V8.84099M7.96722 8.83757V8.84099M7.96722 8.84099V8.84441M7.96722 8.84099V8.84441M7.96722 8.84441V8.84784M7.96722 8.84441V8.84784M7.96722 8.84784V8.85126M7.96722 8.84784V8.85126M7.96722 8.85126V8.85469M7.96722 8.85126V8.85469M7.96722 8.85469V8.85811M7.96722 8.85469V8.85811M7.96722 8.85811V8.86153M7.96722 8.85811V8.86153M7.96722 8.86153V8.86496M7.96722 8.86153V8.86496M7.96722 8.86496V8.86838M7.96722 8.86496V8.86838M7.96722 8.86838V8.87181M7.96722 8.86838V8.87181M7.96722 8.87181V8.87523M7.96722 8.87181V8.87523M7.96722 8.87523V8.87865M7.96722 8.87523V8.87865M7.96722 8.87865V8.88208M7.96722 8.87865V8.88208M7.96722 8.88208V8.8855M7.96722 8.88208V8.8855M7.96722 8.8855V8.88893M7.96722 8.8855V8.88893M7.96722 8.88893V8.89235M7.96722 8.88893V8.89235M7.96722 8.89235V8.89578M7.96722 8.89235V8.89578M7.96722 8.89578V8.8992M7.96722 8.89578V8.8992M7.96722 8.8992V8.90262M7.96722 8.8992V8.90262M7.96722 8.90262V8.90605M7.96722 8.90262V8.90605M7.96722 8.90605V8.90947M7.96722 8.90605V8.90947M7.96722 8.90947V8.9129M7.96722 8.90947V8.9129M7.96722 8.9129V8.91632M7.96722 8.9129V8.91632M7.96722 8.91632V8.91974M7.96722 8.91632V8.91974M7.96722 8.91974V8.92317M7.96722 8.91974V8.92317M7.96722 8.92317V8.92659M7.96722 8.92317V8.92659M7.96722 8.92659V8.93002M7.96722 8.92659V8.93002M7.96722 8.93002V8.93344M7.96722 8.93002V8.93344M7.96722 8.93344V8.93686M7.96722 8.93344V8.93686M7.96722 8.93686V8.94029M7.96722 8.93686V8.94029M7.96722 8.94029V8.94371M7.96722 8.94029V8.94371M7.96722 8.94371V8.94714M7.96722 8.94371V8.94714M7.96722 8.94714V8.95056M7.96722 8.94714V8.95056M7.96722 8.95056V8.95398M7.96722 8.95056V8.95398M7.96722 8.95398V8.95741M7.96722 8.95398V8.95741M7.96722 8.95741V8.96083M7.96722 8.95741V8.96083M7.96722 8.96083V8.96426M7.96722 8.96083V8.96426M7.96722 8.96426V8.96768M7.96722 8.96426V8.96768M7.96722 8.96768V8.97111M7.96722 8.96768V8.97111M7.96722 8.97111V8.97453M7.96722 8.97111V8.97453M7.96722 8.97453V8.97795M7.96722 8.97453V8.97795M7.96722 8.97795V8.98138M7.96722 8.97795V8.98138M7.96722 8.98138V8.9848M7.96722 8.98138V8.9848M7.96722 8.9848V8.98823M7.96722 8.9848V8.98823M7.96722 8.98823V8.99165M7.96722 8.98823V8.99165M7.96722 8.99165V8.99507M7.96722 8.99165V8.99507M7.96722 8.99507V8.9985M7.96722 8.99507V8.9985M7.96722 8.9985V9.00192M7.96722 8.9985V9.00192M7.96722 9.00192V9.00535M7.96722 9.00192V9.00535M7.96722 9.00535V9.00877M7.96722 9.00535V9.00877M7.96722 9.00877V9.01219M7.96722 9.00877V9.01219M7.96722 9.01219V9.01562M7.96722 9.01219V9.01562M7.96722 9.01562V9.01904M7.96722 9.01562V9.01904M7.96722 9.01904V9.02247M7.96722 9.01904V9.02247M7.96722 9.02247V9.02589M7.96722 9.02247V9.02589M7.96722 9.02589V9.02931M7.96722 9.02589V9.02931M7.96722 9.02931V9.03274M7.96722 9.02931V9.03274M7.96722 9.03274V9.03616M7.96722 9.03274V9.03616M7.96722 9.03616V9.03959M7.96722 9.03616V9.03959M7.96722 9.03959V9.04301M7.96722 9.03959V9.04301M7.96722 9.04301V9.04643M7.96722 9.04301V9.04643M7.96722 9.04643V9.04986M7.96722 9.04643V9.04986M7.96722 9.04986V9.05328M7.96722 9.04986V9.05328M7.96722 9.05328V9.05671M7.96722 9.05328V9.05671M7.96722 9.05671V9.06013M7.96722 9.05671V9.06013M7.96722 9.06013V9.06355M7.96722 9.06013V9.06355M7.96722 9.06355V9.06698M7.96722 9.06355V9.06698M7.96722 9.06698V9.0704M7.96722 9.06698V9.0704M7.96722 9.0704V9.07383M7.96722 9.0704V9.07383M7.96722 9.07383V9.07725M7.96722 9.07383V9.07725M7.96722 9.07725V9.08067M7.96722 9.07725V9.08067M7.96722 9.08067V9.0841M7.96722 9.08067V9.0841M7.96722 9.0841V9.08752M7.96722 9.0841V9.08752M7.96722 9.08752V9.09095M7.96722 9.08752V9.09095M7.96722 9.09095V9.09437M7.96722 9.09095V9.09437M7.96722 9.09437V9.09779M7.96722 9.09437V9.09779M7.96722 9.09779V9.10122M7.96722 9.09779V9.10122M7.96722 9.10122V9.10464M7.96722 9.10122V9.10464M7.96722 9.10464V9.10807M7.96722 9.10464V9.10807M7.96722 9.10807V9.11149M7.96722 9.10807V9.11149M7.96722 9.11149V9.11491M7.96722 9.11149V9.11491M7.96722 9.11491V9.11834M7.96722 9.11491V9.11834M7.96722 9.11834V9.12176M7.96722 9.11834V9.12176M7.96722 9.12176V9.12519M7.96722 9.12176V9.12519M7.96722 9.12519V9.12861M7.96722 9.12519V9.12861M7.96722 9.12861V9.13203M7.96722 9.12861V9.13203M7.96722 9.13203V9.13546M7.96722 9.13203V9.13546M7.96722 9.13546V9.13888M7.96722 9.13546V9.13888M7.96722 9.13888V9.14231M7.96722 9.13888V9.14231M7.96722 9.14231V9.14573M7.96722 9.14231V9.14573M7.96722 9.14573V9.14915M7.96722 9.14573V9.14915M7.96722 9.14915V9.15258M7.96722 9.14915V9.15258M7.96722 9.15258V9.156M7.96722 9.15258V9.156M7.96722 9.156V9.15943M7.96722 9.156V9.15943M7.96722 9.15943V9.16285M7.96722 9.15943V9.16285M7.96722 9.16285V9.16627M7.96722 9.16285V9.16627M7.96722 9.16627V9.1697M7.96722 9.16627V9.1697M7.96722 9.1697V9.17312M7.96722 9.1697V9.17312M7.96722 9.17312V9.17655M7.96722 9.17312V9.17655M7.96722 9.17655V9.17997M7.96722 9.17655V9.17997M7.96722 9.17997V9.18339M7.96722 9.17997V9.18339M7.96722 9.18339V9.18682M7.96722 9.18339V9.18682M7.96722 9.18682V9.19024M7.96722 9.18682V9.19024M7.96722 9.19024V9.19367M7.96722 9.19024V9.19367M7.96722 9.19367V9.19709M7.96722 9.19367V9.19709M7.96722 9.19709V9.20051M7.96722 9.19709V9.20051M7.96722 9.20051V9.20394M7.96722 9.20051V9.20394M7.96722 9.20394V9.20736M7.96722 9.20394V9.20736M7.96722 9.20736V9.21079M7.96722 9.20736V9.21079M7.96722 9.21079V9.21421M7.96722 9.21079V9.21421M7.96722 9.21421V9.21763M7.96722 9.21421V9.21763M7.96722 9.21763V9.22106M7.96722 9.21763V9.22106M7.96722 9.22106V9.22448M7.96722 9.22106V9.22448M7.96722 9.22448V9.22791M7.96722 9.22448V9.22791M7.96722 9.22791V9.23133M7.96722 9.22791V9.23133M7.96722 9.23133V9.23475M7.96722 9.23133V9.23475M7.96722 9.23475V9.23818M7.96722 9.23475V9.23818M7.96722 9.23818V9.2416M7.96722 9.23818V9.2416M7.96722 9.2416V9.24502M7.96722 9.2416V9.24502M7.96722 9.24502V9.24845M7.96722 9.24502V9.24845M7.96722 9.24845V9.25187M7.96722 9.24845V9.25187M7.96722 9.25187V9.2553M7.96722 9.25187V9.2553M7.96722 9.2553V9.25872M7.96722 9.2553V9.25872M7.96722 9.25872V9.26214M7.96722 9.25872V9.26214M7.96722 9.26214V9.26557M7.96722 9.26214V9.26557M7.96722 9.26557V9.26899M7.96722 9.26557V9.26899M7.96722 9.26899V9.27242M7.96722 9.26899V9.27242M7.96722 9.27242V9.27584M7.96722 9.27242V9.27584M7.96722 9.27584V9.27926M7.96722 9.27584V9.27926M7.96722 9.27926V9.28269M7.96722 9.27926V9.28269M7.96722 9.28269V9.28611M7.96722 9.28269V9.28611M7.96722 9.28611V9.28954M7.96722 9.28611V9.28954M7.96722 9.28954V9.29296M7.96722 9.28954V9.29296M7.96722 9.29296V9.29638M7.96722 9.29296V9.29638M7.96722 9.29638V9.29981M7.96722 9.29638V9.29981M7.96722 9.29981V9.30323M7.96722 9.29981V9.30323M7.96722 9.30323V9.30666M7.96722 9.30323V9.30666M7.96722 9.30666V9.31008M7.96722 9.30666V9.31008M7.96722 9.31008V9.3135M7.96722 9.31008V9.3135M7.96722 9.3135V9.31693M7.96722 9.3135V9.31693M7.96722 9.31693V9.32035M7.96722 9.31693V9.32035M7.96722 9.32035V9.32377M7.96722 9.32035V9.32377M7.96722 9.32377V9.3272M7.96722 9.32377V9.3272M7.96722 9.3272V9.33062M7.96722 9.3272V9.33062M7.96722 9.33062V9.33405M7.96722 9.33062V9.33405M7.96722 9.33405V9.33747M7.96722 9.33405V9.33747M7.96722 9.33747V9.34089M7.96722 9.33747V9.34089M7.96722 9.34089V9.34432M7.96722 9.34089V9.34432M7.96722 9.34432V9.34774M7.96722 9.34432V9.34774M7.96722 9.34774V9.35117M7.96722 9.34774V9.35117M7.96722 9.35117V9.35459M7.96722 9.35117V9.35459M7.96722 9.35459V9.35801M7.96722 9.35459V9.35801M7.96722 9.35801V9.36144M7.96722 9.35801V9.36144M7.96722 9.36144V9.36486M7.96722 9.36144V9.36486M7.96722 9.36486V9.36829M7.96722 9.36486V9.36829M7.96722 9.36829V9.37171M7.96722 9.36829V9.37171M7.96722 9.37171V9.37513M7.96722 9.37171V9.37513M7.96722 9.37513V9.37856M7.96722 9.37513V9.37856M7.96722 9.37856V9.38198M7.96722 9.37856V9.38198M7.96722 9.38198V9.3854M7.96722 9.38198V9.3854M7.96722 9.3854V9.38883M7.96722 9.3854V9.38883M7.96722 9.38883V9.39225M7.96722 9.38883V9.39225M7.96722 9.39225V9.39568M7.96722 9.39225V9.39568M7.96722 9.39568V9.3991M7.96722 9.39568V9.3991M7.96722 9.3991V9.40252M7.96722 9.3991V9.40252M7.96722 9.40252V9.40595M7.96722 9.40252V9.40595M7.96722 9.40595V9.40937M7.96722 9.40595V9.40937M7.96722 9.40937V9.4128M7.96722 9.40937V9.4128M7.96722 9.4128V9.41622M7.96722 9.4128V9.41622M7.96722 9.41622V9.41964M7.96722 9.41622V9.41964M7.96722 9.41964V9.42307M7.96722 9.41964V9.42307M7.96722 9.42307V9.42649M7.96722 9.42307V9.42649M7.96722 9.42649V9.42991M7.96722 9.42649V9.42991M7.96722 9.42991V9.43334M7.96722 9.42991V9.43334M7.96722 9.43334V9.43676M7.96722 9.43334V9.43676M7.96722 9.43676V9.44019M7.96722 9.43676V9.44019M7.96722 9.44019V9.44361M7.96722 9.44019V9.44361M7.96722 9.44361V9.44703M7.96722 9.44361V9.44703M7.96722 9.44703V9.45046M7.96722 9.44703V9.45046M7.96722 9.45046V9.45388M7.96722 9.45046V9.45388M7.96722 9.45388V9.45731M7.96722 9.45388V9.45731M7.96722 9.45731V9.46073M7.96722 9.45731V9.46073M7.96722 9.46073V9.46415M7.96722 9.46073V9.46415M7.96722 9.46415V9.46758M7.96722 9.46415V9.46758M7.96722 9.46758V9.471M7.96722 9.46758V9.471M7.96722 9.471V9.47442M7.96722 9.471V9.47442M7.96722 9.47442V9.47785M7.96722 9.47442V9.47785M7.96722 9.47785V9.48127M7.96722 9.47785V9.48127M7.96722 9.48127V9.4847M7.96722 9.48127V9.4847M7.96722 9.4847V9.48812M7.96722 9.4847V9.48812M7.96722 9.48812V9.49154M7.96722 9.48812V9.49154M7.96722 9.49154V9.49497M7.96722 9.49154V9.49497M7.96722 9.49497V9.49839M7.96722 9.49497V9.49839M7.96722 9.49839V9.50182M7.96722 9.49839V9.50182M7.96722 9.50182V9.50524M7.96722 9.50182V9.50524M7.96722 9.50524V9.50866M7.96722 9.50524V9.50866M7.96722 9.50866V9.51209M7.96722 9.50866V9.51209M7.96722 9.51209V9.51551M7.96722 9.51209V9.51551M7.96722 9.51551V9.51893M7.96722 9.51551V9.51893M7.96722 9.51893V9.52236M7.96722 9.51893V9.52236M7.96722 9.52236V9.52578M7.96722 9.52236V9.52578M7.96722 9.52578V9.52921M7.96722 9.52578V9.52921M7.96722 9.52921V9.53263M7.96722 9.52921V9.53263M7.96722 9.53263V9.53605M7.96722 9.53263V9.53605M7.96722 9.53605V9.53948M7.96722 9.53605V9.53948M7.96722 9.53948V9.5429M7.96722 9.53948V9.5429M7.96722 9.5429V9.54632M7.96722 9.5429V9.54632M7.96722 9.54632V9.54975M7.96722 9.54632V9.54975M7.96722 9.54975V9.55317M7.96722 9.54975V9.55317M7.96722 9.55317V9.5566M7.96722 9.55317V9.5566M7.96722 9.5566V9.56002M7.96722 9.5566V9.56002M7.96722 9.56002V9.56344M7.96722 9.56002V9.56344M7.96722 9.56344V9.56687M7.96722 9.56344V9.56687M7.96722 9.56687V9.57029M7.96722 9.56687V9.57029M7.96722 9.57029V9.57372M7.96722 9.57029V9.57372M7.96722 9.57372V9.57714M7.96722 9.57372V9.57714M7.96722 9.57714V9.58056M7.96722 9.57714V9.58056M7.96722 9.58056V9.58399M7.96722 9.58056V9.58399M7.96722 9.58399V9.58741M7.96722 9.58399V9.58741M7.96722 9.58741V9.59083M7.96722 9.58741V9.59083M7.96722 9.59083V9.59426M7.96722 9.59083V9.59426M7.96722 9.59426V9.59768M7.96722 9.59426V9.59768M7.96722 9.59768V9.60111M7.96722 9.59768V9.60111M7.96722 9.60111V9.60453M7.96722 9.60111V9.60453M7.96722 9.60453V9.60795M7.96722 9.60453V9.60795M7.96722 9.60795V9.61138M7.96722 9.60795V9.61138M7.96722 9.61138V9.6148M7.96722 9.61138V9.6148M7.96722 9.6148V9.61822M7.96722 9.6148V9.61822M7.96722 9.61822V9.62165M7.96722 9.61822V9.62165M7.96722 9.62165V9.62507M7.96722 9.62165V9.62507M7.96722 9.62507V9.6285M7.96722 9.62507V9.6285M7.96722 9.6285V9.63192M7.96722 9.6285V9.63192M7.96722 9.63192V9.63534M7.96722 9.63192V9.63534M7.96722 9.63534V9.63877M7.96722 9.63534V9.63877M7.96722 9.63877V9.64219M7.96722 9.63877V9.64219M7.96722 9.64219V9.64561M7.96722 9.64219V9.64561M7.96722 9.64561V9.64904M7.96722 9.64561V9.64904M7.96722 9.64904V9.65246M7.96722 9.64904V9.65246M7.96722 9.65246V9.65589M7.96722 9.65246V9.65589M7.96722 9.65589V9.65931M7.96722 9.65589V9.65931M7.96722 9.65931V9.66273M7.96722 9.65931V9.66273M7.96722 9.66273V9.66616M7.96722 9.66273V9.66616M7.96722 9.66616V9.66958M7.96722 9.66616V9.66958M7.96722 9.66958V9.673M7.96722 9.66958V9.673M7.96722 9.673V9.67643M7.96722 9.673V9.67643M7.96722 9.67643V9.67985M7.96722 9.67643V9.67985M7.96722 9.67985V9.68328M7.96722 9.67985V9.68328M7.96722 9.68328V9.6867M7.96722 9.68328V9.6867M7.96722 9.6867V9.69012M7.96722 9.6867V9.69012M7.96722 9.69012V9.69355M7.96722 9.69012V9.69355M7.96722 9.69355V9.69697M7.96722 9.69355V9.69697M7.96722 9.69697V9.70039M7.96722 9.69697V9.70039M7.96722 9.70039V9.70382M7.96722 9.70039V9.70382M7.96722 9.70382V9.70724M7.96722 9.70382V9.70724M7.96722 9.70724V9.71067M7.96722 9.70724V9.71067M7.96722 9.71067V9.71409M7.96722 9.71067V9.71409M7.96722 9.71409V9.71751M7.96722 9.71409V9.71751M7.96722 9.71751V9.72094M7.96722 9.71751V9.72094M7.96722 9.72094V9.72436M7.96722 9.72094V9.72436M7.96722 9.72436V9.72778M7.96722 9.72436V9.72778M7.96722 9.72778V9.73121M7.96722 9.72778V9.73121M7.96722 9.73121V9.73463M7.96722 9.73121V9.73463M7.96722 9.73463V9.73805M7.96722 9.73463V9.73805M7.96722 9.73805V9.74148M7.96722 9.73805V9.74148M7.96722 9.74148V9.7449M7.96722 9.74148V9.7449M7.96722 9.7449V9.74833M7.96722 9.7449V9.74833M7.96722 9.74833V9.75175M7.96722 9.74833V9.75175M7.96722 9.75175V9.75517M7.96722 9.75175V9.75517M7.96722 9.75517V9.7586M7.96722 9.75517V9.7586M7.96722 9.7586V9.76202M7.96722 9.7586V9.76202M7.96722 9.76202V9.76544M7.96722 9.76202V9.76544M7.96722 9.76544V9.76887M7.96722 9.76544V9.76887M7.96722 9.76887V9.77229M7.96722 9.76887V9.77229M7.96722 9.77229V9.77572M7.96722 9.77229V9.77572M7.96722 9.77572V9.77914M7.96722 9.77572V9.77914M7.96722 9.77914V9.78256M7.96722 9.77914V9.78256M7.96722 9.78256V9.78599M7.96722 9.78256V9.78599M7.96722 9.78599V9.78941M7.96722 9.78599V9.78941M7.96722 9.78941V9.79283M7.96722 9.78941V9.79283M7.96722 9.79283V9.79626M7.96722 9.79283V9.79626M7.96722 9.79626V9.79968M7.96722 9.79626V9.79968M7.96722 9.79968V9.80311M7.96722 9.79968V9.80311M7.96722 9.80311V9.80653M7.96722 9.80311V9.80653M7.96722 9.80653V9.80995M7.96722 9.80653V9.80995M7.96722 9.80995V9.81338M7.96722 9.80995V9.81338M7.96722 9.81338V9.8168M7.96722 9.81338V9.8168M7.96722 9.8168V9.82022M7.96722 9.8168V9.82022M7.96722 9.82022V9.82365M7.96722 9.82022V9.82365M7.96722 9.82365V9.82707M7.96722 9.82365V9.82707M7.96722 9.82707V9.83049M7.96722 9.82707V9.83049M7.96722 9.83049V9.83392M7.96722 9.83049V9.83392M7.96722 9.83392V9.83734M7.96722 9.83392V9.83734M7.96722 9.83734V9.84077M7.96722 9.83734V9.84077M7.96722 9.84077V9.84419M7.96722 9.84077V9.84419M7.96722 9.84419V9.84761M7.96722 9.84419V9.84761M7.96722 9.84761V9.85104M7.96722 9.84761V9.85104M7.96722 9.85104V9.85446M7.96722 9.85104V9.85446M7.96722 9.85446V9.85788M7.96722 9.85446V9.85788M7.96722 9.85788V9.86131M7.96722 9.85788V9.86131M7.96722 9.86131V9.86473M7.96722 9.86131V9.86473M7.96722 9.86473V9.86815M7.96722 9.86473V9.86815M7.96722 9.86815V9.87158M7.96722 9.86815V9.87158M7.96722 9.87158V9.875M7.96722 9.87158V9.875M7.96722 9.875V9.87843M7.96722 9.875V9.87843M7.96722 9.87843V9.88185M7.96722 9.87843V9.88185M7.96722 9.88185V9.88527M7.96722 9.88185V9.88527M7.96722 9.88527V9.8887M7.96722 9.88527V9.8887M7.96722 9.8887V9.89212M7.96722 9.8887V9.89212M7.96722 9.89212V9.89554M7.96722 9.89212V9.89554M7.96722 9.89554V9.89897M7.96722 9.89554V9.89897M7.96722 9.89897V9.90239M7.96722 9.89897V9.90239M7.96722 9.90239V9.90581M7.96722 9.90239V9.90581M7.96722 9.90581V9.90924M7.96722 9.90581V9.90924M7.96722 9.90924V9.91266M7.96722 9.90924V9.91266M7.96722 9.91266V9.91609M7.96722 9.91266V9.91609M7.96722 9.91609V9.91951M7.96722 9.91609V9.91951M7.96722 9.91951V9.92293M7.96722 9.91951V9.92293M7.96722 9.92293V9.92636M7.96722 9.92293V9.92636M7.96722 9.92636V9.92978M7.96722 9.92636V9.92978M7.96722 9.92978V9.9332M7.96722 9.92978V9.9332M7.96722 9.9332V9.93663M7.96722 9.9332V9.93663M7.96722 9.93663V9.94005M7.96722 9.93663V9.94005M7.96722 9.94005V9.94347M7.96722 9.94005V9.94347M7.96722 9.94347V9.9469M7.96722 9.94347V9.9469M7.96722 9.9469V9.95032M7.96722 9.9469V9.95032M7.96722 9.95032V9.95375M7.96722 9.95032V9.95375M7.96722 9.95375V9.95717M7.96722 9.95375V9.95717M7.96722 9.95717V9.96059M7.96722 9.95717V9.96059M7.96722 9.96059V9.96402V9.96059ZM6.7439 10.2849L5.6323 10.2847L6.7439 10.2849ZM7.85163 10.6333H7.85164C7.99298 10.6333 8.10794 10.596 8.18687 10.5124C8.26531 10.4294 8.3 10.3094 8.3 10.1616V10.1582V10.1548V10.1514V10.148V10.1446V10.1412V10.1378V10.1345V10.1311V10.1277V10.1243V10.1209V10.1175V10.1141V10.1107V10.1073V10.104V10.1006V10.0972V10.0938V10.0904V10.087V10.0836V10.0802V10.0768V10.0735V10.0701V10.0667V10.0633V10.0599V10.0565V10.0531V10.0497V10.0463V10.043V10.0396V10.0362V10.0328V10.0294V10.026V10.0226V10.0192V10.0158V10.0125V10.0091V10.0057V10.0023V9.9989V9.99551V9.99212V9.98873V9.98534V9.98195V9.97856V9.97517V9.97178V9.96839V9.965V9.96162V9.95823V9.95484V9.95145V9.94806V9.94467V9.94128V9.93789V9.9345V9.93111V9.92772V9.92433V9.92094V9.91755V9.91416V9.91077V9.90739V9.904V9.90061V9.89722V9.89383V9.89044V9.88705V9.88366V9.88027V9.87688V9.87349V9.8701V9.86671V9.86332V9.85993V9.85654V9.85315V9.84976V9.84637V9.84298V9.83959V9.8362V9.83281V9.82942V9.82604V9.82265V9.81926V9.81587V9.81248V9.80909V9.8057V9.80231V9.79892V9.79553V9.79214V9.78875V9.78536V9.78197V9.77858V9.77519V9.7718V9.76841V9.76502V9.76163V9.75824V9.75485V9.75146V9.74807V9.74468V9.74129V9.7379V9.73451V9.73112V9.72773V9.72434V9.72095V9.71756V9.71417V9.71078V9.70739V9.704V9.70061V9.69722V9.69383V9.69044V9.68705V9.68366V9.68027V9.67688V9.67349V9.6701V9.66671V9.66332V9.65993V9.65654V9.65315V9.64976V9.64637V9.64298V9.63959V9.6362V9.63281V9.62942V9.62603V9.62264V9.61925V9.61586V9.61247V9.60907V9.60568V9.60229V9.5989V9.59551V9.59212V9.58873V9.58534V9.58195V9.57856V9.57517V9.57178V9.56839V9.565V9.56161V9.55822V9.55483V9.55144V9.54805V9.54466V9.54127V9.53788V9.53449V9.5311V9.5277V9.52431V9.52092V9.51753V9.51414V9.51075V9.50736V9.50397V9.50058V9.49719V9.4938V9.49041V9.48702V9.48363V9.48024V9.47685V9.47345V9.47006V9.46667V9.46328V9.45989V9.4565V9.45311V9.44972V9.44633V9.44294V9.43955V9.43616V9.43277V9.42938V9.42598V9.42259V9.4192V9.41581V9.41242V9.40903V9.40564V9.40225V9.39886V9.39547V9.39208V9.38868V9.38529V9.3819V9.37851V9.37512V9.37173V9.36834V9.36495V9.36156V9.35817V9.35478V9.35138V9.34799V9.3446V9.34121V9.33782V9.33443V9.33104V9.32765V9.32426V9.32086V9.31747V9.31408V9.31069V9.3073V9.30391V9.30052V9.29713V9.29374V9.29034V9.28695V9.28356V9.28017V9.27678V9.27339V9.27V9.26661V9.26321V9.25982V9.25643V9.25304V9.24965V9.24626V9.24287V9.23948V9.23608V9.23269V9.2293V9.22591V9.22252V9.21913V9.21574V9.21234V9.20895V9.20556V9.20217V9.19878V9.19539V9.192V9.1886V9.18521V9.18182V9.17843V9.17504V9.17165V9.16825V9.16486V9.16147V9.15808V9.15469V9.1513V9.14791V9.14451V9.14112V9.13773V9.13434V9.13095V9.12756V9.12416V9.12077V9.11738V9.11399V9.1106V9.10721V9.10381V9.10042V9.09703V9.09364V9.09025V9.08686V9.08346V9.08007V9.07668V9.07329V9.0699V9.0665V9.06311V9.05972V9.05633V9.05294V9.04955V9.04615V9.04276V9.03937V9.03598V9.03259V9.02919V9.0258V9.02241V9.01902V9.01563V9.01223V9.00884V9.00545V9.00206V8.99867V8.99527V8.99188V8.98849V8.9851V8.98171V8.97831V8.97492V8.97153V8.96814V8.96475V8.96135V8.95796V8.95457V8.95118V8.94778V8.94439V8.941V8.93761V8.93422V8.93082V8.92743V8.92404V8.92065V8.91726V8.91386V8.91047V8.90708V8.90369V8.90029V8.8969V8.89351V8.89012V8.88672V8.88333V8.87994V8.87655V8.87316V8.86976V8.86637V8.86298V8.85959V8.85619V8.8528V8.84941V8.84602V8.84262V8.83923V8.83584V8.83245V8.82905V8.82566V8.82227V8.81888V8.81548V8.81209V8.8087V8.80531V8.80191V8.79852V8.79513V8.79174V8.78834V8.78495V8.78156V8.77817V8.77477V8.77138V8.76799V8.76459V8.7612V8.75781V8.75442V8.75102V8.74763V8.74424V8.74085V8.73745V8.73406V8.73067V8.72727V8.72388V8.72049V8.7171V8.7137V8.71031V8.70692V8.70353V8.70013V8.69674V8.69335V8.68995V8.68656V8.68317V8.67978V8.67638V8.67299V8.6696V8.6662V8.66281V8.65942V8.65602V8.65263V8.64924V8.64585V8.64245V8.63906V8.63567V8.63227V8.62888V8.62549V8.62209V8.6187V8.61531V8.61192V8.60852V8.60513V8.60174V8.59834V8.59495V8.59156V8.58816V8.58477V8.58138V8.57798V8.57459V8.5712V8.5678V8.56441V8.56102V8.55762V8.55423V8.55084V8.54744V8.54405V8.54066V8.53726V8.53387V8.53048V8.52709V8.52369V8.5203V8.51691V8.51351V8.51012V8.50672V8.50333V8.49994V8.49654V8.49315V8.48976V8.48636V8.48297V8.47958V8.47618V8.47279V8.4694V8.466V8.46261V8.45922V8.45582V8.45243V8.44904V8.44564V8.44225V8.43886V8.43546V8.43207V8.42867V8.42528C8.3 8.27639 8.26592 8.15557 8.18831 8.07197C8.11004 7.98765 7.99575 7.95 7.85493 7.95H7.85059H7.84626H7.84192H7.83758H7.83324H7.8289H7.82456H7.82022H7.81589H7.81155H7.80721H7.80287H7.79853H7.79419H7.78986H7.78552H7.78118H7.77684H7.7725H7.76816H7.76382H7.75949H7.75515H7.75081H7.74647H7.74213H7.73779H7.73346H7.72912H7.72478H7.72044H7.7161H7.71176H7.70743H7.70309H7.69875H7.69441H7.69007H7.68573H7.6814H7.67706H7.67272H7.66838H7.66404H7.6597H7.65536H7.65103H7.64669H7.64235H7.63801H7.63367H7.62933H7.625H7.62066H7.61632H7.61198H7.60764H7.6033H7.59897H7.59463H7.59029H7.58595H7.58161H7.57727H7.57294H7.5686H7.56426H7.55992H7.55558H7.55124H7.54691H7.54257H7.53823H7.53389H7.52955H7.52521H7.52088H7.51654H7.5122H7.50786H7.50352H7.49918H7.49485H7.49051H7.48617H7.48183H7.47749H7.47315H7.46882H7.46448H7.46014H7.4558H7.45146H7.44712H7.44279H7.43845H7.43411H7.42977H7.42543H7.42109H7.41676H7.41242H7.40808H7.40374H7.3994H7.39506H7.39073H7.38639H7.38205H7.37771H7.37337H7.36903H7.3647H7.36036H7.35602H7.35168H7.34734H7.343H7.33867H7.33433H7.32999H7.32565H7.32131H7.31697H7.31264H7.3083H7.30396H7.29962H7.29528H7.29095H7.28661H7.28227H7.27793H7.27359H7.26925H7.26492H7.26058H7.25624H7.2519H7.24756H7.24322H7.23889H7.23455H7.23021H7.22587H7.22153H7.21719H7.21286H7.20852H7.20418H7.19984H7.1955H7.19117H7.18683H7.18249H7.17815H7.17381H7.16947H7.16514H7.1608H7.15646H7.15212H7.14778H7.14345H7.13911H7.13477H7.13043H7.12609H7.12175H7.11742H7.11308H7.10874H7.1044H7.10006H7.09572H7.09139H7.08705H7.08271H7.07837H7.07403H7.0697H7.06536H7.06102H7.05668H7.05234H7.048H7.04367H7.03933H7.03499H7.03065H7.02631H7.02198H7.01764H7.0133H7.00896H7.00462H7.00028H6.99595H6.99161H6.98727H6.98293H6.97859H6.97426H6.96992H6.96558H6.96124H6.9569H6.95256H6.94823H6.94389H6.93955H6.93521H6.93087H6.92654H6.9222H6.91786H6.91352H6.90918H6.90485H6.90051H6.89617H6.89183H6.88749H6.88315H6.87882H6.87448H6.87014H6.8658H6.86146H6.85713H6.85279H6.84845H6.84411H6.83977H6.83544H6.8311H6.82676H6.82242H6.81808H6.81374H6.80941H6.80507H6.80073H6.79639H6.79205H6.78772H6.78338H6.77904H6.7747H6.77036H6.76603H6.76169H6.75735H6.75301H6.74867H6.74434H6.74H6.73566H6.73132H6.72698H6.72265H6.71831H6.71397H6.70963H6.70529H6.70095H6.69662H6.69228H6.68794H6.6836H6.67926H6.67493H6.67059H6.66625H6.66191H6.65757H6.65324H6.6489H6.64456H6.64022H6.63588H6.63155H6.62721H6.62287H6.61853H6.61419H6.60986H6.60552H6.60118H6.59684H6.5925H6.58817H6.58383H6.57949H6.57515H6.57081H6.56648H6.56214H6.5578H6.55346H6.54912H6.54479H6.54045H6.53611H6.53177H6.52743H6.5231H6.51876H6.51442H6.51008H6.50574H6.50141H6.49707H6.49273H6.48839H6.48405H6.47972H6.47538H6.47104H6.4667H6.46236H6.45803H6.45369H6.44935H6.44501H6.44067H6.43634H6.432H6.42766H6.42332H6.41898H6.41465H6.41031H6.40597H6.40163H6.39729H6.39296H6.38862H6.38428H6.37994H6.3756H6.37127H6.36693H6.36259H6.35825H6.35391H6.34958H6.34524H6.3409H6.33656H6.33222H6.32789H6.32355H6.31921H6.31487H6.31053H6.3062H6.30186H6.29752H6.29318H6.28885H6.28451H6.28017H6.27583H6.27149H6.26716H6.26282H6.25848H6.25414H6.2498H6.24547H6.24113H6.23679H6.23245H6.22811H6.22378H6.21944H6.2151H6.21076H6.20642H6.20209H6.19775H6.19341H6.18907H6.18474H6.1804H6.17606H6.17172H6.16738H6.16305H6.15871H6.15437H6.15003H6.14569H6.14136H6.13702H6.13268H6.12834H6.12401H6.11967H6.11533H6.11099H6.10665H6.10232H6.09798H6.09364H6.0893H6.08496H6.08063H6.07629H6.07195H6.06761H6.06328H6.05894H6.0546H6.05026H6.04592H6.04159H6.03725H6.03291H6.02857H6.02423H6.0199H6.01556H6.01122H6.00688H6.00255H5.99821H5.99387H5.98953H5.98519H5.98086H5.97652H5.97218H5.96784H5.96351H5.95917H5.95483H5.95049H5.94615H5.94182H5.93748H5.93314H5.9288H5.92446H5.92013H5.91579H5.91145H5.90711H5.90278H5.89844H5.8941H5.88976H5.88542H5.88109H5.87675H5.87241H5.86807H5.86374H5.8594H5.85506H5.85072H5.84638H5.84205H5.83771H5.83337H5.82903H5.8247H5.82036H5.81602H5.81168H5.80734H5.80301H5.79867H5.79433H5.78999H5.78566H5.78132H5.77698H5.77264H5.76831H5.76397H5.75963H5.75529H5.75095H5.74662H5.74228H5.73794H5.7336H5.72927H5.72493H5.72059H5.71625H5.71191H5.70758H5.70324H5.6989H5.69456H5.69023H5.68589H5.68155H5.67721H5.67287H5.66854H5.6642H5.65986H5.65552H5.65119H5.64685H5.64251H5.63817H5.63384C5.49916 7.95 5.38821 7.98925 5.31149 8.07202C5.23536 8.15416 5.2 8.27159 5.2 8.4137V8.41713V8.42057V8.42401V8.42744V8.43088V8.43432V8.43775V8.44119V8.44463V8.44806V8.4515V8.45493V8.45837V8.46181V8.46524V8.46868V8.47212V8.47555V8.47899V8.48243V8.48586V8.4893V8.49274V8.49617V8.49961V8.50305V8.50648V8.50992V8.51335V8.51679V8.52023V8.52366V8.5271V8.53054V8.53397V8.53741V8.54085V8.54428V8.54772V8.55116V8.55459V8.55803V8.56147V8.5649V8.56834V8.57178V8.57521V8.57865V8.58208V8.58552V8.58896V8.59239V8.59583V8.59927V8.6027V8.60614V8.60958V8.61301V8.61645V8.61989V8.62332V8.62676V8.6302V8.63363V8.63707V8.64051V8.64394V8.64738V8.65082V8.65425V8.65769V8.66112V8.66456V8.668V8.67143V8.67487V8.67831V8.68174V8.68518V8.68862V8.69205V8.69549V8.69893V8.70236V8.7058V8.70924V8.71267V8.71611V8.71955V8.72298V8.72642V8.72986V8.73329V8.73673V8.74017V8.7436V8.74704V8.75048V8.75391V8.75735V8.76079V8.76422V8.76766V8.7711V8.77453V8.77797V8.78141V8.78484V8.78828V8.79171V8.79515V8.79859V8.80202V8.80546V8.8089V8.81233V8.81577V8.81921V8.82264V8.82608V8.82952V8.83295V8.83639V8.83983V8.84326V8.8467V8.85014V8.85357V8.85701V8.86045V8.86388V8.86732V8.87076V8.87419V8.87763V8.88107V8.8845V8.88794V8.89138V8.89481V8.89825V8.90169V8.90512V8.90856V8.912V8.91543V8.91887V8.92231V8.92574V8.92918V8.93262V8.93605V8.93949V8.94293V8.94636V8.9498V8.95324V8.95667V8.96011V8.96355V8.96698V8.97042V8.97386V8.97729V8.98073V8.98417V8.9876V8.99104V8.99448V8.99791V9.00135V9.00479V9.00822V9.01166V9.0151V9.01853V9.02197V9.02541V9.02884V9.03228V9.03572V9.03916V9.04259V9.04603V9.04947V9.0529V9.05634V9.05978V9.06321V9.06665V9.07009V9.07352V9.07696V9.0804V9.08383V9.08727V9.09071V9.09414V9.09758V9.10102V9.10445V9.10789V9.11133V9.11476V9.1182V9.12164V9.12507V9.12851V9.13195V9.13538V9.13882V9.14226V9.14569V9.14913V9.15257V9.156V9.15944V9.16288V9.16631V9.16975V9.17319V9.17663V9.18006V9.1835V9.18694V9.19037V9.19381V9.19725V9.20068V9.20412V9.20756V9.21099V9.21443V9.21787V9.2213V9.22474V9.22818V9.23161V9.23505V9.23849V9.24192V9.24536V9.2488V9.25223V9.25567V9.25911V9.26255V9.26598V9.26942V9.27286V9.27629V9.27973V9.28317V9.2866V9.29004V9.29348V9.29691V9.30035V9.30379V9.30722V9.31066V9.3141V9.31753V9.32097V9.32441V9.32785V9.33128V9.33472V9.33816V9.34159V9.34503V9.34847V9.3519V9.35534V9.35878V9.36221V9.36565V9.36909V9.37252V9.37596V9.3794V9.38284V9.38627V9.38971V9.39315V9.39658V9.40002V9.40346V9.40689V9.41033V9.41377V9.4172V9.42064V9.42408V9.42751V9.43095V9.43439V9.43783V9.44126V9.4447V9.44814V9.45157V9.45501V9.45845V9.46188V9.46532V9.46876V9.47219V9.47563V9.47907V9.48251V9.48594V9.48938V9.49282V9.49625V9.49969V9.50313V9.50656V9.51V9.51344V9.51687V9.52031V9.52375V9.52719V9.53062V9.53406V9.5375V9.54093V9.54437V9.54781V9.55124V9.55468V9.55812V9.56156V9.56499V9.56843V9.57187V9.5753V9.57874V9.58218V9.58561V9.58905V9.59249V9.59592V9.59936V9.6028V9.60624V9.60967V9.61311V9.61655V9.61998V9.62342V9.62686V9.63029V9.63373V9.63717V9.64061V9.64404V9.64748V9.65092V9.65435V9.65779V9.66123V9.66466V9.6681V9.67154V9.67498V9.67841V9.68185V9.68529V9.68872V9.69216V9.6956V9.69903V9.70247V9.70591V9.70935V9.71278V9.71622V9.71966V9.72309V9.72653V9.72997V9.73341V9.73684V9.74028V9.74372V9.74715V9.75059V9.75403V9.75746V9.7609V9.76434V9.76778V9.77121V9.77465V9.77809V9.78152V9.78496V9.7884V9.79184V9.79527V9.79871V9.80215V9.80558V9.80902V9.81246V9.81589V9.81933V9.82277V9.82621V9.82964V9.83308V9.83652V9.83995V9.84339V9.84683V9.85027V9.8537V9.85714V9.86058V9.86401V9.86745V9.87089V9.87433V9.87776V9.8812V9.88464V9.88807V9.89151V9.89495V9.89839V9.90182V9.90526V9.9087V9.91213V9.91557V9.91901V9.92245V9.92588V9.92932V9.93276V9.93619V9.93963V9.94307V9.9465V9.94994V9.95338V9.95682V9.96025V9.96369V9.96713V9.97056V9.974V9.97744V9.98088V9.98431V9.98775V9.99119V9.99463V9.99806V10.0015V10.0049V10.0084V10.0118V10.0152V10.0187V10.0221V10.0256V10.029V10.0324V10.0359V10.0393V10.0427V10.0462V10.0496V10.0531V10.0565V10.0599V10.0634V10.0668V10.0702V10.0737V10.0771V10.0806V10.084V10.0874V10.0909V10.0943V10.0977V10.1012V10.1046V10.1081V10.1115V10.1149V10.1184V10.1218V10.1252V10.1287V10.1321V10.1356V10.139V10.1424V10.1459V10.1493V10.1527V10.1562V10.1596V10.163V10.1665V10.1699V10.1734C5.2 10.3138 5.23597 10.4303 5.31287 10.5119C5.39023 10.594 5.50189 10.6331 5.63732 10.6331H6.74776H6.74777L7.85163 10.6333ZM5.6323 10.2847H5.63229V10.3347L5.6323 10.2847Z" fill="#662E93" stroke="#662E93" stroke-width="0.1"/>
<path d="M10.1308 11.9809C10.1308 12.0588 10.1363 12.1371 10.1308 12.2146C10.128 12.2776 10.1007 12.337 10.0547 12.3801C10.0087 12.4233 9.94763 12.4467 9.88459 12.4455C9.85329 12.4468 9.82203 12.442 9.79259 12.4313C9.76316 12.4206 9.73615 12.4041 9.71311 12.3829C9.69006 12.3617 9.67144 12.3361 9.65833 12.3076C9.64521 12.2792 9.63785 12.2484 9.63667 12.2171C9.62813 12.0564 9.62813 11.8953 9.63667 11.7346C9.63863 11.6714 9.66528 11.6114 9.71092 11.5675C9.75656 11.5237 9.81755 11.4995 9.88084 11.5C9.94421 11.4989 10.0056 11.5223 10.0521 11.5653C10.0987 11.6083 10.1269 11.6676 10.1308 11.7309C10.1379 11.8142 10.1308 11.8975 10.1308 11.9809Z" fill="#662E93"/>
<path d="M7.76084 5.19546C7.62126 5.19546 7.52334 5.1038 7.50751 4.95338C7.43626 4.27338 7.08209 3.91921 6.40125 3.84713C6.25 3.83088 6.1575 3.73338 6.16042 3.59338C6.16334 3.45338 6.26167 3.35421 6.42917 3.3488C6.71063 3.3437 6.97935 3.23061 7.17976 3.03292C7.38016 2.83523 7.4969 2.56807 7.50584 2.28671C7.51542 2.10838 7.60584 2.00463 7.75126 2.0013C7.89667 1.99796 7.99667 2.10505 8.00751 2.29296C8.02032 2.5687 8.13573 2.82969 8.33107 3.02473C8.52641 3.21976 8.78758 3.33475 9.06334 3.34713C9.18042 3.35421 9.29334 3.38213 9.32667 3.50088C9.34925 3.58318 9.33894 3.67104 9.29792 3.74588C9.26042 3.80213 9.16167 3.83963 9.08667 3.8463C8.45792 3.90296 8.05084 4.30755 8.00709 4.92963C7.99584 5.0963 7.90584 5.19338 7.76084 5.19546ZM7.37125 3.60963L7.76417 3.99088L8.17834 3.61588L7.77542 3.20838L7.37125 3.60963Z" fill="#662E93"/>
</g>
<defs>
<clipPath id="clip0_224_354">
<rect width="15.5292" height="16" fill="white"/>
</clipPath>
</defs>
</svg>
