<svg width="25" height="16" viewBox="0 0 25 16" fill="none" xmlns="http://www.w3.org/2000/svg">
<g clip-path="url(#clip0_354_309)">
<path d="M-1.44803e-06 0.969499C0.159655 0.537099 0.40003 0.179641 0.878405 0.0594968C1.00837 0.0276779 1.14169 0.0117023 1.27547 0.0119157C4.61638 0.0119157 7.95848 -0.0255558 11.2988 0.0297582C15.3377 0.095778 18.919 1.4709 22.064 4.0082C22.9199 4.69873 23.5923 5.51773 23.9502 6.56572C24.301 7.59706 24.4108 8.65814 24.1366 9.71802C23.8766 10.7256 23.1151 11.2781 22.2005 11.6528C21.6038 11.9057 20.9699 12.0594 20.3238 12.1078C20.1838 12.1173 20.1333 12.1774 20.0864 12.3112C19.9986 12.5688 19.8698 12.8126 19.7475 13.0844H22.8991C23.7823 13.0844 24.2678 13.568 24.2642 14.4477C24.2724 14.6607 24.2569 14.8739 24.2179 15.0835C24.1642 15.3337 24.0273 15.5581 23.8296 15.7202C23.632 15.8823 23.3853 15.9723 23.13 15.9756C21.7554 15.9887 20.3808 15.984 19.0068 15.9816C18.7641 15.9816 18.6187 15.8335 18.6234 15.6247C18.6282 15.416 18.7706 15.2798 19.0222 15.2756C19.5196 15.2667 20.017 15.2756 20.5149 15.2756C21.3126 15.2756 22.1103 15.2756 22.908 15.2756C23.3894 15.2756 23.5532 15.1126 23.5549 14.6392C23.5585 13.9046 23.4546 13.7994 22.724 13.7994C15.6311 13.7994 8.53775 13.7994 1.44403 13.7994C1.18703 13.7994 0.903333 13.7833 0.787003 14.0634C0.654649 14.3828 0.640998 14.7337 0.807777 15.0478C0.862974 15.1519 1.02382 15.2149 1.14964 15.2625C1.24045 15.297 1.35263 15.2762 1.45471 15.2762C6.5103 15.2762 11.5659 15.2762 16.6215 15.2762C16.7393 15.2713 16.8571 15.2831 16.9716 15.3113C17.1455 15.3618 17.25 15.5093 17.1936 15.6741C17.1527 15.793 17.0251 15.9019 16.9099 15.9715C16.8328 16.0173 16.7093 15.9875 16.6066 15.9875C11.5831 15.9875 6.55897 15.9798 1.53543 15.997C0.781662 15.997 0.248089 15.7716 -0.000595093 15.0288V14.0771C0.0712206 13.9207 0.12345 13.75 0.2196 13.6096C0.470658 13.2427 0.838639 13.088 1.27547 13.0856C1.63158 13.0856 1.98769 13.0856 2.37229 13.0856C2.27792 12.9274 2.15981 12.8132 2.142 12.6848C2.06307 12.1084 1.68144 12.106 1.23036 12.1251C0.682544 12.1483 0.266488 11.8372 0.0777493 11.3459C0.0557891 11.2864 0.0255197 11.2353 -0.000595093 11.18L-1.44803e-06 0.969499ZM5.93518 2.86207H5.65088C5.10603 2.86207 4.56118 2.86623 4.01633 2.86207C3.70949 2.8591 3.54152 2.6759 3.5979 2.42491C3.65191 2.19414 3.8276 2.15072 4.03355 2.15072C6.84524 2.15072 9.65673 2.15072 12.468 2.15072C12.6776 2.1483 12.8856 2.18771 13.0798 2.26664C13.274 2.34558 13.4506 2.46246 13.5993 2.61048C14.012 3.00264 14.4251 3.39419 14.8385 3.78516C15.0682 4.00225 15.3009 4.21696 15.5264 4.43941C15.752 4.66185 15.8677 4.91523 15.8054 5.23046C15.7134 5.69735 15.3828 5.95549 14.867 5.95727C13.7987 5.96143 12.7345 5.95727 11.6686 5.95727H11.4104V9.75252H11.7071C15.4973 9.75252 19.2881 9.74835 23.0789 9.76085C23.3448 9.76085 23.4475 9.66806 23.4879 9.43729C23.495 9.39863 23.5092 9.36116 23.5134 9.3225C23.641 8.19659 23.5223 7.1141 22.9674 6.10358C22.9463 6.05408 22.9097 6.0128 22.8631 5.98597C22.8165 5.95915 22.7625 5.94824 22.7092 5.95489C22.1881 5.96084 21.667 5.95489 21.1459 5.95787C18.9795 5.9769 17.3402 4.92474 15.9526 3.37774C15.6214 3.00838 15.7745 2.42075 16.2351 2.22923C16.3888 2.16559 16.5722 2.16202 16.7431 2.15429C17.0168 2.14299 17.291 2.15132 17.6079 2.15132C17.5515 2.10017 17.542 2.0853 17.5284 2.07994C15.6208 1.26629 13.6319 0.77144 11.5599 0.746459C8.149 0.703636 4.73449 0.728617 1.32532 0.725048C1.27799 0.724248 1.23065 0.725835 1.18347 0.729806C0.928261 0.753002 0.743083 0.905264 0.725871 1.15923C0.704505 1.47982 0.720529 1.80337 0.720529 2.15132H0.99058C1.30633 2.15132 1.62268 2.14775 1.94021 2.15607C2.13963 2.16083 2.26546 2.26849 2.28623 2.47368C2.30641 2.66877 2.18592 2.81746 1.97582 2.85255C1.88189 2.86377 1.78723 2.86755 1.69271 2.86385C1.37221 2.86385 1.05171 2.86385 0.731806 2.86385V5.22927H5.93518V2.86207ZM5.93518 5.97214H0.724684V9.72992H5.93518V5.97214ZM10.6643 9.73527V5.96916H6.67411V9.73527H10.6643ZM22.8314 10.4793H11.4133V11.4137C11.4846 11.4173 11.5392 11.4232 11.5914 11.4232C14.3536 11.4232 17.1159 11.4322 19.8781 11.4149C20.3381 11.4119 20.804 11.3281 21.2551 11.227C21.8295 11.0942 22.3687 10.8392 22.8362 10.4793H22.8314ZM10.6643 2.8811H6.67411V5.22272H10.6709L10.6643 2.8811ZM22.2919 5.20072C22.2504 5.15552 22.2071 5.10199 22.1572 5.055C21.2669 4.21399 20.2686 3.52405 19.2098 2.91857C19.1329 2.881 19.0478 2.86302 18.9623 2.86623C18.2044 2.86266 17.4459 2.86623 16.6879 2.86623C16.6233 2.86623 16.5591 2.87872 16.4939 2.88527C18.0121 4.73204 19.9422 5.49454 22.2985 5.19834L22.2919 5.20072ZM11.4163 2.8698V5.24295C12.5873 5.24295 13.7382 5.24295 14.8884 5.23759C14.9602 5.23759 15.0759 5.17812 15.092 5.12637C15.108 5.07463 15.0492 4.96459 14.994 4.91166C14.356 4.30023 13.7168 3.6894 13.0657 3.09165C12.9465 2.97765 12.7949 2.90365 12.6318 2.87991C12.233 2.85017 11.8306 2.8698 11.4163 2.8698ZM0.71222 10.4764V10.6827C0.708659 11.2876 0.843387 11.4238 1.447 11.4238H5.93518V10.4764H0.71222ZM10.6744 10.4811H6.68004V11.4096H10.6732L10.6744 10.4811ZM12.1944 12.1465C12.2793 12.7109 12.89 13.1296 13.5411 13.0815C14.0753 13.0416 14.6094 12.5753 14.6189 12.1465H12.1944ZM16.9343 12.1465C17.0078 12.6966 17.6091 13.1106 18.2548 13.0856C18.7344 13.0672 19.3647 12.5979 19.3606 12.1465H16.9343ZM2.71356 12.1465C2.81268 12.6907 3.36287 13.0946 3.97301 13.0833C4.54279 13.0725 5.07754 12.6526 5.1553 12.1465H2.71356ZM9.89513 12.1465H7.45162C7.54717 12.6818 8.08906 13.0874 8.68613 13.0838C9.26897 13.0833 9.80848 12.6681 9.89394 12.1483L9.89513 12.1465ZM5.96723 12.1411L5.5393 13.0642H7.09907C7.00826 12.909 6.87828 12.7799 6.86166 12.6366C6.78925 12.0912 6.42246 12.0918 6.01768 12.1346C5.99097 12.1399 5.96782 12.1441 5.96604 12.1441L5.96723 12.1411ZM10.7053 12.1411L10.2762 13.0719H11.811L11.3813 12.1411H10.7053ZM16.5514 13.0749C16.4108 12.768 16.2701 12.4599 16.1205 12.134C15.9377 12.134 15.7336 12.1286 15.527 12.1376C15.4987 12.1393 15.4711 12.1472 15.4462 12.1607C15.4213 12.1743 15.3996 12.1932 15.3828 12.2161C15.257 12.4986 15.1454 12.7865 15.0237 13.0749H16.5514Z" fill="#B07FD8"/>
<path d="M21.648 9.42008C20.9358 9.42008 20.5559 9.16849 20.2787 8.50889C20.1529 8.2115 20.0211 7.91411 19.9036 7.61256C19.7054 7.10165 19.9938 6.64606 20.5387 6.63297C21.3868 6.61216 22.0361 6.95475 22.4225 7.73509C22.5037 7.89767 22.5762 8.06444 22.6398 8.2347C22.8665 8.84256 22.5062 9.38737 21.8611 9.42008C21.7904 9.42365 21.7192 9.42008 21.648 9.42008ZM20.5624 7.34492C20.7037 7.68632 20.8313 7.99084 20.9565 8.29655C21.0711 8.57788 21.2782 8.70754 21.5815 8.70933C22.0534 8.7123 22.0664 8.69803 21.8783 8.2573C21.8415 8.16987 21.8053 8.08184 21.7596 7.99857C21.5127 7.53287 21.1126 7.33718 20.5624 7.34492Z" fill="#662E93"/>
<path d="M9.4773 7.34315C9.3123 7.34315 9.14671 7.35564 8.9829 7.34315C8.78941 7.32471 8.68614 7.18851 8.68614 7.00592C8.68614 6.82332 8.78526 6.67582 8.97875 6.6663C9.30774 6.64965 9.63737 6.64965 9.96636 6.6663C10.1593 6.677 10.2536 6.82213 10.2489 7.01127C10.2441 7.20041 10.1403 7.32531 9.94796 7.34256C9.79246 7.35683 9.63458 7.34553 9.4773 7.34553V7.34315Z" fill="#662E93"/>
</g>
<defs>
<clipPath id="clip0_354_309">
<rect width="24.2909" height="16" fill="white"/>
</clipPath>
</defs>
</svg>
