<svg width="36" height="36" viewBox="0 0 36 36" fill="none" xmlns="http://www.w3.org/2000/svg">
<g clip-path="url(#clip0_123_246)">
<path d="M-2.19443e-06 35.2268C0.184049 34.8886 0.471133 34.7865 0.84628 34.7962C1.90303 34.8129 2.95274 34.8041 4.00597 34.8015C4.58454 34.8015 4.79149 34.5971 4.79149 34.023C4.79149 29.7373 4.79149 25.4542 4.79149 21.1738C4.79149 20.6022 4.58278 20.3979 3.99892 20.3962C2.94217 20.3962 1.89246 20.3847 0.839235 20.4015C0.464088 20.4076 0.176123 20.3134 -0.00352478 19.9691V19.6168C0.189332 19.291 0.475536 19.1862 0.849802 19.1915C1.91448 19.2082 2.97916 19.1915 4.04471 19.1985C5.23444 19.2038 5.9865 19.9338 5.98826 21.1183C5.9953 25.4369 5.9953 29.7555 5.98826 34.0741C5.98826 35.0339 5.57172 35.6028 4.677 35.9287C4.63724 35.9478 4.59997 35.9718 4.56605 36H-2.19443e-06V35.2268Z" fill="#662E93"/>
<path d="M14.5981 11.0122C14.7443 10.3782 14.843 9.77936 15.0261 9.20343C15.2278 8.57202 15.5149 7.97055 15.7482 7.3453C15.809 7.20395 15.8226 7.04676 15.787 6.89707C15.4295 5.91429 15.6276 4.96409 16.3638 4.25519C17.0463 3.59648 18.1083 3.42652 19.0057 3.83249C19.4337 4.03046 19.7933 4.35127 20.0385 4.75412C20.2838 5.15696 20.4037 5.62364 20.383 6.09481C20.3469 6.95078 19.9427 7.60949 19.2144 8.06213C19.0912 8.14532 18.9406 8.17757 18.7941 8.15212C18.6477 8.12667 18.5168 8.0455 18.4289 7.92564C18.2334 7.66937 18.2704 7.33826 18.524 7.10666C18.6015 7.03621 18.6922 6.97985 18.7714 6.91116C18.9677 6.74199 19.1037 6.51371 19.1591 6.26062C19.2145 6.00754 19.1863 5.74331 19.0786 5.50763C18.971 5.27196 18.7899 5.07757 18.5623 4.95367C18.3348 4.82978 18.0732 4.78306 17.8168 4.82055C17.2383 4.92358 16.8728 5.32867 16.8244 5.92045C17.1299 5.7681 17.4267 5.59462 17.7437 5.47045C18.096 5.33219 18.4121 5.47045 18.5363 5.7681C18.671 6.09393 18.5363 6.39775 18.1744 6.56067C17.3387 6.94374 16.8975 7.66937 16.5452 8.46106C16.0168 9.6411 15.7791 10.8986 15.7025 12.1738C15.6357 13.3534 15.6327 14.5357 15.6936 15.7157C15.7201 16.2625 15.9235 16.8085 16.097 17.3395C16.2026 17.6636 16.4122 17.9709 16.8059 17.9859C17.1995 18.0009 17.4787 17.7385 17.5879 17.3871C17.758 16.8439 17.8898 16.2896 17.9824 15.728C18.059 15.2577 18.2554 14.9883 18.6261 15.0085C18.9969 15.0288 19.2091 15.307 19.1871 15.7905C19.1475 16.6791 18.9652 17.5271 18.4676 18.288C17.6751 19.4953 16.0327 19.4918 15.2542 18.28C14.6501 17.3395 14.4889 16.2766 14.4299 15.1978C14.3894 14.4511 14.4185 13.7008 14.4484 12.9505C14.4581 12.8365 14.4411 12.7217 14.3986 12.6155C14.356 12.5092 14.2893 12.4143 14.2036 12.3385C12.5894 10.734 11.8013 8.78073 12.0443 6.52016C12.3552 3.63347 13.8989 1.55607 16.6139 0.50548C20.2447 -0.903522 24.0772 0.708904 25.7451 4.22877C27.3496 7.61213 25.8631 11.9052 22.5097 13.5845C20.7423 14.4696 18.915 14.6413 17.0234 14.0592C16.6245 13.9377 16.4351 13.6321 16.532 13.2957C16.6289 12.9593 16.9529 12.8114 17.3545 12.9126C17.4003 12.9241 17.4426 12.9338 17.491 12.947C18.8067 13.338 20.1038 13.2658 21.3825 12.7841C23.8711 11.8462 25.4906 9.15235 25.1569 6.51311C24.8108 3.77524 22.6849 1.60098 20.0237 1.2637C16.6298 0.833073 13.6594 3.1183 13.2429 6.53865C13.0403 8.19247 13.5264 9.67984 14.5981 11.0122Z" fill="#B07FD8"/>
<path d="M20.9439 34.7997C19.6987 34.8605 18.4905 34.6403 17.3043 34.3004C15.3896 33.7566 13.5395 33.0069 11.7863 32.0645C10.7234 31.4894 9.58473 31.2966 8.41438 31.2191C8.1691 31.2143 7.92425 31.1967 7.68082 31.1662C7.35851 31.109 7.20704 30.8827 7.21673 30.5612C7.21673 30.4179 7.27355 30.2804 7.37473 30.1789C7.47592 30.0774 7.61322 30.0201 7.75655 30.0197C9.18405 30.0056 10.5948 30.128 11.8955 30.7867C14.009 31.8584 16.1551 32.8491 18.4817 33.3493C20.8779 33.8654 23.2309 33.573 25.5267 32.7575C25.7251 32.6858 25.9152 32.5931 26.0938 32.481C28.7886 30.8078 31.4818 29.1317 34.1736 27.4526C34.6685 27.1435 34.8825 26.6601 34.7777 26.1757C34.6016 25.3717 33.7976 24.9816 33.0314 25.3497C31.493 26.0903 29.9598 26.8468 28.424 27.5909C27.8665 27.8621 27.2924 28.1043 26.7508 28.4116C25.4483 29.1575 24.0349 29.3601 22.5634 29.3979C20.0342 29.4631 17.5359 29.191 15.0437 28.815C14.6034 28.7489 14.3665 28.483 14.4141 28.1219C14.4616 27.7609 14.7285 27.5768 15.1688 27.6279C16.4246 27.7732 17.675 27.9696 18.9335 28.0805C20.8136 28.247 22.7008 28.3236 24.5695 27.9854C24.9869 27.9097 25.3937 27.7212 25.7803 27.5363C28.0154 26.4602 30.2389 25.3629 32.4731 24.2859C33.4929 23.7936 34.4924 23.9504 35.2629 24.6866C36.3197 25.6949 36.2158 27.4702 35.0181 28.3112C34.3013 28.815 33.5413 29.2597 32.7963 29.7202C30.969 30.8607 29.1205 31.9676 27.3153 33.1424C25.9063 34.0573 24.3555 34.4563 22.7263 34.6518C22.1363 34.724 21.5392 34.753 20.9439 34.7997Z" fill="#B07FD8"/>
<path d="M27.5125 18.008C26.8961 17.9331 26.2391 18.1401 25.6474 17.5465C25.0556 16.953 25.2678 16.2934 25.1727 15.6047C24.8345 15.6047 24.4981 15.5942 24.1635 15.6047C23.9741 15.6164 23.7859 15.5683 23.6253 15.4671C23.4648 15.366 23.34 15.217 23.2688 15.0411C23.1887 14.865 23.2168 14.5497 23.3322 14.4088C23.4476 14.2679 23.8042 14.1447 23.9328 14.2248C24.3564 14.4775 24.794 14.3956 25.2282 14.4009C26.3466 14.4124 26.3985 14.4573 26.3985 15.5739C26.3985 15.8319 26.3985 16.09 26.3985 16.3471C26.4029 16.643 26.5474 16.8024 26.8529 16.8015C27.2395 16.8015 27.6261 16.8015 28.0127 16.8015C28.5834 16.8015 28.7903 17.012 28.8053 17.5861C28.8053 17.7121 28.8053 17.838 28.8053 17.9992C28.9814 17.9992 29.1144 17.9992 29.2526 17.9992C29.7757 18.008 29.9941 18.2211 30.0047 18.7521C30.0126 19.1387 30.0047 19.5253 30.0047 19.9119C30.0047 20.2641 30.1359 20.3918 30.4926 20.3936C31.109 20.3936 31.7316 20.3936 32.3982 20.3936C32.3982 19.6847 32.4079 18.9978 32.3877 18.3118C32.3877 18.2105 32.2529 18.1031 32.1649 18.0141C30.2938 16.1402 28.4216 14.2674 26.5482 12.3957C26.1141 11.9616 26.0551 11.6313 26.3563 11.339C26.6416 11.0633 26.978 11.1267 27.3866 11.5345C29.3351 13.4854 31.284 15.4324 33.2331 17.3757C33.3578 17.4894 33.456 17.629 33.5209 17.7849C33.5857 17.9407 33.6155 18.1088 33.6082 18.2774C33.5915 19.1211 33.6082 19.9647 33.6021 20.8084C33.6021 21.3852 33.3942 21.5895 32.8165 21.5912C31.9359 21.5912 31.057 21.5912 30.1799 21.5912C29.5353 21.5912 28.8123 20.8629 28.8053 20.2122C28.8009 19.8872 28.8053 19.5614 28.8053 19.291C28.4293 19.188 28.0127 19.1898 27.8005 18.9828C27.5883 18.7759 27.6076 18.3717 27.5125 18.008Z" fill="#662E93"/>
<path d="M10.188 22.7933C9.43855 22.7933 8.6909 22.7933 7.93972 22.7933C7.48003 22.7933 7.21937 22.5784 7.21232 22.213C7.20528 21.8475 7.47651 21.5965 7.94853 21.5965C9.47113 21.5921 10.9937 21.5895 12.5155 21.5965C13.2561 21.6009 13.9112 21.8915 14.5066 22.301C15.5589 23.0214 16.5919 23.769 17.6345 24.5026C18.3109 24.979 19.0303 25.2502 19.8916 25.2124C21.0003 25.163 22.1152 25.2053 23.2265 25.2388C23.8405 25.266 24.4292 25.4908 24.905 25.8799C25.325 26.2084 25.2713 26.7984 24.7993 26.9419C24.706 26.9643 24.6092 26.968 24.5145 26.9529C24.4197 26.9378 24.3289 26.9041 24.2472 26.8539C23.7505 26.5095 23.2071 26.3933 22.6206 26.395C21.6255 26.395 20.6295 26.3713 19.6353 26.403C18.7981 26.4312 17.9748 26.1837 17.292 25.6985C16.2511 24.9825 15.226 24.2428 14.1939 23.5145C13.4894 23.017 12.7356 22.6999 11.8383 22.781C11.2923 22.8356 10.7384 22.7933 10.188 22.7933Z" fill="#B07FD8"/>
<path d="M2.08797 32.99C1.91239 32.986 1.74191 32.9301 1.598 32.8295C1.45408 32.7288 1.34315 32.5878 1.27916 32.4243C1.21517 32.2607 1.20098 32.0819 1.23838 31.9103C1.27578 31.7387 1.36309 31.582 1.48933 31.4599C1.61558 31.3378 1.77511 31.2558 1.94786 31.2242C2.12061 31.1925 2.29886 31.2127 2.46019 31.2821C2.62151 31.3515 2.7587 31.4671 2.85449 31.6143C2.95028 31.7615 3.0004 31.9337 2.99853 32.1094C2.98903 32.345 2.88913 32.568 2.71958 32.732C2.55003 32.896 2.32384 32.9884 2.08797 32.99Z" fill="#662E93"/>
</g>
<defs>
<clipPath id="clip0_123_246">
<rect width="35.9938" height="36" fill="white"/>
</clipPath>
</defs>
</svg>
