<svg width="16" height="16" viewBox="0 0 16 16" fill="none" xmlns="http://www.w3.org/2000/svg">
<g clip-path="url(#clip0_236_67)">
<path d="M5.21321 9.40405C5.4618 9.16624 5.69832 8.9457 5.92749 8.71738C5.97191 8.66765 6.02941 8.6314 6.09344 8.61278C6.15746 8.59416 6.22544 8.59392 6.2896 8.61207C8.52482 9.08122 10.2102 10.9802 10.3984 13.2551C10.4209 13.4587 10.4245 13.6638 10.4091 13.868C10.3587 14.3393 10.082 14.679 9.71472 14.9513C9.21666 15.3203 8.6448 15.5266 8.05136 15.6747C6.89167 15.9638 5.71213 16.0424 4.52093 15.9807C3.57531 15.9315 2.64437 15.802 1.74752 15.4839C1.33923 15.3393 0.95123 15.1542 0.614156 14.8758C0.198964 14.5331 -0.0116534 14.1062 0.000431142 13.5521C0.0522222 11.1753 1.85369 9.03719 4.19335 8.6069C4.24216 8.60316 4.29122 8.60908 4.33773 8.62434C4.38424 8.6396 4.42729 8.66388 4.46439 8.6958C4.71774 8.91937 4.95813 9.15977 5.21321 9.40405ZM6.14458 10.7485C6.0963 10.8002 6.06176 10.8632 6.04412 10.9318C6.02648 11.0003 6.0263 11.0722 6.04359 11.1408C6.22529 12.1041 6.39275 13.07 6.56797 14.0324C6.5956 14.1848 6.56366 14.2996 6.4385 14.4023C6.09322 14.6859 5.75442 14.9798 5.4126 15.2685C5.26154 15.398 5.16875 15.395 5.01467 15.2651C4.67631 14.9807 4.34312 14.6893 3.9987 14.4122C3.86103 14.3018 3.83038 14.1796 3.86016 14.0156C4.03539 13.0566 4.20155 12.0955 4.38239 11.1378C4.39995 11.0692 4.39981 10.9973 4.382 10.9289C4.36418 10.8604 4.32927 10.7976 4.28053 10.7463L4.05438 10.9245C3.82952 11.1024 3.71687 11.0808 3.58524 10.8313C3.4126 10.5029 3.23996 10.1731 3.06733 9.84427C3.01554 9.7463 2.96159 9.65005 2.90721 9.55079C2.8675 9.5715 2.8429 9.58273 2.82089 9.59654C1.3716 10.4886 0.591713 11.7847 0.45792 13.4809C0.419508 13.969 0.600345 14.3484 1.00216 14.5922C1.35013 14.8055 1.7196 14.9816 2.10444 15.1175C2.91454 15.398 3.76219 15.4942 4.61545 15.5309C5.83427 15.5836 7.04057 15.5003 8.21752 15.1563C8.70997 15.0143 9.18472 14.8253 9.57876 14.48C9.84937 14.2426 9.98835 13.9504 9.97065 13.5814C9.90548 12.1969 9.36642 11.0372 8.32499 10.1209C8.08157 9.90513 7.80406 9.73249 7.53172 9.53007C7.4864 9.61251 7.45964 9.65955 7.43504 9.70573C7.24428 10.068 7.0538 10.4304 6.86362 10.7929C6.7035 11.095 6.61027 11.1175 6.3457 10.9081C6.27881 10.8546 6.21148 10.8007 6.14458 10.7485ZM5.21623 14.8434C5.49201 14.6091 5.75227 14.3833 6.01856 14.1649C6.05096 14.1427 6.07552 14.1107 6.08877 14.0737C6.10202 14.0367 6.10327 13.9964 6.09236 13.9586C5.9262 13.0558 5.76694 12.1494 5.59905 11.2431C5.58979 11.217 5.57422 11.1937 5.55373 11.1752C5.53324 11.1567 5.50848 11.1435 5.48166 11.1369C5.30433 11.125 5.1264 11.125 4.94907 11.1369C4.92219 11.1424 4.89709 11.1544 4.876 11.172C4.85492 11.1895 4.8385 11.212 4.82823 11.2375C4.65847 12.1527 4.49417 13.0687 4.33535 13.9854C4.33184 14.0121 4.33415 14.0393 4.34212 14.0651C4.35009 14.0909 4.36353 14.1146 4.38153 14.1347C4.65257 14.3721 4.93008 14.6021 5.21623 14.8434ZM3.30773 9.33068C3.51575 9.72731 3.70695 10.0907 3.90419 10.4666L4.82089 9.74026C4.63056 9.52921 4.44972 9.32291 4.25982 9.12394C4.24075 9.10722 4.21817 9.09497 4.19375 9.0881C4.16933 9.08123 4.14368 9.07991 4.11869 9.08424C3.85757 9.15761 3.59776 9.24134 3.30773 9.33068ZM7.11826 9.33068C6.82822 9.24177 6.56193 9.15804 6.29434 9.07992C6.27676 9.07516 6.25833 9.07439 6.2404 9.07768C6.22248 9.08096 6.20552 9.08822 6.19076 9.09891C5.99611 9.31212 5.80578 9.5305 5.61329 9.7463L6.51964 10.4658L7.11826 9.33068ZM5.21277 10.01C5.05179 10.1369 4.89253 10.2543 4.74406 10.3846C4.72714 10.4051 4.71547 10.4294 4.71006 10.4554C4.70464 10.4815 4.70565 10.5084 4.71299 10.534C4.7363 10.5892 4.79499 10.6669 4.84247 10.6695C5.08885 10.6837 5.33584 10.6837 5.58222 10.6695C5.63185 10.666 5.68882 10.5801 5.71774 10.5201C5.72343 10.4966 5.72322 10.4721 5.71712 10.4486C5.71102 10.4252 5.69922 10.4037 5.68278 10.3859C5.53302 10.2564 5.37462 10.1373 5.21277 10.01Z" fill="#B07FD8"/>
<path d="M12.6664 11.004C12.218 10.9306 11.7885 10.9034 11.385 10.7882C9.78076 10.3273 8.73156 8.78994 8.84377 7.10975C8.95253 5.47833 10.2197 4.09507 11.842 3.83655C14.1062 3.4753 16.1442 5.31303 15.9823 7.59486C15.8912 8.881 15.2585 9.85208 14.1403 10.4973C14.0225 10.5651 13.9901 10.6268 14.038 10.7485C14.0694 10.8347 14.0937 10.9233 14.1105 11.0135C14.1515 11.203 14.2029 11.364 14.4066 11.4706C14.5248 11.5327 14.618 11.7049 14.6578 11.8456C14.9465 12.8771 15.2188 13.9134 15.495 14.9488C15.6042 15.3583 15.4087 15.6937 15.0004 15.8059C14.7928 15.8633 14.5848 15.9198 14.3759 15.9712C13.9707 16.0705 13.6444 15.878 13.5356 15.474C13.3178 14.6684 13.102 13.8627 12.8882 13.0571C12.83 12.8383 12.7756 12.6186 12.713 12.4015C12.6478 12.1749 12.6698 11.966 12.8092 11.7709C12.8345 11.7383 12.8464 11.6972 12.8425 11.6561C12.7829 11.4201 12.7169 11.1879 12.6664 11.004ZM12.4148 4.24742C11.797 4.24751 11.1931 4.43075 10.6794 4.77399C10.1657 5.11723 9.76533 5.60506 9.52885 6.17581C9.29237 6.74655 9.23041 7.3746 9.3508 7.98056C9.47119 8.58651 9.76853 9.14317 10.2052 9.58017C10.6419 10.0172 11.1984 10.3149 11.8043 10.4357C12.4101 10.5565 13.0382 10.495 13.6091 10.2589C14.18 10.0228 14.6681 9.62277 15.0117 9.10933C15.3553 8.59589 15.539 7.99211 15.5395 7.37431C15.5403 6.96364 15.46 6.55685 15.3033 6.17726C15.1466 5.79767 14.9165 5.45275 14.6262 5.16226C14.3359 4.87177 13.9911 4.64143 13.6117 4.48444C13.2322 4.32746 12.8254 4.24691 12.4148 4.24742ZM15.085 15.2008C15.0695 15.127 15.0639 15.0951 15.0557 15.064C14.7815 14.0342 14.5057 13.0052 14.2283 11.9768C14.1826 11.8085 14.0958 11.7584 13.9262 11.7994C13.7329 11.8465 13.5412 11.9021 13.3492 11.9548C13.1429 12.0113 13.0971 12.0886 13.1528 12.3001C13.2352 12.6121 13.3211 12.9237 13.4044 13.2358C13.5909 13.9329 13.7772 14.6298 13.9633 15.3264C14.0134 15.5129 14.0928 15.578 14.243 15.5422C14.4679 15.4874 14.6931 15.4313 14.912 15.3566C14.9845 15.3273 15.0376 15.244 15.085 15.2008ZM13.2723 11.5038L13.7359 11.3743L13.5697 10.7597L13.1053 10.8892L13.2723 11.5038Z" fill="#662E93"/>
<path d="M2.92791 4.84411C2.88475 4.6309 2.82088 4.41942 2.79844 4.20362C2.76736 3.90151 2.65299 3.63737 2.48553 3.38576C2.28009 3.0763 2.08933 2.75606 1.89856 2.43625C1.75096 2.18938 1.83167 1.92654 2.10012 1.82771C2.8826 1.53811 3.66421 1.24506 4.45661 0.98308C5.00344 0.802243 5.56494 0.831591 6.10961 1.02365C6.8308 1.27829 7.54854 1.54156 8.26758 1.8044C8.60638 1.92827 8.68838 2.17384 8.50107 2.48027C8.32153 2.77505 8.1532 3.0776 7.9551 3.359C7.757 3.64039 7.65299 3.95848 7.60767 4.30073C7.58437 4.47337 7.51531 4.63867 7.47819 4.80958C7.4687 4.85274 7.49503 4.91014 7.51531 4.95632C7.68724 5.33932 7.76087 5.75917 7.72952 6.17782C7.69817 6.59646 7.56283 7.00067 7.33578 7.35379C7.10872 7.70691 6.79713 7.99778 6.42924 8.20003C6.06136 8.40229 5.64881 8.50954 5.229 8.51205C4.80919 8.51456 4.39539 8.41226 4.02511 8.21442C3.65483 8.01659 3.33978 7.72947 3.10851 7.37909C2.87725 7.02871 2.73708 6.62616 2.70072 6.20792C2.66436 5.78967 2.73296 5.36897 2.90029 4.98394C2.92187 4.93474 2.94345 4.88597 2.96632 4.8372L2.92791 4.84411ZM3.40698 5.00639C2.91453 5.8208 3.13767 6.94855 3.88432 7.57566C4.26125 7.89304 4.73934 8.06501 5.23207 8.06041C5.7248 8.05582 6.19961 7.87498 6.57055 7.55063C7.37418 6.84627 7.451 5.73794 7.01855 5.00898C5.82433 5.78239 4.61112 5.78886 3.40698 5.00639ZM2.30469 2.23384C2.55459 2.6391 2.79282 3.0284 3.0384 3.41424C3.05415 3.43048 3.0731 3.44328 3.09405 3.45182C3.115 3.46036 3.13749 3.46447 3.16011 3.46387C4.53056 3.46646 5.90072 3.46646 7.2706 3.46387C7.29323 3.46407 7.31565 3.45957 7.33645 3.45065C7.35725 3.44174 7.37598 3.42861 7.39144 3.41208C7.63529 3.02667 7.8731 2.63781 8.11566 2.24419C8.09405 2.22961 8.0714 2.21663 8.0479 2.20535C7.35433 1.95416 6.66162 1.69996 5.96589 1.45438C5.54984 1.30764 5.11825 1.26966 4.69356 1.39396C4.24988 1.52343 3.81656 1.69003 3.38022 1.84411C3.02502 1.96927 2.67284 2.10004 2.30469 2.23384ZM7.2037 3.92611H3.21104C3.23693 4.08278 3.2542 4.23254 3.29002 4.37712C3.30882 4.43997 3.35078 4.49335 3.40741 4.52646C3.69514 4.67233 3.98647 4.81217 4.28139 4.94596C4.65256 5.11428 5.04315 5.16176 5.44971 5.13025C5.89339 5.09443 6.25981 4.8536 6.66292 4.70988C7.04099 4.57479 7.21751 4.34778 7.20974 3.95891C7.20931 3.9533 7.20759 3.94898 7.2037 3.92611Z" fill="#B07FD8"/>
<path d="M8.08633 13.448C7.79025 13.448 7.49375 13.448 7.19768 13.448C7.0108 13.448 6.93182 13.369 6.92966 13.1838C6.92707 12.9249 6.92664 12.6659 6.92966 12.407C6.93182 12.2343 7.01598 12.1502 7.18861 12.148C7.7868 12.146 8.38484 12.146 8.98274 12.148C9.14848 12.148 9.23005 12.2309 9.2322 12.3975C9.23609 12.6668 9.23652 12.9361 9.2322 13.2054C9.22962 13.3647 9.1502 13.4423 8.99094 13.4441C8.6884 13.4505 8.38628 13.448 8.08633 13.448ZM8.77472 12.6137H7.39362V12.9831H8.77472V12.6137Z" fill="#B07FD8"/>
<path d="M11.7096 5.6716C11.7096 5.54946 11.707 5.44329 11.7096 5.33712C11.7186 5.04665 11.8869 4.87661 12.1752 4.8697C12.3367 4.86582 12.4985 4.86495 12.6604 4.8697C12.9383 4.8779 13.1088 5.05183 13.1165 5.32978C13.1196 5.43638 13.1165 5.54299 13.1165 5.6716C13.2111 5.6716 13.2892 5.6716 13.3686 5.6716C13.656 5.67721 13.8114 5.83301 13.814 6.12952C13.8179 6.55507 13.814 6.98105 13.814 7.40703C13.814 7.811 13.814 8.21541 13.814 8.61981C13.814 8.96508 13.6655 9.11139 13.3216 9.11182C12.7127 9.11182 12.1036 9.11182 11.4942 9.11182C11.161 9.11182 11.0108 8.9612 11.0104 8.62801C11.0104 7.81403 11.0104 7.00004 11.0104 6.18606C11.0104 5.81144 11.1502 5.67289 11.5283 5.67117C11.5831 5.67117 11.6358 5.6716 11.7096 5.6716ZM13.3423 8.64959V6.13858H11.4778V8.65347L13.3423 8.64959ZM12.1696 5.65995H12.6552V5.33237H12.1701L12.1696 5.65995Z" fill="#662E93"/>
<path d="M13.3392 9.41357C13.3396 9.44303 13.3342 9.47228 13.3232 9.49962C13.3122 9.52696 13.2959 9.55185 13.2752 9.57284C13.2545 9.59384 13.2299 9.61052 13.2027 9.62193C13.1756 9.63334 13.1464 9.63924 13.1169 9.63929C13.0575 9.6401 13.0001 9.61737 12.9573 9.57606C12.9146 9.53474 12.8899 9.4782 12.8886 9.41875C12.8883 9.38929 12.8939 9.36007 12.905 9.33279C12.9162 9.30551 12.9326 9.28072 12.9534 9.25987C12.9742 9.23902 12.999 9.22252 13.0263 9.21134C13.0535 9.20016 13.0827 9.19452 13.1122 9.19475C13.1416 9.19359 13.171 9.19839 13.1985 9.20887C13.226 9.21935 13.2512 9.23529 13.2724 9.25573C13.2936 9.27617 13.3104 9.30069 13.3219 9.32782C13.3334 9.35494 13.3393 9.38411 13.3392 9.41357Z" fill="black"/>
<path d="M11.7052 9.19378C11.7349 9.19196 11.7646 9.19609 11.7927 9.20594C11.8207 9.21578 11.8465 9.23115 11.8685 9.25112C11.8905 9.27109 11.9083 9.29527 11.9208 9.32222C11.9334 9.34918 11.9404 9.37837 11.9414 9.40808C11.9425 9.43778 11.9376 9.4674 11.9271 9.49518C11.9165 9.52297 11.9005 9.54836 11.8799 9.56986C11.8594 9.59135 11.8348 9.60852 11.8075 9.62036C11.7803 9.63219 11.7509 9.63844 11.7212 9.63875C11.6917 9.64026 11.6623 9.63583 11.6346 9.6257C11.607 9.61558 11.5816 9.59998 11.5601 9.57983C11.5386 9.55969 11.5213 9.53542 11.5094 9.50846C11.4975 9.48151 11.4911 9.45242 11.4907 9.42295C11.4889 9.39362 11.4931 9.36422 11.503 9.33656C11.513 9.30891 11.5285 9.28357 11.5485 9.26211C11.5686 9.24065 11.5929 9.22352 11.6198 9.21177C11.6468 9.20002 11.6758 9.1939 11.7052 9.19378Z" fill="black"/>
<path d="M5.91714 2.39934C5.91697 2.53885 5.87536 2.67516 5.79761 2.791C5.71986 2.90683 5.60947 2.99697 5.48042 3.04998C5.35137 3.10299 5.20949 3.11649 5.07276 3.08875C4.93604 3.06102 4.81063 2.99331 4.71243 2.89421C4.61424 2.7951 4.54769 2.66907 4.52122 2.5321C4.49475 2.39512 4.50955 2.25337 4.56375 2.12482C4.61794 1.99627 4.7091 1.8867 4.82565 1.81002C4.94219 1.73334 5.07889 1.693 5.21839 1.69411C5.4036 1.69802 5.58004 1.77378 5.71043 1.90537C5.84082 2.03697 5.91494 2.2141 5.91714 2.39934ZM5.46181 2.39114C5.46107 2.32497 5.43407 2.26182 5.38676 2.21556C5.33945 2.16931 5.27571 2.14374 5.20954 2.14448C5.14338 2.14522 5.08023 2.17222 5.03397 2.21953C4.98771 2.26684 4.96215 2.33059 4.96289 2.39675C4.96326 2.42951 4.97008 2.46187 4.98295 2.492C4.99583 2.52212 5.01451 2.54942 5.03794 2.57232C5.06136 2.59522 5.08907 2.61329 5.11948 2.62549C5.14988 2.63768 5.1824 2.64377 5.21516 2.6434C5.24791 2.64303 5.28028 2.63622 5.31041 2.62334C5.34053 2.61046 5.36782 2.59178 5.39073 2.56835C5.41363 2.54493 5.4317 2.51722 5.4439 2.48681C5.45609 2.45641 5.46218 2.4239 5.46181 2.39114Z" fill="#662E93"/>
<path d="M11.7527 7.38534C11.7527 7.14278 11.7527 6.90023 11.7527 6.65767C11.7527 6.49798 11.8446 6.3957 11.9763 6.39527C12.1079 6.39483 12.2033 6.49626 12.2041 6.65422C12.2067 7.14336 12.2067 7.63394 12.2041 8.12595C12.2041 8.28521 12.1096 8.3875 11.9784 8.38836C11.8472 8.38922 11.7544 8.28693 11.7527 8.1294C11.7488 7.88167 11.7527 7.6335 11.7527 7.38534Z" fill="black"/>
<path d="M13.0799 7.39702C13.0799 7.63397 13.0799 7.87177 13.0799 8.10872C13.0799 8.28136 12.9936 8.38753 12.8567 8.38969C12.7199 8.39184 12.628 8.28567 12.6276 8.11605C12.6276 7.63612 12.6276 7.15619 12.6276 6.67626C12.6276 6.50363 12.7139 6.39745 12.8494 6.3953C12.9849 6.39314 13.0786 6.50147 13.0799 6.68489C13.0807 6.92227 13.0799 7.15965 13.0799 7.39702Z" fill="black"/>
</g>
<defs>
<clipPath id="clip0_236_67">
<rect width="15.9914" height="16" fill="white"/>
</clipPath>
</defs>
</svg>
