<svg width="16" height="16" viewBox="0 0 16 16" fill="none" xmlns="http://www.w3.org/2000/svg">
<g clip-path="url(#clip0_272_34)">
<path d="M0 15.6564C1.86893 12.8091 3.73741 9.96159 5.60544 7.11387C5.63774 7.05771 5.68493 7.01156 5.74181 6.98051C5.79869 6.94946 5.86304 6.93473 5.92777 6.93793C7.30725 6.94127 8.68674 6.94127 10.0662 6.93793C10.2275 6.93793 10.3241 7.00737 10.4079 7.13557C12.2388 9.92698 14.0706 12.7177 15.9035 15.5078C16.0538 15.7372 16.0327 15.8477 15.812 15.9999H0V15.6564ZM13.3065 15.4607C13.2758 15.3986 13.2504 15.3446 13.2227 15.2918C12.4852 13.8823 11.7475 12.473 11.0098 11.064C10.4046 9.90818 9.79867 8.75273 9.1921 7.59761C9.16638 7.54854 9.11494 7.47976 9.07286 7.4781C8.80899 7.46708 8.54411 7.47275 8.27723 7.47275C8.26955 7.56523 8.26354 7.64168 8.25686 7.72347H7.74181C7.73446 7.635 7.72845 7.55922 7.7211 7.47209C7.48361 7.47209 7.25348 7.48077 7.02735 7.46875C6.90209 7.46174 6.84564 7.51048 6.79053 7.61564C5.45046 10.1823 4.10839 12.7477 2.76431 15.3118C2.74093 15.3566 2.72156 15.403 2.6955 15.4591H7.73446V14.4108H8.26888V15.4607H13.3065ZM15.2328 15.4677C15.1877 15.3946 15.1593 15.3469 15.1289 15.3008C13.4486 12.7391 11.7695 10.1768 10.0916 7.61397C9.99908 7.47309 9.89921 7.45406 9.74657 7.48444C9.77462 7.54286 9.79734 7.59394 9.82306 7.64368L12.392 12.5472C12.8794 13.4773 13.3664 14.4074 13.853 15.3375C13.888 15.4043 13.9091 15.4731 14.0166 15.4711C14.4104 15.4631 14.8059 15.4677 15.2328 15.4677ZM6.26212 7.48077C6.11782 7.46808 6.01729 7.45272 5.93011 7.58593C4.24244 10.1677 2.55099 12.7467 0.855747 15.3229C0.829026 15.3636 0.806313 15.4073 0.771241 15.4677C1.16505 15.4677 1.5338 15.4614 1.90222 15.4711C2.03582 15.4748 2.10263 15.4344 2.16342 15.3152C3.41041 12.9233 4.66096 10.533 5.91508 8.14446C6.02797 7.92913 6.14054 7.71379 6.26212 7.48077Z" fill="#B07FD8"/>
<path d="M7.99866 0C9.29531 0.00868005 10.3615 1.04227 10.3999 2.33694C10.4092 2.65576 10.3184 2.95389 10.1995 3.244C9.87014 4.03789 9.39351 4.74632 8.8868 5.43271C8.67404 5.72182 8.45258 6.00325 8.22545 6.28269C8.08918 6.45128 7.91282 6.44961 7.7762 6.28269C7.0888 5.43805 6.44248 4.5647 5.95549 3.58486C5.88401 3.44064 5.82355 3.29107 5.76109 3.14251C5.21965 1.84985 6.13552 0.276427 7.6122 0.0410637C7.73913 0.0206989 7.86939 0.0133539 7.99866 0ZM7.99866 5.71915C8.12291 5.55723 8.23247 5.41869 8.33635 5.2778C8.83036 4.60744 9.30766 3.92639 9.65771 3.16621C9.83841 2.77361 9.92492 2.37466 9.80969 1.94099C9.53446 0.906064 8.43789 0.305137 7.42649 0.630973C6.49793 0.929767 5.82121 2.04615 6.30186 3.07808C6.74376 4.02955 7.35401 4.86617 7.99766 5.71948L7.99866 5.71915Z" fill="#662E93"/>
<path d="M8.25686 13.5923H7.74181V12.2839H8.25686V13.5923Z" fill="#662E93"/>
<path d="M8.25819 11.4634H7.73178V10.4158H8.26621C8.26621 10.7212 8.26621 11.021 8.26621 11.3208C8.26687 11.3662 8.26153 11.412 8.25819 11.4634Z" fill="#662E93"/>
<path d="M8.25519 9.86412H7.74181V9.0769H8.25519V9.86412Z" fill="#662E93"/>
<path d="M7.74181 8.01001H8.25652V8.52714H7.74181V8.01001Z" fill="#662E93"/>
<path d="M8.00301 3.20318C7.79195 3.20411 7.58537 3.14236 7.40947 3.02577C7.23357 2.90918 7.09627 2.743 7.015 2.54831C6.93372 2.35362 6.91213 2.13919 6.95296 1.93221C6.99378 1.72524 7.09519 1.53505 7.24432 1.38576C7.39345 1.23647 7.58357 1.13482 7.79059 1.09368C7.9976 1.05255 8.21217 1.07379 8.40709 1.15472C8.60201 1.23565 8.76848 1.37261 8.88541 1.54824C9.00233 1.72387 9.06444 1.93025 9.06384 2.14121C9.06437 2.28068 9.03731 2.41888 8.9842 2.54785C8.9311 2.67682 8.85301 2.79403 8.75442 2.89273C8.65582 2.99142 8.53868 3.06966 8.40973 3.12294C8.28077 3.17622 8.14255 3.20349 8.00301 3.20318ZM8.53142 2.13487C8.53165 2.06421 8.51779 1.99422 8.49063 1.92898C8.46348 1.86374 8.42358 1.80457 8.37327 1.75493C8.32297 1.70529 8.26326 1.66617 8.19765 1.63986C8.13204 1.61356 8.06184 1.60059 7.99116 1.60172C7.92047 1.60285 7.85072 1.61806 7.78599 1.64646C7.72126 1.67485 7.66283 1.71586 7.61415 1.76709C7.56546 1.81832 7.52748 1.87873 7.50243 1.94481C7.47738 2.01088 7.46576 2.08128 7.46825 2.1519C7.47317 2.29099 7.53248 2.42261 7.63344 2.51848C7.7344 2.61434 7.86896 2.66679 8.00819 2.66456C8.14743 2.66233 8.28024 2.6056 8.37807 2.50655C8.47591 2.40751 8.53097 2.27405 8.53142 2.13487Z" fill="#662E93"/>
</g>
<defs>
<clipPath id="clip0_272_34">
<rect width="16" height="16" fill="white"/>
</clipPath>
</defs>
</svg>
