<svg width="18" height="17" viewBox="0 0 18 17" fill="none" xmlns="http://www.w3.org/2000/svg">
<g clip-path="url(#clip0_276_62)">
<path d="M7.47021 9.28233L7.47006 9.28247C7.25919 9.48988 7.09196 9.73739 6.9782 10.0104C6.86452 10.2832 6.80654 10.5761 6.80767 10.8716C6.79995 11.2381 6.8875 11.6004 7.06176 11.923C7.21991 12.2157 7.44456 12.4666 7.71706 12.6559L7.66035 12.6757C7.52017 12.7224 7.37924 12.7684 7.23814 12.8145C6.9555 12.9067 6.67215 12.9992 6.39267 13.0983C6.05921 13.1989 5.7617 13.3933 5.53557 13.6583C5.30919 13.9236 5.16391 14.2484 5.11709 14.594L5.11708 14.594L5.11696 14.595C5.07796 14.9389 5.0676 15.2855 5.086 15.6311C5.07223 15.7474 5.0849 15.8653 5.12307 15.976C5.16173 16.0881 5.22553 16.1899 5.30961 16.2736C5.39368 16.3573 5.49578 16.4206 5.6081 16.4588C5.71939 16.4965 5.83778 16.5086 5.95437 16.494H12.0031C12.3032 16.494 12.533 16.4239 12.6871 16.2683C12.841 16.1128 12.9101 15.8813 12.9101 15.5795V15.025C12.9369 14.5865 12.811 14.1522 12.5539 13.796C12.2967 13.4398 11.9241 13.1837 11.4995 13.0712L10.2736 12.6626C10.5192 12.493 10.7263 12.2728 10.8806 12.0164C11.0528 11.7303 11.1544 11.4073 11.177 11.0741C11.2078 10.7454 11.1648 10.4138 11.0509 10.1039C10.9369 9.79371 10.755 9.51299 10.5184 9.28233C10.1107 8.88471 9.56377 8.66216 8.9943 8.66216C8.42482 8.66216 7.87789 8.88471 7.47021 9.28233ZM8.97145 15.8266L8.971 15.8266L5.97788 15.8532C5.97782 15.8532 5.97776 15.8532 5.9777 15.8532C5.91334 15.8532 5.86758 15.8524 5.83353 15.8478C5.79954 15.8432 5.78519 15.8356 5.77759 15.8284C5.77026 15.8214 5.76213 15.808 5.75677 15.7748C5.75136 15.7412 5.74984 15.695 5.74984 15.629V15.6275V15.6259V15.6244V15.6228V15.6213V15.6198V15.6182V15.6167V15.6152V15.6136V15.6121V15.6106V15.609V15.6075V15.6059V15.6044V15.6029V15.6013V15.5998V15.5983V15.5967V15.5952V15.5937V15.5921V15.5906V15.5891V15.5876V15.586V15.5845V15.583V15.5814V15.5799V15.5784V15.5768V15.5753V15.5738V15.5723V15.5707V15.5692V15.5677V15.5662V15.5646V15.5631V15.5616V15.5601V15.5585V15.557V15.5555V15.554V15.5524V15.5509V15.5494V15.5479V15.5463V15.5448V15.5433V15.5418V15.5403V15.5387V15.5372V15.5357V15.5342V15.5327V15.5311V15.5296V15.5281V15.5266V15.5251V15.5235V15.522V15.5205V15.519V15.5175V15.516V15.5144V15.5129V15.5114V15.5099V15.5084V15.5069V15.5053V15.5038V15.5023V15.5008V15.4993V15.4978V15.4963V15.4948V15.4932V15.4917V15.4902V15.4887V15.4872V15.4857V15.4842V15.4827V15.4812V15.4796V15.4781V15.4766V15.4751V15.4736V15.4721V15.4706V15.4691V15.4676V15.4661V15.4646V15.4631V15.4615V15.46V15.4585V15.457V15.4555V15.454V15.4525V15.451V15.4495V15.448V15.4465V15.445V15.4435V15.442V15.4405V15.439V15.4375V15.436V15.4345V15.433V15.4315V15.43V15.4285V15.427V15.4255V15.424V15.4225V15.421V15.4195V15.418V15.4165V15.415V15.4135V15.412V15.4105V15.409V15.4075V15.406V15.4045V15.403V15.4015V15.4V15.3985V15.397V15.3955V15.394V15.3925V15.391V15.3895V15.388V15.3865V15.385V15.3835V15.382V15.3805V15.379V15.3776V15.3761V15.3746V15.3731V15.3716V15.3701V15.3686V15.3671V15.3656V15.3641V15.3626V15.3611V15.3596V15.3582V15.3567V15.3552V15.3537V15.3522V15.3507V15.3492V15.3477V15.3462V15.3447V15.3432V15.3418V15.3403V15.3388V15.3373V15.3358V15.3343V15.3328V15.3313V15.3299V15.3284V15.3269V15.3254V15.3239V15.3224V15.3209V15.3194V15.318V15.3165V15.315V15.3135V15.312V15.3105V15.309V15.3076V15.3061V15.3046V15.3031V15.3016V15.3001V15.2987V15.2972V15.2957V15.2942V15.2927V15.2912V15.2898V15.2883V15.2868V15.2853V15.2838V15.2823V15.2809V15.2794V15.2779V15.2764V15.2749V15.2735V15.272V15.2705V15.269V15.2675V15.266V15.2646V15.2631V15.2616V15.2601V15.2586V15.2572V15.2557V15.2542V15.2527V15.2513V15.2498V15.2483V15.2468V15.2453V15.2439V15.2424V15.2409V15.2394V15.2379V15.2365V15.235V15.2335V15.232V15.2306V15.2291V15.2276V15.2261V15.2246V15.2232V15.2217V15.2202V15.2187V15.2173V15.2158V15.2143V15.2128V15.2114V15.2099V15.2084V15.2069V15.2055V15.204V15.2025V15.201V15.1996V15.1981V15.1966V15.1951V15.1937V15.1922V15.1907V15.1892V15.1878V15.1863V15.1848V15.1833V15.1819V15.1804V15.1789V15.1774V15.176V15.1745V15.173V15.1716V15.1701V15.1686V15.1671V15.1657V15.1642V15.1627V15.1612V15.1598V15.1583V15.1568V15.1554V15.1539V15.1524V15.1509V15.1495V15.148V15.1465V15.1451V15.1436V15.1421V15.1406V15.1392V15.1377V15.1362V15.1348V15.1333V15.1318V15.1303V15.1289V15.1274V15.1259V15.1245V15.123V15.1215V15.12V15.1186V15.1171V15.1156V15.1142V15.1127V15.1112V15.1098V15.1083V15.1068V15.1053V15.1039V15.1024V15.1009V15.0995V15.098V15.0965V15.0951V15.0936V15.0921V15.0906V15.0892V15.0877V15.0862V15.0848V15.0833V15.0818V15.0804V15.0789V15.0774V15.076V15.0745V15.073V15.0715V15.0701V15.0686V15.0671V15.0657V15.0642V15.0627V15.0613V15.0598V15.0583V15.0569V15.0554V15.0539V15.0525V15.051V15.0495V15.048V15.0466V15.0451V15.0436V15.0422V15.0407V15.0392V15.0378V15.0363V15.0348V15.0334V15.0319V15.0304V15.029V15.0275V15.026V15.0246V15.0231V15.0216V15.0201V15.0187V15.0172V15.0157V15.0143V15.0128V15.0113V15.0099V15.0084V15.0069V15.0055V15.004V15.0025V15.0011V14.9996V14.9981V14.9967V14.9952V14.9937V14.9922V14.9908V14.9893V14.9878V14.9864V14.9849V14.9834V14.982V14.9805V14.979V14.9776V14.9761V14.9746V14.9732V14.9717V14.9702V14.9687V14.9673V14.9658V14.9643V14.9629V14.9614V14.9599V14.9585V14.957V14.9555V14.9541V14.9526V14.9511V14.9496V14.9482V14.9467V14.9452V14.9438V14.9423V14.9408V14.9394V14.9379V14.9364V14.935V14.9335V14.932V14.9305V14.9291V14.9276V14.9261V14.9247V14.9232V14.9217V14.9203V14.9188V14.9173V14.9158V14.9144V14.9129V14.9114V14.91V14.9085V14.907V14.9055V14.9041V14.9026V14.9011V14.8997V14.8982V14.8967V14.8953V14.8938V14.8923V14.8908V14.8894V14.8879V14.8864V14.8849V14.8835V14.882V14.8805V14.8791V14.8776V14.8761V14.8746V14.8732V14.8717V14.8702V14.8688L5.74985 14.8673L5.74984 14.8665C5.74609 14.6252 5.81941 14.3889 5.95915 14.1921C6.09888 13.9953 6.29775 13.8482 6.52683 13.7722L6.52685 13.7722L6.52925 13.7713C7.00528 13.5857 7.48808 13.4332 7.9742 13.2797C8.10451 13.2385 8.23506 13.1973 8.36578 13.1554C8.79663 13.0201 9.25953 13.0266 9.68638 13.174L9.68638 13.174L9.68738 13.1743C10.2429 13.3532 10.8024 13.5435 11.3546 13.7339L11.3546 13.7339L11.3567 13.7345C11.6167 13.8117 11.8436 13.9734 12.0013 14.1941C12.159 14.4148 12.2386 14.6818 12.2274 14.9528L12.2273 14.9528V14.9549V15.5795C12.2273 15.6541 12.2258 15.7062 12.2201 15.7437C12.2144 15.7812 12.2056 15.7957 12.1979 15.803C12.1899 15.8105 12.1748 15.818 12.1382 15.8223C12.1016 15.8265 12.0529 15.8266 11.9841 15.8266L8.97145 15.8266ZM7.70589 11.7071C7.5501 11.4671 7.46506 11.1884 7.45999 10.903H7.47237L7.47133 10.852C7.46722 10.6519 7.5039 10.4531 7.57914 10.2677C7.65438 10.0823 7.76659 9.91413 7.90895 9.7735C8.0513 9.63287 8.22081 9.52271 8.40712 9.44974C8.59344 9.37676 8.79267 9.34251 8.99266 9.34908L8.99405 9.34908C9.29663 9.35058 9.59195 9.44195 9.84251 9.61159C10.0931 9.78124 10.2876 10.0215 10.4013 10.3019C10.5151 10.5823 10.5429 10.8902 10.4814 11.1864C10.4198 11.4827 10.2716 11.754 10.0556 11.9658C9.83955 12.1777 9.56544 12.3206 9.26804 12.3764C8.97064 12.4322 8.66336 12.3984 8.38523 12.2792C8.1071 12.16 7.87064 11.9609 7.70589 11.7071Z" fill="#B07FD8" stroke="#B07FD8" stroke-width="0.1"/>
<path d="M14.9979 12.6244C15.1731 12.4787 15.3203 12.3019 15.4319 12.1027C15.559 11.8759 15.6372 11.6251 15.6615 11.3664C15.6858 11.1076 15.6557 10.8467 15.5732 10.6002C15.4906 10.3538 15.3574 10.1274 15.1821 9.93548L15.1821 9.93548L15.1817 9.93504C14.8559 9.58701 14.4076 9.37904 13.9315 9.35494C13.4555 9.33085 12.9886 9.49243 12.6293 9.80564C12.4491 9.95905 12.3012 10.1468 12.1943 10.358C12.0873 10.5691 12.0235 10.7994 12.0066 11.0355C11.9801 11.3474 12.0329 11.6609 12.1601 11.9469C12.2788 12.2136 12.4586 12.4482 12.6846 12.632C12.6149 12.6923 12.5667 12.7544 12.543 12.8208C12.5131 12.9047 12.525 12.9878 12.5682 13.0699C12.6118 13.1528 12.6758 13.2082 12.7611 13.2298C12.844 13.2508 12.9405 13.2382 13.048 13.2004L13.048 13.2004L13.0485 13.2002L13.1323 13.1697L13.1323 13.1698L13.1344 13.1689C13.4353 13.0439 13.7655 13.0066 14.0867 13.0611C14.6869 13.2321 15.29 13.418 15.8737 13.6379C16.0298 13.6992 16.1632 13.8072 16.2556 13.9471C16.3481 14.0871 16.3951 14.2523 16.3902 14.42L16.3901 14.42V14.4215C16.3901 14.4826 16.3889 14.5478 16.3876 14.6136C16.3851 14.7479 16.3825 14.8849 16.3903 14.9963C16.3957 15.0743 16.3811 15.1024 16.3661 15.1153C16.3477 15.1311 16.3111 15.1408 16.2345 15.1408H13.7655C13.7176 15.1357 13.6692 15.1406 13.6233 15.1551C13.5765 15.17 13.5333 15.1947 13.4967 15.2275C13.4601 15.2603 13.4309 15.3005 13.411 15.3455C13.3911 15.3904 13.381 15.4391 13.3813 15.4882L13.3814 15.4902C13.3858 15.5847 13.4237 15.666 13.4922 15.723C13.56 15.7794 13.6532 15.8083 13.7627 15.8083H16.3521H16.3525L14.9979 12.6244ZM14.9979 12.6244C15.0686 12.6476 15.1387 12.6704 15.2082 12.693C15.4463 12.7704 15.6778 12.8457 15.9071 12.9266C16.2486 13.0274 16.5466 13.2395 16.7537 13.5292C16.9608 13.8189 17.0651 14.1696 17.05 14.5254V14.5255V14.5266V14.5278V14.529V14.5301V14.5313V14.5324V14.5336V14.5348V14.5359V14.5371V14.5382V14.5394V14.5405V14.5417V14.5428V14.544V14.5452V14.5463V14.5475V14.5486V14.5498V14.5509V14.5521V14.5532V14.5544V14.5555V14.5567V14.5578V14.559V14.5601V14.5613V14.5624V14.5636V14.5647V14.5659V14.567V14.5682V14.5693V14.5705V14.5716V14.5728V14.5739V14.5751V14.5762V14.5774V14.5785V14.5797V14.5808V14.5819V14.5831V14.5842V14.5854V14.5865V14.5877V14.5888V14.59V14.5911V14.5922V14.5934V14.5945V14.5957V14.5968V14.598V14.5991V14.6002V14.6014V14.6025V14.6037V14.6048V14.6059V14.6071V14.6082V14.6094V14.6105V14.6116V14.6128V14.6139V14.6151V14.6162V14.6173V14.6185V14.6196V14.6208V14.6219V14.623V14.6242V14.6253V14.6264V14.6276V14.6287V14.6299V14.631V14.6321V14.6333V14.6344V14.6355V14.6367V14.6378V14.6389V14.6401V14.6412V14.6423V14.6435V14.6446V14.6457V14.6469V14.648V14.6491V14.6503V14.6514V14.6525V14.6537V14.6548V14.6559V14.6571V14.6582V14.6593V14.6605V14.6616V14.6627V14.6639V14.665V14.6661V14.6673V14.6684V14.6695V14.6707V14.6718V14.6729V14.674V14.6752V14.6763V14.6774V14.6786V14.6797V14.6808V14.682V14.6831V14.6842V14.6854V14.6865V14.6876V14.6887V14.6899V14.691V14.6921V14.6933V14.6944V14.6955V14.6966V14.6978V14.6989V14.7V14.7012V14.7023V14.7034V14.7046V14.7057V14.7068V14.7079V14.7091V14.7102V14.7113V14.7125V14.7136V14.7147V14.7158V14.717V14.7181V14.7192V14.7203V14.7215V14.7226V14.7237V14.7249V14.726V14.7271V14.7282V14.7294V14.7305V14.7316V14.7328V14.7339V14.735V14.7361V14.7373V14.7384V14.7395V14.7407V14.7418V14.7429V14.744V14.7452V14.7463V14.7474V14.7485V14.7497V14.7508V14.7519V14.7531V14.7542V14.7553V14.7564V14.7576V14.7587V14.7598V14.761V14.7621V14.7632V14.7643V14.7655V14.7666V14.7677V14.7689V14.77V14.7711V14.7722V14.7734V14.7745V14.7756V14.7768V14.7779V14.779V14.7801V14.7813V14.7824V14.7835V14.7847V14.7858V14.7869V14.7881V14.7892V14.7903V14.7914V14.7926V14.7937V14.7948V14.796V14.7971V14.7982V14.7994V14.8005V14.8016V14.8028V14.8039V14.805V14.8061V14.8073V14.8084V14.8095V14.8107V14.8118V14.8129V14.8141V14.8152V14.8163V14.8175V14.8186V14.8197V14.8209V14.822V14.8231V14.8243V14.8254V14.8265V14.8277V14.8288V14.8299V14.8311V14.8322V14.8333V14.8345V14.8356V14.8367V14.8379V14.839V14.8402V14.8413V14.8424V14.8436V14.8447V14.8458V14.847V14.8481V14.8492V14.8504V14.8515V14.8527V14.8538V14.8549V14.8561V14.8572V14.8584V14.8595V14.8606V14.8618V14.8629V14.864V14.8652V14.8663V14.8675V14.8686V14.8698V14.8709V14.872V14.8732V14.8743V14.8755V14.8766V14.8777V14.8789V14.88V14.8812V14.8823V14.8835V14.8846V14.8857V14.8869V14.888V14.8892V14.8903V14.8915V14.8926V14.8938V14.8949V14.8961V14.8972V14.8983V14.8995V14.9006V14.9018V14.9029V14.9041V14.9052V14.9064V14.9075V14.9087V14.9098V14.911V14.9121V14.9133V14.9144V14.9156V14.9167V14.9179V14.919V14.9202V14.9213V14.9225V14.9237V14.9248V14.926V14.9271V14.9283V14.9294V14.9306V14.9317V14.9329V14.934V14.9352V14.9364V14.9375V14.9387V14.9398V14.941V14.9421V14.9433V14.9445V14.9456V14.9468V14.9479V14.9491V14.9503V14.9514V14.9526V14.9538V14.9549V14.9561V14.9572V14.9584V14.9596V14.9607V14.9619V14.9631V14.9642V14.9654V14.9666V14.9677V14.9689V14.9701V14.9712V14.9724V14.9736V14.9747V14.9759V14.9771V14.9782V14.9794V14.9806V14.9817V14.9829V14.9841V14.9853V14.9864V14.9876V14.9888V14.99V14.9911V14.9923V14.9935V14.9947V14.9958V14.997V14.9982V14.9994V15.0005V15.0017V15.0029V15.0041V15.0053V15.0064V15.0076V15.0088V15.01V15.0112V15.0123V15.0135V15.0147V15.0159V15.0171V15.0183V15.0194V15.0206V15.0218V15.023V15.0242V15.0254V15.0266V15.0277V15.0289V15.0301V15.0313V15.0325V15.0337V15.0349V15.0361V15.0373V15.0385V15.0397V15.0408V15.042V15.0432V15.0444V15.0456V15.0468V15.048V15.0492V15.0504V15.0516V15.0528V15.054V15.0552V15.0564V15.0576V15.0588V15.06V15.0612V15.0624V15.0636V15.0648V15.066V15.0672V15.0684V15.0696V15.0708V15.0721V15.0733V15.0745V15.0757V15.0769V15.0781V15.0793V15.0805V15.0817V15.0829V15.0842V15.0854V15.0866V15.0878V15.089V15.0902V15.0914V15.0927V15.0939V15.0951V15.0963V15.0975V15.0987V15.1V15.1012V15.1024V15.1036V15.1049V15.1061V15.1073V15.1085V15.1097V15.111V15.1122V15.1134V15.1144L14.9979 12.6244ZM14.5971 11.9929C14.3923 12.2095 14.1124 12.3396 13.8148 12.3567C13.5067 12.3534 13.2124 12.2285 12.9958 12.0093C12.779 11.7897 12.6578 11.4933 12.6587 11.1847C12.6644 10.879 12.7881 10.5874 13.0039 10.3708C13.2194 10.1547 13.51 10.0301 13.8151 10.0231C14.1126 10.0402 14.3923 10.1703 14.5971 10.3869C14.8023 10.6039 14.9166 10.8912 14.9166 11.1899C14.9166 11.4885 14.8023 11.7759 14.5971 11.9929Z" fill="#B07FD8" stroke="#B07FD8" stroke-width="0.1"/>
<path d="M3.23564 13.2469L3.23555 13.2466C3.01424 13.3169 2.79692 13.3924 2.57754 13.4686C2.47665 13.5037 2.37533 13.5389 2.27298 13.5738L2.27209 13.5741L2.27209 13.5741C2.08292 13.6347 1.91791 13.7539 1.80092 13.9144C1.68393 14.0749 1.62103 14.2685 1.62129 14.4671L1.62129 14.4672L1.62129 14.9509C1.62129 15.0111 1.62136 15.0521 1.62462 15.082C1.62793 15.1123 1.63366 15.1201 1.63597 15.1224C1.63812 15.1246 1.64542 15.1303 1.67491 15.1337C1.7041 15.137 1.74429 15.137 1.80361 15.137H4.15633C4.23222 15.134 4.30807 15.1437 4.38076 15.1657M3.23564 13.2469L4.36681 15.2137M3.23564 13.2469L3.24063 13.2447C3.61433 13.0795 4.02478 13.0151 4.43108 13.0579C4.53117 13.0803 4.63167 13.1091 4.73347 13.1393C4.75045 13.1443 4.76749 13.1494 4.78456 13.1545C4.86931 13.1797 4.95505 13.2053 5.04074 13.2275C5.11674 13.2568 5.20109 13.2561 5.27661 13.2254C5.3523 13.1946 5.41333 13.1361 5.44729 13.0618C5.48794 12.9907 5.49947 12.9066 5.4794 12.8271C5.45935 12.7478 5.40938 12.6794 5.34003 12.6361M3.23564 13.2469L5.34003 12.6361M4.38076 15.1657C4.38095 15.1657 4.38114 15.1658 4.38132 15.1658L4.36681 15.2137M4.38076 15.1657C4.38057 15.1656 4.38037 15.1656 4.38017 15.1655L4.36681 15.2137M4.38076 15.1657C4.45422 15.1862 4.51717 15.2338 4.55692 15.2989C4.59617 15.3632 4.60989 15.4399 4.59546 15.5137M4.36681 15.2137C4.4283 15.2307 4.481 15.2705 4.51424 15.325C4.54748 15.3794 4.55877 15.4445 4.54582 15.507M4.59546 15.5137C4.59555 15.5126 4.59563 15.5114 4.59571 15.5103L4.54582 15.507M4.59546 15.5137C4.58975 15.5872 4.55853 15.6565 4.50715 15.7095C4.45497 15.7634 4.38537 15.7969 4.31076 15.8043L4.30587 15.8047V15.8045H1.71896C1.61559 15.8165 1.51083 15.8051 1.41245 15.7711C1.31311 15.7367 1.22286 15.6803 1.14854 15.606C1.07422 15.5316 1.01776 15.4414 0.983425 15.3421C0.949517 15.2439 0.938069 15.1395 0.949899 15.0364C0.940385 14.7504 0.951982 14.464 0.984599 14.1797L0.984734 14.1785L0.984748 14.1785C1.02365 13.8983 1.14075 13.6347 1.32261 13.418C1.50425 13.2015 1.74315 13.0406 2.01197 12.9536C2.1739 12.8938 2.33742 12.838 2.50259 12.7817C2.51652 12.7769 2.53047 12.7722 2.54443 12.7674C2.69742 12.7152 2.85196 12.6621 3.009 12.6043C2.78513 12.4196 2.60759 12.1844 2.49128 11.9175C2.36299 11.6232 2.31361 11.3006 2.34799 10.9814C2.38694 10.5174 2.6081 10.0878 2.96309 9.78661C3.32179 9.47337 3.78778 9.31106 4.26347 9.33367C4.73927 9.3563 5.18787 9.56219 5.51525 9.9082C5.69552 10.0983 5.83367 10.3243 5.92067 10.5714C6.00768 10.8185 6.04159 11.0812 6.02016 11.3424C5.99874 11.6035 5.92248 11.8572 5.79635 12.0868C5.68059 12.2976 5.52522 12.4838 5.33897 12.6353L5.34003 12.6361M4.59546 15.5137C4.59524 15.5148 4.59501 15.516 4.59478 15.5171L4.54582 15.507M4.54582 15.507L5.34003 12.6361M4.16939 12.3567L4.16924 12.3567C3.86091 12.3539 3.5663 12.2288 3.34998 12.0091C3.13367 11.7894 3.0133 11.4928 3.01524 11.1845L3.01524 11.1843C3.01599 10.9527 3.08553 10.7265 3.21505 10.5345C3.34457 10.3425 3.52823 10.1933 3.74271 10.1058C3.95719 10.0184 4.19281 9.99661 4.41967 10.0433C4.64653 10.09 4.8544 10.2031 5.01689 10.3682C5.17938 10.5332 5.28917 10.7428 5.3323 10.9704C5.37544 11.198 5.35 11.4332 5.25919 11.6463C5.16838 11.8594 5.0163 12.0407 4.82227 12.1672C4.62824 12.2937 4.401 12.3596 4.16939 12.3567Z" fill="#B07FD8" stroke="#B07FD8" stroke-width="0.1"/>
<path d="M10.7639 6.9099L10.7639 6.90987L10.7617 6.9116C10.2554 7.29909 9.63991 7.51702 9.00274 7.53451C8.94743 7.52795 8.89343 7.5224 8.83985 7.51689C8.70477 7.503 8.57228 7.48938 8.4278 7.46051C7.94035 7.35864 7.48666 7.1349 7.1091 6.81019C6.73143 6.48538 6.44226 6.07014 6.2686 5.60325C6.09495 5.13637 6.04247 4.63309 6.11609 4.14043C6.1897 3.64777 6.387 3.18181 6.68955 2.78609L6.68973 2.78586C6.76905 2.68148 6.81943 2.5712 6.82008 2.46125C6.82077 2.34577 6.76655 2.24726 6.67108 2.17382C6.57799 2.10221 6.47144 2.07062 6.35939 2.10022C6.25357 2.12817 6.16071 2.20625 6.07845 2.31291C5.75354 2.71311 5.52029 3.17967 5.3951 3.67973C5.26992 4.1798 5.25584 4.70122 5.35387 5.2073C5.45877 5.83353 5.7236 6.42208 6.1227 6.91594C6.52209 7.41015 7.04238 7.79278 7.63316 8.02672C8.22393 8.26067 8.86513 8.33799 9.49459 8.2512C10.124 8.16443 10.7202 7.91654 11.2256 7.53154C11.3482 7.43906 11.4379 7.33952 11.4754 7.23071C11.5158 7.11378 11.491 7.00099 11.4159 6.90337C11.3414 6.8065 11.2408 6.75312 11.1188 6.75926C11.0052 6.76497 10.8862 6.8217 10.7639 6.9099Z" fill="#662E93" stroke="#662E93" stroke-width="0.2"/>
<path d="M12.6976 4.63007L12.6972 4.63007C12.6947 5.24535 12.5312 5.84926 12.2231 6.38186C12.1605 6.49181 12.0777 6.5753 11.9772 6.61468C11.8735 6.65535 11.7638 6.64386 11.6638 6.58637C11.5657 6.52995 11.5002 6.44555 11.481 6.33835C11.4624 6.23516 11.4892 6.12482 11.5446 6.01628L11.5465 6.01243L11.5466 6.01248C11.7821 5.59597 11.9112 5.1278 11.9225 4.64947C11.9338 4.17113 11.8269 3.6974 11.6113 3.27025C11.3957 2.84309 11.0781 2.47572 10.6866 2.20067C10.2951 1.92562 9.84179 1.7514 9.36684 1.69345L9.36303 1.69298L9.36304 1.69291C8.77976 1.59891 8.18182 1.70339 7.665 1.98961L7.66416 1.9901C7.62149 2.01499 7.57468 2.0423 7.5236 2.06637C7.48425 2.09175 7.44042 2.10946 7.39443 2.11852C7.34561 2.12815 7.29536 2.12782 7.24668 2.1176C7.198 2.10738 7.15186 2.08746 7.11103 2.05901C7.07265 2.03226 7.03971 1.9985 7.01394 1.95956C6.98247 1.92327 6.95875 1.88089 6.94428 1.83501M12.6976 4.63007L6.94428 1.83501M12.6976 4.63007L12.697 4.62217C12.6952 4.59916 12.6937 4.57557 12.6921 4.55147C12.6837 4.42444 12.6743 4.28304 12.6347 4.13449C12.5662 3.56995 12.3684 3.02878 12.0567 2.55305C11.7437 2.07529 11.3242 1.67651 10.8313 1.38796C10.3384 1.0994 9.78533 0.928918 9.21549 0.88986C8.64582 0.850814 8.07485 0.944183 7.54729 1.16264C7.37973 1.23013 7.22346 1.32278 7.08386 1.43741C7.04318 1.46466 7.00862 1.50012 6.98243 1.54153C6.95511 1.58472 6.93754 1.63335 6.93095 1.68405C6.92436 1.73475 6.92891 1.78627 6.94428 1.83501M12.6976 4.63007L6.94428 1.83501" fill="#662E93" stroke="#662E93" stroke-width="0.2"/>
<path d="M11.0825 3.95108L11.0826 3.95118L11.0861 3.94741C11.1485 3.88028 11.1832 3.79198 11.1832 3.70029C11.1832 3.61139 11.1506 3.52567 11.0917 3.45934C11.0429 3.3889 10.9704 3.33817 10.8874 3.31645C10.8022 3.29419 10.7118 3.304 10.6334 3.34399C10.5752 3.37166 10.5197 3.40491 10.4678 3.44327L8.14365 4.99147L7.53222 4.35931C7.49982 4.31596 7.45872 4.27983 7.41154 4.25323C7.36205 4.22534 7.30706 4.2086 7.25042 4.20421C7.19378 4.19981 7.13686 4.20786 7.08366 4.22779C7.03046 4.24772 6.98227 4.27905 6.94246 4.31957L6.94243 4.31954L6.94038 4.32176C6.90282 4.36238 6.87416 4.41041 6.85624 4.46276C6.83832 4.51511 6.83155 4.57062 6.83634 4.62574C6.84113 4.68085 6.85738 4.73436 6.88407 4.78284C6.90953 4.8291 6.94396 4.86977 6.98528 4.90252C7.15733 5.07707 7.33981 5.25863 7.50998 5.42795C7.59126 5.50882 7.66972 5.58689 7.7429 5.66007C7.85364 5.77081 7.95332 5.85782 8.07391 5.87066C8.19529 5.88359 8.30912 5.81847 8.43656 5.73351L8.43662 5.73347L10.9096 4.08225C10.9723 4.04566 11.0304 4.00162 11.0825 3.95108Z" fill="#662E93" stroke="#662E93" stroke-width="0.2"/>
</g>
<defs>
<clipPath id="clip0_276_62">
<rect width="18" height="17" fill="white"/>
</clipPath>
</defs>
</svg>
