<svg width="16" height="16" viewBox="0 0 16 16" fill="none" xmlns="http://www.w3.org/2000/svg">
<g clip-path="url(#clip0_236_34)">
<path d="M-6.03992e-06 12.625C0.088744 12.3012 0.141244 11.9616 0.272911 11.6562C0.908327 10.1837 2.57874 9.45829 4.09583 9.97912C4.13749 9.99371 4.18291 10.0066 4.23541 10.0233C4.42458 9.65829 4.61291 9.29996 4.79541 8.93996C4.80908 8.89708 4.80595 8.85061 4.78666 8.80996C4.70874 8.63412 4.62874 8.45871 4.53666 8.28954C4.52124 8.26607 4.50108 8.24608 4.47747 8.23087C4.45386 8.21565 4.42733 8.20555 4.39958 8.20121C4.28124 8.18746 4.15999 8.20121 4.04083 8.19371C3.81656 8.18495 3.60454 8.08916 3.44973 7.92666C3.29492 7.76416 3.20951 7.54774 3.21163 7.32332C3.21374 7.09889 3.30321 6.88412 3.46105 6.72457C3.61889 6.56502 3.83269 6.47324 4.05708 6.46871C4.36333 6.46537 4.67666 6.45329 4.97374 6.51037C5.59624 6.62912 6.05708 7.22162 6.06291 7.84371C6.06291 8.07287 5.95208 8.18996 5.72166 8.19496C5.56541 8.19871 5.40916 8.19704 5.25291 8.19912C5.24416 8.19912 5.23499 8.20662 5.20249 8.22162C5.25458 8.33121 5.30333 8.44329 5.36166 8.54954C5.37321 8.56215 5.38734 8.57213 5.40308 8.57882C5.41882 8.5855 5.43581 8.58873 5.45291 8.58829C6.56166 8.59037 7.67083 8.58829 8.81083 8.58829C8.72249 8.39996 8.62541 8.23454 8.56624 8.05621C8.50708 7.87787 8.44749 7.69246 8.46124 7.51454C8.49874 7.03954 8.86999 6.70537 9.34708 6.69371C9.80013 6.68287 10.2532 6.68287 10.7062 6.69371C10.8265 6.69496 10.9452 6.72125 11.0548 6.77089C11.1643 6.82053 11.2623 6.89244 11.3426 6.98204C11.4228 7.07165 11.4835 7.17697 11.5208 7.29132C11.5581 7.40567 11.5711 7.52653 11.5592 7.64621C11.5175 8.12662 11.0612 8.48829 10.5683 8.43079C10.3887 8.40996 10.2704 8.27912 10.2767 8.10662C10.2829 7.93412 10.4054 7.81746 10.5925 7.80829C10.6287 7.80829 10.6654 7.80829 10.7017 7.80579C10.8442 7.78954 10.9371 7.69121 10.9362 7.56037C10.9354 7.42954 10.8421 7.33246 10.6987 7.31829C10.6467 7.31489 10.5946 7.31419 10.5425 7.31621C10.1625 7.31621 9.78208 7.31329 9.40208 7.31621C9.13458 7.31912 9.00374 7.52079 9.11624 7.76162C9.45416 8.48162 9.79666 9.19954 10.1379 9.91829C10.1473 9.93546 10.1577 9.95203 10.1692 9.96787C10.3971 9.92246 10.6183 9.86454 10.8433 9.83537C12.4792 9.62037 14.01 10.7725 14.2737 12.4145C14.5375 14.0566 13.4304 15.6341 11.8012 15.9391C11.7104 15.9562 11.6204 15.9775 11.53 15.997H10.905C10.8769 15.9851 10.8478 15.9759 10.8179 15.9695C10.2074 15.891 9.63435 15.6319 9.1721 15.2255C8.70984 14.8191 8.3795 14.2839 8.2234 13.6885C8.0673 13.0931 8.09257 12.4647 8.29596 11.8837C8.49936 11.3028 8.87161 10.7959 9.36499 10.4279C9.44249 10.3695 9.52166 10.3141 9.60499 10.2537L9.22249 9.45204C9.19624 9.49371 9.18624 9.50496 9.18083 9.51829C8.59472 10.6486 8.00888 11.7793 7.42333 12.9104C7.39877 12.9614 7.38555 13.0171 7.38458 13.0737C7.37999 13.2404 7.38458 13.407 7.38166 13.5737C7.37874 13.66 7.39791 13.7016 7.49499 13.7175C7.56746 13.7293 7.63302 13.7674 7.67915 13.8245C7.72527 13.8816 7.74872 13.9537 7.74499 14.027C7.743 14.1007 7.71438 14.1711 7.66443 14.2253C7.61448 14.2795 7.54658 14.3137 7.47333 14.3216C7.37503 14.3313 7.27621 14.3345 7.17749 14.3312C6.86374 14.3312 6.75708 14.2229 6.75624 13.9087C6.75624 13.6816 6.75624 13.455 6.75624 13.2258H6.17749C6.17078 13.2473 6.16521 13.2691 6.16083 13.2912C5.97666 14.6137 5.05958 15.6245 3.76874 15.9225C3.64874 15.9504 3.52708 15.9733 3.40624 15.9983H2.81249C2.62499 15.9566 2.43499 15.9275 2.25083 15.8758C2.17409 15.8554 2.10853 15.8055 2.06848 15.737C2.02842 15.6684 2.01713 15.5868 2.03708 15.51C2.05407 15.4356 2.09825 15.3703 2.16093 15.3269C2.22362 15.2835 2.30027 15.2651 2.37583 15.2754C2.42226 15.2812 2.46821 15.2904 2.51333 15.3029C3.02085 15.4257 3.55426 15.3842 4.03667 15.1843C4.51908 14.9845 4.92555 14.6366 5.19749 14.1908C5.38237 13.8966 5.49739 13.5639 5.53374 13.2183H5.34958C4.62597 13.2183 3.90208 13.2183 3.17791 13.2183C2.82291 13.2183 2.69124 13 2.85499 12.6829C3.18833 12.0357 3.52347 11.3891 3.86041 10.7433C3.88541 10.695 3.90666 10.6445 3.93499 10.5829C3.83041 10.5529 3.74249 10.52 3.65166 10.5033C3.50413 10.4723 3.35459 10.4519 3.20416 10.442C1.53499 10.3808 0.320827 11.877 0.70416 13.5175C0.758744 13.7504 0.674577 13.9204 0.484577 13.962C0.294577 14.0037 0.151244 13.8933 0.0962439 13.6704C0.0604105 13.52 0.0312441 13.3679 -0.000839233 13.2166L-6.03992e-06 12.625ZM9.88083 10.8408C8.77624 11.517 8.42499 13.0225 9.08916 14.1541C9.24976 14.4355 9.46421 14.6826 9.72027 14.8811C9.97633 15.0796 10.269 15.2258 10.5815 15.3112C10.8941 15.3966 11.2204 15.4197 11.5418 15.379C11.8633 15.3383 12.1736 15.2347 12.455 15.0741C12.7364 14.9135 12.9834 14.6991 13.182 14.443C13.3805 14.187 13.5267 13.8943 13.6121 13.5817C13.6975 13.2692 13.7205 12.9429 13.6799 12.6214C13.6392 12.3 13.5356 11.9897 13.375 11.7083C12.6821 10.4708 11.2662 10.2379 10.4583 10.5808C10.48 10.6275 10.5 10.6741 10.5229 10.7204C10.839 11.387 11.155 12.0537 11.4708 12.7204C11.5675 12.9258 11.5162 13.1045 11.3458 13.1866C11.1754 13.2687 11.005 13.195 10.9062 12.9891C10.7175 12.5954 10.5312 12.2004 10.3442 11.8062C10.1896 11.4883 10.0375 11.1704 9.88083 10.8408ZM7.08541 12.2012L8.62958 9.22079H5.67624C6.14624 10.2145 6.60916 11.1945 7.08541 12.2012ZM3.61541 12.5833H5.53874C5.43041 11.865 5.08958 11.3062 4.49958 10.875L3.61541 12.5833ZM4.79166 10.3133C5.60041 10.875 6.05499 11.6312 6.17624 12.5858H6.57666C6.10541 11.5891 5.64124 10.6079 5.16333 9.59662L4.79166 10.3133ZM5.36416 7.55996C5.22499 7.28412 5.01999 7.13162 4.73916 7.10371C4.51728 7.08773 4.29459 7.08606 4.07249 7.09871C4.04244 7.09889 4.01274 7.10517 3.98519 7.11719C3.95765 7.1292 3.93283 7.14669 3.91226 7.16859C3.89168 7.19049 3.87577 7.21635 3.8655 7.24459C3.85522 7.27283 3.8508 7.30287 3.85249 7.33287C3.86208 7.46162 3.93166 7.55579 4.06541 7.55746C4.48833 7.56412 4.91249 7.55996 5.36291 7.55996H5.36416Z" fill="#B07FD8"/>
<path fill-rule="evenodd" clip-rule="evenodd" d="M13.0646 0.4225C13.0808 0.230417 13.0104 0.0916667 12.8438 0L12.6575 0.000416438C12.5408 0.0745831 12.4392 0.158333 12.4392 0.31375C12.4392 0.372515 12.4386 0.431281 12.438 0.490031C12.4368 0.607485 12.4356 0.724877 12.4392 0.842084C12.4392 0.924522 12.4719 1.00358 12.5302 1.06188C12.5885 1.12017 12.6676 1.15292 12.75 1.15292C12.8324 1.15292 12.9115 1.12017 12.9698 1.06188C13.0281 1.00358 13.0608 0.924522 13.0608 0.842084C13.0634 0.780932 13.0623 0.71954 13.0611 0.658153V0.658148V0.658143V0.658138V0.658133V0.658128V0.658124V0.658119V0.658114C13.0597 0.579395 13.0583 0.500684 13.0646 0.4225ZM15.5775 3.56458C15.7696 3.58083 15.9079 3.51042 16 3.34375V3.1575C15.925 3.04208 15.8421 2.93917 15.6867 2.93917C15.6279 2.93917 15.5692 2.93852 15.5104 2.93787L15.5103 2.93787C15.3927 2.93657 15.2751 2.93528 15.1579 2.93917C15.0755 2.93917 14.9964 2.97191 14.9381 3.03021C14.8798 3.0885 14.8471 3.16756 14.8471 3.25C14.8471 3.33244 14.8798 3.4115 14.9381 3.46979C14.9964 3.52808 15.0755 3.56083 15.1579 3.56083C15.2187 3.56337 15.2796 3.5622 15.3406 3.56103C15.4198 3.55951 15.4989 3.55799 15.5775 3.56458ZM11.1867 3.24667C11.1873 2.93713 11.2799 2.63477 11.4526 2.37788C11.6252 2.12099 11.8703 1.92115 12.1567 1.80367C12.443 1.6862 12.7579 1.65638 13.0612 1.71799C13.3645 1.77961 13.6428 1.92988 13.8606 2.14978C14.0784 2.36967 14.2261 2.64929 14.2849 2.95319C14.3437 3.25709 14.3109 3.5716 14.1908 3.85686C14.0706 4.14213 13.8685 4.3853 13.61 4.55558C13.3515 4.72585 13.0483 4.81556 12.7388 4.81333C12.3256 4.81014 11.9304 4.6436 11.6396 4.35006C11.3488 4.05653 11.186 3.65986 11.1867 3.24667ZM11.8175 3.23625C11.8148 3.42067 11.8669 3.60175 11.9671 3.75659C12.0673 3.91143 12.2112 4.03307 12.3805 4.10612C12.5499 4.17918 12.7371 4.20038 12.9185 4.16704C13.0999 4.13369 13.2673 4.0473 13.3996 3.91879C13.5319 3.79028 13.6231 3.62542 13.6618 3.44506C13.7004 3.26471 13.6846 3.07695 13.6165 2.90555C13.5484 2.73415 13.431 2.58679 13.2791 2.48212C13.1272 2.37744 12.9478 2.32016 12.7633 2.3175C12.5164 2.31493 12.2784 2.41004 12.1012 2.58213C11.9241 2.75421 11.8221 2.98932 11.8175 3.23625ZM11.3504 1.54583C11.3758 1.35542 10.8708 0.865833 10.6083 0.863749C10.5972 0.872536 10.5811 0.882343 10.5626 0.893566C10.5093 0.925982 10.4365 0.970217 10.4083 1.03583C10.3704 1.12417 10.3771 1.27625 10.4317 1.35042C10.5554 1.51766 10.7033 1.66565 10.8704 1.78958C10.9174 1.81721 10.97 1.83375 11.0243 1.83794C11.0786 1.84213 11.1331 1.83386 11.1838 1.81375C11.265 1.77167 11.3371 1.64417 11.3504 1.54583ZM14.4192 1.88208C14.3974 1.86489 14.3714 1.84835 14.3446 1.83133C14.2812 1.791 14.2135 1.7479 14.1871 1.68667C14.1496 1.59958 14.1533 1.445 14.2079 1.37208C14.3405 1.20484 14.4905 1.05218 14.6554 0.916668C14.7638 0.822918 14.9388 0.849168 15.0417 0.947084C15.1446 1.045 15.18 1.22292 15.0875 1.33083C14.9393 1.49763 14.782 1.65607 14.6163 1.80542C14.5916 1.82976 14.5546 1.84046 14.5057 1.8546C14.4801 1.862 14.4512 1.87035 14.4192 1.88208ZM10.6746 5.62833C10.8658 5.65334 11.3558 5.14959 11.3583 4.88875C11.3494 4.87731 11.3394 4.86068 11.3279 4.84167C11.2953 4.78734 11.2509 4.71351 11.1854 4.68542C11.0971 4.6475 10.945 4.65375 10.8704 4.70834C10.7032 4.83235 10.5554 4.98049 10.4317 5.14792C10.404 5.1949 10.3873 5.24758 10.3831 5.30195C10.3788 5.35632 10.387 5.41095 10.4071 5.46167C10.4488 5.545 10.5763 5.615 10.6746 5.62833ZM15.1608 5.36166C15.1438 5.38355 15.1276 5.40907 15.1111 5.43515C15.0722 5.49646 15.0314 5.56085 14.9729 5.58833C14.8896 5.6275 14.7379 5.63458 14.6708 5.58375C14.4964 5.44478 14.3366 5.28827 14.1942 5.11666C14.0996 5.00791 14.1308 4.83333 14.2325 4.73208C14.3342 4.63083 14.5079 4.60041 14.6171 4.69416C14.7801 4.83909 14.9349 4.99294 15.0808 5.155C15.1054 5.18141 15.1166 5.21996 15.1309 5.2691L15.1309 5.26911C15.1389 5.29671 15.1479 5.32765 15.1608 5.36166ZM9.98616 3.56245C10.0173 3.56185 10.0485 3.56125 10.0796 3.56125C10.1115 3.56125 10.1435 3.56188 10.1754 3.56252H10.1754C10.2368 3.56374 10.2981 3.56495 10.3592 3.56167C10.4394 3.55828 10.5151 3.52391 10.5705 3.46579C10.6259 3.40767 10.6566 3.33034 10.6561 3.25007C10.6556 3.16979 10.624 3.09283 10.5679 3.03539C10.5118 2.97795 10.4357 2.9445 10.3554 2.94208C10.1708 2.93375 9.98209 2.93375 9.79584 2.94208C9.71709 2.94488 9.64246 2.978 9.58756 3.03453C9.53267 3.09106 9.50174 3.16662 9.50125 3.24542C9.49967 3.32666 9.53004 3.40527 9.58584 3.46434C9.64163 3.52341 9.71839 3.55821 9.79959 3.56125C9.86153 3.56486 9.92385 3.56366 9.98616 3.56245ZM13.0613 5.9225C13.0613 5.95363 13.0619 5.9848 13.0625 6.01596C13.0637 6.07823 13.0649 6.14043 13.0613 6.20208C13.0578 6.28376 13.0223 6.36079 12.9625 6.41654C12.9027 6.47228 12.8234 6.50226 12.7417 6.5C12.6629 6.49844 12.5877 6.46671 12.5317 6.41135C12.4756 6.356 12.443 6.28124 12.4404 6.2025C12.4329 6.01625 12.4325 5.8275 12.4404 5.64333C12.4432 5.5646 12.4761 5.48993 12.5323 5.43473C12.5885 5.37953 12.6637 5.34801 12.7425 5.34667C12.8238 5.34496 12.9025 5.37513 12.9619 5.43072C13.0212 5.48632 13.0564 5.56293 13.06 5.64417C13.0646 5.70712 13.0634 5.77126 13.0623 5.83563V5.83566V5.83568C13.0618 5.8646 13.0613 5.89357 13.0613 5.9225ZM1.41246 14.9956C1.42895 14.9575 1.43774 14.9165 1.43834 14.875C1.43885 14.8335 1.43101 14.7923 1.41529 14.7539C1.39956 14.7155 1.37628 14.6806 1.34681 14.6514C1.31735 14.6222 1.28231 14.5992 1.24377 14.5838C1.20524 14.5683 1.164 14.5608 1.1225 14.5617C1.04134 14.5634 0.963991 14.5964 0.906666 14.6539C0.849342 14.7114 0.816492 14.7888 0.815002 14.87C0.815939 14.9511 0.847668 15.0288 0.903759 15.0874C0.959852 15.1459 1.03611 15.181 1.11709 15.1854C1.15859 15.1862 1.19985 15.1789 1.23849 15.1637C1.27714 15.1485 1.3124 15.1259 1.34225 15.097C1.37211 15.0682 1.39597 15.0337 1.41246 14.9956Z" fill="#662E93"/>
</g>
<defs>
<clipPath id="clip0_236_34">
<rect width="16" height="16" fill="white"/>
</clipPath>
</defs>
</svg>
