<svg width="36" height="36" viewBox="0 0 36 36" fill="none" xmlns="http://www.w3.org/2000/svg">
<g clip-path="url(#clip0_174_107)">
<path d="M32.108 -3.95775e-05C32.1819 0.0280854 32.2549 0.0608974 32.3307 0.0843349C32.6142 0.16973 32.8773 0.312538 33.1035 0.503915C33.3297 0.695292 33.5143 0.931165 33.6459 1.19693C33.7775 1.46269 33.8532 1.75269 33.8684 2.04896C33.8835 2.34523 33.8379 2.64147 33.7341 2.91934C33.6097 3.25871 33.4591 3.58777 33.3094 3.95059C33.6396 4.1034 33.9269 4.28996 33.8773 4.72496C33.8717 4.76902 34.0045 4.84308 34.0841 4.87965C34.3601 5.00527 34.6455 5.11777 34.9205 5.23871C35.4473 5.46652 35.5418 5.70277 35.3144 6.23152C34.259 8.69277 33.2027 11.1537 32.1454 13.6143C31.8227 14.3643 31.5027 15.12 31.1771 15.8709C30.9993 16.2825 30.7093 16.4334 30.3865 16.2862C30.0852 16.1484 30.0029 15.8381 30.1722 15.4425C31.4521 12.4543 32.7336 9.46684 34.0167 6.47996C34.0625 6.37309 34.1103 6.26527 34.1692 6.11527L33.4123 5.78715C33.3187 5.99621 33.2392 6.17527 33.1615 6.35527C29.8182 14.1078 26.4737 21.8596 23.1278 29.6109C23.0188 29.8541 22.8641 30.0741 22.6722 30.2587C21.6767 31.2187 20.6615 32.1562 19.6613 33.1059C19.2506 33.4987 18.7959 33.659 18.2579 33.4256C17.7199 33.1921 17.5094 32.759 17.5141 32.1871C17.5197 30.8043 17.5047 29.4215 17.5206 28.0396C17.5242 27.7613 17.5814 27.4863 17.689 27.2297C20.3874 20.944 23.0907 14.6596 25.7991 8.37652C25.88 8.18506 25.9232 7.97973 25.9263 7.77183C25.9366 6.15465 25.9329 4.53746 25.931 2.92027C25.931 1.7784 25.2714 1.09777 24.129 1.09684C17.0537 1.09246 9.97818 1.09246 2.90233 1.09684C1.74308 1.09684 1.09375 1.77652 1.09375 2.95027C1.09375 12.9796 1.09375 23.0093 1.09375 33.0393C1.09375 34.2309 1.74402 34.9031 2.92759 34.9031C9.98037 34.9081 17.0325 34.9081 24.0841 34.9031C25.2742 34.9031 25.931 34.2365 25.931 33.0525C25.931 30.6506 25.931 28.2487 25.931 25.8468C25.923 25.7299 25.9267 25.6124 25.9422 25.4962C26.0021 25.2084 26.1911 25.0396 26.4839 25.0443C26.609 25.0387 26.7316 25.0805 26.8272 25.1615C26.9227 25.2425 26.9843 25.3567 26.9995 25.4812C27.02 25.6202 27.0278 25.7608 27.0229 25.9012C27.0229 28.1512 26.977 30.4012 27.0388 32.6512C27.0856 34.3331 26.4007 35.5968 24.6688 36.0009H2.35124C2.05745 35.894 1.74402 35.8218 1.47268 35.6728C0.425713 35.0971 -0.000934095 34.1803 1.53525e-06 33.0009C0.00811033 23.0009 0.00998136 13.0009 0.00561509 3.0009C0.00561509 2.84902 0.00561472 2.69621 0.0205848 2.54527C0.0823364 1.71371 0.437876 1.02465 1.12182 0.561523C1.48952 0.312148 1.93863 0.186523 2.35124 -0.000976562H24.6688C24.6872 0.0133431 24.7073 0.0253092 24.7287 0.0346475C26.3024 0.463085 27.0219 1.40152 27.0238 3.03465C27.0238 3.72558 27.0238 4.41559 27.0238 5.10652C27.0352 5.21766 27.0524 5.32812 27.0753 5.43746C27.4495 4.57121 27.7854 3.80152 28.1129 3.02715C28.285 2.61746 28.5676 2.32215 29.013 2.29402C29.3039 2.27527 29.42 2.14309 29.4957 1.9059C29.8064 0.942148 30.379 0.243711 31.4082 0.00464821L32.108 -3.95775e-05ZM18.779 27.4434L22.2353 28.9387L27.7863 16.0584L24.3245 14.5584C22.4766 18.8634 20.6325 23.1412 18.779 27.4434ZM28.2195 15.0525C29.6857 11.6503 31.1453 8.26496 32.6114 4.86184L29.1552 3.36184L24.7633 13.5553L28.2195 15.0525ZM18.6546 28.5843V32.4131L18.7482 32.4656L21.5466 29.8312L18.6546 28.5843ZM30.3425 2.68684L32.2914 3.53059C32.443 3.17527 32.6048 2.84996 32.7227 2.50965C32.8113 2.25216 32.7979 1.97042 32.6853 1.72254C32.5727 1.47466 32.3694 1.27955 32.1174 1.17746C31.8715 1.07666 31.5966 1.07326 31.3484 1.16796C31.1001 1.26265 30.8971 1.44836 30.7804 1.68746C30.625 2.00246 30.4987 2.32965 30.3425 2.68684Z" fill="#B07FD8"/>
<path d="M7.96408 4.15692V5.76005H13.8202C13.9369 5.75233 14.0542 5.75642 14.1701 5.77224C14.4602 5.83224 14.6239 6.0263 14.6155 6.31786C14.6198 6.44299 14.5768 6.56514 14.4951 6.65987C14.4134 6.7546 14.299 6.81493 14.1748 6.8288C14.059 6.84602 13.9419 6.85292 13.8249 6.84942C11.9074 6.84942 9.98972 6.84942 8.07168 6.84942C7.17721 6.84942 6.84694 6.51567 6.846 5.61942C6.846 5.1038 6.84039 4.58817 6.846 4.07349C6.85536 3.43317 7.23709 3.03567 7.87519 3.03474C11.5946 3.02911 15.3135 3.02911 19.0316 3.03474C19.6595 3.03474 20.0384 3.41817 20.0496 4.04161C20.0599 4.65005 20.0608 5.26036 20.0496 5.8688C20.0375 6.44817 19.6885 6.82224 19.114 6.83911C18.3075 6.86161 17.501 6.85411 16.6935 6.8438C16.3193 6.83911 16.0984 6.61411 16.1059 6.29067C16.1134 5.96724 16.3398 5.76474 16.7188 5.76099C17.4532 5.75536 18.1886 5.76099 18.9493 5.76099V4.15692H7.96408Z" fill="#662E93"/>
<path d="M13.4955 10.2038H5.2517C5.1347 10.2078 5.01756 10.2053 4.90084 10.1963C4.76492 10.1871 4.63788 10.1253 4.54657 10.024C4.45526 9.92275 4.40683 9.78986 4.4115 9.65344C4.43209 9.36563 4.58179 9.17063 4.87932 9.13032C4.99589 9.11875 5.11309 9.11468 5.23018 9.11813H21.7908C22.3522 9.11813 22.6114 9.28875 22.6179 9.65344C22.6245 10.0181 22.355 10.2047 21.7759 10.2047L13.4955 10.2038Z" fill="#B07FD8"/>
<path d="M13.547 12.5625H21.7553C21.8839 12.5582 22.0126 12.562 22.1408 12.5737C22.442 12.6122 22.5927 12.809 22.6142 13.0959C22.6177 13.2324 22.5688 13.365 22.4776 13.4663C22.3863 13.5677 22.2597 13.6301 22.1239 13.6406C22.0305 13.6477 21.9368 13.6496 21.8432 13.6462H5.18153C5.08794 13.6495 4.99423 13.6476 4.90084 13.6406C4.76494 13.6305 4.63817 13.5682 4.54699 13.4668C4.45581 13.3653 4.40728 13.2324 4.41151 13.0959C4.43209 12.809 4.58179 12.6122 4.87933 12.5737C5.00746 12.562 5.1362 12.5583 5.2648 12.5625H13.547Z" fill="#B07FD8"/>
<path d="M11.5438 17.0916H5.23579C5.1191 17.0977 5.00212 17.0949 4.88586 17.0832C4.75575 17.0729 4.63458 17.0128 4.54748 16.9154C4.46039 16.818 4.41404 16.6908 4.41805 16.56C4.40635 16.4289 4.44708 16.2985 4.53128 16.1974C4.61549 16.0963 4.73629 16.0329 4.86715 16.021C4.99435 16.0048 5.1226 15.9986 5.25076 16.0022H17.8668C18.4282 16.0022 18.6864 16.1729 18.6948 16.5366C18.7032 16.9004 18.4338 17.0925 17.8528 17.0925L11.5438 17.0916Z" fill="#662E93"/>
<path d="M6.74966 28.4868C7.40969 28.4886 8.0496 28.7147 8.56479 29.1281C8.80337 29.3156 9.0326 29.5134 9.28148 29.6906C10.2573 30.3909 11.2398 30.2156 11.9134 29.2274C11.9789 29.1337 12.0332 29.0259 12.1005 28.934C12.2877 28.6893 12.5272 28.6134 12.8088 28.7615C12.8727 28.7924 12.9294 28.8363 12.9754 28.8904C13.0214 28.9445 13.0556 29.0077 13.0759 29.0758C13.0961 29.1439 13.102 29.2155 13.093 29.286C13.0841 29.3565 13.0606 29.4244 13.024 29.4853C12.1819 31.0134 10.9216 31.5749 9.37504 30.9628C8.867 30.7621 8.42631 30.3787 7.9716 30.0496C7.60202 29.7796 7.22309 29.5903 6.75528 29.5903C5.91321 29.5903 5.33031 29.9653 4.99442 30.7321C4.81665 31.139 4.55935 31.2806 4.24592 31.1521C3.93248 31.0237 3.82956 30.7031 3.99143 30.2934C4.42462 29.1965 5.51183 28.4849 6.74966 28.4868Z" fill="#662E93"/>
<path d="M8.31588 20.5312C7.24053 20.5312 6.16487 20.5312 5.08889 20.5312C4.66318 20.5312 4.4115 20.3277 4.40776 19.9931C4.40401 19.6584 4.6557 19.4465 5.08047 19.4456C7.26735 19.4456 9.45423 19.4456 11.6411 19.4456C12.0781 19.4456 12.3157 19.6434 12.3176 19.9846C12.3194 20.3259 12.0706 20.5312 11.614 20.5312C10.5149 20.5343 9.41556 20.5343 8.31588 20.5312Z" fill="#662E93"/>
</g>
<defs>
<clipPath id="clip0_174_107">
<rect width="35.4286" height="36" fill="white"/>
</clipPath>
</defs>
</svg>
