<svg width="15" height="16" viewBox="0 0 15 16" fill="none" xmlns="http://www.w3.org/2000/svg">
<path d="M6.5395 5.84924e-05C6.85976 0.0613085 7.19083 0.0904753 7.49903 0.189642C9.51208 0.835892 10.7054 2.20464 11.0343 4.30298C11.0901 4.66048 11.0697 5.02964 11.083 5.39298C11.0859 5.46464 11.083 5.53673 11.083 5.61798C11.1327 5.62382 11.1827 5.62674 11.2327 5.62673C11.9777 5.57756 12.3428 6.21839 12.3428 6.72923C12.3428 7.78089 12.3457 8.83214 12.3428 9.88381C12.3428 10.0088 12.3744 10.0751 12.4892 10.1338C13.0407 10.423 13.5798 10.7376 14.1367 11.0155C14.5143 11.2038 14.6553 11.4846 14.6391 11.8942C14.6071 12.6971 14.3742 13.4359 13.992 14.1351C13.6642 14.7338 13.2662 15.278 12.7051 15.6805C12.5346 15.803 12.3407 15.8934 12.1577 15.9984H11.9082C11.385 15.7726 10.972 15.4071 10.6238 14.9651C10.5951 14.9235 10.5561 14.8901 10.5106 14.8682C10.4651 14.8462 10.4147 14.8366 10.3643 14.8401C7.28649 14.8428 4.20868 14.8437 1.13088 14.8426C0.469981 14.8426 0.0353451 14.4517 0.0166287 13.7842C-0.00666279 12.9621 0.0062304 12.1388 0.00914184 11.3163C0.00914184 11.1101 0.143068 10.9851 0.328152 10.9892C0.513237 10.9934 0.635101 11.1263 0.635933 11.3467C0.638845 12.1126 0.632606 12.878 0.64134 13.6434C0.647781 13.7821 0.679645 13.9184 0.735338 14.0455C0.783169 14.1626 0.893804 14.2146 1.02648 14.2146H10.0104C10.0349 14.2146 10.059 14.2113 10.086 14.2092C9.95711 13.9126 9.82194 13.6259 9.70881 13.3342C9.53762 12.8754 9.44074 12.3921 9.42182 11.9026C9.40103 11.4963 9.53911 11.2092 9.92093 11.0201C10.4837 10.7409 11.0277 10.4246 11.5846 10.1305C11.684 10.078 11.7244 10.0226 11.7239 9.90548C11.7185 8.87964 11.7239 7.85381 11.7181 6.82756C11.7173 6.7138 11.6969 6.60103 11.6578 6.49423C11.5987 6.33423 11.4765 6.25381 11.296 6.25381C7.88542 6.25575 4.47487 6.25575 1.06433 6.25381C0.835575 6.25381 0.685844 6.39089 0.648411 6.63464C0.639327 6.71221 0.635852 6.79033 0.638013 6.86839C0.638013 7.39464 0.638013 7.92048 0.638013 8.44673C0.638013 8.66964 0.502423 8.81298 0.314843 8.80798C0.127263 8.80298 0.0108059 8.66548 0.00955816 8.44631C0.00706265 7.88381 0.00955816 7.32131 0.00955816 6.75881C0.00485281 6.51759 0.0729891 6.28057 0.20504 6.07881C0.400523 5.78714 0.670038 5.62506 1.02731 5.62506H1.27187C1.27187 5.39714 1.27187 5.18506 1.27187 4.97298C1.27395 3.53298 1.79344 2.31214 2.83823 1.32506C3.63472 0.572142 4.58509 0.141725 5.67647 0.0246417C5.71677 0.018045 5.75663 0.0090008 5.79583 -0.00244141L6.5395 5.84924e-05ZM8.94892 5.61923C8.94892 5.32381 8.9614 5.04256 8.94892 4.76256C8.84286 2.70756 6.59814 1.46506 4.81718 2.49089C3.53947 3.22673 3.29699 4.37256 3.40804 5.61923H8.94892ZM10.44 5.61923C10.5777 3.65922 9.93299 2.08339 8.17365 1.14381C6.54699 0.276725 4.93613 0.452142 3.48831 1.59381C2.19605 2.61339 1.77805 4.01798 1.90782 5.61631H2.76253C2.76253 5.39798 2.75754 5.19048 2.76253 4.98298C2.76365 4.78528 2.77671 4.58784 2.80163 4.39173C3.03912 2.85006 4.2848 1.68756 5.87652 1.51089C7.326 1.35006 8.79462 2.26631 9.34696 3.67256C9.51131 4.10127 9.59221 4.55754 9.58528 5.01673C9.58528 5.21714 9.58528 5.41756 9.58528 5.61964L10.44 5.61923ZM10.0544 11.9109C10.0869 12.6217 10.2928 13.2334 10.6076 13.8105C10.9225 14.3876 11.3138 14.9167 11.8795 15.2834C11.9922 15.3567 12.0771 15.353 12.1873 15.2801C12.6473 14.9742 12.995 14.5655 13.2824 14.1005C13.7129 13.4038 13.9961 12.6592 14.0057 11.8263C14.0057 11.7138 13.9761 11.6484 13.8738 11.5942C13.3007 11.2887 12.7299 10.9796 12.1615 10.6671C12.1237 10.6417 12.0792 10.628 12.0337 10.6276C11.9882 10.6273 11.9435 10.6403 11.9053 10.6651C11.3733 10.9588 10.8409 11.2521 10.3007 11.5292C10.111 11.6251 9.99288 11.733 10.0544 11.9126V11.9109Z" fill="#B07FD8"/>
</svg>
