<svg width="17" height="16" viewBox="0 0 17 16" fill="none" xmlns="http://www.w3.org/2000/svg">
<path d="M15.4865 14.4394C15.5041 14.4444 15.5221 14.4479 15.5403 14.4498C15.9604 14.4179 16.0189 14.5547 16.0047 14.9228C15.9944 15.1808 16.0047 15.4388 16.0017 15.6968C16.0017 15.8985 15.9054 15.9914 15.7059 15.9979C15.6736 15.9979 15.6414 15.9979 15.6091 15.9979H0.397774C0.0666538 15.9979 0.000430027 15.9325 0 15.6048C0 15.336 0 15.0673 0 14.7985C0 14.5297 0.081275 14.451 0.344021 14.4493H0.516032V5.0369C0.516032 4.71008 0.581826 4.64472 0.913806 4.64472H5.67721V0.370253C5.67721 0.0739646 5.75161 0 6.04832 0H15.1154C15.4113 0 15.4861 0.0748248 15.4861 0.371113C15.4861 4.98903 15.4861 9.60708 15.4861 14.2253L15.4865 14.4394ZM6.20184 3.60276H14.9572V0.524203H6.20184V3.60276ZM14.9658 4.1403H6.2027V4.64687H9.93447C10.2604 4.64687 10.3258 4.71352 10.3258 5.04593C10.3258 5.63765 10.3258 6.22908 10.3258 6.82022C10.3258 7.16424 10.263 7.22746 9.92587 7.22746H8.92477C8.87833 7.22746 8.83189 7.23348 8.78802 7.23606V7.74306C9.19827 7.74306 9.59604 7.74306 9.9921 7.74306C10.2346 7.74306 10.3224 7.82906 10.3228 8.07375C10.3228 8.68668 10.3228 9.29961 10.3228 9.91254C10.3228 10.2634 10.2622 10.3236 9.91039 10.3236H8.78673V10.8264H14.9658V4.1403ZM8.78329 11.3609V14.4416H9.29287C9.29287 13.9978 9.28556 13.5635 9.29287 13.1296C9.31075 12.7994 9.4547 12.4887 9.69502 12.2616C9.93533 12.0346 10.2537 11.9084 10.5843 11.9092C10.9149 11.9101 11.2326 12.0378 11.4718 12.2661C11.711 12.4944 11.8534 12.8058 11.8696 13.136C11.876 13.5695 11.8696 14.003 11.8696 14.4416H14.9563V11.3609H8.78329ZM2.83904 14.4433V14.2575C2.83904 13.5746 2.83904 12.8919 2.83904 12.2093C2.83904 11.956 2.92504 11.8709 3.17747 11.8709H6.11283C6.36611 11.8709 6.45169 11.9569 6.45212 12.2089C6.45212 12.8969 6.45212 13.585 6.45212 14.273V14.445H8.2492V11.366H1.04023V14.4433H2.83904ZM0.523342 15.4719H15.4788V14.9757H0.523772L0.523342 15.4719ZM1.04625 6.19496V8.24533H3.08501V6.19496H1.04625ZM5.66861 8.25479V6.20442H3.62641V8.25479H5.66861ZM6.20227 8.24877H8.2492V6.20528H6.20227V8.24877ZM1.04195 10.8268H3.08673V8.78243H1.0398L1.04195 10.8268ZM5.67291 8.78458H3.62598V10.8302H5.67076L5.67291 8.78458ZM6.20829 8.78114V10.8255H8.25307V8.78114H6.20829ZM8.25393 5.16892H1.04324V5.66517H8.25178L8.25393 5.16892ZM11.3536 14.4437C11.3536 13.9784 11.3721 13.5226 11.3475 13.0676C11.3273 12.6841 10.9794 12.3912 10.5971 12.3856C10.2067 12.3796 9.84546 12.6669 9.8231 13.0565C9.79515 13.5144 9.81665 13.9754 9.81665 14.442L11.3536 14.4437ZM3.36797 12.3938V14.4381H4.38068V12.3938H3.36797ZM5.92663 14.4437V12.3994H4.91262V14.4437H5.92663ZM9.79686 6.70326V5.17365H8.78415V6.70197L9.79686 6.70326ZM9.79987 8.26941H8.78759V9.79859H9.79987V8.26941Z" fill="#B07FD8"/>
</svg>
