<svg width="17" height="16" viewBox="0 0 17 16" fill="none" xmlns="http://www.w3.org/2000/svg">
<path d="M0 6.057C0.0958679 5.88426 0.240533 5.82597 0.440042 5.82683C1.89145 5.83374 3.34285 5.83029 4.79426 5.83029H5.00067V5.10005C4.89833 5.10005 4.80203 5.10609 4.70659 5.10005C4.49456 5.08364 4.3676 4.95841 4.36112 4.74508C4.35393 4.41084 4.35393 4.07631 4.36112 3.74149C4.36631 3.50571 4.50838 3.3822 4.76662 3.38047C5.32801 3.37745 5.8894 3.38047 6.45078 3.38047H8.04599V3.18226C8.04599 2.25928 8.04599 1.33644 8.04599 0.413752C8.04599 0.359772 8.0434 0.305792 8.04599 0.252244C8.05851 0.0972147 8.15395 0.000914663 8.28912 0.00221017C8.42428 0.00350569 8.50935 0.0937597 8.52706 0.239721C8.53224 0.282904 8.53353 0.326088 8.53828 0.389568H8.71102C9.26694 0.389568 9.82271 0.389568 10.3783 0.389568C10.7204 0.389568 10.8879 0.551507 10.8909 0.890931C10.8944 1.31759 10.8944 1.74395 10.8909 2.17003C10.8879 2.50471 10.7255 2.66276 10.3887 2.66405C9.83293 2.66621 9.27716 2.66405 8.72138 2.66405H8.53872V3.37961H8.73132C9.73491 3.37961 10.7385 3.37961 11.7421 3.37961C12.1035 3.37961 12.2171 3.49275 12.2171 3.85463C12.2171 4.12453 12.2171 4.39399 12.2171 4.66389C12.2171 4.98129 12.0945 5.10091 11.7753 5.10437C11.7119 5.10437 11.6484 5.10437 11.575 5.10437V5.83115H11.768C13.2246 5.83115 14.6816 5.8346 16.1386 5.82769C16.3381 5.82769 16.4819 5.88513 16.5787 6.05786V7.09427C16.4923 7.31019 16.3096 7.35337 16.0941 7.33437V7.55029C16.0941 10.1954 16.0941 12.8402 16.0941 15.4844C16.0941 15.8731 15.9689 16.0026 15.585 16.0026H0.984589C0.619255 16.0026 0.484521 15.8696 0.484521 15.5082C0.484521 14.2723 0.484521 13.0364 0.484521 11.8004C0.482496 11.7572 0.483506 11.7139 0.487544 11.6709C0.507409 11.5413 0.582117 11.4666 0.713395 11.4593C0.844674 11.4519 0.929313 11.5232 0.961269 11.6463C0.971678 11.7047 0.974725 11.7642 0.970338 11.8233C0.970338 12.9893 0.970338 14.1552 0.970338 15.3212V15.5065H5.00586V7.34647H0.969907V10.4505C0.973401 10.5044 0.971229 10.5586 0.963429 10.612C0.935359 10.7368 0.85331 10.8145 0.724191 10.812C0.588594 10.8094 0.505249 10.7299 0.487112 10.593C0.482864 10.5446 0.481854 10.496 0.484089 10.4475V7.33221C0.259102 7.35251 0.0863674 7.2981 0 7.09341V6.057ZM4.85515 4.61769H7.55715C7.62182 4.61507 7.68659 4.61854 7.75061 4.62805C7.80315 4.63919 7.85034 4.66787 7.88442 4.70938C7.9185 4.75088 7.93745 4.80275 7.93815 4.85645C7.93885 4.91015 7.92127 4.9625 7.88829 5.00488C7.85531 5.04727 7.80889 5.07717 7.75666 5.08968C7.69847 5.10072 7.63921 5.10506 7.58004 5.10264C6.95387 5.10264 6.32771 5.10264 5.70155 5.10264H5.50938V15.5008H6.12518C6.12518 15.2987 6.12518 15.11 6.12518 14.9209C6.12518 14.7404 6.1973 14.5949 6.3588 14.5063C6.43118 14.4728 6.5056 14.444 6.58163 14.42V14.236C6.58163 13.3723 6.58163 12.5086 6.58163 11.645C6.58163 11.2749 6.73018 11.1268 7.10372 11.1268C7.89715 11.1268 8.69058 11.1268 9.48401 11.1268C9.85409 11.1268 10.0022 11.2758 10.0022 11.6493C10.0022 12.513 10.0022 13.3766 10.0022 14.2403V14.4264C10.3524 14.5171 10.4591 14.6562 10.4595 15.0068C10.4595 15.1722 10.4595 15.3372 10.4595 15.5039H11.0701V5.10264C10.3438 5.10264 9.6317 5.10264 8.9196 5.10264C8.85497 5.1053 8.79025 5.10096 8.72657 5.08968C8.67435 5.07713 8.62795 5.04718 8.59501 5.00476C8.56206 4.96234 8.54453 4.90998 8.54528 4.85628C8.54603 4.80257 8.56503 4.75073 8.59915 4.70925C8.63328 4.66777 8.68049 4.63914 8.73304 4.62805C8.79706 4.61853 8.86184 4.61506 8.92651 4.61769H11.7222V3.87406H4.85601L4.85515 4.61769ZM11.5771 15.5026H15.6057V7.34647H11.5771V15.5026ZM9.5043 14.4312V11.6242H8.54606V14.4312H9.5043ZM7.07436 14.4312H8.03519V11.6277H7.07479L7.07436 14.4312ZM10.3978 2.17046V0.88359H8.54303V2.17046H10.3978ZM0.490999 6.83647H5.00456V6.3269H0.490999V6.83647ZM16.0877 6.32474H11.5789V6.83733H16.0877V6.32474ZM9.96551 14.936H6.6205V15.5043H9.96551V14.936Z" fill="#B07FD8"/>
</svg>
