<svg width="16" height="16" viewBox="0 0 16 16" fill="none" xmlns="http://www.w3.org/2000/svg">
<path d="M2.40025 5.59929V5.36036C2.40025 4.2787 2.40025 3.1972 2.40025 2.11587C2.40025 1.72899 2.53221 1.59604 2.91659 1.59504C3.46642 1.59504 4.01625 1.59504 4.56608 1.59504H4.7995C4.7995 1.47108 4.7995 1.36111 4.7995 1.25114C4.8065 0.501379 5.29935 0.00403344 6.04562 0.00153422C7.34521 -0.00246453 8.6448 -0.00246453 9.9444 0.00153422C10.6942 0.00153422 11.1835 0.501379 11.1915 1.25114C11.1915 1.35611 11.1915 1.46108 11.1915 1.58454C11.2735 1.58904 11.3415 1.59504 11.4054 1.59504C11.9678 1.59504 12.5306 1.59504 13.0929 1.59504C13.4528 1.59504 13.5928 1.73499 13.5928 2.09488C13.5928 3.18254 13.5928 4.27037 13.5928 5.35836V5.59929H15.4642C15.867 5.59929 15.9925 5.72325 15.993 6.12362V15.4832C15.993 15.5272 15.993 15.5707 15.9905 15.6147C15.9745 15.8421 15.8356 15.981 15.6086 15.997C15.5526 16.001 15.4962 16 15.4402 16H0.553831C0.478915 16.0035 0.403842 16.0006 0.329401 15.9915C0.24781 15.982 0.171814 15.9452 0.113682 15.8872C0.0555493 15.8292 0.0186713 15.7532 0.0090011 15.6716C-0.000103939 15.5972 -0.00294627 15.5221 0.000503845 15.4472C0.000503845 12.3528 0.000503845 9.25831 0.000503845 6.16361C0.000503845 5.71375 0.111469 5.60078 0.565827 5.60078H2.40025V5.59929ZM5.99913 15.1963V14.9789C5.99913 14.0222 5.99913 13.0656 5.99913 12.1093C5.99913 11.7339 6.13159 11.6034 6.50797 11.6029H9.47054C9.86742 11.6029 9.99238 11.7299 9.99238 12.1337C9.99238 13.0844 9.99238 14.0341 9.99238 14.9829V15.1923H12.786V2.41428H11.194V2.62721C11.194 3.45895 11.194 4.29019 11.194 5.12143C11.194 5.90519 10.7012 6.39554 9.91641 6.39654C8.63547 6.39887 7.35437 6.39887 6.07311 6.39654C5.29185 6.39654 4.803 5.90169 4.8015 5.11594C4.8015 4.2842 4.8015 3.45296 4.8015 2.62122V2.41478H3.208V15.1963H5.99913ZM8.005 0.800785C7.35521 0.800785 6.70541 0.800785 6.05561 0.800785C5.74821 0.800785 5.59676 0.954737 5.59626 1.26464C5.59626 2.55224 5.59626 3.83983 5.59626 5.12743C5.59626 5.44983 5.74621 5.60079 6.06511 5.60128C7.35237 5.60128 8.63947 5.60128 9.9264 5.60128C10.2453 5.60128 10.3953 5.45133 10.3953 5.12743C10.3953 3.8465 10.3953 2.56523 10.3953 1.28363C10.3953 0.949238 10.2483 0.801285 9.91691 0.800785C9.2811 0.797786 8.6448 0.800785 8.0065 0.800785H8.005ZM2.38626 15.1963V6.41053H0.808751V15.1963H2.38626ZM15.1863 15.1963V6.41153H13.6073V15.1963H15.1863ZM9.19463 12.4132H6.80888V15.1903H9.19463V12.4132Z" fill="#B07FD8"/>
</svg>
